M48
;Layer_Color=9474304
;FILE_FORMAT=2:5
INCH,LZ
;TYPE=PLATED
T1F00S00C0.00787
T2F00S00C0.01181
T3F00S00C0.01575
T4F00S00C0.01968
T6F00S00C0.03543
T7F00S00C0.03600
T8F00S00C0.04331
T9F00S00C0.05906
T10F00S00C0.06693
%
T01
X0138386Y-0146752
Y-0142815
X0142323
X014626
Y-0146752
X0142323
X0150197
Y-0142815
Y-0138878
X014626
X0142323
X0138386
T02
X0005512Y-0230512
X0017196
X002888
X0040564
X0052248
X0063932
X0075616
X00873
X0084055Y-0205709
X0076279Y-0202854
X0076181Y-0189075
X0081791Y-0186516
X0085925Y-0183957
X0084153Y-0165945
X0076181Y-017185
X0067716Y-0175689
Y-0192864
Y-0210039
Y-0158514
X0076181Y-0154626
X0084153Y-0147441
X0076279Y-0137205
X0067716Y-0141339
X009941Y-0141142
X0102756Y-0144095
X0118551Y-0144095
X0127362Y-0145276
Y-0151132
X0136811Y-0154134
X0141634
X014685Y-0154134
X015Y-0165748
X0136024Y-0165453
X0130118Y-016811
X0127461Y-0165157
X0131102Y-016063
X0118551Y-0162992
X0102756Y-0163976
X009941Y-0160039
Y-0179134
X0102362Y-018248
X0118551Y-0182165
X0127362Y-0182874
X0131791Y-0194685
X0127362Y-0207087
X0138544Y-020766
X0143544
X0148544
X0153544
X0157404Y-0230512
X014572
X0134036
X0122352
X0110668
X0098984
X0100787Y-0211417
X0102559Y-0201181
X0099606Y-0198228
X0118551Y-0201181
X0112795Y-0216779
X0169088Y-0230512
X0180772
X0192456
X020414
X0215824
X0227508
X0239192
X0250876
X0248228Y-0191831
X0242421Y-0196063
X0243307Y-0177165
X0234449
X0230912Y-0176958
X0228937Y-0174016
X0224114Y-0177657
X0225197Y-0183957
Y-0189075
X0215945Y-0182874
X0214272Y-0173622
X0212795Y-0162106
X0212205Y-0151673
X0228182Y-0153216
X0234941Y-0164567
X0238976
Y-0168504
Y-016063
X0243012Y-0164665
X0244882Y-0133858
X0240256Y-0132087
X0235255Y-0138287
X0225295Y-0134055
X0221555
X0208627Y-0135647
X0207874Y-0132185
X0191339Y-0131883
X0176476Y-0137205
X0172539
X016889Y-0138393
X0166381Y-0143265
X0146653Y-0131595
X0141634Y-0131595
X0142323Y-0121653
X013376Y-0127362
X0127362Y-0131299
X0102756Y-0125197
X0145472Y-0175787
X0160138Y-0182874
X0165945Y-0187992
X0170669
X0178937Y-0183465
X0178839Y-0177559
Y-0174016
X0188878Y-0168307
X0188779Y-0164764
X0188678Y-0161222
X0193799Y-0187205
X0191732Y-0195965
X0204921Y-0199213
X023276Y-011911
X0249902Y-0120177
X026998Y-0123819
X0266634Y-0135138
X026437Y-0160433
X0265551Y-0171752
X0267913Y-0180118
X0273917Y-0185925
X0293406Y-0183071
X0293701Y-0147736
X0298819
X029941Y-0151575
X0298819Y-0133071
X0293568Y-0128972
X0315945Y-0120374
X031998Y-0134252
X0327461Y-013435
X0334842
X0315945Y-0140256
X0251389Y-0161232
X0251476Y-0211811
X0255709Y-0215945
X0259842Y-0220374
X026256Y-0230512
X0274244
X0285928
X0297612
X0309296
X032098
X0332664
X0344348
X0356032
X0367716
X0269094Y-0211221
X0264961Y-0207087
X026063Y-0202756
X0259547Y-008691
X0257087Y-008061
X026063Y-0077658
X0258858Y-0062598
X0264764Y-00625
X0273622Y-0056988
X028189Y-0048228
X0279873Y-0045315
X0277678Y-004217
X0296583Y-0037104
X0296457Y-0033563
X0310138Y-0034744
X0319193Y-0036516
X0319685Y-0017913
X0321457Y-0014567
X0317913
X0309842Y-0014862
X0309296Y-0005709
X032098
X0332664
X0344348
X0356032
X0367716
X0354626Y-0041043
X033563
X0341831Y-0049114
X0339469Y-0057776
X0315846Y-0054134
X0312402Y-0071653
X0307087
X0296063Y-0071063
X0292028Y-0070866
X0303346Y-0087205
Y-0092323
X0295197Y-0103031
X0311024Y-0103839
X0318307Y-0102559
X0333563Y-0104724
X0336417Y-0100689
X0336122Y-0087106
X0337894Y-0113976
X0282185Y-0090256
X0253248Y-0093012
X0252658Y-006752
X0257185Y-0046161
X0258366Y-0014469
X0264862Y-0014764
X0272047Y-0018406
X0282087Y-0014862
X0293012
X0298524
X0297612Y-0005709
X0285928
X0274244
X026256
X0250876
X0239192
X0227508
X0215824
X020414
X0192456
X0180772
X0169088
X0157404
X014572
X0134036
X0122352
X0110668
X0098984
X0118898Y-0022
X0115748Y-0040551
X0125689Y-0039862
Y-0043406
X0134547Y-0037008
X0150591Y-0038287
X0149409Y-0042618
X0164272Y-0038287
X0164665Y-003189
X0185236Y-0035236
X019252Y-0029724
X019813Y-0029823
X0204232Y-0029626
X0210138Y-0029724
X0214469Y-0032776
X0233455Y-0027834
X0246555Y-0032972
X0236803Y-0053158
X0233858Y-0056398
Y-0060039
X0233661Y-0069784
X0237205
Y-0078839
X0237303Y-0082677
X0250492Y-0116142
X0204823Y-0114961
X020187Y-0117224
X0199144Y-0114961
X0196436Y-0117245
X0193701Y-0114961
X019063Y-0117205
X0187598Y-0114961
X0184744Y-0117224
X0181988Y-0102067
X0173819Y-009439
X0173955Y-0090688
X0173917Y-0087106
Y-0083169
X0167717Y-0075098
X0167421Y-0069095
Y-0065551
X0175984Y-0063189
X0183563Y-0056988
X0187402Y-0049508
X0197835Y-0049409
X0169193Y-0052264
X0154134Y-0077756
Y-0082087
X0138878Y-0080905
X014311Y-0092913
Y-0108071
X015374Y-0107874
Y-0111614
Y-0104134
X0150303Y-0117329
X0131496Y-0108317
X0123031Y-0110827
X0118898Y-011078
X0117717Y-0104724
X0118898Y-0088585
Y-006639
X0120177Y-0060335
X0127657Y-0066535
X0128051Y-0072736
X00873Y-0005709
X0075616
X0063932
X0052248
X0040564
X002888
X0017196
X0005512
T03
X0332972Y-0024075
X0336516
X0340059
X0343602
X0347146
X0350689
X0354232
X0352461Y-0021004
X0356004
X0348917
X0345374
X0341831
X0338287
X0334744
T04
X0043701Y-0119095
X004685Y-012185
X0047638Y-0113386
X0046457Y-0109843
X0046949Y-0098917
X0043701Y-009626
X0044882Y-0087303
X0048819
X0045276Y-0076575
X0042323Y-0073819
X0043701Y-0063779
X0047638
X004685Y-0054134
X0042913
X0043504Y-0044094
X0047441
X0047835Y-0030512
X0043898
Y-0020669
X0047835
T06
X0158012Y-0020768
X0168012
X0178012
X0188012
X0198012
X0209252
X0219252
X0229252
X0239252
X0249252
T07
X0308642Y-0200887
Y-0190887
Y-0180887
Y-0170887
X0318642Y-0175887
Y-0185887
Y-0195887
Y-0205887
T08
X0353642Y-0214862
X0361634
Y-0161911
X0353642
T09
X0019685Y-0193898
X0029528
Y-0180118
X0019685
Y-0166339
X0029528
Y-0152559
X0019685
Y-0138779
X0029528
Y-0125
X0019685
X034498Y-0120472
X0354823
Y-0134252
X034498
Y-0106693
X0354823
Y-0092913
X034498
Y-0079134
X0354823
Y-0065354
X034498
X0029528Y-0069882
X0019685
Y-0056102
X0029528
Y-0042323
X0019685
Y-0083661
X0029528
Y-0097441
X0019685Y-0097441
Y-0111221
X0029528
T10
X0331634Y-0219391
Y-0157383
M30
