M48
;Layer_Color=9474304
;FILE_FORMAT=2:5
INCH,LZ
;TYPE=PLATED
T1F00S00C0.01181
T2F00S00C0.01575
T4F00S00C0.03543
T5F00S00C0.03600
T6F00S00C0.03937
T7F00S00C0.04331
T8F00S00C0.05906
T9F00S00C0.06693
%
T01
X0005512Y-0230512
X0017196
X002888
X0040564
X0052248
X0063932
X0075616
X00873
X0042126Y-0218898
X0069685Y-0190945
Y-0173228
X0069734Y-0155856
X0069685Y-0138189
X0070029Y-0119794
X0094744Y-0131165
Y-0144157
Y-0157149
Y-0170141
Y-0183133
X0110724Y-0183365
Y-0170372
Y-015738
X0118307Y-015935
X0110724Y-0144388
X0110724Y-0131396
X0124016Y-012126
X0129921Y-0121041
X0135039Y-0128347
X0139764
X0146368Y-0140354
X0152058
X0156125Y-0145276
X0158929Y-0137489
X0161671Y-0134094
X0171762Y-0140551
X0176953
X0182734Y-0140157
X0184252Y-0146457
X0187402Y-0151575
Y-015748
Y-0163337
X0193701Y-0163386
Y-015748
Y-0151575
X0201158Y-0155019
Y-0160019
Y-0164075
X0196457Y-0169291
X0203346Y-0176476
X0205118Y-0192126
X0208179Y-0197805
X0208071Y-0203248
X0208179Y-0208828
X0208071Y-0214366
X0222073Y-0215884
X0221949Y-0220669
X0227508Y-0230512
X0239192
X0250876
X0246358Y-0222146
X0236497Y-0218209
X0239665Y-0212008
X0245221Y-020671
X0244882Y-0201575
X0250375Y-0201594
X0250356Y-0207068
X0228976Y-0201388
X0224395Y-0204739
X0220571Y-01875
X0216929Y-0159055
X0211811Y-015502
X0210688Y-0146399
X019753Y-0140551
X0191535Y-0140354
X0181102Y-0154331
X0170339Y-0153381
X0159687Y-0155217
X0159844Y-0161121
X0155512Y-0172047
X0160433Y-017815
X0153642Y-0183465
X0165354Y-0197047
X0165256Y-0217815
X0169088Y-0230512
X0180772
X0192456
X020414
X0215824
X0157404
X014572
X0134036
X0122352
X0110668
X0098984
X0245276Y-0177854
X0239173Y-0151279
X023563Y-013435
X0230064Y-0134345
X0224514Y-0134335
X0218799Y-0131201
X0251575Y-01375
X0253839Y-0148622
X0258268Y-0148524
X0266535Y-0147638
X0266613Y-0141575
X0266812Y-0135325
X0265354Y-0153642
X0287795Y-0152756
X028563Y-0169768
X0280118Y-0179921
X0279823Y-0188681
X0269882Y-0198936
Y-0209813
X0263238Y-0214124
X025935Y-0214173
X0258465Y-0222047
X0254626Y-0222146
X0250964
X0262992Y-0220866
X026256Y-0230512
X0274244
X0285928
X0297612
X0309296
X032098
X0332664
X0344348
X0356032
X0367716
X0288189Y-0220866
X0290354Y-0207479
X0297342Y-0201476
X029626Y-0179921
X0305523Y-0145141
X0311101Y-0145243
X0331477Y-0146952
X0331378Y-0140849
X0292126Y-0126476
X0284449Y-0123622
X0273622Y-0120874
X0255512Y-0122047
X0258799Y-0193334
X0262736
X0258858Y-0096555
Y-0088681
Y-0080807
X0266732
X0274606
Y-0088681
X0266732
Y-0096555
X0274606
X0285039Y-0097638
X0290551
X0292618Y-0109941
X0285433Y-0114173
X0303839Y-0112795
X0307283Y-0107283
Y-0102067
X0307087Y-0091831
X0308661Y-0085827
X0296444Y-0084908
X0291164Y-0079921
X0285039Y-0080709
X0285433Y-006811
X027559Y-0069685
X0266662Y-0068395
X0267323Y-0064173
X0264538Y-0057874
X0260995
X0272047Y-0056708
X025748Y-0066929
X0252165Y-0074114
X0285433Y-0043809
X0298031Y-0044094
X0301678Y-0044035
X0305906Y-0044094
X0309449
X0306496Y-0034252
X0300984
Y-002874
X0306496
X0302756Y-0017717
X0303016Y-0013706
X0299625Y-0019893
X0285433Y-0019399
X0285928Y-0005709
X0274244
X026256
X0263779Y-0016142
X0297612Y-0005709
X0309296
X032098
X0320866Y-0014567
X032441Y-0024016
X0323995Y-0041729
X0327165Y-0051181
X0331102Y-0053937
X0335039Y-0051181
X0318937Y-0050394
Y-0056693
X0309842Y-0062697
X0331012Y-0072324
X0330709Y-0085433
X032441Y-0085827
X0330512Y-0099606
X0324114Y-0110728
X0319094Y-0110531
X0354808Y-0034091
X0356032Y-0005709
X0367716
X0344348
X0332664
X0250876
X0239192
X0227508
X0215824
X020414
X0192456
X0180772
X0169088
X0157404
X014572
X0134036
X0122352
X0110668
X0098984
X0121752Y-0022441
Y-0033268
X0130315Y-0042323
X0140551Y-0033465
Y-0027559
X0172549Y-0027953
X0178632
X0199213Y-0029921
X0194117Y-0035531
X0193504Y-005059
X0212205Y-0055905
X0213878Y-0070693
Y-0074311
X0214075Y-0086319
Y-0091839
X0210531Y-0089124
X0229896Y-0086147
X0237499Y-0078929
X024252Y-0069413
X0241482Y-0062061
X0241335Y-0058521
X0231496Y-0068504
X0231402Y-004252
X0237303Y-004252
X024252Y-0033858
X0242913Y-0027559
X0214961Y-0033858
X021811Y-0041732
X0166535Y-0051181
X0157352Y-0051938
X0157185Y-0056004
X0147047Y-0059069
X0148031Y-0068898
Y-007441
Y-0079921
X0151575Y-0077165
Y-0071653
Y-0066142
X0150197Y-0085925
Y-0091437
Y-0096949
X015374Y-0094144
Y-0088681
X0161909Y-007815
X0126378Y-0077165
Y-0081496
X0112205Y-0084744
X0115748Y-007441
Y-0055118
X0111919Y-0043494
X0102559Y-0047933
X0100001Y-0104725
X0100394Y-011063
Y-0116142
X009685Y-0113386
X0096854Y-0107878
X0112205Y-0103347
X0147328Y-0105686
X0155217Y-0117323
X0171752Y-0116831
X0177124Y-011669
X0174508Y-0113287
X0168996
X0237898Y-0111737
X0237795Y-0117323
X0241339Y-0114567
Y-0109055
X0237008Y-0101181
X0236947Y-0094943
X0248425Y-0114173
X0091929Y-0100591
Y-0081299
Y-0062008
Y-0042717
X0070768Y-0037341
Y-0056633
Y-0075924
Y-0095215
Y-001805
X0075616Y-0005709
X0063932
X0052248
X0040564
X002888
X0017196
X0005512
X00873
T02
X0332972Y-0024075
X0336516
X0340059
X0343602
X0347146
X0350689
X0354232
X0356004Y-0021004
X0352461
X0348917
X0345374
X0341831
X0338287
X0334744
T04
X0158012Y-0018012
X0168012
X0178012
X0188012
X0198012
X0209252
X0219252
X0229252
X0239252
X0249252
T05
X0308642Y-0200887
Y-0190887
Y-0180887
Y-0170887
X0318642Y-0175887
Y-0185887
Y-0195887
Y-0205887
T06
X0098032Y-0213386
X0108031
X0118032
T07
X0353642Y-0214862
X0361634
Y-0161911
X0353642
T08
X0019685Y-0193898
X0029528
Y-0180118
X0019685
Y-0166339
X0029528
Y-0152559
X0019685
Y-0138779
X0029528
Y-0125
X0019685
X034498Y-0120472
X0354823
Y-0134252
X034498
Y-0106693
X0354823
Y-0092913
X034498
Y-0079134
X0354823
Y-0065354
X034498
X0029528Y-0069882
X0019685
Y-0056102
X0029528
Y-0042323
X0019685
Y-0083661
X0029528
Y-0097441
X0019685Y-0097441
Y-0111221
X0029528
T09
X0331634Y-0219391
Y-0157383
M30
