G04*
G04 #@! TF.GenerationSoftware,Altium Limited,Altium Designer,22.10.1 (41)*
G04*
G04 Layer_Physical_Order=2*
G04 Layer_Color=16440176*
%FSLAX25Y25*%
%MOIN*%
G70*
G04*
G04 #@! TF.SameCoordinates,F94DDA68-A68B-42FE-BC48-FD12F86C1609*
G04*
G04*
G04 #@! TF.FilePolarity,Positive*
G04*
G01*
G75*
%ADD13C,0.02362*%
%ADD14C,0.01000*%
%ADD134C,0.07874*%
%ADD135O,0.07480X0.03543*%
%ADD137C,0.05906*%
%ADD138C,0.06000*%
%ADD139C,0.06693*%
%ADD140C,0.09055*%
%ADD141R,0.05906X0.05906*%
%ADD142C,0.02756*%
G36*
X329823Y-31496D02*
X353511D01*
X353662Y-31996D01*
X353093Y-32376D01*
X352568Y-33163D01*
X352483Y-33591D01*
X357133D01*
X357048Y-33163D01*
X356522Y-32376D01*
X355953Y-31996D01*
X356105Y-31496D01*
X362106D01*
Y-37008D01*
Y-141339D01*
X342126D01*
X342126Y-141339D01*
X341740Y-141358D01*
X340983Y-141508D01*
X340270Y-141804D01*
X339628Y-142232D01*
X339083Y-142778D01*
X338654Y-143420D01*
X338358Y-144133D01*
X338208Y-144890D01*
X338189Y-145276D01*
X338189Y-145276D01*
Y-145844D01*
X337967Y-146959D01*
X337532Y-148009D01*
X336901Y-148954D01*
X336097Y-149758D01*
X335152Y-150389D01*
X334102Y-150824D01*
X332987Y-151046D01*
X329823D01*
X329823Y-151046D01*
X329188Y-151077D01*
X327942Y-151325D01*
X326768Y-151811D01*
X325712Y-152517D01*
X324813Y-153415D01*
X324108Y-154472D01*
X323621Y-155645D01*
X323374Y-156891D01*
Y-158162D01*
X323621Y-159408D01*
X324108Y-160581D01*
X324813Y-161638D01*
X325712Y-162536D01*
X326768Y-163242D01*
X327942Y-163728D01*
X329188Y-163976D01*
X329823Y-164007D01*
X336380D01*
X336697Y-164394D01*
X336555Y-165110D01*
Y-165189D01*
X336539Y-165266D01*
X336539Y-166507D01*
X336555Y-166585D01*
Y-166664D01*
X336797Y-167881D01*
X336827Y-167954D01*
X336843Y-168031D01*
X337317Y-169178D01*
X337362Y-169243D01*
X337392Y-169316D01*
X338081Y-170348D01*
X338137Y-170404D01*
X338181Y-170470D01*
X339058Y-171347D01*
X339124Y-171391D01*
X339180Y-171447D01*
X340212Y-172136D01*
X340285Y-172167D01*
X340351Y-172211D01*
X341497Y-172686D01*
X341575Y-172701D01*
X341648Y-172731D01*
X342865Y-172973D01*
X342944D01*
X343021Y-172989D01*
X343642Y-172989D01*
X343642Y-172989D01*
X344262D01*
X344340Y-172973D01*
X344419D01*
X345636Y-172731D01*
X345709Y-172701D01*
X345786Y-172685D01*
X346933Y-172211D01*
X346999Y-172167D01*
X347072Y-172136D01*
X348103Y-171447D01*
X348159Y-171391D01*
X348225Y-171347D01*
X349102Y-170470D01*
X349146Y-170404D01*
X349202Y-170348D01*
X349892Y-169316D01*
X349922Y-169243D01*
X349966Y-169177D01*
X350441Y-168031D01*
X350456Y-167954D01*
X350486Y-167880D01*
X350728Y-166663D01*
Y-166584D01*
X350744Y-166507D01*
Y-165959D01*
X351192Y-165738D01*
X351358Y-165865D01*
X352460Y-166322D01*
X353642Y-166477D01*
X354824Y-166322D01*
X355925Y-165865D01*
X356871Y-165140D01*
X357438Y-164400D01*
X357988Y-164359D01*
X358056Y-164388D01*
X358534Y-165010D01*
X359442Y-165707D01*
X360499Y-166145D01*
X361134Y-166229D01*
Y-161911D01*
X362134D01*
Y-166229D01*
X362768Y-166145D01*
X363826Y-165707D01*
X364734Y-165010D01*
X365430Y-164103D01*
X365868Y-163045D01*
X366348Y-163138D01*
Y-213635D01*
X365868Y-213728D01*
X365430Y-212671D01*
X364734Y-211763D01*
X363826Y-211066D01*
X362768Y-210628D01*
X362134Y-210544D01*
Y-214863D01*
X361134D01*
Y-210544D01*
X360499Y-210628D01*
X359442Y-211066D01*
X358534Y-211763D01*
X358056Y-212385D01*
X357988Y-212414D01*
X357438Y-212373D01*
X356871Y-211633D01*
X355925Y-210908D01*
X354824Y-210452D01*
X353642Y-210296D01*
X352460Y-210452D01*
X351358Y-210908D01*
X351192Y-211035D01*
X350744Y-210814D01*
Y-210266D01*
X350728Y-210188D01*
Y-210109D01*
X350486Y-208892D01*
X350456Y-208819D01*
X350441Y-208742D01*
X349966Y-207595D01*
X349922Y-207529D01*
X349891Y-207456D01*
X349202Y-206425D01*
X349146Y-206369D01*
X349102Y-206303D01*
X348225Y-205426D01*
X348159Y-205382D01*
X348103Y-205326D01*
X347071Y-204636D01*
X346998Y-204606D01*
X346933Y-204562D01*
X345786Y-204087D01*
X345709Y-204072D01*
X345636Y-204042D01*
X344419Y-203800D01*
X344339D01*
X344262Y-203784D01*
X343642Y-203784D01*
X343641Y-203784D01*
X343021D01*
X342944Y-203800D01*
X342864D01*
X341647Y-204042D01*
X341574Y-204072D01*
X341497Y-204087D01*
X340350Y-204562D01*
X340285Y-204606D01*
X340212Y-204637D01*
X339180Y-205326D01*
X339124Y-205382D01*
X339058Y-205426D01*
X338181Y-206303D01*
X338137Y-206369D01*
X338081Y-206425D01*
X337392Y-207457D01*
X337361Y-207530D01*
X337317Y-207595D01*
X336843Y-208742D01*
X336827Y-208819D01*
X336797Y-208892D01*
X336555Y-210109D01*
Y-210189D01*
X336539Y-210266D01*
X336539Y-211507D01*
X336555Y-211584D01*
Y-211664D01*
X336797Y-212881D01*
X336799Y-212886D01*
X336707Y-213126D01*
X336524Y-213386D01*
X323327D01*
Y-223622D01*
X289086D01*
X289037Y-223122D01*
X289117Y-223106D01*
X289903Y-222581D01*
X290429Y-221794D01*
X290514Y-221366D01*
X285864D01*
X285949Y-221794D01*
X286475Y-222581D01*
X287261Y-223106D01*
X287341Y-223122D01*
X287292Y-223622D01*
X263889D01*
X263840Y-223122D01*
X263920Y-223106D01*
X264706Y-222581D01*
X265232Y-221794D01*
X265317Y-221366D01*
X262992D01*
Y-220866D01*
X262492D01*
Y-218541D01*
X262064Y-218626D01*
X261278Y-219152D01*
X260752Y-219938D01*
X260728Y-220058D01*
X260200Y-220153D01*
X259755Y-219812D01*
X259133Y-219554D01*
X258465Y-219466D01*
X257797Y-219554D01*
X257174Y-219812D01*
X256639Y-220222D01*
X256125Y-220071D01*
X255917Y-219910D01*
X255294Y-219653D01*
X254626Y-219565D01*
X253958Y-219653D01*
X253335Y-219910D01*
X253190Y-220022D01*
X252795Y-220316D01*
X252400Y-220022D01*
X252255Y-219910D01*
X251633Y-219653D01*
X250964Y-219565D01*
X250296Y-219653D01*
X249674Y-219910D01*
X249139Y-220321D01*
X248976Y-220533D01*
X248346D01*
X248183Y-220321D01*
X247649Y-219910D01*
X247026Y-219653D01*
X246358Y-219565D01*
X245690Y-219653D01*
X245068Y-219910D01*
X244533Y-220321D01*
X244123Y-220855D01*
X243865Y-221478D01*
X243777Y-222146D01*
X243865Y-222814D01*
X243993Y-223122D01*
X243659Y-223622D01*
X222814D01*
X222714Y-223122D01*
X223239Y-222905D01*
X223774Y-222494D01*
X224184Y-221960D01*
X224442Y-221337D01*
X224530Y-220669D01*
X224442Y-220001D01*
X224184Y-219379D01*
X223774Y-218844D01*
X223474Y-218614D01*
X223441Y-218467D01*
X223489Y-218023D01*
X223898Y-217709D01*
X224308Y-217174D01*
X224566Y-216552D01*
X224654Y-215884D01*
X224566Y-215216D01*
X224308Y-214593D01*
X223898Y-214059D01*
X223363Y-213649D01*
X222741Y-213391D01*
X222073Y-213303D01*
X221405Y-213391D01*
X220782Y-213649D01*
X220248Y-214059D01*
X219838Y-214593D01*
X219580Y-215216D01*
X219492Y-215884D01*
X219580Y-216552D01*
X219838Y-217174D01*
X220248Y-217709D01*
X220547Y-217939D01*
X220580Y-218086D01*
X220533Y-218530D01*
X220124Y-218844D01*
X219713Y-219379D01*
X219456Y-220001D01*
X219368Y-220669D01*
X219456Y-221337D01*
X219713Y-221960D01*
X220124Y-222494D01*
X220658Y-222905D01*
X221183Y-223122D01*
X221084Y-223622D01*
X12402D01*
Y-191142D01*
X12401Y-190812D01*
X12529Y-190165D01*
X12781Y-189556D01*
X13148Y-189008D01*
X13614Y-188541D01*
X14162Y-188175D01*
X14772Y-187923D01*
X15418Y-187795D01*
X15748Y-187795D01*
X31894Y-187795D01*
X31894Y-187795D01*
X31894Y-187795D01*
X31895D01*
X32357Y-187802D01*
X33156Y-187961D01*
X33944Y-188287D01*
X34653Y-188760D01*
X35255Y-189363D01*
X35729Y-190072D01*
X36055Y-190859D01*
X36221Y-191695D01*
X36220Y-192122D01*
X36220Y-197638D01*
X36240Y-198041D01*
X36397Y-198831D01*
X36705Y-199576D01*
X37153Y-200246D01*
X37723Y-200815D01*
X38393Y-201263D01*
X39137Y-201571D01*
X39928Y-201728D01*
X40330Y-201748D01*
X102383D01*
X103548Y-201722D01*
X105870Y-201520D01*
X108165Y-201115D01*
X110417Y-200512D01*
X112607Y-199715D01*
X114719Y-198731D01*
X116738Y-197566D01*
X118648Y-196229D01*
X119557Y-195500D01*
X135154Y-182419D01*
X135154Y-182419D01*
X135154Y-182419D01*
X135726Y-181913D01*
X136782Y-180811D01*
X137712Y-179600D01*
X138505Y-178295D01*
X139150Y-176911D01*
X139641Y-175465D01*
X139971Y-173975D01*
X140137Y-172457D01*
X140157Y-171694D01*
X140157Y-146946D01*
X140157Y-146946D01*
X140157Y-146946D01*
X140145Y-146422D01*
X140043Y-145378D01*
X139839Y-144349D01*
X139535Y-143345D01*
X139134Y-142376D01*
X138639Y-141451D01*
X138056Y-140580D01*
X137390Y-139769D01*
X137028Y-139390D01*
X122872Y-125235D01*
X122872Y-125235D01*
X122450Y-124832D01*
X121548Y-124091D01*
X120578Y-123443D01*
X119549Y-122892D01*
X118471Y-122446D01*
X117354Y-122107D01*
X116209Y-121880D01*
X115048Y-121766D01*
X114464Y-121752D01*
X89082Y-121752D01*
X89082Y-121752D01*
X88773Y-121782D01*
X88203Y-122019D01*
X87767Y-122455D01*
X87530Y-123025D01*
X87500Y-123334D01*
Y-194685D01*
Y-195073D01*
X87349Y-195833D01*
X87052Y-196550D01*
X86621Y-197195D01*
X86073Y-197743D01*
X85428Y-198174D01*
X84711Y-198471D01*
X83951Y-198622D01*
X67835D01*
X67571Y-198622D01*
X67054Y-198519D01*
X66566Y-198318D01*
X66128Y-198025D01*
X65755Y-197652D01*
X65462Y-197213D01*
X65260Y-196726D01*
X65157Y-196209D01*
X65158Y-195945D01*
Y-12992D01*
X272263D01*
X272470Y-13492D01*
X272287Y-13675D01*
X272047Y-14254D01*
Y-14567D01*
Y-46850D01*
X272047Y-47164D01*
X272287Y-47743D01*
X272730Y-48186D01*
X273309Y-48425D01*
X273622Y-48425D01*
X290945D01*
X290945Y-48425D01*
Y-48425D01*
X291290Y-48425D01*
X291408Y-48377D01*
X291929Y-48161D01*
X292417Y-47672D01*
X292681Y-47034D01*
X292681Y-46689D01*
X292681Y-34448D01*
X292681Y-34448D01*
X292681Y-34447D01*
X292681Y-34291D01*
X292561Y-34002D01*
X292561Y-34002D01*
X292561Y-34001D01*
Y-34001D01*
X292560Y-34000D01*
X292340Y-33781D01*
X292050Y-33661D01*
X291894Y-33661D01*
X291737D01*
X291448Y-33781D01*
X291226Y-34003D01*
X291107Y-34292D01*
Y-45901D01*
X291107Y-45901D01*
X291088Y-46086D01*
X290947Y-46429D01*
X290685Y-46690D01*
X290343Y-46832D01*
X290158Y-46850D01*
X274409Y-46850D01*
X274409Y-46850D01*
X274256Y-46835D01*
X273972Y-46718D01*
X273755Y-46501D01*
X273637Y-46217D01*
X273622Y-46063D01*
X273622Y-15354D01*
X273622Y-15354D01*
X273622Y-15354D01*
X273622Y-15353D01*
X273761Y-14911D01*
X273972Y-14700D01*
X274256Y-14582D01*
X274409Y-14567D01*
X290157Y-14567D01*
X290157Y-14567D01*
X290157Y-14567D01*
X290158Y-14567D01*
X290607Y-14695D01*
X290685Y-14727D01*
X290947Y-14989D01*
X291088Y-15331D01*
X291106Y-15516D01*
X291107Y-28938D01*
X291107Y-29094D01*
X291226Y-29384D01*
X291448Y-29605D01*
X291737Y-29724D01*
X291894Y-29724D01*
X292051Y-29725D01*
X292340Y-29605D01*
X292562Y-29383D01*
X292682Y-29094D01*
X292681Y-28937D01*
X292681Y-14728D01*
X292681Y-14728D01*
X292681Y-14728D01*
X292681Y-14728D01*
X292681Y-14383D01*
X292632Y-14264D01*
X292417Y-13745D01*
X292164Y-13492D01*
X292371Y-12992D01*
X300340D01*
X300515Y-13206D01*
X305518D01*
X305693Y-12992D01*
X318262D01*
X318541Y-13492D01*
X318373Y-13899D01*
X318285Y-14567D01*
X318373Y-15235D01*
X318631Y-15857D01*
X319041Y-16392D01*
X319576Y-16802D01*
X320198Y-17060D01*
X320866Y-17148D01*
X321534Y-17060D01*
X322157Y-16802D01*
X322691Y-16392D01*
X323101Y-15857D01*
X323359Y-15235D01*
X323447Y-14567D01*
X323359Y-13899D01*
X323191Y-13492D01*
X323470Y-12992D01*
X329823D01*
Y-31496D01*
D02*
G37*
G36*
X374016Y-236221D02*
X0D01*
Y-225197D01*
X368898D01*
Y-11024D01*
X0D01*
Y0D01*
X374016D01*
Y-236221D01*
D02*
G37*
%LPC*%
G36*
X305342Y-14206D02*
X300691D01*
X300777Y-14634D01*
X301302Y-15420D01*
X301308Y-15602D01*
X300931Y-15891D01*
X300521Y-16426D01*
X300263Y-17049D01*
X300218Y-17390D01*
X299625Y-17312D01*
X298957Y-17400D01*
X298334Y-17657D01*
X297800Y-18067D01*
X297390Y-18602D01*
X297132Y-19225D01*
X297044Y-19893D01*
X297132Y-20561D01*
X297390Y-21183D01*
X297800Y-21718D01*
X298334Y-22128D01*
X298957Y-22386D01*
X299625Y-22474D01*
X300293Y-22386D01*
X300916Y-22128D01*
X301450Y-21718D01*
X301860Y-21183D01*
X302118Y-20561D01*
X302163Y-20220D01*
X302756Y-20298D01*
X303424Y-20210D01*
X304047Y-19952D01*
X304581Y-19542D01*
X304991Y-19007D01*
X305249Y-18385D01*
X305337Y-17717D01*
X305249Y-17049D01*
X304991Y-16426D01*
X304698Y-16044D01*
X304712Y-15433D01*
X304731Y-15420D01*
X305256Y-14634D01*
X305342Y-14206D01*
D02*
G37*
G36*
X253205Y-14059D02*
X249752D01*
Y-17512D01*
X253205D01*
Y-14059D01*
D02*
G37*
G36*
X161965D02*
X158512D01*
Y-17512D01*
X161965D01*
Y-14059D01*
D02*
G37*
G36*
X157512D02*
X154059D01*
Y-17512D01*
X157512D01*
Y-14059D01*
D02*
G37*
G36*
X248752D02*
X245299D01*
Y-17512D01*
X248752D01*
Y-14059D01*
D02*
G37*
G36*
X71268Y-15725D02*
Y-17550D01*
X73093D01*
X73008Y-17122D01*
X72482Y-16336D01*
X71696Y-15810D01*
X71268Y-15725D01*
D02*
G37*
G36*
X70268D02*
X69840Y-15810D01*
X69053Y-16336D01*
X68528Y-17122D01*
X68443Y-17550D01*
X70268D01*
Y-15725D01*
D02*
G37*
G36*
X263779Y-13561D02*
X263111Y-13649D01*
X262489Y-13906D01*
X261954Y-14317D01*
X261544Y-14851D01*
X261286Y-15474D01*
X261198Y-16142D01*
X261286Y-16810D01*
X261544Y-17432D01*
X261954Y-17967D01*
X262489Y-18377D01*
X263111Y-18635D01*
X263779Y-18723D01*
X264448Y-18635D01*
X265070Y-18377D01*
X265605Y-17967D01*
X266015Y-17432D01*
X266273Y-16810D01*
X266361Y-16142D01*
X266273Y-15474D01*
X266015Y-14851D01*
X265605Y-14317D01*
X265070Y-13906D01*
X264448Y-13649D01*
X263779Y-13561D01*
D02*
G37*
G36*
X285933Y-17074D02*
Y-18899D01*
X287758D01*
X287673Y-18471D01*
X287147Y-17685D01*
X286361Y-17159D01*
X285933Y-17074D01*
D02*
G37*
G36*
X284933D02*
X284505Y-17159D01*
X283719Y-17685D01*
X283193Y-18471D01*
X283108Y-18899D01*
X284933D01*
Y-17074D01*
D02*
G37*
G36*
X73093Y-18550D02*
X71268D01*
Y-20375D01*
X71696Y-20290D01*
X72482Y-19764D01*
X73008Y-18978D01*
X73093Y-18550D01*
D02*
G37*
G36*
X70268D02*
X68443D01*
X68528Y-18978D01*
X69053Y-19764D01*
X69840Y-20290D01*
X70268Y-20375D01*
Y-18550D01*
D02*
G37*
G36*
X287758Y-19899D02*
X285933D01*
Y-21724D01*
X286361Y-21639D01*
X287147Y-21114D01*
X287673Y-20327D01*
X287758Y-19899D01*
D02*
G37*
G36*
X284933D02*
X283108D01*
X283193Y-20327D01*
X283719Y-21114D01*
X284505Y-21639D01*
X284933Y-21724D01*
Y-19899D01*
D02*
G37*
G36*
X122252Y-20116D02*
Y-21941D01*
X124077D01*
X123992Y-21513D01*
X123466Y-20727D01*
X122680Y-20201D01*
X122252Y-20116D01*
D02*
G37*
G36*
X121252D02*
X120824Y-20201D01*
X120038Y-20727D01*
X119512Y-21513D01*
X119427Y-21941D01*
X121252D01*
Y-20116D01*
D02*
G37*
G36*
X253205Y-18512D02*
X249752D01*
Y-21965D01*
X253205D01*
Y-18512D01*
D02*
G37*
G36*
X248752D02*
X245299D01*
Y-21965D01*
X248752D01*
Y-18512D01*
D02*
G37*
G36*
X161965D02*
X158512D01*
Y-21965D01*
X161965D01*
Y-18512D01*
D02*
G37*
G36*
X157512D02*
X154059D01*
Y-21965D01*
X157512D01*
Y-18512D01*
D02*
G37*
G36*
X239252Y-13842D02*
X238173Y-13984D01*
X237167Y-14401D01*
X236304Y-15064D01*
X235641Y-15927D01*
X235225Y-16933D01*
X235083Y-18012D01*
X235225Y-19091D01*
X235641Y-20097D01*
X236304Y-20960D01*
X237167Y-21623D01*
X238173Y-22039D01*
X239252Y-22181D01*
X240331Y-22039D01*
X241337Y-21623D01*
X242200Y-20960D01*
X242863Y-20097D01*
X243279Y-19091D01*
X243422Y-18012D01*
X243279Y-16933D01*
X242863Y-15927D01*
X242200Y-15064D01*
X241337Y-14401D01*
X240331Y-13984D01*
X239252Y-13842D01*
D02*
G37*
G36*
X229252D02*
X228173Y-13984D01*
X227167Y-14401D01*
X226304Y-15064D01*
X225641Y-15927D01*
X225224Y-16933D01*
X225082Y-18012D01*
X225224Y-19091D01*
X225641Y-20097D01*
X226304Y-20960D01*
X227167Y-21623D01*
X228173Y-22039D01*
X229252Y-22181D01*
X230331Y-22039D01*
X231337Y-21623D01*
X232200Y-20960D01*
X232863Y-20097D01*
X233279Y-19091D01*
X233421Y-18012D01*
X233279Y-16933D01*
X232863Y-15927D01*
X232200Y-15064D01*
X231337Y-14401D01*
X230331Y-13984D01*
X229252Y-13842D01*
D02*
G37*
G36*
X219252D02*
X218173Y-13984D01*
X217167Y-14401D01*
X216304Y-15064D01*
X215641Y-15927D01*
X215225Y-16933D01*
X215083Y-18012D01*
X215225Y-19091D01*
X215641Y-20097D01*
X216304Y-20960D01*
X217167Y-21623D01*
X218173Y-22039D01*
X219252Y-22181D01*
X220331Y-22039D01*
X221337Y-21623D01*
X222200Y-20960D01*
X222863Y-20097D01*
X223279Y-19091D01*
X223422Y-18012D01*
X223279Y-16933D01*
X222863Y-15927D01*
X222200Y-15064D01*
X221337Y-14401D01*
X220331Y-13984D01*
X219252Y-13842D01*
D02*
G37*
G36*
X209252D02*
X208173Y-13984D01*
X207167Y-14401D01*
X206304Y-15064D01*
X205641Y-15927D01*
X205224Y-16933D01*
X205083Y-18012D01*
X205224Y-19091D01*
X205641Y-20097D01*
X206304Y-20960D01*
X207167Y-21623D01*
X208173Y-22039D01*
X209252Y-22181D01*
X210331Y-22039D01*
X211337Y-21623D01*
X212200Y-20960D01*
X212863Y-20097D01*
X213279Y-19091D01*
X213422Y-18012D01*
X213279Y-16933D01*
X212863Y-15927D01*
X212200Y-15064D01*
X211337Y-14401D01*
X210331Y-13984D01*
X209252Y-13842D01*
D02*
G37*
G36*
X198012D02*
X196933Y-13984D01*
X195927Y-14401D01*
X195063Y-15064D01*
X194401Y-15927D01*
X193984Y-16933D01*
X193842Y-18012D01*
X193984Y-19091D01*
X194401Y-20097D01*
X195063Y-20960D01*
X195927Y-21623D01*
X196933Y-22039D01*
X198012Y-22181D01*
X199091Y-22039D01*
X200097Y-21623D01*
X200960Y-20960D01*
X201623Y-20097D01*
X202039Y-19091D01*
X202181Y-18012D01*
X202039Y-16933D01*
X201623Y-15927D01*
X200960Y-15064D01*
X200097Y-14401D01*
X199091Y-13984D01*
X198012Y-13842D01*
D02*
G37*
G36*
X188012D02*
X186933Y-13984D01*
X185927Y-14401D01*
X185064Y-15064D01*
X184401Y-15927D01*
X183984Y-16933D01*
X183842Y-18012D01*
X183984Y-19091D01*
X184401Y-20097D01*
X185064Y-20960D01*
X185927Y-21623D01*
X186933Y-22039D01*
X188012Y-22181D01*
X189091Y-22039D01*
X190097Y-21623D01*
X190960Y-20960D01*
X191623Y-20097D01*
X192039Y-19091D01*
X192181Y-18012D01*
X192039Y-16933D01*
X191623Y-15927D01*
X190960Y-15064D01*
X190097Y-14401D01*
X189091Y-13984D01*
X188012Y-13842D01*
D02*
G37*
G36*
X178012D02*
X176933Y-13984D01*
X175927Y-14401D01*
X175064Y-15064D01*
X174401Y-15927D01*
X173984Y-16933D01*
X173842Y-18012D01*
X173984Y-19091D01*
X174401Y-20097D01*
X175064Y-20960D01*
X175927Y-21623D01*
X176933Y-22039D01*
X178012Y-22181D01*
X179091Y-22039D01*
X180097Y-21623D01*
X180960Y-20960D01*
X181623Y-20097D01*
X182039Y-19091D01*
X182181Y-18012D01*
X182039Y-16933D01*
X181623Y-15927D01*
X180960Y-15064D01*
X180097Y-14401D01*
X179091Y-13984D01*
X178012Y-13842D01*
D02*
G37*
G36*
X168012D02*
X166933Y-13984D01*
X165927Y-14401D01*
X165064Y-15064D01*
X164401Y-15927D01*
X163984Y-16933D01*
X163842Y-18012D01*
X163984Y-19091D01*
X164401Y-20097D01*
X165064Y-20960D01*
X165927Y-21623D01*
X166933Y-22039D01*
X168012Y-22181D01*
X169091Y-22039D01*
X170097Y-21623D01*
X170960Y-20960D01*
X171623Y-20097D01*
X172039Y-19091D01*
X172181Y-18012D01*
X172039Y-16933D01*
X171623Y-15927D01*
X170960Y-15064D01*
X170097Y-14401D01*
X169091Y-13984D01*
X168012Y-13842D01*
D02*
G37*
G36*
X324909Y-21691D02*
Y-23516D01*
X326734D01*
X326649Y-23088D01*
X326124Y-22301D01*
X325337Y-21776D01*
X324909Y-21691D01*
D02*
G37*
G36*
X323909D02*
X323482Y-21776D01*
X322695Y-22301D01*
X322169Y-23088D01*
X322084Y-23516D01*
X323909D01*
Y-21691D01*
D02*
G37*
G36*
X124077Y-22941D02*
X122252D01*
Y-24766D01*
X122680Y-24681D01*
X123466Y-24155D01*
X123992Y-23369D01*
X124077Y-22941D01*
D02*
G37*
G36*
X121252D02*
X119427D01*
X119512Y-23369D01*
X120038Y-24155D01*
X120824Y-24681D01*
X121252Y-24766D01*
Y-22941D01*
D02*
G37*
G36*
X326734Y-24516D02*
X324909D01*
Y-26341D01*
X325337Y-26256D01*
X326124Y-25730D01*
X326649Y-24944D01*
X326734Y-24516D01*
D02*
G37*
G36*
X323909D02*
X322084D01*
X322169Y-24944D01*
X322695Y-25730D01*
X323482Y-26256D01*
X323909Y-26341D01*
Y-24516D01*
D02*
G37*
G36*
X141051Y-25234D02*
Y-27059D01*
X142876D01*
X142791Y-26631D01*
X142266Y-25845D01*
X141479Y-25319D01*
X141051Y-25234D01*
D02*
G37*
G36*
X140051D02*
X139623Y-25319D01*
X138837Y-25845D01*
X138311Y-26631D01*
X138226Y-27059D01*
X140051D01*
Y-25234D01*
D02*
G37*
G36*
X179132Y-25628D02*
Y-27453D01*
X180957D01*
X180872Y-27025D01*
X180347Y-26238D01*
X179560Y-25713D01*
X179132Y-25628D01*
D02*
G37*
G36*
X178132D02*
X177704Y-25713D01*
X176918Y-26238D01*
X176392Y-27025D01*
X176307Y-27453D01*
X178132D01*
Y-25628D01*
D02*
G37*
G36*
X306996Y-26415D02*
Y-28240D01*
X308821D01*
X308736Y-27812D01*
X308210Y-27026D01*
X307424Y-26500D01*
X306996Y-26415D01*
D02*
G37*
G36*
X305996D02*
X305568Y-26500D01*
X304782Y-27026D01*
X304256Y-27812D01*
X304171Y-28240D01*
X305996D01*
Y-26415D01*
D02*
G37*
G36*
X301484D02*
Y-28240D01*
X303309D01*
X303224Y-27812D01*
X302699Y-27026D01*
X301912Y-26500D01*
X301484Y-26415D01*
D02*
G37*
G36*
X300484D02*
X300056Y-26500D01*
X299270Y-27026D01*
X298744Y-27812D01*
X298659Y-28240D01*
X300484D01*
Y-26415D01*
D02*
G37*
G36*
X142876Y-28059D02*
X141051D01*
Y-29884D01*
X141479Y-29799D01*
X142266Y-29274D01*
X142791Y-28487D01*
X142876Y-28059D01*
D02*
G37*
G36*
X140051D02*
X138226D01*
X138311Y-28487D01*
X138837Y-29274D01*
X139623Y-29799D01*
X140051Y-29884D01*
Y-28059D01*
D02*
G37*
G36*
X242913Y-24978D02*
X242245Y-25066D01*
X241623Y-25324D01*
X241088Y-25734D01*
X240678Y-26269D01*
X240420Y-26891D01*
X240332Y-27559D01*
X240420Y-28227D01*
X240678Y-28850D01*
X241088Y-29384D01*
X241623Y-29794D01*
X242245Y-30052D01*
X242913Y-30140D01*
X243581Y-30052D01*
X244204Y-29794D01*
X244739Y-29384D01*
X245149Y-28850D01*
X245407Y-28227D01*
X245495Y-27559D01*
X245407Y-26891D01*
X245149Y-26269D01*
X244739Y-25734D01*
X244204Y-25324D01*
X243581Y-25066D01*
X242913Y-24978D01*
D02*
G37*
G36*
X180957Y-28453D02*
X179132D01*
Y-30278D01*
X179560Y-30193D01*
X180347Y-29667D01*
X180872Y-28881D01*
X180957Y-28453D01*
D02*
G37*
G36*
X178132D02*
X176307D01*
X176392Y-28881D01*
X176918Y-29667D01*
X177704Y-30193D01*
X178132Y-30278D01*
Y-28453D01*
D02*
G37*
G36*
X172549Y-25372D02*
X171881Y-25460D01*
X171258Y-25717D01*
X170724Y-26128D01*
X170314Y-26662D01*
X170056Y-27285D01*
X169968Y-27953D01*
X170056Y-28621D01*
X170314Y-29243D01*
X170724Y-29778D01*
X171258Y-30188D01*
X171881Y-30446D01*
X172549Y-30534D01*
X173217Y-30446D01*
X173839Y-30188D01*
X174374Y-29778D01*
X174784Y-29243D01*
X175042Y-28621D01*
X175130Y-27953D01*
X175042Y-27285D01*
X174784Y-26662D01*
X174374Y-26128D01*
X173839Y-25717D01*
X173217Y-25460D01*
X172549Y-25372D01*
D02*
G37*
G36*
X308821Y-29240D02*
X306996D01*
Y-31065D01*
X307424Y-30980D01*
X308210Y-30455D01*
X308736Y-29668D01*
X308821Y-29240D01*
D02*
G37*
G36*
X305996D02*
X304171D01*
X304256Y-29668D01*
X304782Y-30455D01*
X305568Y-30980D01*
X305996Y-31065D01*
Y-29240D01*
D02*
G37*
G36*
X303309D02*
X301484D01*
Y-31065D01*
X301912Y-30980D01*
X302699Y-30455D01*
X303224Y-29668D01*
X303309Y-29240D01*
D02*
G37*
G36*
X300484D02*
X298659D01*
X298744Y-29668D01*
X299270Y-30455D01*
X300056Y-30980D01*
X300484Y-31065D01*
Y-29240D01*
D02*
G37*
G36*
X199213Y-27340D02*
X198545Y-27428D01*
X197922Y-27686D01*
X197388Y-28096D01*
X196977Y-28631D01*
X196719Y-29253D01*
X196632Y-29921D01*
X196719Y-30589D01*
X196977Y-31212D01*
X197388Y-31746D01*
X197922Y-32157D01*
X198545Y-32414D01*
X199213Y-32502D01*
X199881Y-32414D01*
X200503Y-32157D01*
X201038Y-31746D01*
X201448Y-31212D01*
X201706Y-30589D01*
X201794Y-29921D01*
X201706Y-29253D01*
X201448Y-28631D01*
X201038Y-28096D01*
X200503Y-27686D01*
X199881Y-27428D01*
X199213Y-27340D01*
D02*
G37*
G36*
X122252Y-30943D02*
Y-32768D01*
X124077D01*
X123992Y-32340D01*
X123466Y-31553D01*
X122680Y-31028D01*
X122252Y-30943D01*
D02*
G37*
G36*
X121252D02*
X120824Y-31028D01*
X120038Y-31553D01*
X119512Y-32340D01*
X119427Y-32768D01*
X121252D01*
Y-30943D01*
D02*
G37*
G36*
X243020Y-31533D02*
Y-33358D01*
X244845D01*
X244760Y-32930D01*
X244234Y-32144D01*
X243447Y-31618D01*
X243020Y-31533D01*
D02*
G37*
G36*
X242020D02*
X241592Y-31618D01*
X240805Y-32144D01*
X240280Y-32930D01*
X240195Y-33358D01*
X242020D01*
Y-31533D01*
D02*
G37*
G36*
X306996Y-31927D02*
Y-33752D01*
X308821D01*
X308736Y-33324D01*
X308210Y-32538D01*
X307424Y-32012D01*
X306996Y-31927D01*
D02*
G37*
G36*
X305996D02*
X305568Y-32012D01*
X304782Y-32538D01*
X304256Y-33324D01*
X304171Y-33752D01*
X305996D01*
Y-31927D01*
D02*
G37*
G36*
X301484D02*
Y-33752D01*
X303309D01*
X303224Y-33324D01*
X302699Y-32538D01*
X301912Y-32012D01*
X301484Y-31927D01*
D02*
G37*
G36*
X300484D02*
X300056Y-32012D01*
X299270Y-32538D01*
X298744Y-33324D01*
X298659Y-33752D01*
X300484D01*
Y-31927D01*
D02*
G37*
G36*
X124077Y-33768D02*
X122252D01*
Y-35593D01*
X122680Y-35508D01*
X123466Y-34982D01*
X123992Y-34196D01*
X124077Y-33768D01*
D02*
G37*
G36*
X121252D02*
X119427D01*
X119512Y-34196D01*
X120038Y-34982D01*
X120824Y-35508D01*
X121252Y-35593D01*
Y-33768D01*
D02*
G37*
G36*
X140551Y-30883D02*
X139883Y-30971D01*
X139261Y-31229D01*
X138726Y-31639D01*
X138316Y-32174D01*
X138058Y-32796D01*
X137970Y-33465D01*
X138058Y-34133D01*
X138316Y-34755D01*
X138726Y-35290D01*
X139261Y-35700D01*
X139883Y-35958D01*
X140551Y-36046D01*
X141219Y-35958D01*
X141842Y-35700D01*
X142376Y-35290D01*
X142787Y-34755D01*
X143044Y-34133D01*
X143132Y-33465D01*
X143044Y-32796D01*
X142787Y-32174D01*
X142376Y-31639D01*
X141842Y-31229D01*
X141219Y-30971D01*
X140551Y-30883D01*
D02*
G37*
G36*
X244845Y-34358D02*
X243020D01*
Y-36183D01*
X243447Y-36098D01*
X244234Y-35573D01*
X244760Y-34786D01*
X244845Y-34358D01*
D02*
G37*
G36*
X242020D02*
X240195D01*
X240280Y-34786D01*
X240805Y-35573D01*
X241592Y-36098D01*
X242020Y-36183D01*
Y-34358D01*
D02*
G37*
G36*
X357133Y-34591D02*
X355308D01*
Y-36416D01*
X355736Y-36331D01*
X356522Y-35805D01*
X357048Y-35018D01*
X357133Y-34591D01*
D02*
G37*
G36*
X354308D02*
X352483D01*
X352568Y-35018D01*
X353093Y-35805D01*
X353880Y-36331D01*
X354308Y-36416D01*
Y-34591D01*
D02*
G37*
G36*
X214961Y-31277D02*
X214293Y-31365D01*
X213670Y-31623D01*
X213136Y-32033D01*
X212725Y-32568D01*
X212468Y-33190D01*
X212380Y-33858D01*
X212468Y-34526D01*
X212725Y-35149D01*
X213136Y-35683D01*
X213670Y-36094D01*
X214293Y-36351D01*
X214961Y-36439D01*
X215629Y-36351D01*
X216251Y-36094D01*
X216786Y-35683D01*
X217196Y-35149D01*
X217454Y-34526D01*
X217542Y-33858D01*
X217454Y-33190D01*
X217196Y-32568D01*
X216786Y-32033D01*
X216251Y-31623D01*
X215629Y-31365D01*
X214961Y-31277D01*
D02*
G37*
G36*
X308821Y-34752D02*
X306996D01*
Y-36577D01*
X307424Y-36492D01*
X308210Y-35966D01*
X308736Y-35180D01*
X308821Y-34752D01*
D02*
G37*
G36*
X305996D02*
X304171D01*
X304256Y-35180D01*
X304782Y-35966D01*
X305568Y-36492D01*
X305996Y-36577D01*
Y-34752D01*
D02*
G37*
G36*
X303309D02*
X301484D01*
Y-36577D01*
X301912Y-36492D01*
X302699Y-35966D01*
X303224Y-35180D01*
X303309Y-34752D01*
D02*
G37*
G36*
X300484D02*
X298659D01*
X298744Y-35180D01*
X299270Y-35966D01*
X300056Y-36492D01*
X300484Y-36577D01*
Y-34752D01*
D02*
G37*
G36*
X71268Y-35016D02*
Y-36841D01*
X73093D01*
X73008Y-36413D01*
X72482Y-35627D01*
X71696Y-35101D01*
X71268Y-35016D01*
D02*
G37*
G36*
X70268D02*
X69840Y-35101D01*
X69053Y-35627D01*
X68528Y-36413D01*
X68443Y-36841D01*
X70268D01*
Y-35016D01*
D02*
G37*
G36*
X194117Y-32950D02*
X193448Y-33038D01*
X192826Y-33296D01*
X192291Y-33706D01*
X191881Y-34241D01*
X191623Y-34863D01*
X191535Y-35531D01*
X191623Y-36200D01*
X191881Y-36822D01*
X192291Y-37357D01*
X192826Y-37767D01*
X193448Y-38025D01*
X194117Y-38113D01*
X194785Y-38025D01*
X195407Y-37767D01*
X195942Y-37357D01*
X196352Y-36822D01*
X196610Y-36200D01*
X196698Y-35531D01*
X196610Y-34863D01*
X196352Y-34241D01*
X195942Y-33706D01*
X195407Y-33296D01*
X194785Y-33038D01*
X194117Y-32950D01*
D02*
G37*
G36*
X73093Y-37841D02*
X71268D01*
Y-39666D01*
X71696Y-39581D01*
X72482Y-39056D01*
X73008Y-38269D01*
X73093Y-37841D01*
D02*
G37*
G36*
X70268D02*
X68443D01*
X68528Y-38269D01*
X69053Y-39056D01*
X69840Y-39581D01*
X70268Y-39666D01*
Y-37841D01*
D02*
G37*
G36*
X324495Y-39404D02*
Y-41229D01*
X326320D01*
X326235Y-40801D01*
X325710Y-40015D01*
X324923Y-39489D01*
X324495Y-39404D01*
D02*
G37*
G36*
X323495D02*
X323067Y-39489D01*
X322281Y-40015D01*
X321755Y-40801D01*
X321670Y-41229D01*
X323495D01*
Y-39404D01*
D02*
G37*
G36*
X130815Y-39998D02*
Y-41823D01*
X132640D01*
X132555Y-41395D01*
X132029Y-40608D01*
X131243Y-40083D01*
X130815Y-39998D01*
D02*
G37*
G36*
X129815D02*
X129387Y-40083D01*
X128601Y-40608D01*
X128075Y-41395D01*
X127990Y-41823D01*
X129815D01*
Y-39998D01*
D02*
G37*
G36*
X237803Y-40195D02*
Y-42020D01*
X239628D01*
X239543Y-41592D01*
X239018Y-40805D01*
X238231Y-40280D01*
X237803Y-40195D01*
D02*
G37*
G36*
X236803D02*
X236375Y-40280D01*
X235589Y-40805D01*
X235063Y-41592D01*
X234978Y-42020D01*
X236803D01*
Y-40195D01*
D02*
G37*
G36*
X301678Y-41454D02*
X301010Y-41542D01*
X300388Y-41800D01*
X299853Y-42210D01*
X299826Y-42246D01*
X299322Y-41859D01*
X298699Y-41601D01*
X298031Y-41513D01*
X297363Y-41601D01*
X296741Y-41859D01*
X296206Y-42269D01*
X295796Y-42804D01*
X295538Y-43426D01*
X295450Y-44094D01*
X295538Y-44763D01*
X295796Y-45385D01*
X296206Y-45920D01*
X296741Y-46330D01*
X297363Y-46588D01*
X298031Y-46676D01*
X298699Y-46588D01*
X299322Y-46330D01*
X299857Y-45920D01*
X299884Y-45884D01*
X300388Y-46271D01*
X301010Y-46528D01*
X301678Y-46616D01*
X302346Y-46528D01*
X302969Y-46271D01*
X303441Y-45908D01*
X303667Y-45840D01*
X304019D01*
X304080Y-45920D01*
X304615Y-46330D01*
X305237Y-46588D01*
X305906Y-46676D01*
X306574Y-46588D01*
X307196Y-46330D01*
X307677Y-45961D01*
X308158Y-46330D01*
X308781Y-46588D01*
X309449Y-46676D01*
X310117Y-46588D01*
X310739Y-46330D01*
X311274Y-45920D01*
X311684Y-45385D01*
X311942Y-44763D01*
X312030Y-44094D01*
X311942Y-43426D01*
X311684Y-42804D01*
X311274Y-42269D01*
X310739Y-41859D01*
X310117Y-41601D01*
X309449Y-41513D01*
X308781Y-41601D01*
X308158Y-41859D01*
X307677Y-42228D01*
X307196Y-41859D01*
X306574Y-41601D01*
X305906Y-41513D01*
X305237Y-41601D01*
X304615Y-41859D01*
X304080Y-42269D01*
X304065Y-42290D01*
X303565D01*
X303503Y-42210D01*
X302969Y-41800D01*
X302346Y-41542D01*
X301678Y-41454D01*
D02*
G37*
G36*
X285933Y-41484D02*
Y-43309D01*
X287758D01*
X287673Y-42881D01*
X287147Y-42094D01*
X286361Y-41569D01*
X285933Y-41484D01*
D02*
G37*
G36*
X284933D02*
X284505Y-41569D01*
X283719Y-42094D01*
X283193Y-42881D01*
X283108Y-43309D01*
X284933D01*
Y-41484D01*
D02*
G37*
G36*
X326320Y-42229D02*
X324495D01*
Y-44054D01*
X324923Y-43969D01*
X325710Y-43444D01*
X326235Y-42657D01*
X326320Y-42229D01*
D02*
G37*
G36*
X323495D02*
X321670D01*
X321755Y-42657D01*
X322281Y-43444D01*
X323067Y-43969D01*
X323495Y-44054D01*
Y-42229D01*
D02*
G37*
G36*
X218110Y-39151D02*
X217442Y-39239D01*
X216820Y-39497D01*
X216285Y-39907D01*
X215875Y-40442D01*
X215617Y-41064D01*
X215529Y-41732D01*
X215617Y-42400D01*
X215875Y-43023D01*
X216285Y-43557D01*
X216820Y-43968D01*
X217442Y-44225D01*
X218110Y-44313D01*
X218778Y-44225D01*
X219401Y-43968D01*
X219935Y-43557D01*
X220346Y-43023D01*
X220603Y-42400D01*
X220691Y-41732D01*
X220603Y-41064D01*
X220346Y-40442D01*
X219935Y-39907D01*
X219401Y-39497D01*
X218778Y-39239D01*
X218110Y-39151D01*
D02*
G37*
G36*
X132640Y-42823D02*
X130815D01*
Y-44648D01*
X131243Y-44563D01*
X132029Y-44037D01*
X132555Y-43251D01*
X132640Y-42823D01*
D02*
G37*
G36*
X129815D02*
X127990D01*
X128075Y-43251D01*
X128601Y-44037D01*
X129387Y-44563D01*
X129815Y-44648D01*
Y-42823D01*
D02*
G37*
G36*
X239628Y-43020D02*
X237803D01*
Y-44845D01*
X238231Y-44760D01*
X239018Y-44234D01*
X239543Y-43448D01*
X239628Y-43020D01*
D02*
G37*
G36*
X236803D02*
X234978D01*
X235063Y-43448D01*
X235589Y-44234D01*
X236375Y-44760D01*
X236803Y-44845D01*
Y-43020D01*
D02*
G37*
G36*
X231402Y-39939D02*
X230734Y-40027D01*
X230112Y-40284D01*
X229577Y-40694D01*
X229167Y-41229D01*
X228909Y-41852D01*
X228821Y-42520D01*
X228909Y-43188D01*
X229167Y-43810D01*
X229577Y-44345D01*
X230112Y-44755D01*
X229906Y-45202D01*
X229372Y-44981D01*
X228672Y-44889D01*
X227972Y-44981D01*
X227320Y-45251D01*
X226760Y-45681D01*
X226584D01*
X226024Y-45251D01*
X225372Y-44981D01*
X224672Y-44889D01*
X223972Y-44981D01*
X223320Y-45251D01*
X222760Y-45681D01*
X222584D01*
X222024Y-45251D01*
X221372Y-44981D01*
X220672Y-44889D01*
X219972Y-44981D01*
X219320Y-45251D01*
X218760Y-45681D01*
X218584D01*
X218024Y-45251D01*
X217372Y-44981D01*
X216672Y-44889D01*
X215972Y-44981D01*
X215320Y-45251D01*
X214760Y-45681D01*
X214330Y-46241D01*
X214060Y-46893D01*
X213987Y-47447D01*
X213958Y-47593D01*
Y-53460D01*
X213510Y-53681D01*
X213495Y-53670D01*
X212873Y-53412D01*
X212205Y-53324D01*
X211537Y-53412D01*
X210914Y-53670D01*
X210380Y-54080D01*
X209969Y-54615D01*
X209712Y-55238D01*
X209624Y-55905D01*
X209712Y-56574D01*
X209969Y-57196D01*
X210380Y-57731D01*
X210914Y-58141D01*
X211537Y-58399D01*
X212205Y-58487D01*
X212873Y-58399D01*
X213495Y-58141D01*
X214030Y-57731D01*
X214115Y-57620D01*
X214672D01*
X214818Y-57591D01*
X215372Y-57518D01*
X216024Y-57248D01*
X216517Y-57499D01*
X216760Y-57815D01*
X217320Y-58245D01*
X217972Y-58515D01*
X218672Y-58607D01*
X219372Y-58515D01*
X220024Y-58245D01*
X220584Y-57815D01*
X220760D01*
X221320Y-58245D01*
X221972Y-58515D01*
X222672Y-58607D01*
X223372Y-58515D01*
X224024Y-58245D01*
X224584Y-57815D01*
X224760D01*
X225320Y-58245D01*
X225972Y-58515D01*
X226672Y-58607D01*
X227372Y-58515D01*
X228024Y-58245D01*
X228584Y-57815D01*
X228826Y-57499D01*
X229320Y-57248D01*
X229972Y-57518D01*
X230526Y-57591D01*
X230672Y-57620D01*
X238443D01*
X238807Y-58120D01*
X238754Y-58521D01*
X238842Y-59189D01*
X239100Y-59811D01*
X239510Y-60346D01*
X239519Y-60416D01*
X239247Y-60770D01*
X238989Y-61393D01*
X238901Y-62061D01*
X238989Y-62729D01*
X239247Y-63351D01*
X239657Y-63886D01*
X240192Y-64296D01*
X240814Y-64554D01*
X241482Y-64642D01*
X242151Y-64554D01*
X242773Y-64296D01*
X243308Y-63886D01*
X243718Y-63351D01*
X243976Y-62729D01*
X244064Y-62061D01*
X243976Y-61393D01*
X243718Y-60770D01*
X243308Y-60236D01*
X243268Y-60205D01*
X243570Y-59811D01*
X243828Y-59189D01*
X243916Y-58521D01*
X243828Y-57853D01*
X243650Y-57423D01*
X243916Y-56923D01*
X258131D01*
X258473Y-57423D01*
X258413Y-57874D01*
X258501Y-58542D01*
X258759Y-59165D01*
X259169Y-59699D01*
X259704Y-60109D01*
X260326Y-60367D01*
X260995Y-60455D01*
X261663Y-60367D01*
X262285Y-60109D01*
X262766Y-59740D01*
X263247Y-60109D01*
X263870Y-60367D01*
X264538Y-60455D01*
X265206Y-60367D01*
X265828Y-60109D01*
X266363Y-59699D01*
X266773Y-59165D01*
X267031Y-58542D01*
X267119Y-57874D01*
X267059Y-57423D01*
X267401Y-56923D01*
X269363D01*
X269514Y-57074D01*
X269554Y-57376D01*
X269812Y-57998D01*
X270222Y-58533D01*
X270757Y-58943D01*
X271379Y-59201D01*
X272047Y-59289D01*
X272715Y-59201D01*
X273338Y-58943D01*
X273872Y-58533D01*
X274283Y-57998D01*
X274540Y-57376D01*
X274628Y-56708D01*
X274540Y-56040D01*
X274283Y-55417D01*
X273872Y-54883D01*
X273338Y-54473D01*
X272715Y-54215D01*
X272047Y-54127D01*
X271488Y-54200D01*
X271285Y-53997D01*
X270729Y-53625D01*
X270073Y-53495D01*
X241725D01*
X241069Y-53625D01*
X240513Y-53997D01*
X240368Y-54141D01*
X240231D01*
X239978Y-54191D01*
X231386D01*
Y-47593D01*
X231357Y-47447D01*
X231284Y-46893D01*
X231014Y-46241D01*
X230584Y-45681D01*
X230024Y-45251D01*
X230230Y-44804D01*
X230734Y-45013D01*
X231402Y-45101D01*
X232070Y-45013D01*
X232693Y-44755D01*
X233227Y-44345D01*
X233638Y-43810D01*
X233896Y-43188D01*
X233983Y-42520D01*
X233896Y-41852D01*
X233638Y-41229D01*
X233227Y-40694D01*
X232693Y-40284D01*
X232070Y-40027D01*
X231402Y-39939D01*
D02*
G37*
G36*
X91929Y-40135D02*
X91261Y-40223D01*
X90639Y-40481D01*
X90104Y-40891D01*
X89694Y-41426D01*
X89436Y-42048D01*
X89348Y-42717D01*
X89436Y-43385D01*
X89694Y-44007D01*
X90104Y-44542D01*
X90639Y-44952D01*
X91261Y-45210D01*
X91929Y-45298D01*
X92597Y-45210D01*
X93220Y-44952D01*
X93754Y-44542D01*
X94164Y-44007D01*
X94422Y-43385D01*
X94510Y-42717D01*
X94422Y-42048D01*
X94164Y-41426D01*
X93754Y-40891D01*
X93220Y-40481D01*
X92597Y-40223D01*
X91929Y-40135D01*
D02*
G37*
G36*
X111919Y-40913D02*
X111251Y-41001D01*
X110629Y-41259D01*
X110094Y-41669D01*
X109684Y-42204D01*
X109426Y-42826D01*
X109338Y-43494D01*
X109426Y-44162D01*
X109684Y-44785D01*
X110094Y-45319D01*
X110629Y-45729D01*
X111251Y-45987D01*
X111919Y-46075D01*
X112587Y-45987D01*
X113210Y-45729D01*
X113744Y-45319D01*
X114155Y-44785D01*
X114412Y-44162D01*
X114500Y-43494D01*
X114412Y-42826D01*
X114155Y-42204D01*
X113744Y-41669D01*
X113210Y-41259D01*
X112587Y-41001D01*
X111919Y-40913D01*
D02*
G37*
G36*
X287758Y-44309D02*
X285933D01*
Y-46134D01*
X286361Y-46049D01*
X287147Y-45523D01*
X287673Y-44736D01*
X287758Y-44309D01*
D02*
G37*
G36*
X284933D02*
X283108D01*
X283193Y-44736D01*
X283719Y-45523D01*
X284505Y-46049D01*
X284933Y-46134D01*
Y-44309D01*
D02*
G37*
G36*
X319437Y-48069D02*
Y-49894D01*
X321262D01*
X321177Y-49466D01*
X320651Y-48679D01*
X319865Y-48154D01*
X319437Y-48069D01*
D02*
G37*
G36*
X318437D02*
X318009Y-48154D01*
X317223Y-48679D01*
X316697Y-49466D01*
X316612Y-49894D01*
X318437D01*
Y-48069D01*
D02*
G37*
G36*
X194004Y-48265D02*
Y-50090D01*
X195829D01*
X195744Y-49663D01*
X195218Y-48876D01*
X194432Y-48351D01*
X194004Y-48265D01*
D02*
G37*
G36*
X193004D02*
X192576Y-48351D01*
X191789Y-48876D01*
X191264Y-49663D01*
X191179Y-50090D01*
X193004D01*
Y-48265D01*
D02*
G37*
G36*
X102559Y-45352D02*
X101891Y-45440D01*
X101268Y-45698D01*
X100734Y-46108D01*
X100324Y-46643D01*
X100066Y-47265D01*
X99978Y-47933D01*
X100066Y-48601D01*
X100324Y-49224D01*
X100734Y-49758D01*
X101268Y-50168D01*
X101891Y-50426D01*
X102559Y-50514D01*
X103227Y-50426D01*
X103850Y-50168D01*
X104384Y-49758D01*
X104794Y-49224D01*
X105052Y-48601D01*
X105140Y-47933D01*
X105052Y-47265D01*
X104794Y-46643D01*
X104384Y-46108D01*
X103850Y-45698D01*
X103227Y-45440D01*
X102559Y-45352D01*
D02*
G37*
G36*
X115575Y-50787D02*
X114784Y-50787D01*
X112598Y-50787D01*
X112598Y-50787D01*
X112211Y-50787D01*
X111450Y-50939D01*
X110733Y-51236D01*
X110089Y-51666D01*
X109540Y-52215D01*
X109109Y-52859D01*
X108813Y-53576D01*
X108661Y-54337D01*
X108661Y-54724D01*
Y-74213D01*
X108661Y-74659D01*
X108835Y-75533D01*
X109177Y-76357D01*
X109672Y-77099D01*
X110303Y-77729D01*
X111044Y-78225D01*
X111868Y-78566D01*
X112743Y-78740D01*
X113189Y-78740D01*
X115734D01*
X116393Y-78740D01*
X117685Y-78483D01*
X118902Y-77979D01*
X119997Y-77247D01*
X120463Y-76782D01*
X121635Y-75609D01*
Y-75609D01*
X122000Y-75282D01*
X122759Y-74775D01*
X123622Y-74418D01*
X124539Y-74235D01*
X125006Y-74213D01*
X130709Y-74213D01*
X130709Y-74213D01*
X131022Y-74213D01*
X131177Y-74149D01*
X131602Y-73974D01*
X132045Y-73531D01*
X132284Y-72951D01*
X132283Y-72638D01*
X132283Y-67520D01*
X132283Y-67520D01*
X132283Y-67520D01*
X132284Y-67363D01*
X132164Y-67073D01*
X132164Y-67073D01*
X132163Y-67072D01*
X131943Y-66851D01*
X131653Y-66732D01*
X131496Y-66732D01*
X131339D01*
X131050Y-66852D01*
X130828Y-67074D01*
X130709Y-67363D01*
Y-71850D01*
X130709Y-71850D01*
X130693Y-72004D01*
X130576Y-72288D01*
X130359Y-72505D01*
X130075Y-72623D01*
X129921Y-72638D01*
X124719Y-72695D01*
X124719Y-72695D01*
X123967Y-72703D01*
X122495Y-73009D01*
X121108Y-73592D01*
X119860Y-74431D01*
X119329Y-74963D01*
X118494Y-75797D01*
X118154Y-76105D01*
X118013Y-76199D01*
X117653Y-75839D01*
X117988Y-75337D01*
X118073Y-74910D01*
X113423D01*
X113508Y-75337D01*
X114034Y-76124D01*
X114820Y-76649D01*
X114900Y-76665D01*
X114851Y-77165D01*
X113583D01*
X113255Y-77149D01*
X112611Y-77021D01*
X112005Y-76770D01*
X111460Y-76406D01*
X110996Y-75942D01*
X110631Y-75396D01*
X110380Y-74790D01*
X110252Y-74147D01*
X110236Y-73819D01*
Y-55118D01*
X110249Y-54848D01*
X110355Y-54318D01*
X110562Y-53819D01*
X110862Y-53370D01*
X111244Y-52988D01*
X111693Y-52688D01*
X112192Y-52481D01*
X112722Y-52376D01*
X112992Y-52362D01*
X114851Y-52362D01*
X114900Y-52862D01*
X114820Y-52878D01*
X114034Y-53404D01*
X113508Y-54190D01*
X113423Y-54618D01*
X118073D01*
X117988Y-54190D01*
X117863Y-54003D01*
X118252Y-53685D01*
X120146Y-55579D01*
Y-55579D01*
X120504Y-55938D01*
X121347Y-56501D01*
X122284Y-56889D01*
X123278Y-57087D01*
X123785Y-57087D01*
X129527D01*
X129527Y-57087D01*
X129527Y-57087D01*
X129528Y-57087D01*
X129976Y-57200D01*
X130184Y-57286D01*
X130510Y-57612D01*
X130686Y-58037D01*
X130709Y-58268D01*
X130709Y-62009D01*
X130709Y-62166D01*
X130828Y-62455D01*
X131050Y-62676D01*
X131340Y-62796D01*
X131496Y-62795D01*
X131653Y-62796D01*
X131943Y-62676D01*
X132164Y-62454D01*
X132284Y-62165D01*
X132283Y-62008D01*
X132283Y-57283D01*
X132283D01*
X132283Y-57283D01*
X132283Y-57283D01*
X132284Y-56970D01*
X132224Y-56825D01*
X132044Y-56391D01*
X131601Y-55948D01*
X131022Y-55708D01*
X130709Y-55709D01*
X124479Y-55709D01*
X124137Y-55692D01*
X123465Y-55558D01*
X122832Y-55296D01*
X122262Y-54915D01*
X122008Y-54685D01*
X120463Y-53140D01*
X120463Y-53140D01*
X119903Y-52580D01*
X118588Y-51701D01*
X117126Y-51096D01*
X115575Y-50787D01*
D02*
G37*
G36*
X335039Y-48600D02*
X334371Y-48688D01*
X333749Y-48946D01*
X333214Y-49356D01*
X332804Y-49891D01*
X332546Y-50513D01*
X332458Y-51181D01*
X332459Y-51188D01*
X332001Y-51539D01*
X331770Y-51444D01*
X331102Y-51356D01*
X330434Y-51444D01*
X330204Y-51539D01*
X329746Y-51188D01*
X329747Y-51181D01*
X329659Y-50513D01*
X329401Y-49891D01*
X328991Y-49356D01*
X328456Y-48946D01*
X327833Y-48688D01*
X327165Y-48600D01*
X326497Y-48688D01*
X325875Y-48946D01*
X325340Y-49356D01*
X324930Y-49891D01*
X324672Y-50513D01*
X324584Y-51181D01*
X324672Y-51849D01*
X324930Y-52472D01*
X325340Y-53006D01*
X325875Y-53416D01*
X326497Y-53674D01*
X327165Y-53762D01*
X327833Y-53674D01*
X328064Y-53579D01*
X328522Y-53930D01*
X328521Y-53937D01*
X328609Y-54605D01*
X328867Y-55228D01*
X329277Y-55762D01*
X329812Y-56172D01*
X330434Y-56430D01*
X331102Y-56518D01*
X331770Y-56430D01*
X332393Y-56172D01*
X332927Y-55762D01*
X333338Y-55228D01*
X333595Y-54605D01*
X333683Y-53937D01*
X333683Y-53930D01*
X334141Y-53579D01*
X334371Y-53674D01*
X335039Y-53762D01*
X335707Y-53674D01*
X336330Y-53416D01*
X336864Y-53006D01*
X337275Y-52472D01*
X337532Y-51849D01*
X337620Y-51181D01*
X337532Y-50513D01*
X337275Y-49891D01*
X336864Y-49356D01*
X336330Y-48946D01*
X335707Y-48688D01*
X335039Y-48600D01*
D02*
G37*
G36*
X321262Y-50894D02*
X319437D01*
Y-52719D01*
X319865Y-52634D01*
X320651Y-52108D01*
X321177Y-51322D01*
X321262Y-50894D01*
D02*
G37*
G36*
X318437D02*
X316612D01*
X316697Y-51322D01*
X317223Y-52108D01*
X318009Y-52634D01*
X318437Y-52719D01*
Y-50894D01*
D02*
G37*
G36*
X195829Y-51091D02*
X194004D01*
Y-52916D01*
X194432Y-52830D01*
X195218Y-52305D01*
X195744Y-51518D01*
X195829Y-51091D01*
D02*
G37*
G36*
X193004D02*
X191179D01*
X191264Y-51518D01*
X191789Y-52305D01*
X192576Y-52830D01*
X193004Y-52916D01*
Y-51091D01*
D02*
G37*
G36*
X166535Y-48600D02*
X165867Y-48688D01*
X165245Y-48946D01*
X164710Y-49356D01*
X164300Y-49891D01*
X164042Y-50513D01*
X163954Y-51181D01*
X164042Y-51849D01*
X164300Y-52472D01*
X164710Y-53006D01*
X165245Y-53416D01*
X165867Y-53674D01*
X166535Y-53762D01*
X167203Y-53674D01*
X167826Y-53416D01*
X168361Y-53006D01*
X168771Y-52472D01*
X169029Y-51849D01*
X169117Y-51181D01*
X169029Y-50513D01*
X168771Y-49891D01*
X168361Y-49356D01*
X167826Y-48946D01*
X167203Y-48688D01*
X166535Y-48600D01*
D02*
G37*
G36*
X71268Y-54308D02*
Y-56133D01*
X73093D01*
X73008Y-55705D01*
X72482Y-54918D01*
X71696Y-54393D01*
X71268Y-54308D01*
D02*
G37*
G36*
X70268D02*
X69840Y-54393D01*
X69053Y-54918D01*
X68528Y-55705D01*
X68443Y-56133D01*
X70268D01*
Y-54308D01*
D02*
G37*
G36*
X118073Y-55618D02*
X116248D01*
Y-57443D01*
X116676Y-57358D01*
X117462Y-56832D01*
X117988Y-56046D01*
X118073Y-55618D01*
D02*
G37*
G36*
X115248D02*
X113423D01*
X113508Y-56046D01*
X114034Y-56832D01*
X114820Y-57358D01*
X115248Y-57443D01*
Y-55618D01*
D02*
G37*
G36*
X157352Y-49357D02*
X156684Y-49445D01*
X156061Y-49703D01*
X155526Y-50113D01*
X155116Y-50648D01*
X154859Y-51270D01*
X154771Y-51938D01*
X154859Y-52606D01*
X155116Y-53229D01*
X155526Y-53763D01*
X155318Y-54233D01*
X154950Y-54713D01*
X154692Y-55336D01*
X154604Y-56004D01*
X154692Y-56672D01*
X154950Y-57294D01*
X155360Y-57829D01*
X155894Y-58239D01*
X156517Y-58497D01*
X157185Y-58585D01*
X157853Y-58497D01*
X158476Y-58239D01*
X159010Y-57829D01*
X159420Y-57294D01*
X159678Y-56672D01*
X159766Y-56004D01*
X159678Y-55336D01*
X159420Y-54713D01*
X159176Y-54395D01*
X159177Y-53763D01*
X159587Y-53229D01*
X159845Y-52606D01*
X159933Y-51938D01*
X159845Y-51270D01*
X159587Y-50648D01*
X159177Y-50113D01*
X158642Y-49703D01*
X158020Y-49445D01*
X157352Y-49357D01*
D02*
G37*
G36*
X73093Y-57133D02*
X71268D01*
Y-58958D01*
X71696Y-58873D01*
X72482Y-58347D01*
X73008Y-57560D01*
X73093Y-57133D01*
D02*
G37*
G36*
X70268D02*
X68443D01*
X68528Y-57560D01*
X69053Y-58347D01*
X69840Y-58873D01*
X70268Y-58958D01*
Y-57133D01*
D02*
G37*
G36*
X318937Y-54112D02*
X318269Y-54200D01*
X317646Y-54458D01*
X317112Y-54868D01*
X316702Y-55402D01*
X316444Y-56025D01*
X316356Y-56693D01*
X316444Y-57361D01*
X316702Y-57983D01*
X317112Y-58518D01*
X317646Y-58928D01*
X318269Y-59186D01*
X318937Y-59274D01*
X319605Y-59186D01*
X320228Y-58928D01*
X320762Y-58518D01*
X321172Y-57983D01*
X321430Y-57361D01*
X321518Y-56693D01*
X321430Y-56025D01*
X321172Y-55402D01*
X320762Y-54868D01*
X320228Y-54458D01*
X319605Y-54200D01*
X318937Y-54112D01*
D02*
G37*
G36*
X147047Y-56488D02*
X146379Y-56576D01*
X145757Y-56834D01*
X145222Y-57244D01*
X144812Y-57779D01*
X144554Y-58401D01*
X144466Y-59069D01*
X144554Y-59737D01*
X144812Y-60360D01*
X145222Y-60894D01*
X145757Y-61304D01*
X146379Y-61562D01*
X147047Y-61650D01*
X147715Y-61562D01*
X148338Y-61304D01*
X148872Y-60894D01*
X149283Y-60360D01*
X149540Y-59737D01*
X149628Y-59069D01*
X149540Y-58401D01*
X149283Y-57779D01*
X148872Y-57244D01*
X148338Y-56834D01*
X147715Y-56576D01*
X147047Y-56488D01*
D02*
G37*
G36*
X354823Y-60192D02*
X353487Y-60368D01*
X352242Y-60884D01*
X351173Y-61704D01*
X350352Y-62773D01*
X350152Y-63257D01*
X349652D01*
X349451Y-62773D01*
X348631Y-61704D01*
X347561Y-60884D01*
X346316Y-60368D01*
X344980Y-60192D01*
X343644Y-60368D01*
X342399Y-60884D01*
X341330Y-61704D01*
X340510Y-62773D01*
X339994Y-64018D01*
X339818Y-65354D01*
X339994Y-66690D01*
X340510Y-67936D01*
X341330Y-69005D01*
X342399Y-69825D01*
X343644Y-70341D01*
X344980Y-70517D01*
X346316Y-70341D01*
X347561Y-69825D01*
X348631Y-69005D01*
X349451Y-67936D01*
X349652Y-67451D01*
X350152D01*
X350352Y-67936D01*
X351173Y-69005D01*
X352242Y-69825D01*
X353487Y-70341D01*
X354823Y-70517D01*
X356159Y-70341D01*
X357404Y-69825D01*
X358473Y-69005D01*
X359294Y-67936D01*
X359809Y-66690D01*
X359985Y-65354D01*
X359809Y-64018D01*
X359294Y-62773D01*
X358473Y-61704D01*
X357404Y-60884D01*
X356159Y-60368D01*
X354823Y-60192D01*
D02*
G37*
G36*
X91929Y-59427D02*
X91261Y-59515D01*
X90639Y-59773D01*
X90104Y-60183D01*
X89694Y-60717D01*
X89436Y-61340D01*
X89348Y-62008D01*
X89436Y-62676D01*
X89694Y-63298D01*
X90104Y-63833D01*
X90639Y-64243D01*
X91261Y-64501D01*
X91929Y-64589D01*
X92597Y-64501D01*
X93220Y-64243D01*
X93754Y-63833D01*
X94164Y-63298D01*
X94422Y-62676D01*
X94510Y-62008D01*
X94422Y-61340D01*
X94164Y-60717D01*
X93754Y-60183D01*
X93220Y-59773D01*
X92597Y-59515D01*
X91929Y-59427D01*
D02*
G37*
G36*
X309842Y-60116D02*
X309174Y-60204D01*
X308552Y-60461D01*
X308017Y-60872D01*
X307607Y-61406D01*
X307349Y-62029D01*
X307261Y-62697D01*
X307349Y-63365D01*
X307607Y-63987D01*
X308017Y-64522D01*
X308552Y-64932D01*
X309174Y-65190D01*
X309842Y-65278D01*
X310511Y-65190D01*
X311133Y-64932D01*
X311668Y-64522D01*
X312078Y-63987D01*
X312336Y-63365D01*
X312424Y-62697D01*
X312336Y-62029D01*
X312078Y-61406D01*
X311668Y-60872D01*
X311133Y-60461D01*
X310511Y-60204D01*
X309842Y-60116D01*
D02*
G37*
G36*
X151575Y-63561D02*
X150907Y-63648D01*
X150284Y-63906D01*
X149750Y-64317D01*
X149339Y-64851D01*
X149082Y-65474D01*
X149013Y-65993D01*
X148841Y-66219D01*
X148521Y-66381D01*
X148031Y-66316D01*
X147363Y-66404D01*
X146741Y-66662D01*
X146206Y-67072D01*
X145796Y-67607D01*
X145538Y-68230D01*
X145450Y-68898D01*
X145538Y-69566D01*
X145796Y-70188D01*
X146206Y-70723D01*
X146741Y-71133D01*
X147363Y-71391D01*
X147444Y-71401D01*
Y-71906D01*
X147363Y-71916D01*
X146741Y-72174D01*
X146206Y-72584D01*
X145796Y-73119D01*
X145538Y-73741D01*
X145450Y-74410D01*
X145538Y-75077D01*
X145796Y-75700D01*
X146206Y-76235D01*
X146741Y-76645D01*
X147363Y-76903D01*
X147444Y-76913D01*
Y-77417D01*
X147363Y-77428D01*
X146741Y-77686D01*
X146206Y-78096D01*
X145796Y-78631D01*
X145538Y-79253D01*
X145450Y-79921D01*
X145538Y-80589D01*
X145796Y-81212D01*
X146206Y-81746D01*
X146741Y-82157D01*
X147363Y-82414D01*
X148031Y-82502D01*
X148699Y-82414D01*
X149322Y-82157D01*
X149857Y-81746D01*
X150267Y-81212D01*
X150525Y-80589D01*
X150593Y-80070D01*
X150765Y-79844D01*
X151085Y-79682D01*
X151575Y-79747D01*
X152243Y-79659D01*
X152865Y-79401D01*
X153400Y-78991D01*
X153810Y-78456D01*
X154068Y-77833D01*
X154156Y-77165D01*
X154068Y-76497D01*
X153810Y-75875D01*
X153400Y-75340D01*
X152865Y-74930D01*
X152243Y-74672D01*
X152163Y-74662D01*
Y-74157D01*
X152243Y-74147D01*
X152865Y-73889D01*
X153400Y-73479D01*
X153810Y-72944D01*
X154068Y-72322D01*
X154156Y-71653D01*
X154068Y-70986D01*
X153810Y-70363D01*
X153400Y-69828D01*
X152865Y-69418D01*
X152243Y-69160D01*
X152163Y-69150D01*
Y-68646D01*
X152243Y-68635D01*
X152865Y-68377D01*
X153400Y-67967D01*
X153810Y-67432D01*
X154068Y-66810D01*
X154156Y-66142D01*
X154068Y-65474D01*
X153810Y-64851D01*
X153400Y-64317D01*
X152865Y-63906D01*
X152243Y-63648D01*
X151575Y-63561D01*
D02*
G37*
G36*
X285933Y-65785D02*
Y-67610D01*
X287758D01*
X287673Y-67182D01*
X287147Y-66396D01*
X286361Y-65870D01*
X285933Y-65785D01*
D02*
G37*
G36*
X284933D02*
X284505Y-65870D01*
X283719Y-66396D01*
X283193Y-67182D01*
X283108Y-67610D01*
X284933D01*
Y-65785D01*
D02*
G37*
G36*
X243020Y-67088D02*
Y-68913D01*
X244845D01*
X244760Y-68486D01*
X244234Y-67699D01*
X243447Y-67173D01*
X243020Y-67088D01*
D02*
G37*
G36*
X242020D02*
X241592Y-67173D01*
X240805Y-67699D01*
X240280Y-68486D01*
X240195Y-68913D01*
X242020D01*
Y-67088D01*
D02*
G37*
G36*
X257480Y-64348D02*
X256812Y-64436D01*
X256190Y-64694D01*
X255655Y-65104D01*
X255245Y-65639D01*
X254987Y-66261D01*
X254899Y-66929D01*
X254987Y-67597D01*
X255245Y-68220D01*
X255655Y-68754D01*
X256190Y-69164D01*
X256812Y-69422D01*
X257480Y-69510D01*
X258148Y-69422D01*
X258771Y-69164D01*
X259305Y-68754D01*
X259716Y-68220D01*
X259974Y-67597D01*
X260061Y-66929D01*
X259974Y-66261D01*
X259716Y-65639D01*
X259305Y-65104D01*
X258771Y-64694D01*
X258148Y-64436D01*
X257480Y-64348D01*
D02*
G37*
G36*
X287758Y-68610D02*
X285933D01*
Y-70435D01*
X286361Y-70350D01*
X287147Y-69825D01*
X287673Y-69038D01*
X287758Y-68610D01*
D02*
G37*
G36*
X284933D02*
X283108D01*
X283193Y-69038D01*
X283719Y-69825D01*
X284505Y-70350D01*
X284933Y-70435D01*
Y-68610D01*
D02*
G37*
G36*
X267323Y-61592D02*
X266655Y-61680D01*
X266032Y-61938D01*
X265498Y-62348D01*
X265088Y-62883D01*
X264830Y-63505D01*
X264742Y-64173D01*
X264830Y-64841D01*
X265088Y-65464D01*
X265246Y-65670D01*
X265363Y-66127D01*
X265154Y-66326D01*
X264837Y-66569D01*
X264427Y-67104D01*
X264169Y-67726D01*
X264081Y-68395D01*
X264169Y-69063D01*
X264427Y-69685D01*
X264837Y-70220D01*
X265372Y-70630D01*
X265994Y-70888D01*
X266662Y-70976D01*
X267330Y-70888D01*
X267953Y-70630D01*
X268487Y-70220D01*
X268898Y-69685D01*
X269156Y-69063D01*
X269243Y-68395D01*
X269156Y-67726D01*
X268898Y-67104D01*
X268739Y-66898D01*
X268622Y-66441D01*
X268831Y-66241D01*
X269148Y-65998D01*
X269558Y-65464D01*
X269816Y-64841D01*
X269904Y-64173D01*
X269816Y-63505D01*
X269558Y-62883D01*
X269148Y-62348D01*
X268613Y-61938D01*
X267991Y-61680D01*
X267323Y-61592D01*
D02*
G37*
G36*
X231496Y-65923D02*
X230828Y-66011D01*
X230205Y-66269D01*
X229671Y-66679D01*
X229261Y-67213D01*
X229003Y-67836D01*
X228915Y-68504D01*
X229003Y-69172D01*
X229261Y-69794D01*
X229671Y-70329D01*
X230205Y-70739D01*
X230828Y-70997D01*
X231496Y-71085D01*
X232164Y-70997D01*
X232787Y-70739D01*
X233321Y-70329D01*
X233731Y-69794D01*
X233989Y-69172D01*
X234077Y-68504D01*
X233989Y-67836D01*
X233731Y-67213D01*
X233321Y-66679D01*
X232787Y-66269D01*
X232164Y-66011D01*
X231496Y-65923D01*
D02*
G37*
G36*
X244845Y-69913D02*
X243020D01*
Y-71738D01*
X243447Y-71653D01*
X244234Y-71128D01*
X244760Y-70341D01*
X244845Y-69913D01*
D02*
G37*
G36*
X242020D02*
X240195D01*
X240280Y-70341D01*
X240805Y-71128D01*
X241592Y-71653D01*
X242020Y-71738D01*
Y-69913D01*
D02*
G37*
G36*
X331512Y-69999D02*
Y-71824D01*
X333337D01*
X333252Y-71396D01*
X332726Y-70610D01*
X331940Y-70084D01*
X331512Y-69999D01*
D02*
G37*
G36*
X330512D02*
X330084Y-70084D01*
X329297Y-70610D01*
X328772Y-71396D01*
X328687Y-71824D01*
X330512D01*
Y-69999D01*
D02*
G37*
G36*
X275590Y-67104D02*
X274922Y-67192D01*
X274300Y-67450D01*
X273765Y-67860D01*
X273355Y-68395D01*
X273097Y-69017D01*
X273009Y-69685D01*
X273097Y-70353D01*
X273355Y-70976D01*
X273765Y-71510D01*
X274300Y-71920D01*
X274922Y-72178D01*
X275590Y-72266D01*
X276259Y-72178D01*
X276881Y-71920D01*
X277416Y-71510D01*
X277826Y-70976D01*
X278084Y-70353D01*
X278172Y-69685D01*
X278084Y-69017D01*
X277826Y-68395D01*
X277416Y-67860D01*
X276881Y-67450D01*
X276259Y-67192D01*
X275590Y-67104D01*
D02*
G37*
G36*
X116248Y-72084D02*
Y-73909D01*
X118073D01*
X117988Y-73482D01*
X117462Y-72695D01*
X116676Y-72170D01*
X116248Y-72084D01*
D02*
G37*
G36*
X115248D02*
X114820Y-72170D01*
X114034Y-72695D01*
X113508Y-73482D01*
X113423Y-73909D01*
X115248D01*
Y-72084D01*
D02*
G37*
G36*
X333337Y-72824D02*
X331512D01*
Y-74649D01*
X331940Y-74564D01*
X332726Y-74038D01*
X333252Y-73252D01*
X333337Y-72824D01*
D02*
G37*
G36*
X330512D02*
X328687D01*
X328772Y-73252D01*
X329297Y-74038D01*
X330084Y-74564D01*
X330512Y-74649D01*
Y-72824D01*
D02*
G37*
G36*
X71268Y-73599D02*
Y-75424D01*
X73093D01*
X73008Y-74996D01*
X72482Y-74210D01*
X71696Y-73684D01*
X71268Y-73599D01*
D02*
G37*
G36*
X70268D02*
X69840Y-73684D01*
X69053Y-74210D01*
X68528Y-74996D01*
X68443Y-75424D01*
X70268D01*
Y-73599D01*
D02*
G37*
G36*
X126878Y-74840D02*
Y-76665D01*
X128703D01*
X128618Y-76237D01*
X128092Y-75451D01*
X127306Y-74925D01*
X126878Y-74840D01*
D02*
G37*
G36*
X125878D02*
X125450Y-74925D01*
X124663Y-75451D01*
X124138Y-76237D01*
X124053Y-76665D01*
X125878D01*
Y-74840D01*
D02*
G37*
G36*
X252165Y-71533D02*
X251497Y-71621D01*
X250875Y-71879D01*
X250340Y-72289D01*
X249930Y-72824D01*
X249672Y-73446D01*
X249584Y-74114D01*
X249672Y-74782D01*
X249930Y-75405D01*
X250340Y-75939D01*
X250875Y-76350D01*
X251497Y-76607D01*
X252165Y-76695D01*
X252833Y-76607D01*
X253456Y-76350D01*
X253991Y-75939D01*
X254401Y-75405D01*
X254659Y-74782D01*
X254747Y-74114D01*
X254659Y-73446D01*
X254401Y-72824D01*
X253991Y-72289D01*
X253456Y-71879D01*
X252833Y-71621D01*
X252165Y-71533D01*
D02*
G37*
G36*
X213878Y-68112D02*
X213210Y-68200D01*
X212587Y-68458D01*
X212053Y-68868D01*
X211643Y-69402D01*
X211385Y-70025D01*
X211297Y-70693D01*
X211385Y-71361D01*
X211643Y-71983D01*
X212040Y-72502D01*
X211643Y-73020D01*
X211385Y-73643D01*
X211297Y-74311D01*
X211385Y-74979D01*
X211643Y-75602D01*
X212053Y-76136D01*
X212587Y-76546D01*
X213210Y-76804D01*
X213878Y-76892D01*
X214546Y-76804D01*
X215168Y-76546D01*
X215703Y-76136D01*
X216113Y-75602D01*
X216371Y-74979D01*
X216459Y-74311D01*
X216371Y-73643D01*
X216113Y-73020D01*
X215715Y-72502D01*
X216113Y-71983D01*
X216371Y-71361D01*
X216459Y-70693D01*
X216371Y-70025D01*
X216113Y-69402D01*
X215703Y-68868D01*
X215168Y-68458D01*
X214546Y-68200D01*
X213878Y-68112D01*
D02*
G37*
G36*
X354823Y-73972D02*
X353487Y-74147D01*
X352242Y-74663D01*
X351173Y-75484D01*
X350352Y-76553D01*
X350152Y-77037D01*
X349652D01*
X349451Y-76553D01*
X348631Y-75484D01*
X347562Y-74663D01*
X346316Y-74147D01*
X344980Y-73972D01*
X343644Y-74147D01*
X342399Y-74663D01*
X341330Y-75484D01*
X340510Y-76553D01*
X339994Y-77798D01*
X339818Y-79134D01*
X339994Y-80470D01*
X340510Y-81715D01*
X341330Y-82784D01*
X342399Y-83605D01*
X343644Y-84120D01*
X344980Y-84296D01*
X346316Y-84120D01*
X347562Y-83605D01*
X348631Y-82784D01*
X349451Y-81715D01*
X349652Y-81231D01*
X350152D01*
X350352Y-81715D01*
X351173Y-82784D01*
X352242Y-83605D01*
X353487Y-84120D01*
X354823Y-84296D01*
X356159Y-84120D01*
X357404Y-83605D01*
X358473Y-82784D01*
X359294Y-81715D01*
X359809Y-80470D01*
X359985Y-79134D01*
X359809Y-77798D01*
X359294Y-76553D01*
X358473Y-75484D01*
X357404Y-74663D01*
X356159Y-74147D01*
X354823Y-73972D01*
D02*
G37*
G36*
X73093Y-76424D02*
X71268D01*
Y-78249D01*
X71696Y-78164D01*
X72482Y-77638D01*
X73008Y-76852D01*
X73093Y-76424D01*
D02*
G37*
G36*
X70268D02*
X68443D01*
X68528Y-76852D01*
X69053Y-77638D01*
X69840Y-78164D01*
X70268Y-78249D01*
Y-76424D01*
D02*
G37*
G36*
X237999Y-76604D02*
Y-78429D01*
X239824D01*
X239739Y-78001D01*
X239213Y-77214D01*
X238427Y-76689D01*
X237999Y-76604D01*
D02*
G37*
G36*
X236999D02*
X236571Y-76689D01*
X235785Y-77214D01*
X235259Y-78001D01*
X235174Y-78429D01*
X236999D01*
Y-76604D01*
D02*
G37*
G36*
X275106Y-78482D02*
Y-80307D01*
X276931D01*
X276846Y-79879D01*
X276321Y-79093D01*
X275534Y-78567D01*
X275106Y-78482D01*
D02*
G37*
G36*
X274106D02*
X273678Y-78567D01*
X272892Y-79093D01*
X272366Y-79879D01*
X272281Y-80307D01*
X274106D01*
Y-78482D01*
D02*
G37*
G36*
X267232D02*
Y-80307D01*
X269057D01*
X268972Y-79879D01*
X268447Y-79093D01*
X267660Y-78567D01*
X267232Y-78482D01*
D02*
G37*
G36*
X266232D02*
X265804Y-78567D01*
X265018Y-79093D01*
X264492Y-79879D01*
X264407Y-80307D01*
X266232D01*
Y-78482D01*
D02*
G37*
G36*
X259358D02*
Y-80307D01*
X261183D01*
X261098Y-79879D01*
X260573Y-79093D01*
X259786Y-78567D01*
X259358Y-78482D01*
D02*
G37*
G36*
X258358D02*
X257930Y-78567D01*
X257144Y-79093D01*
X256618Y-79879D01*
X256533Y-80307D01*
X258358D01*
Y-78482D01*
D02*
G37*
G36*
X114684Y-80315D02*
X113799Y-80315D01*
X110236Y-80315D01*
X110236Y-80315D01*
X109625Y-80315D01*
X108428Y-80553D01*
X107299Y-81021D01*
X106283Y-81699D01*
X105420Y-82563D01*
X104741Y-83579D01*
X104274Y-84707D01*
X104035Y-85905D01*
X104035Y-86516D01*
Y-102067D01*
X104035Y-102639D01*
X104258Y-103761D01*
X104696Y-104818D01*
X105332Y-105769D01*
X106140Y-106578D01*
X107092Y-107213D01*
X108149Y-107651D01*
X109271Y-107874D01*
X109843Y-107874D01*
X113583D01*
X114379Y-107874D01*
X115940Y-107564D01*
X117411Y-106955D01*
X118735Y-106070D01*
X119298Y-105507D01*
X120057Y-104747D01*
X120057Y-104747D01*
X120057Y-104747D01*
X120058Y-104747D01*
X120406Y-104443D01*
X121026Y-104029D01*
X121771Y-103720D01*
X122561Y-103563D01*
X122964Y-103543D01*
X130709Y-103543D01*
X130709Y-103543D01*
X131100Y-103543D01*
X131193Y-103505D01*
X131824Y-103244D01*
X132378Y-102690D01*
X132677Y-101966D01*
X132677Y-101575D01*
X132677Y-96653D01*
X132677Y-96653D01*
X132678Y-96497D01*
X132558Y-96207D01*
X132558Y-96207D01*
X132545Y-96194D01*
X132339Y-95988D01*
X132336Y-95985D01*
X132336Y-95985D01*
X132047Y-95865D01*
X131890Y-95866D01*
X131890Y-95866D01*
X131890Y-95866D01*
X131733D01*
X131444Y-95986D01*
X131222Y-96207D01*
X131102Y-96497D01*
Y-101181D01*
X131102Y-101181D01*
X131087Y-101335D01*
X130970Y-101619D01*
X130752Y-101836D01*
X130468Y-101953D01*
X130315Y-101969D01*
X122010Y-101970D01*
X122010Y-101970D01*
X121597Y-101970D01*
X120788Y-102131D01*
X120026Y-102447D01*
X119340Y-102905D01*
X119049Y-103197D01*
X117574Y-104672D01*
X117574Y-104672D01*
X117194Y-105016D01*
X116343Y-105584D01*
X115398Y-105976D01*
X114394Y-106176D01*
X113882Y-106201D01*
X112607Y-106201D01*
X112558Y-105701D01*
X113133Y-105586D01*
X113919Y-105061D01*
X114445Y-104274D01*
X114530Y-103847D01*
X109880D01*
X109965Y-104274D01*
X110490Y-105061D01*
X111277Y-105586D01*
X111852Y-105701D01*
X111802Y-106201D01*
X110138Y-106201D01*
X109723Y-106180D01*
X108909Y-106019D01*
X108143Y-105701D01*
X107453Y-105240D01*
X106866Y-104653D01*
X106405Y-103964D01*
X106088Y-103197D01*
X105926Y-102383D01*
X105905Y-101969D01*
Y-86221D01*
X105926Y-85796D01*
X106091Y-84963D01*
X106416Y-84179D01*
X106888Y-83473D01*
X107488Y-82872D01*
X108194Y-82401D01*
X108979Y-82076D01*
X109812Y-81911D01*
X110236Y-81890D01*
X111802D01*
X111852Y-82390D01*
X111277Y-82504D01*
X110490Y-83030D01*
X109965Y-83816D01*
X109880Y-84244D01*
X114530D01*
X114445Y-83816D01*
X113919Y-83030D01*
X113133Y-82504D01*
X112558Y-82390D01*
X112607Y-81890D01*
X114038D01*
X114038Y-81890D01*
X114038Y-81890D01*
X114582Y-81916D01*
X115650Y-82129D01*
X116656Y-82545D01*
X117561Y-83150D01*
X117965Y-83517D01*
X119041Y-84592D01*
X119383Y-84934D01*
X119689Y-85240D01*
X119727Y-85266D01*
X120408Y-85721D01*
X121208Y-86052D01*
X122056Y-86221D01*
X122489Y-86221D01*
X129527Y-86221D01*
X129527Y-86221D01*
X129528Y-86221D01*
X129528Y-86221D01*
X129984Y-86313D01*
X130402Y-86486D01*
X130837Y-86920D01*
X131072Y-87488D01*
X131102Y-87795D01*
X131102Y-91144D01*
X131102Y-91300D01*
X131222Y-91589D01*
X131444Y-91810D01*
X131733Y-91930D01*
X131890Y-91929D01*
X132047Y-91930D01*
X132337Y-91811D01*
X132559Y-91589D01*
X132678Y-91299D01*
X132677Y-91142D01*
X132677Y-87402D01*
X132677D01*
X132677Y-87402D01*
X132677Y-87401D01*
X132678Y-87149D01*
X132637Y-86941D01*
X132580Y-86655D01*
X132387Y-86188D01*
X132107Y-85769D01*
X131751Y-85412D01*
X131331Y-85132D01*
X130865Y-84940D01*
X130370Y-84842D01*
X130118Y-84842D01*
X124730Y-84842D01*
X124095Y-84811D01*
X122850Y-84564D01*
X121677Y-84078D01*
X120621Y-83372D01*
X120150Y-82946D01*
X120150Y-82946D01*
X120150Y-82946D01*
X119525Y-82320D01*
X118054Y-81337D01*
X116419Y-80660D01*
X114684Y-80315D01*
D02*
G37*
G36*
X161909Y-75568D02*
X161241Y-75656D01*
X160619Y-75914D01*
X160084Y-76324D01*
X159674Y-76859D01*
X159416Y-77482D01*
X159328Y-78150D01*
X159416Y-78818D01*
X159674Y-79440D01*
X160084Y-79975D01*
X160619Y-80385D01*
X161241Y-80643D01*
X161909Y-80731D01*
X162577Y-80643D01*
X163200Y-80385D01*
X163735Y-79975D01*
X164145Y-79440D01*
X164403Y-78818D01*
X164491Y-78150D01*
X164403Y-77482D01*
X164145Y-76859D01*
X163735Y-76324D01*
X163200Y-75914D01*
X162577Y-75656D01*
X161909Y-75568D01*
D02*
G37*
G36*
X239824Y-79428D02*
X237999D01*
Y-81254D01*
X238427Y-81169D01*
X239213Y-80643D01*
X239739Y-79856D01*
X239824Y-79428D01*
D02*
G37*
G36*
X236999D02*
X235174D01*
X235259Y-79856D01*
X235785Y-80643D01*
X236571Y-81169D01*
X236999Y-81254D01*
Y-79428D01*
D02*
G37*
G36*
X291164Y-77340D02*
X290496Y-77428D01*
X289873Y-77686D01*
X289339Y-78096D01*
X288929Y-78631D01*
X288671Y-79253D01*
X288583Y-79921D01*
X288671Y-80589D01*
X288929Y-81212D01*
X289339Y-81746D01*
X289873Y-82157D01*
X290496Y-82414D01*
X291164Y-82502D01*
X291832Y-82414D01*
X292454Y-82157D01*
X292989Y-81746D01*
X293399Y-81212D01*
X293657Y-80589D01*
X293745Y-79921D01*
X293657Y-79253D01*
X293399Y-78631D01*
X292989Y-78096D01*
X292454Y-77686D01*
X291832Y-77428D01*
X291164Y-77340D01*
D02*
G37*
G36*
X276931Y-81307D02*
X275106D01*
Y-83132D01*
X275534Y-83047D01*
X276321Y-82521D01*
X276846Y-81735D01*
X276931Y-81307D01*
D02*
G37*
G36*
X274106D02*
X272281D01*
X272366Y-81735D01*
X272892Y-82521D01*
X273678Y-83047D01*
X274106Y-83132D01*
Y-81307D01*
D02*
G37*
G36*
X269057D02*
X267232D01*
Y-83132D01*
X267660Y-83047D01*
X268447Y-82521D01*
X268972Y-81735D01*
X269057Y-81307D01*
D02*
G37*
G36*
X266232D02*
X264407D01*
X264492Y-81735D01*
X265018Y-82521D01*
X265804Y-83047D01*
X266232Y-83132D01*
Y-81307D01*
D02*
G37*
G36*
X261183D02*
X259358D01*
Y-83132D01*
X259786Y-83047D01*
X260573Y-82521D01*
X261098Y-81735D01*
X261183Y-81307D01*
D02*
G37*
G36*
X258358D02*
X256533D01*
X256618Y-81735D01*
X257144Y-82521D01*
X257930Y-83047D01*
X258358Y-83132D01*
Y-81307D01*
D02*
G37*
G36*
X285039Y-78127D02*
X284371Y-78215D01*
X283749Y-78473D01*
X283214Y-78883D01*
X282804Y-79418D01*
X282546Y-80041D01*
X282458Y-80709D01*
X282546Y-81377D01*
X282804Y-81999D01*
X283214Y-82534D01*
X283749Y-82944D01*
X284371Y-83202D01*
X285039Y-83290D01*
X285707Y-83202D01*
X286330Y-82944D01*
X286864Y-82534D01*
X287275Y-81999D01*
X287532Y-81377D01*
X287620Y-80709D01*
X287532Y-80041D01*
X287275Y-79418D01*
X286864Y-78883D01*
X286330Y-78473D01*
X285707Y-78215D01*
X285039Y-78127D01*
D02*
G37*
G36*
X91929Y-78718D02*
X91261Y-78806D01*
X90639Y-79064D01*
X90104Y-79474D01*
X89694Y-80009D01*
X89436Y-80631D01*
X89348Y-81299D01*
X89436Y-81967D01*
X89694Y-82590D01*
X90104Y-83124D01*
X90639Y-83534D01*
X91261Y-83792D01*
X91929Y-83880D01*
X92597Y-83792D01*
X93220Y-83534D01*
X93754Y-83124D01*
X94164Y-82590D01*
X94422Y-81967D01*
X94510Y-81299D01*
X94422Y-80631D01*
X94164Y-80009D01*
X93754Y-79474D01*
X93220Y-79064D01*
X92597Y-78806D01*
X91929Y-78718D01*
D02*
G37*
G36*
X128703Y-77665D02*
X124053D01*
X124138Y-78093D01*
X124663Y-78880D01*
X124716Y-78915D01*
X124737Y-79530D01*
X124553Y-79671D01*
X124143Y-80206D01*
X123885Y-80828D01*
X123797Y-81496D01*
X123885Y-82164D01*
X124143Y-82787D01*
X124553Y-83321D01*
X125087Y-83731D01*
X125710Y-83989D01*
X126378Y-84077D01*
X127046Y-83989D01*
X127668Y-83731D01*
X128203Y-83321D01*
X128613Y-82787D01*
X128871Y-82164D01*
X128959Y-81496D01*
X128871Y-80828D01*
X128613Y-80206D01*
X128203Y-79671D01*
X128019Y-79530D01*
X128039Y-78915D01*
X128092Y-78880D01*
X128618Y-78093D01*
X128703Y-77665D01*
D02*
G37*
G36*
X331209Y-83108D02*
Y-84933D01*
X333034D01*
X332949Y-84505D01*
X332423Y-83719D01*
X331637Y-83193D01*
X331209Y-83108D01*
D02*
G37*
G36*
X330209D02*
X329781Y-83193D01*
X328994Y-83719D01*
X328469Y-84505D01*
X328384Y-84933D01*
X330209D01*
Y-83108D01*
D02*
G37*
G36*
X309161Y-83502D02*
Y-85327D01*
X310986D01*
X310901Y-84899D01*
X310376Y-84112D01*
X309589Y-83587D01*
X309161Y-83502D01*
D02*
G37*
G36*
X308161D02*
X307734Y-83587D01*
X306947Y-84112D01*
X306421Y-84899D01*
X306336Y-85327D01*
X308161D01*
Y-83502D01*
D02*
G37*
G36*
X214075Y-83738D02*
X213407Y-83826D01*
X212784Y-84084D01*
X212250Y-84494D01*
X211840Y-85028D01*
X211582Y-85651D01*
X211507Y-86217D01*
X211378Y-86391D01*
X211027Y-86608D01*
X210531Y-86543D01*
X209863Y-86631D01*
X209241Y-86889D01*
X208706Y-87299D01*
X208296Y-87833D01*
X208038Y-88456D01*
X207950Y-89124D01*
X208038Y-89792D01*
X208296Y-90415D01*
X208706Y-90949D01*
X209241Y-91359D01*
X209863Y-91617D01*
X210531Y-91705D01*
X211015Y-91641D01*
X211315Y-91765D01*
X211518Y-92026D01*
X211582Y-92507D01*
X211840Y-93129D01*
X212250Y-93664D01*
X212784Y-94074D01*
X213407Y-94332D01*
X214075Y-94420D01*
X214743Y-94332D01*
X215365Y-94074D01*
X215900Y-93664D01*
X216310Y-93129D01*
X216568Y-92507D01*
X216656Y-91839D01*
X216568Y-91171D01*
X216310Y-90548D01*
X215900Y-90013D01*
X215365Y-89603D01*
X214743Y-89345D01*
X214633Y-89331D01*
Y-88827D01*
X214743Y-88812D01*
X215365Y-88554D01*
X215900Y-88144D01*
X216310Y-87609D01*
X216568Y-86987D01*
X216656Y-86319D01*
X216568Y-85651D01*
X216310Y-85028D01*
X215900Y-84494D01*
X215365Y-84084D01*
X214743Y-83826D01*
X214075Y-83738D01*
D02*
G37*
G36*
X114530Y-85244D02*
X112705D01*
Y-87069D01*
X113133Y-86984D01*
X113919Y-86458D01*
X114445Y-85672D01*
X114530Y-85244D01*
D02*
G37*
G36*
X111705D02*
X109880D01*
X109965Y-85672D01*
X110490Y-86458D01*
X111277Y-86984D01*
X111705Y-87069D01*
Y-85244D01*
D02*
G37*
G36*
X296444Y-82327D02*
X295776Y-82415D01*
X295154Y-82673D01*
X294619Y-83083D01*
X294209Y-83618D01*
X293951Y-84240D01*
X293863Y-84908D01*
X293951Y-85576D01*
X294209Y-86199D01*
X294619Y-86734D01*
X295154Y-87144D01*
X295776Y-87402D01*
X296444Y-87489D01*
X297112Y-87402D01*
X297735Y-87144D01*
X298269Y-86734D01*
X298680Y-86199D01*
X298938Y-85576D01*
X299025Y-84908D01*
X298938Y-84240D01*
X298680Y-83618D01*
X298269Y-83083D01*
X297735Y-82673D01*
X297112Y-82415D01*
X296444Y-82327D01*
D02*
G37*
G36*
X333034Y-85933D02*
X331209D01*
Y-87758D01*
X331637Y-87673D01*
X332423Y-87147D01*
X332949Y-86361D01*
X333034Y-85933D01*
D02*
G37*
G36*
X330209D02*
X328384D01*
X328469Y-86361D01*
X328994Y-87147D01*
X329781Y-87673D01*
X330209Y-87758D01*
Y-85933D01*
D02*
G37*
G36*
X310986Y-86327D02*
X309161D01*
Y-88152D01*
X309589Y-88067D01*
X310376Y-87541D01*
X310901Y-86755D01*
X310986Y-86327D01*
D02*
G37*
G36*
X308161D02*
X306336D01*
X306421Y-86755D01*
X306947Y-87541D01*
X307734Y-88067D01*
X308161Y-88152D01*
Y-86327D01*
D02*
G37*
G36*
X275106Y-86356D02*
Y-88181D01*
X276931D01*
X276846Y-87753D01*
X276321Y-86967D01*
X275534Y-86441D01*
X275106Y-86356D01*
D02*
G37*
G36*
X274106D02*
X273678Y-86441D01*
X272892Y-86967D01*
X272366Y-87753D01*
X272281Y-88181D01*
X274106D01*
Y-86356D01*
D02*
G37*
G36*
X267232D02*
Y-88181D01*
X269057D01*
X268972Y-87753D01*
X268447Y-86967D01*
X267660Y-86441D01*
X267232Y-86356D01*
D02*
G37*
G36*
X266232D02*
X265804Y-86441D01*
X265018Y-86967D01*
X264492Y-87753D01*
X264407Y-88181D01*
X266232D01*
Y-86356D01*
D02*
G37*
G36*
X259358D02*
Y-88181D01*
X261183D01*
X261098Y-87753D01*
X260573Y-86967D01*
X259786Y-86441D01*
X259358Y-86356D01*
D02*
G37*
G36*
X258358D02*
X257930Y-86441D01*
X257144Y-86967D01*
X256618Y-87753D01*
X256533Y-88181D01*
X258358D01*
Y-86356D01*
D02*
G37*
G36*
X324410Y-83246D02*
X323741Y-83334D01*
X323119Y-83591D01*
X322584Y-84002D01*
X322174Y-84536D01*
X321916Y-85159D01*
X321828Y-85827D01*
X321916Y-86495D01*
X322174Y-87117D01*
X322584Y-87652D01*
X323119Y-88062D01*
X323741Y-88320D01*
X324410Y-88408D01*
X325078Y-88320D01*
X325700Y-88062D01*
X326235Y-87652D01*
X326645Y-87117D01*
X326903Y-86495D01*
X326991Y-85827D01*
X326903Y-85159D01*
X326645Y-84536D01*
X326235Y-84002D01*
X325700Y-83591D01*
X325078Y-83334D01*
X324410Y-83246D01*
D02*
G37*
G36*
X229896Y-83566D02*
X229228Y-83654D01*
X228606Y-83912D01*
X228071Y-84322D01*
X227661Y-84857D01*
X227403Y-85479D01*
X227315Y-86147D01*
X227403Y-86815D01*
X227661Y-87438D01*
X228071Y-87972D01*
X228606Y-88382D01*
X229228Y-88640D01*
X229896Y-88728D01*
X230564Y-88640D01*
X231187Y-88382D01*
X231721Y-87972D01*
X232132Y-87438D01*
X232389Y-86815D01*
X232477Y-86147D01*
X232389Y-85479D01*
X232132Y-84857D01*
X231721Y-84322D01*
X231187Y-83912D01*
X230564Y-83654D01*
X229896Y-83566D01*
D02*
G37*
G36*
X354823Y-87751D02*
X353487Y-87927D01*
X352242Y-88443D01*
X351173Y-89263D01*
X350352Y-90332D01*
X350152Y-90816D01*
X349652D01*
X349451Y-90332D01*
X348631Y-89263D01*
X347561Y-88443D01*
X346316Y-87927D01*
X344980Y-87751D01*
X343644Y-87927D01*
X342399Y-88443D01*
X341330Y-89263D01*
X340510Y-90332D01*
X339994Y-91577D01*
X339818Y-92913D01*
X339994Y-94249D01*
X340510Y-95495D01*
X341330Y-96564D01*
X342399Y-97384D01*
X343644Y-97900D01*
X344980Y-98076D01*
X346316Y-97900D01*
X347561Y-97384D01*
X348631Y-96564D01*
X349451Y-95495D01*
X349652Y-95010D01*
X350152D01*
X350352Y-95495D01*
X351173Y-96564D01*
X352242Y-97384D01*
X353487Y-97900D01*
X354823Y-98076D01*
X356159Y-97900D01*
X357404Y-97384D01*
X358473Y-96564D01*
X359294Y-95495D01*
X359809Y-94249D01*
X359985Y-92913D01*
X359809Y-91577D01*
X359294Y-90332D01*
X358473Y-89263D01*
X357404Y-88443D01*
X356159Y-87927D01*
X354823Y-87751D01*
D02*
G37*
G36*
X276931Y-89181D02*
X275106D01*
Y-91006D01*
X275534Y-90921D01*
X276321Y-90395D01*
X276846Y-89609D01*
X276931Y-89181D01*
D02*
G37*
G36*
X274106D02*
X272281D01*
X272366Y-89609D01*
X272892Y-90395D01*
X273678Y-90921D01*
X274106Y-91006D01*
Y-89181D01*
D02*
G37*
G36*
X269057D02*
X267232D01*
Y-91006D01*
X267660Y-90921D01*
X268447Y-90395D01*
X268972Y-89609D01*
X269057Y-89181D01*
D02*
G37*
G36*
X266232D02*
X264407D01*
X264492Y-89609D01*
X265018Y-90395D01*
X265804Y-90921D01*
X266232Y-91006D01*
Y-89181D01*
D02*
G37*
G36*
X261183D02*
X259358D01*
Y-91006D01*
X259786Y-90921D01*
X260573Y-90395D01*
X261098Y-89609D01*
X261183Y-89181D01*
D02*
G37*
G36*
X258358D02*
X256533D01*
X256618Y-89609D01*
X257144Y-90395D01*
X257930Y-90921D01*
X258358Y-91006D01*
Y-89181D01*
D02*
G37*
G36*
X307087Y-89250D02*
X306419Y-89337D01*
X305796Y-89595D01*
X305261Y-90006D01*
X304851Y-90540D01*
X304593Y-91163D01*
X304505Y-91831D01*
X304593Y-92499D01*
X304851Y-93121D01*
X305261Y-93656D01*
X305796Y-94066D01*
X306419Y-94324D01*
X307087Y-94412D01*
X307755Y-94324D01*
X308377Y-94066D01*
X308912Y-93656D01*
X309322Y-93121D01*
X309580Y-92499D01*
X309668Y-91831D01*
X309580Y-91163D01*
X309322Y-90540D01*
X308912Y-90006D01*
X308377Y-89595D01*
X307755Y-89337D01*
X307087Y-89250D01*
D02*
G37*
G36*
X71268Y-92890D02*
Y-94715D01*
X73093D01*
X73008Y-94288D01*
X72482Y-93501D01*
X71696Y-92975D01*
X71268Y-92890D01*
D02*
G37*
G36*
X70268D02*
X69840Y-92975D01*
X69053Y-93501D01*
X68528Y-94288D01*
X68443Y-94715D01*
X70268D01*
Y-92890D01*
D02*
G37*
G36*
X275106Y-94230D02*
Y-96055D01*
X276931D01*
X276846Y-95627D01*
X276321Y-94841D01*
X275534Y-94315D01*
X275106Y-94230D01*
D02*
G37*
G36*
X274106D02*
X273678Y-94315D01*
X272892Y-94841D01*
X272366Y-95627D01*
X272281Y-96055D01*
X274106D01*
Y-94230D01*
D02*
G37*
G36*
X267232D02*
Y-96055D01*
X269057D01*
X268972Y-95627D01*
X268447Y-94841D01*
X267660Y-94315D01*
X267232Y-94230D01*
D02*
G37*
G36*
X266232D02*
X265804Y-94315D01*
X265018Y-94841D01*
X264492Y-95627D01*
X264407Y-96055D01*
X266232D01*
Y-94230D01*
D02*
G37*
G36*
X259358D02*
Y-96055D01*
X261183D01*
X261098Y-95627D01*
X260573Y-94841D01*
X259786Y-94315D01*
X259358Y-94230D01*
D02*
G37*
G36*
X258358D02*
X257930Y-94315D01*
X257144Y-94841D01*
X256618Y-95627D01*
X256533Y-96055D01*
X258358D01*
Y-94230D01*
D02*
G37*
G36*
X150197Y-83344D02*
X149529Y-83432D01*
X148906Y-83690D01*
X148372Y-84100D01*
X147961Y-84635D01*
X147704Y-85257D01*
X147616Y-85925D01*
X147704Y-86593D01*
X147961Y-87216D01*
X148372Y-87750D01*
X148906Y-88161D01*
X149529Y-88418D01*
X149609Y-88429D01*
Y-88933D01*
X149529Y-88944D01*
X148906Y-89202D01*
X148372Y-89612D01*
X147961Y-90146D01*
X147704Y-90769D01*
X147616Y-91437D01*
X147704Y-92105D01*
X147961Y-92728D01*
X148372Y-93262D01*
X148906Y-93672D01*
X149529Y-93930D01*
X149609Y-93941D01*
Y-94445D01*
X149529Y-94456D01*
X148906Y-94713D01*
X148372Y-95124D01*
X147961Y-95658D01*
X147704Y-96281D01*
X147616Y-96949D01*
X147704Y-97617D01*
X147961Y-98239D01*
X148372Y-98774D01*
X148906Y-99184D01*
X149529Y-99442D01*
X150197Y-99530D01*
X150865Y-99442D01*
X151487Y-99184D01*
X152022Y-98774D01*
X152432Y-98239D01*
X152690Y-97617D01*
X152765Y-97051D01*
X152894Y-96877D01*
X153244Y-96660D01*
X153740Y-96725D01*
X154408Y-96637D01*
X155031Y-96379D01*
X155565Y-95969D01*
X155975Y-95434D01*
X156233Y-94812D01*
X156321Y-94144D01*
X156233Y-93476D01*
X155975Y-92853D01*
X155565Y-92319D01*
X155031Y-91908D01*
X154460Y-91672D01*
X154408Y-91517D01*
Y-91308D01*
X154460Y-91153D01*
X155031Y-90916D01*
X155565Y-90506D01*
X155975Y-89972D01*
X156233Y-89349D01*
X156321Y-88681D01*
X156233Y-88013D01*
X155975Y-87391D01*
X155565Y-86856D01*
X155031Y-86446D01*
X154408Y-86188D01*
X153740Y-86100D01*
X153251Y-86164D01*
X152931Y-86002D01*
X152758Y-85777D01*
X152690Y-85257D01*
X152432Y-84635D01*
X152022Y-84100D01*
X151487Y-83690D01*
X150865Y-83432D01*
X150197Y-83344D01*
D02*
G37*
G36*
X290551Y-95057D02*
X289883Y-95145D01*
X289261Y-95402D01*
X288726Y-95813D01*
X288316Y-96347D01*
X288058Y-96970D01*
X288047Y-97050D01*
X287543D01*
X287532Y-96970D01*
X287275Y-96347D01*
X286864Y-95813D01*
X286330Y-95402D01*
X285707Y-95145D01*
X285039Y-95057D01*
X284371Y-95145D01*
X283749Y-95402D01*
X283214Y-95813D01*
X282804Y-96347D01*
X282546Y-96970D01*
X282458Y-97638D01*
X282546Y-98306D01*
X282804Y-98928D01*
X283214Y-99463D01*
X283749Y-99873D01*
X284371Y-100131D01*
X285039Y-100219D01*
X285707Y-100131D01*
X286330Y-99873D01*
X286864Y-99463D01*
X287275Y-98928D01*
X287532Y-98306D01*
X287543Y-98226D01*
X288047D01*
X288058Y-98306D01*
X288316Y-98928D01*
X288726Y-99463D01*
X289261Y-99873D01*
X289883Y-100131D01*
X290551Y-100219D01*
X291219Y-100131D01*
X291842Y-99873D01*
X292376Y-99463D01*
X292787Y-98928D01*
X293044Y-98306D01*
X293132Y-97638D01*
X293044Y-96970D01*
X292787Y-96347D01*
X292376Y-95813D01*
X291842Y-95402D01*
X291219Y-95145D01*
X290551Y-95057D01*
D02*
G37*
G36*
X236947Y-92361D02*
X236279Y-92449D01*
X235657Y-92707D01*
X235122Y-93117D01*
X234712Y-93652D01*
X234454Y-94274D01*
X234366Y-94943D01*
X234454Y-95611D01*
X234712Y-96233D01*
X235122Y-96768D01*
X235657Y-97178D01*
X236279Y-97436D01*
X236947Y-97524D01*
X237615Y-97436D01*
X238238Y-97178D01*
X238772Y-96768D01*
X239182Y-96233D01*
X239440Y-95611D01*
X239528Y-94943D01*
X239440Y-94274D01*
X239182Y-93652D01*
X238772Y-93117D01*
X238238Y-92707D01*
X237615Y-92449D01*
X236947Y-92361D01*
D02*
G37*
G36*
X73093Y-95715D02*
X71268D01*
Y-97540D01*
X71696Y-97455D01*
X72482Y-96930D01*
X73008Y-96143D01*
X73093Y-95715D01*
D02*
G37*
G36*
X70268D02*
X68443D01*
X68528Y-96143D01*
X69053Y-96930D01*
X69840Y-97455D01*
X70268Y-97540D01*
Y-95715D01*
D02*
G37*
G36*
X276931Y-97055D02*
X275106D01*
Y-98880D01*
X275534Y-98795D01*
X276321Y-98269D01*
X276846Y-97483D01*
X276931Y-97055D01*
D02*
G37*
G36*
X274106D02*
X272281D01*
X272366Y-97483D01*
X272892Y-98269D01*
X273678Y-98795D01*
X274106Y-98880D01*
Y-97055D01*
D02*
G37*
G36*
X269057D02*
X267232D01*
Y-98880D01*
X267660Y-98795D01*
X268447Y-98269D01*
X268972Y-97483D01*
X269057Y-97055D01*
D02*
G37*
G36*
X266232D02*
X264407D01*
X264492Y-97483D01*
X265018Y-98269D01*
X265804Y-98795D01*
X266232Y-98880D01*
Y-97055D01*
D02*
G37*
G36*
X261183D02*
X259358D01*
Y-98880D01*
X259786Y-98795D01*
X260573Y-98269D01*
X261098Y-97483D01*
X261183Y-97055D01*
D02*
G37*
G36*
X258358D02*
X256533D01*
X256618Y-97483D01*
X257144Y-98269D01*
X257930Y-98795D01*
X258358Y-98880D01*
Y-97055D01*
D02*
G37*
G36*
X331012Y-97281D02*
Y-99106D01*
X332837D01*
X332752Y-98678D01*
X332226Y-97892D01*
X331440Y-97366D01*
X331012Y-97281D01*
D02*
G37*
G36*
X330012D02*
X329584Y-97366D01*
X328797Y-97892D01*
X328272Y-98678D01*
X328187Y-99106D01*
X330012D01*
Y-97281D01*
D02*
G37*
G36*
X237508Y-98856D02*
Y-100681D01*
X239333D01*
X239248Y-100253D01*
X238722Y-99467D01*
X237936Y-98941D01*
X237508Y-98856D01*
D02*
G37*
G36*
X236508D02*
X236080Y-98941D01*
X235294Y-99467D01*
X234768Y-100253D01*
X234683Y-100681D01*
X236508D01*
Y-98856D01*
D02*
G37*
G36*
X332837Y-100106D02*
X331012D01*
Y-101931D01*
X331440Y-101846D01*
X332226Y-101321D01*
X332752Y-100534D01*
X332837Y-100106D01*
D02*
G37*
G36*
X330012D02*
X328187D01*
X328272Y-100534D01*
X328797Y-101321D01*
X329584Y-101846D01*
X330012Y-101931D01*
Y-100106D01*
D02*
G37*
G36*
X112705Y-101021D02*
Y-102847D01*
X114530D01*
X114445Y-102419D01*
X113919Y-101632D01*
X113133Y-101107D01*
X112705Y-101021D01*
D02*
G37*
G36*
X111705D02*
X111277Y-101107D01*
X110490Y-101632D01*
X109965Y-102419D01*
X109880Y-102847D01*
X111705D01*
Y-101021D01*
D02*
G37*
G36*
X91929Y-98009D02*
X91261Y-98097D01*
X90639Y-98355D01*
X90104Y-98765D01*
X89694Y-99300D01*
X89436Y-99923D01*
X89348Y-100591D01*
X89436Y-101259D01*
X89694Y-101881D01*
X90104Y-102416D01*
X90639Y-102826D01*
X91261Y-103084D01*
X91929Y-103172D01*
X92597Y-103084D01*
X93220Y-102826D01*
X93754Y-102416D01*
X94164Y-101881D01*
X94422Y-101259D01*
X94510Y-100591D01*
X94422Y-99923D01*
X94164Y-99300D01*
X93754Y-98765D01*
X93220Y-98355D01*
X92597Y-98097D01*
X91929Y-98009D01*
D02*
G37*
G36*
X239333Y-101681D02*
X237508D01*
Y-103506D01*
X237936Y-103421D01*
X238722Y-102895D01*
X239248Y-102109D01*
X239333Y-101681D01*
D02*
G37*
G36*
X236508D02*
X234683D01*
X234768Y-102109D01*
X235294Y-102895D01*
X236080Y-103421D01*
X236508Y-103506D01*
Y-101681D01*
D02*
G37*
G36*
X354823Y-101531D02*
X353487Y-101707D01*
X352242Y-102222D01*
X351173Y-103043D01*
X350352Y-104112D01*
X350152Y-104596D01*
X349652D01*
X349451Y-104112D01*
X348631Y-103043D01*
X347562Y-102222D01*
X346316Y-101707D01*
X344980Y-101531D01*
X343644Y-101707D01*
X342399Y-102222D01*
X341330Y-103043D01*
X340510Y-104112D01*
X339994Y-105357D01*
X339818Y-106693D01*
X339994Y-108029D01*
X340510Y-109274D01*
X341330Y-110343D01*
X342399Y-111164D01*
X343644Y-111679D01*
X344980Y-111855D01*
X346316Y-111679D01*
X347562Y-111164D01*
X348631Y-110343D01*
X349451Y-109274D01*
X349652Y-108790D01*
X350152D01*
X350352Y-109274D01*
X351173Y-110343D01*
X352242Y-111164D01*
X353487Y-111679D01*
X354823Y-111855D01*
X356159Y-111679D01*
X357404Y-111164D01*
X358473Y-110343D01*
X359294Y-109274D01*
X359809Y-108029D01*
X359985Y-106693D01*
X359809Y-105357D01*
X359294Y-104112D01*
X358473Y-103043D01*
X357404Y-102222D01*
X356159Y-101707D01*
X354823Y-101531D01*
D02*
G37*
G36*
X147828Y-103361D02*
Y-105186D01*
X149653D01*
X149568Y-104758D01*
X149043Y-103972D01*
X148256Y-103446D01*
X147828Y-103361D01*
D02*
G37*
G36*
X146828D02*
X146400Y-103446D01*
X145614Y-103972D01*
X145088Y-104758D01*
X145003Y-105186D01*
X146828D01*
Y-103361D01*
D02*
G37*
G36*
X100001Y-102144D02*
X99333Y-102232D01*
X98711Y-102490D01*
X98176Y-102900D01*
X97766Y-103435D01*
X97508Y-104057D01*
X97420Y-104725D01*
X97453Y-104975D01*
X97099Y-105329D01*
X96854Y-105297D01*
X96186Y-105385D01*
X95564Y-105642D01*
X95029Y-106053D01*
X94619Y-106587D01*
X94361Y-107210D01*
X94273Y-107878D01*
X94361Y-108546D01*
X94619Y-109168D01*
X95029Y-109703D01*
X95564Y-110113D01*
X96186Y-110371D01*
X96250Y-110379D01*
Y-110884D01*
X96182Y-110893D01*
X95560Y-111151D01*
X95025Y-111561D01*
X94615Y-112095D01*
X94357Y-112718D01*
X94269Y-113386D01*
X94357Y-114054D01*
X94615Y-114676D01*
X95025Y-115211D01*
X95560Y-115621D01*
X96182Y-115879D01*
X96850Y-115967D01*
X97340Y-115902D01*
X97660Y-116065D01*
X97832Y-116290D01*
X97900Y-116810D01*
X98158Y-117432D01*
X98569Y-117967D01*
X99103Y-118377D01*
X99726Y-118635D01*
X100394Y-118723D01*
X101062Y-118635D01*
X101684Y-118377D01*
X102219Y-117967D01*
X102629Y-117432D01*
X102887Y-116810D01*
X102975Y-116142D01*
X102887Y-115474D01*
X102629Y-114851D01*
X102219Y-114317D01*
X101684Y-113906D01*
X101062Y-113649D01*
X100981Y-113638D01*
Y-113134D01*
X101062Y-113123D01*
X101684Y-112865D01*
X102219Y-112455D01*
X102629Y-111920D01*
X102887Y-111298D01*
X102975Y-110630D01*
X102887Y-109962D01*
X102629Y-109339D01*
X102219Y-108805D01*
X101684Y-108395D01*
X101062Y-108137D01*
X100394Y-108049D01*
X99909Y-108113D01*
X99695Y-108007D01*
X99612Y-107725D01*
X99989Y-107305D01*
X100001Y-107307D01*
X100669Y-107219D01*
X101292Y-106961D01*
X101826Y-106551D01*
X102236Y-106016D01*
X102494Y-105394D01*
X102582Y-104725D01*
X102494Y-104057D01*
X102236Y-103435D01*
X101826Y-102900D01*
X101292Y-102490D01*
X100669Y-102232D01*
X100001Y-102144D01*
D02*
G37*
G36*
X149653Y-106186D02*
X147828D01*
Y-108011D01*
X148256Y-107926D01*
X149043Y-107401D01*
X149568Y-106614D01*
X149653Y-106186D01*
D02*
G37*
G36*
X146828D02*
X145003D01*
X145088Y-106614D01*
X145614Y-107401D01*
X146400Y-107926D01*
X146828Y-108011D01*
Y-106186D01*
D02*
G37*
G36*
X267492Y-106816D02*
X267203Y-106936D01*
X266982Y-107158D01*
X266862Y-107447D01*
Y-107760D01*
X266982Y-108050D01*
X267203Y-108271D01*
X267492Y-108391D01*
X269421D01*
X269421Y-108391D01*
X269421Y-108391D01*
X269422Y-108391D01*
X269872Y-108493D01*
X270186Y-108624D01*
X270566Y-109004D01*
X270772Y-109500D01*
X270799Y-109769D01*
X270799Y-112603D01*
X270861Y-112917D01*
X270983Y-113212D01*
X271161Y-113478D01*
X275253Y-117570D01*
X275253Y-117570D01*
X275579Y-117930D01*
X276119Y-118738D01*
X276491Y-119635D01*
X276680Y-120588D01*
X276704Y-121074D01*
X276704Y-124927D01*
X276704Y-124927D01*
X276685Y-125313D01*
X276535Y-126069D01*
X276239Y-126783D01*
X275811Y-127424D01*
X275265Y-127970D01*
X274623Y-128399D01*
X273910Y-128694D01*
X273153Y-128845D01*
X272767Y-128864D01*
X255444D01*
X255174Y-128850D01*
X254644Y-128745D01*
X254145Y-128538D01*
X253696Y-128238D01*
X253314Y-127856D01*
X253014Y-127407D01*
X252807Y-126908D01*
X252702Y-126378D01*
X252688Y-126108D01*
Y-122605D01*
X253188Y-122556D01*
X253272Y-122975D01*
X253797Y-123762D01*
X254584Y-124287D01*
X255012Y-124372D01*
Y-122047D01*
Y-119722D01*
X254584Y-119807D01*
X253797Y-120333D01*
X253272Y-121119D01*
X253188Y-121539D01*
X252688Y-121490D01*
Y-121234D01*
X252710Y-120804D01*
X252877Y-119959D01*
X253207Y-119164D01*
X253685Y-118448D01*
X253975Y-118128D01*
X257421Y-114682D01*
X257421Y-114682D01*
X257421Y-114682D01*
X257793Y-114310D01*
X258379Y-113434D01*
X258782Y-112460D01*
X258988Y-111427D01*
X258988Y-110900D01*
X258988Y-109179D01*
X258988Y-109179D01*
Y-109179D01*
X258988Y-109176D01*
X259126Y-108736D01*
X259337Y-108524D01*
X259621Y-108406D01*
X259775Y-108391D01*
X261743Y-108391D01*
X261743Y-108391D01*
X261881Y-108365D01*
X262123Y-108223D01*
X262123Y-108223D01*
X262163Y-108175D01*
X262302Y-108008D01*
X262397Y-107744D01*
X262397Y-107464D01*
X262302Y-107200D01*
X262123Y-106984D01*
X261881Y-106842D01*
X261743Y-106816D01*
X258397Y-106816D01*
X258397Y-106816D01*
X258201Y-106816D01*
X257839Y-106966D01*
X257563Y-107243D01*
X257413Y-107605D01*
X257413Y-107801D01*
Y-109828D01*
X257413Y-109828D01*
X257379Y-110513D01*
X257112Y-111856D01*
X256588Y-113121D01*
X255827Y-114260D01*
X255367Y-114768D01*
X252006Y-118128D01*
X252006Y-118128D01*
X251794Y-118341D01*
X251461Y-118840D01*
X251231Y-119395D01*
X251114Y-119983D01*
Y-126501D01*
X251114Y-126889D01*
X251265Y-127650D01*
X251562Y-128366D01*
X251993Y-129011D01*
X252541Y-129560D01*
X253186Y-129990D01*
X253902Y-130287D01*
X254663Y-130438D01*
X255051Y-130438D01*
X273161D01*
X273665Y-130438D01*
X274654Y-130242D01*
X275585Y-129856D01*
X276424Y-129296D01*
X277136Y-128583D01*
X277697Y-127745D01*
X278082Y-126813D01*
X278279Y-125824D01*
X278279Y-125320D01*
X278279Y-122151D01*
X278279D01*
X278279Y-122151D01*
X278279Y-121313D01*
X277952Y-119670D01*
X277311Y-118122D01*
X276380Y-116728D01*
X273242Y-113591D01*
X273242Y-113591D01*
Y-113591D01*
X272940Y-113216D01*
X272724Y-112892D01*
X272501Y-112354D01*
X272388Y-111784D01*
X272374Y-111493D01*
Y-108391D01*
X272374Y-108391D01*
X272374Y-108391D01*
X272373Y-108390D01*
X272373Y-108078D01*
X272313Y-107933D01*
X272134Y-107499D01*
X271691Y-107056D01*
X271112Y-106816D01*
X270799Y-106816D01*
X267492Y-106816D01*
D02*
G37*
G36*
X241339Y-106474D02*
X240670Y-106562D01*
X240048Y-106820D01*
X239513Y-107230D01*
X239103Y-107764D01*
X238845Y-108387D01*
X238791Y-108796D01*
X238643Y-109091D01*
X238273Y-109205D01*
X237898Y-109156D01*
X237230Y-109244D01*
X236607Y-109502D01*
X236072Y-109912D01*
X235662Y-110447D01*
X235404Y-111069D01*
X235316Y-111737D01*
X235404Y-112405D01*
X235662Y-113028D01*
X236072Y-113562D01*
X236607Y-113972D01*
X237230Y-114230D01*
X237539Y-114271D01*
Y-114775D01*
X237127Y-114830D01*
X236505Y-115087D01*
X235970Y-115498D01*
X235560Y-116032D01*
X235302Y-116655D01*
X235214Y-117323D01*
X235302Y-117991D01*
X235560Y-118613D01*
X235970Y-119148D01*
X236505Y-119558D01*
X237127Y-119816D01*
X237795Y-119904D01*
X238463Y-119816D01*
X239086Y-119558D01*
X239620Y-119148D01*
X240031Y-118613D01*
X240288Y-117991D01*
X240357Y-117471D01*
X240529Y-117246D01*
X240849Y-117084D01*
X241339Y-117148D01*
X242007Y-117060D01*
X242629Y-116802D01*
X243164Y-116392D01*
X243574Y-115858D01*
X243832Y-115235D01*
X243920Y-114567D01*
X243832Y-113899D01*
X243574Y-113276D01*
X243164Y-112742D01*
X242629Y-112332D01*
X242007Y-112074D01*
X241926Y-112063D01*
Y-111559D01*
X242007Y-111548D01*
X242629Y-111290D01*
X243164Y-110880D01*
X243574Y-110346D01*
X243832Y-109723D01*
X243920Y-109055D01*
X243832Y-108387D01*
X243574Y-107764D01*
X243164Y-107230D01*
X242629Y-106820D01*
X242007Y-106562D01*
X241339Y-106474D01*
D02*
G37*
G36*
X293118Y-107616D02*
Y-109441D01*
X294943D01*
X294858Y-109013D01*
X294333Y-108227D01*
X293546Y-107701D01*
X293118Y-107616D01*
D02*
G37*
G36*
X292118D02*
X291690Y-107701D01*
X290904Y-108227D01*
X290378Y-109013D01*
X290293Y-109441D01*
X292118D01*
Y-107616D01*
D02*
G37*
G36*
X324114Y-108147D02*
X323446Y-108235D01*
X322824Y-108493D01*
X322289Y-108903D01*
X321879Y-109438D01*
X321833Y-109548D01*
X321560Y-109579D01*
X321294Y-109543D01*
X320809Y-108817D01*
X320022Y-108291D01*
X319595Y-108206D01*
Y-110531D01*
Y-112857D01*
X320022Y-112771D01*
X320809Y-112246D01*
X321193Y-111670D01*
X321754Y-111718D01*
X321879Y-112019D01*
X322289Y-112554D01*
X322824Y-112964D01*
X323446Y-113222D01*
X324114Y-113310D01*
X324782Y-113222D01*
X325405Y-112964D01*
X325939Y-112554D01*
X326349Y-112019D01*
X326607Y-111396D01*
X326695Y-110728D01*
X326607Y-110060D01*
X326349Y-109438D01*
X325939Y-108903D01*
X325405Y-108493D01*
X324782Y-108235D01*
X324114Y-108147D01*
D02*
G37*
G36*
X307283Y-99486D02*
X306615Y-99574D01*
X305993Y-99832D01*
X305458Y-100242D01*
X305048Y-100776D01*
X304790Y-101399D01*
X304702Y-102067D01*
X304790Y-102735D01*
X305048Y-103358D01*
X305458Y-103892D01*
X305993Y-104302D01*
X306240Y-104405D01*
Y-104946D01*
X305993Y-105048D01*
X305458Y-105458D01*
X305048Y-105993D01*
X304790Y-106615D01*
X304702Y-107283D01*
X304790Y-107951D01*
X305048Y-108574D01*
X305458Y-109109D01*
X305993Y-109519D01*
X306615Y-109777D01*
X307283Y-109865D01*
X307951Y-109777D01*
X308574Y-109519D01*
X309109Y-109109D01*
X309519Y-108574D01*
X309777Y-107951D01*
X309865Y-107283D01*
X309777Y-106615D01*
X309519Y-105993D01*
X309109Y-105458D01*
X308574Y-105048D01*
X308327Y-104946D01*
Y-104405D01*
X308574Y-104302D01*
X309109Y-103892D01*
X309519Y-103358D01*
X309777Y-102735D01*
X309865Y-102067D01*
X309777Y-101399D01*
X309519Y-100776D01*
X309109Y-100242D01*
X308574Y-99832D01*
X307951Y-99574D01*
X307283Y-99486D01*
D02*
G37*
G36*
X318595Y-108206D02*
X318167Y-108291D01*
X317380Y-108817D01*
X316855Y-109604D01*
X316769Y-110031D01*
X318595D01*
Y-108206D01*
D02*
G37*
G36*
X294943Y-110441D02*
X293118D01*
Y-112266D01*
X293546Y-112181D01*
X294333Y-111655D01*
X294858Y-110869D01*
X294943Y-110441D01*
D02*
G37*
G36*
X292118D02*
X290293D01*
X290378Y-110869D01*
X290904Y-111655D01*
X291690Y-112181D01*
X292118Y-112266D01*
Y-110441D01*
D02*
G37*
G36*
X304339Y-110470D02*
Y-112295D01*
X306164D01*
X306079Y-111867D01*
X305553Y-111081D01*
X304766Y-110555D01*
X304339Y-110470D01*
D02*
G37*
G36*
X303339D02*
X302911Y-110555D01*
X302124Y-111081D01*
X301599Y-111867D01*
X301514Y-112295D01*
X303339D01*
Y-110470D01*
D02*
G37*
G36*
X174508Y-110706D02*
X173840Y-110794D01*
X173217Y-111052D01*
X172683Y-111462D01*
X172273Y-111997D01*
X172015Y-112619D01*
X172004Y-112700D01*
X171500D01*
X171489Y-112619D01*
X171231Y-111997D01*
X170821Y-111462D01*
X170287Y-111052D01*
X169664Y-110794D01*
X168996Y-110706D01*
X168328Y-110794D01*
X167706Y-111052D01*
X167171Y-111462D01*
X166761Y-111997D01*
X166503Y-112619D01*
X166415Y-113287D01*
X166503Y-113955D01*
X166761Y-114578D01*
X167171Y-115112D01*
X167706Y-115523D01*
X168328Y-115781D01*
X168848Y-115849D01*
X169073Y-116021D01*
X169235Y-116341D01*
X169171Y-116831D01*
X169259Y-117499D01*
X169517Y-118121D01*
X169927Y-118656D01*
X170461Y-119066D01*
X171084Y-119324D01*
X171752Y-119412D01*
X172420Y-119324D01*
X173043Y-119066D01*
X173577Y-118656D01*
X173987Y-118121D01*
X174197Y-117616D01*
X174577Y-117561D01*
X174726Y-117589D01*
X174889Y-117980D01*
X175299Y-118515D01*
X175833Y-118925D01*
X176456Y-119183D01*
X177124Y-119271D01*
X177792Y-119183D01*
X178415Y-118925D01*
X178949Y-118515D01*
X179359Y-117980D01*
X179617Y-117358D01*
X179705Y-116690D01*
X179617Y-116022D01*
X179359Y-115399D01*
X178949Y-114865D01*
X178415Y-114454D01*
X177792Y-114197D01*
X177460Y-114153D01*
X177107Y-114001D01*
X177046Y-113615D01*
X177089Y-113287D01*
X177001Y-112619D01*
X176743Y-111997D01*
X176333Y-111462D01*
X175798Y-111052D01*
X175176Y-110794D01*
X174508Y-110706D01*
D02*
G37*
G36*
X318595Y-111031D02*
X316769D01*
X316855Y-111459D01*
X317380Y-112246D01*
X318167Y-112771D01*
X318595Y-112857D01*
Y-111031D01*
D02*
G37*
G36*
X248925Y-111848D02*
Y-113673D01*
X250750D01*
X250665Y-113245D01*
X250140Y-112459D01*
X249353Y-111933D01*
X248925Y-111848D01*
D02*
G37*
G36*
X247925D02*
X247497Y-111933D01*
X246711Y-112459D01*
X246185Y-113245D01*
X246100Y-113673D01*
X247925D01*
Y-111848D01*
D02*
G37*
G36*
X306164Y-113295D02*
X304339D01*
Y-115120D01*
X304766Y-115035D01*
X305553Y-114510D01*
X306079Y-113723D01*
X306164Y-113295D01*
D02*
G37*
G36*
X303339D02*
X301514D01*
X301599Y-113723D01*
X302124Y-114510D01*
X302911Y-115035D01*
X303339Y-115120D01*
Y-113295D01*
D02*
G37*
G36*
X250750Y-114673D02*
X248925D01*
Y-116498D01*
X249353Y-116413D01*
X250140Y-115888D01*
X250665Y-115101D01*
X250750Y-114673D01*
D02*
G37*
G36*
X247925D02*
X246100D01*
X246185Y-115101D01*
X246711Y-115888D01*
X247497Y-116413D01*
X247925Y-116498D01*
Y-114673D01*
D02*
G37*
G36*
X285433Y-111592D02*
X284765Y-111680D01*
X284142Y-111938D01*
X283608Y-112348D01*
X283198Y-112883D01*
X282940Y-113505D01*
X282852Y-114173D01*
X282940Y-114841D01*
X283198Y-115464D01*
X283608Y-115998D01*
X284142Y-116409D01*
X284765Y-116666D01*
X285433Y-116754D01*
X286101Y-116666D01*
X286724Y-116409D01*
X287258Y-115998D01*
X287668Y-115464D01*
X287926Y-114841D01*
X288014Y-114173D01*
X287926Y-113505D01*
X287668Y-112883D01*
X287258Y-112348D01*
X286724Y-111938D01*
X286101Y-111680D01*
X285433Y-111592D01*
D02*
G37*
G36*
X354823Y-115310D02*
X353487Y-115486D01*
X352242Y-116002D01*
X351173Y-116822D01*
X350352Y-117891D01*
X350152Y-118376D01*
X349652D01*
X349451Y-117891D01*
X348631Y-116822D01*
X347561Y-116002D01*
X346316Y-115486D01*
X344980Y-115310D01*
X343644Y-115486D01*
X342399Y-116002D01*
X341330Y-116822D01*
X340510Y-117891D01*
X339994Y-119136D01*
X339818Y-120472D01*
X339994Y-121809D01*
X340510Y-123054D01*
X341330Y-124123D01*
X342399Y-124943D01*
X343644Y-125459D01*
X344980Y-125635D01*
X346316Y-125459D01*
X347561Y-124943D01*
X348631Y-124123D01*
X349451Y-123054D01*
X349652Y-122569D01*
X350152D01*
X350352Y-123054D01*
X351173Y-124123D01*
X352242Y-124943D01*
X353487Y-125459D01*
X354823Y-125635D01*
X356159Y-125459D01*
X357404Y-124943D01*
X358473Y-124123D01*
X359294Y-123054D01*
X359809Y-121809D01*
X359985Y-120472D01*
X359809Y-119136D01*
X359294Y-117891D01*
X358473Y-116822D01*
X357404Y-116002D01*
X356159Y-115486D01*
X354823Y-115310D01*
D02*
G37*
G36*
X70529Y-117469D02*
Y-119294D01*
X72354D01*
X72269Y-118866D01*
X71743Y-118079D01*
X70957Y-117554D01*
X70529Y-117469D01*
D02*
G37*
G36*
X69529D02*
X69101Y-117554D01*
X68314Y-118079D01*
X67789Y-118866D01*
X67704Y-119294D01*
X69529D01*
Y-117469D01*
D02*
G37*
G36*
X155217Y-114742D02*
X154549Y-114830D01*
X153926Y-115087D01*
X153391Y-115498D01*
X152981Y-116032D01*
X152723Y-116655D01*
X152635Y-117323D01*
X152723Y-117991D01*
X152981Y-118613D01*
X153391Y-119148D01*
X153926Y-119558D01*
X154549Y-119816D01*
X155217Y-119904D01*
X155885Y-119816D01*
X156507Y-119558D01*
X157042Y-119148D01*
X157452Y-118613D01*
X157710Y-117991D01*
X157798Y-117323D01*
X157710Y-116655D01*
X157452Y-116032D01*
X157042Y-115498D01*
X156507Y-115087D01*
X155885Y-114830D01*
X155217Y-114742D01*
D02*
G37*
G36*
X274122Y-118549D02*
Y-120374D01*
X275947D01*
X275862Y-119946D01*
X275337Y-119160D01*
X274550Y-118634D01*
X274122Y-118549D01*
D02*
G37*
G36*
X273122D02*
X272694Y-118634D01*
X271908Y-119160D01*
X271382Y-119946D01*
X271297Y-120374D01*
X273122D01*
Y-118549D01*
D02*
G37*
G36*
X130421Y-118716D02*
Y-120541D01*
X132246D01*
X132161Y-120113D01*
X131636Y-119326D01*
X130849Y-118801D01*
X130421Y-118716D01*
D02*
G37*
G36*
X129421D02*
X128993Y-118801D01*
X128207Y-119326D01*
X127681Y-120113D01*
X127596Y-120541D01*
X129421D01*
Y-118716D01*
D02*
G37*
G36*
X256012Y-119722D02*
Y-121547D01*
X257837D01*
X257752Y-121119D01*
X257226Y-120333D01*
X256440Y-119807D01*
X256012Y-119722D01*
D02*
G37*
G36*
X72354Y-120294D02*
X70529D01*
Y-122119D01*
X70957Y-122034D01*
X71743Y-121508D01*
X72269Y-120721D01*
X72354Y-120294D01*
D02*
G37*
G36*
X69529D02*
X67704D01*
X67789Y-120721D01*
X68314Y-121508D01*
X69101Y-122034D01*
X69529Y-122119D01*
Y-120294D01*
D02*
G37*
G36*
X275947Y-121374D02*
X274122D01*
Y-123199D01*
X274550Y-123114D01*
X275337Y-122588D01*
X275862Y-121802D01*
X275947Y-121374D01*
D02*
G37*
G36*
X273122D02*
X271297D01*
X271382Y-121802D01*
X271908Y-122588D01*
X272694Y-123114D01*
X273122Y-123199D01*
Y-121374D01*
D02*
G37*
G36*
X132246Y-121541D02*
X130421D01*
Y-123366D01*
X130849Y-123281D01*
X131636Y-122755D01*
X132161Y-121969D01*
X132246Y-121541D01*
D02*
G37*
G36*
X129421D02*
X127596D01*
X127681Y-121969D01*
X128207Y-122755D01*
X128993Y-123281D01*
X129421Y-123366D01*
Y-121541D01*
D02*
G37*
G36*
X124016Y-118679D02*
X123348Y-118767D01*
X122725Y-119025D01*
X122191Y-119435D01*
X121780Y-119969D01*
X121523Y-120592D01*
X121435Y-121260D01*
X121523Y-121928D01*
X121780Y-122550D01*
X122191Y-123085D01*
X122725Y-123495D01*
X123348Y-123753D01*
X124016Y-123841D01*
X124684Y-123753D01*
X125306Y-123495D01*
X125841Y-123085D01*
X126251Y-122550D01*
X126509Y-121928D01*
X126597Y-121260D01*
X126509Y-120592D01*
X126251Y-119969D01*
X125841Y-119435D01*
X125306Y-119025D01*
X124684Y-118767D01*
X124016Y-118679D01*
D02*
G37*
G36*
X257837Y-122547D02*
X256012D01*
Y-124372D01*
X256440Y-124287D01*
X257226Y-123762D01*
X257752Y-122975D01*
X257837Y-122547D01*
D02*
G37*
G36*
X284449Y-121041D02*
X283781Y-121129D01*
X283158Y-121387D01*
X282624Y-121797D01*
X282213Y-122332D01*
X281956Y-122954D01*
X281868Y-123622D01*
X281956Y-124290D01*
X282213Y-124913D01*
X282624Y-125447D01*
X283158Y-125857D01*
X283781Y-126115D01*
X284449Y-126203D01*
X285117Y-126115D01*
X285739Y-125857D01*
X286274Y-125447D01*
X286684Y-124913D01*
X286942Y-124290D01*
X287030Y-123622D01*
X286942Y-122954D01*
X286684Y-122332D01*
X286274Y-121797D01*
X285739Y-121387D01*
X285117Y-121129D01*
X284449Y-121041D01*
D02*
G37*
G36*
X139764Y-125765D02*
X139096Y-125853D01*
X138473Y-126111D01*
X137939Y-126521D01*
X137702Y-126830D01*
X137685Y-126839D01*
X137119D01*
X137101Y-126830D01*
X136864Y-126521D01*
X136330Y-126111D01*
X135707Y-125853D01*
X135039Y-125765D01*
X134371Y-125853D01*
X133749Y-126111D01*
X133214Y-126521D01*
X132804Y-127056D01*
X132546Y-127678D01*
X132458Y-128347D01*
X132546Y-129015D01*
X132804Y-129637D01*
X133214Y-130172D01*
X133749Y-130582D01*
X134371Y-130840D01*
X135039Y-130928D01*
X135707Y-130840D01*
X136330Y-130582D01*
X136864Y-130172D01*
X137101Y-129863D01*
X137119Y-129854D01*
X137685D01*
X137702Y-129863D01*
X137939Y-130172D01*
X138473Y-130582D01*
X139096Y-130840D01*
X139764Y-130928D01*
X140432Y-130840D01*
X141054Y-130582D01*
X141589Y-130172D01*
X141999Y-129637D01*
X142257Y-129015D01*
X142345Y-128347D01*
X142257Y-127678D01*
X141999Y-127056D01*
X141589Y-126521D01*
X141054Y-126111D01*
X140432Y-125853D01*
X139764Y-125765D01*
D02*
G37*
G36*
X292126Y-123895D02*
X291458Y-123983D01*
X290835Y-124241D01*
X290301Y-124651D01*
X289891Y-125186D01*
X289633Y-125808D01*
X289545Y-126476D01*
X289633Y-127144D01*
X289891Y-127767D01*
X290301Y-128302D01*
X290835Y-128712D01*
X291458Y-128970D01*
X292126Y-129058D01*
X292794Y-128970D01*
X293417Y-128712D01*
X293951Y-128302D01*
X294361Y-127767D01*
X294619Y-127144D01*
X294707Y-126476D01*
X294619Y-125808D01*
X294361Y-125186D01*
X293951Y-124651D01*
X293417Y-124241D01*
X292794Y-123983D01*
X292126Y-123895D01*
D02*
G37*
G36*
X344480Y-129338D02*
X343691Y-129442D01*
X342491Y-129939D01*
X341459Y-130731D01*
X340668Y-131762D01*
X340170Y-132963D01*
X340067Y-133752D01*
X344480D01*
Y-129338D01*
D02*
G37*
G36*
X355323Y-129338D02*
Y-133752D01*
X359737D01*
X359633Y-132963D01*
X359135Y-131762D01*
X358344Y-130731D01*
X357313Y-129939D01*
X356112Y-129442D01*
X355323Y-129338D01*
D02*
G37*
G36*
X218799Y-128620D02*
X218131Y-128708D01*
X217509Y-128965D01*
X216974Y-129376D01*
X216564Y-129910D01*
X216306Y-130533D01*
X216218Y-131201D01*
X216306Y-131869D01*
X216564Y-132491D01*
X216974Y-133026D01*
X217509Y-133436D01*
X218131Y-133694D01*
X218799Y-133782D01*
X219467Y-133694D01*
X220090Y-133436D01*
X220624Y-133026D01*
X221035Y-132491D01*
X221292Y-131869D01*
X221380Y-131201D01*
X221292Y-130533D01*
X221035Y-129910D01*
X220624Y-129376D01*
X220090Y-128965D01*
X219467Y-128708D01*
X218799Y-128620D01*
D02*
G37*
G36*
X224514Y-131754D02*
X223846Y-131842D01*
X223223Y-132100D01*
X222689Y-132510D01*
X222278Y-133045D01*
X222020Y-133667D01*
X221933Y-134335D01*
X222020Y-135003D01*
X222278Y-135626D01*
X222689Y-136160D01*
X223223Y-136571D01*
X223846Y-136828D01*
X224514Y-136916D01*
X225182Y-136828D01*
X225804Y-136571D01*
X226339Y-136160D01*
X226749Y-135626D01*
X227007Y-135003D01*
X227036Y-134781D01*
X227540D01*
X227571Y-135013D01*
X227829Y-135635D01*
X228239Y-136170D01*
X228773Y-136580D01*
X229396Y-136838D01*
X230064Y-136926D01*
X230732Y-136838D01*
X231355Y-136580D01*
X231889Y-136170D01*
X232299Y-135635D01*
X232557Y-135013D01*
X232594Y-134730D01*
X233099D01*
X233137Y-135018D01*
X233395Y-135641D01*
X233805Y-136176D01*
X234339Y-136586D01*
X234962Y-136844D01*
X235630Y-136932D01*
X236298Y-136844D01*
X236920Y-136586D01*
X237455Y-136176D01*
X237865Y-135641D01*
X238123Y-135018D01*
X238211Y-134350D01*
X238123Y-133682D01*
X237865Y-133060D01*
X237455Y-132525D01*
X236920Y-132115D01*
X236298Y-131857D01*
X235630Y-131769D01*
X234962Y-131857D01*
X234339Y-132115D01*
X233805Y-132525D01*
X233395Y-133060D01*
X233137Y-133682D01*
X233100Y-133965D01*
X232595D01*
X232557Y-133677D01*
X232299Y-133054D01*
X231889Y-132519D01*
X231355Y-132109D01*
X230732Y-131851D01*
X230064Y-131764D01*
X229396Y-131851D01*
X228773Y-132109D01*
X228239Y-132519D01*
X227829Y-133054D01*
X227571Y-133677D01*
X227542Y-133899D01*
X227037D01*
X227007Y-133667D01*
X226749Y-133045D01*
X226339Y-132510D01*
X225804Y-132100D01*
X225182Y-131842D01*
X224514Y-131754D01*
D02*
G37*
G36*
X70185Y-135864D02*
Y-137689D01*
X72010D01*
X71925Y-137261D01*
X71399Y-136475D01*
X70613Y-135949D01*
X70185Y-135864D01*
D02*
G37*
G36*
X69185D02*
X68757Y-135949D01*
X67971Y-136475D01*
X67445Y-137261D01*
X67360Y-137689D01*
X69185D01*
Y-135864D01*
D02*
G37*
G36*
X266812Y-132744D02*
X266144Y-132832D01*
X265521Y-133090D01*
X264987Y-133500D01*
X264577Y-134035D01*
X264319Y-134657D01*
X264231Y-135325D01*
X264319Y-135993D01*
X264577Y-136616D01*
X264987Y-137150D01*
X265521Y-137560D01*
X266144Y-137818D01*
X266812Y-137906D01*
X267480Y-137818D01*
X268102Y-137560D01*
X268637Y-137150D01*
X269047Y-136616D01*
X269305Y-135993D01*
X269393Y-135325D01*
X269305Y-134657D01*
X269047Y-134035D01*
X268637Y-133500D01*
X268102Y-133090D01*
X267480Y-132832D01*
X266812Y-132744D01*
D02*
G37*
G36*
X345480Y-129338D02*
Y-134252D01*
Y-139166D01*
X346269Y-139062D01*
X347470Y-138564D01*
X348501Y-137773D01*
X349293Y-136742D01*
X349631Y-135925D01*
X350172D01*
X350510Y-136742D01*
X351302Y-137773D01*
X352333Y-138564D01*
X353534Y-139062D01*
X354323Y-139166D01*
Y-134252D01*
Y-129338D01*
X353534Y-129442D01*
X352333Y-129939D01*
X351302Y-130731D01*
X350510Y-131762D01*
X350172Y-132579D01*
X349631D01*
X349293Y-131762D01*
X348501Y-130731D01*
X347470Y-129939D01*
X346269Y-129442D01*
X345480Y-129338D01*
D02*
G37*
G36*
X344480Y-134752D02*
X340067D01*
X340170Y-135541D01*
X340668Y-136742D01*
X341459Y-137773D01*
X342491Y-138564D01*
X343691Y-139062D01*
X344480Y-139166D01*
Y-134752D01*
D02*
G37*
G36*
X359737Y-134752D02*
X355323D01*
Y-139166D01*
X356112Y-139062D01*
X357313Y-138564D01*
X358344Y-137773D01*
X359135Y-136742D01*
X359633Y-135541D01*
X359737Y-134752D01*
D02*
G37*
G36*
X176953Y-137970D02*
X176285Y-138058D01*
X175662Y-138316D01*
X175128Y-138726D01*
X174717Y-139261D01*
X174529Y-139715D01*
X174009Y-139663D01*
X174001Y-139623D01*
X173476Y-138837D01*
X172689Y-138311D01*
X172262Y-138226D01*
Y-140551D01*
Y-142876D01*
X172689Y-142791D01*
X173476Y-142266D01*
X174001Y-141479D01*
X174009Y-141439D01*
X174529Y-141388D01*
X174717Y-141842D01*
X175128Y-142376D01*
X175662Y-142787D01*
X176285Y-143044D01*
X176953Y-143132D01*
X177621Y-143044D01*
X178243Y-142787D01*
X178778Y-142376D01*
X179188Y-141842D01*
X179446Y-141219D01*
X179534Y-140551D01*
X179446Y-139883D01*
X179188Y-139261D01*
X178778Y-138726D01*
X178243Y-138316D01*
X177621Y-138058D01*
X176953Y-137970D01*
D02*
G37*
G36*
X192035Y-138029D02*
Y-139854D01*
X193860D01*
X193775Y-139427D01*
X193250Y-138640D01*
X192463Y-138114D01*
X192035Y-138029D01*
D02*
G37*
G36*
X191035D02*
X190608Y-138114D01*
X189821Y-138640D01*
X189295Y-139427D01*
X189210Y-139854D01*
X191035D01*
Y-138029D01*
D02*
G37*
G36*
X146868D02*
Y-139854D01*
X148693D01*
X148608Y-139427D01*
X148082Y-138640D01*
X147296Y-138114D01*
X146868Y-138029D01*
D02*
G37*
G36*
X145868D02*
X145440Y-138114D01*
X144653Y-138640D01*
X144128Y-139427D01*
X144043Y-139854D01*
X145868D01*
Y-138029D01*
D02*
G37*
G36*
X171262Y-138226D02*
X170834Y-138311D01*
X170047Y-138837D01*
X169521Y-139623D01*
X169436Y-140051D01*
X171262D01*
Y-138226D01*
D02*
G37*
G36*
X161671Y-131513D02*
X161003Y-131601D01*
X160381Y-131859D01*
X159846Y-132269D01*
X159436Y-132804D01*
X159178Y-133426D01*
X159090Y-134094D01*
X159135Y-134431D01*
X158956Y-134846D01*
X158716Y-134936D01*
X158261Y-134996D01*
X157639Y-135254D01*
X157104Y-135664D01*
X156694Y-136198D01*
X156436Y-136821D01*
X156348Y-137489D01*
X156436Y-138157D01*
X156694Y-138779D01*
X157104Y-139314D01*
X157639Y-139724D01*
X158261Y-139982D01*
X158929Y-140070D01*
X159597Y-139982D01*
X160220Y-139724D01*
X160754Y-139314D01*
X161164Y-138779D01*
X161422Y-138157D01*
X161510Y-137489D01*
X161466Y-137153D01*
X161645Y-136737D01*
X161884Y-136647D01*
X162339Y-136587D01*
X162962Y-136329D01*
X163497Y-135919D01*
X163907Y-135385D01*
X164165Y-134762D01*
X164253Y-134094D01*
X164165Y-133426D01*
X163907Y-132804D01*
X163497Y-132269D01*
X162962Y-131859D01*
X162339Y-131601D01*
X161671Y-131513D01*
D02*
G37*
G36*
X251575Y-134919D02*
X250907Y-135007D01*
X250284Y-135265D01*
X249750Y-135675D01*
X249340Y-136209D01*
X249082Y-136832D01*
X248994Y-137500D01*
X249082Y-138168D01*
X249340Y-138791D01*
X249750Y-139325D01*
X250284Y-139735D01*
X250907Y-139993D01*
X251575Y-140081D01*
X252243Y-139993D01*
X252865Y-139735D01*
X253400Y-139325D01*
X253810Y-138791D01*
X254068Y-138168D01*
X254156Y-137500D01*
X254068Y-136832D01*
X253810Y-136209D01*
X253400Y-135675D01*
X252865Y-135265D01*
X252243Y-135007D01*
X251575Y-134919D01*
D02*
G37*
G36*
X331878Y-138524D02*
Y-140349D01*
X333703D01*
X333618Y-139922D01*
X333093Y-139135D01*
X332306Y-138610D01*
X331878Y-138524D01*
D02*
G37*
G36*
X330878D02*
X330451Y-138610D01*
X329664Y-139135D01*
X329138Y-139922D01*
X329053Y-140349D01*
X330878D01*
Y-138524D01*
D02*
G37*
G36*
X72010Y-138689D02*
X70185D01*
Y-140514D01*
X70613Y-140429D01*
X71399Y-139903D01*
X71925Y-139117D01*
X72010Y-138689D01*
D02*
G37*
G36*
X69185D02*
X67360D01*
X67445Y-139117D01*
X67971Y-139903D01*
X68757Y-140429D01*
X69185Y-140514D01*
Y-138689D01*
D02*
G37*
G36*
X193860Y-140854D02*
X192035D01*
Y-142679D01*
X192463Y-142594D01*
X193250Y-142069D01*
X193775Y-141282D01*
X193860Y-140854D01*
D02*
G37*
G36*
X191035D02*
X189210D01*
X189295Y-141282D01*
X189821Y-142069D01*
X190608Y-142594D01*
X191035Y-142679D01*
Y-140854D01*
D02*
G37*
G36*
X148693D02*
X146868D01*
Y-142679D01*
X147296Y-142594D01*
X148082Y-142069D01*
X148608Y-141282D01*
X148693Y-140854D01*
D02*
G37*
G36*
X145868D02*
X144043D01*
X144128Y-141282D01*
X144653Y-142069D01*
X145440Y-142594D01*
X145868Y-142679D01*
Y-140854D01*
D02*
G37*
G36*
X182734Y-137576D02*
X182066Y-137664D01*
X181444Y-137922D01*
X180909Y-138332D01*
X180499Y-138867D01*
X180241Y-139489D01*
X180153Y-140157D01*
X180241Y-140825D01*
X180499Y-141448D01*
X180909Y-141983D01*
X181444Y-142393D01*
X182066Y-142651D01*
X182734Y-142739D01*
X183402Y-142651D01*
X184025Y-142393D01*
X184559Y-141983D01*
X184970Y-141448D01*
X185227Y-140825D01*
X185315Y-140157D01*
X185227Y-139489D01*
X184970Y-138867D01*
X184559Y-138332D01*
X184025Y-137922D01*
X183402Y-137664D01*
X182734Y-137576D01*
D02*
G37*
G36*
X171262Y-141051D02*
X169436D01*
X169521Y-141479D01*
X170047Y-142266D01*
X170834Y-142791D01*
X171262Y-142876D01*
Y-141051D01*
D02*
G37*
G36*
X152058Y-137773D02*
X151389Y-137861D01*
X150767Y-138119D01*
X150232Y-138529D01*
X149822Y-139064D01*
X149564Y-139686D01*
X149476Y-140354D01*
X149564Y-141022D01*
X149822Y-141645D01*
X150232Y-142180D01*
X150767Y-142590D01*
X151389Y-142848D01*
X152058Y-142936D01*
X152726Y-142848D01*
X153348Y-142590D01*
X153883Y-142180D01*
X154293Y-141645D01*
X154551Y-141022D01*
X154639Y-140354D01*
X154551Y-139686D01*
X154293Y-139064D01*
X153883Y-138529D01*
X153348Y-138119D01*
X152726Y-137861D01*
X152058Y-137773D01*
D02*
G37*
G36*
X197530Y-137970D02*
X196862Y-138058D01*
X196239Y-138316D01*
X195705Y-138726D01*
X195295Y-139261D01*
X195037Y-139883D01*
X194949Y-140551D01*
X195037Y-141219D01*
X195295Y-141842D01*
X195705Y-142376D01*
X196239Y-142787D01*
X196862Y-143044D01*
X197530Y-143132D01*
X198198Y-143044D01*
X198820Y-142787D01*
X199355Y-142376D01*
X199765Y-141842D01*
X200023Y-141219D01*
X200111Y-140551D01*
X200023Y-139883D01*
X199765Y-139261D01*
X199355Y-138726D01*
X198820Y-138316D01*
X198198Y-138058D01*
X197530Y-137970D01*
D02*
G37*
G36*
X333703Y-141349D02*
X331878D01*
Y-143175D01*
X332306Y-143089D01*
X333093Y-142564D01*
X333618Y-141777D01*
X333703Y-141349D01*
D02*
G37*
G36*
X330878D02*
X329053D01*
X329138Y-141777D01*
X329664Y-142564D01*
X330451Y-143089D01*
X330878Y-143175D01*
Y-141349D01*
D02*
G37*
G36*
X266613Y-138993D02*
X265945Y-139081D01*
X265323Y-139339D01*
X264788Y-139749D01*
X264378Y-140284D01*
X264120Y-140906D01*
X264032Y-141575D01*
X264120Y-142243D01*
X264378Y-142865D01*
X264788Y-143400D01*
X265323Y-143810D01*
X265945Y-144068D01*
X266613Y-144156D01*
X267281Y-144068D01*
X267904Y-143810D01*
X268439Y-143400D01*
X268849Y-142865D01*
X269107Y-142243D01*
X269195Y-141575D01*
X269107Y-140906D01*
X268849Y-140284D01*
X268439Y-139749D01*
X267904Y-139339D01*
X267281Y-139081D01*
X266613Y-138993D01*
D02*
G37*
G36*
X211188Y-144074D02*
Y-145899D01*
X213013D01*
X212928Y-145471D01*
X212402Y-144685D01*
X211615Y-144159D01*
X211188Y-144074D01*
D02*
G37*
G36*
X210188D02*
X209760Y-144159D01*
X208973Y-144685D01*
X208448Y-145471D01*
X208363Y-145899D01*
X210188D01*
Y-144074D01*
D02*
G37*
G36*
X258268Y-145942D02*
X257600Y-146030D01*
X256977Y-146288D01*
X256443Y-146698D01*
X256330Y-146845D01*
X255700Y-146845D01*
X255664Y-146797D01*
X255129Y-146387D01*
X254507Y-146129D01*
X253839Y-146041D01*
X253170Y-146129D01*
X252548Y-146387D01*
X252013Y-146797D01*
X251603Y-147332D01*
X251345Y-147954D01*
X251257Y-148622D01*
X251345Y-149290D01*
X251603Y-149913D01*
X252013Y-150447D01*
X252548Y-150857D01*
X253170Y-151115D01*
X253839Y-151203D01*
X254507Y-151115D01*
X255129Y-150857D01*
X255664Y-150447D01*
X255776Y-150301D01*
X256406D01*
X256443Y-150349D01*
X256977Y-150759D01*
X257600Y-151017D01*
X258268Y-151105D01*
X258936Y-151017D01*
X259558Y-150759D01*
X260093Y-150349D01*
X260503Y-149814D01*
X260761Y-149192D01*
X260849Y-148524D01*
X260761Y-147856D01*
X260503Y-147233D01*
X260093Y-146698D01*
X259558Y-146288D01*
X258936Y-146030D01*
X258268Y-145942D01*
D02*
G37*
G36*
X305523Y-142560D02*
X304855Y-142648D01*
X304233Y-142905D01*
X303698Y-143316D01*
X303288Y-143850D01*
X303030Y-144473D01*
X302942Y-145141D01*
X303030Y-145809D01*
X303288Y-146431D01*
X303698Y-146966D01*
X304233Y-147376D01*
X304855Y-147634D01*
X305523Y-147722D01*
X306191Y-147634D01*
X306814Y-147376D01*
X307348Y-146966D01*
X307758Y-146431D01*
X308016Y-145809D01*
X308053Y-145529D01*
X308558D01*
X308608Y-145911D01*
X308866Y-146534D01*
X309276Y-147068D01*
X309811Y-147478D01*
X310433Y-147736D01*
X311101Y-147824D01*
X311769Y-147736D01*
X312392Y-147478D01*
X312926Y-147068D01*
X313336Y-146534D01*
X313594Y-145911D01*
X313682Y-145243D01*
X313594Y-144575D01*
X313336Y-143953D01*
X312926Y-143418D01*
X312392Y-143008D01*
X311769Y-142750D01*
X311101Y-142662D01*
X310433Y-142750D01*
X309811Y-143008D01*
X309276Y-143418D01*
X308866Y-143953D01*
X308608Y-144575D01*
X308571Y-144855D01*
X308067D01*
X308016Y-144473D01*
X307758Y-143850D01*
X307348Y-143316D01*
X306814Y-142905D01*
X306191Y-142648D01*
X305523Y-142560D01*
D02*
G37*
G36*
X156125Y-142694D02*
X155457Y-142782D01*
X154834Y-143040D01*
X154300Y-143450D01*
X153889Y-143985D01*
X153631Y-144607D01*
X153544Y-145276D01*
X153631Y-145944D01*
X153889Y-146566D01*
X154300Y-147101D01*
X154834Y-147511D01*
X155457Y-147769D01*
X156125Y-147857D01*
X156793Y-147769D01*
X157415Y-147511D01*
X157950Y-147101D01*
X158360Y-146566D01*
X158618Y-145944D01*
X158706Y-145276D01*
X158618Y-144607D01*
X158360Y-143985D01*
X157950Y-143450D01*
X157415Y-143040D01*
X156793Y-142782D01*
X156125Y-142694D01*
D02*
G37*
G36*
X213013Y-146899D02*
X211188D01*
Y-148724D01*
X211615Y-148639D01*
X212402Y-148113D01*
X212928Y-147327D01*
X213013Y-146899D01*
D02*
G37*
G36*
X210188D02*
X208363D01*
X208448Y-147327D01*
X208973Y-148113D01*
X209760Y-148639D01*
X210188Y-148724D01*
Y-146899D01*
D02*
G37*
G36*
X184252Y-143876D02*
X183584Y-143964D01*
X182961Y-144221D01*
X182427Y-144632D01*
X182017Y-145166D01*
X181759Y-145789D01*
X181671Y-146457D01*
X181759Y-147125D01*
X182017Y-147747D01*
X182427Y-148282D01*
X182961Y-148692D01*
X183584Y-148950D01*
X184252Y-149038D01*
X184920Y-148950D01*
X185543Y-148692D01*
X186077Y-148282D01*
X186487Y-147747D01*
X186745Y-147125D01*
X186833Y-146457D01*
X186745Y-145789D01*
X186487Y-145166D01*
X186077Y-144632D01*
X185543Y-144221D01*
X184920Y-143964D01*
X184252Y-143876D01*
D02*
G37*
G36*
X331477Y-144371D02*
X330809Y-144459D01*
X330186Y-144717D01*
X329652Y-145127D01*
X329241Y-145661D01*
X328984Y-146284D01*
X328896Y-146952D01*
X328984Y-147620D01*
X329241Y-148242D01*
X329652Y-148777D01*
X330186Y-149187D01*
X330809Y-149445D01*
X331477Y-149533D01*
X332145Y-149445D01*
X332767Y-149187D01*
X333302Y-148777D01*
X333712Y-148242D01*
X333970Y-147620D01*
X334058Y-146952D01*
X333970Y-146284D01*
X333712Y-145661D01*
X333302Y-145127D01*
X332767Y-144717D01*
X332145Y-144459D01*
X331477Y-144371D01*
D02*
G37*
G36*
X266535Y-145057D02*
X265867Y-145145D01*
X265245Y-145403D01*
X264710Y-145813D01*
X264300Y-146347D01*
X264042Y-146970D01*
X263954Y-147638D01*
X264042Y-148306D01*
X264300Y-148928D01*
X264710Y-149463D01*
X265245Y-149873D01*
X265867Y-150131D01*
X266535Y-150219D01*
X267203Y-150131D01*
X267826Y-149873D01*
X268361Y-149463D01*
X268771Y-148928D01*
X269029Y-148306D01*
X269117Y-147638D01*
X269029Y-146970D01*
X268771Y-146347D01*
X268361Y-145813D01*
X267826Y-145403D01*
X267203Y-145145D01*
X266535Y-145057D01*
D02*
G37*
G36*
X239673Y-148954D02*
Y-150779D01*
X241498D01*
X241413Y-150352D01*
X240888Y-149565D01*
X240101Y-149040D01*
X239673Y-148954D01*
D02*
G37*
G36*
X238673D02*
X238245Y-149040D01*
X237459Y-149565D01*
X236933Y-150352D01*
X236848Y-150779D01*
X238673D01*
Y-148954D01*
D02*
G37*
G36*
X194201Y-149250D02*
Y-151075D01*
X196026D01*
X195941Y-150647D01*
X195415Y-149860D01*
X194629Y-149335D01*
X194201Y-149250D01*
D02*
G37*
G36*
X193201D02*
X192773Y-149335D01*
X191986Y-149860D01*
X191461Y-150647D01*
X191376Y-151075D01*
X193201D01*
Y-149250D01*
D02*
G37*
G36*
X187902D02*
Y-151075D01*
X189727D01*
X189642Y-150647D01*
X189116Y-149860D01*
X188329Y-149335D01*
X187902Y-149250D01*
D02*
G37*
G36*
X186902D02*
X186474Y-149335D01*
X185687Y-149860D01*
X185162Y-150647D01*
X185076Y-151075D01*
X186902D01*
Y-149250D01*
D02*
G37*
G36*
X288295Y-150431D02*
Y-152256D01*
X290120D01*
X290035Y-151828D01*
X289510Y-151041D01*
X288723Y-150516D01*
X288295Y-150431D01*
D02*
G37*
G36*
X287295D02*
X286867Y-150516D01*
X286081Y-151041D01*
X285555Y-151828D01*
X285470Y-152256D01*
X287295D01*
Y-150431D01*
D02*
G37*
G36*
X170839Y-151056D02*
Y-152881D01*
X172664D01*
X172579Y-152453D01*
X172054Y-151667D01*
X171267Y-151141D01*
X170839Y-151056D01*
D02*
G37*
G36*
X169839D02*
X169412Y-151141D01*
X168625Y-151667D01*
X168099Y-152453D01*
X168014Y-152881D01*
X169839D01*
Y-151056D01*
D02*
G37*
G36*
X241498Y-151779D02*
X239673D01*
Y-153605D01*
X240101Y-153519D01*
X240888Y-152994D01*
X241413Y-152207D01*
X241498Y-151779D01*
D02*
G37*
G36*
X238673D02*
X236848D01*
X236933Y-152207D01*
X237459Y-152994D01*
X238245Y-153519D01*
X238673Y-153605D01*
Y-151779D01*
D02*
G37*
G36*
X196026Y-152075D02*
X194201D01*
Y-153900D01*
X194629Y-153815D01*
X195415Y-153289D01*
X195941Y-152503D01*
X196026Y-152075D01*
D02*
G37*
G36*
X193201D02*
X191376D01*
X191461Y-152503D01*
X191986Y-153289D01*
X192773Y-153815D01*
X193201Y-153900D01*
Y-152075D01*
D02*
G37*
G36*
X189727D02*
X187902D01*
Y-153900D01*
X188329Y-153815D01*
X189116Y-153289D01*
X189642Y-152503D01*
X189727Y-152075D01*
D02*
G37*
G36*
X186902D02*
X185076D01*
X185162Y-152503D01*
X185687Y-153289D01*
X186474Y-153815D01*
X186902Y-153900D01*
Y-152075D01*
D02*
G37*
G36*
X290120Y-153256D02*
X288295D01*
Y-155081D01*
X288723Y-154996D01*
X289510Y-154470D01*
X290035Y-153684D01*
X290120Y-153256D01*
D02*
G37*
G36*
X287295D02*
X285470D01*
X285555Y-153684D01*
X286081Y-154470D01*
X286867Y-154996D01*
X287295Y-155081D01*
Y-153256D01*
D02*
G37*
G36*
X70234Y-153531D02*
Y-155356D01*
X72059D01*
X71974Y-154929D01*
X71449Y-154142D01*
X70662Y-153616D01*
X70234Y-153531D01*
D02*
G37*
G36*
X69234D02*
X68806Y-153616D01*
X68020Y-154142D01*
X67494Y-154929D01*
X67409Y-155356D01*
X69234D01*
Y-153531D01*
D02*
G37*
G36*
X172664Y-153881D02*
X170839D01*
Y-155706D01*
X171267Y-155621D01*
X172054Y-155096D01*
X172579Y-154309D01*
X172664Y-153881D01*
D02*
G37*
G36*
X169839D02*
X168014D01*
X168099Y-154309D01*
X168625Y-155096D01*
X169412Y-155621D01*
X169839Y-155706D01*
Y-153881D01*
D02*
G37*
G36*
X265354Y-151061D02*
X264686Y-151149D01*
X264064Y-151406D01*
X263529Y-151817D01*
X263119Y-152351D01*
X262861Y-152974D01*
X262773Y-153642D01*
X262861Y-154310D01*
X263119Y-154932D01*
X263529Y-155467D01*
X264064Y-155877D01*
X264686Y-156135D01*
X265354Y-156223D01*
X266022Y-156135D01*
X266645Y-155877D01*
X267179Y-155467D01*
X267590Y-154932D01*
X267847Y-154310D01*
X267935Y-153642D01*
X267847Y-152974D01*
X267590Y-152351D01*
X267179Y-151817D01*
X266645Y-151406D01*
X266022Y-151149D01*
X265354Y-151061D01*
D02*
G37*
G36*
X181102Y-151750D02*
X180434Y-151838D01*
X179812Y-152095D01*
X179277Y-152506D01*
X178867Y-153040D01*
X178609Y-153663D01*
X178521Y-154331D01*
X178609Y-154999D01*
X178867Y-155621D01*
X179277Y-156156D01*
X179812Y-156566D01*
X180434Y-156824D01*
X181102Y-156912D01*
X181770Y-156824D01*
X182393Y-156566D01*
X182928Y-156156D01*
X183338Y-155621D01*
X183596Y-154999D01*
X183684Y-154331D01*
X183596Y-153663D01*
X183338Y-153040D01*
X182928Y-152506D01*
X182393Y-152095D01*
X181770Y-151838D01*
X181102Y-151750D01*
D02*
G37*
G36*
X194201Y-155155D02*
Y-156980D01*
X196026D01*
X195941Y-156553D01*
X195415Y-155766D01*
X194629Y-155240D01*
X194201Y-155155D01*
D02*
G37*
G36*
X193201D02*
X192773Y-155240D01*
X191986Y-155766D01*
X191461Y-156553D01*
X191376Y-156980D01*
X193201D01*
Y-155155D01*
D02*
G37*
G36*
X187902D02*
Y-156980D01*
X189727D01*
X189642Y-156553D01*
X189116Y-155766D01*
X188329Y-155240D01*
X187902Y-155155D01*
D02*
G37*
G36*
X186902D02*
X186474Y-155240D01*
X185687Y-155766D01*
X185162Y-156553D01*
X185076Y-156980D01*
X186902D01*
Y-155155D01*
D02*
G37*
G36*
X211811Y-152439D02*
X211143Y-152526D01*
X210520Y-152784D01*
X209986Y-153195D01*
X209576Y-153729D01*
X209318Y-154352D01*
X209230Y-155020D01*
X209318Y-155688D01*
X209576Y-156310D01*
X209986Y-156845D01*
X210520Y-157255D01*
X211143Y-157513D01*
X211811Y-157601D01*
X212479Y-157513D01*
X213102Y-157255D01*
X213636Y-156845D01*
X214046Y-156310D01*
X214304Y-155688D01*
X214392Y-155020D01*
X214304Y-154352D01*
X214046Y-153729D01*
X213636Y-153195D01*
X213102Y-152784D01*
X212479Y-152526D01*
X211811Y-152439D01*
D02*
G37*
G36*
X159687Y-152635D02*
X159019Y-152723D01*
X158396Y-152981D01*
X157862Y-153391D01*
X157452Y-153926D01*
X157194Y-154549D01*
X157106Y-155217D01*
X157194Y-155885D01*
X157452Y-156507D01*
X157862Y-157042D01*
X158396Y-157452D01*
X159019Y-157710D01*
X159687Y-157798D01*
X160355Y-157710D01*
X160978Y-157452D01*
X161512Y-157042D01*
X161922Y-156507D01*
X162180Y-155885D01*
X162268Y-155217D01*
X162180Y-154549D01*
X161922Y-153926D01*
X161512Y-153391D01*
X160978Y-152981D01*
X160355Y-152723D01*
X159687Y-152635D01*
D02*
G37*
G36*
X72059Y-156356D02*
X70234D01*
Y-158181D01*
X70662Y-158096D01*
X71449Y-157571D01*
X71974Y-156784D01*
X72059Y-156356D01*
D02*
G37*
G36*
X69234D02*
X67409D01*
X67494Y-156784D01*
X68020Y-157571D01*
X68806Y-158096D01*
X69234Y-158181D01*
Y-156356D01*
D02*
G37*
G36*
X196026Y-157980D02*
X194201D01*
Y-159805D01*
X194629Y-159720D01*
X195415Y-159195D01*
X195941Y-158408D01*
X196026Y-157980D01*
D02*
G37*
G36*
X193201D02*
X191376D01*
X191461Y-158408D01*
X191986Y-159195D01*
X192773Y-159720D01*
X193201Y-159805D01*
Y-157980D01*
D02*
G37*
G36*
X189727D02*
X187902D01*
Y-159805D01*
X188329Y-159720D01*
X189116Y-159195D01*
X189642Y-158408D01*
X189727Y-157980D01*
D02*
G37*
G36*
X186902D02*
X185076D01*
X185162Y-158408D01*
X185687Y-159195D01*
X186474Y-159720D01*
X186902Y-159805D01*
Y-157980D01*
D02*
G37*
G36*
X160344Y-158796D02*
Y-160621D01*
X162169D01*
X162084Y-160193D01*
X161558Y-159406D01*
X160772Y-158881D01*
X160344Y-158796D01*
D02*
G37*
G36*
X159344D02*
X158916Y-158881D01*
X158129Y-159406D01*
X157604Y-160193D01*
X157519Y-160621D01*
X159344D01*
Y-158796D01*
D02*
G37*
G36*
X216929Y-156474D02*
X216261Y-156562D01*
X215639Y-156820D01*
X215104Y-157230D01*
X214694Y-157765D01*
X214436Y-158387D01*
X214348Y-159055D01*
X214436Y-159723D01*
X214694Y-160346D01*
X215104Y-160880D01*
X215639Y-161290D01*
X216261Y-161548D01*
X216929Y-161636D01*
X217597Y-161548D01*
X218220Y-161290D01*
X218754Y-160880D01*
X219164Y-160346D01*
X219422Y-159723D01*
X219510Y-159055D01*
X219422Y-158387D01*
X219164Y-157765D01*
X218754Y-157230D01*
X218220Y-156820D01*
X217597Y-156562D01*
X216929Y-156474D01*
D02*
G37*
G36*
X187902Y-161012D02*
Y-162837D01*
X189727D01*
X189642Y-162409D01*
X189116Y-161623D01*
X188329Y-161097D01*
X187902Y-161012D01*
D02*
G37*
G36*
X186902D02*
X186474Y-161097D01*
X185687Y-161623D01*
X185162Y-162409D01*
X185076Y-162837D01*
X186902D01*
Y-161012D01*
D02*
G37*
G36*
X194201Y-161061D02*
Y-162886D01*
X196026D01*
X195941Y-162458D01*
X195415Y-161671D01*
X194629Y-161146D01*
X194201Y-161061D01*
D02*
G37*
G36*
X193201D02*
X192773Y-161146D01*
X191986Y-161671D01*
X191461Y-162458D01*
X191376Y-162886D01*
X193201D01*
Y-161061D01*
D02*
G37*
G36*
X162169Y-161621D02*
X160344D01*
Y-163446D01*
X160772Y-163361D01*
X161558Y-162835D01*
X162084Y-162049D01*
X162169Y-161621D01*
D02*
G37*
G36*
X159344D02*
X157519D01*
X157604Y-162049D01*
X158129Y-162835D01*
X158916Y-163361D01*
X159344Y-163446D01*
Y-161621D01*
D02*
G37*
G36*
X257203Y-164862D02*
X256890Y-164862D01*
X234547Y-164862D01*
X234547Y-164862D01*
X234214Y-164862D01*
X233599Y-165117D01*
X233129Y-165588D01*
X232874Y-166203D01*
X232874Y-166535D01*
Y-182908D01*
X232942Y-183249D01*
X233074Y-183569D01*
X233267Y-183858D01*
X233390Y-183981D01*
X241338Y-191929D01*
X241505Y-192095D01*
X241512Y-192103D01*
X242002Y-192103D01*
X242349Y-191756D01*
X242349Y-191266D01*
X242342Y-191259D01*
X242175Y-191093D01*
X235051Y-183969D01*
X234766Y-183587D01*
X234750Y-183563D01*
X234621Y-183251D01*
X234556Y-182920D01*
X234547Y-182752D01*
X234547Y-166929D01*
X234547Y-166929D01*
Y-166929D01*
X234843Y-166552D01*
X234864Y-166543D01*
X234941Y-166535D01*
X255737Y-166535D01*
X256201Y-166535D01*
D01*
X256650Y-166718D01*
X256774Y-166842D01*
X256876Y-167090D01*
X256890Y-167224D01*
Y-181513D01*
X256890Y-181513D01*
X256881Y-181695D01*
X256810Y-182053D01*
X256670Y-182390D01*
X256468Y-182693D01*
X256345Y-182828D01*
X247982Y-191191D01*
X247847Y-191327D01*
X247819Y-191355D01*
X247819Y-191816D01*
X248146Y-192142D01*
X248607Y-192142D01*
X248770Y-191978D01*
X257961Y-182788D01*
X257961Y-182788D01*
X258080Y-182668D01*
X258269Y-182386D01*
X258398Y-182073D01*
X258465Y-181740D01*
X258465Y-181571D01*
X258465Y-166437D01*
X258465D01*
X258465Y-166437D01*
X258465Y-166437D01*
X258465Y-166124D01*
X258404Y-165978D01*
X258225Y-165545D01*
X257782Y-165102D01*
X257203Y-164862D01*
D02*
G37*
G36*
X189727Y-163837D02*
X187902D01*
Y-165662D01*
X188329Y-165577D01*
X189116Y-165052D01*
X189642Y-164265D01*
X189727Y-163837D01*
D02*
G37*
G36*
X186902D02*
X185076D01*
X185162Y-164265D01*
X185687Y-165052D01*
X186474Y-165577D01*
X186902Y-165662D01*
Y-163837D01*
D02*
G37*
G36*
X196026Y-163886D02*
X194201D01*
Y-165711D01*
X194629Y-165626D01*
X195415Y-165100D01*
X195941Y-164314D01*
X196026Y-163886D01*
D02*
G37*
G36*
X193201D02*
X191376D01*
X191461Y-164314D01*
X191986Y-165100D01*
X192773Y-165626D01*
X193201Y-165711D01*
Y-163886D01*
D02*
G37*
G36*
X201158Y-152438D02*
X200490Y-152526D01*
X199868Y-152784D01*
X199333Y-153194D01*
X198923Y-153729D01*
X198665Y-154351D01*
X198577Y-155019D01*
X198665Y-155687D01*
X198923Y-156310D01*
X199333Y-156844D01*
X199868Y-157255D01*
Y-157784D01*
X199333Y-158194D01*
X198923Y-158729D01*
X198665Y-159351D01*
X198577Y-160019D01*
X198665Y-160687D01*
X198923Y-161310D01*
X199225Y-161703D01*
X199293Y-162047D01*
X199225Y-162391D01*
X198923Y-162784D01*
X198665Y-163407D01*
X198577Y-164075D01*
X198665Y-164743D01*
X198923Y-165365D01*
X199333Y-165900D01*
X199868Y-166310D01*
X200490Y-166568D01*
X201158Y-166656D01*
X201826Y-166568D01*
X202449Y-166310D01*
X202983Y-165900D01*
X203394Y-165365D01*
X203651Y-164743D01*
X203740Y-164075D01*
X203651Y-163407D01*
X203394Y-162784D01*
X203092Y-162391D01*
X203024Y-162047D01*
X203092Y-161703D01*
X203394Y-161310D01*
X203651Y-160687D01*
X203740Y-160019D01*
X203651Y-159351D01*
X203394Y-158729D01*
X202983Y-158194D01*
X202449Y-157784D01*
Y-157255D01*
X202983Y-156844D01*
X203394Y-156310D01*
X203651Y-155687D01*
X203740Y-155019D01*
X203651Y-154351D01*
X203394Y-153729D01*
X202983Y-153194D01*
X202449Y-152784D01*
X201826Y-152526D01*
X201158Y-152438D01*
D02*
G37*
G36*
X286130Y-167443D02*
Y-169268D01*
X287955D01*
X287870Y-168840D01*
X287344Y-168053D01*
X286558Y-167528D01*
X286130Y-167443D01*
D02*
G37*
G36*
X285130D02*
X284702Y-167528D01*
X283915Y-168053D01*
X283390Y-168840D01*
X283305Y-169268D01*
X285130D01*
Y-167443D01*
D02*
G37*
G36*
X309142Y-166918D02*
Y-170387D01*
X312610D01*
X312539Y-169842D01*
X312136Y-168869D01*
X311495Y-168034D01*
X310659Y-167393D01*
X309686Y-166990D01*
X309142Y-166918D01*
D02*
G37*
G36*
X308142Y-166918D02*
X307597Y-166990D01*
X306625Y-167393D01*
X305789Y-168034D01*
X305148Y-168869D01*
X304745Y-169842D01*
X304673Y-170387D01*
X308142D01*
Y-166918D01*
D02*
G37*
G36*
X196457Y-166710D02*
X195789Y-166798D01*
X195166Y-167056D01*
X194632Y-167466D01*
X194221Y-168001D01*
X193964Y-168623D01*
X193876Y-169291D01*
X193964Y-169959D01*
X194221Y-170582D01*
X194632Y-171116D01*
X195166Y-171527D01*
X195789Y-171784D01*
X196457Y-171872D01*
X197125Y-171784D01*
X197747Y-171527D01*
X198282Y-171116D01*
X198692Y-170582D01*
X198950Y-169959D01*
X199038Y-169291D01*
X198950Y-168623D01*
X198692Y-168001D01*
X198282Y-167466D01*
X197747Y-167056D01*
X197125Y-166798D01*
X196457Y-166710D01*
D02*
G37*
G36*
X287955Y-170268D02*
X286130D01*
Y-172093D01*
X286558Y-172008D01*
X287344Y-171482D01*
X287870Y-170695D01*
X287955Y-170268D01*
D02*
G37*
G36*
X285130D02*
X283305D01*
X283390Y-170695D01*
X283915Y-171482D01*
X284702Y-172008D01*
X285130Y-172093D01*
Y-170268D01*
D02*
G37*
G36*
X70185Y-170903D02*
Y-172728D01*
X72010D01*
X71925Y-172301D01*
X71399Y-171514D01*
X70613Y-170988D01*
X70185Y-170903D01*
D02*
G37*
G36*
X69185D02*
X68757Y-170988D01*
X67971Y-171514D01*
X67445Y-172301D01*
X67360Y-172728D01*
X69185D01*
Y-170903D01*
D02*
G37*
G36*
X155512Y-169466D02*
X154844Y-169554D01*
X154221Y-169812D01*
X153687Y-170222D01*
X153277Y-170757D01*
X153019Y-171379D01*
X152931Y-172047D01*
X153019Y-172715D01*
X153277Y-173338D01*
X153687Y-173872D01*
X154221Y-174283D01*
X154844Y-174540D01*
X155512Y-174628D01*
X156180Y-174540D01*
X156802Y-174283D01*
X157337Y-173872D01*
X157747Y-173338D01*
X158005Y-172715D01*
X158093Y-172047D01*
X158005Y-171379D01*
X157747Y-170757D01*
X157337Y-170222D01*
X156802Y-169812D01*
X156180Y-169554D01*
X155512Y-169466D01*
D02*
G37*
G36*
X312610Y-171387D02*
X309142D01*
Y-174855D01*
X309686Y-174784D01*
X310659Y-174381D01*
X311495Y-173739D01*
X312136Y-172904D01*
X312539Y-171931D01*
X312610Y-171387D01*
D02*
G37*
G36*
X308142D02*
X304673D01*
X304745Y-171931D01*
X305148Y-172904D01*
X305789Y-173739D01*
X306625Y-174381D01*
X307597Y-174784D01*
X308142Y-174855D01*
Y-171387D01*
D02*
G37*
G36*
X72010Y-173728D02*
X70185D01*
Y-175553D01*
X70613Y-175468D01*
X71399Y-174943D01*
X71925Y-174156D01*
X72010Y-173728D01*
D02*
G37*
G36*
X69185D02*
X67360D01*
X67445Y-174156D01*
X67971Y-174943D01*
X68757Y-175468D01*
X69185Y-175553D01*
Y-173728D01*
D02*
G37*
G36*
X203847Y-174151D02*
Y-175976D01*
X205672D01*
X205586Y-175549D01*
X205061Y-174762D01*
X204274Y-174236D01*
X203847Y-174151D01*
D02*
G37*
G36*
X202847D02*
X202419Y-174236D01*
X201632Y-174762D01*
X201107Y-175549D01*
X201021Y-175976D01*
X202847D01*
Y-174151D01*
D02*
G37*
G36*
X245776Y-175529D02*
Y-177354D01*
X247601D01*
X247516Y-176927D01*
X246990Y-176140D01*
X246203Y-175614D01*
X245776Y-175529D01*
D02*
G37*
G36*
X244776D02*
X244348Y-175614D01*
X243561Y-176140D01*
X243036Y-176927D01*
X242951Y-177354D01*
X244776D01*
Y-175529D01*
D02*
G37*
G36*
X205672Y-176976D02*
X203847D01*
Y-178802D01*
X204274Y-178716D01*
X205061Y-178191D01*
X205586Y-177404D01*
X205672Y-176976D01*
D02*
G37*
G36*
X202847D02*
X201021D01*
X201107Y-177404D01*
X201632Y-178191D01*
X202419Y-178716D01*
X202847Y-178802D01*
Y-176976D01*
D02*
G37*
G36*
X318642Y-171669D02*
X317550Y-171813D01*
X316533Y-172234D01*
X315660Y-172905D01*
X314989Y-173778D01*
X314568Y-174795D01*
X314424Y-175887D01*
X314568Y-176978D01*
X314989Y-177995D01*
X315660Y-178869D01*
X316533Y-179539D01*
X317550Y-179960D01*
X318642Y-180104D01*
X319733Y-179960D01*
X320750Y-179539D01*
X321624Y-178869D01*
X322294Y-177995D01*
X322715Y-176978D01*
X322859Y-175887D01*
X322715Y-174795D01*
X322294Y-173778D01*
X321624Y-172905D01*
X320750Y-172234D01*
X319733Y-171813D01*
X318642Y-171669D01*
D02*
G37*
G36*
X247601Y-178354D02*
X245776D01*
Y-180179D01*
X246203Y-180094D01*
X246990Y-179569D01*
X247516Y-178782D01*
X247601Y-178354D01*
D02*
G37*
G36*
X244776D02*
X242951D01*
X243036Y-178782D01*
X243561Y-179569D01*
X244348Y-180094D01*
X244776Y-180179D01*
Y-178354D01*
D02*
G37*
G36*
X160433Y-175568D02*
X159765Y-175656D01*
X159142Y-175914D01*
X158608Y-176324D01*
X158198Y-176859D01*
X157940Y-177482D01*
X157852Y-178150D01*
X157940Y-178818D01*
X158198Y-179440D01*
X158608Y-179975D01*
X159142Y-180385D01*
X159765Y-180643D01*
X160433Y-180731D01*
X161101Y-180643D01*
X161724Y-180385D01*
X162258Y-179975D01*
X162668Y-179440D01*
X162926Y-178818D01*
X163014Y-178150D01*
X162926Y-177482D01*
X162668Y-176859D01*
X162258Y-176324D01*
X161724Y-175914D01*
X161101Y-175656D01*
X160433Y-175568D01*
D02*
G37*
G36*
X296260Y-177340D02*
X295592Y-177428D01*
X294969Y-177686D01*
X294435Y-178096D01*
X294024Y-178631D01*
X293767Y-179253D01*
X293679Y-179921D01*
X293767Y-180589D01*
X294024Y-181212D01*
X294435Y-181746D01*
X294969Y-182157D01*
X295592Y-182414D01*
X296260Y-182502D01*
X296928Y-182414D01*
X297550Y-182157D01*
X298085Y-181746D01*
X298495Y-181212D01*
X298753Y-180589D01*
X298841Y-179921D01*
X298753Y-179253D01*
X298495Y-178631D01*
X298085Y-178096D01*
X297550Y-177686D01*
X296928Y-177428D01*
X296260Y-177340D01*
D02*
G37*
G36*
X280118D02*
X279450Y-177428D01*
X278828Y-177686D01*
X278293Y-178096D01*
X277883Y-178631D01*
X277625Y-179253D01*
X277537Y-179921D01*
X277625Y-180589D01*
X277883Y-181212D01*
X278293Y-181746D01*
X278828Y-182157D01*
X279450Y-182414D01*
X280118Y-182502D01*
X280786Y-182414D01*
X281409Y-182157D01*
X281943Y-181746D01*
X282353Y-181212D01*
X282611Y-180589D01*
X282699Y-179921D01*
X282611Y-179253D01*
X282353Y-178631D01*
X281943Y-178096D01*
X281409Y-177686D01*
X280786Y-177428D01*
X280118Y-177340D01*
D02*
G37*
G36*
X308642Y-176669D02*
X307550Y-176813D01*
X306533Y-177234D01*
X305660Y-177905D01*
X304990Y-178778D01*
X304568Y-179795D01*
X304425Y-180887D01*
X304568Y-181978D01*
X304990Y-182995D01*
X305660Y-183869D01*
X306533Y-184539D01*
X307550Y-184960D01*
X308642Y-185104D01*
X309733Y-184960D01*
X310750Y-184539D01*
X311624Y-183869D01*
X312294Y-182995D01*
X312715Y-181978D01*
X312859Y-180887D01*
X312715Y-179795D01*
X312294Y-178778D01*
X311624Y-177905D01*
X310750Y-177234D01*
X309733Y-176813D01*
X308642Y-176669D01*
D02*
G37*
G36*
X153642Y-180883D02*
X152974Y-180971D01*
X152351Y-181229D01*
X151817Y-181639D01*
X151406Y-182174D01*
X151149Y-182797D01*
X151061Y-183465D01*
X151149Y-184133D01*
X151406Y-184755D01*
X151817Y-185290D01*
X152351Y-185700D01*
X152974Y-185958D01*
X153642Y-186046D01*
X154310Y-185958D01*
X154932Y-185700D01*
X155467Y-185290D01*
X155877Y-184755D01*
X156135Y-184133D01*
X156223Y-183465D01*
X156135Y-182797D01*
X155877Y-182174D01*
X155467Y-181639D01*
X154932Y-181229D01*
X154310Y-180971D01*
X153642Y-180883D01*
D02*
G37*
G36*
X221071Y-185175D02*
Y-187000D01*
X222896D01*
X222811Y-186572D01*
X222285Y-185786D01*
X221499Y-185260D01*
X221071Y-185175D01*
D02*
G37*
G36*
X220071D02*
X219643Y-185260D01*
X218857Y-185786D01*
X218331Y-186572D01*
X218246Y-187000D01*
X220071D01*
Y-185175D01*
D02*
G37*
G36*
X280323Y-186356D02*
Y-188181D01*
X282148D01*
X282063Y-187753D01*
X281537Y-186967D01*
X280751Y-186441D01*
X280323Y-186356D01*
D02*
G37*
G36*
X279323D02*
X278895Y-186441D01*
X278108Y-186967D01*
X277583Y-187753D01*
X277498Y-188181D01*
X279323D01*
Y-186356D01*
D02*
G37*
G36*
X222896Y-188000D02*
X221071D01*
Y-189825D01*
X221499Y-189740D01*
X222285Y-189214D01*
X222811Y-188428D01*
X222896Y-188000D01*
D02*
G37*
G36*
X220071D02*
X218246D01*
X218331Y-188428D01*
X218857Y-189214D01*
X219643Y-189740D01*
X220071Y-189825D01*
Y-188000D01*
D02*
G37*
G36*
X318642Y-181669D02*
X317550Y-181813D01*
X316533Y-182234D01*
X315660Y-182905D01*
X314989Y-183778D01*
X314568Y-184795D01*
X314424Y-185887D01*
X314568Y-186978D01*
X314989Y-187995D01*
X315660Y-188869D01*
X316533Y-189539D01*
X317550Y-189960D01*
X318642Y-190104D01*
X319733Y-189960D01*
X320750Y-189539D01*
X321624Y-188869D01*
X322294Y-187995D01*
X322715Y-186978D01*
X322859Y-185887D01*
X322715Y-184795D01*
X322294Y-183778D01*
X321624Y-182905D01*
X320750Y-182234D01*
X319733Y-181813D01*
X318642Y-181669D01*
D02*
G37*
G36*
X70185Y-188620D02*
Y-190445D01*
X72010D01*
X71925Y-190017D01*
X71399Y-189231D01*
X70613Y-188705D01*
X70185Y-188620D01*
D02*
G37*
G36*
X69185D02*
X68757Y-188705D01*
X67971Y-189231D01*
X67445Y-190017D01*
X67360Y-190445D01*
X69185D01*
Y-188620D01*
D02*
G37*
G36*
X282148Y-189181D02*
X280323D01*
Y-191006D01*
X280751Y-190921D01*
X281537Y-190395D01*
X282063Y-189609D01*
X282148Y-189181D01*
D02*
G37*
G36*
X279323D02*
X277498D01*
X277583Y-189609D01*
X278108Y-190395D01*
X278895Y-190921D01*
X279323Y-191006D01*
Y-189181D01*
D02*
G37*
G36*
X263236Y-191009D02*
Y-192834D01*
X265061D01*
X264976Y-192406D01*
X264451Y-191620D01*
X263664Y-191094D01*
X263236Y-191009D01*
D02*
G37*
G36*
X72010Y-191445D02*
X70185D01*
Y-193270D01*
X70613Y-193185D01*
X71399Y-192659D01*
X71925Y-191873D01*
X72010Y-191445D01*
D02*
G37*
G36*
X69185D02*
X67360D01*
X67445Y-191873D01*
X67971Y-192659D01*
X68757Y-193185D01*
X69185Y-193270D01*
Y-191445D01*
D02*
G37*
G36*
X30028Y-188984D02*
Y-193398D01*
X34441D01*
X34337Y-192609D01*
X33840Y-191408D01*
X33049Y-190376D01*
X32017Y-189585D01*
X30816Y-189088D01*
X30028Y-188984D01*
D02*
G37*
G36*
X205118Y-189545D02*
X204450Y-189633D01*
X203828Y-189891D01*
X203293Y-190301D01*
X202883Y-190835D01*
X202625Y-191458D01*
X202537Y-192126D01*
X202625Y-192794D01*
X202883Y-193417D01*
X203293Y-193951D01*
X203828Y-194361D01*
X204450Y-194619D01*
X205118Y-194707D01*
X205786Y-194619D01*
X206409Y-194361D01*
X206943Y-193951D01*
X207353Y-193417D01*
X207611Y-192794D01*
X207699Y-192126D01*
X207611Y-191458D01*
X207353Y-190835D01*
X206943Y-190301D01*
X206409Y-189891D01*
X205786Y-189633D01*
X205118Y-189545D01*
D02*
G37*
G36*
X308642Y-186669D02*
X307550Y-186813D01*
X306533Y-187234D01*
X305660Y-187905D01*
X304990Y-188778D01*
X304568Y-189795D01*
X304425Y-190887D01*
X304568Y-191978D01*
X304990Y-192995D01*
X305660Y-193869D01*
X306533Y-194539D01*
X307550Y-194960D01*
X308642Y-195104D01*
X309733Y-194960D01*
X310750Y-194539D01*
X311624Y-193869D01*
X312294Y-192995D01*
X312715Y-191978D01*
X312859Y-190887D01*
X312715Y-189795D01*
X312294Y-188778D01*
X311624Y-187905D01*
X310750Y-187234D01*
X309733Y-186813D01*
X308642Y-186669D01*
D02*
G37*
G36*
X265061Y-193834D02*
X263236D01*
Y-195659D01*
X263664Y-195574D01*
X264451Y-195048D01*
X264976Y-194262D01*
X265061Y-193834D01*
D02*
G37*
G36*
X258799Y-190753D02*
X258131Y-190841D01*
X257509Y-191099D01*
X256974Y-191509D01*
X256564Y-192043D01*
X256306Y-192666D01*
X256218Y-193334D01*
X256306Y-194002D01*
X256564Y-194624D01*
X256974Y-195159D01*
X257509Y-195569D01*
X258131Y-195827D01*
X258799Y-195915D01*
X259467Y-195827D01*
X260090Y-195569D01*
X260539Y-195225D01*
X261022Y-195048D01*
X261808Y-195574D01*
X262236Y-195659D01*
Y-193334D01*
Y-191009D01*
X261808Y-191094D01*
X261022Y-191620D01*
X260539Y-191443D01*
X260090Y-191099D01*
X259467Y-190841D01*
X258799Y-190753D01*
D02*
G37*
G36*
X165854Y-194722D02*
Y-196547D01*
X167679D01*
X167594Y-196119D01*
X167069Y-195333D01*
X166282Y-194807D01*
X165854Y-194722D01*
D02*
G37*
G36*
X164854D02*
X164427Y-194807D01*
X163640Y-195333D01*
X163114Y-196119D01*
X163029Y-196547D01*
X164854D01*
Y-194722D01*
D02*
G37*
G36*
X34441Y-194398D02*
X30028D01*
Y-198811D01*
X30816Y-198708D01*
X32017Y-198210D01*
X33049Y-197419D01*
X33840Y-196388D01*
X34337Y-195186D01*
X34441Y-194398D01*
D02*
G37*
G36*
X19685Y-188735D02*
X18349Y-188911D01*
X17104Y-189427D01*
X16035Y-190247D01*
X15214Y-191316D01*
X14699Y-192562D01*
X14523Y-193898D01*
X14699Y-195234D01*
X15214Y-196479D01*
X16035Y-197548D01*
X17104Y-198368D01*
X18349Y-198884D01*
X19685Y-199060D01*
X21021Y-198884D01*
X22266Y-198368D01*
X23335Y-197548D01*
X24156Y-196479D01*
X24434Y-195808D01*
X24975D01*
X25215Y-196388D01*
X26006Y-197419D01*
X27038Y-198210D01*
X28239Y-198708D01*
X29028Y-198811D01*
Y-193898D01*
Y-188984D01*
X28239Y-189088D01*
X27038Y-189585D01*
X26006Y-190376D01*
X25215Y-191408D01*
X24975Y-191988D01*
X24434D01*
X24156Y-191316D01*
X23335Y-190247D01*
X22266Y-189427D01*
X21021Y-188911D01*
X19685Y-188735D01*
D02*
G37*
G36*
X167679Y-197547D02*
X165854D01*
Y-199372D01*
X166282Y-199287D01*
X167069Y-198762D01*
X167594Y-197975D01*
X167679Y-197547D01*
D02*
G37*
G36*
X164854D02*
X163029D01*
X163114Y-197975D01*
X163640Y-198762D01*
X164427Y-199287D01*
X164854Y-199372D01*
Y-197547D01*
D02*
G37*
G36*
X318642Y-191669D02*
X317550Y-191813D01*
X316533Y-192234D01*
X315660Y-192905D01*
X314989Y-193778D01*
X314568Y-194795D01*
X314424Y-195887D01*
X314568Y-196978D01*
X314989Y-197995D01*
X315660Y-198869D01*
X316533Y-199539D01*
X317550Y-199960D01*
X318642Y-200104D01*
X319733Y-199960D01*
X320750Y-199539D01*
X321624Y-198869D01*
X322294Y-197995D01*
X322715Y-196978D01*
X322859Y-195887D01*
X322715Y-194795D01*
X322294Y-193778D01*
X321624Y-192905D01*
X320750Y-192234D01*
X319733Y-191813D01*
X318642Y-191669D01*
D02*
G37*
G36*
X297843Y-199151D02*
Y-200976D01*
X299668D01*
X299583Y-200549D01*
X299057Y-199762D01*
X298270Y-199236D01*
X297843Y-199151D01*
D02*
G37*
G36*
X296843D02*
X296415Y-199236D01*
X295628Y-199762D01*
X295103Y-200549D01*
X295017Y-200976D01*
X296843D01*
Y-199151D01*
D02*
G37*
G36*
X245382Y-199250D02*
Y-201075D01*
X247207D01*
X247122Y-200647D01*
X246596Y-199860D01*
X245810Y-199335D01*
X245382Y-199250D01*
D02*
G37*
G36*
X244382D02*
X243954Y-199335D01*
X243167Y-199860D01*
X242642Y-200647D01*
X242557Y-201075D01*
X244382D01*
Y-199250D01*
D02*
G37*
G36*
X250875Y-199269D02*
Y-201094D01*
X252700D01*
X252615Y-200666D01*
X252089Y-199879D01*
X251303Y-199354D01*
X250875Y-199269D01*
D02*
G37*
G36*
X249875D02*
X249447Y-199354D01*
X248660Y-199879D01*
X248135Y-200666D01*
X248050Y-201094D01*
X249875D01*
Y-199269D01*
D02*
G37*
G36*
X269882Y-196355D02*
X269214Y-196443D01*
X268591Y-196701D01*
X268057Y-197111D01*
X267647Y-197646D01*
X267389Y-198268D01*
X267301Y-198936D01*
X267389Y-199604D01*
X267647Y-200227D01*
X268057Y-200762D01*
X268591Y-201172D01*
X269214Y-201430D01*
X269882Y-201518D01*
X270550Y-201430D01*
X271172Y-201172D01*
X271707Y-200762D01*
X272117Y-200227D01*
X272375Y-199604D01*
X272463Y-198936D01*
X272375Y-198268D01*
X272117Y-197646D01*
X271707Y-197111D01*
X271172Y-196701D01*
X270550Y-196443D01*
X269882Y-196355D01*
D02*
G37*
G36*
X299668Y-201976D02*
X297843D01*
Y-203801D01*
X298270Y-203716D01*
X299057Y-203191D01*
X299583Y-202404D01*
X299668Y-201976D01*
D02*
G37*
G36*
X296843D02*
X295017D01*
X295103Y-202404D01*
X295628Y-203191D01*
X296415Y-203716D01*
X296843Y-203801D01*
Y-201976D01*
D02*
G37*
G36*
X252700Y-202094D02*
X250875D01*
Y-203919D01*
X251303Y-203834D01*
X252089Y-203308D01*
X252615Y-202521D01*
X252700Y-202094D01*
D02*
G37*
G36*
X249875D02*
X248050D01*
X248135Y-202521D01*
X248660Y-203308D01*
X249447Y-203834D01*
X249875Y-203919D01*
Y-202094D01*
D02*
G37*
G36*
X228976Y-198807D02*
X228308Y-198895D01*
X227686Y-199153D01*
X227151Y-199563D01*
X226741Y-200097D01*
X226483Y-200720D01*
X226395Y-201388D01*
X226483Y-202056D01*
X226741Y-202678D01*
X227151Y-203213D01*
X227686Y-203623D01*
X228308Y-203881D01*
X228976Y-203969D01*
X229644Y-203881D01*
X230267Y-203623D01*
X230801Y-203213D01*
X231211Y-202678D01*
X231469Y-202056D01*
X231557Y-201388D01*
X231469Y-200720D01*
X231211Y-200097D01*
X230801Y-199563D01*
X230267Y-199153D01*
X229644Y-198895D01*
X228976Y-198807D01*
D02*
G37*
G36*
X224895Y-202414D02*
Y-204239D01*
X226720D01*
X226635Y-203811D01*
X226109Y-203025D01*
X225323Y-202499D01*
X224895Y-202414D01*
D02*
G37*
G36*
X223895D02*
X223467Y-202499D01*
X222680Y-203025D01*
X222155Y-203811D01*
X222070Y-204239D01*
X223895D01*
Y-202414D01*
D02*
G37*
G36*
X308642Y-196669D02*
X307550Y-196813D01*
X306533Y-197234D01*
X305660Y-197905D01*
X304990Y-198778D01*
X304568Y-199795D01*
X304425Y-200887D01*
X304568Y-201978D01*
X304990Y-202995D01*
X305660Y-203869D01*
X306533Y-204539D01*
X307550Y-204960D01*
X308642Y-205104D01*
X309733Y-204960D01*
X310750Y-204539D01*
X311624Y-203869D01*
X312294Y-202995D01*
X312715Y-201978D01*
X312859Y-200887D01*
X312715Y-199795D01*
X312294Y-198778D01*
X311624Y-197905D01*
X310750Y-197234D01*
X309733Y-196813D01*
X308642Y-196669D01*
D02*
G37*
G36*
X250856Y-204743D02*
Y-206568D01*
X252681D01*
X252596Y-206140D01*
X252070Y-205353D01*
X251284Y-204828D01*
X250856Y-204743D01*
D02*
G37*
G36*
X226720Y-205239D02*
X224895D01*
Y-207064D01*
X225323Y-206979D01*
X226109Y-206453D01*
X226635Y-205667D01*
X226720Y-205239D01*
D02*
G37*
G36*
X223895D02*
X222070D01*
X222155Y-205667D01*
X222680Y-206453D01*
X223467Y-206979D01*
X223895Y-207064D01*
Y-205239D01*
D02*
G37*
G36*
X244721Y-207210D02*
X242896D01*
X242981Y-207638D01*
X243507Y-208424D01*
X244293Y-208950D01*
X244721Y-209035D01*
Y-207210D01*
D02*
G37*
G36*
X252681Y-207568D02*
X250856D01*
Y-209393D01*
X251284Y-209308D01*
X252070Y-208782D01*
X252596Y-207996D01*
X252681Y-207568D01*
D02*
G37*
G36*
X247207Y-202075D02*
X242557D01*
X242642Y-202503D01*
X243167Y-203289D01*
X243954Y-203815D01*
X244489Y-203921D01*
Y-204431D01*
X244293Y-204470D01*
X243507Y-204995D01*
X242981Y-205782D01*
X242896Y-206210D01*
X245221D01*
Y-206710D01*
X245721D01*
Y-209035D01*
X246149Y-208950D01*
X246935Y-208424D01*
X247461Y-207638D01*
X247498Y-207451D01*
X248008D01*
X248116Y-207996D01*
X248641Y-208782D01*
X249428Y-209308D01*
X249856Y-209393D01*
Y-207068D01*
Y-204743D01*
X249428Y-204828D01*
X248641Y-205353D01*
X248116Y-206140D01*
X248079Y-206326D01*
X247569D01*
X247461Y-205782D01*
X246935Y-204995D01*
X246149Y-204470D01*
X245614Y-204363D01*
Y-203854D01*
X245810Y-203815D01*
X246596Y-203289D01*
X247122Y-202503D01*
X247207Y-202075D01*
D02*
G37*
G36*
X290354Y-204898D02*
X289686Y-204986D01*
X289064Y-205243D01*
X288529Y-205654D01*
X288119Y-206188D01*
X287861Y-206811D01*
X287773Y-207479D01*
X287861Y-208147D01*
X288119Y-208769D01*
X288529Y-209304D01*
X289064Y-209714D01*
X289686Y-209972D01*
X290354Y-210060D01*
X291022Y-209972D01*
X291645Y-209714D01*
X292179Y-209304D01*
X292590Y-208769D01*
X292847Y-208147D01*
X292935Y-207479D01*
X292847Y-206811D01*
X292590Y-206188D01*
X292179Y-205654D01*
X291645Y-205243D01*
X291022Y-204986D01*
X290354Y-204898D01*
D02*
G37*
G36*
X318642Y-201669D02*
X317550Y-201813D01*
X316533Y-202234D01*
X315660Y-202905D01*
X314989Y-203778D01*
X314568Y-204795D01*
X314424Y-205887D01*
X314568Y-206978D01*
X314989Y-207995D01*
X315660Y-208869D01*
X316533Y-209539D01*
X317550Y-209960D01*
X318642Y-210104D01*
X319733Y-209960D01*
X320750Y-209539D01*
X321624Y-208869D01*
X322294Y-207995D01*
X322715Y-206978D01*
X322859Y-205887D01*
X322715Y-204795D01*
X322294Y-203778D01*
X321624Y-202905D01*
X320750Y-202234D01*
X319733Y-201813D01*
X318642Y-201669D01*
D02*
G37*
G36*
X269882Y-207231D02*
X269214Y-207319D01*
X268591Y-207577D01*
X268057Y-207987D01*
X267647Y-208522D01*
X267389Y-209144D01*
X267301Y-209813D01*
X267389Y-210481D01*
X267647Y-211103D01*
X268057Y-211638D01*
X268591Y-212048D01*
X269214Y-212306D01*
X269882Y-212394D01*
X270550Y-212306D01*
X271172Y-212048D01*
X271707Y-211638D01*
X272117Y-211103D01*
X272375Y-210481D01*
X272463Y-209813D01*
X272375Y-209144D01*
X272117Y-208522D01*
X271707Y-207987D01*
X271172Y-207577D01*
X270550Y-207319D01*
X269882Y-207231D01*
D02*
G37*
G36*
X108531Y-209465D02*
Y-212886D01*
X111952D01*
X111882Y-212354D01*
X111484Y-211392D01*
X110851Y-210567D01*
X110025Y-209933D01*
X109063Y-209535D01*
X108531Y-209465D01*
D02*
G37*
G36*
X107531D02*
X107000Y-209535D01*
X106038Y-209933D01*
X105212Y-210567D01*
X104579Y-211392D01*
X104181Y-212354D01*
X104111Y-212886D01*
X107531D01*
Y-209465D01*
D02*
G37*
G36*
X263738Y-211799D02*
Y-213624D01*
X265563D01*
X265478Y-213196D01*
X264953Y-212410D01*
X264166Y-211884D01*
X263738Y-211799D01*
D02*
G37*
G36*
X239665Y-209427D02*
X238997Y-209515D01*
X238375Y-209773D01*
X237840Y-210183D01*
X237430Y-210717D01*
X237172Y-211340D01*
X237084Y-212008D01*
X237172Y-212676D01*
X237430Y-213298D01*
X237840Y-213833D01*
X238375Y-214243D01*
X238997Y-214501D01*
X239665Y-214589D01*
X240333Y-214501D01*
X240956Y-214243D01*
X241491Y-213833D01*
X241901Y-213298D01*
X242159Y-212676D01*
X242247Y-212008D01*
X242159Y-211340D01*
X241901Y-210717D01*
X241491Y-210183D01*
X240956Y-209773D01*
X240333Y-209515D01*
X239665Y-209427D01*
D02*
G37*
G36*
X265563Y-214624D02*
X263738D01*
Y-216449D01*
X264166Y-216364D01*
X264953Y-215838D01*
X265478Y-215052D01*
X265563Y-214624D01*
D02*
G37*
G36*
X259350Y-211592D02*
X258682Y-211680D01*
X258060Y-211938D01*
X257525Y-212348D01*
X257115Y-212883D01*
X256857Y-213505D01*
X256769Y-214173D01*
X256857Y-214841D01*
X257115Y-215464D01*
X257525Y-215998D01*
X258060Y-216409D01*
X258682Y-216666D01*
X259350Y-216754D01*
X260018Y-216666D01*
X260641Y-216409D01*
X261079Y-216073D01*
X261524Y-215838D01*
X262310Y-216364D01*
X262738Y-216449D01*
Y-214124D01*
Y-211799D01*
X262310Y-211884D01*
X261524Y-212410D01*
X261035Y-212241D01*
X260641Y-211938D01*
X260018Y-211680D01*
X259350Y-211592D01*
D02*
G37*
G36*
X208179Y-195224D02*
X207511Y-195311D01*
X206888Y-195569D01*
X206354Y-195980D01*
X205943Y-196514D01*
X205686Y-197137D01*
X205598Y-197805D01*
X205686Y-198473D01*
X205943Y-199095D01*
X206354Y-199630D01*
X206888Y-200040D01*
X207398Y-200251D01*
X207402Y-200708D01*
X207388Y-200761D01*
X206780Y-201013D01*
X206246Y-201423D01*
X205836Y-201958D01*
X205578Y-202580D01*
X205490Y-203248D01*
X205578Y-203916D01*
X205836Y-204539D01*
X206246Y-205073D01*
X206780Y-205483D01*
X207403Y-205741D01*
X207797Y-205793D01*
Y-206297D01*
X207511Y-206335D01*
X206888Y-206593D01*
X206354Y-207003D01*
X205943Y-207538D01*
X205686Y-208160D01*
X205598Y-208828D01*
X205686Y-209496D01*
X205943Y-210119D01*
X206354Y-210653D01*
X206888Y-211064D01*
X207511Y-211321D01*
X207634Y-211338D01*
Y-211842D01*
X207403Y-211873D01*
X206780Y-212130D01*
X206246Y-212541D01*
X205836Y-213075D01*
X205578Y-213698D01*
X205490Y-214366D01*
X205578Y-215034D01*
X205836Y-215656D01*
X206246Y-216191D01*
X206780Y-216601D01*
X207403Y-216859D01*
X208071Y-216947D01*
X208739Y-216859D01*
X209361Y-216601D01*
X209896Y-216191D01*
X210306Y-215656D01*
X210564Y-215034D01*
X210652Y-214366D01*
X210564Y-213698D01*
X210306Y-213075D01*
X209896Y-212541D01*
X209361Y-212130D01*
X208739Y-211873D01*
X208615Y-211856D01*
Y-211352D01*
X208847Y-211321D01*
X209469Y-211064D01*
X210004Y-210653D01*
X210414Y-210119D01*
X210672Y-209496D01*
X210760Y-208828D01*
X210672Y-208160D01*
X210414Y-207538D01*
X210004Y-207003D01*
X209469Y-206593D01*
X208847Y-206335D01*
X208452Y-206283D01*
Y-205779D01*
X208739Y-205741D01*
X209361Y-205483D01*
X209896Y-205073D01*
X210306Y-204539D01*
X210564Y-203916D01*
X210652Y-203248D01*
X210564Y-202580D01*
X210306Y-201958D01*
X209896Y-201423D01*
X209361Y-201013D01*
X208852Y-200802D01*
X208847Y-200344D01*
X208861Y-200292D01*
X209469Y-200040D01*
X210004Y-199630D01*
X210414Y-199095D01*
X210672Y-198473D01*
X210760Y-197805D01*
X210672Y-197137D01*
X210414Y-196514D01*
X210004Y-195980D01*
X209469Y-195569D01*
X208847Y-195311D01*
X208179Y-195224D01*
D02*
G37*
G36*
X111952Y-213886D02*
X108531D01*
Y-217307D01*
X109063Y-217237D01*
X110025Y-216839D01*
X110851Y-216205D01*
X111484Y-215379D01*
X111882Y-214418D01*
X111952Y-213886D01*
D02*
G37*
G36*
X107531D02*
X104111D01*
X104181Y-214418D01*
X104579Y-215379D01*
X105212Y-216205D01*
X106038Y-216839D01*
X107000Y-217237D01*
X107531Y-217307D01*
Y-213886D01*
D02*
G37*
G36*
X165756Y-215490D02*
Y-217315D01*
X167581D01*
X167496Y-216887D01*
X166970Y-216101D01*
X166184Y-215575D01*
X165756Y-215490D01*
D02*
G37*
G36*
X164756D02*
X164328Y-215575D01*
X163541Y-216101D01*
X163016Y-216887D01*
X162931Y-217315D01*
X164756D01*
Y-215490D01*
D02*
G37*
G36*
X118032Y-209216D02*
X116952Y-209358D01*
X115947Y-209775D01*
X115083Y-210437D01*
X114421Y-211301D01*
X114004Y-212307D01*
X113862Y-213386D01*
X114004Y-214465D01*
X114421Y-215471D01*
X115083Y-216334D01*
X115947Y-216997D01*
X116952Y-217413D01*
X118032Y-217555D01*
X119111Y-217413D01*
X120116Y-216997D01*
X120980Y-216334D01*
X121642Y-215471D01*
X122059Y-214465D01*
X122201Y-213386D01*
X122059Y-212307D01*
X121642Y-211301D01*
X120980Y-210437D01*
X120116Y-209775D01*
X119111Y-209358D01*
X118032Y-209216D01*
D02*
G37*
G36*
X98032D02*
X96952Y-209358D01*
X95947Y-209775D01*
X95083Y-210437D01*
X94421Y-211301D01*
X94004Y-212307D01*
X93862Y-213386D01*
X94004Y-214465D01*
X94421Y-215471D01*
X95083Y-216334D01*
X95947Y-216997D01*
X96952Y-217413D01*
X98032Y-217555D01*
X99111Y-217413D01*
X100116Y-216997D01*
X100980Y-216334D01*
X101642Y-215471D01*
X102059Y-214465D01*
X102201Y-213386D01*
X102059Y-212307D01*
X101642Y-211301D01*
X100980Y-210437D01*
X100116Y-209775D01*
X99111Y-209358D01*
X98032Y-209216D01*
D02*
G37*
G36*
X236997Y-215884D02*
Y-217709D01*
X238822D01*
X238737Y-217281D01*
X238211Y-216494D01*
X237425Y-215969D01*
X236997Y-215884D01*
D02*
G37*
G36*
X235997D02*
X235569Y-215969D01*
X234783Y-216494D01*
X234257Y-217281D01*
X234172Y-217709D01*
X235997D01*
Y-215884D01*
D02*
G37*
G36*
X42626Y-216573D02*
Y-218398D01*
X44451D01*
X44366Y-217970D01*
X43840Y-217183D01*
X43054Y-216658D01*
X42626Y-216573D01*
D02*
G37*
G36*
X41626D02*
X41198Y-216658D01*
X40412Y-217183D01*
X39886Y-217970D01*
X39801Y-218398D01*
X41626D01*
Y-216573D01*
D02*
G37*
G36*
X167581Y-218315D02*
X165756D01*
Y-220140D01*
X166184Y-220055D01*
X166970Y-219529D01*
X167496Y-218743D01*
X167581Y-218315D01*
D02*
G37*
G36*
X164756D02*
X162931D01*
X163016Y-218743D01*
X163541Y-219529D01*
X164328Y-220055D01*
X164756Y-220140D01*
Y-218315D01*
D02*
G37*
G36*
X288689Y-218541D02*
Y-220366D01*
X290514D01*
X290429Y-219938D01*
X289903Y-219152D01*
X289117Y-218626D01*
X288689Y-218541D01*
D02*
G37*
G36*
X287689D02*
X287261Y-218626D01*
X286475Y-219152D01*
X285949Y-219938D01*
X285864Y-220366D01*
X287689D01*
Y-218541D01*
D02*
G37*
G36*
X263492D02*
Y-220366D01*
X265317D01*
X265232Y-219938D01*
X264706Y-219152D01*
X263920Y-218626D01*
X263492Y-218541D01*
D02*
G37*
G36*
X238822Y-218709D02*
X236997D01*
Y-220534D01*
X237425Y-220449D01*
X238211Y-219923D01*
X238737Y-219137D01*
X238822Y-218709D01*
D02*
G37*
G36*
X235997D02*
X234172D01*
X234257Y-219137D01*
X234783Y-219923D01*
X235569Y-220449D01*
X235997Y-220534D01*
Y-218709D01*
D02*
G37*
G36*
X44451Y-219398D02*
X42626D01*
Y-221223D01*
X43054Y-221138D01*
X43840Y-220612D01*
X44366Y-219826D01*
X44451Y-219398D01*
D02*
G37*
G36*
X41626D02*
X39801D01*
X39886Y-219826D01*
X40412Y-220612D01*
X41198Y-221138D01*
X41626Y-221223D01*
Y-219398D01*
D02*
G37*
G36*
X368216Y-3384D02*
Y-5209D01*
X370041D01*
X369956Y-4781D01*
X369431Y-3994D01*
X368644Y-3469D01*
X368216Y-3384D01*
D02*
G37*
G36*
X367216D02*
X366789Y-3469D01*
X366002Y-3994D01*
X365476Y-4781D01*
X365391Y-5209D01*
X367216D01*
Y-3384D01*
D02*
G37*
G36*
X356532D02*
Y-5209D01*
X358358D01*
X358272Y-4781D01*
X357747Y-3994D01*
X356960Y-3469D01*
X356532Y-3384D01*
D02*
G37*
G36*
X355532D02*
X355105Y-3469D01*
X354318Y-3994D01*
X353792Y-4781D01*
X353707Y-5209D01*
X355532D01*
Y-3384D01*
D02*
G37*
G36*
X344848D02*
Y-5209D01*
X346673D01*
X346588Y-4781D01*
X346063Y-3994D01*
X345276Y-3469D01*
X344848Y-3384D01*
D02*
G37*
G36*
X343848D02*
X343421Y-3469D01*
X342634Y-3994D01*
X342108Y-4781D01*
X342023Y-5209D01*
X343848D01*
Y-3384D01*
D02*
G37*
G36*
X333164D02*
Y-5209D01*
X334989D01*
X334904Y-4781D01*
X334379Y-3994D01*
X333592Y-3469D01*
X333164Y-3384D01*
D02*
G37*
G36*
X332164D02*
X331736Y-3469D01*
X330950Y-3994D01*
X330424Y-4781D01*
X330339Y-5209D01*
X332164D01*
Y-3384D01*
D02*
G37*
G36*
X321480D02*
Y-5209D01*
X323305D01*
X323220Y-4781D01*
X322695Y-3994D01*
X321908Y-3469D01*
X321480Y-3384D01*
D02*
G37*
G36*
X320480D02*
X320053Y-3469D01*
X319266Y-3994D01*
X318740Y-4781D01*
X318655Y-5209D01*
X320480D01*
Y-3384D01*
D02*
G37*
G36*
X309796D02*
Y-5209D01*
X311621D01*
X311536Y-4781D01*
X311011Y-3994D01*
X310224Y-3469D01*
X309796Y-3384D01*
D02*
G37*
G36*
X308796D02*
X308368Y-3469D01*
X307582Y-3994D01*
X307056Y-4781D01*
X306971Y-5209D01*
X308796D01*
Y-3384D01*
D02*
G37*
G36*
X298112D02*
Y-5209D01*
X299937D01*
X299852Y-4781D01*
X299327Y-3994D01*
X298540Y-3469D01*
X298112Y-3384D01*
D02*
G37*
G36*
X297112D02*
X296685Y-3469D01*
X295898Y-3994D01*
X295372Y-4781D01*
X295287Y-5209D01*
X297112D01*
Y-3384D01*
D02*
G37*
G36*
X286428D02*
Y-5209D01*
X288253D01*
X288168Y-4781D01*
X287643Y-3994D01*
X286856Y-3469D01*
X286428Y-3384D01*
D02*
G37*
G36*
X285428D02*
X285000Y-3469D01*
X284214Y-3994D01*
X283688Y-4781D01*
X283603Y-5209D01*
X285428D01*
Y-3384D01*
D02*
G37*
G36*
X274744D02*
Y-5209D01*
X276569D01*
X276484Y-4781D01*
X275959Y-3994D01*
X275172Y-3469D01*
X274744Y-3384D01*
D02*
G37*
G36*
X273744D02*
X273316Y-3469D01*
X272530Y-3994D01*
X272004Y-4781D01*
X271919Y-5209D01*
X273744D01*
Y-3384D01*
D02*
G37*
G36*
X263060D02*
Y-5209D01*
X264885D01*
X264800Y-4781D01*
X264275Y-3994D01*
X263488Y-3469D01*
X263060Y-3384D01*
D02*
G37*
G36*
X262060D02*
X261632Y-3469D01*
X260846Y-3994D01*
X260320Y-4781D01*
X260235Y-5209D01*
X262060D01*
Y-3384D01*
D02*
G37*
G36*
X251376D02*
Y-5209D01*
X253201D01*
X253116Y-4781D01*
X252591Y-3994D01*
X251804Y-3469D01*
X251376Y-3384D01*
D02*
G37*
G36*
X250376D02*
X249948Y-3469D01*
X249162Y-3994D01*
X248636Y-4781D01*
X248551Y-5209D01*
X250376D01*
Y-3384D01*
D02*
G37*
G36*
X239692D02*
Y-5209D01*
X241517D01*
X241432Y-4781D01*
X240907Y-3994D01*
X240120Y-3469D01*
X239692Y-3384D01*
D02*
G37*
G36*
X238692D02*
X238264Y-3469D01*
X237478Y-3994D01*
X236952Y-4781D01*
X236867Y-5209D01*
X238692D01*
Y-3384D01*
D02*
G37*
G36*
X228008D02*
Y-5209D01*
X229833D01*
X229748Y-4781D01*
X229223Y-3994D01*
X228436Y-3469D01*
X228008Y-3384D01*
D02*
G37*
G36*
X227008D02*
X226580Y-3469D01*
X225794Y-3994D01*
X225268Y-4781D01*
X225183Y-5209D01*
X227008D01*
Y-3384D01*
D02*
G37*
G36*
X216324D02*
Y-5209D01*
X218149D01*
X218064Y-4781D01*
X217539Y-3994D01*
X216752Y-3469D01*
X216324Y-3384D01*
D02*
G37*
G36*
X215324D02*
X214896Y-3469D01*
X214110Y-3994D01*
X213584Y-4781D01*
X213499Y-5209D01*
X215324D01*
Y-3384D01*
D02*
G37*
G36*
X204640D02*
Y-5209D01*
X206465D01*
X206380Y-4781D01*
X205855Y-3994D01*
X205068Y-3469D01*
X204640Y-3384D01*
D02*
G37*
G36*
X203640D02*
X203212Y-3469D01*
X202426Y-3994D01*
X201900Y-4781D01*
X201815Y-5209D01*
X203640D01*
Y-3384D01*
D02*
G37*
G36*
X192956D02*
Y-5209D01*
X194781D01*
X194696Y-4781D01*
X194170Y-3994D01*
X193384Y-3469D01*
X192956Y-3384D01*
D02*
G37*
G36*
X191956D02*
X191528Y-3469D01*
X190742Y-3994D01*
X190216Y-4781D01*
X190131Y-5209D01*
X191956D01*
Y-3384D01*
D02*
G37*
G36*
X181272D02*
Y-5209D01*
X183097D01*
X183012Y-4781D01*
X182486Y-3994D01*
X181700Y-3469D01*
X181272Y-3384D01*
D02*
G37*
G36*
X180272D02*
X179844Y-3469D01*
X179058Y-3994D01*
X178532Y-4781D01*
X178447Y-5209D01*
X180272D01*
Y-3384D01*
D02*
G37*
G36*
X169588D02*
Y-5209D01*
X171413D01*
X171328Y-4781D01*
X170802Y-3994D01*
X170016Y-3469D01*
X169588Y-3384D01*
D02*
G37*
G36*
X168588D02*
X168160Y-3469D01*
X167374Y-3994D01*
X166848Y-4781D01*
X166763Y-5209D01*
X168588D01*
Y-3384D01*
D02*
G37*
G36*
X157904D02*
Y-5209D01*
X159729D01*
X159644Y-4781D01*
X159118Y-3994D01*
X158332Y-3469D01*
X157904Y-3384D01*
D02*
G37*
G36*
X156904D02*
X156476Y-3469D01*
X155690Y-3994D01*
X155164Y-4781D01*
X155079Y-5209D01*
X156904D01*
Y-3384D01*
D02*
G37*
G36*
X146220D02*
Y-5209D01*
X148045D01*
X147960Y-4781D01*
X147434Y-3994D01*
X146648Y-3469D01*
X146220Y-3384D01*
D02*
G37*
G36*
X145220D02*
X144792Y-3469D01*
X144006Y-3994D01*
X143480Y-4781D01*
X143395Y-5209D01*
X145220D01*
Y-3384D01*
D02*
G37*
G36*
X134536D02*
Y-5209D01*
X136361D01*
X136276Y-4781D01*
X135750Y-3994D01*
X134964Y-3469D01*
X134536Y-3384D01*
D02*
G37*
G36*
X133536D02*
X133108Y-3469D01*
X132322Y-3994D01*
X131796Y-4781D01*
X131711Y-5209D01*
X133536D01*
Y-3384D01*
D02*
G37*
G36*
X122852D02*
Y-5209D01*
X124677D01*
X124592Y-4781D01*
X124066Y-3994D01*
X123280Y-3469D01*
X122852Y-3384D01*
D02*
G37*
G36*
X121852D02*
X121424Y-3469D01*
X120638Y-3994D01*
X120112Y-4781D01*
X120027Y-5209D01*
X121852D01*
Y-3384D01*
D02*
G37*
G36*
X111168D02*
Y-5209D01*
X112993D01*
X112908Y-4781D01*
X112382Y-3994D01*
X111596Y-3469D01*
X111168Y-3384D01*
D02*
G37*
G36*
X110168D02*
X109740Y-3469D01*
X108954Y-3994D01*
X108428Y-4781D01*
X108343Y-5209D01*
X110168D01*
Y-3384D01*
D02*
G37*
G36*
X99484D02*
Y-5209D01*
X101309D01*
X101224Y-4781D01*
X100698Y-3994D01*
X99912Y-3469D01*
X99484Y-3384D01*
D02*
G37*
G36*
X98484D02*
X98056Y-3469D01*
X97270Y-3994D01*
X96744Y-4781D01*
X96659Y-5209D01*
X98484D01*
Y-3384D01*
D02*
G37*
G36*
X87800D02*
Y-5209D01*
X89625D01*
X89540Y-4781D01*
X89014Y-3994D01*
X88228Y-3469D01*
X87800Y-3384D01*
D02*
G37*
G36*
X86800D02*
X86372Y-3469D01*
X85585Y-3994D01*
X85060Y-4781D01*
X84975Y-5209D01*
X86800D01*
Y-3384D01*
D02*
G37*
G36*
X76116D02*
Y-5209D01*
X77941D01*
X77856Y-4781D01*
X77330Y-3994D01*
X76544Y-3469D01*
X76116Y-3384D01*
D02*
G37*
G36*
X75116D02*
X74688Y-3469D01*
X73901Y-3994D01*
X73376Y-4781D01*
X73291Y-5209D01*
X75116D01*
Y-3384D01*
D02*
G37*
G36*
X64432D02*
Y-5209D01*
X66257D01*
X66172Y-4781D01*
X65646Y-3994D01*
X64860Y-3469D01*
X64432Y-3384D01*
D02*
G37*
G36*
X63432D02*
X63004Y-3469D01*
X62217Y-3994D01*
X61692Y-4781D01*
X61607Y-5209D01*
X63432D01*
Y-3384D01*
D02*
G37*
G36*
X52748D02*
Y-5209D01*
X54573D01*
X54488Y-4781D01*
X53962Y-3994D01*
X53176Y-3469D01*
X52748Y-3384D01*
D02*
G37*
G36*
X51748D02*
X51320Y-3469D01*
X50533Y-3994D01*
X50008Y-4781D01*
X49923Y-5209D01*
X51748D01*
Y-3384D01*
D02*
G37*
G36*
X41064D02*
Y-5209D01*
X42889D01*
X42804Y-4781D01*
X42278Y-3994D01*
X41492Y-3469D01*
X41064Y-3384D01*
D02*
G37*
G36*
X40064D02*
X39636Y-3469D01*
X38849Y-3994D01*
X38324Y-4781D01*
X38239Y-5209D01*
X40064D01*
Y-3384D01*
D02*
G37*
G36*
X29380D02*
Y-5209D01*
X31205D01*
X31120Y-4781D01*
X30594Y-3994D01*
X29808Y-3469D01*
X29380Y-3384D01*
D02*
G37*
G36*
X28380D02*
X27952Y-3469D01*
X27165Y-3994D01*
X26640Y-4781D01*
X26555Y-5209D01*
X28380D01*
Y-3384D01*
D02*
G37*
G36*
X17696D02*
Y-5209D01*
X19521D01*
X19436Y-4781D01*
X18910Y-3994D01*
X18124Y-3469D01*
X17696Y-3384D01*
D02*
G37*
G36*
X16696D02*
X16268Y-3469D01*
X15481Y-3994D01*
X14956Y-4781D01*
X14871Y-5209D01*
X16696D01*
Y-3384D01*
D02*
G37*
G36*
X6012D02*
Y-5209D01*
X7837D01*
X7752Y-4781D01*
X7226Y-3994D01*
X6440Y-3469D01*
X6012Y-3384D01*
D02*
G37*
G36*
X5012D02*
X4584Y-3469D01*
X3797Y-3994D01*
X3272Y-4781D01*
X3187Y-5209D01*
X5012D01*
Y-3384D01*
D02*
G37*
G36*
X370041Y-6209D02*
X368216D01*
Y-8034D01*
X368644Y-7949D01*
X369431Y-7423D01*
X369956Y-6637D01*
X370041Y-6209D01*
D02*
G37*
G36*
X367216D02*
X365391D01*
X365476Y-6637D01*
X366002Y-7423D01*
X366789Y-7949D01*
X367216Y-8034D01*
Y-6209D01*
D02*
G37*
G36*
X358358D02*
X356532D01*
Y-8034D01*
X356960Y-7949D01*
X357747Y-7423D01*
X358272Y-6637D01*
X358358Y-6209D01*
D02*
G37*
G36*
X355532D02*
X353707D01*
X353792Y-6637D01*
X354318Y-7423D01*
X355105Y-7949D01*
X355532Y-8034D01*
Y-6209D01*
D02*
G37*
G36*
X346673D02*
X344848D01*
Y-8034D01*
X345276Y-7949D01*
X346063Y-7423D01*
X346588Y-6637D01*
X346673Y-6209D01*
D02*
G37*
G36*
X343848D02*
X342023D01*
X342108Y-6637D01*
X342634Y-7423D01*
X343421Y-7949D01*
X343848Y-8034D01*
Y-6209D01*
D02*
G37*
G36*
X334989D02*
X333164D01*
Y-8034D01*
X333592Y-7949D01*
X334379Y-7423D01*
X334904Y-6637D01*
X334989Y-6209D01*
D02*
G37*
G36*
X332164D02*
X330339D01*
X330424Y-6637D01*
X330950Y-7423D01*
X331736Y-7949D01*
X332164Y-8034D01*
Y-6209D01*
D02*
G37*
G36*
X323305D02*
X321480D01*
Y-8034D01*
X321908Y-7949D01*
X322695Y-7423D01*
X323220Y-6637D01*
X323305Y-6209D01*
D02*
G37*
G36*
X320480D02*
X318655D01*
X318740Y-6637D01*
X319266Y-7423D01*
X320053Y-7949D01*
X320480Y-8034D01*
Y-6209D01*
D02*
G37*
G36*
X311621D02*
X309796D01*
Y-8034D01*
X310224Y-7949D01*
X311011Y-7423D01*
X311536Y-6637D01*
X311621Y-6209D01*
D02*
G37*
G36*
X308796D02*
X306971D01*
X307056Y-6637D01*
X307582Y-7423D01*
X308368Y-7949D01*
X308796Y-8034D01*
Y-6209D01*
D02*
G37*
G36*
X299937D02*
X298112D01*
Y-8034D01*
X298540Y-7949D01*
X299327Y-7423D01*
X299852Y-6637D01*
X299937Y-6209D01*
D02*
G37*
G36*
X297112D02*
X295287D01*
X295372Y-6637D01*
X295898Y-7423D01*
X296685Y-7949D01*
X297112Y-8034D01*
Y-6209D01*
D02*
G37*
G36*
X288253D02*
X286428D01*
Y-8034D01*
X286856Y-7949D01*
X287643Y-7423D01*
X288168Y-6637D01*
X288253Y-6209D01*
D02*
G37*
G36*
X285428D02*
X283603D01*
X283688Y-6637D01*
X284214Y-7423D01*
X285000Y-7949D01*
X285428Y-8034D01*
Y-6209D01*
D02*
G37*
G36*
X276569D02*
X274744D01*
Y-8034D01*
X275172Y-7949D01*
X275959Y-7423D01*
X276484Y-6637D01*
X276569Y-6209D01*
D02*
G37*
G36*
X273744D02*
X271919D01*
X272004Y-6637D01*
X272530Y-7423D01*
X273316Y-7949D01*
X273744Y-8034D01*
Y-6209D01*
D02*
G37*
G36*
X264885D02*
X263060D01*
Y-8034D01*
X263488Y-7949D01*
X264275Y-7423D01*
X264800Y-6637D01*
X264885Y-6209D01*
D02*
G37*
G36*
X262060D02*
X260235D01*
X260320Y-6637D01*
X260846Y-7423D01*
X261632Y-7949D01*
X262060Y-8034D01*
Y-6209D01*
D02*
G37*
G36*
X253201D02*
X251376D01*
Y-8034D01*
X251804Y-7949D01*
X252591Y-7423D01*
X253116Y-6637D01*
X253201Y-6209D01*
D02*
G37*
G36*
X250376D02*
X248551D01*
X248636Y-6637D01*
X249162Y-7423D01*
X249948Y-7949D01*
X250376Y-8034D01*
Y-6209D01*
D02*
G37*
G36*
X241517D02*
X239692D01*
Y-8034D01*
X240120Y-7949D01*
X240907Y-7423D01*
X241432Y-6637D01*
X241517Y-6209D01*
D02*
G37*
G36*
X238692D02*
X236867D01*
X236952Y-6637D01*
X237478Y-7423D01*
X238264Y-7949D01*
X238692Y-8034D01*
Y-6209D01*
D02*
G37*
G36*
X229833D02*
X228008D01*
Y-8034D01*
X228436Y-7949D01*
X229223Y-7423D01*
X229748Y-6637D01*
X229833Y-6209D01*
D02*
G37*
G36*
X227008D02*
X225183D01*
X225268Y-6637D01*
X225794Y-7423D01*
X226580Y-7949D01*
X227008Y-8034D01*
Y-6209D01*
D02*
G37*
G36*
X218149D02*
X216324D01*
Y-8034D01*
X216752Y-7949D01*
X217539Y-7423D01*
X218064Y-6637D01*
X218149Y-6209D01*
D02*
G37*
G36*
X215324D02*
X213499D01*
X213584Y-6637D01*
X214110Y-7423D01*
X214896Y-7949D01*
X215324Y-8034D01*
Y-6209D01*
D02*
G37*
G36*
X206465D02*
X204640D01*
Y-8034D01*
X205068Y-7949D01*
X205855Y-7423D01*
X206380Y-6637D01*
X206465Y-6209D01*
D02*
G37*
G36*
X203640D02*
X201815D01*
X201900Y-6637D01*
X202426Y-7423D01*
X203212Y-7949D01*
X203640Y-8034D01*
Y-6209D01*
D02*
G37*
G36*
X194781D02*
X192956D01*
Y-8034D01*
X193384Y-7949D01*
X194170Y-7423D01*
X194696Y-6637D01*
X194781Y-6209D01*
D02*
G37*
G36*
X191956D02*
X190131D01*
X190216Y-6637D01*
X190742Y-7423D01*
X191528Y-7949D01*
X191956Y-8034D01*
Y-6209D01*
D02*
G37*
G36*
X183097D02*
X181272D01*
Y-8034D01*
X181700Y-7949D01*
X182486Y-7423D01*
X183012Y-6637D01*
X183097Y-6209D01*
D02*
G37*
G36*
X180272D02*
X178447D01*
X178532Y-6637D01*
X179058Y-7423D01*
X179844Y-7949D01*
X180272Y-8034D01*
Y-6209D01*
D02*
G37*
G36*
X171413D02*
X169588D01*
Y-8034D01*
X170016Y-7949D01*
X170802Y-7423D01*
X171328Y-6637D01*
X171413Y-6209D01*
D02*
G37*
G36*
X168588D02*
X166763D01*
X166848Y-6637D01*
X167374Y-7423D01*
X168160Y-7949D01*
X168588Y-8034D01*
Y-6209D01*
D02*
G37*
G36*
X159729D02*
X157904D01*
Y-8034D01*
X158332Y-7949D01*
X159118Y-7423D01*
X159644Y-6637D01*
X159729Y-6209D01*
D02*
G37*
G36*
X156904D02*
X155079D01*
X155164Y-6637D01*
X155690Y-7423D01*
X156476Y-7949D01*
X156904Y-8034D01*
Y-6209D01*
D02*
G37*
G36*
X148045D02*
X146220D01*
Y-8034D01*
X146648Y-7949D01*
X147434Y-7423D01*
X147960Y-6637D01*
X148045Y-6209D01*
D02*
G37*
G36*
X145220D02*
X143395D01*
X143480Y-6637D01*
X144006Y-7423D01*
X144792Y-7949D01*
X145220Y-8034D01*
Y-6209D01*
D02*
G37*
G36*
X136361D02*
X134536D01*
Y-8034D01*
X134964Y-7949D01*
X135750Y-7423D01*
X136276Y-6637D01*
X136361Y-6209D01*
D02*
G37*
G36*
X133536D02*
X131711D01*
X131796Y-6637D01*
X132322Y-7423D01*
X133108Y-7949D01*
X133536Y-8034D01*
Y-6209D01*
D02*
G37*
G36*
X124677D02*
X122852D01*
Y-8034D01*
X123280Y-7949D01*
X124066Y-7423D01*
X124592Y-6637D01*
X124677Y-6209D01*
D02*
G37*
G36*
X121852D02*
X120027D01*
X120112Y-6637D01*
X120638Y-7423D01*
X121424Y-7949D01*
X121852Y-8034D01*
Y-6209D01*
D02*
G37*
G36*
X112993D02*
X111168D01*
Y-8034D01*
X111596Y-7949D01*
X112382Y-7423D01*
X112908Y-6637D01*
X112993Y-6209D01*
D02*
G37*
G36*
X110168D02*
X108343D01*
X108428Y-6637D01*
X108954Y-7423D01*
X109740Y-7949D01*
X110168Y-8034D01*
Y-6209D01*
D02*
G37*
G36*
X101309D02*
X99484D01*
Y-8034D01*
X99912Y-7949D01*
X100698Y-7423D01*
X101224Y-6637D01*
X101309Y-6209D01*
D02*
G37*
G36*
X98484D02*
X96659D01*
X96744Y-6637D01*
X97270Y-7423D01*
X98056Y-7949D01*
X98484Y-8034D01*
Y-6209D01*
D02*
G37*
G36*
X89625D02*
X87800D01*
Y-8034D01*
X88228Y-7949D01*
X89014Y-7423D01*
X89540Y-6637D01*
X89625Y-6209D01*
D02*
G37*
G36*
X86800D02*
X84975D01*
X85060Y-6637D01*
X85585Y-7423D01*
X86372Y-7949D01*
X86800Y-8034D01*
Y-6209D01*
D02*
G37*
G36*
X77941D02*
X76116D01*
Y-8034D01*
X76544Y-7949D01*
X77330Y-7423D01*
X77856Y-6637D01*
X77941Y-6209D01*
D02*
G37*
G36*
X75116D02*
X73291D01*
X73376Y-6637D01*
X73901Y-7423D01*
X74688Y-7949D01*
X75116Y-8034D01*
Y-6209D01*
D02*
G37*
G36*
X66257D02*
X64432D01*
Y-8034D01*
X64860Y-7949D01*
X65646Y-7423D01*
X66172Y-6637D01*
X66257Y-6209D01*
D02*
G37*
G36*
X63432D02*
X61607D01*
X61692Y-6637D01*
X62217Y-7423D01*
X63004Y-7949D01*
X63432Y-8034D01*
Y-6209D01*
D02*
G37*
G36*
X54573D02*
X52748D01*
Y-8034D01*
X53176Y-7949D01*
X53962Y-7423D01*
X54488Y-6637D01*
X54573Y-6209D01*
D02*
G37*
G36*
X51748D02*
X49923D01*
X50008Y-6637D01*
X50533Y-7423D01*
X51320Y-7949D01*
X51748Y-8034D01*
Y-6209D01*
D02*
G37*
G36*
X42889D02*
X41064D01*
Y-8034D01*
X41492Y-7949D01*
X42278Y-7423D01*
X42804Y-6637D01*
X42889Y-6209D01*
D02*
G37*
G36*
X40064D02*
X38239D01*
X38324Y-6637D01*
X38849Y-7423D01*
X39636Y-7949D01*
X40064Y-8034D01*
Y-6209D01*
D02*
G37*
G36*
X31205D02*
X29380D01*
Y-8034D01*
X29808Y-7949D01*
X30594Y-7423D01*
X31120Y-6637D01*
X31205Y-6209D01*
D02*
G37*
G36*
X28380D02*
X26555D01*
X26640Y-6637D01*
X27165Y-7423D01*
X27952Y-7949D01*
X28380Y-8034D01*
Y-6209D01*
D02*
G37*
G36*
X19521D02*
X17696D01*
Y-8034D01*
X18124Y-7949D01*
X18910Y-7423D01*
X19436Y-6637D01*
X19521Y-6209D01*
D02*
G37*
G36*
X16696D02*
X14871D01*
X14956Y-6637D01*
X15481Y-7423D01*
X16268Y-7949D01*
X16696Y-8034D01*
Y-6209D01*
D02*
G37*
G36*
X7837D02*
X6012D01*
Y-8034D01*
X6440Y-7949D01*
X7226Y-7423D01*
X7752Y-6637D01*
X7837Y-6209D01*
D02*
G37*
G36*
X5012D02*
X3187D01*
X3272Y-6637D01*
X3797Y-7423D01*
X4584Y-7949D01*
X5012Y-8034D01*
Y-6209D01*
D02*
G37*
G36*
X368216Y-228187D02*
Y-230012D01*
X370041D01*
X369956Y-229584D01*
X369431Y-228797D01*
X368644Y-228272D01*
X368216Y-228187D01*
D02*
G37*
G36*
X367216D02*
X366789Y-228272D01*
X366002Y-228797D01*
X365476Y-229584D01*
X365391Y-230012D01*
X367216D01*
Y-228187D01*
D02*
G37*
G36*
X356532D02*
Y-230012D01*
X358358D01*
X358272Y-229584D01*
X357747Y-228797D01*
X356960Y-228272D01*
X356532Y-228187D01*
D02*
G37*
G36*
X355532D02*
X355105Y-228272D01*
X354318Y-228797D01*
X353792Y-229584D01*
X353707Y-230012D01*
X355532D01*
Y-228187D01*
D02*
G37*
G36*
X344848D02*
Y-230012D01*
X346673D01*
X346588Y-229584D01*
X346063Y-228797D01*
X345276Y-228272D01*
X344848Y-228187D01*
D02*
G37*
G36*
X343848D02*
X343421Y-228272D01*
X342634Y-228797D01*
X342108Y-229584D01*
X342023Y-230012D01*
X343848D01*
Y-228187D01*
D02*
G37*
G36*
X333164D02*
Y-230012D01*
X334989D01*
X334904Y-229584D01*
X334379Y-228797D01*
X333592Y-228272D01*
X333164Y-228187D01*
D02*
G37*
G36*
X332164D02*
X331736Y-228272D01*
X330950Y-228797D01*
X330424Y-229584D01*
X330339Y-230012D01*
X332164D01*
Y-228187D01*
D02*
G37*
G36*
X321480D02*
Y-230012D01*
X323305D01*
X323220Y-229584D01*
X322695Y-228797D01*
X321908Y-228272D01*
X321480Y-228187D01*
D02*
G37*
G36*
X320480D02*
X320053Y-228272D01*
X319266Y-228797D01*
X318740Y-229584D01*
X318655Y-230012D01*
X320480D01*
Y-228187D01*
D02*
G37*
G36*
X309796D02*
Y-230012D01*
X311621D01*
X311536Y-229584D01*
X311011Y-228797D01*
X310224Y-228272D01*
X309796Y-228187D01*
D02*
G37*
G36*
X308796D02*
X308368Y-228272D01*
X307582Y-228797D01*
X307056Y-229584D01*
X306971Y-230012D01*
X308796D01*
Y-228187D01*
D02*
G37*
G36*
X298112D02*
Y-230012D01*
X299937D01*
X299852Y-229584D01*
X299327Y-228797D01*
X298540Y-228272D01*
X298112Y-228187D01*
D02*
G37*
G36*
X297112D02*
X296685Y-228272D01*
X295898Y-228797D01*
X295372Y-229584D01*
X295287Y-230012D01*
X297112D01*
Y-228187D01*
D02*
G37*
G36*
X286428D02*
Y-230012D01*
X288253D01*
X288168Y-229584D01*
X287643Y-228797D01*
X286856Y-228272D01*
X286428Y-228187D01*
D02*
G37*
G36*
X285428D02*
X285000Y-228272D01*
X284214Y-228797D01*
X283688Y-229584D01*
X283603Y-230012D01*
X285428D01*
Y-228187D01*
D02*
G37*
G36*
X274744D02*
Y-230012D01*
X276569D01*
X276484Y-229584D01*
X275959Y-228797D01*
X275172Y-228272D01*
X274744Y-228187D01*
D02*
G37*
G36*
X273744D02*
X273316Y-228272D01*
X272530Y-228797D01*
X272004Y-229584D01*
X271919Y-230012D01*
X273744D01*
Y-228187D01*
D02*
G37*
G36*
X263060D02*
Y-230012D01*
X264885D01*
X264800Y-229584D01*
X264275Y-228797D01*
X263488Y-228272D01*
X263060Y-228187D01*
D02*
G37*
G36*
X262060D02*
X261632Y-228272D01*
X260846Y-228797D01*
X260320Y-229584D01*
X260235Y-230012D01*
X262060D01*
Y-228187D01*
D02*
G37*
G36*
X251376D02*
Y-230012D01*
X253201D01*
X253116Y-229584D01*
X252591Y-228797D01*
X251804Y-228272D01*
X251376Y-228187D01*
D02*
G37*
G36*
X250376D02*
X249948Y-228272D01*
X249162Y-228797D01*
X248636Y-229584D01*
X248551Y-230012D01*
X250376D01*
Y-228187D01*
D02*
G37*
G36*
X239692D02*
Y-230012D01*
X241517D01*
X241432Y-229584D01*
X240907Y-228797D01*
X240120Y-228272D01*
X239692Y-228187D01*
D02*
G37*
G36*
X238692D02*
X238264Y-228272D01*
X237478Y-228797D01*
X236952Y-229584D01*
X236867Y-230012D01*
X238692D01*
Y-228187D01*
D02*
G37*
G36*
X228008D02*
Y-230012D01*
X229833D01*
X229748Y-229584D01*
X229223Y-228797D01*
X228436Y-228272D01*
X228008Y-228187D01*
D02*
G37*
G36*
X227008D02*
X226580Y-228272D01*
X225794Y-228797D01*
X225268Y-229584D01*
X225183Y-230012D01*
X227008D01*
Y-228187D01*
D02*
G37*
G36*
X216324D02*
Y-230012D01*
X218149D01*
X218064Y-229584D01*
X217539Y-228797D01*
X216752Y-228272D01*
X216324Y-228187D01*
D02*
G37*
G36*
X215324D02*
X214896Y-228272D01*
X214110Y-228797D01*
X213584Y-229584D01*
X213499Y-230012D01*
X215324D01*
Y-228187D01*
D02*
G37*
G36*
X204640D02*
Y-230012D01*
X206465D01*
X206380Y-229584D01*
X205855Y-228797D01*
X205068Y-228272D01*
X204640Y-228187D01*
D02*
G37*
G36*
X203640D02*
X203212Y-228272D01*
X202426Y-228797D01*
X201900Y-229584D01*
X201815Y-230012D01*
X203640D01*
Y-228187D01*
D02*
G37*
G36*
X192956D02*
Y-230012D01*
X194781D01*
X194696Y-229584D01*
X194170Y-228797D01*
X193384Y-228272D01*
X192956Y-228187D01*
D02*
G37*
G36*
X191956D02*
X191528Y-228272D01*
X190742Y-228797D01*
X190216Y-229584D01*
X190131Y-230012D01*
X191956D01*
Y-228187D01*
D02*
G37*
G36*
X181272D02*
Y-230012D01*
X183097D01*
X183012Y-229584D01*
X182486Y-228797D01*
X181700Y-228272D01*
X181272Y-228187D01*
D02*
G37*
G36*
X180272D02*
X179844Y-228272D01*
X179058Y-228797D01*
X178532Y-229584D01*
X178447Y-230012D01*
X180272D01*
Y-228187D01*
D02*
G37*
G36*
X169588D02*
Y-230012D01*
X171413D01*
X171328Y-229584D01*
X170802Y-228797D01*
X170016Y-228272D01*
X169588Y-228187D01*
D02*
G37*
G36*
X168588D02*
X168160Y-228272D01*
X167374Y-228797D01*
X166848Y-229584D01*
X166763Y-230012D01*
X168588D01*
Y-228187D01*
D02*
G37*
G36*
X157904D02*
Y-230012D01*
X159729D01*
X159644Y-229584D01*
X159118Y-228797D01*
X158332Y-228272D01*
X157904Y-228187D01*
D02*
G37*
G36*
X156904D02*
X156476Y-228272D01*
X155690Y-228797D01*
X155164Y-229584D01*
X155079Y-230012D01*
X156904D01*
Y-228187D01*
D02*
G37*
G36*
X146220D02*
Y-230012D01*
X148045D01*
X147960Y-229584D01*
X147434Y-228797D01*
X146648Y-228272D01*
X146220Y-228187D01*
D02*
G37*
G36*
X145220D02*
X144792Y-228272D01*
X144006Y-228797D01*
X143480Y-229584D01*
X143395Y-230012D01*
X145220D01*
Y-228187D01*
D02*
G37*
G36*
X134536D02*
Y-230012D01*
X136361D01*
X136276Y-229584D01*
X135750Y-228797D01*
X134964Y-228272D01*
X134536Y-228187D01*
D02*
G37*
G36*
X133536D02*
X133108Y-228272D01*
X132322Y-228797D01*
X131796Y-229584D01*
X131711Y-230012D01*
X133536D01*
Y-228187D01*
D02*
G37*
G36*
X122852D02*
Y-230012D01*
X124677D01*
X124592Y-229584D01*
X124066Y-228797D01*
X123280Y-228272D01*
X122852Y-228187D01*
D02*
G37*
G36*
X121852D02*
X121424Y-228272D01*
X120638Y-228797D01*
X120112Y-229584D01*
X120027Y-230012D01*
X121852D01*
Y-228187D01*
D02*
G37*
G36*
X111168D02*
Y-230012D01*
X112993D01*
X112908Y-229584D01*
X112382Y-228797D01*
X111596Y-228272D01*
X111168Y-228187D01*
D02*
G37*
G36*
X110168D02*
X109740Y-228272D01*
X108954Y-228797D01*
X108428Y-229584D01*
X108343Y-230012D01*
X110168D01*
Y-228187D01*
D02*
G37*
G36*
X99484D02*
Y-230012D01*
X101309D01*
X101224Y-229584D01*
X100698Y-228797D01*
X99912Y-228272D01*
X99484Y-228187D01*
D02*
G37*
G36*
X98484D02*
X98056Y-228272D01*
X97270Y-228797D01*
X96744Y-229584D01*
X96659Y-230012D01*
X98484D01*
Y-228187D01*
D02*
G37*
G36*
X87800D02*
Y-230012D01*
X89625D01*
X89540Y-229584D01*
X89014Y-228797D01*
X88228Y-228272D01*
X87800Y-228187D01*
D02*
G37*
G36*
X86800D02*
X86372Y-228272D01*
X85585Y-228797D01*
X85060Y-229584D01*
X84975Y-230012D01*
X86800D01*
Y-228187D01*
D02*
G37*
G36*
X76116D02*
Y-230012D01*
X77941D01*
X77856Y-229584D01*
X77330Y-228797D01*
X76544Y-228272D01*
X76116Y-228187D01*
D02*
G37*
G36*
X75116D02*
X74688Y-228272D01*
X73901Y-228797D01*
X73376Y-229584D01*
X73291Y-230012D01*
X75116D01*
Y-228187D01*
D02*
G37*
G36*
X64432D02*
Y-230012D01*
X66257D01*
X66172Y-229584D01*
X65646Y-228797D01*
X64860Y-228272D01*
X64432Y-228187D01*
D02*
G37*
G36*
X63432D02*
X63004Y-228272D01*
X62217Y-228797D01*
X61692Y-229584D01*
X61607Y-230012D01*
X63432D01*
Y-228187D01*
D02*
G37*
G36*
X52748D02*
Y-230012D01*
X54573D01*
X54488Y-229584D01*
X53962Y-228797D01*
X53176Y-228272D01*
X52748Y-228187D01*
D02*
G37*
G36*
X51748D02*
X51320Y-228272D01*
X50533Y-228797D01*
X50008Y-229584D01*
X49923Y-230012D01*
X51748D01*
Y-228187D01*
D02*
G37*
G36*
X41064D02*
Y-230012D01*
X42889D01*
X42804Y-229584D01*
X42278Y-228797D01*
X41492Y-228272D01*
X41064Y-228187D01*
D02*
G37*
G36*
X40064D02*
X39636Y-228272D01*
X38849Y-228797D01*
X38324Y-229584D01*
X38239Y-230012D01*
X40064D01*
Y-228187D01*
D02*
G37*
G36*
X29380D02*
Y-230012D01*
X31205D01*
X31120Y-229584D01*
X30594Y-228797D01*
X29808Y-228272D01*
X29380Y-228187D01*
D02*
G37*
G36*
X28380D02*
X27952Y-228272D01*
X27165Y-228797D01*
X26640Y-229584D01*
X26555Y-230012D01*
X28380D01*
Y-228187D01*
D02*
G37*
G36*
X17696D02*
Y-230012D01*
X19521D01*
X19436Y-229584D01*
X18910Y-228797D01*
X18124Y-228272D01*
X17696Y-228187D01*
D02*
G37*
G36*
X16696D02*
X16268Y-228272D01*
X15481Y-228797D01*
X14956Y-229584D01*
X14871Y-230012D01*
X16696D01*
Y-228187D01*
D02*
G37*
G36*
X6012D02*
Y-230012D01*
X7837D01*
X7752Y-229584D01*
X7226Y-228797D01*
X6440Y-228272D01*
X6012Y-228187D01*
D02*
G37*
G36*
X5012D02*
X4584Y-228272D01*
X3797Y-228797D01*
X3272Y-229584D01*
X3187Y-230012D01*
X5012D01*
Y-228187D01*
D02*
G37*
G36*
X370041Y-231012D02*
X368216D01*
Y-232837D01*
X368644Y-232752D01*
X369431Y-232226D01*
X369956Y-231440D01*
X370041Y-231012D01*
D02*
G37*
G36*
X367216D02*
X365391D01*
X365476Y-231440D01*
X366002Y-232226D01*
X366789Y-232752D01*
X367216Y-232837D01*
Y-231012D01*
D02*
G37*
G36*
X358358D02*
X356532D01*
Y-232837D01*
X356960Y-232752D01*
X357747Y-232226D01*
X358272Y-231440D01*
X358358Y-231012D01*
D02*
G37*
G36*
X355532D02*
X353707D01*
X353792Y-231440D01*
X354318Y-232226D01*
X355105Y-232752D01*
X355532Y-232837D01*
Y-231012D01*
D02*
G37*
G36*
X346673D02*
X344848D01*
Y-232837D01*
X345276Y-232752D01*
X346063Y-232226D01*
X346588Y-231440D01*
X346673Y-231012D01*
D02*
G37*
G36*
X343848D02*
X342023D01*
X342108Y-231440D01*
X342634Y-232226D01*
X343421Y-232752D01*
X343848Y-232837D01*
Y-231012D01*
D02*
G37*
G36*
X334989D02*
X333164D01*
Y-232837D01*
X333592Y-232752D01*
X334379Y-232226D01*
X334904Y-231440D01*
X334989Y-231012D01*
D02*
G37*
G36*
X332164D02*
X330339D01*
X330424Y-231440D01*
X330950Y-232226D01*
X331736Y-232752D01*
X332164Y-232837D01*
Y-231012D01*
D02*
G37*
G36*
X323305D02*
X321480D01*
Y-232837D01*
X321908Y-232752D01*
X322695Y-232226D01*
X323220Y-231440D01*
X323305Y-231012D01*
D02*
G37*
G36*
X320480D02*
X318655D01*
X318740Y-231440D01*
X319266Y-232226D01*
X320053Y-232752D01*
X320480Y-232837D01*
Y-231012D01*
D02*
G37*
G36*
X311621D02*
X309796D01*
Y-232837D01*
X310224Y-232752D01*
X311011Y-232226D01*
X311536Y-231440D01*
X311621Y-231012D01*
D02*
G37*
G36*
X308796D02*
X306971D01*
X307056Y-231440D01*
X307582Y-232226D01*
X308368Y-232752D01*
X308796Y-232837D01*
Y-231012D01*
D02*
G37*
G36*
X299937D02*
X298112D01*
Y-232837D01*
X298540Y-232752D01*
X299327Y-232226D01*
X299852Y-231440D01*
X299937Y-231012D01*
D02*
G37*
G36*
X297112D02*
X295287D01*
X295372Y-231440D01*
X295898Y-232226D01*
X296685Y-232752D01*
X297112Y-232837D01*
Y-231012D01*
D02*
G37*
G36*
X288253D02*
X286428D01*
Y-232837D01*
X286856Y-232752D01*
X287643Y-232226D01*
X288168Y-231440D01*
X288253Y-231012D01*
D02*
G37*
G36*
X285428D02*
X283603D01*
X283688Y-231440D01*
X284214Y-232226D01*
X285000Y-232752D01*
X285428Y-232837D01*
Y-231012D01*
D02*
G37*
G36*
X276569D02*
X274744D01*
Y-232837D01*
X275172Y-232752D01*
X275959Y-232226D01*
X276484Y-231440D01*
X276569Y-231012D01*
D02*
G37*
G36*
X273744D02*
X271919D01*
X272004Y-231440D01*
X272530Y-232226D01*
X273316Y-232752D01*
X273744Y-232837D01*
Y-231012D01*
D02*
G37*
G36*
X264885D02*
X263060D01*
Y-232837D01*
X263488Y-232752D01*
X264275Y-232226D01*
X264800Y-231440D01*
X264885Y-231012D01*
D02*
G37*
G36*
X262060D02*
X260235D01*
X260320Y-231440D01*
X260846Y-232226D01*
X261632Y-232752D01*
X262060Y-232837D01*
Y-231012D01*
D02*
G37*
G36*
X253201D02*
X251376D01*
Y-232837D01*
X251804Y-232752D01*
X252591Y-232226D01*
X253116Y-231440D01*
X253201Y-231012D01*
D02*
G37*
G36*
X250376D02*
X248551D01*
X248636Y-231440D01*
X249162Y-232226D01*
X249948Y-232752D01*
X250376Y-232837D01*
Y-231012D01*
D02*
G37*
G36*
X241517D02*
X239692D01*
Y-232837D01*
X240120Y-232752D01*
X240907Y-232226D01*
X241432Y-231440D01*
X241517Y-231012D01*
D02*
G37*
G36*
X238692D02*
X236867D01*
X236952Y-231440D01*
X237478Y-232226D01*
X238264Y-232752D01*
X238692Y-232837D01*
Y-231012D01*
D02*
G37*
G36*
X229833D02*
X228008D01*
Y-232837D01*
X228436Y-232752D01*
X229223Y-232226D01*
X229748Y-231440D01*
X229833Y-231012D01*
D02*
G37*
G36*
X227008D02*
X225183D01*
X225268Y-231440D01*
X225794Y-232226D01*
X226580Y-232752D01*
X227008Y-232837D01*
Y-231012D01*
D02*
G37*
G36*
X218149D02*
X216324D01*
Y-232837D01*
X216752Y-232752D01*
X217539Y-232226D01*
X218064Y-231440D01*
X218149Y-231012D01*
D02*
G37*
G36*
X215324D02*
X213499D01*
X213584Y-231440D01*
X214110Y-232226D01*
X214896Y-232752D01*
X215324Y-232837D01*
Y-231012D01*
D02*
G37*
G36*
X206465D02*
X204640D01*
Y-232837D01*
X205068Y-232752D01*
X205855Y-232226D01*
X206380Y-231440D01*
X206465Y-231012D01*
D02*
G37*
G36*
X203640D02*
X201815D01*
X201900Y-231440D01*
X202426Y-232226D01*
X203212Y-232752D01*
X203640Y-232837D01*
Y-231012D01*
D02*
G37*
G36*
X194781D02*
X192956D01*
Y-232837D01*
X193384Y-232752D01*
X194170Y-232226D01*
X194696Y-231440D01*
X194781Y-231012D01*
D02*
G37*
G36*
X191956D02*
X190131D01*
X190216Y-231440D01*
X190742Y-232226D01*
X191528Y-232752D01*
X191956Y-232837D01*
Y-231012D01*
D02*
G37*
G36*
X183097D02*
X181272D01*
Y-232837D01*
X181700Y-232752D01*
X182486Y-232226D01*
X183012Y-231440D01*
X183097Y-231012D01*
D02*
G37*
G36*
X180272D02*
X178447D01*
X178532Y-231440D01*
X179058Y-232226D01*
X179844Y-232752D01*
X180272Y-232837D01*
Y-231012D01*
D02*
G37*
G36*
X171413D02*
X169588D01*
Y-232837D01*
X170016Y-232752D01*
X170802Y-232226D01*
X171328Y-231440D01*
X171413Y-231012D01*
D02*
G37*
G36*
X168588D02*
X166763D01*
X166848Y-231440D01*
X167374Y-232226D01*
X168160Y-232752D01*
X168588Y-232837D01*
Y-231012D01*
D02*
G37*
G36*
X159729D02*
X157904D01*
Y-232837D01*
X158332Y-232752D01*
X159118Y-232226D01*
X159644Y-231440D01*
X159729Y-231012D01*
D02*
G37*
G36*
X156904D02*
X155079D01*
X155164Y-231440D01*
X155690Y-232226D01*
X156476Y-232752D01*
X156904Y-232837D01*
Y-231012D01*
D02*
G37*
G36*
X148045D02*
X146220D01*
Y-232837D01*
X146648Y-232752D01*
X147434Y-232226D01*
X147960Y-231440D01*
X148045Y-231012D01*
D02*
G37*
G36*
X145220D02*
X143395D01*
X143480Y-231440D01*
X144006Y-232226D01*
X144792Y-232752D01*
X145220Y-232837D01*
Y-231012D01*
D02*
G37*
G36*
X136361D02*
X134536D01*
Y-232837D01*
X134964Y-232752D01*
X135750Y-232226D01*
X136276Y-231440D01*
X136361Y-231012D01*
D02*
G37*
G36*
X133536D02*
X131711D01*
X131796Y-231440D01*
X132322Y-232226D01*
X133108Y-232752D01*
X133536Y-232837D01*
Y-231012D01*
D02*
G37*
G36*
X124677D02*
X122852D01*
Y-232837D01*
X123280Y-232752D01*
X124066Y-232226D01*
X124592Y-231440D01*
X124677Y-231012D01*
D02*
G37*
G36*
X121852D02*
X120027D01*
X120112Y-231440D01*
X120638Y-232226D01*
X121424Y-232752D01*
X121852Y-232837D01*
Y-231012D01*
D02*
G37*
G36*
X112993D02*
X111168D01*
Y-232837D01*
X111596Y-232752D01*
X112382Y-232226D01*
X112908Y-231440D01*
X112993Y-231012D01*
D02*
G37*
G36*
X110168D02*
X108343D01*
X108428Y-231440D01*
X108954Y-232226D01*
X109740Y-232752D01*
X110168Y-232837D01*
Y-231012D01*
D02*
G37*
G36*
X101309D02*
X99484D01*
Y-232837D01*
X99912Y-232752D01*
X100698Y-232226D01*
X101224Y-231440D01*
X101309Y-231012D01*
D02*
G37*
G36*
X98484D02*
X96659D01*
X96744Y-231440D01*
X97270Y-232226D01*
X98056Y-232752D01*
X98484Y-232837D01*
Y-231012D01*
D02*
G37*
G36*
X89625D02*
X87800D01*
Y-232837D01*
X88228Y-232752D01*
X89014Y-232226D01*
X89540Y-231440D01*
X89625Y-231012D01*
D02*
G37*
G36*
X86800D02*
X84975D01*
X85060Y-231440D01*
X85585Y-232226D01*
X86372Y-232752D01*
X86800Y-232837D01*
Y-231012D01*
D02*
G37*
G36*
X77941D02*
X76116D01*
Y-232837D01*
X76544Y-232752D01*
X77330Y-232226D01*
X77856Y-231440D01*
X77941Y-231012D01*
D02*
G37*
G36*
X75116D02*
X73291D01*
X73376Y-231440D01*
X73901Y-232226D01*
X74688Y-232752D01*
X75116Y-232837D01*
Y-231012D01*
D02*
G37*
G36*
X66257D02*
X64432D01*
Y-232837D01*
X64860Y-232752D01*
X65646Y-232226D01*
X66172Y-231440D01*
X66257Y-231012D01*
D02*
G37*
G36*
X63432D02*
X61607D01*
X61692Y-231440D01*
X62217Y-232226D01*
X63004Y-232752D01*
X63432Y-232837D01*
Y-231012D01*
D02*
G37*
G36*
X54573D02*
X52748D01*
Y-232837D01*
X53176Y-232752D01*
X53962Y-232226D01*
X54488Y-231440D01*
X54573Y-231012D01*
D02*
G37*
G36*
X51748D02*
X49923D01*
X50008Y-231440D01*
X50533Y-232226D01*
X51320Y-232752D01*
X51748Y-232837D01*
Y-231012D01*
D02*
G37*
G36*
X42889D02*
X41064D01*
Y-232837D01*
X41492Y-232752D01*
X42278Y-232226D01*
X42804Y-231440D01*
X42889Y-231012D01*
D02*
G37*
G36*
X40064D02*
X38239D01*
X38324Y-231440D01*
X38849Y-232226D01*
X39636Y-232752D01*
X40064Y-232837D01*
Y-231012D01*
D02*
G37*
G36*
X31205D02*
X29380D01*
Y-232837D01*
X29808Y-232752D01*
X30594Y-232226D01*
X31120Y-231440D01*
X31205Y-231012D01*
D02*
G37*
G36*
X28380D02*
X26555D01*
X26640Y-231440D01*
X27165Y-232226D01*
X27952Y-232752D01*
X28380Y-232837D01*
Y-231012D01*
D02*
G37*
G36*
X19521D02*
X17696D01*
Y-232837D01*
X18124Y-232752D01*
X18910Y-232226D01*
X19436Y-231440D01*
X19521Y-231012D01*
D02*
G37*
G36*
X16696D02*
X14871D01*
X14956Y-231440D01*
X15481Y-232226D01*
X16268Y-232752D01*
X16696Y-232837D01*
Y-231012D01*
D02*
G37*
G36*
X7837D02*
X6012D01*
Y-232837D01*
X6440Y-232752D01*
X7226Y-232226D01*
X7752Y-231440D01*
X7837Y-231012D01*
D02*
G37*
G36*
X5012D02*
X3187D01*
X3272Y-231440D01*
X3797Y-232226D01*
X4584Y-232752D01*
X5012Y-232837D01*
Y-231012D01*
D02*
G37*
%LPD*%
D13*
X342520Y-152362D02*
X371654D01*
X338051Y-156831D02*
X342520Y-152362D01*
X332185Y-156831D02*
X338051D01*
X331634Y-157383D02*
X332185Y-156831D01*
X351012Y-7705D02*
X354035Y-10728D01*
Y-16909D02*
Y-10728D01*
X330278Y-224053D02*
Y-220747D01*
X327990Y-226341D02*
X330278Y-224053D01*
Y-220747D02*
X331634Y-219391D01*
X335138Y-16909D02*
Y-10531D01*
X354035Y-28169D02*
X371043D01*
X335138D02*
X354035D01*
D14*
X229672Y-54905D02*
G03*
X230672Y-55905I1000J0D01*
G01*
X229672Y-47593D02*
G03*
X227672Y-47593I-1000J0D01*
G01*
X225672Y-55903D02*
G03*
X227672Y-55903I1000J0D01*
G01*
X225672Y-47593D02*
G03*
X223672Y-47593I-1000J0D01*
G01*
X221672Y-55903D02*
G03*
X223672Y-55903I1000J0D01*
G01*
X221672Y-47593D02*
G03*
X219672Y-47593I-1000J0D01*
G01*
X217672Y-55903D02*
G03*
X219672Y-55903I1000J0D01*
G01*
X217672Y-47593D02*
G03*
X215672Y-47593I-1000J0D01*
G01*
X214672Y-55905D02*
G03*
X215672Y-54905I0J1000D01*
G01*
X241725Y-55209D02*
X270073D01*
X230672Y-55905D02*
X235323D01*
X229672Y-54905D02*
Y-47593D01*
X227672Y-55903D02*
Y-47593D01*
X225672Y-55903D02*
Y-47593D01*
X223672Y-55903D02*
Y-47593D01*
X221672Y-55903D02*
Y-47593D01*
X219672Y-55903D02*
Y-47593D01*
X217672Y-55903D02*
Y-47593D01*
X215672Y-54905D02*
Y-47593D01*
X214172Y-55905D02*
X214672D01*
X235323D02*
X240181D01*
X240231Y-55855D01*
X241078D01*
X241725Y-55209D01*
X212205Y-55905D02*
X214172D01*
X270073Y-55209D02*
X271572Y-56708D01*
X272047D01*
D134*
X344980Y-134252D02*
D03*
X354823D02*
D03*
X29528Y-193898D02*
D03*
D135*
X335138Y-16909D02*
D03*
Y-28169D02*
D03*
X354035Y-16909D02*
D03*
Y-28169D02*
D03*
D137*
X108031Y-213386D02*
D03*
D138*
X308642Y-170887D02*
D03*
D139*
X361634Y-161911D02*
D03*
Y-214863D02*
D03*
D140*
X331634Y-157383D02*
D03*
Y-219391D02*
D03*
D141*
X249252Y-18012D02*
D03*
X158012D02*
D03*
D142*
X129921Y-121041D02*
D03*
X210688Y-146399D02*
D03*
X237499Y-78929D02*
D03*
X237303Y-42520D02*
D03*
X212205Y-55905D02*
D03*
X272047Y-56708D02*
D03*
X266732Y-80807D02*
D03*
X331012Y-72324D02*
D03*
X224395Y-204739D02*
D03*
X170339Y-153381D02*
D03*
X187402Y-163337D02*
D03*
X171762Y-140551D02*
D03*
X203346Y-176476D02*
D03*
X191535Y-140354D02*
D03*
X193701Y-163386D02*
D03*
Y-157480D02*
D03*
Y-151575D02*
D03*
X187402Y-157480D02*
D03*
Y-151575D02*
D03*
X159844Y-161121D02*
D03*
X245276Y-177854D02*
D03*
X242520Y-69413D02*
D03*
X250356Y-207068D02*
D03*
X250375Y-201594D02*
D03*
X245221Y-206710D02*
D03*
X244882Y-201575D02*
D03*
X237008Y-101181D02*
D03*
X323995Y-41729D02*
D03*
X354808Y-34091D02*
D03*
X324410Y-24016D02*
D03*
X318937Y-50394D02*
D03*
X330512Y-99606D02*
D03*
X330709Y-85433D02*
D03*
X287795Y-152756D02*
D03*
X303016Y-13706D02*
D03*
X242520Y-33858D02*
D03*
X70029Y-119794D02*
D03*
X274606Y-80807D02*
D03*
X258858D02*
D03*
Y-96555D02*
D03*
Y-88681D02*
D03*
X266732Y-96555D02*
D03*
Y-88681D02*
D03*
X274606Y-96555D02*
D03*
Y-88681D02*
D03*
X262992Y-220866D02*
D03*
X288189D02*
D03*
X285630Y-169768D02*
D03*
X5512Y-5709D02*
D03*
X146368Y-140354D02*
D03*
X70768Y-37341D02*
D03*
X239173Y-151279D02*
D03*
X319094Y-110531D02*
D03*
X121752Y-33268D02*
D03*
Y-22441D02*
D03*
X273622Y-120874D02*
D03*
X255512Y-122047D02*
D03*
X331378Y-140849D02*
D03*
X220571Y-187500D02*
D03*
X292618Y-109941D02*
D03*
X297342Y-201476D02*
D03*
X262736Y-193334D02*
D03*
X279823Y-188681D02*
D03*
X263238Y-214124D02*
D03*
X285433Y-19399D02*
D03*
Y-43809D02*
D03*
X306496Y-34252D02*
D03*
X300984D02*
D03*
Y-28740D02*
D03*
X306496D02*
D03*
X178632Y-27953D02*
D03*
X285433Y-68110D02*
D03*
X248425Y-114173D02*
D03*
X126378Y-77165D02*
D03*
X147328Y-105686D02*
D03*
X115748Y-74410D02*
D03*
Y-55118D02*
D03*
X112205Y-103347D02*
D03*
Y-84744D02*
D03*
X308661Y-85827D02*
D03*
X130315Y-42323D02*
D03*
X236497Y-218209D02*
D03*
X303839Y-112795D02*
D03*
X69685Y-173228D02*
D03*
X193504Y-50590D02*
D03*
X140551Y-27559D02*
D03*
X165354Y-197047D02*
D03*
X165256Y-217815D02*
D03*
X70768Y-18050D02*
D03*
Y-56633D02*
D03*
Y-75924D02*
D03*
Y-95215D02*
D03*
X69734Y-155856D02*
D03*
X42126Y-218898D02*
D03*
X17196Y-5709D02*
D03*
X28880D02*
D03*
X40564D02*
D03*
X52248D02*
D03*
X63932D02*
D03*
X75616D02*
D03*
X87300D02*
D03*
X98984D02*
D03*
X110668D02*
D03*
X122352D02*
D03*
X134036D02*
D03*
X145720D02*
D03*
X157404D02*
D03*
X169088D02*
D03*
X180772D02*
D03*
X192456D02*
D03*
X204140D02*
D03*
X215824D02*
D03*
X227508D02*
D03*
X239192D02*
D03*
X250876D02*
D03*
X262560D02*
D03*
X274244D02*
D03*
X285928D02*
D03*
X297612D02*
D03*
X309296D02*
D03*
X320980D02*
D03*
X356032D02*
D03*
X367716D02*
D03*
Y-230512D02*
D03*
X356032D02*
D03*
X344348D02*
D03*
X332664D02*
D03*
X320980D02*
D03*
X309296D02*
D03*
X297612D02*
D03*
X285928D02*
D03*
X274244D02*
D03*
X262560D02*
D03*
X250876D02*
D03*
X239192D02*
D03*
X227508D02*
D03*
X215824D02*
D03*
X204140D02*
D03*
X192456D02*
D03*
X180772D02*
D03*
X169088D02*
D03*
X157404D02*
D03*
X145720D02*
D03*
X134036D02*
D03*
X122352D02*
D03*
X110668D02*
D03*
X98984D02*
D03*
X87300D02*
D03*
X75616D02*
D03*
X63932D02*
D03*
X52248D02*
D03*
X40564D02*
D03*
X28880D02*
D03*
X17196D02*
D03*
X5512D02*
D03*
X344348Y-5709D02*
D03*
X332664D02*
D03*
X69685Y-190945D02*
D03*
Y-138189D02*
D03*
M02*
