G04*
G04 #@! TF.GenerationSoftware,Altium Limited,Altium Designer,22.10.1 (41)*
G04*
G04 Layer_Color=65535*
%FSLAX25Y25*%
%MOIN*%
G70*
G04*
G04 #@! TF.SameCoordinates,228258D3-266C-4D4F-9196-BF2F79CCE343*
G04*
G04*
G04 #@! TF.FilePolarity,Positive*
G04*
G01*
G75*
%ADD10C,0.01000*%
%ADD11C,0.00787*%
%ADD12C,0.00394*%
%ADD13C,0.00984*%
%ADD14C,0.02362*%
%ADD15C,0.01575*%
%ADD16C,0.00500*%
%ADD17C,0.00591*%
%ADD18C,0.00600*%
%ADD19C,0.00200*%
%ADD20C,0.01181*%
%ADD21C,0.00709*%
%ADD22R,3.74016X0.11811*%
G36*
X71358Y-219124D02*
X68858D01*
Y-221624D01*
X71358D01*
Y-219124D01*
D02*
G37*
G36*
X71624Y-201831D02*
X69124D01*
Y-204331D01*
X71624D01*
Y-201831D01*
D02*
G37*
G36*
X71398Y-184774D02*
X68898D01*
Y-187274D01*
X71398D01*
Y-184774D01*
D02*
G37*
G36*
X71496Y-167549D02*
X68996D01*
Y-170049D01*
X71496D01*
Y-167549D01*
D02*
G37*
G36*
X71329Y-150256D02*
X68829D01*
Y-152756D01*
X71329D01*
Y-150256D01*
D02*
G37*
G36*
X315319Y-121057D02*
X313819D01*
Y-120057D01*
X315319D01*
Y-121057D01*
D02*
G37*
G36*
X93504Y-133642D02*
X91004D01*
Y-131142D01*
X93504D01*
Y-133642D01*
D02*
G37*
G36*
Y-152539D02*
X91004D01*
Y-150039D01*
X93504D01*
Y-152539D01*
D02*
G37*
G36*
Y-171713D02*
X91004D01*
Y-169213D01*
X93504D01*
Y-171713D01*
D02*
G37*
G36*
Y-190728D02*
X91004D01*
Y-188228D01*
X93504D01*
Y-190728D01*
D02*
G37*
G36*
Y-209114D02*
X91004D01*
Y-206614D01*
X93504D01*
Y-209114D01*
D02*
G37*
D10*
X114255Y-81890D02*
G03*
X114255Y-81890I-278J0D01*
G01*
Y-104085D02*
G03*
X114255Y-104085I-278J0D01*
G01*
Y-126279D02*
G03*
X114255Y-126279I-278J0D01*
G01*
Y-59695D02*
G03*
X114255Y-59695I-278J0D01*
G01*
Y-37500D02*
G03*
X114255Y-37500I-278J0D01*
G01*
X301319Y-220079D02*
X325256D01*
X337027D02*
X386555D01*
X301319Y-156694D02*
X325256D01*
X337027D02*
X386555D01*
X301319Y-220079D02*
Y-156694D01*
X386555Y-220079D02*
Y-156694D01*
X331331Y-49638D02*
Y-45638D01*
X330150Y-49638D02*
X331331D01*
X328150Y-47638D02*
X330150Y-49638D01*
X328150Y-47638D02*
X330150Y-45638D01*
X331331D01*
X327756Y-49638D02*
Y-45669D01*
X210827Y-196457D02*
X210827D01*
X210039Y-197244D02*
X210827Y-196457D01*
X210039Y-219094D02*
Y-197244D01*
Y-219390D02*
Y-219094D01*
Y-219390D02*
X210925Y-220276D01*
X234350Y-196260D02*
X235236Y-197146D01*
Y-197441D02*
Y-197146D01*
Y-219291D02*
Y-197441D01*
X234449Y-220079D02*
X235236Y-219291D01*
X234449Y-220079D02*
X234449D01*
X327331Y-59677D02*
Y-55677D01*
X328512D01*
X330512Y-57677D01*
X328512Y-59677D02*
X330512Y-57677D01*
X327331Y-59677D02*
X328512D01*
X330906Y-59646D02*
Y-55677D01*
X123209Y-58957D02*
Y-55413D01*
X133051D01*
Y-58957D02*
Y-55413D01*
X123209Y-58957D02*
X133051D01*
X330118Y-92500D02*
X333661D01*
Y-102342D02*
Y-92500D01*
X330118Y-102342D02*
X333661D01*
X330118D02*
Y-92500D01*
X273524Y-84547D02*
Y-81004D01*
X283366D01*
Y-84547D02*
Y-81004D01*
X273524Y-84547D02*
X283366D01*
X329878Y-78632D02*
X333421D01*
Y-88474D02*
Y-78632D01*
X329878Y-88474D02*
X333421D01*
X329878D02*
Y-78632D01*
X48669Y-204087D02*
X64669D01*
X48669Y-220087D02*
X64669D01*
X48669Y-135386D02*
X64669D01*
X48669Y-151386D02*
X64669D01*
X48669Y-152561D02*
X64669D01*
X48669Y-168561D02*
X64669D01*
X48669Y-169736D02*
X64669D01*
X48669Y-185736D02*
X64669D01*
X48669Y-186911D02*
X64669D01*
X48669Y-202911D02*
X64669D01*
D11*
X250000Y-134843D02*
G03*
X250000Y-134843I-394J0D01*
G01*
X168602Y-210965D02*
G03*
X168602Y-210965I-394J0D01*
G01*
X200866Y-186516D02*
G03*
X200866Y-186516I-394J0D01*
G01*
X316358Y-37421D02*
G03*
X316358Y-37421I-394J0D01*
G01*
X150886Y-26575D02*
G03*
X150886Y-26575I-13386J0D01*
G01*
X279331Y-131102D02*
G03*
X279331Y-131102I-394J0D01*
G01*
X237106Y-32579D02*
G03*
X237106Y-32579I-394J0D01*
G01*
X150066Y-72809D02*
G03*
X150066Y-72809I-394J0D01*
G01*
X114165Y-73555D02*
Y-69555D01*
X90165Y-73555D02*
Y-69555D01*
Y-79555D02*
X114165D01*
X90165Y-63555D02*
X114165D01*
X254252Y-25768D02*
Y-15768D01*
X204252Y-25768D02*
X254252D01*
X204252Y-15768D02*
X254252D01*
X204252Y-25768D02*
Y-15768D01*
X153012Y-25768D02*
Y-15768D01*
X203012D01*
X153012Y-25768D02*
X203012D01*
Y-15768D01*
X373917Y-99803D02*
Y-43898D01*
Y-155905D02*
Y-99803D01*
X362106D02*
Y-43898D01*
Y-155905D02*
Y-99803D01*
X131693Y-159350D02*
Y-156732D01*
Y-128898D02*
Y-126279D01*
X156890Y-159350D02*
Y-156732D01*
Y-128898D02*
Y-126279D01*
X131693Y-159350D02*
X134429D01*
X154154D02*
X156890D01*
X131693Y-126279D02*
X134429D01*
X154154D02*
X156890D01*
X131595Y-52165D02*
Y-38780D01*
Y-52165D02*
X143405D01*
Y-38780D01*
X276673Y-54429D02*
Y-31988D01*
X299114Y-54429D02*
Y-31988D01*
X276673D02*
X299114D01*
X276673Y-54429D02*
X299114D01*
X331331Y-49638D02*
Y-45638D01*
X338484Y-52165D02*
Y-43110D01*
X320177Y-52165D02*
Y-43110D01*
X338484D01*
X320177Y-52165D02*
X338484D01*
X327331Y-59677D02*
Y-55677D01*
X320177Y-62205D02*
Y-53150D01*
X338484Y-62205D02*
Y-53150D01*
X320177Y-62205D02*
X338484D01*
X320177Y-53150D02*
X338484D01*
X302362Y-99705D02*
X308661D01*
X302362Y-80020D02*
X308661D01*
Y-99705D02*
Y-80020D01*
X302362Y-99705D02*
Y-80020D01*
X166339Y-119882D02*
Y-47835D01*
X238386Y-119882D02*
Y-47835D01*
X166339D02*
X238386D01*
X166339Y-119882D02*
X238386D01*
X166209Y-217945D02*
Y-213945D01*
Y-217945D02*
X170209D01*
Y-213945D01*
X166209D02*
X170209D01*
X159055Y-220472D02*
Y-211417D01*
X177362Y-220472D02*
Y-211417D01*
X159055Y-220472D02*
X177362D01*
X159055Y-211417D02*
X177362D01*
X114165Y-95750D02*
Y-91750D01*
X90165Y-95750D02*
Y-91750D01*
Y-101750D02*
X114165D01*
X90165Y-85750D02*
X114165D01*
X317618Y-135335D02*
X337303D01*
X317618Y-128248D02*
X337303D01*
X317618Y-135335D02*
Y-128248D01*
X337303Y-135335D02*
Y-128248D01*
X187697Y-179626D02*
Y-178445D01*
X199902Y-179626D02*
Y-178445D01*
X187697Y-179626D02*
X199902D01*
X187697Y-178445D02*
X199902D01*
X197835Y-219980D02*
Y-200295D01*
X190748Y-219980D02*
Y-200295D01*
Y-219980D02*
X197835D01*
X190748Y-200295D02*
X197835D01*
X90165Y-107945D02*
X114165D01*
X90165Y-123945D02*
X114165D01*
X90165Y-117945D02*
Y-113945D01*
X114165Y-117945D02*
Y-113945D01*
X136182Y-208358D02*
Y-202058D01*
X155867Y-208358D02*
Y-202058D01*
X136182Y-208358D02*
X155867D01*
X136182Y-202058D02*
X155867D01*
X136063Y-177284D02*
X156063D01*
Y-187284D02*
Y-177284D01*
X136063Y-187284D02*
X156063D01*
X149311D02*
Y-177284D01*
X143063Y-182283D02*
X145063D01*
X144063Y-183283D02*
Y-181283D01*
X136063Y-187284D02*
Y-177284D01*
X591Y-215354D02*
Y-159449D01*
Y-21260D01*
X12402Y-215354D02*
Y-159449D01*
Y-21260D01*
X175798Y-163386D02*
X176999Y-164837D01*
X175798Y-172244D02*
X177031Y-170755D01*
X160531Y-172244D02*
Y-170472D01*
Y-172244D02*
X175798D01*
X160531Y-163386D02*
X175798D01*
X160531Y-165157D02*
Y-163386D01*
X90165Y-41360D02*
X114165D01*
X90165Y-57360D02*
X114165D01*
X90165Y-51360D02*
Y-47360D01*
X114165Y-51360D02*
Y-47360D01*
X90165Y-19165D02*
X114165D01*
X90165Y-35165D02*
X114165D01*
X90165Y-29165D02*
Y-25165D01*
X114165Y-29165D02*
Y-25165D01*
X245399Y-217747D02*
X246850Y-216546D01*
X237992Y-216546D02*
X239481Y-217779D01*
X237992Y-201279D02*
X239764D01*
X237992Y-216546D02*
Y-201279D01*
X246850Y-216546D02*
Y-201279D01*
X245079D02*
X246850D01*
D12*
X250323Y-160433D02*
G03*
X250323Y-160433I-197J0D01*
G01*
X256196Y-206973D02*
G03*
X254873Y-206152I-758J255D01*
G01*
X257135Y-208415D02*
G03*
X256004Y-207283I-566J566D01*
G01*
X157087Y-124705D02*
G03*
X157087Y-124705I-197J0D01*
G01*
X81954Y-141154D02*
Y-139554D01*
Y-141154D02*
X86353D01*
Y-139554D01*
X81954D02*
X86353D01*
X80413Y-146260D02*
X87894D01*
Y-134449D01*
X80413Y-146260D02*
Y-134449D01*
X87894D01*
X81954Y-159658D02*
Y-158058D01*
Y-159658D02*
X86353D01*
Y-158058D01*
X81954D02*
X86353D01*
X80413Y-164764D02*
X87894D01*
Y-152953D01*
X80413Y-164764D02*
Y-152953D01*
X87894D01*
X81954Y-177276D02*
Y-175676D01*
Y-177276D02*
X86353D01*
Y-175676D01*
X81954D02*
X86353D01*
X80413Y-182382D02*
X87894D01*
Y-170571D01*
X80413Y-182382D02*
Y-170571D01*
X87894D01*
X86353Y-195780D02*
Y-194180D01*
X81954D02*
X86353D01*
X81954Y-195780D02*
Y-194180D01*
Y-195780D02*
X86353D01*
X80413Y-189075D02*
X87894D01*
X80413Y-200886D02*
Y-189075D01*
X87894Y-200886D02*
Y-189075D01*
X80413Y-200886D02*
X87894D01*
X86255Y-214087D02*
Y-212487D01*
X81855D02*
X86255D01*
X81855Y-214087D02*
Y-212487D01*
Y-214087D02*
X86255D01*
X80315Y-207382D02*
X87795D01*
X80315Y-219193D02*
Y-207382D01*
X87795Y-219193D02*
Y-207382D01*
X80315Y-219193D02*
X87795D01*
X78543Y-86024D02*
X84055D01*
Y-75787D01*
X78543D02*
X84055D01*
X78543Y-86024D02*
Y-75787D01*
X79499Y-81506D02*
Y-80305D01*
X83199D01*
Y-81506D02*
Y-80305D01*
X79499Y-81506D02*
X83199D01*
X143602Y-124409D02*
Y-118898D01*
Y-124409D02*
X153839D01*
Y-118898D01*
X143602D02*
X153839D01*
X148120Y-119853D02*
X149320D01*
Y-123554D02*
Y-119853D01*
X148120Y-123554D02*
X149320D01*
X148120D02*
Y-119853D01*
X140650Y-107579D02*
Y-102067D01*
Y-107579D02*
X151673D01*
Y-102067D01*
X140650D02*
X151673D01*
X146761Y-106523D02*
Y-103123D01*
X145561Y-106523D02*
Y-103123D01*
X293996Y-180512D02*
X299508D01*
X293996Y-191535D02*
Y-180512D01*
Y-191535D02*
X299508D01*
Y-180512D01*
X295052Y-186624D02*
X298452D01*
X295052Y-185424D02*
X298452D01*
X277943Y-158298D02*
Y-154598D01*
Y-158298D02*
X279143D01*
Y-154598D01*
X277943D02*
X279143D01*
X273425Y-153642D02*
X283661D01*
Y-159153D02*
Y-153642D01*
X273425Y-159153D02*
X283661D01*
X273425D02*
Y-153642D01*
X277943Y-152392D02*
Y-148692D01*
Y-152392D02*
X279143D01*
Y-148692D01*
X277943D02*
X279143D01*
X273425Y-147736D02*
X283661D01*
Y-153248D02*
Y-147736D01*
X273425Y-153248D02*
X283661D01*
X273425D02*
Y-147736D01*
X258179Y-151800D02*
Y-148100D01*
X256979D02*
X258179D01*
X256979Y-151800D02*
Y-148100D01*
Y-151800D02*
X258179D01*
X252461Y-152756D02*
X262697D01*
X252461D02*
Y-147244D01*
X262697D01*
Y-152756D02*
Y-147244D01*
X258671Y-162233D02*
Y-158533D01*
X257471D02*
X258671D01*
X257471Y-162233D02*
Y-158533D01*
Y-162233D02*
X258671D01*
X252953Y-163189D02*
X263189D01*
X252953D02*
Y-157677D01*
X263189D01*
Y-163189D02*
Y-157677D01*
X254134Y-174606D02*
Y-169095D01*
Y-174606D02*
X264370D01*
Y-169095D01*
X254134D02*
X264370D01*
X258652Y-170050D02*
X259852D01*
Y-173750D02*
Y-170050D01*
X258652Y-173750D02*
X259852D01*
X258652D02*
Y-170050D01*
X256398Y-182874D02*
Y-177362D01*
Y-182874D02*
X266634D01*
Y-177362D01*
X256398D02*
X266634D01*
X260916Y-178318D02*
X262116D01*
Y-182018D02*
Y-178318D01*
X260916Y-182018D02*
X262116D01*
X260916D02*
Y-178318D01*
X267018Y-187924D02*
Y-184224D01*
Y-187924D02*
X268218D01*
Y-184224D01*
X267018D02*
X268218D01*
X262500Y-183268D02*
X272736D01*
Y-188779D02*
Y-183268D01*
X262500Y-188779D02*
X272736D01*
X262500D02*
Y-183268D01*
X265820Y-143199D02*
X269220D01*
X265820Y-144399D02*
X269220D01*
X270276Y-149311D02*
Y-138287D01*
X264764Y-149311D02*
X270276D01*
X264764D02*
Y-138287D01*
X270276D01*
X245650Y-144724D02*
X249547Y-140827D01*
X241752Y-133032D02*
X249547Y-140827D01*
X237855Y-136929D02*
X241752Y-133032D01*
X237855Y-136929D02*
X245650Y-144724D01*
X242074Y-139656D02*
X244479Y-137252D01*
X242923Y-140504D02*
X245327Y-138100D01*
X233622Y-141162D02*
X237520Y-137264D01*
X233622Y-141162D02*
X241417Y-148956D01*
X245315Y-145059D01*
X237520Y-137264D02*
X245315Y-145059D01*
X238691Y-144737D02*
X241095Y-142332D01*
X237842Y-143888D02*
X240246Y-141484D01*
X229390Y-145394D02*
X233288Y-141496D01*
X229390Y-145394D02*
X237185Y-153189D01*
X241082Y-149291D01*
X233288Y-141496D02*
X241082Y-149291D01*
X234458Y-148969D02*
X236863Y-146565D01*
X233610Y-148120D02*
X236014Y-145716D01*
X218101Y-141861D02*
Y-138161D01*
Y-141861D02*
X219301D01*
Y-138161D01*
X218101D02*
X219301D01*
X213583Y-137205D02*
X223819D01*
Y-142717D02*
Y-137205D01*
X213583Y-142717D02*
X223819D01*
X213583D02*
Y-137205D01*
X218101Y-147766D02*
Y-144066D01*
Y-147766D02*
X219301D01*
Y-144066D01*
X218101D02*
X219301D01*
X213583Y-143110D02*
X223819D01*
Y-148622D02*
Y-143110D01*
X213583Y-148622D02*
X223819D01*
X213583D02*
Y-143110D01*
X218101Y-153672D02*
Y-149972D01*
Y-153672D02*
X219301D01*
Y-149972D01*
X218101D02*
X219301D01*
X213583Y-149016D02*
X223819D01*
Y-154528D02*
Y-149016D01*
X213583Y-154528D02*
X223819D01*
X213583D02*
Y-149016D01*
X218101Y-159577D02*
Y-155877D01*
Y-159577D02*
X219301D01*
Y-155877D01*
X218101D02*
X219301D01*
X213583Y-154921D02*
X223819D01*
Y-160433D02*
Y-154921D01*
X213583Y-160433D02*
X223819D01*
X213583D02*
Y-154921D01*
X218101Y-165483D02*
Y-161783D01*
Y-165483D02*
X219301D01*
Y-161783D01*
X218101D02*
X219301D01*
X213583Y-160827D02*
X223819D01*
Y-166339D02*
Y-160827D01*
X213583Y-166339D02*
X223819D01*
X213583D02*
Y-160827D01*
X215453Y-176476D02*
Y-170965D01*
Y-176476D02*
X226476D01*
Y-170965D01*
X215453D02*
X226476D01*
X221565Y-175420D02*
Y-172020D01*
X220365Y-175420D02*
Y-172020D01*
X244587Y-180512D02*
X250098D01*
X244587Y-190748D02*
Y-180512D01*
Y-190748D02*
X250098D01*
Y-180512D01*
X249143Y-186230D02*
Y-185030D01*
X245443Y-186230D02*
X249143D01*
X245443D02*
Y-185030D01*
X249143D01*
X254390Y-213464D02*
X258288Y-217362D01*
X266082Y-209567D01*
X262185Y-205670D02*
X266082Y-209567D01*
X254390Y-213464D02*
X262185Y-205670D01*
X259458Y-209889D02*
X261863Y-212294D01*
X258610Y-210738D02*
X261014Y-213142D01*
X258622Y-217697D02*
X262520Y-221594D01*
X270315Y-213799D01*
X266417Y-209902D02*
X270315Y-213799D01*
X258622Y-217697D02*
X266417Y-209902D01*
X263691Y-214122D02*
X266095Y-216526D01*
X262842Y-214970D02*
X265246Y-217374D01*
X257396Y-201994D02*
X261293Y-205891D01*
X250715Y-208675D02*
X257396Y-201994D01*
X254612Y-212573D02*
X261293Y-205891D01*
X250715Y-208675D02*
X254612Y-212573D01*
X159124Y-135325D02*
X162824D01*
X159124Y-136525D02*
Y-135325D01*
Y-136525D02*
X162824D01*
Y-135325D01*
X163779Y-141043D02*
Y-130807D01*
X158268Y-141043D02*
X163779D01*
X158268D02*
Y-130807D01*
X163779D01*
X207785Y-175420D02*
Y-172020D01*
X206585Y-175420D02*
Y-172020D01*
X201673Y-176476D02*
X212697D01*
X201673D02*
Y-170965D01*
X212697D01*
Y-176476D02*
Y-170965D01*
X292510Y-69220D02*
Y-65820D01*
X293710Y-69220D02*
Y-65820D01*
X287598Y-64764D02*
X298622D01*
Y-70276D02*
Y-64764D01*
X287598Y-70276D02*
X298622D01*
X287598D02*
Y-64764D01*
X250492Y-81102D02*
X256004D01*
X250492Y-92126D02*
Y-81102D01*
Y-92126D02*
X256004D01*
Y-81102D01*
X251548Y-87214D02*
X254948D01*
X251548Y-86014D02*
X254948D01*
X167913Y-136811D02*
Y-131299D01*
Y-136811D02*
X178937D01*
Y-131299D01*
X167913D02*
X178937D01*
X174025Y-135755D02*
Y-132355D01*
X172825Y-135755D02*
Y-132355D01*
X331565Y-110128D02*
X335265D01*
X331565Y-111328D02*
Y-110128D01*
Y-111328D02*
X335265D01*
Y-110128D01*
X336221Y-115847D02*
Y-105610D01*
X330709Y-115847D02*
X336221D01*
X330709D02*
Y-105610D01*
X336221D01*
X300070Y-70482D02*
X303770D01*
Y-69282D01*
X300070D02*
X303770D01*
X300070Y-70482D02*
Y-69282D01*
X299114Y-75000D02*
Y-64764D01*
X304626D01*
Y-75000D02*
Y-64764D01*
X299114Y-75000D02*
X304626D01*
X280995Y-69420D02*
Y-65720D01*
Y-69420D02*
X282194D01*
Y-65720D01*
X280995D02*
X282194D01*
X276476Y-64764D02*
X286713D01*
Y-70276D02*
Y-64764D01*
X276476Y-70276D02*
X286713D01*
X276476D02*
Y-64764D01*
X271368Y-69320D02*
Y-65620D01*
X270168D02*
X271368D01*
X270168Y-69320D02*
Y-65620D01*
Y-69320D02*
X271368D01*
X265650Y-70276D02*
X275886D01*
X265650D02*
Y-64764D01*
X275886D01*
Y-70276D02*
Y-64764D01*
X255610Y-15551D02*
X261122D01*
X255610Y-26575D02*
Y-15551D01*
Y-26575D02*
X261122D01*
Y-15551D01*
X256666Y-21663D02*
X260066D01*
X256666Y-20463D02*
X260066D01*
X245571Y-34154D02*
X251083D01*
X245571Y-45177D02*
Y-34154D01*
Y-45177D02*
X251083D01*
Y-34154D01*
X246627Y-40265D02*
X250027D01*
X246627Y-39065D02*
X250027D01*
X251548Y-75403D02*
X254948D01*
X251548Y-74203D02*
X254948D01*
X250492Y-80315D02*
Y-69291D01*
X256004D01*
Y-80315D02*
Y-69291D01*
X250492Y-80315D02*
X256004D01*
X337786Y-38514D02*
Y-34814D01*
Y-38514D02*
X338986D01*
Y-34814D01*
X337786D02*
X338986D01*
X333268Y-33858D02*
X343504D01*
Y-39370D02*
Y-33858D01*
X333268Y-39370D02*
X343504D01*
X333268D02*
Y-33858D01*
X354616Y-38711D02*
Y-35011D01*
Y-38711D02*
X355817D01*
Y-35011D01*
X354616D02*
X355817D01*
X350098Y-34055D02*
X360335D01*
Y-39567D02*
Y-34055D01*
X350098Y-39567D02*
X360335D01*
X350098D02*
Y-34055D01*
X309735Y-151602D02*
Y-148202D01*
X310935Y-151602D02*
Y-148202D01*
X304823Y-147146D02*
X315846D01*
Y-152657D02*
Y-147146D01*
X304823Y-152657D02*
X315846D01*
X304823D02*
Y-147146D01*
X308268Y-104823D02*
X313779D01*
X308268Y-115847D02*
Y-104823D01*
Y-115847D02*
X313779D01*
Y-104823D01*
X309324Y-110935D02*
X312724D01*
X309324Y-109735D02*
X312724D01*
X302264Y-104823D02*
X307776D01*
X302264Y-115847D02*
Y-104823D01*
Y-115847D02*
X307776D01*
Y-104823D01*
X303320Y-110935D02*
X306720D01*
X303320Y-109735D02*
X306720D01*
X296161Y-104823D02*
X301673D01*
X296161Y-115847D02*
Y-104823D01*
Y-115847D02*
X301673D01*
Y-104823D01*
X297217Y-110935D02*
X300617D01*
X297217Y-109735D02*
X300617D01*
X289961Y-104823D02*
X295472D01*
X289961Y-115847D02*
Y-104823D01*
Y-115847D02*
X295472D01*
Y-104823D01*
X291017Y-110935D02*
X294416D01*
X291017Y-109735D02*
X294416D01*
X289558Y-20404D02*
Y-16704D01*
Y-20404D02*
X290757D01*
Y-16704D01*
X289558D02*
X290757D01*
X285039Y-15748D02*
X295276D01*
Y-21260D02*
Y-15748D01*
X285039Y-21260D02*
X295276D01*
X285039D02*
Y-15748D01*
X262765Y-53829D02*
X266465D01*
X262765Y-55029D02*
Y-53829D01*
Y-55029D02*
X266465D01*
Y-53829D01*
X267421Y-59547D02*
Y-49311D01*
X261909Y-59547D02*
X267421D01*
X261909D02*
Y-49311D01*
X267421D01*
X307283Y-25984D02*
X312795D01*
Y-15748D01*
X307283D02*
X312795D01*
X307283Y-25984D02*
Y-15748D01*
X308239Y-21466D02*
Y-20266D01*
X311939D01*
Y-21466D02*
Y-20266D01*
X308239Y-21466D02*
X311939D01*
X263161Y-22057D02*
X266861D01*
Y-20857D01*
X263161D02*
X266861D01*
X263161Y-22057D02*
Y-20857D01*
X262205Y-26575D02*
Y-16339D01*
X267717D01*
Y-26575D02*
Y-16339D01*
X262205Y-26575D02*
X267717D01*
X305020Y-69488D02*
X310531D01*
Y-59252D01*
X305020D02*
X310531D01*
X305020Y-69488D02*
Y-59252D01*
X305976Y-64970D02*
Y-63770D01*
X309676D01*
Y-64970D02*
Y-63770D01*
X305976Y-64970D02*
X309676D01*
X311024Y-69488D02*
X316535D01*
Y-59252D01*
X311024D02*
X316535D01*
X311024Y-69488D02*
Y-59252D01*
X311980Y-64970D02*
Y-63770D01*
X315680D01*
Y-64970D02*
Y-63770D01*
X311980Y-64970D02*
X315680D01*
X313189Y-52854D02*
X318701D01*
Y-42618D01*
X313189D02*
X318701D01*
X313189Y-52854D02*
Y-42618D01*
X314145Y-48336D02*
Y-47136D01*
X317845D01*
Y-48336D02*
Y-47136D01*
X314145Y-48336D02*
X317845D01*
X256004Y-59941D02*
X261516D01*
Y-48917D01*
X256004D02*
X261516D01*
X256004Y-59941D02*
Y-48917D01*
X257060Y-53829D02*
X260460D01*
X257060Y-55029D02*
X260460D01*
X284547Y-21260D02*
Y-15748D01*
X273524D02*
X284547D01*
X273524Y-21260D02*
Y-15748D01*
Y-21260D02*
X284547D01*
X278435Y-20204D02*
Y-16804D01*
X279635Y-20204D02*
Y-16804D01*
X295768Y-21260D02*
Y-15748D01*
Y-21260D02*
X306791D01*
Y-15748D01*
X295768D02*
X306791D01*
X301880Y-20204D02*
Y-16804D01*
X300679Y-20204D02*
Y-16804D01*
X321349Y-68632D02*
Y-64932D01*
Y-68632D02*
X322549D01*
Y-64932D01*
X321349D02*
X322549D01*
X316831Y-63976D02*
X327067D01*
Y-69488D02*
Y-63976D01*
X316831Y-69488D02*
X327067D01*
X316831D02*
Y-63976D01*
X327658Y-69488D02*
Y-63976D01*
Y-69488D02*
X337894D01*
Y-63976D01*
X327658D02*
X337894D01*
X332176Y-64932D02*
X333376D01*
Y-68632D02*
Y-64932D01*
X332176Y-68632D02*
X333376D01*
X332176D02*
Y-64932D01*
X250000Y-46260D02*
X255512D01*
X250000Y-57284D02*
Y-46260D01*
Y-57284D02*
X255512D01*
Y-46260D01*
X251056Y-52372D02*
X254456D01*
X251056Y-51172D02*
X254456D01*
X246457Y-32480D02*
Y-26969D01*
X235433D02*
X246457D01*
X235433Y-32480D02*
Y-26969D01*
Y-32480D02*
X246457D01*
X240345Y-31424D02*
Y-28024D01*
X241545Y-31424D02*
Y-28024D01*
X186427Y-197765D02*
Y-194065D01*
X185227D02*
X186427D01*
X185227Y-197765D02*
Y-194065D01*
Y-197765D02*
X186427D01*
X180709Y-198721D02*
X190945D01*
X180709D02*
Y-193209D01*
X190945D01*
Y-198721D02*
Y-193209D01*
X165847Y-34547D02*
Y-29035D01*
Y-34547D02*
X176083D01*
Y-29035D01*
X165847D02*
X176083D01*
X170365Y-29991D02*
X171565D01*
Y-33691D02*
Y-29991D01*
X170365Y-33691D02*
X171565D01*
X170365D02*
Y-29991D01*
X146653Y-44390D02*
X152165D01*
X146653Y-55413D02*
Y-44390D01*
Y-55413D02*
X152165D01*
Y-44390D01*
X147709Y-50502D02*
X151109D01*
X147709Y-49302D02*
X151109D01*
X133750Y-68432D02*
Y-65032D01*
X134950Y-68432D02*
Y-65032D01*
X128839Y-63976D02*
X139862D01*
Y-69488D02*
Y-63976D01*
X128839Y-69488D02*
X139862D01*
X128839D02*
Y-63976D01*
X133849Y-74436D02*
Y-71036D01*
X135049Y-74436D02*
Y-71036D01*
X128937Y-69980D02*
X139961D01*
Y-75492D02*
Y-69980D01*
X128937Y-75492D02*
X139961D01*
X128937D02*
Y-69980D01*
X151575Y-41043D02*
Y-35531D01*
Y-41043D02*
X162598D01*
Y-35531D01*
X151575D02*
X162598D01*
X157687Y-39987D02*
Y-36587D01*
X156487Y-39987D02*
Y-36587D01*
X316509Y-109735D02*
X319909D01*
X316509Y-110935D02*
X319909D01*
X320965Y-115847D02*
Y-104823D01*
X315453Y-115847D02*
X320965D01*
X315453D02*
Y-104823D01*
X320965D01*
X271063Y-83465D02*
Y-77953D01*
X260827D02*
X271063D01*
X260827Y-83465D02*
Y-77953D01*
Y-83465D02*
X271063D01*
X265345Y-82509D02*
X266545D01*
X265345D02*
Y-78809D01*
X266545D01*
Y-82509D02*
Y-78809D01*
X260827Y-89665D02*
Y-84153D01*
Y-89665D02*
X271063D01*
Y-84153D01*
X260827D02*
X271063D01*
X265345Y-85110D02*
X266545D01*
Y-88810D02*
Y-85110D01*
X265345Y-88810D02*
X266545D01*
X265345D02*
Y-85110D01*
X321457Y-115847D02*
X326969D01*
Y-105610D01*
X321457D02*
X326969D01*
X321457Y-115847D02*
Y-105610D01*
X322413Y-111328D02*
Y-110128D01*
X326113D01*
Y-111328D02*
Y-110128D01*
X322413Y-111328D02*
X326113D01*
X180709Y-185925D02*
X186221D01*
Y-174902D01*
X180709D02*
X186221D01*
X180709Y-185925D02*
Y-174902D01*
X181765Y-179813D02*
X185165D01*
X181765Y-181013D02*
X185165D01*
X180709Y-162205D02*
X186221D01*
X180709Y-173228D02*
Y-162205D01*
Y-173228D02*
X186221D01*
Y-162205D01*
X181765Y-168316D02*
X185165D01*
X181765Y-167116D02*
X185165D01*
X60138Y-39547D02*
X75886D01*
X77854Y-37579D01*
Y-17894D01*
X77854D02*
X77854D01*
X75886Y-15925D02*
X77854Y-17894D01*
X51279Y-15925D02*
X75886D01*
X49311Y-17894D02*
X51279Y-15925D01*
X49311Y-37579D02*
Y-17894D01*
Y-37579D02*
X51279Y-39547D01*
X60138D01*
X51378Y-63189D02*
X60236D01*
X49409Y-61221D02*
X51378Y-63189D01*
X49409Y-61221D02*
Y-41535D01*
X51378Y-39567D01*
X75984D01*
X77953Y-41535D01*
X77953D01*
Y-61221D02*
Y-41535D01*
X75984Y-63189D02*
X77953Y-61221D01*
X60236Y-63189D02*
X75984D01*
X60236Y-86811D02*
X75984D01*
X77953Y-84842D01*
Y-65158D01*
X77953D02*
X77953D01*
X75984Y-63189D02*
X77953Y-65158D01*
X51378Y-63189D02*
X75984D01*
X49409Y-65158D02*
X51378Y-63189D01*
X49409Y-84842D02*
Y-65158D01*
Y-84842D02*
X51378Y-86811D01*
X60236D01*
X51378Y-110630D02*
X60236D01*
X49409Y-108661D02*
X51378Y-110630D01*
X49409Y-108661D02*
Y-88976D01*
X51378Y-87008D01*
X75984D01*
X77953Y-88976D01*
X77953D01*
Y-108661D02*
Y-88976D01*
X75984Y-110630D02*
X77953Y-108661D01*
X60236Y-110630D02*
X75984D01*
X60039Y-134449D02*
X75787D01*
X77756Y-132480D01*
Y-112795D01*
X77756D02*
X77756D01*
X75787Y-110827D02*
X77756Y-112795D01*
X51181Y-110827D02*
X75787D01*
X49213Y-112795D02*
X51181Y-110827D01*
X49213Y-132480D02*
Y-112795D01*
Y-132480D02*
X51181Y-134449D01*
X60039D01*
X145463Y-90529D02*
Y-87129D01*
X146663Y-90529D02*
Y-87129D01*
X140551Y-86073D02*
X151575D01*
Y-91585D02*
Y-86073D01*
X140551Y-91585D02*
X151575D01*
X140551D02*
Y-86073D01*
X79499Y-22450D02*
X83199D01*
Y-21250D01*
X79499D02*
X83199D01*
X79499Y-22450D02*
Y-21250D01*
X78543Y-26969D02*
Y-16732D01*
X84055D01*
Y-26969D02*
Y-16732D01*
X78543Y-26969D02*
X84055D01*
X79499Y-34262D02*
X83199D01*
Y-33062D01*
X79499D02*
X83199D01*
X79499Y-34262D02*
Y-33062D01*
X78543Y-38780D02*
Y-28543D01*
X84055D01*
Y-38780D02*
Y-28543D01*
X78543Y-38780D02*
X84055D01*
X79499Y-46073D02*
X83199D01*
Y-44872D01*
X79499D02*
X83199D01*
X79499Y-46073D02*
Y-44872D01*
X78543Y-50591D02*
Y-40354D01*
X84055D01*
Y-50591D02*
Y-40354D01*
X78543Y-50591D02*
X84055D01*
X79499Y-57884D02*
X83199D01*
Y-56683D01*
X79499D02*
X83199D01*
X79499Y-57884D02*
Y-56683D01*
X78543Y-62402D02*
Y-52165D01*
X84055D01*
Y-62402D02*
Y-52165D01*
X78543Y-62402D02*
X84055D01*
X74381Y-212608D02*
X78081D01*
Y-211408D01*
X74381D02*
X78081D01*
X74381Y-212608D02*
Y-211408D01*
X73425Y-217126D02*
Y-206890D01*
X78937D01*
Y-217126D02*
Y-206890D01*
X73425Y-217126D02*
X78937D01*
X74381Y-195384D02*
X78081D01*
Y-194184D01*
X74381D02*
X78081D01*
X74381Y-195384D02*
Y-194184D01*
X73425Y-199902D02*
Y-189665D01*
X78937D01*
Y-199902D02*
Y-189665D01*
X73425Y-199902D02*
X78937D01*
X112017Y-188021D02*
Y-184320D01*
X110817D02*
X112017D01*
X110817Y-188021D02*
Y-184320D01*
Y-188021D02*
X112017D01*
X106299Y-188976D02*
X116535D01*
X106299D02*
Y-183465D01*
X116535D01*
Y-188976D02*
Y-183465D01*
X100403Y-206621D02*
Y-203221D01*
X99203Y-206621D02*
Y-203221D01*
X94291Y-207677D02*
X105315D01*
X94291D02*
Y-202165D01*
X105315D01*
Y-207677D02*
Y-202165D01*
X145266Y-82605D02*
Y-79206D01*
X146466Y-82605D02*
Y-79206D01*
X140354Y-78150D02*
X151378D01*
Y-83661D02*
Y-78150D01*
X140354Y-83661D02*
X151378D01*
X140354D02*
Y-78150D01*
X145463Y-98649D02*
Y-95249D01*
X146663Y-98649D02*
Y-95249D01*
X140551Y-94193D02*
X151575D01*
Y-99705D02*
Y-94193D01*
X140551Y-99705D02*
X151575D01*
X140551D02*
Y-94193D01*
X123927Y-106623D02*
Y-102923D01*
X122727D02*
X123927D01*
X122727Y-106623D02*
Y-102923D01*
Y-106623D02*
X123927D01*
X118209Y-107579D02*
X128445D01*
X118209D02*
Y-102067D01*
X128445D01*
Y-107579D02*
Y-102067D01*
X133849Y-106523D02*
Y-103123D01*
X135049Y-106523D02*
Y-103123D01*
X128937Y-102067D02*
X139961D01*
Y-107579D02*
Y-102067D01*
X128937Y-107579D02*
X139961D01*
X128937D02*
Y-102067D01*
X119163Y-95561D02*
X122863D01*
X119163Y-96761D02*
Y-95561D01*
Y-96761D02*
X122863D01*
Y-95561D01*
X123819Y-101279D02*
Y-91043D01*
X118307Y-101279D02*
X123819D01*
X118307D02*
Y-91043D01*
X123819D01*
X119163Y-117116D02*
X122863D01*
X119163Y-118316D02*
Y-117116D01*
Y-118316D02*
X122863D01*
Y-117116D01*
X123819Y-122835D02*
Y-112598D01*
X118307Y-122835D02*
X123819D01*
X118307D02*
Y-112598D01*
X123819D01*
X112411Y-130934D02*
Y-127234D01*
X111211D02*
X112411D01*
X111211Y-130934D02*
Y-127234D01*
Y-130934D02*
X112411D01*
X106693Y-131890D02*
X116929D01*
X106693D02*
Y-126378D01*
X116929D01*
Y-131890D02*
Y-126378D01*
X125462Y-138180D02*
X129162D01*
X125462Y-139380D02*
Y-138180D01*
Y-139380D02*
X129162D01*
Y-138180D01*
X130118Y-143898D02*
Y-133661D01*
X124606Y-143898D02*
X130118D01*
X124606D02*
Y-133661D01*
X130118D01*
X100403Y-130834D02*
Y-127434D01*
X99203Y-130834D02*
Y-127434D01*
X94291Y-131890D02*
X105315D01*
X94291D02*
Y-126378D01*
X105315D01*
Y-131890D02*
Y-126378D01*
X79499Y-69695D02*
X83199D01*
Y-68494D01*
X79499D02*
X83199D01*
X79499Y-69695D02*
Y-68494D01*
X78543Y-74213D02*
Y-63976D01*
X84055D01*
Y-74213D02*
Y-63976D01*
X78543Y-74213D02*
X84055D01*
X79499Y-93317D02*
X83199D01*
Y-92117D01*
X79499D02*
X83199D01*
X79499Y-93317D02*
Y-92117D01*
X78543Y-97835D02*
Y-87599D01*
X84055D01*
Y-97835D02*
Y-87599D01*
X78543Y-97835D02*
X84055D01*
X79499Y-105128D02*
X83199D01*
Y-103928D01*
X79499D02*
X83199D01*
X79499Y-105128D02*
Y-103928D01*
X78543Y-109646D02*
Y-99410D01*
X84055D01*
Y-109646D02*
Y-99410D01*
X78543Y-109646D02*
X84055D01*
X79499Y-116939D02*
X83199D01*
Y-115739D01*
X79499D02*
X83199D01*
X79499Y-116939D02*
Y-115739D01*
X78543Y-121457D02*
Y-111221D01*
X84055D01*
Y-121457D02*
Y-111221D01*
X78543Y-121457D02*
X84055D01*
X79499Y-128750D02*
X83199D01*
Y-127550D01*
X79499D02*
X83199D01*
X79499Y-128750D02*
Y-127550D01*
X78543Y-133268D02*
Y-123031D01*
X84055D01*
Y-133268D02*
Y-123031D01*
X78543Y-133268D02*
X84055D01*
X74381Y-144104D02*
X78081D01*
Y-142904D01*
X74381D02*
X78081D01*
X74381Y-144104D02*
Y-142904D01*
X73425Y-148622D02*
Y-138386D01*
X78937D01*
Y-148622D02*
Y-138386D01*
X73425Y-148622D02*
X78937D01*
X74381Y-160935D02*
X78081D01*
Y-159735D01*
X74381D02*
X78081D01*
X74381Y-160935D02*
Y-159735D01*
X73425Y-165453D02*
Y-155217D01*
X78937D01*
Y-165453D02*
Y-155217D01*
X73425Y-165453D02*
X78937D01*
X74381Y-178159D02*
X78081D01*
Y-176959D01*
X74381D02*
X78081D01*
X74381Y-178159D02*
Y-176959D01*
X73425Y-182677D02*
Y-172441D01*
X78937D01*
Y-182677D02*
Y-172441D01*
X73425Y-182677D02*
X78937D01*
X112411Y-206721D02*
Y-203021D01*
X111211D02*
X112411D01*
X111211Y-206721D02*
Y-203021D01*
Y-206721D02*
X112411D01*
X106693Y-207677D02*
X116929D01*
X106693D02*
Y-202165D01*
X116929D01*
Y-207677D02*
Y-202165D01*
X125462Y-176073D02*
X129162D01*
X125462Y-177273D02*
Y-176073D01*
Y-177273D02*
X129162D01*
Y-176073D01*
X130118Y-181791D02*
Y-171555D01*
X124606Y-181791D02*
X130118D01*
X124606D02*
Y-171555D01*
X130118D01*
X125462Y-195020D02*
X129162D01*
X125462Y-196220D02*
Y-195020D01*
Y-196220D02*
X129162D01*
Y-195020D01*
X130118Y-200738D02*
Y-190502D01*
X124606Y-200738D02*
X130118D01*
X124606D02*
Y-190502D01*
X130118D01*
X125562Y-215167D02*
X129262D01*
Y-213967D01*
X125562D02*
X129262D01*
X125562Y-215167D02*
Y-213967D01*
X124606Y-219685D02*
Y-209449D01*
X130118D01*
Y-219685D02*
Y-209449D01*
X124606Y-219685D02*
X130118D01*
X142313Y-167743D02*
Y-164343D01*
X143513Y-167743D02*
Y-164343D01*
X137402Y-163287D02*
X148425D01*
Y-168799D02*
Y-163287D01*
X137402Y-168799D02*
X148425D01*
X137402D02*
Y-163287D01*
X197530Y-135755D02*
Y-132355D01*
X198730Y-135755D02*
Y-132355D01*
X192618Y-131299D02*
X203642D01*
Y-136811D02*
Y-131299D01*
X192618Y-136811D02*
X203642D01*
X192618D02*
Y-131299D01*
X214262Y-135755D02*
Y-132355D01*
X215462Y-135755D02*
Y-132355D01*
X209350Y-131299D02*
X220374D01*
Y-136811D02*
Y-131299D01*
X209350Y-136811D02*
X220374D01*
X209350D02*
Y-131299D01*
X231290Y-135755D02*
Y-132355D01*
X232490Y-135755D02*
Y-132355D01*
X226378Y-131299D02*
X237402D01*
Y-136811D02*
Y-131299D01*
X226378Y-136811D02*
X237402D01*
X226378D02*
Y-131299D01*
X206683Y-34672D02*
Y-31272D01*
X207884Y-34672D02*
Y-31272D01*
X201772Y-30217D02*
X212795D01*
Y-35728D02*
Y-30217D01*
X201772Y-35728D02*
X212795D01*
X201772D02*
Y-30217D01*
X196072Y-34672D02*
Y-31272D01*
X194872Y-34672D02*
Y-31272D01*
X189961Y-35728D02*
X200984D01*
X189961D02*
Y-30217D01*
X200984D01*
Y-35728D02*
Y-30217D01*
X182785Y-33491D02*
Y-30091D01*
X181585Y-33491D02*
Y-30091D01*
X176673Y-34547D02*
X187697D01*
X176673D02*
Y-29035D01*
X187697D01*
Y-34547D02*
Y-29035D01*
X197235Y-197665D02*
Y-194265D01*
X198435Y-197665D02*
Y-194265D01*
X192323Y-193209D02*
X203346D01*
Y-198721D02*
Y-193209D01*
X192323Y-198721D02*
X203346D01*
X192323D02*
Y-193209D01*
X186427Y-191662D02*
Y-187962D01*
X185227D02*
X186427D01*
X185227Y-191662D02*
Y-187962D01*
Y-191662D02*
X186427D01*
X180709Y-192618D02*
X190945D01*
X180709D02*
Y-187106D01*
X190945D01*
Y-192618D02*
Y-187106D01*
X141920Y-174144D02*
Y-170444D01*
Y-174144D02*
X143120D01*
Y-170444D01*
X141920D02*
X143120D01*
X137402Y-169488D02*
X147638D01*
Y-175000D02*
Y-169488D01*
X137402Y-175000D02*
X147638D01*
X137402D02*
Y-169488D01*
X125562Y-158376D02*
X129262D01*
Y-157176D01*
X125562D02*
X129262D01*
X125562Y-158376D02*
Y-157176D01*
X124606Y-162894D02*
Y-152657D01*
X130118D01*
Y-162894D02*
Y-152657D01*
X124606Y-162894D02*
X130118D01*
X119263Y-79931D02*
X122963D01*
Y-78731D01*
X119263D02*
X122963D01*
X119263Y-79931D02*
Y-78731D01*
X118307Y-84449D02*
Y-74213D01*
X123819D01*
Y-84449D02*
Y-74213D01*
X118307Y-84449D02*
X123819D01*
X119852Y-45758D02*
X123552D01*
X119852Y-46958D02*
Y-45758D01*
Y-46958D02*
X123552D01*
Y-45758D01*
X124508Y-51476D02*
Y-41240D01*
X118996Y-51476D02*
X124508D01*
X118996D02*
Y-41240D01*
X124508D01*
X119853Y-36033D02*
X123554D01*
Y-34833D01*
X119853D02*
X123554D01*
X119853Y-36033D02*
Y-34833D01*
X118898Y-40551D02*
Y-30315D01*
X124409D01*
Y-40551D02*
Y-30315D01*
X118898Y-40551D02*
X124409D01*
X100010Y-187920D02*
Y-184520D01*
X98809Y-187920D02*
Y-184520D01*
X93898Y-188976D02*
X104921D01*
X93898D02*
Y-183465D01*
X104921D01*
Y-188976D02*
Y-183465D01*
X112411Y-169320D02*
Y-165620D01*
X111211D02*
X112411D01*
X111211Y-169320D02*
Y-165620D01*
Y-169320D02*
X112411D01*
X106693Y-170276D02*
X116929D01*
X106693D02*
Y-164764D01*
X116929D01*
Y-170276D02*
Y-164764D01*
X100403Y-169023D02*
Y-165623D01*
X99203Y-169023D02*
Y-165623D01*
X94291Y-170079D02*
X105315D01*
X94291D02*
Y-164567D01*
X105315D01*
Y-170079D02*
Y-164567D01*
X112411Y-149831D02*
Y-146132D01*
X111211D02*
X112411D01*
X111211Y-149831D02*
Y-146132D01*
Y-149831D02*
X112411D01*
X106693Y-150787D02*
X116929D01*
X106693D02*
Y-145276D01*
X116929D01*
Y-150787D02*
Y-145276D01*
X100403Y-149928D02*
Y-146528D01*
X99203Y-149928D02*
Y-146528D01*
X94291Y-150984D02*
X105315D01*
X94291D02*
Y-145472D01*
X105315D01*
Y-150984D02*
Y-145472D01*
D13*
X272539Y-29724D02*
G03*
X272539Y-29724I-492J0D01*
G01*
X296358Y-78819D02*
G03*
X296358Y-78819I-492J0D01*
G01*
X161122Y-46654D02*
G03*
X161122Y-46654I-492J0D01*
G01*
X317106Y-141240D02*
G03*
X317106Y-141240I-492J0D01*
G01*
X186909Y-184252D02*
G03*
X186909Y-184252I-394J0D01*
G01*
X204232Y-220984D02*
G03*
X204232Y-220984I-492J0D01*
G01*
X157560Y-195562D02*
G03*
X157560Y-195562I-492J0D01*
G01*
D14*
X281791Y-35925D02*
G03*
X281791Y-35925I-1181J0D01*
G01*
X171457Y-51772D02*
G03*
X171457Y-51772I-1181J0D01*
G01*
D15*
X340059Y-155905D02*
Y-43701D01*
Y-155905D02*
X386319D01*
X340059Y-43701D02*
X386319D01*
Y-155905D02*
Y-43701D01*
X34449Y-214961D02*
Y-21260D01*
X-11811D02*
X34449D01*
X-11811Y-214961D02*
X34449D01*
X-11811D02*
Y-21260D01*
D16*
X252559Y-139291D02*
Y-138661D01*
X262402Y-139291D02*
Y-138661D01*
X249138Y-163593D02*
X250112Y-164567D01*
X238976Y-153431D02*
X239951Y-154406D01*
X238002Y-174728D02*
X238976Y-175703D01*
X227841Y-164567D02*
X228815Y-165541D01*
X249138D02*
X250112Y-164567D01*
X238002Y-154406D02*
X238976Y-153431D01*
Y-175703D02*
X239951Y-174728D01*
X227841Y-164567D02*
X228815Y-163593D01*
X176673Y-206398D02*
Y-177657D01*
X159744Y-206398D02*
Y-177657D01*
X206102Y-178051D02*
X234842D01*
X206102Y-194980D02*
X234842D01*
X325847Y-30561D02*
Y-24163D01*
X313524Y-30561D02*
Y-24163D01*
X278228Y-129134D02*
X287992D01*
Y-93701D01*
X278228D02*
X287992D01*
X252559D02*
X262323D01*
X252559Y-129134D02*
Y-93701D01*
Y-129134D02*
X262323D01*
X219390Y-28898D02*
X231988D01*
X219390Y-36260D02*
X231988D01*
X141732Y-69410D02*
Y-66024D01*
X147638Y-69410D02*
Y-66024D01*
D17*
X328051Y-14547D02*
X330512D01*
X328051Y-30531D02*
Y-14547D01*
Y-30531D02*
X330512D01*
X339764Y-14547D02*
X340669D01*
Y-15728D02*
Y-14547D01*
Y-15728D02*
X349114D01*
X340669Y-29350D02*
X349114D01*
X340669Y-30531D02*
Y-29350D01*
X339764Y-30531D02*
X340669D01*
X359154Y-29350D02*
X373524D01*
X359154Y-15728D02*
X373524D01*
X352658Y-31988D02*
X355807D01*
X352658D02*
X354232Y-34744D01*
X355807Y-31988D01*
D18*
X313208Y-140036D02*
Y-123712D01*
X292108Y-140036D02*
Y-123712D01*
D19*
X252066Y-43725D02*
Y-28125D01*
X264666Y-43725D02*
Y-28125D01*
X252066Y-43725D02*
X264666D01*
X252066Y-28125D02*
X264666D01*
X126673Y-98843D02*
X139273D01*
X126673Y-83243D02*
X139273D01*
X126673Y-98843D02*
Y-83243D01*
X139273Y-98843D02*
Y-83243D01*
D20*
X94504Y-219614D02*
X117504D01*
X94504Y-208614D02*
X117504D01*
X94504Y-144142D02*
X117504D01*
X94504Y-133142D02*
X117504D01*
X94504Y-201228D02*
X117504D01*
X94504Y-190228D02*
X117504D01*
X94504Y-182213D02*
X117504D01*
X94504Y-171213D02*
X117504D01*
X94504Y-163039D02*
X117504D01*
X94504Y-152039D02*
X117504D01*
D21*
X103937Y-59745D02*
Y-62041D01*
X104396Y-62500D01*
X105315D01*
X105774Y-62041D01*
Y-59745D01*
X106692Y-62500D02*
X107610D01*
X107151D01*
Y-59745D01*
X106692Y-60204D01*
X108988D02*
X109447Y-59745D01*
X110365D01*
X110825Y-60204D01*
Y-60663D01*
X110365Y-61123D01*
X110825Y-61582D01*
Y-62041D01*
X110365Y-62500D01*
X109447D01*
X108988Y-62041D01*
Y-61582D01*
X109447Y-61123D01*
X108988Y-60663D01*
Y-60204D01*
X109447Y-61123D02*
X110365D01*
X295047Y-216733D02*
X296883Y-219488D01*
Y-216733D02*
X295047Y-219488D01*
X299179D02*
Y-216733D01*
X297802Y-218110D01*
X299638D01*
X162499Y-149094D02*
X159745D01*
Y-147717D01*
X160204Y-147258D01*
X161122D01*
X161581Y-147717D01*
Y-149094D01*
Y-148176D02*
X162499Y-147258D01*
X159745Y-144503D02*
X160204Y-145421D01*
X161122Y-146339D01*
X162040D01*
X162499Y-145880D01*
Y-144962D01*
X162040Y-144503D01*
X161581D01*
X161122Y-144962D01*
Y-146339D01*
X160204Y-143585D02*
X159745Y-143125D01*
Y-142207D01*
X160204Y-141748D01*
X160663D01*
X161122Y-142207D01*
X161581Y-141748D01*
X162040D01*
X162499Y-142207D01*
Y-143125D01*
X162040Y-143585D01*
X161581D01*
X161122Y-143125D01*
X160663Y-143585D01*
X160204D01*
X161122Y-143125D02*
Y-142207D01*
X266700Y-155722D02*
X266241Y-156182D01*
Y-157100D01*
X266700Y-157559D01*
X268536D01*
X268996Y-157100D01*
Y-156182D01*
X268536Y-155722D01*
X266241Y-152967D02*
Y-154804D01*
X267618D01*
X267159Y-153886D01*
Y-153427D01*
X267618Y-152967D01*
X268536D01*
X268996Y-153427D01*
Y-154345D01*
X268536Y-154804D01*
X266700Y-152049D02*
X266241Y-151590D01*
Y-150672D01*
X266700Y-150212D01*
X267159D01*
X267618Y-150672D01*
Y-151131D01*
Y-150672D01*
X268077Y-150212D01*
X268536D01*
X268996Y-150672D01*
Y-151590D01*
X268536Y-152049D01*
X206319Y-220473D02*
Y-223228D01*
X208156D01*
X209074D02*
X209992D01*
X209533D01*
Y-220473D01*
X209074Y-220932D01*
X345098Y-39469D02*
X346935Y-42224D01*
Y-39469D02*
X345098Y-42224D01*
X347853D02*
X348772D01*
X348313D01*
Y-39469D01*
X347853Y-39928D01*
X244606Y-174017D02*
X246229Y-175640D01*
X246879D01*
X247528Y-174991D01*
Y-174342D01*
X245904Y-172718D01*
X249801D02*
X248502Y-174017D01*
Y-171420D01*
X248177Y-171095D01*
X247528D01*
X246879Y-171744D01*
Y-172394D01*
X249801Y-168822D02*
X249476Y-169796D01*
Y-171095D01*
X250125Y-171744D01*
X250775D01*
X251424Y-171095D01*
Y-170446D01*
X251099Y-170121D01*
X250450D01*
X249476Y-171095D01*
X263922Y-165371D02*
Y-162616D01*
X265300D01*
X265759Y-163075D01*
Y-163994D01*
X265300Y-164453D01*
X263922D01*
X264841D02*
X265759Y-165371D01*
X266677Y-162616D02*
X268514D01*
Y-163075D01*
X266677Y-164912D01*
Y-165371D01*
X270810D02*
Y-162616D01*
X269432Y-163994D01*
X271269D01*
X284370Y-151870D02*
Y-149115D01*
X285748D01*
X286207Y-149574D01*
Y-150492D01*
X285748Y-150951D01*
X284370D01*
X285288D02*
X286207Y-151870D01*
X287125Y-149115D02*
X288962D01*
Y-149574D01*
X287125Y-151410D01*
Y-151870D01*
X289880Y-149574D02*
X290339Y-149115D01*
X291258D01*
X291717Y-149574D01*
Y-150033D01*
X291258Y-150492D01*
X290798D01*
X291258D01*
X291717Y-150951D01*
Y-151410D01*
X291258Y-151870D01*
X290339D01*
X289880Y-151410D01*
X284370Y-157775D02*
Y-155020D01*
X285748D01*
X286207Y-155479D01*
Y-156398D01*
X285748Y-156857D01*
X284370D01*
X285288D02*
X286207Y-157775D01*
X287125Y-155020D02*
X288962D01*
Y-155479D01*
X287125Y-157316D01*
Y-157775D01*
X291717D02*
X289880D01*
X291717Y-155938D01*
Y-155479D01*
X291258Y-155020D01*
X290339D01*
X289880Y-155479D01*
X205433Y-153149D02*
Y-150394D01*
X206811D01*
X207270Y-150853D01*
Y-151772D01*
X206811Y-152231D01*
X205433D01*
X206351D02*
X207270Y-153149D01*
X208188Y-150394D02*
X210025D01*
Y-150853D01*
X208188Y-152690D01*
Y-153149D01*
X210943D02*
X211861D01*
X211402D01*
Y-150394D01*
X210943Y-150853D01*
X205236Y-142716D02*
Y-139961D01*
X206614D01*
X207073Y-140420D01*
Y-141339D01*
X206614Y-141798D01*
X205236D01*
X206155D02*
X207073Y-142716D01*
X207991Y-139961D02*
X209828D01*
Y-140420D01*
X207991Y-142257D01*
Y-142716D01*
X210746Y-140420D02*
X211205Y-139961D01*
X212124D01*
X212583Y-140420D01*
Y-142257D01*
X212124Y-142716D01*
X211205D01*
X210746Y-142257D01*
Y-140420D01*
X205039Y-147342D02*
Y-144587D01*
X206417D01*
X206876Y-145046D01*
Y-145965D01*
X206417Y-146424D01*
X205039D01*
X205958D02*
X206876Y-147342D01*
X209631Y-144587D02*
X208713Y-145046D01*
X207794Y-145965D01*
Y-146883D01*
X208254Y-147342D01*
X209172D01*
X209631Y-146883D01*
Y-146424D01*
X209172Y-145965D01*
X207794D01*
X210549Y-146883D02*
X211009Y-147342D01*
X211927D01*
X212386Y-146883D01*
Y-145046D01*
X211927Y-144587D01*
X211009D01*
X210549Y-145046D01*
Y-145505D01*
X211009Y-145965D01*
X212386D01*
X205335Y-165059D02*
Y-162304D01*
X206712D01*
X207171Y-162763D01*
Y-163681D01*
X206712Y-164140D01*
X205335D01*
X206253D02*
X207171Y-165059D01*
X209926Y-162304D02*
X209008Y-162763D01*
X208090Y-163681D01*
Y-164599D01*
X208549Y-165059D01*
X209467D01*
X209926Y-164599D01*
Y-164140D01*
X209467Y-163681D01*
X208090D01*
X210845Y-162304D02*
X212681D01*
Y-162763D01*
X210845Y-164599D01*
Y-165059D01*
X205138Y-158858D02*
Y-156103D01*
X206515D01*
X206975Y-156562D01*
Y-157480D01*
X206515Y-157940D01*
X205138D01*
X206056D02*
X206975Y-158858D01*
X209730Y-156103D02*
X208811Y-156562D01*
X207893Y-157480D01*
Y-158399D01*
X208352Y-158858D01*
X209270D01*
X209730Y-158399D01*
Y-157940D01*
X209270Y-157480D01*
X207893D01*
X212485Y-156103D02*
X211566Y-156562D01*
X210648Y-157480D01*
Y-158399D01*
X211107Y-158858D01*
X212025D01*
X212485Y-158399D01*
Y-157940D01*
X212025Y-157480D01*
X210648D01*
X270492Y-182775D02*
Y-180020D01*
X271870D01*
X272329Y-180479D01*
Y-181398D01*
X271870Y-181857D01*
X270492D01*
X271410D02*
X272329Y-182775D01*
X275084Y-180020D02*
X274166Y-180479D01*
X273247Y-181398D01*
Y-182316D01*
X273706Y-182775D01*
X274625D01*
X275084Y-182316D01*
Y-181857D01*
X274625Y-181398D01*
X273247D01*
X277839Y-180020D02*
X276002D01*
Y-181398D01*
X276921Y-180938D01*
X277380D01*
X277839Y-181398D01*
Y-182316D01*
X277380Y-182775D01*
X276461D01*
X276002Y-182316D01*
X265489Y-176515D02*
Y-173760D01*
X266866D01*
X267325Y-174220D01*
Y-175138D01*
X266866Y-175597D01*
X265489D01*
X266407D02*
X267325Y-176515D01*
X270080Y-173760D02*
X269162Y-174220D01*
X268244Y-175138D01*
Y-176056D01*
X268703Y-176515D01*
X269621D01*
X270080Y-176056D01*
Y-175597D01*
X269621Y-175138D01*
X268244D01*
X272376Y-176515D02*
Y-173760D01*
X270999Y-175138D01*
X272835D01*
X253641Y-190630D02*
X250886D01*
Y-189252D01*
X251345Y-188793D01*
X252264D01*
X252723Y-189252D01*
Y-190630D01*
Y-189712D02*
X253641Y-188793D01*
X250886Y-186038D02*
X251345Y-186957D01*
X252264Y-187875D01*
X253182D01*
X253641Y-187416D01*
Y-186497D01*
X253182Y-186038D01*
X252723D01*
X252264Y-186497D01*
Y-187875D01*
X251345Y-185120D02*
X250886Y-184661D01*
Y-183742D01*
X251345Y-183283D01*
X251805D01*
X252264Y-183742D01*
Y-184202D01*
Y-183742D01*
X252723Y-183283D01*
X253182D01*
X253641Y-183742D01*
Y-184661D01*
X253182Y-185120D01*
X276299Y-188582D02*
Y-185827D01*
X277677D01*
X278136Y-186286D01*
Y-187205D01*
X277677Y-187664D01*
X276299D01*
X277218D02*
X278136Y-188582D01*
X280891Y-185827D02*
X279973Y-186286D01*
X279054Y-187205D01*
Y-188123D01*
X279513Y-188582D01*
X280432D01*
X280891Y-188123D01*
Y-187664D01*
X280432Y-187205D01*
X279054D01*
X283646Y-188582D02*
X281809D01*
X283646Y-186746D01*
Y-186286D01*
X283187Y-185827D01*
X282268D01*
X281809Y-186286D01*
X255138Y-156397D02*
Y-153642D01*
X256515D01*
X256975Y-154101D01*
Y-155020D01*
X256515Y-155479D01*
X255138D01*
X256056D02*
X256975Y-156397D01*
X259730Y-153642D02*
X258811Y-154101D01*
X257893Y-155020D01*
Y-155938D01*
X258352Y-156397D01*
X259270D01*
X259730Y-155938D01*
Y-155479D01*
X259270Y-155020D01*
X257893D01*
X260648Y-156397D02*
X261566D01*
X261107D01*
Y-153642D01*
X260648Y-154101D01*
X261633Y-200001D02*
X263581Y-201949D01*
X264880Y-200651D01*
X266828Y-198703D02*
X265529Y-200001D01*
Y-197404D01*
X265205Y-197079D01*
X264556D01*
X263906Y-197729D01*
Y-198378D01*
X249475Y-129837D02*
X249016Y-130296D01*
Y-131214D01*
X249475Y-131673D01*
X251312D01*
X251771Y-131214D01*
Y-130296D01*
X251312Y-129837D01*
X250394D01*
Y-130755D01*
X251771Y-128918D02*
Y-128000D01*
Y-128459D01*
X249016D01*
X249475Y-128918D01*
X217407Y-167881D02*
X216948Y-167422D01*
X216030D01*
X215571Y-167881D01*
Y-169718D01*
X216030Y-170177D01*
X216948D01*
X217407Y-169718D01*
X220163Y-167422D02*
X218326D01*
Y-168799D01*
X219244Y-168340D01*
X219703D01*
X220163Y-168799D01*
Y-169718D01*
X219703Y-170177D01*
X218785D01*
X218326Y-169718D01*
X222918Y-170177D02*
X221081D01*
X222918Y-168340D01*
Y-167881D01*
X222458Y-167422D01*
X221540D01*
X221081Y-167881D01*
X242883Y-149716D02*
X242233D01*
X241584Y-150365D01*
Y-151015D01*
X242883Y-152314D01*
X243532D01*
X244181Y-151664D01*
Y-151015D01*
X244506Y-147443D02*
X243207Y-148742D01*
X244181Y-149716D01*
X244506Y-148742D01*
X244831Y-148417D01*
X245480D01*
X246130Y-149067D01*
Y-149716D01*
X245480Y-150365D01*
X244831D01*
X247104Y-148742D02*
X247753Y-148093D01*
X247428Y-148417D01*
X245480Y-146469D01*
Y-147119D01*
X229794Y-147986D02*
Y-147337D01*
X229145Y-146687D01*
X228495D01*
X227196Y-147986D01*
Y-148635D01*
X227846Y-149285D01*
X228495D01*
X232067Y-149609D02*
X230768Y-148311D01*
X229794Y-149285D01*
X230768Y-149609D01*
X231093Y-149934D01*
Y-150583D01*
X230443Y-151233D01*
X229794D01*
X229145Y-150583D01*
Y-149934D01*
X232391Y-150583D02*
X233041D01*
X233690Y-151233D01*
Y-151882D01*
X232391Y-153181D01*
X231742D01*
X231093Y-152532D01*
Y-151882D01*
X232391Y-150583D01*
X295834Y-177966D02*
X295374Y-178426D01*
Y-179344D01*
X295834Y-179803D01*
X297670D01*
X298130Y-179344D01*
Y-178426D01*
X297670Y-177966D01*
X298130Y-175671D02*
X295374D01*
X296752Y-177048D01*
Y-175212D01*
X297670Y-174293D02*
X298130Y-173834D01*
Y-172916D01*
X297670Y-172456D01*
X295834D01*
X295374Y-172916D01*
Y-173834D01*
X295834Y-174293D01*
X296293D01*
X296752Y-173834D01*
Y-172456D01*
X244083Y-126938D02*
Y-126288D01*
X243434Y-125639D01*
X242784D01*
X241486Y-126938D01*
Y-127587D01*
X242135Y-128237D01*
X242784D01*
X244083Y-130185D02*
X246031Y-128237D01*
X244083D01*
X245382Y-129535D01*
X246680D02*
X247330D01*
X247979Y-130185D01*
Y-130834D01*
X247655Y-131159D01*
X247005D01*
Y-131808D01*
X246680Y-132133D01*
X246031D01*
X245382Y-131483D01*
Y-130834D01*
X245707Y-130509D01*
X246356D01*
Y-129860D01*
X246680Y-129535D01*
X246356Y-130509D02*
X247005Y-131159D01*
X271525Y-207689D02*
X270875D01*
X270226Y-208338D01*
Y-208987D01*
X271525Y-210286D01*
X272174D01*
X272823Y-209637D01*
Y-208987D01*
X274771Y-207689D02*
X272823Y-205740D01*
Y-207689D01*
X274122Y-206390D01*
X273797Y-204767D02*
X275096Y-203468D01*
X275421Y-203792D01*
Y-206390D01*
X275745Y-206715D01*
X267292Y-203456D02*
X266643D01*
X265993Y-204106D01*
Y-204755D01*
X267292Y-206054D01*
X267942D01*
X268591Y-205404D01*
Y-204755D01*
X270539Y-203456D02*
X268591Y-201508D01*
Y-203456D01*
X269890Y-202158D01*
X270864Y-199235D02*
X270539Y-200209D01*
Y-201508D01*
X271188Y-202158D01*
X271838D01*
X272487Y-201508D01*
Y-200859D01*
X272162Y-200534D01*
X271513D01*
X270539Y-201508D01*
X365079Y-30906D02*
X366915Y-33661D01*
Y-30906D02*
X365079Y-33661D01*
X367834Y-31365D02*
X368293Y-30906D01*
X369211D01*
X369670Y-31365D01*
Y-31824D01*
X369211Y-32283D01*
X368752D01*
X369211D01*
X369670Y-32743D01*
Y-33202D01*
X369211Y-33661D01*
X368293D01*
X367834Y-33202D01*
X311319Y-40532D02*
X313615D01*
X314074Y-40072D01*
Y-39154D01*
X313615Y-38695D01*
X311319D01*
X314074Y-35940D02*
Y-37776D01*
X312238Y-35940D01*
X311778D01*
X311319Y-36399D01*
Y-37317D01*
X311778Y-37776D01*
X311319Y-33185D02*
Y-35021D01*
X312697D01*
X312238Y-34103D01*
Y-33644D01*
X312697Y-33185D01*
X313615D01*
X314074Y-33644D01*
Y-34562D01*
X313615Y-35021D01*
X362421Y-38681D02*
Y-35926D01*
X363799D01*
X364258Y-36385D01*
Y-37303D01*
X363799Y-37762D01*
X362421D01*
X363340D02*
X364258Y-38681D01*
X367013Y-35926D02*
X366095Y-36385D01*
X365176Y-37303D01*
Y-38221D01*
X365635Y-38681D01*
X366554D01*
X367013Y-38221D01*
Y-37762D01*
X366554Y-37303D01*
X365176D01*
X367931Y-36385D02*
X368390Y-35926D01*
X369309D01*
X369768Y-36385D01*
Y-38221D01*
X369309Y-38681D01*
X368390D01*
X367931Y-38221D01*
Y-36385D01*
X325217Y-38681D02*
Y-35926D01*
X326594D01*
X327053Y-36385D01*
Y-37303D01*
X326594Y-37762D01*
X325217D01*
X326135D02*
X327053Y-38681D01*
X329808Y-35926D02*
X327972D01*
Y-37303D01*
X328890Y-36844D01*
X329349D01*
X329808Y-37303D01*
Y-38221D01*
X329349Y-38681D01*
X328431D01*
X327972Y-38221D01*
X330727D02*
X331186Y-38681D01*
X332104D01*
X332563Y-38221D01*
Y-36385D01*
X332104Y-35926D01*
X331186D01*
X330727Y-36385D01*
Y-36844D01*
X331186Y-37303D01*
X332563D01*
X157311Y-175568D02*
X156851Y-176027D01*
Y-176946D01*
X157311Y-177405D01*
X159147D01*
X159607Y-176946D01*
Y-176027D01*
X159147Y-175568D01*
X157311Y-174650D02*
X156851Y-174191D01*
Y-173272D01*
X157311Y-172813D01*
X157770D01*
X158229Y-173272D01*
Y-173732D01*
Y-173272D01*
X158688Y-172813D01*
X159147D01*
X159607Y-173272D01*
Y-174191D01*
X159147Y-174650D01*
X156851Y-170058D02*
Y-171895D01*
X158229D01*
X157770Y-170976D01*
Y-170517D01*
X158229Y-170058D01*
X159147D01*
X159607Y-170517D01*
Y-171436D01*
X159147Y-171895D01*
X149213Y-70453D02*
X151968Y-68616D01*
X149213D02*
X151968Y-70453D01*
X149213Y-67698D02*
Y-65861D01*
Y-66779D01*
X151968D01*
Y-64943D02*
X150131D01*
X149213Y-64024D01*
X150131Y-63106D01*
X151968D01*
X150591D01*
Y-64943D01*
X149213Y-62188D02*
X151968D01*
Y-60351D01*
Y-57596D02*
Y-59433D01*
X150131Y-57596D01*
X149672D01*
X149213Y-58055D01*
Y-58973D01*
X149672Y-59433D01*
X134862Y-55906D02*
Y-58661D01*
X136240D01*
X136699Y-58202D01*
Y-56365D01*
X136240Y-55906D01*
X134862D01*
X137617Y-58661D02*
X138536D01*
X138076D01*
Y-55906D01*
X137617Y-56365D01*
X153314Y-47258D02*
X152855Y-47717D01*
Y-48635D01*
X153314Y-49095D01*
X155151D01*
X155610Y-48635D01*
Y-47717D01*
X155151Y-47258D01*
X152855Y-46339D02*
Y-44503D01*
X153314D01*
X155151Y-46339D01*
X155610D01*
X115684Y-15256D02*
Y-18011D01*
X117061D01*
X117521Y-17552D01*
Y-17093D01*
X117061Y-16634D01*
X115684D01*
X117061D01*
X117521Y-16175D01*
Y-15716D01*
X117061Y-15256D01*
X115684D01*
X118439Y-18011D02*
Y-16175D01*
X119357Y-15256D01*
X120276Y-16175D01*
Y-18011D01*
Y-16634D01*
X118439D01*
X121194Y-15256D02*
X123031D01*
X122112D01*
Y-18011D01*
X123949D02*
X124867D01*
X124408D01*
Y-15256D01*
X123949Y-15716D01*
X136797Y-60893D02*
X136338Y-60434D01*
X135420D01*
X134961Y-60893D01*
Y-62729D01*
X135420Y-63188D01*
X136338D01*
X136797Y-62729D01*
X139552Y-60434D02*
X138634Y-60893D01*
X137716Y-61811D01*
Y-62729D01*
X138175Y-63188D01*
X139093D01*
X139552Y-62729D01*
Y-62270D01*
X139093Y-61811D01*
X137716D01*
X130596Y-76542D02*
X130137Y-76083D01*
X129219D01*
X128760Y-76542D01*
Y-78379D01*
X129219Y-78838D01*
X130137D01*
X130596Y-78379D01*
X133352Y-76083D02*
X131515D01*
Y-77461D01*
X132433Y-77002D01*
X132892D01*
X133352Y-77461D01*
Y-78379D01*
X132892Y-78838D01*
X131974D01*
X131515Y-78379D01*
X314075Y-134134D02*
X316371D01*
X316830Y-133675D01*
Y-132756D01*
X316371Y-132297D01*
X314075D01*
Y-129542D02*
Y-131379D01*
X315453D01*
X314994Y-130461D01*
Y-130001D01*
X315453Y-129542D01*
X316371D01*
X316830Y-130001D01*
Y-130920D01*
X316371Y-131379D01*
X288386Y-139646D02*
X290682D01*
X291141Y-139187D01*
Y-138268D01*
X290682Y-137809D01*
X288386D01*
X291141Y-135513D02*
X288386D01*
X289764Y-136891D01*
Y-135054D01*
X334941Y-94272D02*
X337696D01*
Y-92894D01*
X337237Y-92435D01*
X335401D01*
X334941Y-92894D01*
Y-94272D01*
X335401Y-91517D02*
X334941Y-91057D01*
Y-90139D01*
X335401Y-89680D01*
X335860D01*
X336319Y-90139D01*
Y-90598D01*
Y-90139D01*
X336778Y-89680D01*
X337237D01*
X337696Y-90139D01*
Y-91057D01*
X337237Y-91517D01*
X283924Y-112218D02*
X283465Y-112678D01*
Y-113596D01*
X283924Y-114055D01*
X285761D01*
X286220Y-113596D01*
Y-112678D01*
X285761Y-112218D01*
X286220Y-109463D02*
Y-111300D01*
X284383Y-109463D01*
X283924D01*
X283465Y-109923D01*
Y-110841D01*
X283924Y-111300D01*
X283465Y-108545D02*
Y-106708D01*
X283924D01*
X285761Y-108545D01*
X286220D01*
X268078Y-112218D02*
X267618Y-112678D01*
Y-113596D01*
X268078Y-114055D01*
X269914D01*
X270374Y-113596D01*
Y-112678D01*
X269914Y-112218D01*
X270374Y-109463D02*
Y-111300D01*
X268537Y-109463D01*
X268078D01*
X267618Y-109923D01*
Y-110841D01*
X268078Y-111300D01*
X267618Y-106708D02*
X268078Y-107627D01*
X268996Y-108545D01*
X269914D01*
X270374Y-108086D01*
Y-107168D01*
X269914Y-106708D01*
X269455D01*
X268996Y-107168D01*
Y-108545D01*
X279889Y-112218D02*
X279430Y-112678D01*
Y-113596D01*
X279889Y-114055D01*
X281725D01*
X282185Y-113596D01*
Y-112678D01*
X281725Y-112218D01*
X282185Y-109463D02*
Y-111300D01*
X280348Y-109463D01*
X279889D01*
X279430Y-109923D01*
Y-110841D01*
X279889Y-111300D01*
X279430Y-106708D02*
Y-108545D01*
X280807D01*
X280348Y-107627D01*
Y-107168D01*
X280807Y-106708D01*
X281725D01*
X282185Y-107168D01*
Y-108086D01*
X281725Y-108545D01*
X318392Y-148983D02*
X317933Y-148524D01*
X317014D01*
X316555Y-148983D01*
Y-150820D01*
X317014Y-151279D01*
X317933D01*
X318392Y-150820D01*
X321147Y-151279D02*
X319310D01*
X321147Y-149442D01*
Y-148983D01*
X320688Y-148524D01*
X319769D01*
X319310Y-148983D01*
X323443Y-151279D02*
Y-148524D01*
X322065Y-149902D01*
X323902D01*
X272015Y-112218D02*
X271555Y-112678D01*
Y-113596D01*
X272015Y-114055D01*
X273851D01*
X274311Y-113596D01*
Y-112678D01*
X273851Y-112218D01*
X274311Y-109463D02*
Y-111300D01*
X272474Y-109463D01*
X272015D01*
X271555Y-109923D01*
Y-110841D01*
X272015Y-111300D01*
Y-108545D02*
X271555Y-108086D01*
Y-107168D01*
X272015Y-106708D01*
X272474D01*
X272933Y-107168D01*
Y-107627D01*
Y-107168D01*
X273392Y-106708D01*
X273851D01*
X274311Y-107168D01*
Y-108086D01*
X273851Y-108545D01*
X275952Y-112218D02*
X275493Y-112678D01*
Y-113596D01*
X275952Y-114055D01*
X277788D01*
X278248Y-113596D01*
Y-112678D01*
X277788Y-112218D01*
X278248Y-109463D02*
Y-111300D01*
X276411Y-109463D01*
X275952D01*
X275493Y-109923D01*
Y-110841D01*
X275952Y-111300D01*
X278248Y-106708D02*
Y-108545D01*
X276411Y-106708D01*
X275952D01*
X275493Y-107168D01*
Y-108086D01*
X275952Y-108545D01*
X182546Y-159659D02*
X182087Y-160119D01*
Y-161037D01*
X182546Y-161496D01*
X184383D01*
X184842Y-161037D01*
Y-160119D01*
X184383Y-159659D01*
X182546Y-158741D02*
X182087Y-158282D01*
Y-157364D01*
X182546Y-156904D01*
X183005D01*
X183465Y-157364D01*
Y-157823D01*
Y-157364D01*
X183924Y-156904D01*
X184383D01*
X184842Y-157364D01*
Y-158282D01*
X184383Y-158741D01*
X182546Y-155986D02*
X182087Y-155527D01*
Y-154609D01*
X182546Y-154149D01*
X183005D01*
X183465Y-154609D01*
X183924Y-154149D01*
X184383D01*
X184842Y-154609D01*
Y-155527D01*
X184383Y-155986D01*
X183924D01*
X183465Y-155527D01*
X183005Y-155986D01*
X182546D01*
X183465Y-155527D02*
Y-154609D01*
X203431Y-167881D02*
X202972Y-167422D01*
X202054D01*
X201594Y-167881D01*
Y-169718D01*
X202054Y-170177D01*
X202972D01*
X203431Y-169718D01*
X204349Y-167881D02*
X204809Y-167422D01*
X205727D01*
X206186Y-167881D01*
Y-168340D01*
X205727Y-168799D01*
X205268D01*
X205727D01*
X206186Y-169258D01*
Y-169718D01*
X205727Y-170177D01*
X204809D01*
X204349Y-169718D01*
X207104Y-167422D02*
X208941D01*
Y-167881D01*
X207104Y-169718D01*
Y-170177D01*
X177822Y-182592D02*
X177363Y-183052D01*
Y-183970D01*
X177822Y-184429D01*
X179658D01*
X180118Y-183970D01*
Y-183052D01*
X179658Y-182592D01*
X177822Y-181674D02*
X177363Y-181215D01*
Y-180297D01*
X177822Y-179837D01*
X178281D01*
X178740Y-180297D01*
Y-180756D01*
Y-180297D01*
X179199Y-179837D01*
X179658D01*
X180118Y-180297D01*
Y-181215D01*
X179658Y-181674D01*
X177363Y-177082D02*
X177822Y-178001D01*
X178740Y-178919D01*
X179658D01*
X180118Y-178460D01*
Y-177542D01*
X179658Y-177082D01*
X179199D01*
X178740Y-177542D01*
Y-178919D01*
X192047Y-168898D02*
Y-171194D01*
X192506Y-171653D01*
X193425D01*
X193884Y-171194D01*
Y-168898D01*
X196639Y-171653D02*
X194802D01*
X196639Y-169816D01*
Y-169357D01*
X196180Y-168898D01*
X195261D01*
X194802Y-169357D01*
X199394Y-171653D02*
X197557D01*
X199394Y-169816D01*
Y-169357D01*
X198935Y-168898D01*
X198017D01*
X197557Y-169357D01*
X163898Y-159745D02*
Y-162500D01*
X165275D01*
X165734Y-162040D01*
Y-160204D01*
X165275Y-159745D01*
X163898D01*
X168489D02*
X167571Y-160204D01*
X166653Y-161122D01*
Y-162040D01*
X167112Y-162500D01*
X168030D01*
X168489Y-162040D01*
Y-161581D01*
X168030Y-161122D01*
X166653D01*
X157973Y-159232D02*
X160269D01*
X160728Y-158773D01*
Y-157855D01*
X160269Y-157396D01*
X157973D01*
X160728Y-154641D02*
Y-156477D01*
X158891Y-154641D01*
X158432D01*
X157973Y-155100D01*
Y-156018D01*
X158432Y-156477D01*
Y-153722D02*
X157973Y-153263D01*
Y-152345D01*
X158432Y-151886D01*
X158891D01*
X159350Y-152345D01*
Y-152804D01*
Y-152345D01*
X159810Y-151886D01*
X160269D01*
X160728Y-152345D01*
Y-153263D01*
X160269Y-153722D01*
X18701Y-14962D02*
X20538Y-17717D01*
Y-14962D02*
X18701Y-17717D01*
X23292D02*
X21456D01*
X23292Y-15880D01*
Y-15421D01*
X22833Y-14962D01*
X21915D01*
X21456Y-15421D01*
X155400Y-12664D02*
X154940Y-12205D01*
X154022D01*
X153563Y-12664D01*
Y-13124D01*
X154022Y-13583D01*
X154940D01*
X155400Y-14042D01*
Y-14501D01*
X154940Y-14960D01*
X154022D01*
X153563Y-14501D01*
X156318Y-12205D02*
Y-14960D01*
X157236Y-14042D01*
X158155Y-14960D01*
Y-12205D01*
X159073D02*
Y-14960D01*
X160450D01*
X160910Y-14501D01*
Y-12664D01*
X160450Y-12205D01*
X159073D01*
X161828Y-14960D02*
X162746D01*
X162287D01*
Y-12205D01*
X161828Y-12664D01*
X160158Y-42028D02*
Y-44324D01*
X160617Y-44783D01*
X161535D01*
X161994Y-44324D01*
Y-42028D01*
X162912Y-44783D02*
X163831D01*
X163372D01*
Y-42028D01*
X162912Y-42487D01*
X303249Y-29606D02*
X305544D01*
X306003Y-29147D01*
Y-28229D01*
X305544Y-27770D01*
X303249D01*
X306003Y-25015D02*
Y-26851D01*
X304167Y-25015D01*
X303708D01*
X303249Y-25474D01*
Y-26392D01*
X303708Y-26851D01*
X306003Y-22719D02*
X303249D01*
X304626Y-24096D01*
Y-22260D01*
X276004Y-132875D02*
Y-135629D01*
X277381D01*
X277841Y-135170D01*
Y-134711D01*
X277381Y-134252D01*
X276004D01*
X277381D01*
X277841Y-133793D01*
Y-133334D01*
X277381Y-132875D01*
X276004D01*
X278759D02*
Y-135170D01*
X279218Y-135629D01*
X280136D01*
X280596Y-135170D01*
Y-132875D01*
X281514D02*
X283351D01*
Y-133334D01*
X281514Y-135170D01*
Y-135629D01*
X283351D01*
X284269D02*
X285187D01*
X284728D01*
Y-132875D01*
X284269Y-133334D01*
X152920Y-88596D02*
X152461Y-89056D01*
Y-89974D01*
X152920Y-90433D01*
X154757D01*
X155216Y-89974D01*
Y-89056D01*
X154757Y-88596D01*
X155216Y-87678D02*
Y-86760D01*
Y-87219D01*
X152461D01*
X152920Y-87678D01*
X152822Y-97356D02*
X152363Y-97815D01*
Y-98734D01*
X152822Y-99193D01*
X154658D01*
X155118Y-98734D01*
Y-97815D01*
X154658Y-97356D01*
X155118Y-94601D02*
Y-96438D01*
X153281Y-94601D01*
X152822D01*
X152363Y-95060D01*
Y-95979D01*
X152822Y-96438D01*
X190188Y-27152D02*
X189729Y-26693D01*
X188811D01*
X188352Y-27152D01*
Y-28989D01*
X188811Y-29448D01*
X189729D01*
X190188Y-28989D01*
X191107Y-27152D02*
X191566Y-26693D01*
X192484D01*
X192943Y-27152D01*
Y-27612D01*
X192484Y-28071D01*
X192025D01*
X192484D01*
X192943Y-28530D01*
Y-28989D01*
X192484Y-29448D01*
X191566D01*
X191107Y-28989D01*
X137289Y-108727D02*
X136830Y-108268D01*
X135912D01*
X135453Y-108727D01*
Y-110564D01*
X135912Y-111023D01*
X136830D01*
X137289Y-110564D01*
X139585Y-111023D02*
Y-108268D01*
X138208Y-109646D01*
X140044D01*
X251739Y-60840D02*
X251280Y-61300D01*
Y-62218D01*
X251739Y-62677D01*
X253576D01*
X254035Y-62218D01*
Y-61300D01*
X253576Y-60840D01*
X251739Y-59922D02*
X251280Y-59463D01*
Y-58545D01*
X251739Y-58086D01*
X252198D01*
X252658Y-58545D01*
X253117Y-58086D01*
X253576D01*
X254035Y-58545D01*
Y-59463D01*
X253576Y-59922D01*
X253117D01*
X252658Y-59463D01*
X252198Y-59922D01*
X251739D01*
X252658Y-59463D02*
Y-58545D01*
X228136Y-138156D02*
X227677Y-137697D01*
X226758D01*
X226299Y-138156D01*
Y-139993D01*
X226758Y-140452D01*
X227677D01*
X228136Y-139993D01*
X229054D02*
X229513Y-140452D01*
X230432D01*
X230891Y-139993D01*
Y-138156D01*
X230432Y-137697D01*
X229513D01*
X229054Y-138156D01*
Y-138616D01*
X229513Y-139075D01*
X230891D01*
X213077Y-27231D02*
X212618Y-26772D01*
X211699D01*
X211240Y-27231D01*
Y-29068D01*
X211699Y-29527D01*
X212618D01*
X213077Y-29068D01*
X213995Y-29527D02*
X214914D01*
X214454D01*
Y-26772D01*
X213995Y-27231D01*
X216291D02*
X216750Y-26772D01*
X217669D01*
X218128Y-27231D01*
Y-29068D01*
X217669Y-29527D01*
X216750D01*
X216291Y-29068D01*
Y-27231D01*
X196738Y-27133D02*
X196279Y-26674D01*
X195361D01*
X194902Y-27133D01*
Y-28969D01*
X195361Y-29429D01*
X196279D01*
X196738Y-28969D01*
X197657Y-29429D02*
X198575D01*
X198116D01*
Y-26674D01*
X197657Y-27133D01*
X199952Y-29429D02*
X200871D01*
X200412D01*
Y-26674D01*
X199952Y-27133D01*
X153431Y-32349D02*
X152972Y-31890D01*
X152054D01*
X151594Y-32349D01*
Y-34186D01*
X152054Y-34645D01*
X152972D01*
X153431Y-34186D01*
X154350Y-34645D02*
X155268D01*
X154809D01*
Y-31890D01*
X154350Y-32349D01*
X158482Y-34645D02*
X156645D01*
X158482Y-32809D01*
Y-32349D01*
X158023Y-31890D01*
X157105D01*
X156645Y-32349D01*
X257153Y-89974D02*
X256693Y-90434D01*
Y-91352D01*
X257153Y-91811D01*
X258989D01*
X259448Y-91352D01*
Y-90434D01*
X258989Y-89974D01*
X259448Y-89056D02*
Y-88138D01*
Y-88597D01*
X256693D01*
X257153Y-89056D01*
Y-86760D02*
X256693Y-86301D01*
Y-85383D01*
X257153Y-84923D01*
X257612D01*
X258071Y-85383D01*
Y-85842D01*
Y-85383D01*
X258530Y-84923D01*
X258989D01*
X259448Y-85383D01*
Y-86301D01*
X258989Y-86760D01*
X239652Y-33629D02*
X239193Y-33170D01*
X238274D01*
X237815Y-33629D01*
Y-35466D01*
X238274Y-35925D01*
X239193D01*
X239652Y-35466D01*
X240570Y-35925D02*
X241488D01*
X241029D01*
Y-33170D01*
X240570Y-33629D01*
X244243Y-35925D02*
Y-33170D01*
X242866Y-34547D01*
X244703D01*
X146541Y-108727D02*
X146082Y-108268D01*
X145164D01*
X144705Y-108727D01*
Y-110564D01*
X145164Y-111023D01*
X146082D01*
X146541Y-110564D01*
X147460Y-111023D02*
X148378D01*
X147919D01*
Y-108268D01*
X147460Y-108727D01*
X151592Y-108268D02*
X149756D01*
Y-109646D01*
X150674Y-109186D01*
X151133D01*
X151592Y-109646D01*
Y-110564D01*
X151133Y-111023D01*
X150215D01*
X149756Y-110564D01*
X150461Y-74913D02*
X149812D01*
X149163Y-75562D01*
Y-76212D01*
X150461Y-77510D01*
X151111D01*
X151760Y-76861D01*
Y-76212D01*
X152734Y-75887D02*
X153384Y-75238D01*
X153059Y-75562D01*
X151111Y-73614D01*
Y-74264D01*
X153708Y-71017D02*
X153384Y-71991D01*
Y-73290D01*
X154033Y-73939D01*
X154682D01*
X155332Y-73290D01*
Y-72640D01*
X155007Y-72316D01*
X154358D01*
X153384Y-73290D01*
X181482Y-133137D02*
X181023Y-132678D01*
X180105D01*
X179646Y-133137D01*
Y-134974D01*
X180105Y-135433D01*
X181023D01*
X181482Y-134974D01*
X182401Y-135433D02*
X183319D01*
X182860D01*
Y-132678D01*
X182401Y-133137D01*
X184696Y-132678D02*
X186533D01*
Y-133137D01*
X184696Y-134974D01*
Y-135433D01*
X257153Y-74325D02*
X256693Y-74784D01*
Y-75702D01*
X257153Y-76161D01*
X258989D01*
X259448Y-75702D01*
Y-74784D01*
X258989Y-74325D01*
X259448Y-73406D02*
Y-72488D01*
Y-72947D01*
X256693D01*
X257153Y-73406D01*
Y-71111D02*
X256693Y-70651D01*
Y-69733D01*
X257153Y-69274D01*
X257612D01*
X258071Y-69733D01*
X258530Y-69274D01*
X258989D01*
X259448Y-69733D01*
Y-70651D01*
X258989Y-71111D01*
X258530D01*
X258071Y-70651D01*
X257612Y-71111D01*
X257153D01*
X258071Y-70651D02*
Y-69733D01*
X206070Y-136628D02*
X205611Y-137087D01*
Y-138005D01*
X206070Y-138465D01*
X207907D01*
X208366Y-138005D01*
Y-137087D01*
X207907Y-136628D01*
X208366Y-135710D02*
Y-134791D01*
Y-135250D01*
X205611D01*
X206070Y-135710D01*
X207907Y-133414D02*
X208366Y-132955D01*
Y-132036D01*
X207907Y-131577D01*
X206070D01*
X205611Y-132036D01*
Y-132955D01*
X206070Y-133414D01*
X206529D01*
X206988Y-132955D01*
Y-131577D01*
X194376Y-138255D02*
X193917Y-137796D01*
X192999D01*
X192539Y-138255D01*
Y-140092D01*
X192999Y-140551D01*
X193917D01*
X194376Y-140092D01*
X197131Y-140551D02*
X195294D01*
X197131Y-138714D01*
Y-138255D01*
X196672Y-137796D01*
X195754D01*
X195294Y-138255D01*
X198049D02*
X198509Y-137796D01*
X199427D01*
X199886Y-138255D01*
Y-140092D01*
X199427Y-140551D01*
X198509D01*
X198049Y-140092D01*
Y-138255D01*
X204809Y-27231D02*
X204350Y-26772D01*
X203432D01*
X202972Y-27231D01*
Y-29068D01*
X203432Y-29527D01*
X204350D01*
X204809Y-29068D01*
X207564Y-29527D02*
X205728D01*
X207564Y-27690D01*
Y-27231D01*
X207105Y-26772D01*
X206187D01*
X205728Y-27231D01*
X208483Y-29527D02*
X209401D01*
X208942D01*
Y-26772D01*
X208483Y-27231D01*
X89141Y-205919D02*
X88682Y-206378D01*
Y-207297D01*
X89141Y-207756D01*
X90977D01*
X91437Y-207297D01*
Y-206378D01*
X90977Y-205919D01*
X91437Y-203164D02*
Y-205001D01*
X89600Y-203164D01*
X89141D01*
X88682Y-203623D01*
Y-204542D01*
X89141Y-205001D01*
Y-202246D02*
X88682Y-201787D01*
Y-200868D01*
X89141Y-200409D01*
X89600D01*
X90059Y-200868D01*
X90518Y-200409D01*
X90977D01*
X91437Y-200868D01*
Y-201787D01*
X90977Y-202246D01*
X90518D01*
X90059Y-201787D01*
X89600Y-202246D01*
X89141D01*
X90059Y-201787D02*
Y-200868D01*
X89239Y-186923D02*
X88780Y-187382D01*
Y-188301D01*
X89239Y-188760D01*
X91076D01*
X91535Y-188301D01*
Y-187382D01*
X91076Y-186923D01*
X91535Y-184168D02*
Y-186005D01*
X89698Y-184168D01*
X89239D01*
X88780Y-184627D01*
Y-185546D01*
X89239Y-186005D01*
X91076Y-183250D02*
X91535Y-182791D01*
Y-181872D01*
X91076Y-181413D01*
X89239D01*
X88780Y-181872D01*
Y-182791D01*
X89239Y-183250D01*
X89698D01*
X90158Y-182791D01*
Y-181413D01*
X89239Y-167730D02*
X88780Y-168189D01*
Y-169108D01*
X89239Y-169567D01*
X91076D01*
X91535Y-169108D01*
Y-168189D01*
X91076Y-167730D01*
X89239Y-166812D02*
X88780Y-166353D01*
Y-165434D01*
X89239Y-164975D01*
X89698D01*
X90158Y-165434D01*
Y-165894D01*
Y-165434D01*
X90617Y-164975D01*
X91076D01*
X91535Y-165434D01*
Y-166353D01*
X91076Y-166812D01*
X89239Y-164057D02*
X88780Y-163598D01*
Y-162679D01*
X89239Y-162220D01*
X91076D01*
X91535Y-162679D01*
Y-163598D01*
X91076Y-164057D01*
X89239D01*
X90125Y-147750D02*
X89666Y-148209D01*
Y-149127D01*
X90125Y-149587D01*
X91962D01*
X92421Y-149127D01*
Y-148209D01*
X91962Y-147750D01*
X90125Y-146832D02*
X89666Y-146372D01*
Y-145454D01*
X90125Y-144995D01*
X90584D01*
X91043Y-145454D01*
Y-145913D01*
Y-145454D01*
X91502Y-144995D01*
X91962D01*
X92421Y-145454D01*
Y-146372D01*
X91962Y-146832D01*
X92421Y-144077D02*
Y-143158D01*
Y-143617D01*
X89666D01*
X90125Y-144077D01*
X89141Y-130348D02*
X88682Y-130807D01*
Y-131726D01*
X89141Y-132185D01*
X90978D01*
X91437Y-131726D01*
Y-130807D01*
X90978Y-130348D01*
X89141Y-129430D02*
X88682Y-128971D01*
Y-128052D01*
X89141Y-127593D01*
X89600D01*
X90060Y-128052D01*
Y-128512D01*
Y-128052D01*
X90519Y-127593D01*
X90978D01*
X91437Y-128052D01*
Y-128971D01*
X90978Y-129430D01*
X91437Y-124838D02*
Y-126675D01*
X89600Y-124838D01*
X89141D01*
X88682Y-125297D01*
Y-126216D01*
X89141Y-126675D01*
X206384Y-193373D02*
X205925Y-192914D01*
X205006D01*
X204547Y-193373D01*
Y-195210D01*
X205006Y-195669D01*
X205925D01*
X206384Y-195210D01*
X207302Y-193373D02*
X207761Y-192914D01*
X208680D01*
X209139Y-193373D01*
Y-193832D01*
X208680Y-194291D01*
X208221D01*
X208680D01*
X209139Y-194750D01*
Y-195210D01*
X208680Y-195669D01*
X207761D01*
X207302Y-195210D01*
X210057Y-193373D02*
X210516Y-192914D01*
X211435D01*
X211894Y-193373D01*
Y-193832D01*
X211435Y-194291D01*
X210976D01*
X211435D01*
X211894Y-194750D01*
Y-195210D01*
X211435Y-195669D01*
X210516D01*
X210057Y-195210D01*
X239239Y-188301D02*
X238780Y-188760D01*
Y-189679D01*
X239239Y-190138D01*
X241076D01*
X241535Y-189679D01*
Y-188760D01*
X241076Y-188301D01*
X239239Y-187383D02*
X238780Y-186924D01*
Y-186005D01*
X239239Y-185546D01*
X239698D01*
X240158Y-186005D01*
Y-186464D01*
Y-186005D01*
X240617Y-185546D01*
X241076D01*
X241535Y-186005D01*
Y-186924D01*
X241076Y-187383D01*
X241535Y-183250D02*
X238780D01*
X240158Y-184628D01*
Y-182791D01*
X152822Y-168124D02*
X152363Y-168583D01*
Y-169501D01*
X152822Y-169961D01*
X154658D01*
X155118Y-169501D01*
Y-168583D01*
X154658Y-168124D01*
X152822Y-167206D02*
X152363Y-166746D01*
Y-165828D01*
X152822Y-165369D01*
X153281D01*
X153740Y-165828D01*
Y-166287D01*
Y-165828D01*
X154199Y-165369D01*
X154658D01*
X155118Y-165828D01*
Y-166746D01*
X154658Y-167206D01*
Y-164451D02*
X155118Y-163991D01*
Y-163073D01*
X154658Y-162614D01*
X152822D01*
X152363Y-163073D01*
Y-163991D01*
X152822Y-164451D01*
X153281D01*
X153740Y-163991D01*
Y-162614D01*
X291325Y-73491D02*
X290866Y-73032D01*
X289947D01*
X289488Y-73491D01*
Y-75328D01*
X289947Y-75787D01*
X290866D01*
X291325Y-75328D01*
X293621Y-75787D02*
Y-73032D01*
X292243Y-74410D01*
X294080D01*
X294998Y-73491D02*
X295457Y-73032D01*
X296376D01*
X296835Y-73491D01*
Y-75328D01*
X296376Y-75787D01*
X295457D01*
X294998Y-75328D01*
Y-73491D01*
X302447Y-12763D02*
X301988Y-12304D01*
X301069D01*
X300610Y-12763D01*
Y-14599D01*
X301069Y-15059D01*
X301988D01*
X302447Y-14599D01*
X304743Y-15059D02*
Y-12304D01*
X303365Y-13681D01*
X305202D01*
X306120Y-15059D02*
X307039D01*
X306579D01*
Y-12304D01*
X306120Y-12763D01*
X274691D02*
X274232Y-12304D01*
X273313D01*
X272854Y-12763D01*
Y-14599D01*
X273313Y-15059D01*
X274232D01*
X274691Y-14599D01*
X276987Y-15059D02*
Y-12304D01*
X275609Y-13681D01*
X277446D01*
X280201Y-15059D02*
X278364D01*
X280201Y-13222D01*
Y-12763D01*
X279742Y-12304D01*
X278823D01*
X278364Y-12763D01*
X242487Y-43124D02*
X242028Y-43583D01*
Y-44502D01*
X242487Y-44961D01*
X244324D01*
X244783Y-44502D01*
Y-43583D01*
X244324Y-43124D01*
X244783Y-40828D02*
X242028D01*
X243406Y-42206D01*
Y-40369D01*
X244783Y-38073D02*
X242028D01*
X243406Y-39451D01*
Y-37614D01*
X258432Y-66254D02*
X257973Y-66713D01*
Y-67631D01*
X258432Y-68091D01*
X260269D01*
X260728Y-67631D01*
Y-66713D01*
X260269Y-66254D01*
X260728Y-63958D02*
X257973D01*
X259350Y-65336D01*
Y-63499D01*
X258432Y-62581D02*
X257973Y-62121D01*
Y-61203D01*
X258432Y-60744D01*
X258891D01*
X259350Y-61203D01*
Y-61662D01*
Y-61203D01*
X259809Y-60744D01*
X260269D01*
X260728Y-61203D01*
Y-62121D01*
X260269Y-62581D01*
X263766Y-13058D02*
X263307Y-12599D01*
X262388D01*
X261929Y-13058D01*
Y-14895D01*
X262388Y-15354D01*
X263307D01*
X263766Y-14895D01*
X266062Y-15354D02*
Y-12599D01*
X264684Y-13976D01*
X266521D01*
X269276Y-12599D02*
X267439D01*
Y-13976D01*
X268357Y-13517D01*
X268817D01*
X269276Y-13976D01*
Y-14895D01*
X268817Y-15354D01*
X267898D01*
X267439Y-14895D01*
X334548Y-80197D02*
X337303D01*
Y-78819D01*
X336843Y-78360D01*
X335007D01*
X334548Y-78819D01*
Y-80197D01*
X337303Y-75605D02*
Y-77442D01*
X335466Y-75605D01*
X335007D01*
X334548Y-76064D01*
Y-76983D01*
X335007Y-77442D01*
X132284Y-187087D02*
X135039D01*
Y-185709D01*
X134580Y-185250D01*
X132743D01*
X132284Y-185709D01*
Y-187087D01*
X135039Y-182954D02*
X132284D01*
X133661Y-184332D01*
Y-182495D01*
X240079Y-220079D02*
Y-222834D01*
X241456D01*
X241915Y-222375D01*
Y-220538D01*
X241456Y-220079D01*
X240079D01*
X244670D02*
X242834D01*
Y-221457D01*
X243752Y-220998D01*
X244211D01*
X244670Y-221457D01*
Y-222375D01*
X244211Y-222834D01*
X243293D01*
X242834Y-222375D01*
X320000Y-39272D02*
Y-42027D01*
X321377D01*
X321837Y-41568D01*
Y-39731D01*
X321377Y-39272D01*
X320000D01*
X322755D02*
X324592D01*
Y-39731D01*
X322755Y-41568D01*
Y-42027D01*
X314784Y-55906D02*
Y-58661D01*
X316161D01*
X316620Y-58202D01*
Y-56365D01*
X316161Y-55906D01*
X314784D01*
X317538Y-56365D02*
X317998Y-55906D01*
X318916D01*
X319375Y-56365D01*
Y-56824D01*
X318916Y-57284D01*
X319375Y-57743D01*
Y-58202D01*
X318916Y-58661D01*
X317998D01*
X317538Y-58202D01*
Y-57743D01*
X317998Y-57284D01*
X317538Y-56824D01*
Y-56365D01*
X317998Y-57284D02*
X318916D01*
X134580Y-209955D02*
X132743D01*
X132284Y-210414D01*
Y-211332D01*
X132743Y-211791D01*
X134580D01*
X135039Y-211332D01*
Y-210414D01*
X134121Y-210873D02*
X135039Y-209955D01*
Y-210414D02*
X134580Y-209955D01*
X135039Y-209036D02*
Y-208118D01*
Y-208577D01*
X132284D01*
X132743Y-209036D01*
X44750Y-127494D02*
Y-125657D01*
X44291Y-125198D01*
X43373D01*
X42913Y-125657D01*
Y-127494D01*
X43373Y-127953D01*
X44291D01*
X43832Y-127034D02*
X44750Y-127953D01*
X44291D02*
X44750Y-127494D01*
X47505Y-127953D02*
X45668D01*
X47505Y-126116D01*
Y-125657D01*
X47046Y-125198D01*
X46128D01*
X45668Y-125657D01*
X44159Y-104068D02*
Y-102232D01*
X43700Y-101772D01*
X42782D01*
X42323Y-102232D01*
Y-104068D01*
X42782Y-104528D01*
X43700D01*
X43241Y-103609D02*
X44159Y-104528D01*
X43700D02*
X44159Y-104068D01*
X45078Y-102232D02*
X45537Y-101772D01*
X46455D01*
X46914Y-102232D01*
Y-102691D01*
X46455Y-103150D01*
X45996D01*
X46455D01*
X46914Y-103609D01*
Y-104068D01*
X46455Y-104528D01*
X45537D01*
X45078Y-104068D01*
X44258Y-69816D02*
Y-67980D01*
X43799Y-67521D01*
X42880D01*
X42421Y-67980D01*
Y-69816D01*
X42880Y-70276D01*
X43799D01*
X43340Y-69357D02*
X44258Y-70276D01*
X43799D02*
X44258Y-69816D01*
X46554Y-70276D02*
Y-67521D01*
X45176Y-68898D01*
X47013D01*
X44848Y-50131D02*
Y-48295D01*
X44389Y-47835D01*
X43471D01*
X43012Y-48295D01*
Y-50131D01*
X43471Y-50591D01*
X44389D01*
X43930Y-49672D02*
X44848Y-50591D01*
X44389D02*
X44848Y-50131D01*
X47603Y-47835D02*
X45767D01*
Y-49213D01*
X46685Y-48754D01*
X47144D01*
X47603Y-49213D01*
Y-50131D01*
X47144Y-50591D01*
X46226D01*
X45767Y-50131D01*
X43766Y-26903D02*
Y-25066D01*
X43307Y-24607D01*
X42388D01*
X41929Y-25066D01*
Y-26903D01*
X42388Y-27362D01*
X43307D01*
X42847Y-26444D02*
X43766Y-27362D01*
X43307D02*
X43766Y-26903D01*
X46521Y-24607D02*
X45603Y-25066D01*
X44684Y-25985D01*
Y-26903D01*
X45143Y-27362D01*
X46062D01*
X46521Y-26903D01*
Y-26444D01*
X46062Y-25985D01*
X44684D01*
X124921Y-111122D02*
Y-108367D01*
X126299D01*
X126758Y-108826D01*
Y-109744D01*
X126299Y-110203D01*
X124921D01*
X125840D02*
X126758Y-111122D01*
X127676D02*
X128595D01*
X128135D01*
Y-108367D01*
X127676Y-108826D01*
X160354Y-29527D02*
Y-26772D01*
X161732D01*
X162191Y-27231D01*
Y-28150D01*
X161732Y-28609D01*
X160354D01*
X161273D02*
X162191Y-29527D01*
X164946D02*
X163109D01*
X164946Y-27690D01*
Y-27231D01*
X164487Y-26772D01*
X163568D01*
X163109Y-27231D01*
X266161Y-77263D02*
Y-74508D01*
X267539D01*
X267998Y-74967D01*
Y-75886D01*
X267539Y-76345D01*
X266161D01*
X267080D02*
X267998Y-77263D01*
X268916Y-74967D02*
X269376Y-74508D01*
X270294D01*
X270753Y-74967D01*
Y-75427D01*
X270294Y-75886D01*
X269835D01*
X270294D01*
X270753Y-76345D01*
Y-76804D01*
X270294Y-77263D01*
X269376D01*
X268916Y-76804D01*
X271772Y-79330D02*
Y-76575D01*
X273149D01*
X273608Y-77034D01*
Y-77953D01*
X273149Y-78412D01*
X271772D01*
X272690D02*
X273608Y-79330D01*
X275904D02*
Y-76575D01*
X274527Y-77953D01*
X276363D01*
X324606Y-104902D02*
X321851D01*
Y-103524D01*
X322310Y-103065D01*
X323228D01*
X323688Y-103524D01*
Y-104902D01*
Y-103983D02*
X324606Y-103065D01*
X321851Y-100310D02*
Y-102147D01*
X323228D01*
X322769Y-101228D01*
Y-100769D01*
X323228Y-100310D01*
X324147D01*
X324606Y-100769D01*
Y-101687D01*
X324147Y-102147D01*
X330224Y-113140D02*
X327469D01*
Y-111762D01*
X327929Y-111303D01*
X328847D01*
X329306Y-111762D01*
Y-113140D01*
Y-112222D02*
X330224Y-111303D01*
X327469Y-108548D02*
X327929Y-109466D01*
X328847Y-110385D01*
X329765D01*
X330224Y-109926D01*
Y-109007D01*
X329765Y-108548D01*
X329306D01*
X328847Y-109007D01*
Y-110385D01*
X82992Y-222637D02*
Y-219882D01*
X84370D01*
X84829Y-220341D01*
Y-221260D01*
X84370Y-221719D01*
X82992D01*
X83911D02*
X84829Y-222637D01*
X85747Y-219882D02*
X87584D01*
Y-220341D01*
X85747Y-222178D01*
Y-222637D01*
X133661Y-221240D02*
X130906D01*
Y-219863D01*
X131365Y-219404D01*
X132283D01*
X132743Y-219863D01*
Y-221240D01*
Y-220322D02*
X133661Y-219404D01*
X131365Y-218485D02*
X130906Y-218026D01*
Y-217108D01*
X131365Y-216649D01*
X131824D01*
X132283Y-217108D01*
X132743Y-216649D01*
X133202D01*
X133661Y-217108D01*
Y-218026D01*
X133202Y-218485D01*
X132743D01*
X132283Y-218026D01*
X131824Y-218485D01*
X131365D01*
X132283Y-218026D02*
Y-217108D01*
X118917Y-205807D02*
Y-203052D01*
X120295D01*
X120754Y-203511D01*
Y-204429D01*
X120295Y-204888D01*
X118917D01*
X119836D02*
X120754Y-205807D01*
X121672Y-205347D02*
X122132Y-205807D01*
X123050D01*
X123509Y-205347D01*
Y-203511D01*
X123050Y-203052D01*
X122132D01*
X121672Y-203511D01*
Y-203970D01*
X122132Y-204429D01*
X123509D01*
X81614Y-204232D02*
Y-201477D01*
X82992D01*
X83451Y-201936D01*
Y-202854D01*
X82992Y-203313D01*
X81614D01*
X82533D02*
X83451Y-204232D01*
X84369D02*
X85287D01*
X84828D01*
Y-201477D01*
X84369Y-201936D01*
X86665Y-204232D02*
X87583D01*
X87124D01*
Y-201477D01*
X86665Y-201936D01*
X133661Y-204803D02*
X130906D01*
Y-203426D01*
X131365Y-202966D01*
X132283D01*
X132743Y-203426D01*
Y-204803D01*
Y-203885D02*
X133661Y-202966D01*
Y-202048D02*
Y-201130D01*
Y-201589D01*
X130906D01*
X131365Y-202048D01*
X133661Y-197916D02*
Y-199752D01*
X131824Y-197916D01*
X131365D01*
X130906Y-198375D01*
Y-199293D01*
X131365Y-199752D01*
X117933Y-186417D02*
Y-183662D01*
X119311D01*
X119770Y-184121D01*
Y-185039D01*
X119311Y-185498D01*
X117933D01*
X118851D02*
X119770Y-186417D01*
X120688D02*
X121606D01*
X121147D01*
Y-183662D01*
X120688Y-184121D01*
X122984D02*
X123443Y-183662D01*
X124361D01*
X124821Y-184121D01*
Y-184580D01*
X124361Y-185039D01*
X123902D01*
X124361D01*
X124821Y-185498D01*
Y-185958D01*
X124361Y-186417D01*
X123443D01*
X122984Y-185958D01*
X148626Y-174755D02*
Y-172000D01*
X150003D01*
X150462Y-172459D01*
Y-173378D01*
X150003Y-173837D01*
X148626D01*
X149544D02*
X150462Y-174755D01*
X151381D02*
X152299D01*
X151840D01*
Y-172000D01*
X151381Y-172459D01*
X153677D02*
X154136Y-172000D01*
X155054D01*
X155513Y-172459D01*
Y-174296D01*
X155054Y-174755D01*
X154136D01*
X153677Y-174296D01*
Y-172459D01*
X81122Y-186023D02*
Y-183268D01*
X82500D01*
X82959Y-183727D01*
Y-184646D01*
X82500Y-185105D01*
X81122D01*
X82040D02*
X82959Y-186023D01*
X83877D02*
X84795D01*
X84336D01*
Y-183268D01*
X83877Y-183727D01*
X87550Y-186023D02*
Y-183268D01*
X86173Y-184646D01*
X88010D01*
X134055Y-179724D02*
X131300D01*
Y-178347D01*
X131759Y-177888D01*
X132678D01*
X133137Y-178347D01*
Y-179724D01*
Y-178806D02*
X134055Y-177888D01*
Y-176969D02*
Y-176051D01*
Y-176510D01*
X131300D01*
X131759Y-176969D01*
X131300Y-172837D02*
Y-174673D01*
X132678D01*
X132218Y-173755D01*
Y-173296D01*
X132678Y-172837D01*
X133596D01*
X134055Y-173296D01*
Y-174214D01*
X133596Y-174673D01*
X118425Y-167815D02*
Y-165059D01*
X119803D01*
X120262Y-165519D01*
Y-166437D01*
X119803Y-166896D01*
X118425D01*
X119343D02*
X120262Y-167815D01*
X121180D02*
X122099D01*
X121639D01*
Y-165059D01*
X121180Y-165519D01*
X125313Y-165059D02*
X124394Y-165519D01*
X123476Y-166437D01*
Y-167355D01*
X123935Y-167815D01*
X124854D01*
X125313Y-167355D01*
Y-166896D01*
X124854Y-166437D01*
X123476D01*
X80925Y-170374D02*
Y-167619D01*
X82303D01*
X82762Y-168078D01*
Y-168996D01*
X82303Y-169455D01*
X80925D01*
X81844D02*
X82762Y-170374D01*
X83680D02*
X84599D01*
X84139D01*
Y-167619D01*
X83680Y-168078D01*
X85976Y-167619D02*
X87813D01*
Y-168078D01*
X85976Y-169914D01*
Y-170374D01*
X130315Y-151752D02*
X127559D01*
Y-150374D01*
X128019Y-149915D01*
X128937D01*
X129396Y-150374D01*
Y-151752D01*
Y-150834D02*
X130315Y-149915D01*
Y-148997D02*
Y-148079D01*
Y-148538D01*
X127559D01*
X128019Y-148997D01*
Y-146701D02*
X127559Y-146242D01*
Y-145324D01*
X128019Y-144864D01*
X128478D01*
X128937Y-145324D01*
X129396Y-144864D01*
X129855D01*
X130315Y-145324D01*
Y-146242D01*
X129855Y-146701D01*
X129396D01*
X128937Y-146242D01*
X128478Y-146701D01*
X128019D01*
X128937Y-146242D02*
Y-145324D01*
X119409Y-148622D02*
Y-145867D01*
X120787D01*
X121246Y-146326D01*
Y-147244D01*
X120787Y-147703D01*
X119409D01*
X120328D02*
X121246Y-148622D01*
X122164D02*
X123083D01*
X122624D01*
Y-145867D01*
X122164Y-146326D01*
X124460Y-148162D02*
X124919Y-148622D01*
X125838D01*
X126297Y-148162D01*
Y-146326D01*
X125838Y-145867D01*
X124919D01*
X124460Y-146326D01*
Y-146785D01*
X124919Y-147244D01*
X126297D01*
X80630Y-149606D02*
Y-146851D01*
X82007D01*
X82467Y-147310D01*
Y-148228D01*
X82007Y-148688D01*
X80630D01*
X81548D02*
X82467Y-149606D01*
X85222D02*
X83385D01*
X85222Y-147769D01*
Y-147310D01*
X84763Y-146851D01*
X83844D01*
X83385Y-147310D01*
X86140D02*
X86599Y-146851D01*
X87517D01*
X87977Y-147310D01*
Y-149147D01*
X87517Y-149606D01*
X86599D01*
X86140Y-149147D01*
Y-147310D01*
X129822Y-132854D02*
X127067D01*
Y-131477D01*
X127526Y-131018D01*
X128445D01*
X128904Y-131477D01*
Y-132854D01*
Y-131936D02*
X129822Y-131018D01*
Y-128263D02*
Y-130099D01*
X127986Y-128263D01*
X127526D01*
X127067Y-128722D01*
Y-129640D01*
X127526Y-130099D01*
X129822Y-127344D02*
Y-126426D01*
Y-126885D01*
X127067D01*
X127526Y-127344D01*
X118130Y-129330D02*
Y-126575D01*
X119507D01*
X119967Y-127034D01*
Y-127953D01*
X119507Y-128412D01*
X118130D01*
X119048D02*
X119967Y-129330D01*
X122722D02*
X120885D01*
X122722Y-127494D01*
Y-127034D01*
X122262Y-126575D01*
X121344D01*
X120885Y-127034D01*
X125477Y-129330D02*
X123640D01*
X125477Y-127494D01*
Y-127034D01*
X125017Y-126575D01*
X124099D01*
X123640Y-127034D01*
X72067Y-221751D02*
Y-218997D01*
X73444D01*
X73904Y-219456D01*
Y-220374D01*
X73444Y-220833D01*
X72067D01*
X72985D02*
X73904Y-221751D01*
X76659D02*
X74822D01*
X76659Y-219915D01*
Y-219456D01*
X76200Y-218997D01*
X75281D01*
X74822Y-219456D01*
X79414Y-218997D02*
X77577D01*
Y-220374D01*
X78495Y-219915D01*
X78954D01*
X79414Y-220374D01*
Y-221292D01*
X78954Y-221751D01*
X78036D01*
X77577Y-221292D01*
X72595Y-186426D02*
Y-183671D01*
X73972D01*
X74432Y-184130D01*
Y-185048D01*
X73972Y-185508D01*
X72595D01*
X73513D02*
X74432Y-186426D01*
X77187D02*
X75350D01*
X77187Y-184589D01*
Y-184130D01*
X76727Y-183671D01*
X75809D01*
X75350Y-184130D01*
X78105Y-183671D02*
X79942D01*
Y-184130D01*
X78105Y-185967D01*
Y-186426D01*
X127460Y-122126D02*
X124705D01*
Y-120748D01*
X125164Y-120289D01*
X126083D01*
X126542Y-120748D01*
Y-122126D01*
Y-121208D02*
X127460Y-120289D01*
Y-117534D02*
Y-119371D01*
X125624Y-117534D01*
X125164D01*
X124705Y-117993D01*
Y-118912D01*
X125164Y-119371D01*
Y-116616D02*
X124705Y-116157D01*
Y-115238D01*
X125164Y-114779D01*
X125624D01*
X126083Y-115238D01*
Y-115698D01*
Y-115238D01*
X126542Y-114779D01*
X127001D01*
X127460Y-115238D01*
Y-116157D01*
X127001Y-116616D01*
X87500Y-131102D02*
X84745D01*
Y-129725D01*
X85204Y-129266D01*
X86123D01*
X86582Y-129725D01*
Y-131102D01*
Y-130184D02*
X87500Y-129266D01*
Y-126511D02*
Y-128347D01*
X85663Y-126511D01*
X85204D01*
X84745Y-126970D01*
Y-127888D01*
X85204Y-128347D01*
X87500Y-124215D02*
X84745D01*
X86123Y-125592D01*
Y-123756D01*
X72482Y-168959D02*
Y-166204D01*
X73859D01*
X74318Y-166663D01*
Y-167582D01*
X73859Y-168041D01*
X72482D01*
X73400D02*
X74318Y-168959D01*
X77074D02*
X75237D01*
X77074Y-167122D01*
Y-166663D01*
X76614Y-166204D01*
X75696D01*
X75237Y-166663D01*
X77992D02*
X78451Y-166204D01*
X79369D01*
X79829Y-166663D01*
Y-167122D01*
X79369Y-167582D01*
X79829Y-168041D01*
Y-168500D01*
X79369Y-168959D01*
X78451D01*
X77992Y-168500D01*
Y-168041D01*
X78451Y-167582D01*
X77992Y-167122D01*
Y-166663D01*
X78451Y-167582D02*
X79369D01*
X87598Y-120158D02*
X84843D01*
Y-118780D01*
X85302Y-118321D01*
X86221D01*
X86680Y-118780D01*
Y-120158D01*
Y-119239D02*
X87598Y-118321D01*
Y-115566D02*
Y-117403D01*
X85761Y-115566D01*
X85302D01*
X84843Y-116025D01*
Y-116943D01*
X85302Y-117403D01*
X84843Y-112811D02*
X85302Y-113729D01*
X86221Y-114647D01*
X87139D01*
X87598Y-114188D01*
Y-113270D01*
X87139Y-112811D01*
X86680D01*
X86221Y-113270D01*
Y-114647D01*
X73150Y-152559D02*
Y-149804D01*
X74527D01*
X74986Y-150263D01*
Y-151181D01*
X74527Y-151640D01*
X73150D01*
X74068D02*
X74986Y-152559D01*
X75905Y-150263D02*
X76364Y-149804D01*
X77282D01*
X77741Y-150263D01*
Y-150722D01*
X77282Y-151181D01*
X76823D01*
X77282D01*
X77741Y-151640D01*
Y-152099D01*
X77282Y-152559D01*
X76364D01*
X75905Y-152099D01*
X78660Y-152559D02*
X79578D01*
X79119D01*
Y-149804D01*
X78660Y-150263D01*
X118032Y-90255D02*
Y-87500D01*
X119409D01*
X119868Y-87960D01*
Y-88878D01*
X119409Y-89337D01*
X118032D01*
X118950D02*
X119868Y-90255D01*
X122623D02*
X120786D01*
X122623Y-88419D01*
Y-87960D01*
X122164Y-87500D01*
X121246D01*
X120786Y-87960D01*
X123541Y-89796D02*
X124001Y-90255D01*
X124919D01*
X125378Y-89796D01*
Y-87960D01*
X124919Y-87500D01*
X124001D01*
X123541Y-87960D01*
Y-88419D01*
X124001Y-88878D01*
X125378D01*
X85630Y-106496D02*
Y-103741D01*
X87007D01*
X87467Y-104200D01*
Y-105119D01*
X87007Y-105578D01*
X85630D01*
X86548D02*
X87467Y-106496D01*
X88385Y-104200D02*
X88844Y-103741D01*
X89763D01*
X90222Y-104200D01*
Y-104659D01*
X89763Y-105119D01*
X89303D01*
X89763D01*
X90222Y-105578D01*
Y-106037D01*
X89763Y-106496D01*
X88844D01*
X88385Y-106037D01*
X91140Y-104200D02*
X91599Y-103741D01*
X92518D01*
X92977Y-104200D01*
Y-106037D01*
X92518Y-106496D01*
X91599D01*
X91140Y-106037D01*
Y-104200D01*
X72461Y-137795D02*
Y-135040D01*
X73838D01*
X74297Y-135499D01*
Y-136417D01*
X73838Y-136876D01*
X72461D01*
X73379D02*
X74297Y-137795D01*
X75216Y-135499D02*
X75675Y-135040D01*
X76593D01*
X77052Y-135499D01*
Y-135958D01*
X76593Y-136417D01*
X76134D01*
X76593D01*
X77052Y-136876D01*
Y-137336D01*
X76593Y-137795D01*
X75675D01*
X75216Y-137336D01*
X77971Y-135499D02*
X78430Y-135040D01*
X79348D01*
X79807Y-135499D01*
Y-135958D01*
X79348Y-136417D01*
X78889D01*
X79348D01*
X79807Y-136876D01*
Y-137336D01*
X79348Y-137795D01*
X78430D01*
X77971Y-137336D01*
X87204Y-97028D02*
X84449D01*
Y-95650D01*
X84908Y-95191D01*
X85827D01*
X86286Y-95650D01*
Y-97028D01*
Y-96109D02*
X87204Y-95191D01*
X84908Y-94273D02*
X84449Y-93813D01*
Y-92895D01*
X84908Y-92436D01*
X85368D01*
X85827Y-92895D01*
Y-93354D01*
Y-92895D01*
X86286Y-92436D01*
X86745D01*
X87204Y-92895D01*
Y-93813D01*
X86745Y-94273D01*
X87204Y-89681D02*
Y-91518D01*
X85368Y-89681D01*
X84908D01*
X84449Y-90140D01*
Y-91058D01*
X84908Y-91518D01*
X116752Y-73523D02*
Y-70768D01*
X118130D01*
X118589Y-71227D01*
Y-72146D01*
X118130Y-72605D01*
X116752D01*
X117670D02*
X118589Y-73523D01*
X119507Y-71227D02*
X119966Y-70768D01*
X120885D01*
X121344Y-71227D01*
Y-71687D01*
X120885Y-72146D01*
X120425D01*
X120885D01*
X121344Y-72605D01*
Y-73064D01*
X120885Y-73523D01*
X119966D01*
X119507Y-73064D01*
X123640Y-73523D02*
Y-70768D01*
X122262Y-72146D01*
X124099D01*
X84941Y-84350D02*
Y-81595D01*
X86318D01*
X86778Y-82055D01*
Y-82973D01*
X86318Y-83432D01*
X84941D01*
X85859D02*
X86778Y-84350D01*
X87696Y-82055D02*
X88155Y-81595D01*
X89073D01*
X89533Y-82055D01*
Y-82514D01*
X89073Y-82973D01*
X88614D01*
X89073D01*
X89533Y-83432D01*
Y-83891D01*
X89073Y-84350D01*
X88155D01*
X87696Y-83891D01*
X92288Y-81595D02*
X90451D01*
Y-82973D01*
X91369Y-82514D01*
X91829D01*
X92288Y-82973D01*
Y-83891D01*
X91829Y-84350D01*
X90910D01*
X90451Y-83891D01*
X87007Y-75374D02*
X84252D01*
Y-73997D01*
X84712Y-73537D01*
X85630D01*
X86089Y-73997D01*
Y-75374D01*
Y-74456D02*
X87007Y-73537D01*
X84712Y-72619D02*
X84252Y-72160D01*
Y-71241D01*
X84712Y-70782D01*
X85171D01*
X85630Y-71241D01*
Y-71701D01*
Y-71241D01*
X86089Y-70782D01*
X86548D01*
X87007Y-71241D01*
Y-72160D01*
X86548Y-72619D01*
X84252Y-68027D02*
X84712Y-68946D01*
X85630Y-69864D01*
X86548D01*
X87007Y-69405D01*
Y-68486D01*
X86548Y-68027D01*
X86089D01*
X85630Y-68486D01*
Y-69864D01*
X130511Y-49784D02*
X127756D01*
Y-48406D01*
X128216Y-47947D01*
X129134D01*
X129593Y-48406D01*
Y-49784D01*
Y-48865D02*
X130511Y-47947D01*
X128216Y-47028D02*
X127756Y-46569D01*
Y-45651D01*
X128216Y-45192D01*
X128675D01*
X129134Y-45651D01*
Y-46110D01*
Y-45651D01*
X129593Y-45192D01*
X130052D01*
X130511Y-45651D01*
Y-46569D01*
X130052Y-47028D01*
X127756Y-44273D02*
Y-42437D01*
X128216D01*
X130052Y-44273D01*
X130511D01*
X85236Y-62008D02*
Y-59253D01*
X86614D01*
X87073Y-59712D01*
Y-60630D01*
X86614Y-61089D01*
X85236D01*
X86155D02*
X87073Y-62008D01*
X87991Y-59712D02*
X88450Y-59253D01*
X89369D01*
X89828Y-59712D01*
Y-60171D01*
X89369Y-60630D01*
X88910D01*
X89369D01*
X89828Y-61089D01*
Y-61549D01*
X89369Y-62008D01*
X88450D01*
X87991Y-61549D01*
X90746Y-59712D02*
X91205Y-59253D01*
X92124D01*
X92583Y-59712D01*
Y-60171D01*
X92124Y-60630D01*
X92583Y-61089D01*
Y-61549D01*
X92124Y-62008D01*
X91205D01*
X90746Y-61549D01*
Y-61089D01*
X91205Y-60630D01*
X90746Y-60171D01*
Y-59712D01*
X91205Y-60630D02*
X92124D01*
X87204Y-53228D02*
X84449D01*
Y-51851D01*
X84908Y-51392D01*
X85827D01*
X86286Y-51851D01*
Y-53228D01*
Y-52310D02*
X87204Y-51392D01*
X84908Y-50473D02*
X84449Y-50014D01*
Y-49096D01*
X84908Y-48637D01*
X85368D01*
X85827Y-49096D01*
Y-49555D01*
Y-49096D01*
X86286Y-48637D01*
X86745D01*
X87204Y-49096D01*
Y-50014D01*
X86745Y-50473D01*
Y-47718D02*
X87204Y-47259D01*
Y-46341D01*
X86745Y-45882D01*
X84908D01*
X84449Y-46341D01*
Y-47259D01*
X84908Y-47718D01*
X85368D01*
X85827Y-47259D01*
Y-45882D01*
X123031Y-29606D02*
X120276D01*
Y-28229D01*
X120735Y-27770D01*
X121653D01*
X122113Y-28229D01*
Y-29606D01*
Y-28688D02*
X123031Y-27770D01*
Y-25474D02*
X120276D01*
X121653Y-26851D01*
Y-25015D01*
X120735Y-24096D02*
X120276Y-23637D01*
Y-22719D01*
X120735Y-22260D01*
X122572D01*
X123031Y-22719D01*
Y-23637D01*
X122572Y-24096D01*
X120735D01*
X85059Y-38484D02*
Y-35729D01*
X86437D01*
X86896Y-36188D01*
Y-37106D01*
X86437Y-37565D01*
X85059D01*
X85977D02*
X86896Y-38484D01*
X89192D02*
Y-35729D01*
X87814Y-37106D01*
X89651D01*
X90569Y-38484D02*
X91487D01*
X91028D01*
Y-35729D01*
X90569Y-36188D01*
X85256Y-17224D02*
Y-14469D01*
X86633D01*
X87093Y-14928D01*
Y-15846D01*
X86633Y-16306D01*
X85256D01*
X86174D02*
X87093Y-17224D01*
X89388D02*
Y-14469D01*
X88011Y-15846D01*
X89848D01*
X92603Y-17224D02*
X90766D01*
X92603Y-15387D01*
Y-14928D01*
X92143Y-14469D01*
X91225D01*
X90766Y-14928D01*
X178465Y-223720D02*
Y-220965D01*
X179842D01*
X180301Y-221424D01*
Y-222342D01*
X179842Y-222802D01*
X178465D01*
X179383D02*
X180301Y-223720D01*
X182597D02*
Y-220965D01*
X181220Y-222342D01*
X183056D01*
X183975Y-221424D02*
X184434Y-220965D01*
X185352D01*
X185811Y-221424D01*
Y-221883D01*
X185352Y-222342D01*
X184893D01*
X185352D01*
X185811Y-222802D01*
Y-223261D01*
X185352Y-223720D01*
X184434D01*
X183975Y-223261D01*
X191949Y-192322D02*
Y-189567D01*
X193326D01*
X193786Y-190026D01*
Y-190945D01*
X193326Y-191404D01*
X191949D01*
X192867D02*
X193786Y-192322D01*
X196081D02*
Y-189567D01*
X194704Y-190945D01*
X196540D01*
X198836Y-192322D02*
Y-189567D01*
X197459Y-190945D01*
X199295D01*
X180118Y-198504D02*
X177363D01*
Y-197126D01*
X177822Y-196667D01*
X178740D01*
X179199Y-197126D01*
Y-198504D01*
Y-197586D02*
X180118Y-196667D01*
Y-194371D02*
X177363D01*
X178740Y-195749D01*
Y-193912D01*
X177363Y-191157D02*
Y-192994D01*
X178740D01*
X178281Y-192076D01*
Y-191616D01*
X178740Y-191157D01*
X179658D01*
X180118Y-191616D01*
Y-192535D01*
X179658Y-192994D01*
X140276Y-117913D02*
Y-115158D01*
X141653D01*
X142112Y-115617D01*
Y-116535D01*
X141653Y-116995D01*
X140276D01*
X141194D02*
X142112Y-117913D01*
X144408D02*
Y-115158D01*
X143031Y-116535D01*
X144867D01*
X147622Y-115158D02*
X146704Y-115617D01*
X145786Y-116535D01*
Y-117454D01*
X146245Y-117913D01*
X147163D01*
X147622Y-117454D01*
Y-116995D01*
X147163Y-116535D01*
X145786D01*
X312204Y-48799D02*
X309449D01*
Y-47422D01*
X309908Y-46962D01*
X310827D01*
X311286Y-47422D01*
Y-48799D01*
Y-47881D02*
X312204Y-46962D01*
Y-44667D02*
X309449D01*
X310827Y-46044D01*
Y-44208D01*
X309449Y-43289D02*
Y-41453D01*
X309908D01*
X311745Y-43289D01*
X312204D01*
X317716Y-77638D02*
X314961D01*
Y-76260D01*
X315420Y-75801D01*
X316339D01*
X316798Y-76260D01*
Y-77638D01*
Y-76719D02*
X317716Y-75801D01*
Y-73505D02*
X314961D01*
X316339Y-74883D01*
Y-73046D01*
X315420Y-72128D02*
X314961Y-71669D01*
Y-70750D01*
X315420Y-70291D01*
X315879D01*
X316339Y-70750D01*
X316798Y-70291D01*
X317257D01*
X317716Y-70750D01*
Y-71669D01*
X317257Y-72128D01*
X316798D01*
X316339Y-71669D01*
X315879Y-72128D01*
X315420D01*
X316339Y-71669D02*
Y-70750D01*
X303975Y-63937D02*
X301220D01*
Y-62560D01*
X301679Y-62100D01*
X302597D01*
X303056Y-62560D01*
Y-63937D01*
Y-63019D02*
X303975Y-62100D01*
Y-59804D02*
X301220D01*
X302597Y-61182D01*
Y-59345D01*
X303515Y-58427D02*
X303975Y-57968D01*
Y-57050D01*
X303515Y-56590D01*
X301679D01*
X301220Y-57050D01*
Y-57968D01*
X301679Y-58427D01*
X302138D01*
X302597Y-57968D01*
Y-56590D01*
X268425Y-64173D02*
Y-61418D01*
X269803D01*
X270262Y-61877D01*
Y-62795D01*
X269803Y-63254D01*
X268425D01*
X269343D02*
X270262Y-64173D01*
X273017Y-61418D02*
X271180D01*
Y-62795D01*
X272099Y-62336D01*
X272558D01*
X273017Y-62795D01*
Y-63714D01*
X272558Y-64173D01*
X271639D01*
X271180Y-63714D01*
X273935Y-61877D02*
X274394Y-61418D01*
X275313D01*
X275772Y-61877D01*
Y-63714D01*
X275313Y-64173D01*
X274394D01*
X273935Y-63714D01*
Y-61877D01*
X276890Y-73917D02*
Y-71162D01*
X278267D01*
X278726Y-71621D01*
Y-72539D01*
X278267Y-72998D01*
X276890D01*
X277808D02*
X278726Y-73917D01*
X281482Y-71162D02*
X279645D01*
Y-72539D01*
X280563Y-72080D01*
X281022D01*
X281482Y-72539D01*
Y-73458D01*
X281022Y-73917D01*
X280104D01*
X279645Y-73458D01*
X282400Y-73917D02*
X283318D01*
X282859D01*
Y-71162D01*
X282400Y-71621D01*
X327972Y-73031D02*
Y-70276D01*
X329350D01*
X329809Y-70735D01*
Y-71653D01*
X329350Y-72113D01*
X327972D01*
X328891D02*
X329809Y-73031D01*
X332564Y-70276D02*
X330728D01*
Y-71653D01*
X331646Y-71194D01*
X332105D01*
X332564Y-71653D01*
Y-72572D01*
X332105Y-73031D01*
X331187D01*
X330728Y-72572D01*
X335319Y-73031D02*
X333483D01*
X335319Y-71194D01*
Y-70735D01*
X334860Y-70276D01*
X333942D01*
X333483Y-70735D01*
X319311Y-73031D02*
Y-70276D01*
X320689D01*
X321148Y-70735D01*
Y-71653D01*
X320689Y-72113D01*
X319311D01*
X320229D02*
X321148Y-73031D01*
X323903Y-70276D02*
X322066D01*
Y-71653D01*
X322984Y-71194D01*
X323444D01*
X323903Y-71653D01*
Y-72572D01*
X323444Y-73031D01*
X322525D01*
X322066Y-72572D01*
X324821Y-70735D02*
X325280Y-70276D01*
X326199D01*
X326658Y-70735D01*
Y-71194D01*
X326199Y-71653D01*
X325739D01*
X326199D01*
X326658Y-72113D01*
Y-72572D01*
X326199Y-73031D01*
X325280D01*
X324821Y-72572D01*
X310630Y-58150D02*
X307874D01*
Y-56772D01*
X308334Y-56313D01*
X309252D01*
X309711Y-56772D01*
Y-58150D01*
Y-57231D02*
X310630Y-56313D01*
X307874Y-53558D02*
Y-55395D01*
X309252D01*
X308793Y-54476D01*
Y-54017D01*
X309252Y-53558D01*
X310170D01*
X310630Y-54017D01*
Y-54935D01*
X310170Y-55395D01*
X310630Y-51262D02*
X307874D01*
X309252Y-52640D01*
Y-50803D01*
X271358Y-26457D02*
X268603D01*
Y-25079D01*
X269062Y-24620D01*
X269980D01*
X270440Y-25079D01*
Y-26457D01*
Y-25538D02*
X271358Y-24620D01*
X268603Y-21865D02*
Y-23702D01*
X269980D01*
X269521Y-22783D01*
Y-22324D01*
X269980Y-21865D01*
X270899D01*
X271358Y-22324D01*
Y-23243D01*
X270899Y-23702D01*
X268603Y-19110D02*
Y-20947D01*
X269980D01*
X269521Y-20028D01*
Y-19569D01*
X269980Y-19110D01*
X270899D01*
X271358Y-19569D01*
Y-20488D01*
X270899Y-20947D01*
X310334Y-34134D02*
X307579D01*
Y-32756D01*
X308038Y-32297D01*
X308957D01*
X309416Y-32756D01*
Y-34134D01*
Y-33215D02*
X310334Y-32297D01*
X307579Y-29542D02*
Y-31379D01*
X308957D01*
X308498Y-30461D01*
Y-30001D01*
X308957Y-29542D01*
X309875D01*
X310334Y-30001D01*
Y-30920D01*
X309875Y-31379D01*
X307579Y-28624D02*
Y-26787D01*
X308038D01*
X309875Y-28624D01*
X310334D01*
X264763Y-67795D02*
X262008D01*
Y-66418D01*
X262468Y-65959D01*
X263386D01*
X263845Y-66418D01*
Y-67795D01*
Y-66877D02*
X264763Y-65959D01*
X262008Y-63204D02*
Y-65040D01*
X263386D01*
X262927Y-64122D01*
Y-63663D01*
X263386Y-63204D01*
X264304D01*
X264763Y-63663D01*
Y-64581D01*
X264304Y-65040D01*
X262468Y-62285D02*
X262008Y-61826D01*
Y-60908D01*
X262468Y-60449D01*
X262927D01*
X263386Y-60908D01*
X263845Y-60449D01*
X264304D01*
X264763Y-60908D01*
Y-61826D01*
X264304Y-62285D01*
X263845D01*
X263386Y-61826D01*
X262927Y-62285D01*
X262468D01*
X263386Y-61826D02*
Y-60908D01*
X284075Y-15059D02*
Y-12304D01*
X285452D01*
X285911Y-12763D01*
Y-13681D01*
X285452Y-14140D01*
X284075D01*
X284993D02*
X285911Y-15059D01*
X288667Y-12304D02*
X286830D01*
Y-13681D01*
X287748Y-13222D01*
X288207D01*
X288667Y-13681D01*
Y-14599D01*
X288207Y-15059D01*
X287289D01*
X286830Y-14599D01*
X291422Y-12304D02*
X290503Y-12763D01*
X289585Y-13681D01*
Y-14599D01*
X290044Y-15059D01*
X290962D01*
X291422Y-14599D01*
Y-14140D01*
X290962Y-13681D01*
X289585D01*
X229055Y-14960D02*
Y-12205D01*
X230433D01*
X230892Y-12664D01*
Y-13583D01*
X230433Y-14042D01*
X229055D01*
X229974D02*
X230892Y-14960D01*
X231810Y-12205D02*
Y-14960D01*
X233647D01*
X234565Y-12205D02*
X235484D01*
X235024D01*
Y-14960D01*
X234565D01*
X235484D01*
X236861D02*
Y-12205D01*
X238698Y-14960D01*
Y-12205D01*
X239616D02*
Y-14960D01*
Y-14042D01*
X241453Y-12205D01*
X240075Y-13583D01*
X241453Y-14960D01*
X246963Y-12664D02*
X246504Y-12205D01*
X245585D01*
X245126Y-12664D01*
Y-13124D01*
X245585Y-13583D01*
X246504D01*
X246963Y-14042D01*
Y-14501D01*
X246504Y-14960D01*
X245585D01*
X245126Y-14501D01*
X247881Y-12205D02*
Y-14960D01*
X248799Y-14042D01*
X249718Y-14960D01*
Y-12205D01*
X250636D02*
Y-14960D01*
X252014D01*
X252473Y-14501D01*
Y-12664D01*
X252014Y-12205D01*
X250636D01*
X253391Y-14960D02*
X254310D01*
X253850D01*
Y-12205D01*
X253391Y-12664D01*
X282785Y-76237D02*
Y-78533D01*
X283245Y-78992D01*
X284163D01*
X284622Y-78533D01*
Y-76237D01*
X287377Y-78992D02*
X285540D01*
X287377Y-77155D01*
Y-76696D01*
X286918Y-76237D01*
X286000D01*
X285540Y-76696D01*
X302972Y-76280D02*
Y-78576D01*
X303432Y-79035D01*
X304350D01*
X304809Y-78576D01*
Y-76280D01*
X305728Y-76739D02*
X306187Y-76280D01*
X307105D01*
X307564Y-76739D01*
Y-77198D01*
X307105Y-77658D01*
X306646D01*
X307105D01*
X307564Y-78117D01*
Y-78576D01*
X307105Y-79035D01*
X306187D01*
X305728Y-78576D01*
X118898Y-206694D02*
Y-208990D01*
X119357Y-209449D01*
X120275D01*
X120734Y-208990D01*
Y-206694D01*
X123489D02*
X122571Y-207153D01*
X121653Y-208071D01*
Y-208990D01*
X122112Y-209449D01*
X123030D01*
X123489Y-208990D01*
Y-208530D01*
X123030Y-208071D01*
X121653D01*
X119095Y-187895D02*
Y-190190D01*
X119554Y-190650D01*
X120472D01*
X120931Y-190190D01*
Y-187895D01*
X121850D02*
X123686D01*
Y-188354D01*
X121850Y-190190D01*
Y-190650D01*
X119291Y-169095D02*
Y-171391D01*
X119750Y-171850D01*
X120669D01*
X121128Y-171391D01*
Y-169095D01*
X122046Y-169554D02*
X122505Y-169095D01*
X123424D01*
X123883Y-169554D01*
Y-170014D01*
X123424Y-170473D01*
X123883Y-170932D01*
Y-171391D01*
X123424Y-171850D01*
X122505D01*
X122046Y-171391D01*
Y-170932D01*
X122505Y-170473D01*
X122046Y-170014D01*
Y-169554D01*
X122505Y-170473D02*
X123424D01*
X119488Y-150001D02*
Y-152297D01*
X119947Y-152756D01*
X120866D01*
X121325Y-152297D01*
Y-150001D01*
X122243Y-152297D02*
X122702Y-152756D01*
X123621D01*
X124080Y-152297D01*
Y-150460D01*
X123621Y-150001D01*
X122702D01*
X122243Y-150460D01*
Y-150919D01*
X122702Y-151378D01*
X124080D01*
X118819Y-130315D02*
Y-132611D01*
X119278Y-133070D01*
X120196D01*
X120656Y-132611D01*
Y-130315D01*
X121574Y-133070D02*
X122492D01*
X122033D01*
Y-130315D01*
X121574Y-130775D01*
X123870D02*
X124329Y-130315D01*
X125247D01*
X125706Y-130775D01*
Y-132611D01*
X125247Y-133070D01*
X124329D01*
X123870Y-132611D01*
Y-130775D01*
X36910Y-212697D02*
X39206D01*
X39665Y-212238D01*
Y-211319D01*
X39206Y-210860D01*
X36910D01*
X39665Y-209942D02*
Y-209023D01*
Y-209483D01*
X36910D01*
X37369Y-209942D01*
X39665Y-207646D02*
Y-206728D01*
Y-207187D01*
X36910D01*
X37369Y-207646D01*
X36910Y-198031D02*
X39206D01*
X39665Y-197572D01*
Y-196654D01*
X39206Y-196195D01*
X36910D01*
X39665Y-195276D02*
Y-194358D01*
Y-194817D01*
X36910D01*
X37369Y-195276D01*
Y-192981D02*
X36910Y-192522D01*
Y-191603D01*
X37369Y-191144D01*
X37829D01*
X38288Y-191603D01*
Y-192062D01*
Y-191603D01*
X38747Y-191144D01*
X39206D01*
X39665Y-191603D01*
Y-192522D01*
X39206Y-192981D01*
X106201Y-103840D02*
Y-106135D01*
X106660Y-106595D01*
X107578D01*
X108037Y-106135D01*
Y-103840D01*
X108956Y-106595D02*
X109874D01*
X109415D01*
Y-103840D01*
X108956Y-104299D01*
X113088Y-106595D02*
X111252D01*
X113088Y-104758D01*
Y-104299D01*
X112629Y-103840D01*
X111711D01*
X111252Y-104299D01*
X37009Y-181004D02*
X39305D01*
X39764Y-180545D01*
Y-179626D01*
X39305Y-179167D01*
X37009D01*
X39764Y-178249D02*
Y-177331D01*
Y-177790D01*
X37009D01*
X37468Y-178249D01*
X39764Y-174576D02*
X37009D01*
X38386Y-175953D01*
Y-174116D01*
X36517Y-163287D02*
X38813D01*
X39272Y-162828D01*
Y-161910D01*
X38813Y-161451D01*
X36517D01*
X39272Y-160532D02*
Y-159614D01*
Y-160073D01*
X36517D01*
X36976Y-160532D01*
X36517Y-156400D02*
X36976Y-157318D01*
X37894Y-158237D01*
X38813D01*
X39272Y-157777D01*
Y-156859D01*
X38813Y-156400D01*
X38353D01*
X37894Y-156859D01*
Y-158237D01*
X36910Y-147146D02*
X39206D01*
X39665Y-146686D01*
Y-145768D01*
X39206Y-145309D01*
X36910D01*
X39665Y-144391D02*
Y-143472D01*
Y-143931D01*
X36910D01*
X37369Y-144391D01*
X36910Y-142095D02*
Y-140258D01*
X37369D01*
X39206Y-142095D01*
X39665D01*
X103543Y-81891D02*
Y-84187D01*
X104002Y-84646D01*
X104921D01*
X105380Y-84187D01*
Y-81891D01*
X106298Y-84646D02*
X107217D01*
X106757D01*
Y-81891D01*
X106298Y-82350D01*
X110431Y-81891D02*
X108594D01*
Y-83268D01*
X109512Y-82809D01*
X109972D01*
X110431Y-83268D01*
Y-84187D01*
X109972Y-84646D01*
X109053D01*
X108594Y-84187D01*
X105118Y-36615D02*
Y-38911D01*
X105577Y-39370D01*
X106496D01*
X106955Y-38911D01*
Y-36615D01*
X107873Y-39370D02*
X108791D01*
X108332D01*
Y-36615D01*
X107873Y-37074D01*
X110169Y-38911D02*
X110628Y-39370D01*
X111547D01*
X112006Y-38911D01*
Y-37074D01*
X111547Y-36615D01*
X110628D01*
X110169Y-37074D01*
Y-37533D01*
X110628Y-37993D01*
X112006D01*
X105709Y-15158D02*
Y-17454D01*
X106168Y-17913D01*
X107086D01*
X107545Y-17454D01*
Y-15158D01*
X110300Y-17913D02*
X108464D01*
X110300Y-16077D01*
Y-15618D01*
X109841Y-15158D01*
X108923D01*
X108464Y-15618D01*
X111219D02*
X111678Y-15158D01*
X112596D01*
X113055Y-15618D01*
Y-17454D01*
X112596Y-17913D01*
X111678D01*
X111219Y-17454D01*
Y-15618D01*
X191063Y-221063D02*
Y-223359D01*
X191522Y-223818D01*
X192440D01*
X192900Y-223359D01*
Y-221063D01*
X195655Y-223818D02*
X193818D01*
X195655Y-221982D01*
Y-221523D01*
X195195Y-221063D01*
X194277D01*
X193818Y-221523D01*
X196573Y-223818D02*
X197491D01*
X197032D01*
Y-221063D01*
X196573Y-221523D01*
X125610Y-79725D02*
X127447Y-82480D01*
Y-79725D02*
X125610Y-82480D01*
X128365Y-79725D02*
X130202D01*
X129284D01*
Y-82480D01*
X131120D02*
Y-80643D01*
X132039Y-79725D01*
X132957Y-80643D01*
Y-82480D01*
Y-81102D01*
X131120D01*
X133875Y-79725D02*
Y-82480D01*
X135712D01*
X136630D02*
X137549D01*
X137090D01*
Y-79725D01*
X136630Y-80184D01*
X265256Y-42205D02*
X268011Y-40368D01*
X265256D02*
X268011Y-42205D01*
X265256Y-39450D02*
Y-37613D01*
Y-38531D01*
X268011D01*
Y-36695D02*
X266175D01*
X265256Y-35776D01*
X266175Y-34858D01*
X268011D01*
X266634D01*
Y-36695D01*
X265256Y-33940D02*
X268011D01*
Y-32103D01*
X265716Y-31185D02*
X265256Y-30725D01*
Y-29807D01*
X265716Y-29348D01*
X266175D01*
X266634Y-29807D01*
Y-30266D01*
Y-29807D01*
X267093Y-29348D01*
X267552D01*
X268011Y-29807D01*
Y-30725D01*
X267552Y-31185D01*
D22*
X187008Y-5906D02*
D03*
Y-230315D02*
D03*
M02*
