G04*
G04 #@! TF.GenerationSoftware,Altium Limited,Altium Designer,22.10.1 (41)*
G04*
G04 Layer_Physical_Order=1*
G04 Layer_Color=255*
%FSLAX25Y25*%
%MOIN*%
G70*
G04*
G04 #@! TF.SameCoordinates,228258D3-266C-4D4F-9196-BF2F79CCE343*
G04*
G04*
G04 #@! TF.FilePolarity,Positive*
G04*
G01*
G75*
%ADD10C,0.01000*%
%ADD11C,0.00787*%
%ADD14C,0.02362*%
%ADD15C,0.01575*%
%ADD20C,0.01181*%
%ADD25R,0.04528X0.03543*%
%ADD26R,0.05118X0.02756*%
%ADD27R,0.03543X0.02362*%
%ADD28R,0.02362X0.03543*%
%ADD29R,0.03150X0.03150*%
%ADD30R,0.03150X0.03150*%
%ADD31R,0.04331X0.05118*%
%ADD32P,0.04454X4X180.0*%
G04:AMPARAMS|DCode=33|XSize=33.86mil|YSize=10.24mil|CornerRadius=0.36mil|HoleSize=0mil|Usage=FLASHONLY|Rotation=225.000|XOffset=0mil|YOffset=0mil|HoleType=Round|Shape=RoundedRectangle|*
%AMROUNDEDRECTD33*
21,1,0.03386,0.00952,0,0,225.0*
21,1,0.03314,0.01024,0,0,225.0*
1,1,0.00072,-0.01508,-0.00835*
1,1,0.00072,0.00835,0.01508*
1,1,0.00072,0.01508,0.00835*
1,1,0.00072,-0.00835,-0.01508*
%
%ADD33ROUNDEDRECTD33*%
G04:AMPARAMS|DCode=34|XSize=33.86mil|YSize=10.24mil|CornerRadius=0.36mil|HoleSize=0mil|Usage=FLASHONLY|Rotation=315.000|XOffset=0mil|YOffset=0mil|HoleType=Round|Shape=RoundedRectangle|*
%AMROUNDEDRECTD34*
21,1,0.03386,0.00952,0,0,315.0*
21,1,0.03314,0.01024,0,0,315.0*
1,1,0.00072,0.00835,-0.01508*
1,1,0.00072,-0.01508,0.00835*
1,1,0.00072,-0.00835,0.01508*
1,1,0.00072,0.01508,-0.00835*
%
%ADD34ROUNDEDRECTD34*%
%ADD35P,0.04454X4X90.0*%
G04:AMPARAMS|DCode=36|XSize=19.68mil|YSize=39.37mil|CornerRadius=0mil|HoleSize=0mil|Usage=FLASHONLY|Rotation=45.000|XOffset=0mil|YOffset=0mil|HoleType=Round|Shape=Rectangle|*
%AMROTATEDRECTD36*
4,1,4,0.00696,-0.02088,-0.02088,0.00696,-0.00696,0.02088,0.02088,-0.00696,0.00696,-0.02088,0.0*
%
%ADD36ROTATEDRECTD36*%

%ADD37R,0.09488X0.09331*%
%ADD38R,0.01575X0.03543*%
%ADD39R,0.09055X0.09921*%
G04:AMPARAMS|DCode=40|XSize=47.64mil|YSize=23.23mil|CornerRadius=2.9mil|HoleSize=0mil|Usage=FLASHONLY|Rotation=90.000|XOffset=0mil|YOffset=0mil|HoleType=Round|Shape=RoundedRectangle|*
%AMROUNDEDRECTD40*
21,1,0.04764,0.01742,0,0,90.0*
21,1,0.04183,0.02323,0,0,90.0*
1,1,0.00581,0.00871,0.02092*
1,1,0.00581,0.00871,-0.02092*
1,1,0.00581,-0.00871,-0.02092*
1,1,0.00581,-0.00871,0.02092*
%
%ADD40ROUNDEDRECTD40*%
%ADD41R,0.02756X0.09449*%
%ADD42O,0.00984X0.06102*%
%ADD43O,0.06102X0.00984*%
%ADD44R,0.01200X0.04575*%
%ADD45R,0.04528X0.07087*%
%ADD46R,0.10630X0.05906*%
G04:AMPARAMS|DCode=47|XSize=216.54mil|YSize=84.65mil|CornerRadius=21.16mil|HoleSize=0mil|Usage=FLASHONLY|Rotation=180.000|XOffset=0mil|YOffset=0mil|HoleType=Round|Shape=RoundedRectangle|*
%AMROUNDEDRECTD47*
21,1,0.21654,0.04232,0,0,180.0*
21,1,0.17421,0.08465,0,0,180.0*
1,1,0.04232,-0.08711,0.02116*
1,1,0.04232,0.08711,0.02116*
1,1,0.04232,0.08711,-0.02116*
1,1,0.04232,-0.08711,-0.02116*
%
%ADD47ROUNDEDRECTD47*%
%ADD48O,0.08268X0.01181*%
%ADD49O,0.01181X0.08268*%
%ADD50R,0.13386X0.05118*%
%ADD51O,0.09843X0.02756*%
G04:AMPARAMS|DCode=52|XSize=67.32mil|YSize=48.42mil|CornerRadius=6.05mil|HoleSize=0mil|Usage=FLASHONLY|Rotation=180.000|XOffset=0mil|YOffset=0mil|HoleType=Round|Shape=RoundedRectangle|*
%AMROUNDEDRECTD52*
21,1,0.06732,0.03632,0,0,180.0*
21,1,0.05522,0.04842,0,0,180.0*
1,1,0.01211,-0.02761,0.01816*
1,1,0.01211,0.02761,0.01816*
1,1,0.01211,0.02761,-0.01816*
1,1,0.01211,-0.02761,-0.01816*
%
%ADD52ROUNDEDRECTD52*%
%ADD53O,0.08661X0.02362*%
%ADD54R,0.07087X0.03937*%
%ADD55R,0.03000X0.03000*%
%ADD56R,0.03150X0.06299*%
%ADD57R,0.04921X0.07874*%
%ADD58O,0.02756X0.09843*%
%ADD59O,0.02362X0.08661*%
%ADD60R,0.03000X0.03000*%
G04:AMPARAMS|DCode=61|XSize=41.73mil|YSize=25.59mil|CornerRadius=6.4mil|HoleSize=0mil|Usage=FLASHONLY|Rotation=90.000|XOffset=0mil|YOffset=0mil|HoleType=Round|Shape=RoundedRectangle|*
%AMROUNDEDRECTD61*
21,1,0.04173,0.01280,0,0,90.0*
21,1,0.02894,0.02559,0,0,90.0*
1,1,0.01280,0.00640,0.01447*
1,1,0.01280,0.00640,-0.01447*
1,1,0.01280,-0.00640,-0.01447*
1,1,0.01280,-0.00640,0.01447*
%
%ADD61ROUNDEDRECTD61*%
%ADD62R,0.04921X0.02559*%
%ADD63R,0.03976X0.02854*%
%ADD64R,0.03937X0.02815*%
%ADD65R,0.03071X0.03937*%
%ADD66R,0.03150X0.03937*%
%ADD67R,0.03937X0.02854*%
%ADD68R,0.08000X0.02600*%
%ADD69R,0.06299X0.03150*%
%ADD124C,0.02362*%
%ADD125C,0.00660*%
%ADD126P,0.13919X4X270.0*%
%ADD127R,0.16929X0.13386*%
%ADD128C,0.01968*%
%ADD129C,0.00867*%
%ADD130C,0.01100*%
%ADD131C,0.02953*%
%ADD132C,0.07874*%
%ADD133C,0.05906*%
%ADD134C,0.03937*%
%ADD135C,0.04724*%
%ADD136C,0.03543*%
%ADD137C,0.04331*%
%ADD138C,0.02756*%
%ADD139C,0.03150*%
%ADD140C,0.06000*%
%ADD141C,0.06693*%
%ADD142C,0.09055*%
%ADD143C,0.05906*%
%ADD144R,0.05906X0.05906*%
%ADD145C,0.07874*%
%ADD146O,0.07480X0.03543*%
%ADD147C,0.02756*%
%ADD148C,0.01968*%
%ADD149C,0.03937*%
G36*
X67028Y-18681D02*
Y-26949D01*
X50295D01*
Y-23996D01*
X52461D01*
Y-21535D01*
X50295D01*
Y-18681D01*
X54232D01*
Y-17106D01*
X57480D01*
Y-18681D01*
X63878D01*
Y-17106D01*
X67028D01*
Y-18681D01*
D02*
G37*
G36*
X76476Y-27736D02*
X71358D01*
X70571Y-28524D01*
Y-32264D01*
X71358Y-33051D01*
X76279D01*
Y-37087D01*
X68898D01*
X68209Y-36398D01*
Y-24587D01*
X69390Y-23406D01*
X76476D01*
Y-27736D01*
D02*
G37*
G36*
X67028Y-36791D02*
Y-38366D01*
X63878D01*
Y-36791D01*
X57480D01*
Y-38366D01*
X54232D01*
Y-36791D01*
X50295D01*
Y-33937D01*
X52461D01*
Y-31477D01*
X50295D01*
Y-28524D01*
X67028D01*
Y-36791D01*
D02*
G37*
G36*
X67126Y-42323D02*
Y-50591D01*
X50394D01*
Y-47638D01*
X52559D01*
Y-45177D01*
X50394D01*
Y-42323D01*
X54331D01*
Y-40748D01*
X57579D01*
Y-42323D01*
X63976D01*
Y-40748D01*
X67126D01*
Y-42323D01*
D02*
G37*
G36*
X76575Y-51378D02*
X71457D01*
X70669Y-52165D01*
Y-55905D01*
X71457Y-56693D01*
X76378D01*
Y-60728D01*
X68996D01*
X68307Y-60039D01*
Y-48228D01*
X69488Y-47047D01*
X76575D01*
Y-51378D01*
D02*
G37*
G36*
X67126Y-60433D02*
Y-62008D01*
X63976D01*
Y-60433D01*
X57579D01*
Y-62008D01*
X54331D01*
Y-60433D01*
X50394D01*
Y-57579D01*
X52559D01*
Y-55118D01*
X50394D01*
Y-52165D01*
X67126D01*
Y-60433D01*
D02*
G37*
G36*
Y-65945D02*
Y-74213D01*
X50394D01*
Y-71260D01*
X52559D01*
Y-68799D01*
X50394D01*
Y-65945D01*
X54331D01*
Y-64370D01*
X57579D01*
Y-65945D01*
X63976D01*
Y-64370D01*
X67126D01*
Y-65945D01*
D02*
G37*
G36*
X76575Y-75000D02*
X71457D01*
X70669Y-75787D01*
Y-79528D01*
X71457Y-80315D01*
X76378D01*
Y-84350D01*
X68996D01*
X68307Y-83661D01*
Y-71850D01*
X69488Y-70669D01*
X76575D01*
Y-75000D01*
D02*
G37*
G36*
X67126Y-84055D02*
Y-85630D01*
X63976D01*
Y-84055D01*
X57579D01*
Y-85630D01*
X54331D01*
Y-84055D01*
X50394D01*
Y-81201D01*
X52559D01*
Y-78740D01*
X50394D01*
Y-75787D01*
X67126D01*
Y-84055D01*
D02*
G37*
G36*
Y-89764D02*
Y-98032D01*
X50394D01*
Y-95079D01*
X52559D01*
Y-92618D01*
X50394D01*
Y-89764D01*
X54331D01*
Y-88189D01*
X57579D01*
Y-89764D01*
X63976D01*
Y-88189D01*
X67126D01*
Y-89764D01*
D02*
G37*
G36*
X76575Y-98819D02*
X71457D01*
X70669Y-99606D01*
Y-103347D01*
X71457Y-104134D01*
X76378D01*
Y-108169D01*
X68996D01*
X68307Y-107480D01*
Y-95669D01*
X69488Y-94488D01*
X76575D01*
Y-98819D01*
D02*
G37*
G36*
X67126Y-107874D02*
Y-109449D01*
X63976D01*
Y-107874D01*
X57579D01*
Y-109449D01*
X54331D01*
Y-107874D01*
X50394D01*
Y-105020D01*
X52559D01*
Y-102559D01*
X50394D01*
Y-99606D01*
X67126D01*
Y-107874D01*
D02*
G37*
G36*
X66929Y-113583D02*
Y-121850D01*
X50197D01*
Y-118898D01*
X52362D01*
Y-116437D01*
X50197D01*
Y-113583D01*
X54134D01*
Y-112008D01*
X57382D01*
Y-113583D01*
X63779D01*
Y-112008D01*
X66929D01*
Y-113583D01*
D02*
G37*
G36*
X76378Y-122638D02*
X71260D01*
X70472Y-123425D01*
Y-127165D01*
X71260Y-127953D01*
X76181D01*
Y-131988D01*
X68799D01*
X68110Y-131299D01*
Y-119488D01*
X69291Y-118307D01*
X76378D01*
Y-122638D01*
D02*
G37*
G36*
X66929Y-131693D02*
Y-133268D01*
X63779D01*
Y-131693D01*
X57382D01*
Y-133268D01*
X54134D01*
Y-131693D01*
X50197D01*
Y-128839D01*
X52362D01*
Y-126378D01*
X50197D01*
Y-123425D01*
X66929D01*
Y-131693D01*
D02*
G37*
D10*
X82441Y-83858D02*
X89862Y-76437D01*
X85472Y-72047D02*
X89862Y-76437D01*
Y-66437D02*
X93701Y-70276D01*
Y-78937D02*
Y-70276D01*
X86024Y-86614D02*
X93701Y-78937D01*
X78031Y-86614D02*
X86024D01*
X73917Y-82500D02*
X78031Y-86614D01*
X81299Y-72047D02*
X85472D01*
X81299Y-83858D02*
X82441D01*
X84055Y-209547D02*
Y-205709D01*
X82095Y-190362D02*
X82972Y-191240D01*
X82095Y-190362D02*
Y-186819D01*
X81791Y-186516D02*
X82095Y-186819D01*
X82972Y-191240D02*
X84153D01*
X74370Y-77953D02*
X81299D01*
X77835Y-62795D02*
X87992D01*
X94291Y-56496D01*
X175303Y-132980D02*
X176403Y-134080D01*
X175303Y-132980D02*
Y-132783D01*
X173531Y-131012D02*
X175303Y-132783D01*
X173041Y-131012D02*
X173531D01*
X171885Y-129856D02*
X173041Y-131012D01*
X169882Y-132980D02*
Y-125591D01*
Y-132980D02*
X170268Y-133366D01*
X171161D01*
X171885Y-129856D02*
Y-125625D01*
X171850Y-125591D02*
X171885Y-125625D01*
X211909Y-134055D02*
X215158Y-130807D01*
X202157Y-132980D02*
X206604D01*
X207399Y-132185D01*
X201083Y-134055D02*
X202157Y-132980D01*
X207399Y-132185D02*
X207874D01*
X230988Y-155187D02*
X234285Y-158484D01*
X228310Y-153216D02*
X230281Y-155187D01*
X228182Y-153216D02*
X228310D01*
X230281Y-155187D02*
X230988D01*
X242973Y-176832D02*
Y-175524D01*
X240883Y-173434D02*
Y-173434D01*
Y-173434D02*
X242973Y-175524D01*
Y-176832D02*
X243307Y-177165D01*
X249304Y-161216D02*
X251374D01*
X247860Y-162660D02*
X249304Y-161216D01*
X251374D02*
X251389Y-161232D01*
X247843Y-162660D02*
X247860D01*
X197441Y-130413D02*
X201083Y-134055D01*
X84852Y-98632D02*
X88376D01*
X226287Y-171350D02*
X230801D01*
X223917Y-173721D02*
X226287Y-171350D01*
X230801D02*
X232894Y-169258D01*
X244094Y-108465D02*
X255610D01*
X262205Y-115059D01*
X221546Y-134046D02*
X221555Y-134055D01*
X217825Y-134046D02*
X221546D01*
X217775Y-134015D02*
Y-131224D01*
X217161Y-125591D02*
X217161Y-125591D01*
X217815Y-134055D02*
X217825Y-134046D01*
X217161Y-129297D02*
X217161Y-129297D01*
Y-130610D02*
Y-129297D01*
Y-130610D02*
X217775Y-131224D01*
X217161Y-129297D02*
Y-125591D01*
X197441Y-130413D02*
Y-125591D01*
X197441Y-125591D02*
X197441Y-125591D01*
X195473Y-133760D02*
Y-125591D01*
X160039Y-38287D02*
X164272D01*
X167661Y-37008D02*
X169296D01*
X166026D02*
X167661D01*
X167879Y-42091D02*
X167913Y-42126D01*
X167879Y-42091D02*
Y-37225D01*
X167661Y-37008D02*
X167879Y-37225D01*
X169847Y-42091D02*
X169882Y-42126D01*
X169847Y-42091D02*
Y-37559D01*
X169296Y-37008D02*
X169847Y-37559D01*
X164747Y-38287D02*
X166026Y-37008D01*
X164272Y-38287D02*
X164747D01*
X238397Y-131901D02*
X240070D01*
X236811Y-130315D02*
Y-125591D01*
Y-130315D02*
X238397Y-131901D01*
X240070D02*
X240256Y-132087D01*
X153740Y-111614D02*
X154921Y-110433D01*
X262205Y-115059D02*
X275886D01*
X263583Y-112894D02*
X277380D01*
X244094Y-104527D02*
X255217D01*
X263583Y-112894D01*
X277380D02*
X293458Y-128972D01*
X275886Y-115059D02*
X301278Y-140451D01*
X261516Y-117618D02*
X274311D01*
X296260Y-143177D02*
Y-139567D01*
X274311Y-117618D02*
X296260Y-139567D01*
X254331Y-110433D02*
X261516Y-117618D01*
X244094Y-110433D02*
X254331D01*
X279192Y-110827D02*
X298558Y-130193D01*
X265354Y-110827D02*
X279192D01*
X257087Y-102559D02*
X265354Y-110827D01*
X244094Y-102559D02*
X257087D01*
X282890Y-73441D02*
X287795Y-78347D01*
X263236Y-73441D02*
X282890D01*
X287795Y-93799D02*
Y-78347D01*
X262827Y-73032D02*
X262827D01*
X263236Y-73441D01*
X249082Y-59287D02*
X262827Y-73032D01*
X249641Y-57318D02*
X263976Y-71653D01*
X285157D02*
X295866Y-82362D01*
X263976Y-71653D02*
X285157D01*
X166946Y-65551D02*
X167421D01*
X165406Y-67091D02*
X166946Y-65551D01*
X160665Y-67091D02*
X165406D01*
X160630Y-67126D02*
X160665Y-67091D01*
X122335Y-39067D02*
X124419D01*
X125214Y-39862D01*
X121653Y-38386D02*
X122335Y-39067D01*
X125214Y-39862D02*
X125689D01*
X144685Y-62795D02*
X152186D01*
X143110D02*
X144685D01*
X141642Y-64264D02*
X143110Y-62795D01*
X137303Y-66732D02*
X140378D01*
X141642Y-65469D01*
Y-64264D01*
X152580Y-63189D02*
X160630D01*
X152186Y-62795D02*
X152580Y-63189D01*
X153740Y-65158D02*
X160630D01*
X144685Y-72638D02*
X146260D01*
X153740Y-65158D01*
X144587Y-72736D02*
X144685Y-72638D01*
X137402Y-72736D02*
X144587D01*
X298558Y-132810D02*
Y-130193D01*
Y-132810D02*
X298819Y-133071D01*
X293458Y-128972D02*
X293568D01*
X301278Y-143077D02*
Y-140451D01*
Y-143077D02*
X301378Y-143177D01*
X298819Y-147736D02*
Y-143177D01*
Y-147736D02*
X298819Y-147736D01*
X298819Y-143177D02*
X298819Y-143177D01*
X293701Y-143177D02*
X293701Y-143177D01*
Y-147736D02*
Y-143177D01*
Y-147736D02*
X293701Y-147736D01*
X296260Y-143177D02*
X296260Y-143177D01*
X287795Y-93799D02*
X291022Y-97026D01*
X295530D01*
X295866Y-97362D01*
X244129Y-59287D02*
X249082D01*
X244094Y-59252D02*
X244129Y-59287D01*
Y-57318D02*
X249641D01*
X244094Y-57284D02*
X244129Y-57318D01*
X195473Y-42126D02*
Y-35925D01*
X197244Y-34154D01*
X193504Y-42126D02*
Y-33957D01*
X311024Y-107382D02*
Y-103839D01*
X292717Y-107382D02*
X294861Y-105237D01*
Y-103367D02*
X295197Y-103031D01*
X294861Y-105237D02*
Y-103367D01*
X298719Y-120471D02*
Y-118059D01*
X294967Y-114308D02*
X298719Y-118059D01*
X293737Y-114308D02*
X294967D01*
X298719Y-120471D02*
X298819Y-120571D01*
X292717Y-113287D02*
X293737Y-114308D01*
X299241Y-115776D02*
Y-113611D01*
X298917Y-113287D02*
X299241Y-113611D01*
Y-115776D02*
X301278Y-117813D01*
Y-120471D02*
Y-117813D01*
Y-120471D02*
X301378Y-120571D01*
X301780Y-115017D02*
X303937Y-117175D01*
Y-120571D02*
Y-117175D01*
X298917Y-107382D02*
X301780Y-110244D01*
Y-115017D02*
Y-110244D01*
X306496Y-120571D02*
Y-114764D01*
X305020Y-113287D02*
X306496Y-114764D01*
X309055Y-120571D02*
Y-115256D01*
X311024Y-113287D01*
X215158Y-130807D02*
Y-125591D01*
X154632Y-112008D02*
X155026Y-112402D01*
X160630D01*
X154921Y-110433D02*
X160630D01*
X155315Y-78937D02*
X160630D01*
X154134Y-77756D02*
X155315Y-78937D01*
Y-80905D02*
X160630D01*
X154134Y-82087D02*
X155315Y-80905D01*
X73917Y-58878D02*
X77835Y-62795D01*
X94291Y-56496D02*
Y-48671D01*
X89862Y-44242D02*
X94291Y-48671D01*
X74370Y-54331D02*
X81299D01*
X73917Y-67500D02*
X77382D01*
X78740Y-66142D01*
X81299D01*
X73917Y-91319D02*
X75610D01*
X77165Y-89764D01*
X81299D01*
X89862Y-88632D02*
X90600D01*
X94291Y-92323D01*
Y-100058D02*
Y-92323D01*
X92659Y-101691D02*
X94291Y-100058D01*
X92601Y-101691D02*
X92659D01*
X84055Y-110236D02*
X92601Y-101691D01*
X78740Y-110236D02*
X84055D01*
X74823Y-106319D02*
X78740Y-110236D01*
X73917Y-101319D02*
X81043D01*
X81299Y-101575D01*
Y-107480D02*
X82480D01*
X73721Y-115138D02*
X78563D01*
X80315Y-113386D01*
X81299D01*
X89862Y-110827D02*
X93898Y-114862D01*
X74823Y-130138D02*
X78543Y-133858D01*
X72264Y-130138D02*
X73721D01*
Y-125138D02*
X81240D01*
X81299Y-125197D01*
X93898Y-125000D02*
Y-114862D01*
X78543Y-133858D02*
X85039D01*
X93898Y-125000D01*
X89862Y-126083D02*
Y-120827D01*
X84842Y-131102D02*
X89862Y-126083D01*
X81299Y-131102D02*
X84842D01*
X88327Y-119291D02*
X89862Y-120827D01*
X81299Y-119291D02*
X88327D01*
X29528Y-138779D02*
X29921Y-138386D01*
X29528Y-138779D02*
X35827D01*
X39567Y-142520D01*
Y-151969D02*
Y-142520D01*
Y-151969D02*
X43159Y-155561D01*
X45669D01*
X82480Y-107480D02*
X86221Y-103740D01*
X88376Y-98632D02*
X89862D01*
X86221Y-103740D02*
Y-100787D01*
X88376Y-98632D01*
X81299Y-95669D02*
X81890D01*
X84852Y-98632D01*
D11*
X114468Y-76437D02*
X121004D01*
X121063Y-76378D01*
X245789Y-140966D02*
X247638Y-142815D01*
Y-151730D02*
Y-142815D01*
X245789Y-140966D02*
Y-140966D01*
X245789D02*
X249747Y-137008D01*
X245789Y-140966D02*
X245789D01*
X254232Y-135236D02*
Y-134843D01*
X252461Y-137008D02*
X254232Y-135236D01*
X249747Y-137008D02*
X252461D01*
X76181Y-209055D02*
X76279Y-208957D01*
Y-202854D01*
X73465Y-217087D02*
X75590Y-214961D01*
X67669Y-217087D02*
X73465D01*
X75590Y-214961D02*
X76181D01*
X67669Y-199911D02*
X73415D01*
X75590Y-197736D01*
X67669Y-182736D02*
X67805Y-182601D01*
X73502D02*
X75590Y-180512D01*
X67805Y-182601D02*
X73502D01*
X75590Y-197736D02*
X76181D01*
X75590Y-180512D02*
X76181D01*
X67669Y-148386D02*
X73661D01*
X75590Y-146457D01*
X76181D01*
X68576Y-164655D02*
X74342D01*
X74803Y-164193D02*
Y-164075D01*
X75590Y-163287D02*
X76181D01*
X74342Y-164655D02*
X74803Y-164193D01*
X67669Y-165561D02*
X68576Y-164655D01*
X74803Y-164075D02*
X75590Y-163287D01*
X76279Y-140453D02*
Y-137205D01*
X76181Y-140551D02*
X76279Y-140453D01*
X366161Y-202343D02*
Y-160035D01*
X356224Y-150098D02*
X366161Y-160035D01*
X353642Y-214862D02*
X353642D01*
X366161Y-202343D01*
X326772Y-150098D02*
X356224D01*
X322933Y-156398D02*
X327657Y-151674D01*
X361634Y-161911D02*
Y-161910D01*
X351397Y-151674D02*
X361634Y-161910D01*
X327657Y-151674D02*
X351397D01*
X341831Y-21004D02*
X348878Y-13957D01*
X357227D01*
X358957Y-15686D01*
Y-36024D02*
Y-15686D01*
X358169Y-36811D02*
X358957Y-36024D01*
X347146Y-30217D02*
Y-24075D01*
X341339Y-36024D02*
X347146Y-30217D01*
X341339Y-36614D02*
Y-36024D01*
X170472Y-134055D02*
X171161Y-133366D01*
X150303Y-117330D02*
Y-117329D01*
X142323Y-121653D02*
X145768D01*
X150303Y-117330D02*
X151772Y-118799D01*
Y-121555D02*
Y-118799D01*
X151673Y-121653D02*
X151772Y-121555D01*
X151673Y-121653D02*
X151791Y-121772D01*
Y-127520D02*
Y-121772D01*
X296306Y-123508D02*
Y-120617D01*
X301242Y-128445D02*
X336749D01*
X296306Y-123508D02*
X301242Y-128445D01*
X296260Y-120571D02*
X296306Y-120617D01*
X341732Y-49016D02*
X341831Y-49114D01*
X338878Y-49016D02*
X341732D01*
X338220Y-48358D02*
X338878Y-49016D01*
X335956Y-48358D02*
X338220D01*
X335236Y-47638D02*
X335956Y-48358D01*
X170768Y-63484D02*
X190059Y-82776D01*
X237205D01*
X170768Y-63484D02*
Y-59252D01*
X166831Y-55315D02*
X170768Y-59252D01*
X160630Y-55315D02*
X166831D01*
X237205Y-82776D02*
X237303Y-82677D01*
X160643Y-90761D02*
X166571D01*
X141700Y-154134D02*
X141791Y-154226D01*
X177890Y-102080D02*
X181975D01*
X141791Y-158045D02*
Y-154226D01*
X166571Y-90761D02*
X177890Y-102080D01*
X203346Y-120669D02*
X204823Y-119193D01*
X203346Y-125591D02*
Y-120669D01*
X204823Y-119193D02*
Y-114961D01*
X193692Y-114970D02*
X193701Y-114961D01*
X193692Y-117762D02*
Y-114970D01*
X191535Y-119919D02*
X193692Y-117762D01*
X199409Y-125591D02*
Y-118383D01*
X199311Y-118284D02*
X199409Y-118383D01*
X199311Y-118284D02*
Y-115127D01*
X199144Y-114961D02*
X199311Y-115127D01*
X187598Y-125591D02*
Y-114961D01*
X184744Y-117757D02*
Y-117224D01*
Y-117757D02*
X185555Y-118568D01*
Y-125515D02*
Y-118568D01*
Y-125515D02*
X185630Y-125591D01*
X190630Y-117738D02*
Y-117205D01*
X189567Y-118801D02*
X190630Y-117738D01*
X189567Y-125591D02*
Y-118801D01*
X193504Y-125591D02*
Y-120177D01*
X196436Y-117245D01*
X191535Y-125591D02*
Y-119919D01*
X201378Y-118249D02*
X201870Y-117757D01*
Y-117224D01*
X201378Y-125591D02*
Y-118249D01*
X128740Y-216732D02*
Y-216142D01*
X127362Y-217520D02*
X127953D01*
X128740Y-216732D01*
Y-216142D02*
X131791Y-213090D01*
Y-194685D01*
X130118Y-168110D02*
X130315Y-168307D01*
Y-183540D02*
Y-168307D01*
X128740Y-185115D02*
X130315Y-183540D01*
X128740Y-191880D02*
Y-185115D01*
X127953Y-192667D02*
X128740Y-191880D01*
X127362Y-192667D02*
X127953D01*
X127362Y-173721D02*
X127461Y-173622D01*
Y-165157D01*
Y-160630D02*
X131102D01*
X127362Y-160728D02*
X127461Y-160630D01*
X125984Y-159941D02*
X126772Y-160728D01*
X125984Y-159941D02*
Y-159820D01*
X123685Y-157520D02*
X125984Y-159820D01*
X123685Y-157520D02*
Y-157520D01*
X126772Y-160728D02*
X127362D01*
X121204Y-155039D02*
X123685Y-157520D01*
X118504Y-155039D02*
X121204D01*
X322047Y-154823D02*
X326772Y-150098D01*
X287894Y-154823D02*
X322047D01*
X283563Y-150492D02*
X287894Y-154823D01*
X281496Y-150492D02*
X283563D01*
X268996Y-154626D02*
X273130Y-150492D01*
X275590D01*
X250309Y-154626D02*
X268996D01*
X245059Y-159876D02*
X250309Y-154626D01*
X251322Y-156398D02*
X275590D01*
X246451Y-161268D02*
X251322Y-156398D01*
X281496D02*
X322933D01*
X265748Y-146752D02*
X267520D01*
X263614Y-144617D02*
X265748Y-146752D01*
X262236Y-144617D02*
X263614D01*
X260728Y-143110D02*
X262236Y-144617D01*
X252151Y-150000D02*
X254626D01*
X243667Y-158484D02*
X252151Y-150000D01*
X260531D02*
X260728Y-149803D01*
Y-143110D01*
X242275Y-157092D02*
X247638Y-151730D01*
X247843Y-166474D02*
X247845D01*
X249455Y-168084D02*
X250518D01*
X247845Y-166474D02*
X249455Y-168084D01*
X250518D02*
X251772Y-166831D01*
X255118Y-161319D02*
Y-160433D01*
Y-161319D02*
X255315Y-161516D01*
X254724D02*
X255315D01*
X251772Y-164469D02*
X254724Y-161516D01*
X251772Y-166831D02*
Y-164469D01*
X156905Y-116414D02*
X156980Y-116339D01*
X155315Y-121974D02*
Y-117573D01*
X156474Y-116414D01*
X156905D01*
X156980Y-116339D02*
X160630D01*
X155315Y-121974D02*
X161024Y-127683D01*
Y-132972D02*
Y-127683D01*
X223325Y-153148D02*
X227250Y-157073D01*
X221654Y-152361D02*
X222441Y-153148D01*
X227250Y-157073D02*
X230090D01*
X221654Y-152361D02*
Y-151772D01*
X222441Y-153148D02*
X223325D01*
X221949Y-146161D02*
X227531D01*
X237069Y-155700D01*
X221654Y-145866D02*
X221949Y-146161D01*
X219291Y-148358D02*
Y-142913D01*
X221654Y-140551D01*
Y-139961D01*
X222441Y-158760D02*
X228994D01*
X221654Y-157973D02*
X222441Y-158760D01*
X221654Y-157973D02*
Y-157677D01*
X228994Y-158760D02*
X231502Y-161268D01*
X230090Y-157073D02*
X232894Y-159876D01*
X227404Y-148819D02*
X235678Y-157092D01*
X219291Y-148358D02*
X219753Y-148819D01*
X223324D01*
X223324Y-148819D01*
X227404D01*
X182894Y-202638D02*
Y-189882D01*
X258366Y-32185D02*
X258366D01*
X258366D02*
X258366D01*
X293012Y-18996D02*
Y-14862D01*
X291339Y-68701D02*
X291687Y-69050D01*
X290385Y-67747D02*
X291339Y-68701D01*
X292028Y-70866D02*
Y-70333D01*
X291339Y-69644D02*
X291687Y-69993D01*
X290385Y-67747D02*
Y-67520D01*
X290158D02*
X290385D01*
X284547D02*
X290158D01*
X264665Y-51476D02*
X265256D01*
X258760D02*
X264665D01*
X146809Y-158110D02*
Y-154193D01*
X136805Y-158091D02*
Y-154134D01*
X141713Y-127598D02*
X141791Y-127520D01*
X146653Y-127657D02*
X146791Y-127520D01*
X146809Y-154193D02*
X146850Y-154152D01*
X136791Y-158105D02*
X136805Y-158091D01*
X146653Y-131595D02*
Y-127657D01*
X141713Y-131516D02*
Y-127598D01*
X141634Y-131595D02*
X141713Y-131516D01*
X195177Y-134055D02*
X195473Y-133760D01*
X188779Y-189862D02*
X204882D01*
X208228Y-186516D01*
X241556Y-146675D02*
Y-145198D01*
Y-146675D02*
X243504Y-148622D01*
Y-153080D02*
Y-148622D01*
X237324Y-149430D02*
X241556Y-145198D01*
X240883Y-155700D02*
X243504Y-153080D01*
X137402Y-101772D02*
X149606D01*
X137402Y-104823D02*
Y-101772D01*
X128248D02*
X137402D01*
X126279Y-104823D02*
X127067Y-104035D01*
Y-102953D01*
X128248Y-101772D01*
X262992Y-80709D02*
Y-80118D01*
X260630Y-77756D02*
Y-77658D01*
Y-77756D02*
X262992Y-80118D01*
X233661Y-69859D02*
X236834Y-73032D01*
X233661Y-69859D02*
Y-69784D01*
X236834Y-73032D02*
X244094D01*
X238779Y-71063D02*
X244094D01*
X237500Y-69784D02*
X238779Y-71063D01*
X237205Y-69784D02*
X237500D01*
X291687Y-69993D02*
X292028Y-70333D01*
X291687Y-69993D02*
Y-69050D01*
X291339Y-69644D02*
Y-68701D01*
X160640Y-86801D02*
X169993D01*
X173870Y-90678D02*
X173945D01*
X169993Y-86801D02*
X173870Y-90678D01*
X160660Y-82903D02*
X173611D01*
X173876Y-83169D01*
X168209Y-88779D02*
X173796Y-94367D01*
X160630Y-88779D02*
X168209D01*
X160630Y-84842D02*
X171653D01*
X173917Y-87106D01*
X183612Y-42175D02*
X183661Y-42126D01*
X183612Y-56939D02*
Y-42175D01*
X183563Y-56988D02*
X183612Y-56939D01*
X175984Y-63189D02*
X189469D01*
X201378Y-51279D01*
Y-42126D01*
X160630Y-69095D02*
X167421D01*
X167421Y-69095D01*
X160630Y-69095D02*
X160630Y-69095D01*
X121752Y-43406D02*
X125689D01*
X259547Y-86910D02*
X262992D01*
X329659Y-140939D02*
Y-136549D01*
Y-140939D02*
X329961Y-141240D01*
X327461Y-134350D02*
X329659Y-136549D01*
X325262Y-140939D02*
Y-136549D01*
X327461Y-134350D01*
X324961Y-141240D02*
X325262Y-140939D01*
X319970Y-141230D02*
Y-134262D01*
X319961Y-141240D02*
X319970Y-141230D01*
Y-134262D02*
X319980Y-134252D01*
X237254Y-78888D02*
X244045D01*
X244094Y-78937D01*
X237205Y-78839D02*
X237254Y-78888D01*
X334902Y-141181D02*
X334961Y-141240D01*
X334902Y-141181D02*
Y-134409D01*
X334842Y-134350D02*
X334902Y-134409D01*
X303937Y-143177D02*
Y-132382D01*
X306299Y-130020D01*
X336749Y-128445D02*
X339400Y-125794D01*
Y-118815D01*
X337402Y-130020D02*
X343133Y-124288D01*
X306299Y-130020D02*
X337402D01*
X344980Y-122390D02*
Y-120472D01*
X343133Y-124238D02*
X344980Y-122390D01*
X343133Y-124288D02*
Y-124238D01*
X339400Y-118815D02*
X342860Y-115354D01*
X349705D01*
X354823Y-120472D01*
X344980Y-79134D02*
X354823D01*
X344980Y-65354D02*
X354823D01*
X338192Y-74016D02*
X341043D01*
X344980Y-70079D01*
Y-65354D01*
X332395Y-79813D02*
X338192Y-74016D01*
X327122Y-79813D02*
X332395D01*
X341437Y-75590D02*
X344980Y-79134D01*
X338844Y-75590D02*
X341437D01*
X327122Y-87313D02*
X338844Y-75590D01*
X315158Y-87362D02*
X322185D01*
X327122Y-82425D01*
Y-79813D01*
X320121Y-91986D02*
X324793Y-87313D01*
X327122D01*
X315534Y-91986D02*
X320121D01*
X315158Y-92362D02*
X315534Y-91986D01*
X244094Y-53346D02*
X251378D01*
X252756Y-54724D01*
X250197Y-51378D02*
X252756Y-48819D01*
X244094Y-51378D02*
X250197D01*
X248327Y-42618D02*
X251279Y-39666D01*
X258366D01*
X267815Y-38980D02*
Y-37402D01*
X264401Y-33987D02*
X267815Y-37402D01*
X269140Y-39961D02*
X269435Y-40256D01*
X267815Y-38980D02*
X268795Y-39961D01*
X260168Y-33987D02*
X264401D01*
X268795Y-39961D02*
X269140D01*
X258366Y-32185D02*
X260168Y-33987D01*
X269435Y-40256D02*
X272047D01*
X259744Y-41043D02*
X265771D01*
X258366Y-39666D02*
X259744Y-41043D01*
X266951Y-42224D02*
X272047D01*
X265771Y-41043D02*
X266951Y-42224D01*
X258366Y-32185D02*
Y-24016D01*
X266339Y-32413D02*
Y-25197D01*
X265551Y-24409D02*
X266339Y-25197D01*
X264961Y-24409D02*
X265551D01*
X268276Y-34350D02*
X272047D01*
X266339Y-32413D02*
X268276Y-34350D01*
X276049Y-80709D02*
X278455Y-78303D01*
X268898Y-80709D02*
X276049D01*
X266535Y-92126D02*
X268701Y-94291D01*
X268898Y-81299D02*
Y-80709D01*
X266535Y-83661D02*
X268898Y-81299D01*
X266535Y-92126D02*
Y-83661D01*
X268898Y-86910D02*
X274311D01*
X274705Y-87303D01*
X258858Y-62598D02*
Y-57480D01*
X258760Y-57382D02*
X258858Y-57480D01*
X277370Y-43907D02*
Y-42478D01*
X275153Y-46124D02*
X277370Y-43907D01*
Y-42478D02*
X277678Y-42170D01*
X272085Y-46124D02*
X275153D01*
X272047Y-46161D02*
X272085Y-46124D01*
X272047Y-48130D02*
X277058D01*
X279873Y-45315D01*
X228937Y-51476D02*
X233858Y-56398D01*
X228937Y-51476D02*
Y-42126D01*
X234055Y-60039D02*
X238779Y-55315D01*
X233858Y-60039D02*
X234055D01*
X238779Y-55315D02*
X244094D01*
X295146Y-64302D02*
X296714Y-62735D01*
Y-59093D01*
X290846Y-64302D02*
X295146D01*
X290846D02*
Y-59055D01*
Y-66831D02*
Y-64302D01*
X290158Y-67520D02*
X290846Y-66831D01*
X273622Y-62500D02*
Y-56988D01*
X274674Y-63552D02*
X275326D01*
X273622Y-62500D02*
X274674Y-63552D01*
X275326D02*
X277029Y-61849D01*
Y-59093D01*
X277067Y-59055D01*
X316634Y-36909D02*
Y-35456D01*
X315945Y-32303D02*
X316685Y-33043D01*
X316634Y-35456D02*
X316685Y-35405D01*
X315256Y-38287D02*
X316634Y-36909D01*
X316685Y-35405D02*
Y-33043D01*
X303740Y-38287D02*
X315256D01*
X310039Y-26181D02*
X314173Y-30315D01*
X303740Y-40256D02*
X319685D01*
X322657Y-37284D01*
Y-33071D01*
X323425Y-32303D01*
X310039Y-26181D02*
Y-23819D01*
X314173Y-30315D02*
X315177D01*
X315945Y-31083D01*
X265140Y-64255D02*
X267815Y-66929D01*
X265140Y-64255D02*
Y-62877D01*
X267815Y-67520D02*
Y-66929D01*
X264764Y-62500D02*
X265140Y-62877D01*
X303740Y-34350D02*
X303778Y-34388D01*
X309782D01*
X310138Y-34744D01*
X297901Y-36319D02*
X303740D01*
X297116Y-37104D02*
X297901Y-36319D01*
X296583Y-37104D02*
X297116D01*
X236807Y-42130D02*
X236811Y-42126D01*
X236803Y-53158D02*
X236807Y-53154D01*
Y-42130D01*
X185630Y-47660D02*
X187402Y-49432D01*
Y-49508D02*
Y-49432D01*
X185630Y-47660D02*
Y-42126D01*
X267815Y-61024D02*
X273721Y-66929D01*
X267815Y-61024D02*
Y-51374D01*
X273721Y-67520D02*
Y-66929D01*
X272047Y-54035D02*
X276083D01*
X281890Y-48228D01*
X272010Y-50136D02*
X272047Y-50098D01*
X267815Y-51374D02*
X269053Y-50136D01*
X272010D01*
X273721Y-67520D02*
X278642D01*
X298721Y-64862D02*
Y-59055D01*
X296063Y-67520D02*
X298721Y-64862D01*
X277067Y-27362D02*
X277067Y-27362D01*
X277067Y-31496D02*
Y-27362D01*
X276181Y-32382D02*
X277067Y-31496D01*
X272047Y-32382D02*
X276181D01*
X296457Y-33563D02*
X298721Y-31299D01*
Y-27362D01*
X309842Y-17717D02*
X310039Y-17913D01*
X309842Y-17717D02*
Y-14862D01*
X298327Y-18504D02*
X298524Y-18307D01*
Y-14862D01*
X281988Y-18504D02*
X282087Y-18406D01*
Y-14862D01*
X277067Y-27362D02*
Y-19488D01*
X276083Y-18504D02*
X277067Y-19488D01*
X279035Y-27362D02*
Y-21457D01*
X281988Y-18504D01*
X284941Y-21358D02*
X287205Y-19094D01*
X284941Y-27362D02*
Y-21358D01*
X287205Y-19094D02*
Y-18504D01*
X189642Y-46282D02*
Y-42201D01*
Y-46282D02*
X192770Y-49409D01*
X189567Y-42126D02*
X189642Y-42201D01*
X192770Y-49409D02*
X197835D01*
X312402Y-71653D02*
Y-71586D01*
X313779Y-70208D01*
Y-67323D01*
X301870Y-72835D02*
X305373D01*
X306554Y-71653D01*
X307087D01*
X299508Y-54130D02*
Y-53342D01*
Y-54917D02*
Y-54130D01*
X281004Y-54724D02*
X281599Y-54130D01*
X299508D01*
X281004Y-59055D02*
Y-54724D01*
X307776Y-61417D02*
X313779D01*
X299508Y-53342D02*
X300746Y-52105D01*
X299508Y-54917D02*
X301870Y-57279D01*
Y-66929D02*
Y-57279D01*
X303702Y-52105D02*
X303740Y-52067D01*
X300746Y-52105D02*
X303702D01*
X304232Y-26476D02*
Y-18504D01*
X307972Y-31921D02*
Y-30217D01*
X304232Y-26476D02*
X307972Y-30217D01*
X303740Y-32382D02*
X307511D01*
X307972Y-31921D01*
X335728Y-67323D02*
Y-66732D01*
X324902Y-67323D02*
Y-66732D01*
Y-67323D02*
X327264Y-69685D01*
X333366D01*
X335728Y-67323D01*
X324902Y-66732D02*
Y-66142D01*
X327756Y-63287D01*
Y-54232D01*
X326180Y-52657D02*
X327756Y-54232D01*
X320967Y-52657D02*
X326180D01*
X319391Y-51081D02*
X320967Y-52657D01*
X319391Y-51081D02*
Y-49017D01*
X318110Y-47736D02*
X319391Y-49017D01*
X314022Y-47736D02*
X318110D01*
X303740Y-44193D02*
X310478D01*
X314022Y-47736D01*
X326409Y-48161D02*
X329823Y-51575D01*
Y-66732D02*
Y-51575D01*
X323948Y-48161D02*
X326409D01*
X323425Y-47638D02*
X323948Y-48161D01*
X303740Y-42224D02*
X312795D01*
X315354Y-44783D02*
X315945D01*
X312795Y-42224D02*
X315354Y-44783D01*
X315846Y-50787D02*
X315945Y-50689D01*
X315846Y-54134D02*
Y-50787D01*
X307972Y-61221D02*
Y-51374D01*
X307776Y-61417D02*
X307972Y-61221D01*
X306735Y-50136D02*
X307972Y-51374D01*
X303740Y-50098D02*
X303778Y-50136D01*
X306735D01*
X303740Y-63878D02*
X307185Y-67323D01*
X307776D01*
X303740Y-63878D02*
Y-54035D01*
X293012Y-18996D02*
X293209Y-19193D01*
X272047Y-18406D02*
X275984D01*
X276083Y-18504D01*
X267815Y-44193D02*
X272047D01*
X266043Y-45965D02*
X267815Y-44193D01*
X266043Y-50689D02*
Y-45965D01*
X265256Y-51476D02*
X266043Y-50689D01*
X319783Y-65354D02*
X320374D01*
X322252Y-63477D02*
Y-58851D01*
X318996Y-66142D02*
X319783Y-65354D01*
X320374D02*
X322252Y-63477D01*
X318996Y-66732D02*
Y-66142D01*
X322252Y-58851D02*
X323425Y-57677D01*
X335335Y-57776D02*
X339469D01*
X335236Y-57677D02*
X335335Y-57776D01*
X168012Y-20768D02*
X173818Y-26574D01*
X184740D01*
X189567Y-31400D01*
Y-42126D02*
Y-31400D01*
X121161Y-49311D02*
X121752D01*
X120374Y-50098D02*
X121161Y-49311D01*
X120374Y-51673D02*
Y-50098D01*
X117913Y-54134D02*
X120374Y-51673D01*
X114576Y-54134D02*
X117913D01*
X114468Y-54242D02*
X114576Y-54134D01*
X154035Y-71063D02*
X160630D01*
X148622Y-76476D02*
X154035Y-71063D01*
X136651Y-76476D02*
X148622D01*
X154724Y-73032D02*
X160630D01*
X137303Y-78051D02*
X149705D01*
X154724Y-73032D01*
X167667Y-75049D02*
X167717Y-75098D01*
X160630Y-75000D02*
X160679Y-75049D01*
X167667D01*
X121752Y-81594D02*
X131533D01*
X121063Y-82284D02*
X121752Y-81594D01*
X131533D02*
X136651Y-76476D01*
X121457Y-92815D02*
Y-88881D01*
X121063Y-93209D02*
X121457Y-92815D01*
Y-88881D02*
X127169Y-83169D01*
X132185D02*
X137303Y-78051D01*
X127169Y-83169D02*
X132185D01*
X197244Y-34154D02*
X198425Y-32972D01*
X197244Y-34154D02*
Y-34154D01*
X192520Y-32972D02*
X193504Y-33957D01*
X173917Y-31791D02*
X174114Y-31988D01*
X174705D01*
X174902Y-31791D02*
X179232D01*
X174705Y-31988D02*
X174902Y-31791D01*
X179724Y-42126D02*
Y-32283D01*
X179232Y-31791D02*
X179724Y-32283D01*
X311614Y-117517D02*
X313779Y-115351D01*
X311614Y-120571D02*
Y-117517D01*
X305020Y-107382D02*
X307972Y-110335D01*
X312891D02*
X313779Y-111223D01*
X307972Y-110335D02*
X312891D01*
X313779Y-115351D02*
Y-111223D01*
X211860Y-134104D02*
X211909Y-134055D01*
X160555Y-106421D02*
X160630Y-106496D01*
X153740Y-104134D02*
X156027Y-106421D01*
X160555D01*
X154863Y-108465D02*
X160630D01*
X154273Y-107874D02*
X154863Y-108465D01*
X153740Y-107874D02*
X154273D01*
X153740Y-111614D02*
X154134Y-112008D01*
X154632D01*
X225295Y-134055D02*
X228937D01*
X167578Y-53346D02*
X168660Y-52264D01*
X169193D01*
X160630Y-53346D02*
X167578D01*
X121063Y-112795D02*
X123031Y-110827D01*
X121063Y-114764D02*
Y-112795D01*
X127362Y-135827D02*
Y-131299D01*
X127047Y-136142D02*
X127362Y-135827D01*
X135630Y-87599D02*
X137796Y-85433D01*
X145620D01*
X132973Y-94783D02*
X135335D01*
X137894Y-97343D02*
Y-97342D01*
X140748Y-100197D02*
X145768D01*
X135335Y-94783D02*
X137894Y-97342D01*
Y-97343D02*
X140748Y-100197D01*
X234842Y-134055D02*
Y-125591D01*
X127362Y-145276D02*
Y-141732D01*
X118504Y-136142D02*
X127047D01*
X127362Y-154823D02*
Y-151132D01*
Y-182874D02*
Y-179626D01*
Y-207087D02*
Y-198573D01*
Y-211614D02*
Y-207087D01*
X143110Y-92913D02*
Y-88829D01*
Y-96949D02*
Y-92913D01*
X145768Y-100197D02*
X149016Y-96949D01*
X149606Y-101772D02*
X154724Y-96653D01*
X160630D01*
X145620Y-85433D02*
X149016Y-88829D01*
X152903Y-92716D01*
X160630D01*
X149016Y-96949D02*
X151280Y-94685D01*
X160630D01*
X182894Y-202638D02*
X184843D01*
X200453Y-207638D02*
X203740D01*
X197835Y-205020D02*
X200453Y-207638D01*
X197835Y-205020D02*
Y-198917D01*
X200787Y-195965D01*
X114468Y-120827D02*
X120906D01*
X121063Y-120669D01*
X114951Y-99114D02*
X121063D01*
X114468Y-98632D02*
X114951Y-99114D01*
X114901Y-32480D02*
X121653D01*
X114468Y-32047D02*
X114901Y-32480D01*
X118504Y-211614D02*
X121457D01*
X127362Y-217520D01*
X76181Y-157382D02*
Y-154626D01*
Y-174606D02*
Y-171850D01*
Y-191831D02*
Y-189075D01*
X118504Y-193228D02*
X119065Y-192667D01*
X127362D01*
X118504Y-174213D02*
X126870D01*
X127362Y-173721D01*
D14*
X184055Y-170079D02*
X186893D01*
X183465Y-170669D02*
X184055Y-170079D01*
X188665Y-168307D02*
X188878D01*
X186893Y-170079D02*
X188665Y-168307D01*
X188779Y-164764D02*
X188829Y-164813D01*
Y-168258D02*
X188878Y-168307D01*
X188829Y-168258D02*
Y-164813D01*
X188878Y-168520D02*
Y-168307D01*
X190023Y-174669D02*
X190059Y-174705D01*
X190023Y-174669D02*
Y-169665D01*
X188878Y-168520D02*
X190023Y-169665D01*
D15*
X118850Y-66437D02*
X118898Y-66390D01*
X114468Y-66437D02*
X118850D01*
X67669Y-209992D02*
X67716Y-210039D01*
X53543Y-183071D02*
Y-165748D01*
X67669Y-175642D02*
X67716Y-175689D01*
X53543Y-165748D02*
Y-148622D01*
X352264Y-37402D02*
Y-36811D01*
X354400Y-40817D02*
Y-39538D01*
X352264Y-37402D02*
X354400Y-39538D01*
Y-40817D02*
X354626Y-41043D01*
X335409Y-37598D02*
X335531D01*
Y-40945D02*
Y-37598D01*
Y-40945D02*
X335630Y-41043D01*
X115522Y-40777D02*
X115748Y-40551D01*
X115522Y-43258D02*
Y-40777D01*
X143159Y-108022D02*
Y-104872D01*
X143110Y-108071D02*
X143159Y-108022D01*
Y-104872D02*
X143209Y-104823D01*
X153514Y-111388D02*
X153740Y-111614D01*
X149902Y-108211D02*
X153078Y-111388D01*
X153514D01*
X149114Y-104823D02*
X149902Y-105610D01*
Y-108211D02*
Y-105610D01*
X114468Y-44242D02*
X114538D01*
X115522Y-43258D01*
X186780Y-161448D02*
X188452D01*
X188678Y-161222D01*
X183465Y-164764D02*
X186780Y-161448D01*
X146014Y-165896D02*
X149852D01*
X151791Y-163637D02*
Y-158110D01*
X149852Y-165896D02*
X150000Y-165748D01*
Y-165428D01*
X145866Y-166043D02*
X146014Y-165896D01*
X150000Y-165428D02*
X151791Y-163637D01*
X230157Y-189075D02*
X232716Y-186516D01*
X225197Y-189075D02*
X230157D01*
Y-183957D02*
X232716Y-186516D01*
X225197Y-183957D02*
X230157D01*
X139596Y-165679D02*
X139961Y-166043D01*
X136250Y-165679D02*
X139596D01*
X136024Y-165453D02*
X136250Y-165679D01*
X131496Y-108317D02*
Y-104823D01*
X120325Y-104774D02*
X120374Y-104823D01*
X117717Y-104724D02*
X117766Y-104774D01*
X120325D01*
X282185Y-90256D02*
X282195Y-90246D01*
Y-87313D01*
X282205Y-87303D01*
X172313Y-136979D02*
Y-135896D01*
Y-136979D02*
X172539Y-137205D01*
X170472Y-134055D02*
X172313Y-135896D01*
X258366Y-18110D02*
Y-14469D01*
X127657Y-66535D02*
X131201D01*
X131398Y-66732D01*
X134547Y-45866D02*
Y-37008D01*
X128051Y-72736D02*
X131496D01*
X210187Y-32923D02*
Y-29774D01*
X210138Y-29724D02*
X210187Y-29774D01*
X192520Y-32972D02*
Y-29724D01*
X198425Y-32972D02*
Y-30438D01*
X198130Y-30143D02*
X198425Y-30438D01*
X198130Y-30143D02*
Y-29823D01*
X204331Y-32972D02*
X204724D01*
X242421Y-202264D02*
Y-196063D01*
X138878Y-80905D02*
X142913D01*
X176142Y-212638D02*
X184843D01*
X174114Y-214665D02*
X176142Y-212638D01*
X174114Y-215945D02*
Y-214665D01*
X175610Y-217638D02*
X184843D01*
X318258Y-107333D02*
Y-102608D01*
X318307Y-102559D01*
X318160Y-107333D02*
X318209Y-107382D01*
X184843Y-217638D02*
X203740D01*
X149409Y-46949D02*
Y-42618D01*
X150591Y-38287D02*
X150787D01*
X154134D01*
X150787Y-38287D02*
X150787Y-38287D01*
X150000Y-82087D02*
X154134D01*
X148819Y-80905D02*
X150000Y-82087D01*
X67669Y-141291D02*
Y-138386D01*
Y-141291D02*
X67716Y-141339D01*
X67669Y-158466D02*
X67716Y-158514D01*
X67669Y-158466D02*
Y-155561D01*
Y-175642D02*
Y-172736D01*
Y-192817D02*
X67716Y-192864D01*
X67669Y-192817D02*
Y-189911D01*
X118504Y-144047D02*
X118551Y-144095D01*
X118504Y-144047D02*
Y-141142D01*
Y-162945D02*
X118551Y-162992D01*
X118504Y-162945D02*
Y-160039D01*
Y-182118D02*
X118551Y-182165D01*
X118504Y-182118D02*
Y-179213D01*
Y-201134D02*
X118551Y-201181D01*
X118504Y-201134D02*
Y-198228D01*
X67669Y-209992D02*
Y-207087D01*
X112795Y-216779D02*
X112843Y-216732D01*
X115748D01*
X118850Y-110827D02*
X118898Y-110780D01*
X114468Y-110827D02*
X118850D01*
X114468Y-88632D02*
X118850D01*
X118898Y-88585D01*
X114468Y-22047D02*
X118850D01*
X118898Y-22000D01*
X45669Y-217087D02*
X51024D01*
X53543Y-214567D01*
X29528Y-115354D02*
X37008Y-122835D01*
X29528Y-115354D02*
Y-111221D01*
X45906Y-148622D02*
X53543D01*
X45669Y-148386D02*
X45906Y-148622D01*
X45669Y-165561D02*
X47057D01*
X47244Y-165748D01*
X53543D01*
X46004Y-183071D02*
X53543D01*
X45669Y-182736D02*
X46004Y-183071D01*
X53543Y-199606D02*
Y-183071D01*
Y-214567D02*
Y-199606D01*
X45669Y-199911D02*
X53238D01*
X53543Y-199606D01*
X44882Y-207087D02*
X45669D01*
X37008Y-125000D02*
Y-122835D01*
Y-125000D02*
X47047Y-135039D01*
X50591D01*
X53543Y-137992D01*
Y-148622D02*
Y-137992D01*
D20*
X86024Y-216240D02*
Y-215059D01*
X88759Y-212324D01*
X92795D01*
X85236Y-217028D02*
X86024Y-216240D01*
X84055Y-217028D02*
X85236D01*
X85335Y-198721D02*
X86122Y-197933D01*
Y-196752D01*
X88936Y-193938D01*
X84153Y-198721D02*
X85335D01*
X88936Y-193938D02*
X92795D01*
X93504Y-193228D01*
X96653D01*
X92795Y-212324D02*
X93504Y-211614D01*
X84153Y-180217D02*
X85138D01*
X85925Y-181004D01*
Y-183957D02*
Y-181004D01*
X89328Y-172736D02*
X90804Y-174213D01*
X93504D01*
X84153Y-172736D02*
X89328D01*
X84153Y-165945D02*
Y-162598D01*
Y-155118D02*
X84193Y-155079D01*
X93465D01*
X93504Y-155039D01*
X84153Y-147441D02*
Y-144095D01*
X93228Y-136417D02*
X93268Y-136378D01*
X93504Y-136142D01*
X84153Y-136614D02*
X84390Y-136378D01*
X93268D01*
X40748Y-207087D02*
X44882D01*
X37205Y-203543D02*
X40748Y-207087D01*
X37205Y-203543D02*
Y-187795D01*
X29528Y-166339D02*
X38189Y-175000D01*
Y-184646D02*
Y-175000D01*
X29528Y-152559D02*
X36417Y-159449D01*
Y-166732D02*
Y-159449D01*
Y-166732D02*
X42421Y-172736D01*
X94685Y-34843D02*
Y-26870D01*
X90158Y-39370D02*
X94685Y-34843D01*
X77953Y-39370D02*
X90158D01*
X261024Y-160433D02*
X264370D01*
X262205Y-171850D02*
X262303Y-171752D01*
X265551D01*
X264469Y-180118D02*
X267913D01*
X270571Y-186024D02*
X270669Y-185925D01*
X273917D01*
X247638Y-188583D02*
X248228Y-189173D01*
Y-191831D02*
Y-189173D01*
X247342Y-188583D02*
X247638D01*
X260728Y-134843D02*
X261024Y-135138D01*
X96850Y-155039D02*
Y-148228D01*
Y-174213D02*
Y-167323D01*
X293406Y-183071D02*
X293406Y-183071D01*
X296752D01*
X133760Y-127362D02*
X136634D01*
X136791Y-127520D01*
X252953Y-89862D02*
X253248Y-89567D01*
X251739Y-89862D02*
X252953D01*
X250359Y-91243D02*
X251739Y-89862D01*
X250359Y-94748D02*
Y-91243D01*
X253248Y-93012D02*
Y-89567D01*
X256201Y-96063D02*
Y-86614D01*
X244094Y-98622D02*
X253642D01*
X256201Y-96063D01*
X252658Y-67946D02*
X253248Y-68536D01*
Y-71850D02*
Y-68536D01*
X252658Y-67946D02*
Y-67520D01*
X255998Y-80912D02*
X256785D01*
X257087Y-80610D01*
X253248Y-83661D02*
X255998Y-80912D01*
X253248Y-83661D02*
X256201Y-86614D01*
X256785Y-80309D02*
X257087Y-80610D01*
X253248Y-77756D02*
X255801Y-80309D01*
X256785D01*
X244094Y-76968D02*
X252461D01*
X253248Y-77756D01*
X250098Y-75000D02*
X253248Y-71850D01*
X244094Y-75000D02*
X250098D01*
X248453Y-96653D02*
X250359Y-94748D01*
X244094Y-96653D02*
X248453D01*
X145473Y-175787D02*
Y-172244D01*
X145472Y-175787D02*
X145473Y-175787D01*
X140453Y-49213D02*
Y-45866D01*
Y-49213D02*
X141240Y-50000D01*
X146555D01*
X149409Y-52854D01*
X136953Y-52713D02*
X140453Y-49213D01*
X128140Y-52713D02*
X136953D01*
X324484Y-103252D02*
Y-99110D01*
Y-103252D02*
X325291Y-104059D01*
X326205D01*
X328346Y-110138D02*
Y-106201D01*
X326205Y-104059D02*
X328346Y-106201D01*
X324803Y-113681D02*
X328346Y-110138D01*
X327334Y-93710D02*
X327362Y-93681D01*
X324484Y-99110D02*
X327334Y-96261D01*
Y-93710D01*
X328272Y-100272D02*
Y-99819D01*
X327362Y-101181D02*
X328272Y-100272D01*
Y-99819D02*
X333538Y-94553D01*
X326694Y-117140D02*
Y-115571D01*
X324213Y-113681D02*
X324803D01*
X324961Y-118873D02*
X326694Y-117140D01*
X324803Y-113681D02*
X326694Y-115571D01*
X324961Y-122343D02*
Y-118873D01*
X330315Y-109527D02*
X331122Y-110335D01*
X332773D01*
X333465Y-113681D02*
Y-111027D01*
X332874Y-113681D02*
X333465D01*
X332773Y-110335D02*
X333465Y-111027D01*
X330617Y-115938D02*
X332874Y-113681D01*
X330315Y-109527D02*
Y-104134D01*
X327362Y-101181D02*
X330315Y-104134D01*
X329674Y-115938D02*
X330617D01*
X328839Y-117751D02*
X329961Y-118873D01*
Y-122343D02*
Y-118873D01*
X328839Y-116773D02*
X329674Y-115938D01*
X328839Y-117751D02*
Y-116773D01*
X338648Y-94553D02*
X344980Y-100886D01*
Y-106693D02*
Y-100886D01*
X332722Y-92585D02*
X344652D01*
X344980Y-92913D01*
X333538Y-94553D02*
X338648D01*
X331626Y-93681D02*
X332722Y-92585D01*
X327362Y-93681D02*
X331626D01*
X257067Y-46279D02*
X257185Y-46161D01*
X252756Y-48819D02*
X255296Y-46279D01*
X257067D01*
X264665Y-57382D02*
X264764Y-57480D01*
Y-62500D02*
Y-57480D01*
X309449Y-17913D02*
X310039D01*
X304232Y-18504D02*
X308858D01*
X309449Y-17913D01*
X237992Y-29724D02*
X238779Y-30512D01*
Y-48717D02*
Y-30512D01*
Y-48717D02*
X239471Y-49409D01*
X244094D01*
X164665Y-31890D02*
X167913D01*
X168012Y-31791D01*
X149409Y-52854D02*
X155807Y-59252D01*
X160630D01*
X220177Y-32776D02*
X220374Y-32579D01*
X214469Y-32776D02*
X220177D01*
X214469Y-33202D02*
X215158Y-33891D01*
Y-42126D02*
Y-33891D01*
X214469Y-33202D02*
Y-32776D01*
X210236Y-32972D02*
X213189Y-35925D01*
X210187Y-32923D02*
X210236Y-32972D01*
X213189Y-42126D02*
Y-35925D01*
X185138Y-31791D02*
X185187Y-31841D01*
Y-35187D02*
Y-31841D01*
Y-35187D02*
X185236Y-35236D01*
X309055Y-147236D02*
Y-143177D01*
X308366Y-147925D02*
X309055Y-147236D01*
X307382Y-149902D02*
X308366Y-148917D01*
Y-147925D01*
X312303Y-148917D02*
X313287Y-149902D01*
X312303Y-148917D02*
Y-147925D01*
X311614Y-147236D02*
X312303Y-147925D01*
X311614Y-147236D02*
Y-143177D01*
X203740Y-202638D02*
X204376D01*
X204921Y-202092D01*
Y-199213D01*
X138524Y-195562D02*
Y-183322D01*
X139563Y-182283D01*
Y-172248D01*
X139567Y-172244D01*
X188779Y-195965D02*
X188779Y-195965D01*
X191732D01*
X194882D01*
X93504Y-136142D02*
X93819Y-135827D01*
X96260D01*
Y-129724D01*
X96850Y-129134D01*
X93504Y-136142D02*
X106378D01*
X108858Y-133661D01*
Y-129134D01*
X108858Y-129134D02*
X108858Y-129134D01*
X114764Y-129134D02*
Y-126378D01*
X113583Y-125197D02*
X114764Y-126378D01*
X102756Y-125197D02*
X113583D01*
X102756Y-129134D02*
Y-125197D01*
X93504Y-141142D02*
X99409D01*
X99410Y-141142D01*
X108858Y-152559D02*
Y-148031D01*
X106102Y-155315D02*
X108858Y-152559D01*
X93779Y-155315D02*
X106102D01*
X93504Y-155039D02*
X93779Y-155315D01*
X93504Y-155039D02*
X96850D01*
X102756Y-148228D02*
Y-144095D01*
X110827D01*
X114764Y-148031D01*
X93504Y-216614D02*
X98347D01*
X93504Y-211614D02*
X95669D01*
X96850Y-210433D01*
Y-208465D02*
X105315D01*
X108858Y-204921D01*
X96850Y-210433D02*
Y-208465D01*
Y-204921D01*
X111024Y-201181D02*
X114764Y-204921D01*
X102559Y-201181D02*
X111024D01*
X102559Y-204724D02*
Y-201181D01*
Y-204724D02*
X102756Y-204921D01*
X93504Y-198228D02*
X99606D01*
X110630Y-182480D02*
X114370Y-186221D01*
X102362Y-182480D02*
X110630D01*
X102362Y-186221D02*
Y-182480D01*
X93504Y-179213D02*
X99331D01*
X99410Y-179134D01*
X111221Y-163976D02*
X114764Y-167520D01*
X102756Y-163976D02*
X111221D01*
X102756Y-167323D02*
Y-163976D01*
X93504Y-160039D02*
X99409D01*
X99410Y-160039D01*
X73819Y-30236D02*
X80827D01*
X81299Y-30709D01*
X73819Y-20236D02*
X75157Y-18898D01*
X81299D01*
X82618Y-24803D02*
X89862Y-32047D01*
X81299Y-24803D02*
X82618D01*
X73819Y-35236D02*
X77953Y-39370D01*
X81299Y-36614D02*
X85295D01*
X89862Y-32047D01*
Y-22047D02*
X94685Y-26870D01*
X73917Y-43878D02*
X77185D01*
X78543Y-42520D01*
X81299D01*
Y-48425D02*
X84045D01*
X89862Y-54242D01*
X81299Y-60236D02*
X83868D01*
X89862Y-54242D01*
X29528Y-180118D02*
X37205Y-187795D01*
X42421Y-172736D02*
X45669D01*
X29528Y-125000D02*
X29921D01*
X43307Y-138386D01*
X38189Y-184646D02*
X43455Y-189911D01*
X45669D01*
X96850Y-174213D02*
X106299D01*
X108858Y-171653D02*
Y-167520D01*
X106299Y-174213D02*
X108858Y-171653D01*
X102362Y-186221D02*
X102362Y-186221D01*
X96653Y-193228D02*
X105984D01*
X96457Y-193032D02*
X96653Y-193228D01*
X96457Y-193032D02*
Y-186221D01*
X108268Y-186417D02*
X108465Y-186221D01*
X108268Y-190945D02*
Y-186417D01*
X105984Y-193228D02*
X108268Y-190945D01*
X93504Y-174213D02*
X96850D01*
X98347Y-216614D02*
X100787Y-214173D01*
Y-211417D01*
X43307Y-138386D02*
X45669D01*
D25*
X89862Y-76437D02*
D03*
X114468D02*
D03*
X89862Y-66437D02*
D03*
X114468D02*
D03*
X89862Y-98632D02*
D03*
X114468D02*
D03*
X89862Y-88632D02*
D03*
X114468D02*
D03*
Y-110827D02*
D03*
X89862D02*
D03*
X114468Y-120827D02*
D03*
X89862D02*
D03*
X114468Y-44242D02*
D03*
X89862D02*
D03*
X114468Y-54242D02*
D03*
X89862D02*
D03*
X114468Y-22047D02*
D03*
X89862D02*
D03*
X114468Y-32047D02*
D03*
X89862D02*
D03*
D26*
X84153Y-144095D02*
D03*
Y-136614D02*
D03*
Y-162598D02*
D03*
Y-155118D02*
D03*
Y-180217D02*
D03*
Y-172736D02*
D03*
Y-191240D02*
D03*
Y-198721D02*
D03*
X84055Y-209547D02*
D03*
Y-217028D02*
D03*
D27*
X81299Y-77953D02*
D03*
Y-83858D02*
D03*
X247342Y-188583D02*
D03*
Y-182677D02*
D03*
X161024Y-132972D02*
D03*
Y-138878D02*
D03*
X333465Y-107776D02*
D03*
Y-113681D02*
D03*
X301870Y-66929D02*
D03*
Y-72835D02*
D03*
X264665Y-51476D02*
D03*
Y-57382D02*
D03*
X310039Y-23819D02*
D03*
Y-17913D02*
D03*
X264961Y-24409D02*
D03*
Y-18504D02*
D03*
X307776Y-61417D02*
D03*
Y-67323D02*
D03*
X313779D02*
D03*
Y-61417D02*
D03*
X315945Y-50689D02*
D03*
Y-44783D02*
D03*
X324213Y-107776D02*
D03*
Y-113681D02*
D03*
X81299Y-24803D02*
D03*
Y-18898D02*
D03*
Y-36614D02*
D03*
Y-30709D02*
D03*
Y-48425D02*
D03*
Y-42520D02*
D03*
Y-60236D02*
D03*
Y-54331D02*
D03*
X76181Y-214961D02*
D03*
Y-209055D02*
D03*
Y-197736D02*
D03*
Y-191831D02*
D03*
X121063Y-93209D02*
D03*
Y-99114D02*
D03*
Y-114764D02*
D03*
Y-120669D02*
D03*
X127362Y-135827D02*
D03*
Y-141732D02*
D03*
X81299Y-72047D02*
D03*
Y-66142D02*
D03*
Y-95669D02*
D03*
Y-89764D02*
D03*
Y-107480D02*
D03*
Y-101575D02*
D03*
Y-119291D02*
D03*
Y-113386D02*
D03*
Y-131102D02*
D03*
Y-125197D02*
D03*
X76181Y-146457D02*
D03*
Y-140551D02*
D03*
Y-163287D02*
D03*
Y-157382D02*
D03*
Y-180512D02*
D03*
Y-174606D02*
D03*
X127362Y-173721D02*
D03*
Y-179626D02*
D03*
Y-192667D02*
D03*
Y-198573D02*
D03*
Y-217520D02*
D03*
Y-211614D02*
D03*
Y-160728D02*
D03*
Y-154823D02*
D03*
X121063Y-82284D02*
D03*
Y-76378D02*
D03*
X121752Y-43406D02*
D03*
Y-49311D02*
D03*
X121653Y-38386D02*
D03*
Y-32480D02*
D03*
D28*
X145768Y-121653D02*
D03*
X151673D02*
D03*
X275590Y-156398D02*
D03*
X281496D02*
D03*
X275590Y-150492D02*
D03*
X281496D02*
D03*
X260531Y-150000D02*
D03*
X254626D02*
D03*
X261024Y-160433D02*
D03*
X255118D02*
D03*
X262205Y-171850D02*
D03*
X256299D02*
D03*
X264469Y-180118D02*
D03*
X258563D02*
D03*
X264665Y-186024D02*
D03*
X270571D02*
D03*
X215748Y-139961D02*
D03*
X221654D02*
D03*
X215748Y-145866D02*
D03*
X221654D02*
D03*
X215748Y-151772D02*
D03*
X221654D02*
D03*
X215748Y-157677D02*
D03*
X221654D02*
D03*
X215748Y-163583D02*
D03*
X221654D02*
D03*
X278642Y-67520D02*
D03*
X284547D02*
D03*
X273721D02*
D03*
X267815D02*
D03*
X335433Y-36614D02*
D03*
X341339D02*
D03*
X352264Y-36811D02*
D03*
X358169D02*
D03*
X287205Y-18504D02*
D03*
X293110D02*
D03*
X318996Y-66732D02*
D03*
X324902D02*
D03*
X329823D02*
D03*
X335728D02*
D03*
X188779Y-195965D02*
D03*
X182874D02*
D03*
X145473Y-172244D02*
D03*
X139567D02*
D03*
X173917Y-31791D02*
D03*
X168012D02*
D03*
X262992Y-80709D02*
D03*
X268898D02*
D03*
Y-86910D02*
D03*
X262992D02*
D03*
X114370Y-186221D02*
D03*
X108465D02*
D03*
X126279Y-104823D02*
D03*
X120374D02*
D03*
X114764Y-129134D02*
D03*
X108858D02*
D03*
X114764Y-204921D02*
D03*
X108858D02*
D03*
X188779Y-189862D02*
D03*
X182874D02*
D03*
X114764Y-167520D02*
D03*
X108858D02*
D03*
X114764Y-148031D02*
D03*
X108858D02*
D03*
D29*
X149114Y-104823D02*
D03*
X143209D02*
D03*
X223917Y-173721D02*
D03*
X218012D02*
D03*
X210138D02*
D03*
X204232D02*
D03*
X290158Y-67520D02*
D03*
X296063D02*
D03*
X176378Y-134055D02*
D03*
X170472D02*
D03*
X307382Y-149902D02*
D03*
X313287D02*
D03*
X276083Y-18504D02*
D03*
X281988D02*
D03*
X304232D02*
D03*
X298327D02*
D03*
X237992Y-29724D02*
D03*
X243898D02*
D03*
X131398Y-66732D02*
D03*
X137303D02*
D03*
X131496Y-72736D02*
D03*
X137402D02*
D03*
X160039Y-38287D02*
D03*
X154134D02*
D03*
X234842Y-134055D02*
D03*
X143110Y-88829D02*
D03*
X149016D02*
D03*
X102756Y-204921D02*
D03*
X96850D02*
D03*
X142913Y-80905D02*
D03*
X148819D02*
D03*
X143110Y-96949D02*
D03*
X149016D02*
D03*
X131496Y-104823D02*
D03*
X137402D02*
D03*
X102756Y-129134D02*
D03*
X96850D02*
D03*
X139961Y-166043D02*
D03*
X145866D02*
D03*
X195177Y-134055D02*
D03*
X201083D02*
D03*
X211909D02*
D03*
X217815D02*
D03*
X228937D02*
D03*
X204331Y-32972D02*
D03*
X210236D02*
D03*
X198425D02*
D03*
X192520D02*
D03*
X185138Y-31791D02*
D03*
X179232D02*
D03*
X194882Y-195965D02*
D03*
X200787D02*
D03*
X102362Y-186221D02*
D03*
X96457D02*
D03*
X102756Y-167323D02*
D03*
X96850D02*
D03*
X102756Y-148228D02*
D03*
X96850D02*
D03*
D30*
X296752Y-188976D02*
D03*
Y-183071D02*
D03*
X267520Y-140847D02*
D03*
Y-146752D02*
D03*
X253248Y-89567D02*
D03*
Y-83661D02*
D03*
X258366Y-24016D02*
D03*
Y-18110D02*
D03*
X248327Y-42618D02*
D03*
Y-36713D02*
D03*
X253248Y-77756D02*
D03*
Y-71850D02*
D03*
X311024Y-113287D02*
D03*
Y-107382D02*
D03*
X305020Y-113287D02*
D03*
Y-107382D02*
D03*
X298917Y-113287D02*
D03*
Y-107382D02*
D03*
X292717Y-113287D02*
D03*
Y-107382D02*
D03*
X258760Y-57382D02*
D03*
Y-51476D02*
D03*
X252756Y-48819D02*
D03*
Y-54724D02*
D03*
X149409Y-52854D02*
D03*
Y-46949D02*
D03*
X318209Y-107382D02*
D03*
Y-113287D02*
D03*
X183465Y-177461D02*
D03*
Y-183366D02*
D03*
Y-170669D02*
D03*
Y-164764D02*
D03*
D31*
X254232Y-134843D02*
D03*
X260728Y-143110D02*
D03*
Y-134843D02*
D03*
X254232Y-143110D02*
D03*
D32*
X241613Y-136790D02*
D03*
X245789Y-140966D02*
D03*
X241556Y-145198D02*
D03*
X237381Y-141022D02*
D03*
X237324Y-149430D02*
D03*
X233148Y-145255D02*
D03*
D33*
X237069Y-173434D02*
D03*
X235678Y-172042D02*
D03*
X234285Y-170650D02*
D03*
X232894Y-169258D02*
D03*
X231502Y-167866D02*
D03*
X230110Y-166474D02*
D03*
X240883Y-155700D02*
D03*
X242275Y-157092D02*
D03*
X243667Y-158484D02*
D03*
X245059Y-159876D02*
D03*
X246451Y-161268D02*
D03*
X247843Y-162660D02*
D03*
D34*
Y-166474D02*
D03*
X246451Y-167866D02*
D03*
X245059Y-169258D02*
D03*
X243667Y-170650D02*
D03*
X242275Y-172042D02*
D03*
X240883Y-173434D02*
D03*
X230110Y-162660D02*
D03*
X231502Y-161268D02*
D03*
X232894Y-159876D02*
D03*
X234285Y-158484D02*
D03*
X235678Y-157092D02*
D03*
X237069Y-155700D02*
D03*
D35*
X262324Y-209428D02*
D03*
X258148Y-213604D02*
D03*
X266556Y-213660D02*
D03*
X262381Y-217836D02*
D03*
D36*
X253916Y-209371D02*
D03*
X258092Y-205196D02*
D03*
D37*
X168209Y-179724D02*
D03*
Y-204331D02*
D03*
D38*
X151791Y-158110D02*
D03*
X136791Y-127520D02*
D03*
X141791Y-158110D02*
D03*
X146791Y-127520D02*
D03*
X136791Y-158110D02*
D03*
X141791Y-127520D02*
D03*
X146791Y-158110D02*
D03*
X151791Y-127520D02*
D03*
D39*
X208228Y-186516D02*
D03*
X232716D02*
D03*
D40*
X315945Y-22421D02*
D03*
X319685D02*
D03*
X323425D02*
D03*
Y-32303D02*
D03*
X319685D02*
D03*
X315945D02*
D03*
D41*
X140453Y-45866D02*
D03*
X134547D02*
D03*
D42*
X284941Y-27362D02*
D03*
X277067Y-59055D02*
D03*
X279035D02*
D03*
X281004D02*
D03*
X282972D02*
D03*
X284941D02*
D03*
X286910D02*
D03*
X288878D02*
D03*
X290846D02*
D03*
X292815D02*
D03*
X294783D02*
D03*
X296752D02*
D03*
X298721D02*
D03*
Y-27362D02*
D03*
X296752D02*
D03*
X294783D02*
D03*
X292815D02*
D03*
X290846D02*
D03*
X288878D02*
D03*
X286910D02*
D03*
X282972D02*
D03*
X281004D02*
D03*
X279035D02*
D03*
X277067D02*
D03*
D43*
X272047Y-34350D02*
D03*
Y-44193D02*
D03*
Y-42224D02*
D03*
X303740Y-40256D02*
D03*
Y-38287D02*
D03*
X272047Y-32382D02*
D03*
Y-36319D02*
D03*
Y-38287D02*
D03*
Y-40256D02*
D03*
Y-46161D02*
D03*
Y-48130D02*
D03*
Y-50098D02*
D03*
Y-52067D02*
D03*
Y-54035D02*
D03*
X303740D02*
D03*
Y-52067D02*
D03*
Y-50098D02*
D03*
Y-48130D02*
D03*
Y-46161D02*
D03*
Y-44193D02*
D03*
Y-42224D02*
D03*
Y-36319D02*
D03*
Y-34350D02*
D03*
Y-32382D02*
D03*
D44*
X293701Y-143177D02*
D03*
X296260D02*
D03*
X298819D02*
D03*
X301378D02*
D03*
X311614D02*
D03*
X309055D02*
D03*
X306496D02*
D03*
X303937D02*
D03*
X293701Y-120571D02*
D03*
X296260D02*
D03*
X298819D02*
D03*
X301378D02*
D03*
X303937D02*
D03*
X306496D02*
D03*
X309055D02*
D03*
X311614D02*
D03*
D45*
X335236Y-47638D02*
D03*
X323425D02*
D03*
X335236Y-57677D02*
D03*
X323425D02*
D03*
X174114Y-215945D02*
D03*
X162303D02*
D03*
D46*
X258366Y-32185D02*
D03*
Y-39666D02*
D03*
X132973Y-87303D02*
D03*
Y-94783D02*
D03*
D47*
X222638Y-200689D02*
D03*
Y-215846D02*
D03*
D48*
X160630Y-116339D02*
D03*
Y-82874D02*
D03*
Y-84842D02*
D03*
Y-86811D02*
D03*
Y-88779D02*
D03*
Y-90748D02*
D03*
Y-49409D02*
D03*
Y-51378D02*
D03*
Y-53346D02*
D03*
Y-55315D02*
D03*
Y-57284D02*
D03*
Y-61221D02*
D03*
Y-63189D02*
D03*
Y-65158D02*
D03*
Y-67126D02*
D03*
Y-69095D02*
D03*
Y-71063D02*
D03*
Y-73032D02*
D03*
Y-75000D02*
D03*
Y-76968D02*
D03*
Y-78937D02*
D03*
Y-80905D02*
D03*
Y-92716D02*
D03*
Y-94685D02*
D03*
Y-96653D02*
D03*
Y-98622D02*
D03*
Y-100591D02*
D03*
Y-102559D02*
D03*
Y-104527D02*
D03*
Y-106496D02*
D03*
Y-108465D02*
D03*
Y-110433D02*
D03*
Y-112402D02*
D03*
Y-114370D02*
D03*
Y-118307D02*
D03*
X244094D02*
D03*
Y-112402D02*
D03*
Y-106496D02*
D03*
Y-104527D02*
D03*
Y-102559D02*
D03*
Y-100591D02*
D03*
Y-98622D02*
D03*
Y-96653D02*
D03*
Y-94685D02*
D03*
Y-92716D02*
D03*
Y-90748D02*
D03*
Y-88779D02*
D03*
Y-86811D02*
D03*
Y-84842D02*
D03*
Y-82874D02*
D03*
Y-80905D02*
D03*
Y-76968D02*
D03*
Y-75000D02*
D03*
Y-69095D02*
D03*
Y-67126D02*
D03*
Y-65158D02*
D03*
Y-59252D02*
D03*
Y-57284D02*
D03*
Y-55315D02*
D03*
Y-51378D02*
D03*
Y-49409D02*
D03*
Y-61221D02*
D03*
Y-63189D02*
D03*
Y-71063D02*
D03*
Y-73032D02*
D03*
Y-78937D02*
D03*
Y-108465D02*
D03*
Y-110433D02*
D03*
Y-114370D02*
D03*
Y-116339D02*
D03*
Y-53346D02*
D03*
X160630Y-59252D02*
D03*
D49*
X183661Y-42126D02*
D03*
X167913Y-125591D02*
D03*
X169882D02*
D03*
X171850D02*
D03*
X173819D02*
D03*
X175787D02*
D03*
X177756D02*
D03*
X179724D02*
D03*
X181693D02*
D03*
X183661D02*
D03*
X185630D02*
D03*
X187598D02*
D03*
X189567D02*
D03*
X191535D02*
D03*
X193504D02*
D03*
X195473D02*
D03*
X197441D02*
D03*
X199409D02*
D03*
X201378D02*
D03*
X203346D02*
D03*
X205315D02*
D03*
X207283D02*
D03*
X209252D02*
D03*
X211221D02*
D03*
X213189D02*
D03*
X215158D02*
D03*
X217126D02*
D03*
X219094D02*
D03*
X221063D02*
D03*
X223031D02*
D03*
X225000D02*
D03*
X226969D02*
D03*
X228937D02*
D03*
X230906D02*
D03*
X232874D02*
D03*
X236811D02*
D03*
Y-42126D02*
D03*
X234842D02*
D03*
X232874D02*
D03*
X230906D02*
D03*
X228937D02*
D03*
X226969D02*
D03*
X225000D02*
D03*
X223031D02*
D03*
X221063D02*
D03*
X219094D02*
D03*
X217126D02*
D03*
X215158D02*
D03*
X213189D02*
D03*
X211221D02*
D03*
X209252D02*
D03*
X207283D02*
D03*
X205315D02*
D03*
X203346D02*
D03*
X201378D02*
D03*
X199409D02*
D03*
X197441D02*
D03*
X195473D02*
D03*
X193504D02*
D03*
X191535D02*
D03*
X189567D02*
D03*
X187598D02*
D03*
X185630D02*
D03*
X181693D02*
D03*
X179724D02*
D03*
X177756D02*
D03*
X175787D02*
D03*
X173819D02*
D03*
X171850D02*
D03*
X169882D02*
D03*
X167913D02*
D03*
X234842Y-125591D02*
D03*
D50*
X270276Y-94291D02*
D03*
Y-128543D02*
D03*
D51*
X315158Y-97362D02*
D03*
Y-92362D02*
D03*
Y-87362D02*
D03*
Y-82362D02*
D03*
X295866Y-97362D02*
D03*
Y-92362D02*
D03*
Y-87362D02*
D03*
Y-82362D02*
D03*
D52*
X220374Y-32579D02*
D03*
X231004D02*
D03*
D53*
X184843Y-212638D02*
D03*
Y-217638D02*
D03*
X203740D02*
D03*
Y-212638D02*
D03*
Y-207638D02*
D03*
Y-202638D02*
D03*
X184843Y-207638D02*
D03*
Y-202638D02*
D03*
D54*
X144685Y-62795D02*
D03*
Y-72638D02*
D03*
D55*
X128140Y-52713D02*
D03*
X124390Y-61713D02*
D03*
X131890D02*
D03*
X278455Y-78303D02*
D03*
X274705Y-87303D02*
D03*
X282205D02*
D03*
D56*
X242421Y-215650D02*
D03*
Y-202264D02*
D03*
D57*
X139563Y-182283D02*
D03*
X152563D02*
D03*
D58*
X138524Y-195562D02*
D03*
Y-214854D02*
D03*
X143524D02*
D03*
X148524D02*
D03*
X153524D02*
D03*
X143524Y-195562D02*
D03*
X148524D02*
D03*
X153524D02*
D03*
D59*
X319961Y-141240D02*
D03*
X324961D02*
D03*
X329961D02*
D03*
X334961D02*
D03*
X319961Y-122343D02*
D03*
X324961D02*
D03*
X329961D02*
D03*
X334961D02*
D03*
D60*
X336362Y-97431D02*
D03*
X327362Y-93681D02*
D03*
Y-101181D02*
D03*
X336122Y-83563D02*
D03*
X327122Y-79813D02*
D03*
Y-87313D02*
D03*
D61*
X193799Y-183366D02*
D03*
X190059D02*
D03*
X197539D02*
D03*
Y-174705D02*
D03*
X190059D02*
D03*
D62*
X60532Y-32461D02*
D03*
Y-23012D02*
D03*
X73819Y-35236D02*
D03*
Y-30236D02*
D03*
Y-20236D02*
D03*
Y-25236D02*
D03*
X73917Y-48878D02*
D03*
Y-43878D02*
D03*
Y-53878D02*
D03*
Y-58878D02*
D03*
X60630Y-46654D02*
D03*
Y-56102D02*
D03*
Y-79724D02*
D03*
Y-70276D02*
D03*
X73917Y-82500D02*
D03*
Y-77500D02*
D03*
Y-67500D02*
D03*
Y-72500D02*
D03*
Y-96319D02*
D03*
Y-91319D02*
D03*
Y-101319D02*
D03*
Y-106319D02*
D03*
X60630Y-94095D02*
D03*
Y-103543D02*
D03*
X60433Y-127362D02*
D03*
Y-117913D02*
D03*
X73721Y-130138D02*
D03*
Y-125138D02*
D03*
Y-115138D02*
D03*
Y-120138D02*
D03*
D63*
X52362Y-25473D02*
D03*
X52461Y-49114D02*
D03*
Y-72736D02*
D03*
Y-96555D02*
D03*
X52264Y-120374D02*
D03*
D64*
Y-20059D02*
D03*
X52362Y-43701D02*
D03*
Y-67323D02*
D03*
Y-91142D02*
D03*
X52165Y-114961D02*
D03*
D65*
X65453Y-19075D02*
D03*
X65495Y-36336D02*
D03*
X65594Y-59978D02*
D03*
X65551Y-42717D02*
D03*
Y-66339D02*
D03*
X65594Y-83600D02*
D03*
Y-107419D02*
D03*
X65551Y-90158D02*
D03*
X65354Y-113976D02*
D03*
X65397Y-131238D02*
D03*
D66*
X55807Y-19075D02*
D03*
X55895Y-36336D02*
D03*
X55994Y-59978D02*
D03*
X55905Y-42717D02*
D03*
Y-66339D02*
D03*
X55994Y-83600D02*
D03*
Y-107419D02*
D03*
X55905Y-90158D02*
D03*
X55709Y-113976D02*
D03*
X55797Y-131238D02*
D03*
D67*
X52295Y-30036D02*
D03*
X52264Y-35364D02*
D03*
X52362Y-59006D02*
D03*
X52394Y-53678D02*
D03*
Y-77300D02*
D03*
X52362Y-82628D02*
D03*
Y-106447D02*
D03*
X52394Y-101119D02*
D03*
X52197Y-124938D02*
D03*
X52165Y-130266D02*
D03*
D68*
X67669Y-217087D02*
D03*
X45669D02*
D03*
X67669Y-207087D02*
D03*
X45669D02*
D03*
X118504Y-216614D02*
D03*
X93504D02*
D03*
X118504Y-211614D02*
D03*
X93504D02*
D03*
X67669Y-148386D02*
D03*
X45669D02*
D03*
X67669Y-138386D02*
D03*
X45669D02*
D03*
X67669Y-165561D02*
D03*
X45669D02*
D03*
X67669Y-155561D02*
D03*
X45669D02*
D03*
X67669Y-182736D02*
D03*
X45669D02*
D03*
X67669Y-172736D02*
D03*
X45669D02*
D03*
X67669Y-199911D02*
D03*
X45669D02*
D03*
X67669Y-189911D02*
D03*
X45669D02*
D03*
X118504Y-141142D02*
D03*
X93504D02*
D03*
X118504Y-136142D02*
D03*
X93504D02*
D03*
X118504Y-198228D02*
D03*
X93504D02*
D03*
X118504Y-193228D02*
D03*
X93504D02*
D03*
X118504Y-179213D02*
D03*
X93504D02*
D03*
X118504Y-174213D02*
D03*
X93504D02*
D03*
X118504Y-160039D02*
D03*
X93504D02*
D03*
X118504Y-155039D02*
D03*
X93504D02*
D03*
D69*
X161516Y-167815D02*
D03*
X174901D02*
D03*
D124*
X332972Y-24075D02*
D03*
X334744Y-21004D02*
D03*
X336516Y-24075D02*
D03*
X338287Y-21004D02*
D03*
X340059Y-24075D02*
D03*
X341831Y-21004D02*
D03*
X343602Y-24075D02*
D03*
X345374Y-21004D02*
D03*
X347146Y-24075D02*
D03*
X348917Y-21004D02*
D03*
X350689Y-24075D02*
D03*
X352461Y-21004D02*
D03*
X354232Y-24075D02*
D03*
X356004Y-21004D02*
D03*
D125*
X184887Y-131492D02*
G03*
X185820Y-131492I466J466D01*
G01*
X187137Y-131087D02*
G03*
X186225Y-131087I-456J-456D01*
G01*
X187527Y-132389D02*
G03*
X187527Y-131478I-456J456D01*
G01*
X184705Y-135211D02*
G03*
X184705Y-136122I456J-456D01*
G01*
X185096Y-136512D02*
G03*
X186007Y-136512I456J456D01*
G01*
X189679Y-133752D02*
G03*
X188768Y-133752I-456J-456D01*
G01*
X190069Y-135054D02*
G03*
X190069Y-134142I-456J456D01*
G01*
X187500Y-137623D02*
G03*
X187500Y-138534I456J-456D01*
G01*
X187891Y-138925D02*
G03*
X188802Y-138925I456J456D01*
G01*
X191027Y-137632D02*
G03*
X190094Y-137632I-466J-466D01*
G01*
X187049Y-150197D02*
G03*
X187969Y-149276I0J920D01*
G01*
X188890Y-146806D02*
G03*
X187969Y-147727I0J-920D01*
G01*
X189810D02*
G03*
X188890Y-146806I-920J0D01*
G01*
X189810Y-151299D02*
G03*
X190731Y-152219I920J0D01*
G01*
X190731D02*
G03*
X191651Y-151299I0J920D01*
G01*
X192572Y-150197D02*
G03*
X191651Y-151117I0J-920D01*
G01*
X189419Y-142546D02*
G03*
X189419Y-143848I651J-651D01*
G01*
X189581Y-142384D02*
G03*
X189581Y-141083I-651J651D01*
G01*
X189581Y-141083D02*
G03*
X188279Y-141083I-651J-651D01*
G01*
X184032Y-144028D02*
G03*
X185333Y-144028I651J651D01*
G01*
X184032Y-142727D02*
G03*
X184032Y-144028I651J-651D01*
G01*
X185477Y-141281D02*
G03*
X185477Y-139980I-651J651D01*
G01*
X185477Y-139980D02*
G03*
X184175Y-139980I-651J-651D01*
G01*
X181428Y-141425D02*
G03*
X182730Y-141425I651J651D01*
G01*
X181428Y-140123D02*
G03*
X181428Y-141425I651J-651D01*
G01*
X182910Y-138641D02*
G03*
X182910Y-137339I-651J651D01*
G01*
X211710Y-144773D02*
G03*
X210790Y-145693I0J-920D01*
G01*
X209870Y-148710D02*
G03*
X210790Y-147790I0J920D01*
G01*
X208949D02*
G03*
X209870Y-148710I920J0D01*
G01*
X208949Y-145149D02*
G03*
X208029Y-144228I-920J0D01*
G01*
X208029D02*
G03*
X207108Y-145149I0J-920D01*
G01*
X206188Y-148710D02*
G03*
X207108Y-147790I0J920D01*
G01*
X205267D02*
G03*
X206188Y-148710I920J0D01*
G01*
X205267Y-145149D02*
G03*
X204347Y-144228I-920J0D01*
G01*
X204347D02*
G03*
X203426Y-145149I0J-920D01*
G01*
X202506Y-148710D02*
G03*
X203426Y-147790I0J920D01*
G01*
X201586D02*
G03*
X202506Y-148710I920J0D01*
G01*
X201586Y-145149D02*
G03*
X200665Y-144228I-920J0D01*
G01*
X200665D02*
G03*
X199745Y-145149I0J-920D01*
G01*
X198824Y-148710D02*
G03*
X199745Y-147790I0J920D01*
G01*
X197904D02*
G03*
X198824Y-148710I920J0D01*
G01*
X197904Y-145149D02*
G03*
X196983Y-144228I-920J0D01*
G01*
X196983D02*
G03*
X196063Y-145149I0J-920D01*
G01*
X195142Y-148710D02*
G03*
X196063Y-147790I0J920D01*
G01*
X194222D02*
G03*
X195142Y-148710I920J0D01*
G01*
X194222Y-142560D02*
G03*
X193301Y-141639I-920J0D01*
G01*
X193301D02*
G03*
X192381Y-142560I0J-920D01*
G01*
X191461Y-144773D02*
G03*
X192381Y-143852I0J920D01*
G01*
X193843Y-140192D02*
G03*
X194763Y-139272I0J920D01*
G01*
X195684Y-136747D02*
G03*
X194763Y-137668I0J-920D01*
G01*
X196604D02*
G03*
X195684Y-136747I-920J0D01*
G01*
X196604Y-141861D02*
G03*
X197525Y-142781I920J0D01*
G01*
X197525D02*
G03*
X198445Y-141861I0J920D01*
G01*
X199366Y-136747D02*
G03*
X198445Y-137668I0J-920D01*
G01*
X200286D02*
G03*
X199366Y-136747I-920J0D01*
G01*
X200286Y-141861D02*
G03*
X201206Y-142781I920J0D01*
G01*
X201206D02*
G03*
X202127Y-141861I0J920D01*
G01*
X203047Y-136747D02*
G03*
X202127Y-137668I0J-920D01*
G01*
X203968D02*
G03*
X203047Y-136747I-920J0D01*
G01*
X203968Y-141861D02*
G03*
X204888Y-142781I920J0D01*
G01*
X204888D02*
G03*
X205809Y-141861I0J920D01*
G01*
X206729Y-138222D02*
G03*
X205809Y-139143I0J-920D01*
G01*
X207650D02*
G03*
X206729Y-138222I-920J0D01*
G01*
X207650Y-141861D02*
G03*
X208570Y-142781I920J0D01*
G01*
X208570D02*
G03*
X209490Y-141861I0J920D01*
G01*
X210411Y-137736D02*
G03*
X209490Y-138657I0J-920D01*
G01*
X211331D02*
G03*
X210411Y-137736I-920J0D01*
G01*
X211331Y-141916D02*
G03*
X212252Y-142836I920J0D01*
G01*
X212252D02*
G03*
X213172Y-141916I0J920D01*
G01*
X214093Y-140192D02*
G03*
X213172Y-141113I0J-920D01*
G01*
X195846Y-150768D02*
G03*
X197148Y-150768I651J651D01*
G01*
X198519Y-150699D02*
G03*
X197217Y-150699I-651J-651D01*
G01*
X198519Y-152001D02*
G03*
X198519Y-150699I-651J651D01*
G01*
X197751Y-152769D02*
G03*
X197751Y-154070I651J-651D01*
G01*
X197751Y-154070D02*
G03*
X199053Y-154070I651J651D01*
G01*
X203415Y-151010D02*
G03*
X202113Y-151010I-651J-651D01*
G01*
X203415Y-152312D02*
G03*
X203415Y-151010I-651J651D01*
G01*
X201053Y-154673D02*
G03*
X201053Y-155975I651J-651D01*
G01*
X205038Y-158598D02*
G03*
X204117Y-157677I-920J0D01*
G01*
X205038Y-160437D02*
G03*
X205958Y-161357I920J0D01*
G01*
X205958D02*
G03*
X206879Y-160437I0J920D01*
G01*
X207799Y-151040D02*
G03*
X206879Y-151960I0J-920D01*
G01*
X208720D02*
G03*
X207799Y-151040I-920J0D01*
G01*
X208720Y-159892D02*
G03*
X209640Y-160812I920J0D01*
G01*
X209640D02*
G03*
X210561Y-159892I0J920D01*
G01*
X211481Y-157677D02*
G03*
X210561Y-158598I0J-920D01*
G01*
X160630Y-118307D02*
X164032D01*
X164469Y-137500D02*
Y-118743D01*
X164032Y-118307D02*
X164469Y-118743D01*
X164720Y-100690D02*
X166206Y-102176D01*
Y-135708D02*
Y-102176D01*
X160630Y-100591D02*
X160730Y-100690D01*
X164720D01*
X166206Y-135708D02*
X168890Y-138393D01*
X166381Y-143349D02*
Y-143265D01*
Y-143349D02*
X178248Y-155217D01*
X180709Y-153740D02*
X194587D01*
X164469Y-137500D02*
X180709Y-153740D01*
X178248Y-155217D02*
X193209D01*
X206201Y-168209D01*
X223228D01*
X194587Y-153740D02*
X207480Y-166634D01*
X223228Y-168209D02*
X224128Y-167309D01*
X229275D01*
X207480Y-166634D02*
X220079D01*
X229275Y-167309D02*
X230110Y-166474D01*
X220079Y-166634D02*
X220802Y-165910D01*
Y-164434D01*
X161024Y-141437D02*
X176279Y-156693D01*
X161024Y-141437D02*
Y-138878D01*
X176279Y-156693D02*
X191732D01*
X204772Y-169733D02*
X229634D01*
X191732Y-156693D02*
X204772Y-169733D01*
X183661Y-130266D02*
Y-128017D01*
Y-130266D02*
X184887Y-131492D01*
X184887Y-131492D02*
X184887Y-131492D01*
X185820D02*
X186225Y-131087D01*
X186225D02*
X186225D01*
X187137Y-131087D02*
X187137Y-131087D01*
X187527Y-131478D01*
X187527Y-131478D02*
X187527Y-131478D01*
X184705Y-135211D02*
X187527Y-132389D01*
X184705Y-135211D02*
X184705D01*
Y-136122D02*
X185096Y-136512D01*
X186007D02*
X188768Y-133752D01*
X188768D02*
X188768D01*
X189679Y-133752D02*
X189679Y-133752D01*
X190069Y-134142D01*
X190069Y-134142D02*
X190069Y-134142D01*
X187500Y-137623D02*
X190069Y-135054D01*
X187500Y-137623D02*
X187500D01*
Y-138534D02*
X187891Y-138925D01*
X188802D02*
X190094Y-137632D01*
X191027D02*
X191027Y-137632D01*
X191261Y-137865D01*
X191261D02*
X191327Y-137932D01*
X185333Y-150197D02*
X187049D01*
X187969Y-149276D02*
Y-147727D01*
X188890Y-146806D02*
X188890D01*
X189810Y-151299D02*
Y-147727D01*
X190731Y-152219D02*
X190731D01*
X191651Y-151299D02*
Y-151117D01*
X192572Y-150197D02*
X192902D01*
X179711Y-139794D02*
X179724Y-139780D01*
Y-125591D01*
Y-144588D02*
Y-141768D01*
X179711Y-141755D02*
X179724Y-141768D01*
X179711Y-141755D02*
Y-139794D01*
X179724Y-144588D02*
X185333Y-150197D01*
X189419Y-143848D02*
X190344Y-144773D01*
X189419Y-142546D02*
X189581Y-142384D01*
X189581Y-141083D02*
X189581Y-141083D01*
X189581Y-141083D02*
X189581Y-141083D01*
X189581D02*
X189581Y-141083D01*
X188279D02*
X188279D01*
X185333Y-144028D02*
X188279Y-141083D01*
X184032Y-142727D02*
X184032D01*
X185477Y-141281D01*
X185477Y-139980D02*
X185477Y-139980D01*
X185477Y-139980D02*
X185477Y-139980D01*
X185477D02*
X185477Y-139980D01*
X184175D02*
X184175D01*
X182730Y-141425D02*
X184175Y-139980D01*
X181428Y-141425D02*
X181428Y-141425D01*
X181428Y-140123D02*
X181428D01*
X182910Y-138641D01*
X182910Y-137339D02*
X182910Y-137339D01*
X181793Y-136222D02*
X182910Y-137339D01*
X181793Y-136222D02*
Y-134086D01*
Y-125690D01*
X183661Y-128017D02*
Y-125591D01*
X214897Y-144773D02*
X215218Y-145095D01*
X211710Y-144773D02*
X214897D01*
X210790Y-147790D02*
Y-145693D01*
X209870Y-148710D02*
X209870D01*
X208949Y-147790D02*
Y-145149D01*
X208029Y-144228D02*
X208029D01*
X207108Y-147790D02*
Y-145149D01*
X206188Y-148710D02*
X206188D01*
X205267Y-147790D02*
Y-145149D01*
X204347Y-144228D02*
X204347D01*
X203426Y-147790D02*
Y-145149D01*
X202506Y-148710D02*
X202506D01*
X201586Y-147790D02*
Y-145149D01*
X200665Y-144228D02*
X200665D01*
X199745Y-147790D02*
Y-145149D01*
X198824Y-148710D02*
X198824D01*
X197904Y-147790D02*
Y-145149D01*
X196983Y-144228D02*
X196983D01*
X196063Y-147790D02*
Y-145149D01*
X195142Y-148710D02*
X195142D01*
X194222Y-147790D02*
Y-142560D01*
X193301Y-141639D02*
X193301D01*
X192381Y-143852D02*
Y-142560D01*
X191131Y-144773D02*
X191461D01*
X190344D02*
X191131D01*
X214423Y-140192D02*
X215517D01*
X191327Y-137932D02*
X193587Y-140192D01*
X193843D01*
X194763Y-139272D02*
Y-137668D01*
X195684Y-136747D02*
X195684D01*
X196604Y-141861D02*
Y-137668D01*
X197525Y-142781D02*
X197525D01*
X198445Y-141861D02*
Y-137668D01*
X199366Y-136747D02*
X199366D01*
X200286Y-141861D02*
Y-137668D01*
X201206Y-142781D02*
X201206D01*
X202127Y-141861D02*
Y-137668D01*
X203047Y-136747D02*
X203047D01*
X203968Y-141861D02*
Y-137668D01*
X204888Y-142781D02*
X204888D01*
X205809Y-141861D02*
Y-139143D01*
X206729Y-138222D02*
X206729D01*
X207650Y-141861D02*
Y-139143D01*
X208570Y-142781D02*
X208570D01*
X209490Y-141861D02*
Y-138657D01*
X210411Y-137736D02*
X210411D01*
X211331Y-141916D02*
Y-138657D01*
X212252Y-142836D02*
X212252D01*
X213172Y-141916D02*
Y-141113D01*
X214093Y-140192D02*
X214423D01*
X215517D02*
X215748Y-139961D01*
X215218Y-145095D02*
X215748Y-145624D01*
Y-145866D02*
Y-145624D01*
X211811Y-157677D02*
X215748D01*
X229634Y-169733D02*
X231502Y-167866D01*
X192902Y-150197D02*
X195276D01*
X195846Y-150768D01*
X197148D02*
X197217Y-150699D01*
X197217D02*
X197217D01*
X197751Y-152769D02*
X198519Y-152001D01*
X197751Y-152769D02*
X197751D01*
Y-154070D02*
X197751Y-154070D01*
X199053D02*
X202113Y-151010D01*
X202113D02*
X202113D01*
X201053Y-154673D02*
X203415Y-152312D01*
X201053Y-155975D02*
X202355Y-157276D01*
X202588Y-157510D01*
X202628Y-157549D02*
X202756Y-157677D01*
X204117D01*
X205038Y-160437D02*
Y-158598D01*
X205958Y-161357D02*
X205958D01*
X206879Y-160437D02*
Y-151960D01*
X207799Y-151040D02*
X207799D01*
X208720Y-159892D02*
Y-151960D01*
X209640Y-160812D02*
X209640D01*
X210561Y-159892D02*
Y-158598D01*
X211481Y-157677D02*
X211811D01*
X202588Y-157510D02*
X202628Y-157549D01*
X181693Y-125591D02*
X181793Y-125690D01*
X220802Y-164434D02*
X221654Y-163583D01*
X222505Y-162141D02*
X223981D01*
X221654Y-162992D02*
X222505Y-162141D01*
X221654Y-163583D02*
Y-162992D01*
X229899Y-162660D02*
X230110D01*
X228509Y-161270D02*
X229899Y-162660D01*
X224852Y-161270D02*
X228509D01*
X223981Y-162141D02*
X224852Y-161270D01*
X244094Y-118307D02*
X244194Y-118407D01*
X248131D02*
X249902Y-120177D01*
X244194Y-118407D02*
X248131D01*
X230912Y-176958D02*
X231128D01*
X233415Y-174670D02*
X233529D01*
X234680Y-173519D02*
Y-173296D01*
X235678Y-172299D02*
Y-172042D01*
X234680Y-173296D02*
X235678Y-172299D01*
X233529Y-174670D02*
X234680Y-173519D01*
X231128Y-176958D02*
X233415Y-174670D01*
X228937Y-174016D02*
X229314Y-173639D01*
X234449Y-177165D02*
X234850Y-176764D01*
Y-175653D02*
X237069Y-173434D01*
X234850Y-176764D02*
Y-175653D01*
X229314Y-173639D02*
X231296D01*
X234285Y-170650D01*
X244094Y-116339D02*
X244170Y-116263D01*
X250371D01*
X250492Y-116142D01*
X232817Y-125534D02*
Y-119167D01*
X232760Y-119110D02*
X232817Y-119167D01*
Y-125534D02*
X232874Y-125591D01*
D126*
X238976Y-164567D02*
D03*
D127*
X144291Y-142815D02*
D03*
D128*
X231867Y-32579D02*
X233304Y-31142D01*
Y-27984D02*
X233455Y-27834D01*
X233465Y-27756D02*
X236024D01*
X231004Y-32579D02*
X231867D01*
X233304Y-31142D02*
Y-27984D01*
X236024Y-27756D02*
X237992Y-29724D01*
X246555Y-34941D02*
Y-32972D01*
Y-34941D02*
X248327Y-36713D01*
X243898Y-29724D02*
X244488Y-30315D01*
Y-30906D02*
Y-30315D01*
Y-30906D02*
X246555Y-32972D01*
X237381Y-141022D02*
Y-140626D01*
X235255Y-138500D02*
X237381Y-140626D01*
X235255Y-138500D02*
Y-138287D01*
X241781Y-136790D02*
X244713Y-133858D01*
X244882D01*
X241613Y-136790D02*
X241781D01*
X302898Y-190295D02*
X308050D01*
X308642Y-190887D01*
X301579Y-188976D02*
X302898Y-190295D01*
X296752Y-188976D02*
X301579D01*
X269980Y-128248D02*
X270276Y-128543D01*
X269980Y-128248D02*
Y-123819D01*
X176427Y-137155D02*
Y-134104D01*
X176378Y-134055D02*
X176427Y-134104D01*
Y-137155D02*
X176476Y-137205D01*
X209842Y-134646D02*
X211319D01*
X208840Y-135647D02*
X209842Y-134646D01*
X208627Y-135647D02*
X208840D01*
X211319Y-134646D02*
X211860Y-134104D01*
X193155Y-132033D02*
X195177Y-134055D01*
X191339Y-131883D02*
X191489Y-132033D01*
X193155D01*
X313287Y-149902D02*
X315945Y-147244D01*
Y-140256D01*
X333465Y-107776D02*
X333514Y-107726D01*
Y-104774D01*
X333563Y-104724D01*
X315945Y-120374D02*
Y-120161D01*
X318209Y-117897D01*
Y-117815D01*
X208228Y-186516D02*
Y-186417D01*
X211772Y-182874D01*
X215945D01*
X319193Y-36303D02*
X319508Y-35988D01*
Y-32480D02*
X319685Y-32303D01*
X319508Y-35988D02*
Y-32480D01*
X319193Y-36516D02*
Y-36303D01*
X319685Y-22421D02*
Y-17913D01*
X210187Y-173671D02*
X214222D01*
X210138Y-173721D02*
X210187Y-173671D01*
X214222D02*
X214272Y-173622D01*
X258682Y-205786D02*
X260479Y-203989D01*
X257524Y-204628D02*
X259245Y-202907D01*
X299410Y-151575D02*
X299623D01*
X301296Y-149902D02*
X307382D01*
X299623Y-151575D02*
X301296Y-149902D01*
X259547Y-137061D02*
Y-136417D01*
X260728Y-135236D01*
X254232Y-143110D02*
X255413Y-141929D01*
Y-141195D02*
X259547Y-137061D01*
X255413Y-141929D02*
Y-141195D01*
X260728Y-135236D02*
Y-134843D01*
X269045Y-211221D02*
X269094D01*
X266556Y-213660D02*
X266606D01*
X269045Y-211221D01*
X262324Y-209428D02*
X262472D01*
X264813Y-207087D01*
X264961D01*
X259842Y-220374D02*
X262381Y-217836D01*
X259842Y-220374D02*
Y-220374D01*
X258099Y-213604D02*
X258148D01*
X255758Y-215945D02*
X258099Y-213604D01*
X255709Y-215945D02*
X255758D01*
X252763Y-211660D02*
X254484Y-209939D01*
X251627Y-210525D02*
X253348Y-208804D01*
X251627Y-211660D02*
X252763D01*
X253916Y-209371D02*
X254484Y-209939D01*
X251476Y-211811D02*
X251627Y-211660D01*
Y-210525D01*
X253348Y-208804D02*
X253916Y-209371D01*
X258092Y-205196D02*
X258682Y-205786D01*
X260479Y-202907D02*
X260630Y-202756D01*
X260479Y-203989D02*
Y-202907D01*
X257524Y-204628D02*
Y-204628D01*
X259245Y-202907D02*
X260479D01*
X257524Y-204628D02*
X258092Y-205196D01*
X233148Y-145255D02*
X237381Y-141022D01*
X261024Y-135138D02*
X266634D01*
Y-135564D02*
X267520Y-136450D01*
X266634Y-135564D02*
Y-135138D01*
X267520Y-140847D02*
Y-136450D01*
X197835Y-173721D02*
X204232D01*
X197539Y-174016D02*
X197835Y-173721D01*
X197539Y-174705D02*
Y-174016D01*
X215551Y-162795D02*
X215748Y-162992D01*
X213697Y-162795D02*
X215551D01*
X215748Y-163583D02*
Y-162992D01*
X213008Y-162106D02*
X213697Y-162795D01*
X212795Y-162106D02*
X213008D01*
X187318Y-181314D02*
X190354D01*
X168937Y-203602D02*
X172972Y-207638D01*
X217963Y-173671D02*
X218012Y-173721D01*
X214321Y-173671D02*
X217963D01*
X214272Y-173622D02*
X214321Y-173671D01*
X224016Y-177559D02*
Y-173819D01*
X223917Y-173721D02*
X224016Y-173819D01*
Y-177559D02*
X224114Y-177657D01*
X183465Y-177461D02*
X187318Y-181314D01*
X190059Y-183366D02*
X190354Y-183071D01*
Y-181314D01*
X192161Y-179508D02*
X195438D01*
X190354Y-181314D02*
X192161Y-179508D01*
X195438D02*
X197244Y-181314D01*
Y-183071D02*
Y-181314D01*
Y-183071D02*
X197539Y-183366D01*
Y-184173D02*
X199882Y-186516D01*
X197539Y-184173D02*
Y-183366D01*
X199882Y-186516D02*
X208228D01*
X193799Y-187205D02*
Y-183366D01*
X178986Y-183415D02*
X183415D01*
X178937Y-183465D02*
X178986Y-183415D01*
X183415D02*
X183465Y-183366D01*
X176476Y-167815D02*
X177067Y-168405D01*
Y-169980D02*
Y-168405D01*
Y-169980D02*
X178688Y-171601D01*
Y-173865D02*
X178839Y-174016D01*
X174901Y-167815D02*
X176476D01*
X178688Y-173865D02*
Y-171601D01*
X178839Y-177559D02*
Y-174016D01*
X178888Y-177510D02*
X183415D01*
X178839Y-177559D02*
X178888Y-177510D01*
X183415D02*
X183465Y-177461D01*
X212254Y-151722D02*
X215699D01*
X215748Y-151772D01*
X212205Y-151673D02*
X212254Y-151722D01*
X296063Y-71063D02*
Y-67520D01*
X296063Y-67520D01*
X120390Y-60335D02*
X121252Y-61197D01*
X123874D02*
X124390Y-61713D01*
X121252Y-61197D02*
X123874D01*
X120177Y-60335D02*
X120390D01*
X302618Y-92362D02*
X302658Y-92323D01*
X303346D01*
X295866Y-92362D02*
X302618D01*
X303268Y-87283D02*
X303346Y-87205D01*
X295866Y-87362D02*
X295945Y-87283D01*
X303268D01*
X324016Y-107579D02*
X324213Y-107776D01*
X318406Y-107579D02*
X324016D01*
X318209Y-107382D02*
X318406Y-107579D01*
X318209Y-117815D02*
X319511Y-119118D01*
X319961Y-122343D02*
Y-119299D01*
X319779Y-119118D02*
X319961Y-119299D01*
X319511Y-119118D02*
X319779D01*
X318209Y-117815D02*
Y-113287D01*
X334961Y-122343D02*
Y-119086D01*
X337743Y-116304D01*
Y-114127D01*
X337894Y-113976D01*
X336390Y-100661D02*
Y-97459D01*
Y-100661D02*
X336417Y-100689D01*
X336362Y-97431D02*
X336390Y-97459D01*
X344980Y-92913D02*
X354823D01*
X344980Y-106693D02*
X354823D01*
X336122Y-87106D02*
Y-83563D01*
X204232Y-29626D02*
X204281Y-29675D01*
Y-32923D02*
X204331Y-32972D01*
X204281Y-32923D02*
Y-29675D01*
X264911Y-18455D02*
Y-14813D01*
X264862Y-14764D02*
X264911Y-14813D01*
Y-18455D02*
X264961Y-18504D01*
X242224Y-215846D02*
X242421Y-215650D01*
X222638Y-215846D02*
X242224D01*
X212222Y-212638D02*
X215431Y-215846D01*
X222638D01*
X203740Y-212638D02*
X212222D01*
X168209Y-204331D02*
X168937Y-203602D01*
X172972Y-207638D02*
X184843D01*
X152563Y-182283D02*
X153524Y-183245D01*
Y-195562D02*
Y-183245D01*
Y-202736D02*
Y-195562D01*
X148524Y-202736D02*
Y-195562D01*
X143524Y-202736D02*
X143544Y-202756D01*
X143524Y-202736D02*
Y-195562D01*
X153524Y-214660D02*
Y-207680D01*
X143524Y-214854D02*
Y-207680D01*
Y-215641D02*
Y-214854D01*
X148524D02*
Y-207680D01*
Y-215641D02*
Y-214854D01*
X138524D02*
Y-207680D01*
Y-215641D02*
Y-214854D01*
D129*
X247342Y-176887D02*
X267217Y-196762D01*
X243950Y-173494D02*
X247342Y-176887D01*
Y-182677D02*
Y-176887D01*
X258819Y-186024D02*
X267903Y-195107D01*
X245120Y-172324D02*
X258819Y-186024D01*
X264665D01*
X255797Y-176761D02*
X307404D01*
X252785D02*
X255797D01*
X258563Y-180118D02*
Y-179527D01*
X255797Y-176761D02*
X258563Y-179527D01*
X250213Y-171850D02*
X253470Y-175107D01*
X247903Y-169540D02*
X250213Y-171850D01*
X256299D01*
X307911Y-200156D02*
Y-197269D01*
Y-200156D02*
X308642Y-200887D01*
X242386Y-172042D02*
X243839Y-173494D01*
X242275Y-172042D02*
X242386D01*
X312898Y-200143D02*
Y-199174D01*
X308832Y-195107D02*
X312898Y-199174D01*
X243839Y-173494D02*
X243950D01*
X243667Y-170761D02*
X245120Y-172213D01*
X307404Y-196762D02*
X307911Y-197269D01*
X243667Y-170761D02*
Y-170650D01*
X267903Y-195107D02*
X308832D01*
X312898Y-200143D02*
X318642Y-205887D01*
X267217Y-196762D02*
X307404D01*
X245120Y-172324D02*
Y-172213D01*
X246734Y-170710D02*
X252785Y-176761D01*
X246622Y-170710D02*
X246734D01*
X245059Y-169258D02*
X245170D01*
X307404Y-176761D02*
X307911Y-177269D01*
X253470Y-175107D02*
X308832D01*
X312862Y-179138D01*
Y-190107D02*
X318642Y-195887D01*
X245170Y-169258D02*
X246622Y-170710D01*
X307911Y-180156D02*
Y-177269D01*
X246451Y-167977D02*
Y-167866D01*
Y-167977D02*
X247903Y-169429D01*
Y-169540D02*
Y-169429D01*
X307911Y-180156D02*
X308642Y-180887D01*
X312862Y-190107D02*
Y-179138D01*
D130*
X321457Y-14912D02*
Y-14567D01*
Y-14912D02*
X323425Y-16881D01*
Y-22421D02*
Y-16881D01*
X315945Y-22421D02*
Y-16881D01*
X317913Y-14912D01*
Y-14567D01*
X322231Y-26052D02*
Y-24836D01*
Y-26052D02*
X322875Y-26696D01*
X325752D01*
X330334Y-31278D01*
X338394D01*
X340887Y-28786D01*
Y-25244D01*
X340059Y-24416D02*
X340887Y-25244D01*
X340059Y-24416D02*
Y-24075D01*
X315945Y-23642D02*
Y-22421D01*
X324971Y-28584D02*
X329553Y-33166D01*
X315945Y-23642D02*
X317186Y-24883D01*
X329553Y-33166D02*
X339176D01*
X317186Y-25187D02*
Y-24883D01*
X339176Y-33166D02*
X342775Y-29567D01*
X317186Y-25187D02*
X320583Y-28584D01*
X342775Y-29567D02*
Y-25244D01*
X320583Y-28584D02*
X324971D01*
X342775Y-25244D02*
X343602Y-24416D01*
X323425Y-23642D02*
Y-22421D01*
X343602Y-24416D02*
Y-24075D01*
X322231Y-24836D02*
X323425Y-23642D01*
D131*
X160138Y-182874D02*
Y-167913D01*
X160236Y-167815D02*
X161516D01*
X160138Y-167913D02*
X160236Y-167815D01*
X208228Y-186949D02*
X213682Y-192403D01*
X208228Y-186949D02*
Y-186516D01*
X216390Y-200689D02*
X222638D01*
X213682Y-197982D02*
X216390Y-200689D01*
X213682Y-197982D02*
Y-192403D01*
D132*
X52264Y-22638D02*
X55807D01*
X47835D02*
X52264D01*
X29528D02*
X47835D01*
X52264Y-32461D02*
X60532D01*
X37421D02*
X52264D01*
X55905Y-46260D02*
X57284D01*
X52362Y-46063D02*
X57480D01*
X47441D02*
X52362D01*
X40945D02*
X47441D01*
X54331Y-56102D02*
X55118Y-56890D01*
X52362Y-56102D02*
X54331D01*
X29528D02*
X52362D01*
X57480Y-46063D02*
X58661D01*
X57284Y-46260D02*
X57480Y-46063D01*
X57874Y-45669D01*
X19685Y-32480D02*
X29528Y-22638D01*
X19685Y-42323D02*
Y-32480D01*
X29528Y-40354D02*
X37421Y-32461D01*
X29528Y-42323D02*
Y-40354D01*
D133*
X55895Y-34055D02*
X57480D01*
X50591Y-70276D02*
X60630D01*
X44882Y-64567D02*
X50000Y-69685D01*
X50591Y-70276D01*
X37008Y-64567D02*
X44882D01*
X52394Y-79724D02*
X60630D01*
X47047D02*
X52394D01*
X39764Y-72441D02*
X47047Y-79724D01*
X52197Y-126378D02*
X52362D01*
D134*
X50984Y-68701D02*
Y-63779D01*
X48573Y-113386D02*
X51575D01*
X47638D02*
X48573D01*
X46850D02*
X47638D01*
X51575Y-116388D02*
Y-113386D01*
X162598Y-209862D02*
X168130Y-204331D01*
X162303Y-215945D02*
X162598Y-215650D01*
Y-209862D01*
X168130Y-204331D02*
X168209D01*
X47638Y-63779D02*
X50984D01*
X45669D02*
X47638D01*
X148544Y-207660D02*
X153544D01*
X143544D02*
X148544D01*
X138544D02*
X143544D01*
X44882Y-64567D02*
X45669Y-63779D01*
X50000Y-69685D02*
X50984Y-68701D01*
X46850Y-125394D02*
X47835Y-126378D01*
X51575Y-116388D02*
X52903Y-117717D01*
X43701Y-119095D02*
X46457Y-121850D01*
X40551Y-119095D02*
X43701D01*
X46457Y-121850D02*
X46850D01*
Y-125394D02*
Y-121850D01*
D135*
X29331Y-71260D02*
X38583D01*
X49803Y-102165D02*
X56496D01*
X52903Y-117717D02*
X56102D01*
X46850Y-111663D02*
Y-108268D01*
Y-113386D02*
Y-111663D01*
X48573Y-113386D02*
X51575Y-116388D01*
X46850Y-111663D02*
X48573Y-113386D01*
X40551Y-119095D02*
Y-110827D01*
X47835Y-126378D02*
X52197D01*
X40551Y-119095D02*
X46850Y-125394D01*
X29528Y-99803D02*
Y-97441D01*
Y-99803D02*
X40551Y-110827D01*
X29528Y-69882D02*
X30709Y-71063D01*
X38583Y-71260D02*
X39764Y-72441D01*
X37992Y-99410D02*
X46850Y-108268D01*
D136*
X47441Y-87795D02*
X51378D01*
X51772Y-91732D02*
X59449D01*
X51378Y-91634D02*
Y-87795D01*
X33661Y-76772D02*
X48622Y-91732D01*
X44094Y-96457D02*
Y-94685D01*
X19685Y-83661D02*
Y-81496D01*
Y-97441D02*
Y-95866D01*
X25000Y-90551D01*
X32874D01*
X37992Y-95669D01*
X19685Y-81496D02*
X24409Y-76772D01*
X37992Y-99410D02*
Y-95669D01*
X51378Y-91634D02*
X51476Y-91732D01*
X51772D01*
X52362Y-91142D01*
X24409Y-76772D02*
X33661D01*
X48622Y-91732D02*
X51476D01*
X29528Y-83661D02*
X33071D01*
X44094Y-94685D01*
D137*
X43996Y-96457D02*
X49705Y-102165D01*
D138*
X168209Y-179724D02*
X170669Y-182185D01*
Y-187992D02*
Y-182185D01*
X165945Y-181988D02*
X168209Y-179724D01*
X165945Y-187992D02*
Y-181988D01*
Y-187992D02*
X170669D01*
X143544Y-202756D02*
X167913D01*
D139*
X37795Y-49213D02*
X40945Y-46063D01*
X19685Y-56102D02*
X26575Y-49213D01*
X19685Y-69882D02*
X26378Y-63189D01*
X26575Y-49213D02*
X37795D01*
X26378Y-63189D02*
X36417D01*
D140*
X318642Y-205887D02*
D03*
X308642Y-200887D02*
D03*
X318642Y-195887D02*
D03*
X308642Y-190887D02*
D03*
X318642Y-185887D02*
D03*
X308642Y-180887D02*
D03*
X318642Y-175887D02*
D03*
X308642Y-170887D02*
D03*
D141*
X353642Y-161911D02*
D03*
X361634D02*
D03*
X353642Y-214863D02*
D03*
X361634D02*
D03*
D142*
X331634Y-157383D02*
D03*
Y-219391D02*
D03*
D143*
X209252Y-20768D02*
D03*
X219252D02*
D03*
X229252D02*
D03*
X239252D02*
D03*
X198012D02*
D03*
X188012D02*
D03*
X178012D02*
D03*
X168012D02*
D03*
D144*
X249252D02*
D03*
X158012D02*
D03*
D145*
X344980Y-106693D02*
D03*
X354823D02*
D03*
X344980Y-120472D02*
D03*
X354823D02*
D03*
X344980Y-134252D02*
D03*
X354823D02*
D03*
Y-92913D02*
D03*
X344980D02*
D03*
Y-79134D02*
D03*
Y-65354D02*
D03*
X354823Y-79134D02*
D03*
Y-65354D02*
D03*
X29528Y-42323D02*
D03*
X19685D02*
D03*
Y-111221D02*
D03*
X29528D02*
D03*
Y-97441D02*
D03*
X19685Y-97441D02*
D03*
Y-56102D02*
D03*
X29528D02*
D03*
X19685Y-69882D02*
D03*
X29528D02*
D03*
X19685Y-83661D02*
D03*
X29528D02*
D03*
Y-152559D02*
D03*
X19685D02*
D03*
X29528Y-138779D02*
D03*
X19685D02*
D03*
X29528Y-125000D02*
D03*
X19685D02*
D03*
Y-166339D02*
D03*
X29528D02*
D03*
Y-180118D02*
D03*
Y-193898D02*
D03*
X19685Y-180118D02*
D03*
Y-193898D02*
D03*
D146*
X354035Y-28169D02*
D03*
Y-16909D02*
D03*
X335138Y-28169D02*
D03*
Y-16909D02*
D03*
D147*
X233455Y-27834D02*
D03*
X246555Y-32972D02*
D03*
X235255Y-138287D02*
D03*
X244882Y-133858D02*
D03*
X85925Y-183957D02*
D03*
X81791Y-186516D02*
D03*
X84153Y-165945D02*
D03*
Y-147441D02*
D03*
X76279Y-202854D02*
D03*
X84055Y-205709D02*
D03*
X76279Y-137205D02*
D03*
X67716Y-210039D02*
D03*
Y-175689D02*
D03*
X354626Y-41043D02*
D03*
X335630D02*
D03*
X321457Y-14567D02*
D03*
X317913D02*
D03*
X115748Y-40551D02*
D03*
X269980Y-123819D02*
D03*
X168890Y-138393D02*
D03*
X166381Y-143265D02*
D03*
X142323Y-121653D02*
D03*
X150303Y-117329D02*
D03*
X143110Y-108071D02*
D03*
X153740Y-111614D02*
D03*
X176476Y-137205D02*
D03*
X208627Y-135647D02*
D03*
X191339Y-131883D02*
D03*
X315945Y-140256D02*
D03*
X333563Y-104724D02*
D03*
X315945Y-120374D02*
D03*
X215945Y-182874D02*
D03*
X319685Y-17913D02*
D03*
X341831Y-49114D02*
D03*
X160138Y-182874D02*
D03*
X237303Y-82677D02*
D03*
X299410Y-151575D02*
D03*
X207874Y-132185D02*
D03*
X228182Y-153216D02*
D03*
X243307Y-177165D02*
D03*
X251389Y-161232D02*
D03*
X265551Y-171752D02*
D03*
X267913Y-180118D02*
D03*
X273917Y-185925D02*
D03*
X248228Y-191831D02*
D03*
X269094Y-211221D02*
D03*
X264961Y-207087D02*
D03*
X259842Y-220374D02*
D03*
X255709Y-215945D02*
D03*
X260630Y-202756D02*
D03*
X251476Y-211811D02*
D03*
X187598Y-114961D02*
D03*
X193701D02*
D03*
X204823D02*
D03*
X184744Y-117224D02*
D03*
X190630Y-117205D02*
D03*
X196436Y-117245D02*
D03*
X199144Y-114961D02*
D03*
X201870Y-117224D02*
D03*
X188678Y-161222D02*
D03*
X131791Y-194685D02*
D03*
X130118Y-168110D02*
D03*
X150000Y-165748D02*
D03*
X127461Y-165157D02*
D03*
X131102Y-160630D02*
D03*
X266634Y-135138D02*
D03*
X264370Y-160433D02*
D03*
X212795Y-162106D02*
D03*
X214272Y-173622D02*
D03*
X224114Y-177657D02*
D03*
X293406Y-183071D02*
D03*
X253248Y-93012D02*
D03*
X193799Y-187205D02*
D03*
X225197Y-183957D02*
D03*
Y-189075D02*
D03*
X228937Y-174016D02*
D03*
X230912Y-176958D02*
D03*
X234449Y-177165D02*
D03*
X136024Y-165453D02*
D03*
X131496Y-108317D02*
D03*
X117717Y-104724D02*
D03*
X212205Y-151673D02*
D03*
X240256Y-132087D02*
D03*
X249902Y-120177D02*
D03*
X250492Y-116142D02*
D03*
X232760Y-119110D02*
D03*
X282185Y-90256D02*
D03*
X260630Y-77658D02*
D03*
X233661Y-69784D02*
D03*
X237205D02*
D03*
X292028Y-70866D02*
D03*
X296063Y-71063D02*
D03*
X257087Y-80610D02*
D03*
X188779Y-164764D02*
D03*
X178937Y-183465D02*
D03*
X172539Y-137205D02*
D03*
X181988Y-102067D02*
D03*
X173917Y-83169D02*
D03*
X146850Y-154134D02*
D03*
X173955Y-90688D02*
D03*
X173917Y-87106D02*
D03*
X173819Y-94390D02*
D03*
X183563Y-56988D02*
D03*
X175984Y-63189D02*
D03*
X145472Y-175787D02*
D03*
X120177Y-60335D02*
D03*
X167421Y-65551D02*
D03*
X125689Y-39862D02*
D03*
X167421Y-69095D02*
D03*
X125689Y-43406D02*
D03*
X293568Y-128972D02*
D03*
X298819Y-147736D02*
D03*
Y-133071D02*
D03*
X293701Y-147736D02*
D03*
X327461Y-134350D02*
D03*
X319980Y-134252D02*
D03*
X237205Y-78839D02*
D03*
X334842Y-134350D02*
D03*
X303346Y-92323D02*
D03*
Y-87205D02*
D03*
X337894Y-113976D02*
D03*
X336417Y-100689D02*
D03*
X336122Y-87106D02*
D03*
X258858Y-62598D02*
D03*
X257185Y-46161D02*
D03*
X252658Y-67520D02*
D03*
X279873Y-45315D02*
D03*
X277678Y-42170D02*
D03*
X233858Y-56398D02*
D03*
Y-60039D02*
D03*
X319193Y-36516D02*
D03*
X310138Y-34744D02*
D03*
X296583Y-37104D02*
D03*
X236803Y-53158D02*
D03*
X273622Y-56988D02*
D03*
X264764Y-62500D02*
D03*
X187402Y-49508D02*
D03*
X281890Y-48228D02*
D03*
X296457Y-33563D02*
D03*
X309842Y-14862D02*
D03*
X298524D02*
D03*
X282087D02*
D03*
X197835Y-49409D02*
D03*
X312402Y-71653D02*
D03*
X307087D02*
D03*
X264862Y-14764D02*
D03*
X258366Y-14469D02*
D03*
X293012Y-14862D02*
D03*
X272047Y-18406D02*
D03*
X339469Y-57776D02*
D03*
X164665Y-31890D02*
D03*
X127657Y-66535D02*
D03*
X134547Y-37008D02*
D03*
X167717Y-75098D02*
D03*
X128051Y-72736D02*
D03*
X332664Y-5709D02*
D03*
X344348D02*
D03*
X214469Y-32776D02*
D03*
X210138Y-29724D02*
D03*
X192520D02*
D03*
X198130Y-29823D02*
D03*
X204232Y-29626D02*
D03*
X185236Y-35236D02*
D03*
X164272Y-38287D02*
D03*
X259547Y-86910D02*
D03*
X311024Y-103839D02*
D03*
X295197Y-103031D02*
D03*
X242421Y-196063D02*
D03*
X315846Y-54134D02*
D03*
X178839Y-174016D02*
D03*
Y-177559D02*
D03*
X188878Y-168307D02*
D03*
X133760Y-127362D02*
D03*
X153740Y-104134D02*
D03*
Y-107874D02*
D03*
X141634Y-131595D02*
D03*
X136811Y-154134D02*
D03*
X146653Y-131595D02*
D03*
X141634Y-154134D02*
D03*
X225295Y-134055D02*
D03*
X221555D02*
D03*
X169193Y-52264D02*
D03*
X123031Y-110827D02*
D03*
X138878Y-80905D02*
D03*
X204921Y-199213D02*
D03*
X170669Y-187992D02*
D03*
X165945D02*
D03*
X318307Y-102559D02*
D03*
X127362Y-131299D02*
D03*
X154134Y-77756D02*
D03*
X149409Y-42618D02*
D03*
X150591Y-38287D02*
D03*
X127362Y-207087D02*
D03*
Y-182874D02*
D03*
Y-151132D02*
D03*
Y-145276D02*
D03*
X5512Y-5709D02*
D03*
X118898Y-88585D02*
D03*
Y-110780D02*
D03*
X112795Y-216779D02*
D03*
X118551Y-201181D02*
D03*
Y-182165D02*
D03*
Y-162992D02*
D03*
Y-144095D02*
D03*
X102756Y-144095D02*
D03*
X99410Y-141142D02*
D03*
X102756Y-125197D02*
D03*
X67716Y-192864D02*
D03*
Y-158514D02*
D03*
Y-141339D02*
D03*
X154134Y-82087D02*
D03*
X138544Y-207660D02*
D03*
X143544D02*
D03*
X148544D02*
D03*
X153544D02*
D03*
X191732Y-195965D02*
D03*
X5512Y-230512D02*
D03*
X17196D02*
D03*
X28880D02*
D03*
X40564D02*
D03*
X52248D02*
D03*
X63932D02*
D03*
X75616D02*
D03*
X87300D02*
D03*
X98984D02*
D03*
X110668D02*
D03*
X122352D02*
D03*
X134036D02*
D03*
X145720D02*
D03*
X157404D02*
D03*
X169088D02*
D03*
X180772D02*
D03*
X192456D02*
D03*
X204140D02*
D03*
X215824D02*
D03*
X227508D02*
D03*
X239192D02*
D03*
X250876D02*
D03*
X262560D02*
D03*
X274244D02*
D03*
X285928D02*
D03*
X297612D02*
D03*
X309296D02*
D03*
X320980D02*
D03*
X332664D02*
D03*
X344348D02*
D03*
X356032D02*
D03*
X367716D02*
D03*
Y-5709D02*
D03*
X356032D02*
D03*
X320980D02*
D03*
X309296D02*
D03*
X297612D02*
D03*
X285928D02*
D03*
X274244D02*
D03*
X262560D02*
D03*
X250876D02*
D03*
X239192D02*
D03*
X227508D02*
D03*
X215824D02*
D03*
X204140D02*
D03*
X192456D02*
D03*
X180772D02*
D03*
X169088D02*
D03*
X157404D02*
D03*
X145720D02*
D03*
X134036D02*
D03*
X122352D02*
D03*
X110668D02*
D03*
X98984D02*
D03*
X87300D02*
D03*
X75616D02*
D03*
X63932D02*
D03*
X52248D02*
D03*
X40564D02*
D03*
X28880D02*
D03*
X17196D02*
D03*
X143110Y-92913D02*
D03*
X100787Y-211417D02*
D03*
X76181Y-189075D02*
D03*
Y-171850D02*
D03*
Y-154626D02*
D03*
X99410Y-160039D02*
D03*
X102756Y-163976D02*
D03*
X99410Y-179134D02*
D03*
X102362Y-182480D02*
D03*
X99606Y-198228D02*
D03*
X102559Y-201181D02*
D03*
X118898Y-22000D02*
D03*
Y-66390D02*
D03*
D148*
X238976Y-168504D02*
D03*
Y-160630D02*
D03*
X243012Y-164665D02*
D03*
X234941Y-164567D02*
D03*
X238976D02*
D03*
X146260Y-146752D02*
D03*
Y-142815D02*
D03*
Y-138878D02*
D03*
X150197Y-146752D02*
D03*
Y-138878D02*
D03*
Y-142815D02*
D03*
X142323Y-138878D02*
D03*
Y-142815D02*
D03*
Y-146752D02*
D03*
X138386Y-138878D02*
D03*
Y-142815D02*
D03*
Y-146752D02*
D03*
D149*
X43898Y-20669D02*
D03*
X47835D02*
D03*
Y-30512D02*
D03*
X43898D02*
D03*
X47441Y-44094D02*
D03*
X43504D02*
D03*
X46850Y-54134D02*
D03*
X42913D02*
D03*
X47638Y-63779D02*
D03*
X43701D02*
D03*
X45276Y-76575D02*
D03*
X42323Y-73819D02*
D03*
X48819Y-87303D02*
D03*
X44882D02*
D03*
X46949Y-98917D02*
D03*
X43701Y-96260D02*
D03*
X46457Y-109843D02*
D03*
X47638Y-113386D02*
D03*
X43701Y-119095D02*
D03*
X46850Y-121850D02*
D03*
M02*
