G04*
G04 #@! TF.GenerationSoftware,Altium Limited,Altium Designer,22.10.1 (41)*
G04*
G04 Layer_Physical_Order=3*
G04 Layer_Color=36540*
%FSLAX25Y25*%
%MOIN*%
G70*
G04*
G04 #@! TF.SameCoordinates,228258D3-266C-4D4F-9196-BF2F79CCE343*
G04*
G04*
G04 #@! TF.FilePolarity,Positive*
G04*
G01*
G75*
%ADD14C,0.02362*%
%ADD15C,0.01575*%
%ADD20C,0.01181*%
%ADD124C,0.02362*%
%ADD128C,0.01968*%
%ADD132C,0.07874*%
%ADD133C,0.05906*%
%ADD135C,0.04724*%
%ADD136C,0.03543*%
%ADD139C,0.03150*%
%ADD140C,0.06000*%
%ADD141C,0.06693*%
%ADD143C,0.05906*%
%ADD145C,0.07874*%
%ADD147C,0.02756*%
%ADD149C,0.03937*%
G36*
X14885Y-3937D02*
X15059Y-4290D01*
X14961Y-4418D01*
X14703Y-5041D01*
X14615Y-5709D01*
X14703Y-6377D01*
X14961Y-6999D01*
X15371Y-7534D01*
X15905Y-7944D01*
X16528Y-8202D01*
X17196Y-8290D01*
X17864Y-8202D01*
X18486Y-7944D01*
X19021Y-7534D01*
X19431Y-6999D01*
X19689Y-6377D01*
X19777Y-5709D01*
X19689Y-5041D01*
X19431Y-4418D01*
X19333Y-4290D01*
X19507Y-3937D01*
X26569D01*
X26743Y-4290D01*
X26645Y-4418D01*
X26387Y-5041D01*
X26299Y-5709D01*
X26387Y-6377D01*
X26645Y-6999D01*
X27055Y-7534D01*
X27589Y-7944D01*
X28212Y-8202D01*
X28880Y-8290D01*
X29548Y-8202D01*
X30170Y-7944D01*
X30705Y-7534D01*
X31115Y-6999D01*
X31373Y-6377D01*
X31461Y-5709D01*
X31373Y-5041D01*
X31115Y-4418D01*
X31017Y-4290D01*
X31191Y-3937D01*
X38253D01*
X38427Y-4290D01*
X38328Y-4418D01*
X38071Y-5041D01*
X37983Y-5709D01*
X38071Y-6377D01*
X38328Y-6999D01*
X38739Y-7534D01*
X39273Y-7944D01*
X39896Y-8202D01*
X40564Y-8290D01*
X41232Y-8202D01*
X41854Y-7944D01*
X42389Y-7534D01*
X42799Y-6999D01*
X43057Y-6377D01*
X43145Y-5709D01*
X43057Y-5041D01*
X42799Y-4418D01*
X42701Y-4290D01*
X42875Y-3937D01*
X49937D01*
X50111Y-4290D01*
X50013Y-4418D01*
X49755Y-5041D01*
X49667Y-5709D01*
X49755Y-6377D01*
X50013Y-6999D01*
X50423Y-7534D01*
X50957Y-7944D01*
X51580Y-8202D01*
X52248Y-8290D01*
X52916Y-8202D01*
X53539Y-7944D01*
X54073Y-7534D01*
X54483Y-6999D01*
X54741Y-6377D01*
X54829Y-5709D01*
X54741Y-5041D01*
X54483Y-4418D01*
X54385Y-4290D01*
X54559Y-3937D01*
X61621D01*
X61795Y-4290D01*
X61697Y-4418D01*
X61439Y-5041D01*
X61351Y-5709D01*
X61439Y-6377D01*
X61697Y-6999D01*
X62107Y-7534D01*
X62641Y-7944D01*
X63264Y-8202D01*
X63932Y-8290D01*
X64600Y-8202D01*
X65223Y-7944D01*
X65757Y-7534D01*
X66167Y-6999D01*
X66425Y-6377D01*
X66513Y-5709D01*
X66425Y-5041D01*
X66167Y-4418D01*
X66069Y-4290D01*
X66243Y-3937D01*
X73305D01*
X73479Y-4290D01*
X73381Y-4418D01*
X73123Y-5041D01*
X73035Y-5709D01*
X73123Y-6377D01*
X73381Y-6999D01*
X73791Y-7534D01*
X74325Y-7944D01*
X74948Y-8202D01*
X75616Y-8290D01*
X76284Y-8202D01*
X76907Y-7944D01*
X77441Y-7534D01*
X77851Y-6999D01*
X78109Y-6377D01*
X78197Y-5709D01*
X78109Y-5041D01*
X77851Y-4418D01*
X77753Y-4290D01*
X77927Y-3937D01*
X84989D01*
X85163Y-4290D01*
X85065Y-4418D01*
X84807Y-5041D01*
X84719Y-5709D01*
X84807Y-6377D01*
X85065Y-6999D01*
X85475Y-7534D01*
X86009Y-7944D01*
X86632Y-8202D01*
X87300Y-8290D01*
X87968Y-8202D01*
X88591Y-7944D01*
X89125Y-7534D01*
X89535Y-6999D01*
X89793Y-6377D01*
X89881Y-5709D01*
X89793Y-5041D01*
X89535Y-4418D01*
X89437Y-4290D01*
X89611Y-3937D01*
X96673D01*
X96847Y-4290D01*
X96749Y-4418D01*
X96491Y-5041D01*
X96403Y-5709D01*
X96491Y-6377D01*
X96749Y-6999D01*
X97159Y-7534D01*
X97693Y-7944D01*
X98316Y-8202D01*
X98984Y-8290D01*
X99652Y-8202D01*
X100275Y-7944D01*
X100809Y-7534D01*
X101219Y-6999D01*
X101477Y-6377D01*
X101565Y-5709D01*
X101477Y-5041D01*
X101219Y-4418D01*
X101121Y-4290D01*
X101295Y-3937D01*
X108357D01*
X108531Y-4290D01*
X108433Y-4418D01*
X108175Y-5041D01*
X108087Y-5709D01*
X108175Y-6377D01*
X108433Y-6999D01*
X108843Y-7534D01*
X109377Y-7944D01*
X110000Y-8202D01*
X110668Y-8290D01*
X111336Y-8202D01*
X111959Y-7944D01*
X112493Y-7534D01*
X112903Y-6999D01*
X113161Y-6377D01*
X113249Y-5709D01*
X113161Y-5041D01*
X112903Y-4418D01*
X112805Y-4290D01*
X112979Y-3937D01*
X120041D01*
X120215Y-4290D01*
X120117Y-4418D01*
X119859Y-5041D01*
X119771Y-5709D01*
X119859Y-6377D01*
X120117Y-6999D01*
X120527Y-7534D01*
X121061Y-7944D01*
X121684Y-8202D01*
X122352Y-8290D01*
X123020Y-8202D01*
X123643Y-7944D01*
X124177Y-7534D01*
X124587Y-6999D01*
X124845Y-6377D01*
X124933Y-5709D01*
X124845Y-5041D01*
X124587Y-4418D01*
X124489Y-4290D01*
X124663Y-3937D01*
X131725D01*
X131899Y-4290D01*
X131801Y-4418D01*
X131543Y-5041D01*
X131455Y-5709D01*
X131543Y-6377D01*
X131801Y-6999D01*
X132211Y-7534D01*
X132746Y-7944D01*
X133368Y-8202D01*
X134036Y-8290D01*
X134704Y-8202D01*
X135327Y-7944D01*
X135861Y-7534D01*
X136271Y-6999D01*
X136529Y-6377D01*
X136617Y-5709D01*
X136529Y-5041D01*
X136271Y-4418D01*
X136173Y-4290D01*
X136347Y-3937D01*
X143409D01*
X143583Y-4290D01*
X143485Y-4418D01*
X143227Y-5041D01*
X143139Y-5709D01*
X143227Y-6377D01*
X143485Y-6999D01*
X143895Y-7534D01*
X144430Y-7944D01*
X145052Y-8202D01*
X145720Y-8290D01*
X146388Y-8202D01*
X147011Y-7944D01*
X147545Y-7534D01*
X147955Y-6999D01*
X148213Y-6377D01*
X148301Y-5709D01*
X148213Y-5041D01*
X147955Y-4418D01*
X147857Y-4290D01*
X148031Y-3937D01*
X155093D01*
X155267Y-4290D01*
X155169Y-4418D01*
X154911Y-5041D01*
X154823Y-5709D01*
X154911Y-6377D01*
X155169Y-6999D01*
X155579Y-7534D01*
X156114Y-7944D01*
X156736Y-8202D01*
X157404Y-8290D01*
X158072Y-8202D01*
X158695Y-7944D01*
X159229Y-7534D01*
X159639Y-6999D01*
X159897Y-6377D01*
X159985Y-5709D01*
X159897Y-5041D01*
X159639Y-4418D01*
X159541Y-4290D01*
X159715Y-3937D01*
X166777D01*
X166951Y-4290D01*
X166853Y-4418D01*
X166595Y-5041D01*
X166507Y-5709D01*
X166595Y-6377D01*
X166853Y-6999D01*
X167263Y-7534D01*
X167798Y-7944D01*
X168420Y-8202D01*
X169088Y-8290D01*
X169756Y-8202D01*
X170379Y-7944D01*
X170913Y-7534D01*
X171323Y-6999D01*
X171581Y-6377D01*
X171669Y-5709D01*
X171581Y-5041D01*
X171323Y-4418D01*
X171225Y-4290D01*
X171399Y-3937D01*
X178461D01*
X178635Y-4290D01*
X178537Y-4418D01*
X178279Y-5041D01*
X178191Y-5709D01*
X178279Y-6377D01*
X178537Y-6999D01*
X178947Y-7534D01*
X179481Y-7944D01*
X180104Y-8202D01*
X180772Y-8290D01*
X181440Y-8202D01*
X182063Y-7944D01*
X182597Y-7534D01*
X183007Y-6999D01*
X183265Y-6377D01*
X183353Y-5709D01*
X183265Y-5041D01*
X183007Y-4418D01*
X182909Y-4290D01*
X183083Y-3937D01*
X190145Y-3937D01*
X190319Y-4290D01*
X190221Y-4418D01*
X189963Y-5041D01*
X189875Y-5709D01*
X189963Y-6377D01*
X190221Y-6999D01*
X190631Y-7534D01*
X191166Y-7944D01*
X191788Y-8202D01*
X192456Y-8290D01*
X193124Y-8202D01*
X193747Y-7944D01*
X194281Y-7534D01*
X194691Y-6999D01*
X194949Y-6377D01*
X195037Y-5709D01*
X194949Y-5041D01*
X194691Y-4418D01*
X194593Y-4290D01*
X194767Y-3937D01*
X201829D01*
X202003Y-4290D01*
X201905Y-4418D01*
X201647Y-5041D01*
X201559Y-5709D01*
X201647Y-6377D01*
X201905Y-6999D01*
X202315Y-7534D01*
X202850Y-7944D01*
X203472Y-8202D01*
X204140Y-8290D01*
X204808Y-8202D01*
X205431Y-7944D01*
X205965Y-7534D01*
X206376Y-6999D01*
X206633Y-6377D01*
X206721Y-5709D01*
X206633Y-5041D01*
X206376Y-4418D01*
X206277Y-4290D01*
X206451Y-3937D01*
X213513D01*
X213687Y-4290D01*
X213589Y-4418D01*
X213331Y-5041D01*
X213243Y-5709D01*
X213331Y-6377D01*
X213589Y-6999D01*
X213999Y-7534D01*
X214534Y-7944D01*
X215156Y-8202D01*
X215824Y-8290D01*
X216492Y-8202D01*
X217115Y-7944D01*
X217649Y-7534D01*
X218059Y-6999D01*
X218317Y-6377D01*
X218405Y-5709D01*
X218317Y-5041D01*
X218059Y-4418D01*
X217961Y-4290D01*
X218135Y-3937D01*
X225197D01*
X225371Y-4290D01*
X225273Y-4418D01*
X225015Y-5041D01*
X224927Y-5709D01*
X225015Y-6377D01*
X225273Y-6999D01*
X225683Y-7534D01*
X226218Y-7944D01*
X226840Y-8202D01*
X227508Y-8290D01*
X228176Y-8202D01*
X228799Y-7944D01*
X229333Y-7534D01*
X229744Y-6999D01*
X230001Y-6377D01*
X230089Y-5709D01*
X230001Y-5041D01*
X229744Y-4418D01*
X229645Y-4290D01*
X229819Y-3937D01*
X236881D01*
X237055Y-4290D01*
X236957Y-4418D01*
X236699Y-5041D01*
X236611Y-5709D01*
X236699Y-6377D01*
X236957Y-6999D01*
X237367Y-7534D01*
X237902Y-7944D01*
X238524Y-8202D01*
X239192Y-8290D01*
X239860Y-8202D01*
X240483Y-7944D01*
X241017Y-7534D01*
X241427Y-6999D01*
X241685Y-6377D01*
X241773Y-5709D01*
X241685Y-5041D01*
X241427Y-4418D01*
X241329Y-4290D01*
X241503Y-3937D01*
X248565D01*
X248739Y-4290D01*
X248641Y-4418D01*
X248383Y-5041D01*
X248295Y-5709D01*
X248383Y-6377D01*
X248641Y-6999D01*
X249051Y-7534D01*
X249586Y-7944D01*
X250208Y-8202D01*
X250876Y-8290D01*
X251544Y-8202D01*
X252167Y-7944D01*
X252701Y-7534D01*
X253112Y-6999D01*
X253369Y-6377D01*
X253457Y-5709D01*
X253369Y-5041D01*
X253112Y-4418D01*
X253013Y-4290D01*
X253187Y-3937D01*
X260249D01*
X260423Y-4290D01*
X260325Y-4418D01*
X260067Y-5041D01*
X259979Y-5709D01*
X260067Y-6377D01*
X260325Y-6999D01*
X260735Y-7534D01*
X261270Y-7944D01*
X261892Y-8202D01*
X262560Y-8290D01*
X263228Y-8202D01*
X263851Y-7944D01*
X264385Y-7534D01*
X264796Y-6999D01*
X265053Y-6377D01*
X265141Y-5709D01*
X265053Y-5041D01*
X264796Y-4418D01*
X264697Y-4290D01*
X264872Y-3937D01*
X271933D01*
X272107Y-4290D01*
X272009Y-4418D01*
X271751Y-5041D01*
X271663Y-5709D01*
X271751Y-6377D01*
X272009Y-6999D01*
X272419Y-7534D01*
X272954Y-7944D01*
X273576Y-8202D01*
X274244Y-8290D01*
X274912Y-8202D01*
X275535Y-7944D01*
X276069Y-7534D01*
X276480Y-6999D01*
X276737Y-6377D01*
X276825Y-5709D01*
X276737Y-5041D01*
X276480Y-4418D01*
X276381Y-4290D01*
X276555Y-3937D01*
X283617D01*
X283791Y-4290D01*
X283693Y-4418D01*
X283435Y-5041D01*
X283347Y-5709D01*
X283435Y-6377D01*
X283693Y-6999D01*
X284103Y-7534D01*
X284638Y-7944D01*
X285260Y-8202D01*
X285928Y-8290D01*
X286596Y-8202D01*
X287219Y-7944D01*
X287753Y-7534D01*
X288164Y-6999D01*
X288422Y-6377D01*
X288509Y-5709D01*
X288422Y-5041D01*
X288164Y-4418D01*
X288065Y-4290D01*
X288240Y-3937D01*
X295301D01*
X295475Y-4290D01*
X295377Y-4418D01*
X295119Y-5041D01*
X295031Y-5709D01*
X295119Y-6377D01*
X295377Y-6999D01*
X295787Y-7534D01*
X296322Y-7944D01*
X296944Y-8202D01*
X297612Y-8290D01*
X298280Y-8202D01*
X298903Y-7944D01*
X299437Y-7534D01*
X299848Y-6999D01*
X300106Y-6377D01*
X300193Y-5709D01*
X300106Y-5041D01*
X299848Y-4418D01*
X299749Y-4290D01*
X299923Y-3937D01*
X306985D01*
X307159Y-4290D01*
X307061Y-4418D01*
X306803Y-5041D01*
X306715Y-5709D01*
X306803Y-6377D01*
X307061Y-6999D01*
X307471Y-7534D01*
X308006Y-7944D01*
X308628Y-8202D01*
X309296Y-8290D01*
X309964Y-8202D01*
X310587Y-7944D01*
X311122Y-7534D01*
X311532Y-6999D01*
X311789Y-6377D01*
X311877Y-5709D01*
X311789Y-5041D01*
X311532Y-4418D01*
X311433Y-4290D01*
X311608Y-3937D01*
X318669D01*
X318843Y-4290D01*
X318745Y-4418D01*
X318487Y-5041D01*
X318399Y-5709D01*
X318487Y-6377D01*
X318745Y-6999D01*
X319155Y-7534D01*
X319690Y-7944D01*
X320312Y-8202D01*
X320980Y-8290D01*
X321648Y-8202D01*
X322271Y-7944D01*
X322806Y-7534D01*
X323216Y-6999D01*
X323474Y-6377D01*
X323562Y-5709D01*
X323474Y-5041D01*
X323216Y-4418D01*
X323117Y-4290D01*
X323292Y-3937D01*
X330353D01*
X330527Y-4290D01*
X330429Y-4418D01*
X330171Y-5041D01*
X330083Y-5709D01*
X330171Y-6377D01*
X330429Y-6999D01*
X330839Y-7534D01*
X331374Y-7944D01*
X331996Y-8202D01*
X332664Y-8290D01*
X333332Y-8202D01*
X333955Y-7944D01*
X334489Y-7534D01*
X334900Y-6999D01*
X335157Y-6377D01*
X335245Y-5709D01*
X335157Y-5041D01*
X334900Y-4418D01*
X334802Y-4290D01*
X334976Y-3937D01*
X342037D01*
X342211Y-4290D01*
X342113Y-4418D01*
X341855Y-5041D01*
X341767Y-5709D01*
X341855Y-6377D01*
X342113Y-6999D01*
X342523Y-7534D01*
X343058Y-7944D01*
X343680Y-8202D01*
X344348Y-8290D01*
X345016Y-8202D01*
X345639Y-7944D01*
X346174Y-7534D01*
X346584Y-6999D01*
X346842Y-6377D01*
X346930Y-5709D01*
X346842Y-5041D01*
X346584Y-4418D01*
X346485Y-4290D01*
X346660Y-3937D01*
X353721D01*
X353895Y-4290D01*
X353797Y-4418D01*
X353539Y-5041D01*
X353451Y-5709D01*
X353539Y-6377D01*
X353797Y-6999D01*
X354207Y-7534D01*
X354742Y-7944D01*
X355364Y-8202D01*
X356032Y-8290D01*
X356700Y-8202D01*
X357323Y-7944D01*
X357857Y-7534D01*
X358268Y-6999D01*
X358526Y-6377D01*
X358613Y-5709D01*
X358526Y-5041D01*
X358268Y-4418D01*
X358170Y-4290D01*
X358344Y-3937D01*
X365405D01*
X365579Y-4290D01*
X365481Y-4418D01*
X365223Y-5041D01*
X365135Y-5709D01*
X365223Y-6377D01*
X365481Y-6999D01*
X365891Y-7534D01*
X366426Y-7944D01*
X367048Y-8202D01*
X367716Y-8290D01*
X368385Y-8202D01*
X369007Y-7944D01*
X369542Y-7534D01*
X369685Y-7347D01*
X370079Y-7480D01*
X370079Y-144882D01*
X263878D01*
X246358Y-162402D01*
X245290Y-163469D01*
X244947Y-163499D01*
X244827Y-163484D01*
X244573Y-163104D01*
X243857Y-162626D01*
X243012Y-162458D01*
X242167Y-162626D01*
X241451Y-163104D01*
X241264Y-163384D01*
X240790D01*
X240538Y-163006D01*
X240222Y-162795D01*
Y-162402D01*
X240538Y-162191D01*
X241016Y-161475D01*
X241184Y-160630D01*
X241016Y-159785D01*
X240538Y-159069D01*
X240272Y-158891D01*
X240233Y-158500D01*
X256269Y-142464D01*
X314618D01*
X314654Y-142491D01*
X315277Y-142749D01*
X315945Y-142837D01*
X316613Y-142749D01*
X317235Y-142491D01*
X317770Y-142081D01*
X318180Y-141546D01*
X318438Y-140924D01*
X318526Y-140256D01*
X318438Y-139588D01*
X318180Y-138965D01*
X318153Y-138929D01*
Y-136571D01*
X318546Y-136377D01*
X318690Y-136487D01*
X319312Y-136745D01*
X319980Y-136833D01*
X320648Y-136745D01*
X321271Y-136487D01*
X321805Y-136077D01*
X322216Y-135543D01*
X322474Y-134920D01*
X322561Y-134252D01*
X322474Y-133584D01*
X322216Y-132961D01*
X321805Y-132427D01*
X321271Y-132017D01*
X320648Y-131759D01*
X319980Y-131671D01*
X319312Y-131759D01*
X318690Y-132017D01*
X318546Y-132127D01*
X318153Y-131932D01*
Y-121701D01*
X318180Y-121665D01*
X318438Y-121042D01*
X318444Y-120997D01*
X332358Y-107083D01*
X332570D01*
X332895Y-107218D01*
X333563Y-107306D01*
X334231Y-107218D01*
X334854Y-106960D01*
X335388Y-106550D01*
X335798Y-106015D01*
X336056Y-105393D01*
X336144Y-104724D01*
X336056Y-104056D01*
X335865Y-103595D01*
X336098Y-103245D01*
X336121Y-103231D01*
X336417Y-103270D01*
X337085Y-103182D01*
X337708Y-102924D01*
X338243Y-102514D01*
X338653Y-101979D01*
X338911Y-101357D01*
X338999Y-100689D01*
X338911Y-100021D01*
X338653Y-99398D01*
X338243Y-98864D01*
X337708Y-98454D01*
X337085Y-98196D01*
X336417Y-98108D01*
X335749Y-98196D01*
X335127Y-98454D01*
X334592Y-98864D01*
X334182Y-99398D01*
X333924Y-100021D01*
X333836Y-100689D01*
X333924Y-101357D01*
X334116Y-101819D01*
X333883Y-102168D01*
X333860Y-102182D01*
X333563Y-102143D01*
X332895Y-102231D01*
X332272Y-102489D01*
X332040Y-102667D01*
X331444D01*
X330599Y-102835D01*
X329883Y-103314D01*
X315322Y-117875D01*
X315277Y-117881D01*
X314654Y-118139D01*
X314120Y-118549D01*
X313710Y-119083D01*
X313452Y-119706D01*
X313364Y-120374D01*
X313452Y-121042D01*
X313710Y-121665D01*
X313737Y-121701D01*
Y-138048D01*
X267149D01*
X267124Y-137654D01*
X267302Y-137631D01*
X267924Y-137373D01*
X268459Y-136963D01*
X268869Y-136428D01*
X269127Y-135806D01*
X269215Y-135138D01*
X269127Y-134470D01*
X268869Y-133847D01*
X268459Y-133313D01*
X267924Y-132903D01*
X267302Y-132645D01*
X266634Y-132557D01*
X265966Y-132645D01*
X265343Y-132903D01*
X264809Y-133313D01*
X264399Y-133847D01*
X264141Y-134470D01*
X264053Y-135138D01*
X264141Y-135806D01*
X264399Y-136428D01*
X264809Y-136963D01*
X265343Y-137373D01*
X265966Y-137631D01*
X266144Y-137654D01*
X266118Y-138048D01*
X255354D01*
X254510Y-138216D01*
X253793Y-138695D01*
X219403Y-173085D01*
X218925Y-173801D01*
X218757Y-174646D01*
Y-176940D01*
X215322Y-180375D01*
X215277Y-180381D01*
X214654Y-180639D01*
X214120Y-181049D01*
X213710Y-181583D01*
X213452Y-182206D01*
X213364Y-182874D01*
X213452Y-183542D01*
X213710Y-184165D01*
X214120Y-184699D01*
X214654Y-185109D01*
X215277Y-185367D01*
X215945Y-185455D01*
X216613Y-185367D01*
X217235Y-185109D01*
X217770Y-184699D01*
X218180Y-184165D01*
X218438Y-183542D01*
X218444Y-183497D01*
X222526Y-179416D01*
X223004Y-178699D01*
X223172Y-177854D01*
Y-175560D01*
X232850Y-165883D01*
X233242Y-165921D01*
X233380Y-166128D01*
X234096Y-166607D01*
X234941Y-166775D01*
X235786Y-166607D01*
X236502Y-166128D01*
X236762Y-165739D01*
X237156D01*
X237415Y-166128D01*
X237730Y-166339D01*
Y-166732D01*
X237415Y-166943D01*
X236937Y-167659D01*
X236769Y-168504D01*
X236937Y-169349D01*
X237415Y-170065D01*
X237831Y-170343D01*
X237942Y-170591D01*
X237898Y-170861D01*
X237209Y-171551D01*
X237209Y-171551D01*
X237209Y-171551D01*
X236516Y-172244D01*
Y-175031D01*
X236122Y-175224D01*
X235739Y-174930D01*
X235117Y-174672D01*
X234449Y-174584D01*
X233781Y-174672D01*
X233158Y-174930D01*
X232795Y-175209D01*
X232737Y-175133D01*
X232202Y-174723D01*
X231580Y-174465D01*
X231461Y-174449D01*
X231518Y-174016D01*
X231430Y-173348D01*
X231172Y-172725D01*
X230762Y-172191D01*
X230228Y-171780D01*
X229605Y-171523D01*
X228937Y-171435D01*
X228269Y-171523D01*
X227646Y-171780D01*
X227112Y-172191D01*
X226702Y-172725D01*
X226444Y-173348D01*
X226356Y-174016D01*
X226444Y-174684D01*
X226702Y-175306D01*
X227112Y-175841D01*
X227646Y-176251D01*
X228269Y-176509D01*
X228387Y-176524D01*
X228330Y-176958D01*
X228418Y-177626D01*
X228676Y-178249D01*
X229086Y-178783D01*
X229621Y-179193D01*
X230243Y-179451D01*
X230912Y-179539D01*
X231580Y-179451D01*
X232202Y-179193D01*
X232489Y-178973D01*
X232624Y-178990D01*
X233158Y-179401D01*
X233781Y-179658D01*
X234449Y-179746D01*
X235117Y-179658D01*
X235739Y-179401D01*
X236122Y-179107D01*
X236516Y-179299D01*
Y-193996D01*
X255512Y-212993D01*
X255371Y-213408D01*
X255041Y-213452D01*
X254418Y-213710D01*
X253884Y-214120D01*
X253473Y-214654D01*
X253216Y-215277D01*
X253128Y-215945D01*
X253216Y-216613D01*
X253473Y-217235D01*
X253884Y-217770D01*
X254418Y-218180D01*
X255041Y-218438D01*
X255709Y-218526D01*
X256377Y-218438D01*
X256999Y-218180D01*
X257534Y-217770D01*
X257944Y-217235D01*
X258202Y-216613D01*
X258245Y-216283D01*
X258661Y-216141D01*
X259970Y-217450D01*
X259766Y-217803D01*
X259174Y-217881D01*
X258552Y-218139D01*
X258017Y-218549D01*
X257607Y-219083D01*
X257349Y-219706D01*
X257261Y-220374D01*
X257349Y-221042D01*
X257607Y-221665D01*
X258017Y-222199D01*
X258552Y-222609D01*
X259174Y-222867D01*
X259842Y-222955D01*
X260511Y-222867D01*
X261133Y-222609D01*
X261668Y-222199D01*
X262078Y-221665D01*
X262336Y-221042D01*
X262414Y-220451D01*
X262766Y-220246D01*
X271930Y-229411D01*
X271751Y-229844D01*
X271663Y-230512D01*
X271751Y-231180D01*
X272009Y-231802D01*
X272107Y-231930D01*
X271933Y-232283D01*
X264872D01*
X264697Y-231930D01*
X264796Y-231802D01*
X265053Y-231180D01*
X265141Y-230512D01*
X265053Y-229844D01*
X264796Y-229221D01*
X264385Y-228687D01*
X263851Y-228276D01*
X263228Y-228019D01*
X262560Y-227931D01*
X261892Y-228019D01*
X261270Y-228276D01*
X260735Y-228687D01*
X260325Y-229221D01*
X260067Y-229844D01*
X259979Y-230512D01*
X260067Y-231180D01*
X260325Y-231802D01*
X260423Y-231930D01*
X260249Y-232283D01*
X253187D01*
X253013Y-231930D01*
X253112Y-231802D01*
X253369Y-231180D01*
X253457Y-230512D01*
X253369Y-229844D01*
X253112Y-229221D01*
X252701Y-228687D01*
X252167Y-228276D01*
X251544Y-228019D01*
X250876Y-227931D01*
X250208Y-228019D01*
X249586Y-228276D01*
X249051Y-228687D01*
X248641Y-229221D01*
X248383Y-229844D01*
X248295Y-230512D01*
X248383Y-231180D01*
X248641Y-231802D01*
X248739Y-231930D01*
X248565Y-232283D01*
X241503D01*
X241329Y-231930D01*
X241427Y-231802D01*
X241685Y-231180D01*
X241773Y-230512D01*
X241685Y-229844D01*
X241427Y-229221D01*
X241017Y-228687D01*
X240483Y-228276D01*
X239860Y-228019D01*
X239192Y-227931D01*
X238524Y-228019D01*
X237902Y-228276D01*
X237367Y-228687D01*
X236957Y-229221D01*
X236699Y-229844D01*
X236611Y-230512D01*
X236699Y-231180D01*
X236957Y-231802D01*
X237055Y-231930D01*
X236881Y-232283D01*
X229819D01*
X229645Y-231930D01*
X229744Y-231802D01*
X230001Y-231180D01*
X230089Y-230512D01*
X230001Y-229844D01*
X229744Y-229221D01*
X229333Y-228687D01*
X228799Y-228276D01*
X228176Y-228019D01*
X227508Y-227931D01*
X226840Y-228019D01*
X226218Y-228276D01*
X225683Y-228687D01*
X225273Y-229221D01*
X225015Y-229844D01*
X224927Y-230512D01*
X225015Y-231180D01*
X225273Y-231802D01*
X225371Y-231930D01*
X225197Y-232283D01*
X218135D01*
X217961Y-231930D01*
X218059Y-231802D01*
X218317Y-231180D01*
X218405Y-230512D01*
X218317Y-229844D01*
X218059Y-229221D01*
X217649Y-228687D01*
X217115Y-228276D01*
X216492Y-228019D01*
X215824Y-227931D01*
X215156Y-228019D01*
X214534Y-228276D01*
X213999Y-228687D01*
X213589Y-229221D01*
X213331Y-229844D01*
X213243Y-230512D01*
X213331Y-231180D01*
X213589Y-231802D01*
X213687Y-231930D01*
X213513Y-232283D01*
X206451D01*
X206277Y-231930D01*
X206376Y-231802D01*
X206633Y-231180D01*
X206721Y-230512D01*
X206633Y-229844D01*
X206376Y-229221D01*
X205965Y-228687D01*
X205431Y-228276D01*
X204808Y-228019D01*
X204140Y-227931D01*
X203472Y-228019D01*
X202850Y-228276D01*
X202315Y-228687D01*
X201905Y-229221D01*
X201647Y-229844D01*
X201559Y-230512D01*
X201647Y-231180D01*
X201905Y-231802D01*
X202003Y-231930D01*
X201829Y-232283D01*
X194767D01*
X194593Y-231930D01*
X194691Y-231802D01*
X194949Y-231180D01*
X195037Y-230512D01*
X194949Y-229844D01*
X194691Y-229221D01*
X194281Y-228687D01*
X193747Y-228276D01*
X193124Y-228019D01*
X192456Y-227931D01*
X191788Y-228019D01*
X191166Y-228276D01*
X190631Y-228687D01*
X190221Y-229221D01*
X189963Y-229844D01*
X189875Y-230512D01*
X189963Y-231180D01*
X190221Y-231802D01*
X190319Y-231930D01*
X190145Y-232283D01*
X183083D01*
X182909Y-231930D01*
X183007Y-231802D01*
X183265Y-231180D01*
X183353Y-230512D01*
X183265Y-229844D01*
X183007Y-229221D01*
X182597Y-228687D01*
X182063Y-228276D01*
X181440Y-228019D01*
X180772Y-227931D01*
X180104Y-228019D01*
X179481Y-228276D01*
X178947Y-228687D01*
X178537Y-229221D01*
X178279Y-229844D01*
X178191Y-230512D01*
X178279Y-231180D01*
X178537Y-231802D01*
X178635Y-231930D01*
X178461Y-232283D01*
X171399D01*
X171225Y-231930D01*
X171323Y-231802D01*
X171581Y-231180D01*
X171669Y-230512D01*
X171581Y-229844D01*
X171323Y-229221D01*
X170913Y-228687D01*
X170379Y-228276D01*
X169756Y-228019D01*
X169088Y-227931D01*
X168420Y-228019D01*
X167798Y-228276D01*
X167263Y-228687D01*
X166853Y-229221D01*
X166595Y-229844D01*
X166507Y-230512D01*
X166595Y-231180D01*
X166853Y-231802D01*
X166951Y-231930D01*
X166777Y-232283D01*
X159715D01*
X159541Y-231930D01*
X159639Y-231802D01*
X159897Y-231180D01*
X159985Y-230512D01*
X159897Y-229844D01*
X159639Y-229221D01*
X159229Y-228687D01*
X158695Y-228276D01*
X158072Y-228019D01*
X157404Y-227931D01*
X156736Y-228019D01*
X156114Y-228276D01*
X155579Y-228687D01*
X155169Y-229221D01*
X154911Y-229844D01*
X154823Y-230512D01*
X154911Y-231180D01*
X155169Y-231802D01*
X155267Y-231930D01*
X155093Y-232283D01*
X148031D01*
X147857Y-231930D01*
X147955Y-231802D01*
X148213Y-231180D01*
X148301Y-230512D01*
X148213Y-229844D01*
X147955Y-229221D01*
X147545Y-228687D01*
X147011Y-228276D01*
X146388Y-228019D01*
X145720Y-227931D01*
X145052Y-228019D01*
X144430Y-228276D01*
X143895Y-228687D01*
X143485Y-229221D01*
X143227Y-229844D01*
X143139Y-230512D01*
X143227Y-231180D01*
X143485Y-231802D01*
X143583Y-231930D01*
X143409Y-232283D01*
X136347D01*
X136173Y-231930D01*
X136271Y-231802D01*
X136529Y-231180D01*
X136617Y-230512D01*
X136529Y-229844D01*
X136271Y-229221D01*
X135861Y-228687D01*
X135327Y-228276D01*
X134704Y-228019D01*
X134036Y-227931D01*
X133368Y-228019D01*
X132746Y-228276D01*
X132211Y-228687D01*
X131801Y-229221D01*
X131543Y-229844D01*
X131455Y-230512D01*
X131543Y-231180D01*
X131801Y-231802D01*
X131899Y-231930D01*
X131725Y-232283D01*
X124663D01*
X124489Y-231930D01*
X124587Y-231802D01*
X124845Y-231180D01*
X124933Y-230512D01*
X124845Y-229844D01*
X124587Y-229221D01*
X124177Y-228687D01*
X123643Y-228276D01*
X123020Y-228019D01*
X122352Y-227931D01*
X121684Y-228019D01*
X121061Y-228276D01*
X120527Y-228687D01*
X120117Y-229221D01*
X119859Y-229844D01*
X119771Y-230512D01*
X119859Y-231180D01*
X120117Y-231802D01*
X120215Y-231930D01*
X120041Y-232283D01*
X112979D01*
X112805Y-231930D01*
X112903Y-231802D01*
X113161Y-231180D01*
X113249Y-230512D01*
X113161Y-229844D01*
X112903Y-229221D01*
X112493Y-228687D01*
X111959Y-228276D01*
X111336Y-228019D01*
X110668Y-227931D01*
X110000Y-228019D01*
X109377Y-228276D01*
X108843Y-228687D01*
X108433Y-229221D01*
X108175Y-229844D01*
X108087Y-230512D01*
X108175Y-231180D01*
X108433Y-231802D01*
X108531Y-231930D01*
X108357Y-232283D01*
X107503D01*
X107503Y-232283D01*
Y-123031D01*
X107412Y-122571D01*
X107151Y-122180D01*
X107151Y-122180D01*
X104198Y-119227D01*
X103807Y-118966D01*
X103347Y-118875D01*
X103346Y-118875D01*
X79725D01*
X79724Y-118875D01*
X79264Y-118966D01*
X78873Y-119227D01*
X78873Y-119227D01*
X70367Y-127733D01*
X60039D01*
X60039Y-18701D01*
X54134Y-12795D01*
X3937D01*
Y-8174D01*
X4331Y-7989D01*
X4844Y-8202D01*
X5512Y-8290D01*
X6180Y-8202D01*
X6802Y-7944D01*
X7337Y-7534D01*
X7747Y-6999D01*
X8005Y-6377D01*
X8093Y-5709D01*
X8005Y-5041D01*
X7747Y-4418D01*
X7649Y-4290D01*
X7823Y-3937D01*
X14885D01*
D02*
G37*
G36*
X16246Y-107656D02*
X16175Y-107711D01*
X15386Y-108739D01*
X14890Y-109936D01*
X14721Y-111221D01*
X14890Y-112505D01*
X15386Y-113702D01*
X15812Y-114258D01*
X19267Y-110803D01*
X19685Y-111221D01*
X20103Y-110803D01*
X23558Y-114258D01*
X23984Y-113702D01*
X24287Y-112971D01*
X24713D01*
X25057Y-113802D01*
X25877Y-114871D01*
X26946Y-115691D01*
X28192Y-116207D01*
X29528Y-116383D01*
X30864Y-116207D01*
X32109Y-115691D01*
X32127Y-115677D01*
X32480Y-115851D01*
Y-120276D01*
X32664Y-120459D01*
X32403Y-120756D01*
X32109Y-120529D01*
X30864Y-120014D01*
X29528Y-119838D01*
X28192Y-120014D01*
X26946Y-120529D01*
X25877Y-121350D01*
X25057Y-122419D01*
X24803Y-123031D01*
X24409D01*
X24156Y-122419D01*
X23335Y-121350D01*
X22266Y-120529D01*
X21021Y-120014D01*
X19685Y-119838D01*
X18349Y-120014D01*
X17104Y-120529D01*
X16035Y-121350D01*
X15214Y-122419D01*
X14699Y-123664D01*
X14523Y-125000D01*
X14699Y-126336D01*
X15214Y-127581D01*
X16035Y-128650D01*
X17104Y-129471D01*
X18349Y-129986D01*
X19685Y-130162D01*
X21021Y-129986D01*
X22266Y-129471D01*
X23335Y-128650D01*
X24156Y-127581D01*
X24409Y-126969D01*
X24803D01*
X25057Y-127581D01*
X25877Y-128650D01*
X26946Y-129471D01*
X28192Y-129986D01*
X29528Y-130162D01*
X30864Y-129986D01*
X32109Y-129471D01*
X32505Y-129166D01*
X32804Y-128937D01*
X32804D01*
Y-128937D01*
X32804Y-128937D01*
X60039Y-128937D01*
Y-128937D01*
X70866D01*
X79724Y-120079D01*
X103347D01*
X106299Y-123031D01*
Y-232283D01*
X101295D01*
X101121Y-231930D01*
X101219Y-231802D01*
X101477Y-231180D01*
X101565Y-230512D01*
X101477Y-229844D01*
X101219Y-229221D01*
X100809Y-228687D01*
X100275Y-228276D01*
X99652Y-228019D01*
X98984Y-227931D01*
X98316Y-228019D01*
X97693Y-228276D01*
X97159Y-228687D01*
X96749Y-229221D01*
X96491Y-229844D01*
X96403Y-230512D01*
X96491Y-231180D01*
X96749Y-231802D01*
X96847Y-231930D01*
X96673Y-232283D01*
X89611D01*
X89437Y-231930D01*
X89535Y-231802D01*
X89793Y-231180D01*
X89881Y-230512D01*
X89793Y-229844D01*
X89535Y-229221D01*
X89125Y-228687D01*
X88591Y-228276D01*
X87968Y-228019D01*
X87300Y-227931D01*
X86632Y-228019D01*
X86009Y-228276D01*
X85475Y-228687D01*
X85065Y-229221D01*
X84807Y-229844D01*
X84719Y-230512D01*
X84807Y-231180D01*
X85065Y-231802D01*
X85163Y-231930D01*
X84989Y-232283D01*
X77927D01*
X77753Y-231930D01*
X77851Y-231802D01*
X78109Y-231180D01*
X78197Y-230512D01*
X78109Y-229844D01*
X77851Y-229221D01*
X77441Y-228687D01*
X76907Y-228276D01*
X76284Y-228019D01*
X75616Y-227931D01*
X74948Y-228019D01*
X74325Y-228276D01*
X73791Y-228687D01*
X73381Y-229221D01*
X73123Y-229844D01*
X73035Y-230512D01*
X73123Y-231180D01*
X73381Y-231802D01*
X73479Y-231930D01*
X73305Y-232283D01*
X66243D01*
X66069Y-231930D01*
X66167Y-231802D01*
X66425Y-231180D01*
X66513Y-230512D01*
X66425Y-229844D01*
X66167Y-229221D01*
X65757Y-228687D01*
X65223Y-228276D01*
X64600Y-228019D01*
X63932Y-227931D01*
X63264Y-228019D01*
X62641Y-228276D01*
X62107Y-228687D01*
X61697Y-229221D01*
X61439Y-229844D01*
X61351Y-230512D01*
X61439Y-231180D01*
X61697Y-231802D01*
X61795Y-231930D01*
X61621Y-232283D01*
X54559D01*
X54385Y-231930D01*
X54483Y-231802D01*
X54741Y-231180D01*
X54829Y-230512D01*
X54741Y-229844D01*
X54483Y-229221D01*
X54073Y-228687D01*
X53539Y-228276D01*
X52916Y-228019D01*
X52248Y-227931D01*
X51580Y-228019D01*
X50957Y-228276D01*
X50423Y-228687D01*
X50013Y-229221D01*
X49755Y-229844D01*
X49667Y-230512D01*
X49755Y-231180D01*
X50013Y-231802D01*
X50111Y-231930D01*
X49937Y-232283D01*
X42875D01*
X42701Y-231930D01*
X42799Y-231802D01*
X43057Y-231180D01*
X43145Y-230512D01*
X43057Y-229844D01*
X42799Y-229221D01*
X42389Y-228687D01*
X41854Y-228276D01*
X41232Y-228019D01*
X40564Y-227931D01*
X39896Y-228019D01*
X39273Y-228276D01*
X38739Y-228687D01*
X38328Y-229221D01*
X38071Y-229844D01*
X37983Y-230512D01*
X38071Y-231180D01*
X38328Y-231802D01*
X38427Y-231930D01*
X38253Y-232283D01*
X31191D01*
X31017Y-231930D01*
X31115Y-231802D01*
X31373Y-231180D01*
X31461Y-230512D01*
X31373Y-229844D01*
X31115Y-229221D01*
X30705Y-228687D01*
X30170Y-228276D01*
X29548Y-228019D01*
X28880Y-227931D01*
X28212Y-228019D01*
X27589Y-228276D01*
X27055Y-228687D01*
X26645Y-229221D01*
X26387Y-229844D01*
X26299Y-230512D01*
X26387Y-231180D01*
X26645Y-231802D01*
X26743Y-231930D01*
X26569Y-232283D01*
X19507D01*
X19333Y-231930D01*
X19431Y-231802D01*
X19689Y-231180D01*
X19777Y-230512D01*
X19689Y-229844D01*
X19431Y-229221D01*
X19021Y-228687D01*
X18486Y-228276D01*
X17864Y-228019D01*
X17196Y-227931D01*
X16528Y-228019D01*
X15905Y-228276D01*
X15371Y-228687D01*
X14961Y-229221D01*
X14703Y-229844D01*
X14615Y-230512D01*
X14703Y-231180D01*
X14961Y-231802D01*
X15059Y-231930D01*
X14885Y-232283D01*
X7823D01*
X7649Y-231930D01*
X7747Y-231802D01*
X8005Y-231180D01*
X8093Y-230512D01*
X8005Y-229844D01*
X7747Y-229221D01*
X7337Y-228687D01*
X6802Y-228276D01*
X6180Y-228019D01*
X5512Y-227931D01*
X4844Y-228019D01*
X4331Y-228231D01*
X3937Y-228046D01*
Y-107283D01*
X16119D01*
X16246Y-107656D01*
D02*
G37*
G36*
X323819Y-223327D02*
X278051D01*
X241339Y-186614D01*
Y-176181D01*
X238060Y-172903D01*
Y-172403D01*
X238750Y-171713D01*
X238783Y-171663D01*
X238829Y-171625D01*
X238854Y-171579D01*
X240016Y-170417D01*
X240203Y-170340D01*
X240812Y-169730D01*
X240890Y-169544D01*
X243715Y-166718D01*
X244238Y-166501D01*
X244847Y-165892D01*
X245064Y-165369D01*
X245944Y-164489D01*
X245990Y-164465D01*
X246028Y-164419D01*
X246078Y-164385D01*
X247210Y-163253D01*
X252589Y-157874D01*
X259941D01*
X269193Y-148622D01*
X291289D01*
X291316Y-148724D01*
X291653Y-149308D01*
X292129Y-149784D01*
X292713Y-150121D01*
X293364Y-150295D01*
X294038D01*
X294689Y-150121D01*
X295272Y-149784D01*
X295748Y-149308D01*
X295985Y-148898D01*
X296007Y-148889D01*
X296513D01*
X296534Y-148898D01*
X296771Y-149308D01*
X297248Y-149784D01*
X297199Y-150285D01*
X297025Y-150587D01*
X296850Y-151238D01*
Y-151912D01*
X297025Y-152563D01*
X297362Y-153146D01*
X297838Y-153623D01*
X298422Y-153959D01*
X299073Y-154134D01*
X299746D01*
X300397Y-153959D01*
X300981Y-153623D01*
X301457Y-153146D01*
X301794Y-152563D01*
X301969Y-151912D01*
Y-151238D01*
X301794Y-150587D01*
X301457Y-150004D01*
X300981Y-149527D01*
X301029Y-149026D01*
X301203Y-148724D01*
X301231Y-148622D01*
X323819D01*
Y-223327D01*
D02*
G37*
%LPC*%
G36*
X298524Y-12281D02*
X297856Y-12369D01*
X297233Y-12627D01*
X296698Y-13037D01*
X296288Y-13572D01*
X296030Y-14194D01*
X295970Y-14651D01*
X295966Y-14682D01*
X295569D01*
X295565Y-14651D01*
X295505Y-14194D01*
X295247Y-13572D01*
X294837Y-13037D01*
X294302Y-12627D01*
X293680Y-12369D01*
X293012Y-12281D01*
X292344Y-12369D01*
X291721Y-12627D01*
X291187Y-13037D01*
X290776Y-13572D01*
X290519Y-14194D01*
X290431Y-14862D01*
X290519Y-15530D01*
X290776Y-16153D01*
X291187Y-16687D01*
X291721Y-17097D01*
X292344Y-17355D01*
X293012Y-17443D01*
X293680Y-17355D01*
X294302Y-17097D01*
X294837Y-16687D01*
X295247Y-16153D01*
X295505Y-15530D01*
X295565Y-15074D01*
X295569Y-15043D01*
X295966D01*
X295970Y-15074D01*
X296030Y-15530D01*
X296288Y-16153D01*
X296698Y-16687D01*
X297233Y-17097D01*
X297856Y-17355D01*
X298524Y-17443D01*
X299192Y-17355D01*
X299814Y-17097D01*
X300349Y-16687D01*
X300759Y-16153D01*
X301017Y-15530D01*
X301105Y-14862D01*
X301017Y-14194D01*
X300759Y-13572D01*
X300349Y-13037D01*
X299814Y-12627D01*
X299192Y-12369D01*
X298524Y-12281D01*
D02*
G37*
G36*
X357390Y-11556D02*
X345374D01*
X344606Y-11709D01*
X343955Y-12144D01*
X340227Y-15872D01*
X339841Y-15795D01*
X339686Y-15420D01*
X339212Y-14804D01*
X338595Y-14330D01*
X337877Y-14033D01*
X337106Y-13931D01*
X333169D01*
X332399Y-14033D01*
X331680Y-14330D01*
X331063Y-14804D01*
X330590Y-15420D01*
X330293Y-16139D01*
X330191Y-16909D01*
X330293Y-17680D01*
X330590Y-18399D01*
X331063Y-19015D01*
X331680Y-19489D01*
X332277Y-19736D01*
X332443Y-19974D01*
X332496Y-20196D01*
X332336Y-21004D01*
X332487Y-21763D01*
X332051Y-21850D01*
X331269Y-22372D01*
X330747Y-23153D01*
X330564Y-24075D01*
X330747Y-24996D01*
X331269Y-25778D01*
X331042Y-26092D01*
X330590Y-26680D01*
X330293Y-27398D01*
X330191Y-28169D01*
X330293Y-28940D01*
X330590Y-29658D01*
X331063Y-30275D01*
X331680Y-30749D01*
X332399Y-31046D01*
X333169Y-31148D01*
X337106D01*
X337877Y-31046D01*
X338595Y-30749D01*
X339212Y-30275D01*
X339686Y-29658D01*
X339983Y-28940D01*
X340085Y-28169D01*
X339983Y-27398D01*
X339744Y-26822D01*
X339989Y-26469D01*
X340059Y-26483D01*
X340981Y-26300D01*
X341530Y-25933D01*
X341831Y-25807D01*
X342132Y-25933D01*
X342681Y-26300D01*
X343602Y-26483D01*
X344524Y-26300D01*
X345073Y-25933D01*
X345374Y-25807D01*
X345675Y-25933D01*
X346224Y-26300D01*
X346410Y-26578D01*
X346379Y-26731D01*
Y-35331D01*
X336782Y-44929D01*
X335846Y-43993D01*
X335987Y-43578D01*
X336298Y-43536D01*
X336920Y-43279D01*
X337455Y-42868D01*
X337865Y-42334D01*
X338123Y-41711D01*
X338211Y-41043D01*
X338123Y-40375D01*
X337865Y-39753D01*
X337455Y-39218D01*
X336920Y-38808D01*
X336298Y-38550D01*
X335630Y-38462D01*
X334962Y-38550D01*
X334339Y-38808D01*
X333805Y-39218D01*
X333395Y-39753D01*
X333137Y-40375D01*
X333096Y-40686D01*
X332680Y-40828D01*
X321893Y-30040D01*
Y-19240D01*
X321920Y-19204D01*
X322178Y-18581D01*
X322266Y-17913D01*
X322178Y-17245D01*
X322469Y-16918D01*
X322747Y-16802D01*
X323282Y-16392D01*
X323692Y-15857D01*
X323950Y-15235D01*
X324038Y-14567D01*
X323950Y-13899D01*
X323692Y-13276D01*
X323282Y-12742D01*
X322747Y-12332D01*
X322125Y-12074D01*
X321457Y-11986D01*
X320789Y-12074D01*
X320166Y-12332D01*
X319685Y-12701D01*
X319204Y-12332D01*
X318581Y-12074D01*
X317913Y-11986D01*
X317245Y-12074D01*
X316623Y-12332D01*
X316088Y-12742D01*
X315678Y-13276D01*
X315420Y-13899D01*
X315332Y-14567D01*
X315420Y-15235D01*
X315678Y-15857D01*
X316088Y-16392D01*
X316623Y-16802D01*
X316901Y-16918D01*
X317192Y-17245D01*
X317104Y-17913D01*
X317192Y-18581D01*
X317450Y-19204D01*
X317477Y-19240D01*
Y-30955D01*
X317645Y-31800D01*
X318124Y-32516D01*
X319156Y-33548D01*
X319010Y-33959D01*
X318525Y-34023D01*
X317902Y-34280D01*
X317368Y-34691D01*
X316958Y-35225D01*
X316700Y-35848D01*
X316612Y-36516D01*
X316700Y-37184D01*
X316958Y-37806D01*
X317368Y-38341D01*
X317902Y-38751D01*
X318525Y-39009D01*
X319193Y-39097D01*
X319861Y-39009D01*
X320483Y-38751D01*
X321018Y-38341D01*
X321428Y-37806D01*
X321686Y-37184D01*
X321750Y-36699D01*
X322160Y-36552D01*
X333659Y-48051D01*
X325266Y-56445D01*
X324743Y-57227D01*
X324560Y-58148D01*
Y-81187D01*
X300380Y-105367D01*
X297003D01*
X296870Y-104973D01*
X297022Y-104857D01*
X297432Y-104322D01*
X297690Y-103699D01*
X297778Y-103031D01*
X297690Y-102363D01*
X297432Y-101741D01*
X297022Y-101206D01*
X296488Y-100796D01*
X295865Y-100538D01*
X295197Y-100450D01*
X294529Y-100538D01*
X293906Y-100796D01*
X293372Y-101206D01*
X292962Y-101741D01*
X292704Y-102363D01*
X292616Y-103031D01*
X292704Y-103699D01*
X292962Y-104322D01*
X293372Y-104857D01*
X293524Y-104973D01*
X293391Y-105367D01*
X276378D01*
X275456Y-105550D01*
X274675Y-106072D01*
X247730Y-133018D01*
X247265Y-132925D01*
X247117Y-132568D01*
X246707Y-132033D01*
X246172Y-131623D01*
X245550Y-131365D01*
X244882Y-131277D01*
X244214Y-131365D01*
X243591Y-131623D01*
X243057Y-132033D01*
X242647Y-132568D01*
X242389Y-133190D01*
X242301Y-133858D01*
X242389Y-134526D01*
X242647Y-135149D01*
X243057Y-135683D01*
X243591Y-136094D01*
X243949Y-136242D01*
X244041Y-136706D01*
X240144Y-140603D01*
X237088D01*
X236954Y-140210D01*
X237081Y-140112D01*
X237491Y-139578D01*
X237749Y-138955D01*
X237837Y-138287D01*
X237749Y-137619D01*
X237491Y-136997D01*
X237081Y-136462D01*
X236546Y-136052D01*
X235924Y-135794D01*
X235255Y-135706D01*
X234587Y-135794D01*
X233965Y-136052D01*
X233430Y-136462D01*
X233020Y-136997D01*
X232762Y-137619D01*
X232674Y-138287D01*
X232762Y-138955D01*
X233020Y-139578D01*
X233430Y-140112D01*
X233557Y-140210D01*
X233423Y-140603D01*
X190453D01*
X189531Y-140787D01*
X188750Y-141309D01*
X158435Y-171624D01*
X157913Y-172405D01*
X157729Y-173327D01*
Y-182001D01*
X157645Y-182206D01*
X157557Y-182874D01*
X157645Y-183542D01*
X157903Y-184165D01*
X158313Y-184699D01*
X158847Y-185109D01*
X159470Y-185367D01*
X160138Y-185455D01*
X160806Y-185367D01*
X161428Y-185109D01*
X161963Y-184699D01*
X162373Y-184165D01*
X162631Y-183542D01*
X162719Y-182874D01*
X162631Y-182206D01*
X162546Y-182001D01*
Y-174324D01*
X191450Y-145420D01*
X241142D01*
X242063Y-145237D01*
X242845Y-144715D01*
X277376Y-110184D01*
X301378D01*
X302300Y-110001D01*
X303081Y-109479D01*
X308167Y-104393D01*
X308554Y-104563D01*
X308788Y-105129D01*
X309198Y-105664D01*
X309733Y-106074D01*
X310356Y-106332D01*
X311024Y-106420D01*
X311692Y-106332D01*
X312314Y-106074D01*
X312849Y-105664D01*
X313259Y-105129D01*
X313517Y-104507D01*
X313605Y-103839D01*
X313517Y-103171D01*
X313259Y-102548D01*
X312849Y-102014D01*
X312314Y-101603D01*
X311748Y-101369D01*
X311578Y-100982D01*
X328672Y-83888D01*
X329194Y-83107D01*
X329377Y-82185D01*
Y-59146D01*
X338627Y-49896D01*
X349785Y-38737D01*
X352175D01*
X352943Y-38585D01*
X353595Y-38150D01*
X360770Y-30975D01*
X361205Y-30323D01*
X361357Y-29555D01*
Y-15523D01*
X361205Y-14755D01*
X360770Y-14104D01*
X358809Y-12144D01*
X358158Y-11709D01*
X357390Y-11556D01*
D02*
G37*
G36*
X258366Y-11887D02*
X257698Y-11975D01*
X257076Y-12233D01*
X256541Y-12643D01*
X256131Y-13178D01*
X255873Y-13801D01*
X255785Y-14469D01*
X255873Y-15136D01*
X256131Y-15759D01*
X256541Y-16294D01*
X257076Y-16704D01*
X257698Y-16962D01*
X258366Y-17050D01*
X259034Y-16962D01*
X259657Y-16704D01*
X260191Y-16294D01*
X260601Y-15759D01*
X260859Y-15136D01*
X260947Y-14469D01*
X260859Y-13801D01*
X260601Y-13178D01*
X260191Y-12643D01*
X259657Y-12233D01*
X259034Y-11975D01*
X258366Y-11887D01*
D02*
G37*
G36*
X264862Y-12183D02*
X264194Y-12271D01*
X263572Y-12528D01*
X263037Y-12939D01*
X262627Y-13473D01*
X262369Y-14096D01*
X262281Y-14764D01*
X262369Y-15432D01*
X262627Y-16054D01*
X263037Y-16589D01*
X263572Y-16999D01*
X264194Y-17257D01*
X264862Y-17345D01*
X265530Y-17257D01*
X266153Y-16999D01*
X266687Y-16589D01*
X267097Y-16054D01*
X267355Y-15432D01*
X267443Y-14764D01*
X267355Y-14096D01*
X267097Y-13473D01*
X266687Y-12939D01*
X266153Y-12528D01*
X265530Y-12271D01*
X264862Y-12183D01*
D02*
G37*
G36*
X282087Y-12281D02*
X281419Y-12369D01*
X280796Y-12627D01*
X280261Y-13037D01*
X279851Y-13572D01*
X279593Y-14194D01*
X279505Y-14862D01*
X279593Y-15530D01*
X279851Y-16153D01*
X280261Y-16687D01*
X280796Y-17097D01*
X281419Y-17355D01*
X282087Y-17443D01*
X282755Y-17355D01*
X283377Y-17097D01*
X283912Y-16687D01*
X284322Y-16153D01*
X284580Y-15530D01*
X284668Y-14862D01*
X284580Y-14194D01*
X284322Y-13572D01*
X283912Y-13037D01*
X283377Y-12627D01*
X282755Y-12369D01*
X282087Y-12281D01*
D02*
G37*
G36*
X198012Y-16797D02*
X196984Y-16932D01*
X196026Y-17329D01*
X195677Y-17597D01*
X198012Y-19933D01*
X200347Y-17597D01*
X199997Y-17329D01*
X199040Y-16932D01*
X198012Y-16797D01*
D02*
G37*
G36*
X209252D02*
X208224Y-16932D01*
X207266Y-17329D01*
X206917Y-17597D01*
X209252Y-19933D01*
X211587Y-17597D01*
X211237Y-17329D01*
X210280Y-16932D01*
X209252Y-16797D01*
D02*
G37*
G36*
X212422Y-18432D02*
X210087Y-20768D01*
X212422Y-23103D01*
X212691Y-22753D01*
X213088Y-21795D01*
X213223Y-20768D01*
X213088Y-19740D01*
X212691Y-18782D01*
X212422Y-18432D01*
D02*
G37*
G36*
X201182Y-18432D02*
X198847Y-20768D01*
X201182Y-23103D01*
X201451Y-22753D01*
X201848Y-21795D01*
X201983Y-20768D01*
X201848Y-19740D01*
X201451Y-18782D01*
X201182Y-18432D01*
D02*
G37*
G36*
X194841D02*
X194573Y-18782D01*
X194176Y-19740D01*
X194041Y-20768D01*
X194176Y-21795D01*
X194573Y-22753D01*
X194841Y-23103D01*
X197177Y-20768D01*
X194841Y-18432D01*
D02*
G37*
G36*
X206082D02*
X205813Y-18782D01*
X205416Y-19740D01*
X205281Y-20768D01*
X205416Y-21795D01*
X205813Y-22753D01*
X206082Y-23103D01*
X208417Y-20768D01*
X206082Y-18432D01*
D02*
G37*
G36*
X118898Y-19419D02*
X118230Y-19507D01*
X117607Y-19765D01*
X117072Y-20175D01*
X116662Y-20709D01*
X116404Y-21332D01*
X116316Y-22000D01*
X116404Y-22668D01*
X116662Y-23291D01*
X117072Y-23825D01*
X117607Y-24235D01*
X118230Y-24493D01*
X118898Y-24581D01*
X119566Y-24493D01*
X120188Y-24235D01*
X120723Y-23825D01*
X121133Y-23291D01*
X121391Y-22668D01*
X121479Y-22000D01*
X121391Y-21332D01*
X121133Y-20709D01*
X120723Y-20175D01*
X120188Y-19765D01*
X119566Y-19507D01*
X118898Y-19419D01*
D02*
G37*
G36*
X209252Y-21603D02*
X206917Y-23938D01*
X207266Y-24207D01*
X208224Y-24603D01*
X209252Y-24739D01*
X210280Y-24603D01*
X211237Y-24207D01*
X211587Y-23938D01*
X209252Y-21603D01*
D02*
G37*
G36*
X198012Y-21603D02*
X195677Y-23938D01*
X196026Y-24207D01*
X196984Y-24603D01*
X198012Y-24739D01*
X199040Y-24603D01*
X199997Y-24207D01*
X200347Y-23938D01*
X198012Y-21603D01*
D02*
G37*
G36*
X253386Y-16634D02*
X245118D01*
Y-24902D01*
X253386D01*
Y-16634D01*
D02*
G37*
G36*
X162146D02*
X153878D01*
Y-24902D01*
X162146D01*
Y-16634D01*
D02*
G37*
G36*
X239252Y-16598D02*
X238173Y-16740D01*
X237167Y-17157D01*
X236304Y-17819D01*
X235641Y-18683D01*
X235225Y-19689D01*
X235083Y-20768D01*
X235225Y-21847D01*
X235641Y-22852D01*
X236304Y-23716D01*
X237167Y-24379D01*
X238173Y-24795D01*
X239252Y-24937D01*
X240331Y-24795D01*
X241337Y-24379D01*
X242200Y-23716D01*
X242863Y-22852D01*
X243279Y-21847D01*
X243422Y-20768D01*
X243279Y-19689D01*
X242863Y-18683D01*
X242200Y-17819D01*
X241337Y-17157D01*
X240331Y-16740D01*
X239252Y-16598D01*
D02*
G37*
G36*
X229252D02*
X228173Y-16740D01*
X227167Y-17157D01*
X226304Y-17819D01*
X225641Y-18683D01*
X225224Y-19689D01*
X225082Y-20768D01*
X225224Y-21847D01*
X225641Y-22852D01*
X226304Y-23716D01*
X227167Y-24379D01*
X228173Y-24795D01*
X229252Y-24937D01*
X230331Y-24795D01*
X231337Y-24379D01*
X232200Y-23716D01*
X232863Y-22852D01*
X233279Y-21847D01*
X233421Y-20768D01*
X233279Y-19689D01*
X232863Y-18683D01*
X232200Y-17819D01*
X231337Y-17157D01*
X230331Y-16740D01*
X229252Y-16598D01*
D02*
G37*
G36*
X219252D02*
X218173Y-16740D01*
X217167Y-17157D01*
X216304Y-17819D01*
X215641Y-18683D01*
X215225Y-19689D01*
X215083Y-20768D01*
X215225Y-21847D01*
X215641Y-22852D01*
X216304Y-23716D01*
X217167Y-24379D01*
X218173Y-24795D01*
X219252Y-24937D01*
X220331Y-24795D01*
X221337Y-24379D01*
X222200Y-23716D01*
X222863Y-22852D01*
X223279Y-21847D01*
X223422Y-20768D01*
X223279Y-19689D01*
X222863Y-18683D01*
X222200Y-17819D01*
X221337Y-17157D01*
X220331Y-16740D01*
X219252Y-16598D01*
D02*
G37*
G36*
X188012D02*
X186933Y-16740D01*
X185927Y-17157D01*
X185064Y-17819D01*
X184401Y-18683D01*
X183984Y-19689D01*
X183842Y-20768D01*
X183984Y-21847D01*
X184401Y-22852D01*
X185064Y-23716D01*
X185927Y-24379D01*
X186933Y-24795D01*
X188012Y-24937D01*
X189091Y-24795D01*
X190097Y-24379D01*
X190960Y-23716D01*
X191623Y-22852D01*
X192039Y-21847D01*
X192181Y-20768D01*
X192039Y-19689D01*
X191623Y-18683D01*
X190960Y-17819D01*
X190097Y-17157D01*
X189091Y-16740D01*
X188012Y-16598D01*
D02*
G37*
G36*
X178012D02*
X176933Y-16740D01*
X175927Y-17157D01*
X175064Y-17819D01*
X174401Y-18683D01*
X173984Y-19689D01*
X173842Y-20768D01*
X173984Y-21847D01*
X174401Y-22852D01*
X175064Y-23716D01*
X175927Y-24379D01*
X176933Y-24795D01*
X178012Y-24937D01*
X179091Y-24795D01*
X180097Y-24379D01*
X180960Y-23716D01*
X181623Y-22852D01*
X182039Y-21847D01*
X182181Y-20768D01*
X182039Y-19689D01*
X181623Y-18683D01*
X180960Y-17819D01*
X180097Y-17157D01*
X179091Y-16740D01*
X178012Y-16598D01*
D02*
G37*
G36*
X168012D02*
X166933Y-16740D01*
X165927Y-17157D01*
X165064Y-17819D01*
X164401Y-18683D01*
X163984Y-19689D01*
X163842Y-20768D01*
X163984Y-21847D01*
X164401Y-22852D01*
X165064Y-23716D01*
X165927Y-24379D01*
X166933Y-24795D01*
X168012Y-24937D01*
X169091Y-24795D01*
X170097Y-24379D01*
X170960Y-23716D01*
X171623Y-22852D01*
X172039Y-21847D01*
X172181Y-20768D01*
X172039Y-19689D01*
X171623Y-18683D01*
X170960Y-17819D01*
X170097Y-17157D01*
X169091Y-16740D01*
X168012Y-16598D01*
D02*
G37*
G36*
X204232Y-27045D02*
X203564Y-27133D01*
X202942Y-27391D01*
X202407Y-27801D01*
X201997Y-28335D01*
X201739Y-28958D01*
X201651Y-29626D01*
X201739Y-30294D01*
X201997Y-30917D01*
X202407Y-31451D01*
X202942Y-31861D01*
X203564Y-32119D01*
X204232Y-32207D01*
X204900Y-32119D01*
X205523Y-31861D01*
X206057Y-31451D01*
X206468Y-30917D01*
X206726Y-30294D01*
X206813Y-29626D01*
X206726Y-28958D01*
X206468Y-28335D01*
X206057Y-27801D01*
X205523Y-27391D01*
X204900Y-27133D01*
X204232Y-27045D01*
D02*
G37*
G36*
X198130Y-27242D02*
X197462Y-27330D01*
X196839Y-27588D01*
X196305Y-27998D01*
X195895Y-28532D01*
X195637Y-29155D01*
X195549Y-29823D01*
X195637Y-30491D01*
X195895Y-31113D01*
X196305Y-31648D01*
X196839Y-32058D01*
X197462Y-32316D01*
X198130Y-32404D01*
X198798Y-32316D01*
X199420Y-32058D01*
X199955Y-31648D01*
X200365Y-31113D01*
X200623Y-30491D01*
X200711Y-29823D01*
X200623Y-29155D01*
X200365Y-28532D01*
X199955Y-27998D01*
X199420Y-27588D01*
X198798Y-27330D01*
X198130Y-27242D01*
D02*
G37*
G36*
X164665Y-29309D02*
X163997Y-29397D01*
X163375Y-29654D01*
X162840Y-30065D01*
X162430Y-30599D01*
X162172Y-31222D01*
X162084Y-31890D01*
X162172Y-32558D01*
X162430Y-33180D01*
X162840Y-33715D01*
X163375Y-34125D01*
X163997Y-34383D01*
X164665Y-34471D01*
X165333Y-34383D01*
X165956Y-34125D01*
X166490Y-33715D01*
X166901Y-33180D01*
X167158Y-32558D01*
X167246Y-31890D01*
X167158Y-31222D01*
X166901Y-30599D01*
X166490Y-30065D01*
X165956Y-29654D01*
X165333Y-29397D01*
X164665Y-29309D01*
D02*
G37*
G36*
X214469Y-30195D02*
X213801Y-30282D01*
X213178Y-30540D01*
X212643Y-30950D01*
X212233Y-31485D01*
X211975Y-32107D01*
X211887Y-32776D01*
X211975Y-33444D01*
X212233Y-34066D01*
X212643Y-34601D01*
X213178Y-35011D01*
X213801Y-35269D01*
X214469Y-35357D01*
X215137Y-35269D01*
X215759Y-35011D01*
X216294Y-34601D01*
X216704Y-34066D01*
X216962Y-33444D01*
X217050Y-32776D01*
X216962Y-32107D01*
X216704Y-31485D01*
X216294Y-30950D01*
X215759Y-30540D01*
X215137Y-30282D01*
X214469Y-30195D01*
D02*
G37*
G36*
X246555Y-30391D02*
X245887Y-30479D01*
X245265Y-30737D01*
X244730Y-31147D01*
X244320Y-31682D01*
X244062Y-32304D01*
X243974Y-32972D01*
X244062Y-33641D01*
X244320Y-34263D01*
X244730Y-34798D01*
X245265Y-35208D01*
X245887Y-35466D01*
X246555Y-35554D01*
X247223Y-35466D01*
X247846Y-35208D01*
X248380Y-34798D01*
X248790Y-34263D01*
X249048Y-33641D01*
X249136Y-32972D01*
X249048Y-32304D01*
X248790Y-31682D01*
X248380Y-31147D01*
X247846Y-30737D01*
X247223Y-30479D01*
X246555Y-30391D01*
D02*
G37*
G36*
X310138Y-32163D02*
X309470Y-32251D01*
X308847Y-32509D01*
X308313Y-32919D01*
X307903Y-33454D01*
X307645Y-34076D01*
X307557Y-34744D01*
X307645Y-35412D01*
X307903Y-36035D01*
X308313Y-36569D01*
X308847Y-36979D01*
X309470Y-37237D01*
X310138Y-37325D01*
X310806Y-37237D01*
X311428Y-36979D01*
X311963Y-36569D01*
X312373Y-36035D01*
X312631Y-35412D01*
X312719Y-34744D01*
X312631Y-34076D01*
X312373Y-33454D01*
X311963Y-32919D01*
X311428Y-32509D01*
X310806Y-32251D01*
X310138Y-32163D01*
D02*
G37*
G36*
X134547Y-34427D02*
X133879Y-34515D01*
X133257Y-34773D01*
X132722Y-35183D01*
X132312Y-35717D01*
X132054Y-36340D01*
X131966Y-37008D01*
X132054Y-37676D01*
X132312Y-38298D01*
X132722Y-38833D01*
X133257Y-39243D01*
X133879Y-39501D01*
X134547Y-39589D01*
X135215Y-39501D01*
X135838Y-39243D01*
X136372Y-38833D01*
X136783Y-38298D01*
X137040Y-37676D01*
X137128Y-37008D01*
X137040Y-36340D01*
X136783Y-35717D01*
X136372Y-35183D01*
X135838Y-34773D01*
X135215Y-34515D01*
X134547Y-34427D01*
D02*
G37*
G36*
X296457Y-30982D02*
X295789Y-31070D01*
X295166Y-31328D01*
X294632Y-31738D01*
X294221Y-32272D01*
X293964Y-32895D01*
X293876Y-33563D01*
X293964Y-34231D01*
X294221Y-34854D01*
X294632Y-35388D01*
X294658Y-35409D01*
X294348Y-35814D01*
X294090Y-36436D01*
X294002Y-37104D01*
X294090Y-37772D01*
X294348Y-38395D01*
X294758Y-38929D01*
X295293Y-39339D01*
X295915Y-39597D01*
X296583Y-39685D01*
X297251Y-39597D01*
X297874Y-39339D01*
X298408Y-38929D01*
X298818Y-38395D01*
X299076Y-37772D01*
X299164Y-37104D01*
X299076Y-36436D01*
X298818Y-35814D01*
X298408Y-35279D01*
X298381Y-35258D01*
X298692Y-34854D01*
X298950Y-34231D01*
X299038Y-33563D01*
X298950Y-32895D01*
X298692Y-32272D01*
X298282Y-31738D01*
X297747Y-31328D01*
X297125Y-31070D01*
X296457Y-30982D01*
D02*
G37*
G36*
X115748Y-37970D02*
X115080Y-38058D01*
X114457Y-38316D01*
X113923Y-38726D01*
X113513Y-39261D01*
X113255Y-39883D01*
X113167Y-40551D01*
X113255Y-41219D01*
X113513Y-41842D01*
X113923Y-42376D01*
X114457Y-42786D01*
X115080Y-43044D01*
X115748Y-43132D01*
X116416Y-43044D01*
X117039Y-42786D01*
X117573Y-42376D01*
X117983Y-41842D01*
X118241Y-41219D01*
X118329Y-40551D01*
X118241Y-39883D01*
X117983Y-39261D01*
X117573Y-38726D01*
X117039Y-38316D01*
X116416Y-38058D01*
X115748Y-37970D01*
D02*
G37*
G36*
X354626Y-38462D02*
X353958Y-38550D01*
X353335Y-38808D01*
X352801Y-39218D01*
X352391Y-39753D01*
X352133Y-40375D01*
X352045Y-41043D01*
X352133Y-41711D01*
X352391Y-42334D01*
X352801Y-42868D01*
X353335Y-43279D01*
X353958Y-43536D01*
X354626Y-43624D01*
X355294Y-43536D01*
X355917Y-43279D01*
X356451Y-42868D01*
X356861Y-42334D01*
X357119Y-41711D01*
X357207Y-41043D01*
X357119Y-40375D01*
X356861Y-39753D01*
X356451Y-39218D01*
X355917Y-38808D01*
X355294Y-38550D01*
X354626Y-38462D01*
D02*
G37*
G36*
X277678Y-39589D02*
X277010Y-39677D01*
X276387Y-39935D01*
X275853Y-40345D01*
X275443Y-40880D01*
X275185Y-41502D01*
X275097Y-42170D01*
X275185Y-42838D01*
X275443Y-43461D01*
X275853Y-43995D01*
X276387Y-44406D01*
X277010Y-44664D01*
X277678Y-44751D01*
X278346Y-44664D01*
X278969Y-44406D01*
X279503Y-43995D01*
X279913Y-43461D01*
X280171Y-42838D01*
X280259Y-42170D01*
X280171Y-41502D01*
X279913Y-40880D01*
X279503Y-40345D01*
X278969Y-39935D01*
X278346Y-39677D01*
X277678Y-39589D01*
D02*
G37*
G36*
X150591Y-35706D02*
X149923Y-35794D01*
X149300Y-36052D01*
X148765Y-36462D01*
X148355Y-36997D01*
X148097Y-37619D01*
X148009Y-38287D01*
X148097Y-38956D01*
X148355Y-39578D01*
X148519Y-39791D01*
X148390Y-40270D01*
X148119Y-40383D01*
X147584Y-40793D01*
X147174Y-41328D01*
X146916Y-41950D01*
X146828Y-42618D01*
X146916Y-43286D01*
X147174Y-43909D01*
X147584Y-44443D01*
X148119Y-44853D01*
X148741Y-45111D01*
X149409Y-45199D01*
X150077Y-45111D01*
X150700Y-44853D01*
X151235Y-44443D01*
X151645Y-43909D01*
X151903Y-43286D01*
X151991Y-42618D01*
X151903Y-41950D01*
X151645Y-41328D01*
X151481Y-41115D01*
X151610Y-40635D01*
X151881Y-40523D01*
X152416Y-40113D01*
X152826Y-39578D01*
X153084Y-38956D01*
X153172Y-38287D01*
X153084Y-37619D01*
X152826Y-36997D01*
X152416Y-36462D01*
X151881Y-36052D01*
X151259Y-35794D01*
X150591Y-35706D01*
D02*
G37*
G36*
X125689Y-37281D02*
X125021Y-37369D01*
X124398Y-37627D01*
X123864Y-38037D01*
X123454Y-38572D01*
X123196Y-39194D01*
X123108Y-39862D01*
X123196Y-40530D01*
X123454Y-41153D01*
X123823Y-41634D01*
X123454Y-42115D01*
X123196Y-42737D01*
X123108Y-43406D01*
X123196Y-44074D01*
X123454Y-44696D01*
X123864Y-45231D01*
X124398Y-45641D01*
X125021Y-45899D01*
X125689Y-45987D01*
X126357Y-45899D01*
X126979Y-45641D01*
X127514Y-45231D01*
X127924Y-44696D01*
X128182Y-44074D01*
X128270Y-43406D01*
X128182Y-42737D01*
X127924Y-42115D01*
X127555Y-41634D01*
X127924Y-41153D01*
X128182Y-40530D01*
X128270Y-39862D01*
X128182Y-39194D01*
X127924Y-38572D01*
X127514Y-38037D01*
X126979Y-37627D01*
X126357Y-37369D01*
X125689Y-37281D01*
D02*
G37*
G36*
X257185Y-43580D02*
X256517Y-43668D01*
X255894Y-43926D01*
X255360Y-44336D01*
X254950Y-44871D01*
X254692Y-45493D01*
X254604Y-46161D01*
X254692Y-46830D01*
X254950Y-47452D01*
X255360Y-47987D01*
X255894Y-48397D01*
X256517Y-48655D01*
X257185Y-48742D01*
X257853Y-48655D01*
X258476Y-48397D01*
X259010Y-47987D01*
X259420Y-47452D01*
X259678Y-46830D01*
X259766Y-46161D01*
X259678Y-45493D01*
X259420Y-44871D01*
X259010Y-44336D01*
X258476Y-43926D01*
X257853Y-43668D01*
X257185Y-43580D01*
D02*
G37*
G36*
X281890Y-45647D02*
X281222Y-45735D01*
X280599Y-45993D01*
X280065Y-46403D01*
X279654Y-46938D01*
X279397Y-47560D01*
X279309Y-48228D01*
X279397Y-48896D01*
X279654Y-49519D01*
X280065Y-50054D01*
X280599Y-50464D01*
X281222Y-50722D01*
X281890Y-50810D01*
X282558Y-50722D01*
X283180Y-50464D01*
X283715Y-50054D01*
X284125Y-49519D01*
X284383Y-48896D01*
X284471Y-48228D01*
X284383Y-47560D01*
X284125Y-46938D01*
X283715Y-46403D01*
X283180Y-45993D01*
X282558Y-45735D01*
X281890Y-45647D01*
D02*
G37*
G36*
X197835Y-46828D02*
X197167Y-46916D01*
X196544Y-47174D01*
X196010Y-47584D01*
X195599Y-48119D01*
X195342Y-48741D01*
X195254Y-49409D01*
X195342Y-50077D01*
X195599Y-50700D01*
X196010Y-51235D01*
X196544Y-51645D01*
X197167Y-51903D01*
X197835Y-51991D01*
X198503Y-51903D01*
X199125Y-51645D01*
X199660Y-51235D01*
X200070Y-50700D01*
X200328Y-50077D01*
X200416Y-49409D01*
X200328Y-48741D01*
X200070Y-48119D01*
X199660Y-47584D01*
X199125Y-47174D01*
X198503Y-46916D01*
X197835Y-46828D01*
D02*
G37*
G36*
X187402Y-46927D02*
X186733Y-47015D01*
X186111Y-47273D01*
X185576Y-47683D01*
X185166Y-48217D01*
X184908Y-48840D01*
X184820Y-49508D01*
X184908Y-50176D01*
X185166Y-50798D01*
X185576Y-51333D01*
X186111Y-51743D01*
X186733Y-52001D01*
X187402Y-52089D01*
X188070Y-52001D01*
X188692Y-51743D01*
X189227Y-51333D01*
X189637Y-50798D01*
X189895Y-50176D01*
X189983Y-49508D01*
X189895Y-48840D01*
X189637Y-48217D01*
X189227Y-47683D01*
X188692Y-47273D01*
X188070Y-47015D01*
X187402Y-46927D01*
D02*
G37*
G36*
X236803Y-50577D02*
X236135Y-50665D01*
X235512Y-50923D01*
X234977Y-51333D01*
X234567Y-51868D01*
X234309Y-52490D01*
X234221Y-53158D01*
X234263Y-53473D01*
X233912Y-53824D01*
X233858Y-53816D01*
X233190Y-53904D01*
X232568Y-54162D01*
X232033Y-54572D01*
X231623Y-55107D01*
X231365Y-55730D01*
X231277Y-56398D01*
X231365Y-57066D01*
X231623Y-57688D01*
X232030Y-58218D01*
X231623Y-58749D01*
X231365Y-59371D01*
X231277Y-60039D01*
X231365Y-60707D01*
X231623Y-61330D01*
X232033Y-61865D01*
X232568Y-62275D01*
X233190Y-62533D01*
X233858Y-62621D01*
X234526Y-62533D01*
X235149Y-62275D01*
X235683Y-61865D01*
X236094Y-61330D01*
X236351Y-60707D01*
X236439Y-60039D01*
X236351Y-59371D01*
X236094Y-58749D01*
X235687Y-58218D01*
X236094Y-57688D01*
X236351Y-57066D01*
X236439Y-56398D01*
X236398Y-56083D01*
X236749Y-55732D01*
X236803Y-55739D01*
X237471Y-55651D01*
X238093Y-55393D01*
X238628Y-54983D01*
X239038Y-54449D01*
X239296Y-53826D01*
X239384Y-53158D01*
X239296Y-52490D01*
X239038Y-51868D01*
X238628Y-51333D01*
X238093Y-50923D01*
X237471Y-50665D01*
X236803Y-50577D01*
D02*
G37*
G36*
X169193Y-49683D02*
X168525Y-49771D01*
X167902Y-50029D01*
X167368Y-50439D01*
X166958Y-50973D01*
X166700Y-51596D01*
X166612Y-52264D01*
X166700Y-52932D01*
X166958Y-53554D01*
X167368Y-54089D01*
X167902Y-54499D01*
X168525Y-54757D01*
X169193Y-54845D01*
X169861Y-54757D01*
X170484Y-54499D01*
X171018Y-54089D01*
X171428Y-53554D01*
X171686Y-52932D01*
X171774Y-52264D01*
X171686Y-51596D01*
X171428Y-50973D01*
X171018Y-50439D01*
X170484Y-50029D01*
X169861Y-49771D01*
X169193Y-49683D01*
D02*
G37*
G36*
X315846Y-51553D02*
X315178Y-51641D01*
X314556Y-51898D01*
X314021Y-52309D01*
X313611Y-52843D01*
X313353Y-53466D01*
X313265Y-54134D01*
X313353Y-54802D01*
X313611Y-55424D01*
X314021Y-55959D01*
X314556Y-56369D01*
X315178Y-56627D01*
X315846Y-56715D01*
X316514Y-56627D01*
X317137Y-56369D01*
X317672Y-55959D01*
X318082Y-55424D01*
X318340Y-54802D01*
X318428Y-54134D01*
X318340Y-53466D01*
X318082Y-52843D01*
X317672Y-52309D01*
X317137Y-51898D01*
X316514Y-51641D01*
X315846Y-51553D01*
D02*
G37*
G36*
X273622Y-54407D02*
X272954Y-54495D01*
X272332Y-54753D01*
X271797Y-55163D01*
X271387Y-55698D01*
X271129Y-56320D01*
X271041Y-56988D01*
X271129Y-57656D01*
X271387Y-58279D01*
X271797Y-58813D01*
X272332Y-59224D01*
X272954Y-59481D01*
X273622Y-59569D01*
X274290Y-59481D01*
X274913Y-59224D01*
X275447Y-58813D01*
X275857Y-58279D01*
X276115Y-57656D01*
X276203Y-56988D01*
X276115Y-56320D01*
X275857Y-55698D01*
X275447Y-55163D01*
X274913Y-54753D01*
X274290Y-54495D01*
X273622Y-54407D01*
D02*
G37*
G36*
X183563D02*
X182895Y-54495D01*
X182272Y-54753D01*
X181738Y-55163D01*
X181328Y-55698D01*
X181070Y-56320D01*
X180982Y-56988D01*
X181070Y-57656D01*
X181328Y-58279D01*
X181738Y-58813D01*
X182272Y-59224D01*
X182895Y-59481D01*
X183563Y-59569D01*
X184231Y-59481D01*
X184853Y-59224D01*
X185388Y-58813D01*
X185798Y-58279D01*
X186056Y-57656D01*
X186144Y-56988D01*
X186056Y-56320D01*
X185798Y-55698D01*
X185388Y-55163D01*
X184853Y-54753D01*
X184231Y-54495D01*
X183563Y-54407D01*
D02*
G37*
G36*
X339469Y-55194D02*
X338801Y-55282D01*
X338178Y-55540D01*
X337643Y-55950D01*
X337233Y-56485D01*
X336975Y-57108D01*
X336887Y-57776D01*
X336975Y-58444D01*
X337233Y-59066D01*
X337643Y-59601D01*
X338178Y-60011D01*
X338801Y-60269D01*
X339469Y-60357D01*
X340137Y-60269D01*
X340759Y-60011D01*
X341294Y-59601D01*
X341704Y-59066D01*
X341962Y-58444D01*
X342050Y-57776D01*
X341962Y-57108D01*
X341704Y-56485D01*
X341294Y-55950D01*
X340759Y-55540D01*
X340137Y-55282D01*
X339469Y-55194D01*
D02*
G37*
G36*
X354823Y-60192D02*
X353487Y-60368D01*
X352242Y-60884D01*
X351173Y-61704D01*
X350352Y-62773D01*
X350098Y-63386D01*
X349705D01*
X349451Y-62773D01*
X348631Y-61704D01*
X347561Y-60884D01*
X346316Y-60368D01*
X344980Y-60192D01*
X343644Y-60368D01*
X342399Y-60884D01*
X341330Y-61704D01*
X340510Y-62773D01*
X339994Y-64018D01*
X339818Y-65354D01*
X339994Y-66690D01*
X340510Y-67936D01*
X341330Y-69005D01*
X342399Y-69825D01*
X343644Y-70341D01*
X344980Y-70517D01*
X346316Y-70341D01*
X347561Y-69825D01*
X348631Y-69005D01*
X349451Y-67936D01*
X349705Y-67323D01*
X350098D01*
X350352Y-67936D01*
X351173Y-69005D01*
X352242Y-69825D01*
X353487Y-70341D01*
X354823Y-70517D01*
X356159Y-70341D01*
X357404Y-69825D01*
X358473Y-69005D01*
X359294Y-67936D01*
X359809Y-66690D01*
X359985Y-65354D01*
X359809Y-64018D01*
X359294Y-62773D01*
X358473Y-61704D01*
X357404Y-60884D01*
X356159Y-60368D01*
X354823Y-60192D01*
D02*
G37*
G36*
X258858Y-60017D02*
X258190Y-60105D01*
X257568Y-60363D01*
X257033Y-60773D01*
X256623Y-61308D01*
X256365Y-61930D01*
X256277Y-62598D01*
X256365Y-63266D01*
X256623Y-63889D01*
X257033Y-64424D01*
X257568Y-64834D01*
X258190Y-65092D01*
X258858Y-65180D01*
X259526Y-65092D01*
X260149Y-64834D01*
X260683Y-64424D01*
X261094Y-63889D01*
X261351Y-63266D01*
X261439Y-62598D01*
X261351Y-61930D01*
X261094Y-61308D01*
X260683Y-60773D01*
X260149Y-60363D01*
X259526Y-60105D01*
X258858Y-60017D01*
D02*
G37*
G36*
X175984Y-60608D02*
X175316Y-60696D01*
X174694Y-60954D01*
X174159Y-61364D01*
X173749Y-61898D01*
X173491Y-62521D01*
X173403Y-63189D01*
X173491Y-63857D01*
X173749Y-64480D01*
X174159Y-65014D01*
X174694Y-65424D01*
X175316Y-65682D01*
X175984Y-65770D01*
X176652Y-65682D01*
X177275Y-65424D01*
X177809Y-65014D01*
X178220Y-64480D01*
X178477Y-63857D01*
X178565Y-63189D01*
X178477Y-62521D01*
X178220Y-61898D01*
X177809Y-61364D01*
X177275Y-60954D01*
X176652Y-60696D01*
X175984Y-60608D01*
D02*
G37*
G36*
X237205Y-67202D02*
X236537Y-67290D01*
X235914Y-67548D01*
X235433Y-67917D01*
X234952Y-67548D01*
X234330Y-67290D01*
X233661Y-67202D01*
X232993Y-67290D01*
X232371Y-67548D01*
X231836Y-67958D01*
X231426Y-68493D01*
X231168Y-69115D01*
X231080Y-69784D01*
X231168Y-70451D01*
X231426Y-71074D01*
X231836Y-71609D01*
X232371Y-72019D01*
X232993Y-72277D01*
X233661Y-72365D01*
X234330Y-72277D01*
X234952Y-72019D01*
X235433Y-71650D01*
X235914Y-72019D01*
X236537Y-72277D01*
X237205Y-72365D01*
X237873Y-72277D01*
X238495Y-72019D01*
X239030Y-71609D01*
X239440Y-71074D01*
X239698Y-70451D01*
X239786Y-69784D01*
X239698Y-69115D01*
X239440Y-68493D01*
X239030Y-67958D01*
X238495Y-67548D01*
X237873Y-67290D01*
X237205Y-67202D01*
D02*
G37*
G36*
X118898Y-63809D02*
X118230Y-63897D01*
X117607Y-64154D01*
X117072Y-64565D01*
X116662Y-65099D01*
X116404Y-65722D01*
X116316Y-66390D01*
X116404Y-67058D01*
X116662Y-67680D01*
X117072Y-68215D01*
X117607Y-68625D01*
X118230Y-68883D01*
X118898Y-68971D01*
X119566Y-68883D01*
X120188Y-68625D01*
X120723Y-68215D01*
X121133Y-67680D01*
X121391Y-67058D01*
X121479Y-66390D01*
X121391Y-65722D01*
X121133Y-65099D01*
X120723Y-64565D01*
X120188Y-64154D01*
X119566Y-63897D01*
X118898Y-63809D01*
D02*
G37*
G36*
X127657Y-63954D02*
X126989Y-64042D01*
X126367Y-64300D01*
X125832Y-64710D01*
X125422Y-65245D01*
X125164Y-65867D01*
X125076Y-66535D01*
X125164Y-67203D01*
X125422Y-67826D01*
X125832Y-68361D01*
X126367Y-68771D01*
X126989Y-69029D01*
X127657Y-69117D01*
X128325Y-69029D01*
X128948Y-68771D01*
X129483Y-68361D01*
X129893Y-67826D01*
X130151Y-67203D01*
X130239Y-66535D01*
X130151Y-65867D01*
X129893Y-65245D01*
X129483Y-64710D01*
X128948Y-64300D01*
X128325Y-64042D01*
X127657Y-63954D01*
D02*
G37*
G36*
X312402Y-69072D02*
X311734Y-69160D01*
X311111Y-69418D01*
X310576Y-69828D01*
X310166Y-70363D01*
X309947Y-70893D01*
X309917Y-70901D01*
X309571D01*
X309542Y-70893D01*
X309322Y-70363D01*
X308912Y-69828D01*
X308377Y-69418D01*
X307755Y-69160D01*
X307087Y-69072D01*
X306419Y-69160D01*
X305796Y-69418D01*
X305261Y-69828D01*
X304851Y-70363D01*
X304593Y-70986D01*
X304505Y-71653D01*
X304593Y-72322D01*
X304851Y-72944D01*
X305261Y-73479D01*
X305796Y-73889D01*
X306419Y-74147D01*
X307087Y-74235D01*
X307755Y-74147D01*
X308377Y-73889D01*
X308912Y-73479D01*
X309322Y-72944D01*
X309542Y-72414D01*
X309571Y-72406D01*
X309917D01*
X309947Y-72414D01*
X310166Y-72944D01*
X310576Y-73479D01*
X311111Y-73889D01*
X311734Y-74147D01*
X312402Y-74235D01*
X313070Y-74147D01*
X313692Y-73889D01*
X314227Y-73479D01*
X314637Y-72944D01*
X314895Y-72322D01*
X314983Y-71653D01*
X314895Y-70986D01*
X314637Y-70363D01*
X314227Y-69828D01*
X313692Y-69418D01*
X313070Y-69160D01*
X312402Y-69072D01*
D02*
G37*
G36*
X167421Y-62970D02*
X166753Y-63058D01*
X166131Y-63316D01*
X165596Y-63726D01*
X165186Y-64261D01*
X164928Y-64883D01*
X164840Y-65551D01*
X164928Y-66219D01*
X165186Y-66842D01*
X165555Y-67323D01*
X165186Y-67804D01*
X164928Y-68426D01*
X164840Y-69095D01*
X164928Y-69762D01*
X165186Y-70385D01*
X165596Y-70920D01*
X166131Y-71330D01*
X166753Y-71588D01*
X167421Y-71676D01*
X168089Y-71588D01*
X168712Y-71330D01*
X169246Y-70920D01*
X169657Y-70385D01*
X169914Y-69762D01*
X170002Y-69095D01*
X169914Y-68426D01*
X169657Y-67804D01*
X169287Y-67323D01*
X169657Y-66842D01*
X169914Y-66219D01*
X170002Y-65551D01*
X169914Y-64883D01*
X169657Y-64261D01*
X169246Y-63726D01*
X168712Y-63316D01*
X168089Y-63058D01*
X167421Y-62970D01*
D02*
G37*
G36*
X292028Y-68285D02*
X291359Y-68373D01*
X290737Y-68631D01*
X290202Y-69041D01*
X289792Y-69576D01*
X289534Y-70198D01*
X289446Y-70866D01*
X289534Y-71534D01*
X289792Y-72157D01*
X290202Y-72691D01*
X290737Y-73102D01*
X291359Y-73359D01*
X292028Y-73447D01*
X292696Y-73359D01*
X293318Y-73102D01*
X293853Y-72691D01*
X294263Y-72157D01*
X294521Y-71534D01*
X294609Y-70866D01*
X294521Y-70198D01*
X294263Y-69576D01*
X293853Y-69041D01*
X293318Y-68631D01*
X292696Y-68373D01*
X292028Y-68285D01*
D02*
G37*
G36*
X128051Y-70155D02*
X127383Y-70243D01*
X126761Y-70501D01*
X126226Y-70911D01*
X125816Y-71446D01*
X125558Y-72068D01*
X125470Y-72736D01*
X125558Y-73404D01*
X125816Y-74027D01*
X126226Y-74561D01*
X126761Y-74971D01*
X127383Y-75229D01*
X128051Y-75317D01*
X128719Y-75229D01*
X129342Y-74971D01*
X129876Y-74561D01*
X130287Y-74027D01*
X130544Y-73404D01*
X130632Y-72736D01*
X130544Y-72068D01*
X130287Y-71446D01*
X129876Y-70911D01*
X129342Y-70501D01*
X128719Y-70243D01*
X128051Y-70155D01*
D02*
G37*
G36*
X354823Y-73972D02*
X353487Y-74147D01*
X352242Y-74663D01*
X351173Y-75484D01*
X350352Y-76553D01*
X350098Y-77165D01*
X349705D01*
X349451Y-76553D01*
X348631Y-75484D01*
X347562Y-74663D01*
X346316Y-74147D01*
X344980Y-73972D01*
X343644Y-74147D01*
X342399Y-74663D01*
X341330Y-75484D01*
X340510Y-76553D01*
X339994Y-77798D01*
X339818Y-79134D01*
X339994Y-80470D01*
X340510Y-81715D01*
X341330Y-82784D01*
X342399Y-83605D01*
X343644Y-84120D01*
X344980Y-84296D01*
X346316Y-84120D01*
X347562Y-83605D01*
X348631Y-82784D01*
X349451Y-81715D01*
X349705Y-81102D01*
X350098D01*
X350352Y-81715D01*
X351173Y-82784D01*
X352242Y-83605D01*
X353487Y-84120D01*
X354823Y-84296D01*
X356159Y-84120D01*
X357404Y-83605D01*
X358473Y-82784D01*
X359294Y-81715D01*
X359809Y-80470D01*
X359985Y-79134D01*
X359809Y-77798D01*
X359294Y-76553D01*
X358473Y-75484D01*
X357404Y-74663D01*
X356159Y-74147D01*
X354823Y-73972D01*
D02*
G37*
G36*
X167717Y-72517D02*
X167049Y-72605D01*
X166426Y-72863D01*
X165891Y-73273D01*
X165481Y-73808D01*
X165223Y-74430D01*
X165135Y-75098D01*
X165223Y-75766D01*
X165481Y-76389D01*
X165891Y-76924D01*
X166426Y-77334D01*
X167049Y-77592D01*
X167717Y-77680D01*
X168385Y-77592D01*
X169007Y-77334D01*
X169542Y-76924D01*
X169952Y-76389D01*
X170210Y-75766D01*
X170298Y-75098D01*
X170210Y-74430D01*
X169952Y-73808D01*
X169542Y-73273D01*
X169007Y-72863D01*
X168385Y-72605D01*
X167717Y-72517D01*
D02*
G37*
G36*
X154134Y-75175D02*
X153466Y-75263D01*
X152843Y-75521D01*
X152309Y-75931D01*
X151899Y-76465D01*
X151641Y-77088D01*
X151553Y-77756D01*
X151641Y-78424D01*
X151899Y-79046D01*
X152309Y-79581D01*
X152843Y-79991D01*
X153466Y-80249D01*
X154134Y-80337D01*
X154802Y-80249D01*
X155424Y-79991D01*
X155959Y-79581D01*
X156369Y-79046D01*
X156627Y-78424D01*
X156715Y-77756D01*
X156627Y-77088D01*
X156369Y-76465D01*
X155959Y-75931D01*
X155424Y-75521D01*
X154802Y-75263D01*
X154134Y-75175D01*
D02*
G37*
G36*
X257087Y-78029D02*
X256419Y-78117D01*
X255796Y-78375D01*
X255261Y-78785D01*
X254851Y-79320D01*
X254593Y-79942D01*
X254505Y-80610D01*
X254593Y-81278D01*
X254851Y-81901D01*
X255261Y-82435D01*
X255796Y-82846D01*
X256419Y-83103D01*
X257087Y-83191D01*
X257755Y-83103D01*
X258377Y-82846D01*
X258912Y-82435D01*
X259322Y-81901D01*
X259580Y-81278D01*
X259668Y-80610D01*
X259580Y-79942D01*
X259322Y-79320D01*
X258912Y-78785D01*
X258377Y-78375D01*
X257755Y-78117D01*
X257087Y-78029D01*
D02*
G37*
G36*
X138878Y-78324D02*
X138210Y-78412D01*
X137587Y-78670D01*
X137053Y-79080D01*
X136643Y-79615D01*
X136385Y-80238D01*
X136297Y-80905D01*
X136385Y-81574D01*
X136643Y-82196D01*
X137053Y-82731D01*
X137587Y-83141D01*
X138210Y-83399D01*
X138878Y-83487D01*
X139546Y-83399D01*
X140168Y-83141D01*
X140703Y-82731D01*
X141113Y-82196D01*
X141371Y-81574D01*
X141459Y-80905D01*
X141371Y-80238D01*
X141113Y-79615D01*
X140703Y-79080D01*
X140168Y-78670D01*
X139546Y-78412D01*
X138878Y-78324D01*
D02*
G37*
G36*
X237205Y-76257D02*
X236537Y-76345D01*
X235914Y-76603D01*
X235380Y-77013D01*
X234969Y-77548D01*
X234712Y-78171D01*
X234624Y-78839D01*
X234712Y-79507D01*
X234969Y-80129D01*
X235267Y-80517D01*
X235478Y-80852D01*
X235068Y-81387D01*
X234810Y-82009D01*
X234722Y-82677D01*
X234810Y-83345D01*
X235068Y-83968D01*
X235478Y-84502D01*
X236013Y-84913D01*
X236635Y-85170D01*
X237303Y-85258D01*
X237971Y-85170D01*
X238594Y-84913D01*
X239128Y-84502D01*
X239539Y-83968D01*
X239796Y-83345D01*
X239884Y-82677D01*
X239796Y-82009D01*
X239539Y-81387D01*
X239128Y-80852D01*
X239215Y-80422D01*
X239440Y-80129D01*
X239698Y-79507D01*
X239786Y-78839D01*
X239698Y-78171D01*
X239440Y-77548D01*
X239030Y-77013D01*
X238495Y-76603D01*
X237873Y-76345D01*
X237205Y-76257D01*
D02*
G37*
G36*
X259547Y-84328D02*
X258879Y-84416D01*
X258257Y-84674D01*
X257722Y-85084D01*
X257312Y-85619D01*
X257054Y-86241D01*
X256966Y-86910D01*
X257054Y-87577D01*
X257312Y-88200D01*
X257722Y-88735D01*
X258257Y-89145D01*
X258879Y-89403D01*
X259547Y-89491D01*
X260215Y-89403D01*
X260838Y-89145D01*
X261372Y-88735D01*
X261783Y-88200D01*
X262040Y-87577D01*
X262128Y-86910D01*
X262040Y-86241D01*
X261783Y-85619D01*
X261372Y-85084D01*
X260838Y-84674D01*
X260215Y-84416D01*
X259547Y-84328D01*
D02*
G37*
G36*
X336122Y-84525D02*
X335454Y-84613D01*
X334832Y-84871D01*
X334297Y-85281D01*
X333887Y-85816D01*
X333629Y-86438D01*
X333541Y-87106D01*
X333629Y-87774D01*
X333887Y-88397D01*
X334297Y-88931D01*
X334832Y-89342D01*
X335454Y-89600D01*
X336122Y-89687D01*
X336790Y-89600D01*
X337413Y-89342D01*
X337947Y-88931D01*
X338357Y-88397D01*
X338615Y-87774D01*
X338703Y-87106D01*
X338615Y-86438D01*
X338357Y-85816D01*
X337947Y-85281D01*
X337413Y-84871D01*
X336790Y-84613D01*
X336122Y-84525D01*
D02*
G37*
G36*
X303346Y-84624D02*
X302678Y-84711D01*
X302056Y-84969D01*
X301521Y-85380D01*
X301111Y-85914D01*
X300853Y-86537D01*
X300765Y-87205D01*
X300853Y-87873D01*
X301111Y-88495D01*
X301521Y-89030D01*
X302056Y-89440D01*
X302678Y-89698D01*
X303346Y-89786D01*
X304014Y-89698D01*
X304637Y-89440D01*
X305172Y-89030D01*
X305582Y-88495D01*
X305840Y-87873D01*
X305928Y-87205D01*
X305840Y-86537D01*
X305582Y-85914D01*
X305172Y-85380D01*
X304637Y-84969D01*
X304014Y-84711D01*
X303346Y-84624D01*
D02*
G37*
G36*
X354823Y-87751D02*
X353487Y-87927D01*
X352242Y-88443D01*
X351173Y-89263D01*
X350352Y-90332D01*
X350098Y-90945D01*
X349705D01*
X349451Y-90332D01*
X348631Y-89263D01*
X347561Y-88443D01*
X346316Y-87927D01*
X344980Y-87751D01*
X343644Y-87927D01*
X342399Y-88443D01*
X341330Y-89263D01*
X340510Y-90332D01*
X339994Y-91577D01*
X339818Y-92913D01*
X339994Y-94249D01*
X340510Y-95495D01*
X341330Y-96564D01*
X342399Y-97384D01*
X343644Y-97900D01*
X344980Y-98076D01*
X346316Y-97900D01*
X347561Y-97384D01*
X348631Y-96564D01*
X349451Y-95495D01*
X349705Y-94882D01*
X350098D01*
X350352Y-95495D01*
X351173Y-96564D01*
X352242Y-97384D01*
X353487Y-97900D01*
X354823Y-98076D01*
X356159Y-97900D01*
X357404Y-97384D01*
X358473Y-96564D01*
X359294Y-95495D01*
X359809Y-94249D01*
X359985Y-92913D01*
X359809Y-91577D01*
X359294Y-90332D01*
X358473Y-89263D01*
X357404Y-88443D01*
X356159Y-87927D01*
X354823Y-87751D01*
D02*
G37*
G36*
X118898Y-86003D02*
X118230Y-86091D01*
X117607Y-86349D01*
X117072Y-86759D01*
X116662Y-87294D01*
X116404Y-87916D01*
X116316Y-88585D01*
X116404Y-89253D01*
X116662Y-89875D01*
X117072Y-90410D01*
X117607Y-90820D01*
X118230Y-91078D01*
X118898Y-91166D01*
X119566Y-91078D01*
X120188Y-90820D01*
X120723Y-90410D01*
X121133Y-89875D01*
X121391Y-89253D01*
X121479Y-88585D01*
X121391Y-87916D01*
X121133Y-87294D01*
X120723Y-86759D01*
X120188Y-86349D01*
X119566Y-86091D01*
X118898Y-86003D01*
D02*
G37*
G36*
X282185Y-87675D02*
X281517Y-87763D01*
X280894Y-88021D01*
X280360Y-88431D01*
X279950Y-88965D01*
X279692Y-89588D01*
X279604Y-90256D01*
X279692Y-90924D01*
X279950Y-91546D01*
X280360Y-92081D01*
X280894Y-92491D01*
X281517Y-92749D01*
X282185Y-92837D01*
X282853Y-92749D01*
X283476Y-92491D01*
X284010Y-92081D01*
X284420Y-91546D01*
X284678Y-90924D01*
X284766Y-90256D01*
X284678Y-89588D01*
X284420Y-88965D01*
X284010Y-88431D01*
X283476Y-88021D01*
X282853Y-87763D01*
X282185Y-87675D01*
D02*
G37*
G36*
X143110Y-90332D02*
X142442Y-90420D01*
X141820Y-90678D01*
X141285Y-91088D01*
X140875Y-91623D01*
X140617Y-92245D01*
X140529Y-92913D01*
X140617Y-93581D01*
X140875Y-94204D01*
X141285Y-94739D01*
X141820Y-95149D01*
X142442Y-95407D01*
X143110Y-95495D01*
X143778Y-95407D01*
X144401Y-95149D01*
X144935Y-94739D01*
X145346Y-94204D01*
X145603Y-93581D01*
X145691Y-92913D01*
X145603Y-92245D01*
X145346Y-91623D01*
X144935Y-91088D01*
X144401Y-90678D01*
X143778Y-90420D01*
X143110Y-90332D01*
D02*
G37*
G36*
X173917Y-80588D02*
X173249Y-80676D01*
X172627Y-80934D01*
X172092Y-81344D01*
X171682Y-81879D01*
X171424Y-82501D01*
X171336Y-83169D01*
X171424Y-83837D01*
X171682Y-84460D01*
X172092Y-84994D01*
X171991Y-85413D01*
X171682Y-85816D01*
X171424Y-86438D01*
X171336Y-87106D01*
X171424Y-87774D01*
X171682Y-88397D01*
X172085Y-88922D01*
X171720Y-89397D01*
X171462Y-90019D01*
X171374Y-90688D01*
X171462Y-91356D01*
X171720Y-91978D01*
X172105Y-92479D01*
X171994Y-92565D01*
X171584Y-93099D01*
X171326Y-93722D01*
X171238Y-94390D01*
X171326Y-95058D01*
X171584Y-95680D01*
X171994Y-96215D01*
X172528Y-96625D01*
X173151Y-96883D01*
X173819Y-96971D01*
X174487Y-96883D01*
X175110Y-96625D01*
X175644Y-96215D01*
X176054Y-95680D01*
X176312Y-95058D01*
X176400Y-94390D01*
X176312Y-93722D01*
X176054Y-93099D01*
X175754Y-92709D01*
X175780Y-92513D01*
X176190Y-91978D01*
X176448Y-91356D01*
X176536Y-90688D01*
X176448Y-90019D01*
X176190Y-89397D01*
X175788Y-88872D01*
X176153Y-88397D01*
X176410Y-87774D01*
X176498Y-87106D01*
X176410Y-86438D01*
X176153Y-85816D01*
X175844Y-85413D01*
X175742Y-84994D01*
X176153Y-84460D01*
X176410Y-83837D01*
X176498Y-83169D01*
X176410Y-82501D01*
X176153Y-81879D01*
X175742Y-81344D01*
X175208Y-80934D01*
X174585Y-80676D01*
X173917Y-80588D01*
D02*
G37*
G36*
X181988Y-99486D02*
X181320Y-99574D01*
X180698Y-99832D01*
X180163Y-100242D01*
X179753Y-100776D01*
X179495Y-101399D01*
X179407Y-102067D01*
X179495Y-102735D01*
X179753Y-103358D01*
X180163Y-103892D01*
X180698Y-104302D01*
X181320Y-104560D01*
X181988Y-104648D01*
X182656Y-104560D01*
X183279Y-104302D01*
X183813Y-103892D01*
X184223Y-103358D01*
X184481Y-102735D01*
X184569Y-102067D01*
X184481Y-101399D01*
X184223Y-100776D01*
X183813Y-100242D01*
X183279Y-99832D01*
X182656Y-99574D01*
X181988Y-99486D01*
D02*
G37*
G36*
X354823Y-101531D02*
X353487Y-101707D01*
X352242Y-102222D01*
X351173Y-103043D01*
X350352Y-104112D01*
X350098Y-104724D01*
X349705D01*
X349451Y-104112D01*
X348631Y-103043D01*
X347562Y-102222D01*
X346316Y-101707D01*
X344980Y-101531D01*
X343644Y-101707D01*
X342399Y-102222D01*
X341330Y-103043D01*
X340510Y-104112D01*
X339994Y-105357D01*
X339818Y-106693D01*
X339994Y-108029D01*
X340510Y-109274D01*
X341330Y-110343D01*
X342399Y-111164D01*
X343644Y-111679D01*
X344980Y-111855D01*
X346316Y-111679D01*
X347562Y-111164D01*
X348631Y-110343D01*
X349451Y-109274D01*
X349705Y-108661D01*
X350098D01*
X350352Y-109274D01*
X351173Y-110343D01*
X352242Y-111164D01*
X353487Y-111679D01*
X354823Y-111855D01*
X356159Y-111679D01*
X357404Y-111164D01*
X358473Y-110343D01*
X359294Y-109274D01*
X359809Y-108029D01*
X359985Y-106693D01*
X359809Y-105357D01*
X359294Y-104112D01*
X358473Y-103043D01*
X357404Y-102222D01*
X356159Y-101707D01*
X354823Y-101531D01*
D02*
G37*
G36*
X318307Y-99978D02*
X317639Y-100066D01*
X317017Y-100324D01*
X316482Y-100734D01*
X316072Y-101268D01*
X315814Y-101891D01*
X315726Y-102559D01*
X315814Y-103227D01*
X316072Y-103850D01*
X316482Y-104384D01*
X317017Y-104794D01*
X317639Y-105052D01*
X318307Y-105140D01*
X318975Y-105052D01*
X319598Y-104794D01*
X320132Y-104384D01*
X320542Y-103850D01*
X320800Y-103227D01*
X320888Y-102559D01*
X320800Y-101891D01*
X320542Y-101268D01*
X320132Y-100734D01*
X319598Y-100324D01*
X318975Y-100066D01*
X318307Y-99978D01*
D02*
G37*
G36*
X153740Y-105293D02*
X153072Y-105381D01*
X152450Y-105639D01*
X151915Y-106049D01*
X151505Y-106583D01*
X151247Y-107206D01*
X151159Y-107874D01*
X151247Y-108542D01*
X151505Y-109165D01*
X151915Y-109699D01*
X152450Y-110109D01*
X153072Y-110367D01*
X153740Y-110455D01*
X154408Y-110367D01*
X155031Y-110109D01*
X155565Y-109699D01*
X155975Y-109165D01*
X156233Y-108542D01*
X156321Y-107874D01*
X156233Y-107206D01*
X155975Y-106583D01*
X155565Y-106049D01*
X155031Y-105639D01*
X154408Y-105381D01*
X153740Y-105293D01*
D02*
G37*
G36*
X143110Y-105490D02*
X142442Y-105578D01*
X141820Y-105835D01*
X141285Y-106246D01*
X140875Y-106780D01*
X140617Y-107403D01*
X140529Y-108071D01*
X140617Y-108739D01*
X140875Y-109361D01*
X141285Y-109896D01*
X141820Y-110306D01*
X142442Y-110564D01*
X143110Y-110652D01*
X143778Y-110564D01*
X144401Y-110306D01*
X144935Y-109896D01*
X145346Y-109361D01*
X145603Y-108739D01*
X145691Y-108071D01*
X145603Y-107403D01*
X145346Y-106780D01*
X144935Y-106246D01*
X144401Y-105835D01*
X143778Y-105578D01*
X143110Y-105490D01*
D02*
G37*
G36*
X131496Y-105736D02*
X130828Y-105824D01*
X130206Y-106082D01*
X129671Y-106492D01*
X129261Y-107026D01*
X129003Y-107649D01*
X128915Y-108317D01*
X129003Y-108985D01*
X129261Y-109608D01*
X129671Y-110142D01*
X130206Y-110552D01*
X130828Y-110810D01*
X131496Y-110898D01*
X132164Y-110810D01*
X132787Y-110552D01*
X133321Y-110142D01*
X133731Y-109608D01*
X133989Y-108985D01*
X134077Y-108317D01*
X133989Y-107649D01*
X133731Y-107026D01*
X133321Y-106492D01*
X132787Y-106082D01*
X132164Y-105824D01*
X131496Y-105736D01*
D02*
G37*
G36*
X118898Y-108198D02*
X118230Y-108286D01*
X117607Y-108544D01*
X117072Y-108954D01*
X116662Y-109489D01*
X116404Y-110111D01*
X116316Y-110780D01*
X116404Y-111448D01*
X116662Y-112070D01*
X117072Y-112605D01*
X117607Y-113015D01*
X118230Y-113273D01*
X118898Y-113361D01*
X119566Y-113273D01*
X120188Y-113015D01*
X120723Y-112605D01*
X120750Y-112570D01*
X121143D01*
X121206Y-112652D01*
X121741Y-113062D01*
X122363Y-113320D01*
X123031Y-113408D01*
X123699Y-113320D01*
X124322Y-113062D01*
X124857Y-112652D01*
X125267Y-112117D01*
X125525Y-111495D01*
X125613Y-110827D01*
X125525Y-110159D01*
X125267Y-109536D01*
X124857Y-109002D01*
X124322Y-108591D01*
X123699Y-108334D01*
X123031Y-108246D01*
X122363Y-108334D01*
X121741Y-108591D01*
X121237Y-108978D01*
X121106Y-109037D01*
X120786D01*
X120723Y-108954D01*
X120188Y-108544D01*
X119566Y-108286D01*
X118898Y-108198D01*
D02*
G37*
G36*
X204823Y-112380D02*
X204155Y-112468D01*
X203532Y-112725D01*
X202998Y-113136D01*
X202588Y-113670D01*
X202330Y-114293D01*
X202276Y-114697D01*
X201870Y-114643D01*
X201687Y-114667D01*
X201637Y-114293D01*
X201379Y-113670D01*
X200969Y-113136D01*
X200435Y-112725D01*
X199812Y-112468D01*
X199144Y-112380D01*
X198476Y-112468D01*
X197854Y-112725D01*
X197319Y-113136D01*
X196909Y-113670D01*
X196651Y-114293D01*
X196621Y-114520D01*
X196224D01*
X196194Y-114293D01*
X195936Y-113670D01*
X195526Y-113136D01*
X194991Y-112725D01*
X194369Y-112468D01*
X193701Y-112380D01*
X193033Y-112468D01*
X192410Y-112725D01*
X191876Y-113136D01*
X191465Y-113670D01*
X191208Y-114293D01*
X191155Y-114693D01*
X190630Y-114624D01*
X190144Y-114688D01*
X190092Y-114293D01*
X189834Y-113670D01*
X189424Y-113136D01*
X188889Y-112725D01*
X188267Y-112468D01*
X187598Y-112380D01*
X186930Y-112468D01*
X186308Y-112725D01*
X185773Y-113136D01*
X185363Y-113670D01*
X185105Y-114293D01*
X185054Y-114684D01*
X184744Y-114643D01*
X184076Y-114731D01*
X183454Y-114989D01*
X182919Y-115399D01*
X182509Y-115934D01*
X182251Y-116556D01*
X182163Y-117224D01*
X182251Y-117893D01*
X182509Y-118515D01*
X182919Y-119050D01*
X183454Y-119460D01*
X184076Y-119718D01*
X184744Y-119806D01*
X185412Y-119718D01*
X186035Y-119460D01*
X186569Y-119050D01*
X186979Y-118515D01*
X187237Y-117893D01*
X187289Y-117501D01*
X187598Y-117542D01*
X188085Y-117478D01*
X188137Y-117873D01*
X188395Y-118496D01*
X188805Y-119030D01*
X189339Y-119440D01*
X189962Y-119698D01*
X190630Y-119786D01*
X191298Y-119698D01*
X191921Y-119440D01*
X192455Y-119030D01*
X192865Y-118496D01*
X193123Y-117873D01*
X193176Y-117473D01*
X193701Y-117542D01*
X193890Y-117517D01*
X193943Y-117913D01*
X194201Y-118536D01*
X194611Y-119070D01*
X195145Y-119481D01*
X195768Y-119738D01*
X196436Y-119826D01*
X197104Y-119738D01*
X197726Y-119481D01*
X198261Y-119070D01*
X198671Y-118536D01*
X198929Y-117913D01*
X198956Y-117710D01*
X199353D01*
X199377Y-117893D01*
X199635Y-118515D01*
X200045Y-119050D01*
X200580Y-119460D01*
X201202Y-119718D01*
X201870Y-119806D01*
X202538Y-119718D01*
X203161Y-119460D01*
X203695Y-119050D01*
X204105Y-118515D01*
X204363Y-117893D01*
X204416Y-117488D01*
X204823Y-117542D01*
X205491Y-117454D01*
X206113Y-117196D01*
X206648Y-116786D01*
X207058Y-116251D01*
X207316Y-115629D01*
X207404Y-114961D01*
X207316Y-114293D01*
X207058Y-113670D01*
X206648Y-113136D01*
X206113Y-112725D01*
X205491Y-112468D01*
X204823Y-112380D01*
D02*
G37*
G36*
X337894Y-111395D02*
X337226Y-111483D01*
X336603Y-111741D01*
X336069Y-112151D01*
X335658Y-112686D01*
X335401Y-113308D01*
X335313Y-113976D01*
X335401Y-114644D01*
X335658Y-115267D01*
X336069Y-115802D01*
X336603Y-116212D01*
X337226Y-116470D01*
X337894Y-116558D01*
X338562Y-116470D01*
X339184Y-116212D01*
X339719Y-115802D01*
X340129Y-115267D01*
X340387Y-114644D01*
X340475Y-113976D01*
X340387Y-113308D01*
X340129Y-112686D01*
X339719Y-112151D01*
X339184Y-111741D01*
X338562Y-111483D01*
X337894Y-111395D01*
D02*
G37*
G36*
X354823Y-115310D02*
X353487Y-115486D01*
X352242Y-116002D01*
X351173Y-116822D01*
X350352Y-117891D01*
X350098Y-118504D01*
X349705D01*
X349451Y-117891D01*
X348631Y-116822D01*
X347561Y-116002D01*
X346316Y-115486D01*
X344980Y-115310D01*
X343644Y-115486D01*
X342399Y-116002D01*
X341330Y-116822D01*
X340510Y-117891D01*
X339994Y-119136D01*
X339818Y-120472D01*
X339994Y-121809D01*
X340510Y-123054D01*
X341330Y-124123D01*
X342399Y-124943D01*
X343644Y-125459D01*
X344980Y-125635D01*
X346316Y-125459D01*
X347561Y-124943D01*
X348631Y-124123D01*
X349451Y-123054D01*
X349705Y-122441D01*
X350098D01*
X350352Y-123054D01*
X351173Y-124123D01*
X352242Y-124943D01*
X353487Y-125459D01*
X354823Y-125635D01*
X356159Y-125459D01*
X357404Y-124943D01*
X358473Y-124123D01*
X359294Y-123054D01*
X359809Y-121809D01*
X359985Y-120472D01*
X359809Y-119136D01*
X359294Y-117891D01*
X358473Y-116822D01*
X357404Y-116002D01*
X356159Y-115486D01*
X354823Y-115310D01*
D02*
G37*
G36*
X150303Y-114747D02*
X149635Y-114835D01*
X149012Y-115093D01*
X148477Y-115503D01*
X148067Y-116038D01*
X147809Y-116660D01*
X147722Y-117329D01*
X147809Y-117997D01*
X148067Y-118619D01*
X148477Y-119154D01*
X149012Y-119564D01*
X149635Y-119822D01*
X150303Y-119910D01*
X150971Y-119822D01*
X151593Y-119564D01*
X152128Y-119154D01*
X152538Y-118619D01*
X152796Y-117997D01*
X152884Y-117329D01*
X152796Y-116660D01*
X152538Y-116038D01*
X152128Y-115503D01*
X151593Y-115093D01*
X150971Y-114835D01*
X150303Y-114747D01*
D02*
G37*
G36*
X232760Y-116529D02*
X232092Y-116617D01*
X231470Y-116875D01*
X230935Y-117285D01*
X230525Y-117819D01*
X230267Y-118442D01*
X230179Y-119110D01*
X230267Y-119778D01*
X230525Y-120401D01*
X230935Y-120935D01*
X231470Y-121345D01*
X232092Y-121603D01*
X232760Y-121691D01*
X233428Y-121603D01*
X234051Y-121345D01*
X234585Y-120935D01*
X234996Y-120401D01*
X235253Y-119778D01*
X235341Y-119110D01*
X235253Y-118442D01*
X234996Y-117819D01*
X234585Y-117285D01*
X234051Y-116875D01*
X233428Y-116617D01*
X232760Y-116529D01*
D02*
G37*
G36*
X250492Y-113561D02*
X249824Y-113649D01*
X249202Y-113906D01*
X248667Y-114317D01*
X248257Y-114851D01*
X247999Y-115474D01*
X247911Y-116142D01*
X247999Y-116810D01*
X248257Y-117432D01*
X248402Y-117621D01*
X248322Y-118164D01*
X248076Y-118352D01*
X247666Y-118887D01*
X247408Y-119509D01*
X247320Y-120177D01*
X247408Y-120845D01*
X247666Y-121468D01*
X248076Y-122002D01*
X248611Y-122413D01*
X249234Y-122670D01*
X249902Y-122758D01*
X250570Y-122670D01*
X251192Y-122413D01*
X251727Y-122002D01*
X252137Y-121468D01*
X252395Y-120845D01*
X252483Y-120177D01*
X252395Y-119509D01*
X252137Y-118887D01*
X251992Y-118698D01*
X252072Y-118155D01*
X252317Y-117967D01*
X252727Y-117432D01*
X252985Y-116810D01*
X253073Y-116142D01*
X252985Y-115474D01*
X252727Y-114851D01*
X252317Y-114317D01*
X251783Y-113906D01*
X251160Y-113649D01*
X250492Y-113561D01*
D02*
G37*
G36*
X133760Y-124781D02*
X133092Y-124869D01*
X132469Y-125127D01*
X131935Y-125537D01*
X131525Y-126072D01*
X131267Y-126694D01*
X131179Y-127362D01*
X131267Y-128030D01*
X131525Y-128653D01*
X131935Y-129187D01*
X132469Y-129597D01*
X133092Y-129855D01*
X133760Y-129943D01*
X134428Y-129855D01*
X135050Y-129597D01*
X135585Y-129187D01*
X135995Y-128653D01*
X136253Y-128030D01*
X136341Y-127362D01*
X136253Y-126694D01*
X135995Y-126072D01*
X135585Y-125537D01*
X135050Y-125127D01*
X134428Y-124869D01*
X133760Y-124781D01*
D02*
G37*
G36*
X146653Y-129013D02*
X145985Y-129101D01*
X145363Y-129359D01*
X144828Y-129769D01*
X144418Y-130304D01*
X144357Y-130452D01*
X143931D01*
X143869Y-130304D01*
X143459Y-129769D01*
X142924Y-129359D01*
X142302Y-129101D01*
X141634Y-129013D01*
X140966Y-129101D01*
X140343Y-129359D01*
X139809Y-129769D01*
X139399Y-130304D01*
X139141Y-130926D01*
X139053Y-131595D01*
X139141Y-132263D01*
X139399Y-132885D01*
X139809Y-133420D01*
X140343Y-133830D01*
X140966Y-134088D01*
X141634Y-134176D01*
X142302Y-134088D01*
X142924Y-133830D01*
X143459Y-133420D01*
X143869Y-132885D01*
X143931Y-132737D01*
X144357D01*
X144418Y-132885D01*
X144828Y-133420D01*
X145363Y-133830D01*
X145985Y-134088D01*
X146653Y-134176D01*
X147322Y-134088D01*
X147944Y-133830D01*
X148479Y-133420D01*
X148889Y-132885D01*
X149147Y-132263D01*
X149235Y-131595D01*
X149147Y-130926D01*
X148889Y-130304D01*
X148479Y-129769D01*
X147944Y-129359D01*
X147322Y-129101D01*
X146653Y-129013D01*
D02*
G37*
G36*
X293568Y-126391D02*
X292900Y-126478D01*
X292277Y-126736D01*
X291743Y-127146D01*
X291332Y-127681D01*
X291075Y-128304D01*
X290987Y-128972D01*
X291075Y-129640D01*
X291332Y-130262D01*
X291743Y-130797D01*
X292277Y-131207D01*
X292900Y-131465D01*
X293568Y-131553D01*
X294236Y-131465D01*
X294858Y-131207D01*
X295393Y-130797D01*
X295803Y-130262D01*
X296061Y-129640D01*
X296149Y-128972D01*
X296061Y-128304D01*
X295803Y-127681D01*
X295393Y-127146D01*
X294858Y-126736D01*
X294236Y-126478D01*
X293568Y-126391D01*
D02*
G37*
G36*
X354823Y-129090D02*
X353487Y-129266D01*
X352242Y-129781D01*
X351173Y-130602D01*
X350352Y-131671D01*
X350098Y-132283D01*
X349705D01*
X349451Y-131671D01*
X348631Y-130602D01*
X347562Y-129781D01*
X346316Y-129266D01*
X344980Y-129090D01*
X343644Y-129266D01*
X342399Y-129781D01*
X341330Y-130602D01*
X340510Y-131671D01*
X339994Y-132916D01*
X339818Y-134252D01*
X339994Y-135588D01*
X340510Y-136833D01*
X341330Y-137902D01*
X342399Y-138723D01*
X343644Y-139238D01*
X344980Y-139414D01*
X346316Y-139238D01*
X347562Y-138723D01*
X348631Y-137902D01*
X349451Y-136833D01*
X349705Y-136221D01*
X350098D01*
X350352Y-136833D01*
X351173Y-137902D01*
X352242Y-138723D01*
X353487Y-139238D01*
X354823Y-139414D01*
X356159Y-139238D01*
X357404Y-138723D01*
X358473Y-137902D01*
X359294Y-136833D01*
X359809Y-135588D01*
X359985Y-134252D01*
X359809Y-132916D01*
X359294Y-131671D01*
X358473Y-130602D01*
X357404Y-129781D01*
X356159Y-129266D01*
X354823Y-129090D01*
D02*
G37*
G36*
X127362Y-128718D02*
X126694Y-128806D01*
X126072Y-129064D01*
X125537Y-129474D01*
X125127Y-130009D01*
X124869Y-130631D01*
X124781Y-131299D01*
X124869Y-131967D01*
X125127Y-132590D01*
X125537Y-133124D01*
X126072Y-133535D01*
X126694Y-133792D01*
X127362Y-133880D01*
X128030Y-133792D01*
X128653Y-133535D01*
X129187Y-133124D01*
X129597Y-132590D01*
X129855Y-131967D01*
X129943Y-131299D01*
X129855Y-130631D01*
X129597Y-130009D01*
X129187Y-129474D01*
X128653Y-129064D01*
X128030Y-128806D01*
X127362Y-128718D01*
D02*
G37*
G36*
X191339Y-129302D02*
X190671Y-129390D01*
X190048Y-129647D01*
X189513Y-130058D01*
X189103Y-130592D01*
X188845Y-131215D01*
X188757Y-131883D01*
X188845Y-132551D01*
X189103Y-133173D01*
X189513Y-133708D01*
X190048Y-134118D01*
X190671Y-134376D01*
X191339Y-134464D01*
X192007Y-134376D01*
X192629Y-134118D01*
X193164Y-133708D01*
X193574Y-133173D01*
X193832Y-132551D01*
X193920Y-131883D01*
X193832Y-131215D01*
X193574Y-130592D01*
X193164Y-130058D01*
X192629Y-129647D01*
X192007Y-129390D01*
X191339Y-129302D01*
D02*
G37*
G36*
X298819Y-130490D02*
X298151Y-130578D01*
X297528Y-130835D01*
X296994Y-131246D01*
X296584Y-131780D01*
X296326Y-132403D01*
X296238Y-133071D01*
X296326Y-133739D01*
X296584Y-134361D01*
X296994Y-134896D01*
X297528Y-135306D01*
X298151Y-135564D01*
X298819Y-135652D01*
X299487Y-135564D01*
X300110Y-135306D01*
X300644Y-134896D01*
X301054Y-134361D01*
X301312Y-133739D01*
X301400Y-133071D01*
X301312Y-132403D01*
X301054Y-131780D01*
X300644Y-131246D01*
X300110Y-130835D01*
X299487Y-130578D01*
X298819Y-130490D01*
D02*
G37*
G36*
X172539Y-134624D02*
X171871Y-134712D01*
X171249Y-134969D01*
X170714Y-135380D01*
X170304Y-135914D01*
X169836Y-136015D01*
X169558Y-135900D01*
X168890Y-135812D01*
X168222Y-135900D01*
X167600Y-136158D01*
X167065Y-136568D01*
X166655Y-137102D01*
X166397Y-137725D01*
X166309Y-138393D01*
X166397Y-139061D01*
X166655Y-139684D01*
X167065Y-140218D01*
X167446Y-140510D01*
X167248Y-140854D01*
X167049Y-140772D01*
X166381Y-140684D01*
X165712Y-140772D01*
X165090Y-141030D01*
X164555Y-141440D01*
X164145Y-141974D01*
X163887Y-142597D01*
X163799Y-143265D01*
X163887Y-143933D01*
X164145Y-144556D01*
X164555Y-145090D01*
X165090Y-145500D01*
X165712Y-145758D01*
X166381Y-145846D01*
X167049Y-145758D01*
X167671Y-145500D01*
X168206Y-145090D01*
X168616Y-144556D01*
X168874Y-143933D01*
X168962Y-143265D01*
X168874Y-142597D01*
X168616Y-141974D01*
X168206Y-141440D01*
X167825Y-141148D01*
X168023Y-140804D01*
X168222Y-140886D01*
X168890Y-140974D01*
X169558Y-140886D01*
X170181Y-140628D01*
X170715Y-140218D01*
X171126Y-139684D01*
X171594Y-139583D01*
X171871Y-139698D01*
X172539Y-139786D01*
X173207Y-139698D01*
X173830Y-139440D01*
X174364Y-139030D01*
X174775Y-138495D01*
X175032Y-137873D01*
X175120Y-137205D01*
X175032Y-136537D01*
X174775Y-135914D01*
X174364Y-135380D01*
X173830Y-134969D01*
X173207Y-134712D01*
X172539Y-134624D01*
D02*
G37*
G36*
X225295Y-131474D02*
X224627Y-131562D01*
X224005Y-131820D01*
X223470Y-132230D01*
X223060Y-132765D01*
X222802Y-133387D01*
X222714Y-134055D01*
X222802Y-134723D01*
X223060Y-135346D01*
X223470Y-135880D01*
X224005Y-136290D01*
X224627Y-136548D01*
X225295Y-136636D01*
X225963Y-136548D01*
X226586Y-136290D01*
X227120Y-135880D01*
X227531Y-135346D01*
X227788Y-134723D01*
X227876Y-134055D01*
X227788Y-133387D01*
X227531Y-132765D01*
X227120Y-132230D01*
X226586Y-131820D01*
X225963Y-131562D01*
X225295Y-131474D01*
D02*
G37*
G36*
X334842Y-131769D02*
X334174Y-131857D01*
X333552Y-132115D01*
X333017Y-132525D01*
X332607Y-133060D01*
X332349Y-133682D01*
X332261Y-134350D01*
X332349Y-135018D01*
X332607Y-135641D01*
X333017Y-136176D01*
X333552Y-136586D01*
X334174Y-136844D01*
X334842Y-136932D01*
X335511Y-136844D01*
X336133Y-136586D01*
X336668Y-136176D01*
X337078Y-135641D01*
X337336Y-135018D01*
X337424Y-134350D01*
X337336Y-133682D01*
X337078Y-133060D01*
X336668Y-132525D01*
X336133Y-132115D01*
X335511Y-131857D01*
X334842Y-131769D01*
D02*
G37*
G36*
X327461D02*
X326793Y-131857D01*
X326170Y-132115D01*
X325636Y-132525D01*
X325225Y-133060D01*
X324968Y-133682D01*
X324880Y-134350D01*
X324968Y-135018D01*
X325225Y-135641D01*
X325636Y-136176D01*
X326170Y-136586D01*
X326793Y-136844D01*
X327461Y-136932D01*
X328129Y-136844D01*
X328751Y-136586D01*
X329286Y-136176D01*
X329696Y-135641D01*
X329954Y-135018D01*
X330042Y-134350D01*
X329954Y-133682D01*
X329696Y-133060D01*
X329286Y-132525D01*
X328751Y-132115D01*
X328129Y-131857D01*
X327461Y-131769D01*
D02*
G37*
G36*
X150197Y-136670D02*
X149352Y-136838D01*
X148636Y-137317D01*
X148425Y-137632D01*
X148031D01*
X147821Y-137317D01*
X147105Y-136838D01*
X146260Y-136670D01*
X145415Y-136838D01*
X144699Y-137317D01*
X144488Y-137632D01*
X144095D01*
X143884Y-137317D01*
X143168Y-136838D01*
X142323Y-136670D01*
X141478Y-136838D01*
X140762Y-137317D01*
X140551Y-137632D01*
X140157D01*
X139947Y-137317D01*
X139231Y-136838D01*
X138386Y-136670D01*
X137541Y-136838D01*
X136825Y-137317D01*
X136346Y-138033D01*
X136178Y-138878D01*
X136346Y-139723D01*
X136825Y-140439D01*
X137140Y-140650D01*
Y-141043D01*
X136825Y-141254D01*
X136346Y-141970D01*
X136178Y-142815D01*
X136346Y-143660D01*
X136825Y-144376D01*
X137140Y-144587D01*
Y-144980D01*
X136825Y-145191D01*
X136346Y-145907D01*
X136178Y-146752D01*
X136346Y-147597D01*
X136825Y-148313D01*
X137541Y-148792D01*
X138386Y-148960D01*
X139231Y-148792D01*
X139947Y-148313D01*
X140157Y-147998D01*
X140551D01*
X140762Y-148313D01*
X141478Y-148792D01*
X142323Y-148960D01*
X143168Y-148792D01*
X143884Y-148313D01*
X144095Y-147998D01*
X144488D01*
X144699Y-148313D01*
X145415Y-148792D01*
X146260Y-148960D01*
X147105Y-148792D01*
X147821Y-148313D01*
X148031Y-147998D01*
X148425D01*
X148636Y-148313D01*
X149352Y-148792D01*
X150197Y-148960D01*
X151042Y-148792D01*
X151758Y-148313D01*
X152237Y-147597D01*
X152405Y-146752D01*
X152237Y-145907D01*
X151758Y-145191D01*
X151443Y-144980D01*
Y-144587D01*
X151758Y-144376D01*
X152237Y-143660D01*
X152405Y-142815D01*
X152237Y-141970D01*
X151758Y-141254D01*
X151443Y-141043D01*
Y-140650D01*
X151758Y-140439D01*
X152237Y-139723D01*
X152405Y-138878D01*
X152237Y-138033D01*
X151758Y-137317D01*
X151042Y-136838D01*
X150197Y-136670D01*
D02*
G37*
G36*
X208627Y-133066D02*
X207959Y-133154D01*
X207336Y-133412D01*
X206802Y-133822D01*
X206392Y-134357D01*
X206134Y-134979D01*
X206046Y-135647D01*
X206134Y-136316D01*
X206392Y-136938D01*
X206802Y-137473D01*
X207336Y-137883D01*
X207959Y-138141D01*
X208627Y-138229D01*
X209295Y-138141D01*
X209917Y-137883D01*
X210452Y-137473D01*
X210862Y-136938D01*
X211120Y-136316D01*
X211208Y-135647D01*
X211120Y-134979D01*
X210862Y-134357D01*
X210452Y-133822D01*
X209917Y-133412D01*
X209295Y-133154D01*
X208627Y-133066D01*
D02*
G37*
G36*
X118551Y-141513D02*
X117883Y-141601D01*
X117261Y-141859D01*
X116726Y-142269D01*
X116316Y-142804D01*
X116058Y-143426D01*
X115970Y-144095D01*
X116058Y-144763D01*
X116316Y-145385D01*
X116726Y-145920D01*
X117261Y-146330D01*
X117883Y-146588D01*
X118551Y-146676D01*
X119219Y-146588D01*
X119842Y-146330D01*
X120376Y-145920D01*
X120786Y-145385D01*
X121044Y-144763D01*
X121132Y-144095D01*
X121044Y-143426D01*
X120786Y-142804D01*
X120376Y-142269D01*
X119842Y-141859D01*
X119219Y-141601D01*
X118551Y-141513D01*
D02*
G37*
G36*
X146850Y-151553D02*
X146182Y-151641D01*
X145560Y-151899D01*
X145025Y-152309D01*
X144615Y-152843D01*
X144455Y-153229D01*
X144029D01*
X143869Y-152843D01*
X143459Y-152309D01*
X142924Y-151899D01*
X142302Y-151641D01*
X141634Y-151553D01*
X140966Y-151641D01*
X140343Y-151899D01*
X139809Y-152309D01*
X139447Y-152781D01*
X139222Y-152816D01*
X138998Y-152781D01*
X138636Y-152309D01*
X138102Y-151899D01*
X137479Y-151641D01*
X136811Y-151553D01*
X136143Y-151641D01*
X135521Y-151899D01*
X134986Y-152309D01*
X134576Y-152843D01*
X134318Y-153466D01*
X134230Y-154134D01*
X134318Y-154802D01*
X134576Y-155424D01*
X134986Y-155959D01*
X135521Y-156369D01*
X136143Y-156627D01*
X136811Y-156715D01*
X137479Y-156627D01*
X138102Y-156369D01*
X138636Y-155959D01*
X138998Y-155487D01*
X139222Y-155452D01*
X139447Y-155487D01*
X139809Y-155959D01*
X140343Y-156369D01*
X140966Y-156627D01*
X141634Y-156715D01*
X142302Y-156627D01*
X142924Y-156369D01*
X143459Y-155959D01*
X143869Y-155424D01*
X144029Y-155038D01*
X144455D01*
X144615Y-155424D01*
X145025Y-155959D01*
X145560Y-156369D01*
X146182Y-156627D01*
X146850Y-156715D01*
X147518Y-156627D01*
X148141Y-156369D01*
X148676Y-155959D01*
X149086Y-155424D01*
X149344Y-154802D01*
X149432Y-154134D01*
X149344Y-153466D01*
X149086Y-152843D01*
X148676Y-152309D01*
X148141Y-151899D01*
X147518Y-151641D01*
X146850Y-151553D01*
D02*
G37*
G36*
X131102Y-158049D02*
X130434Y-158137D01*
X129812Y-158395D01*
X129277Y-158805D01*
X128867Y-159339D01*
X128609Y-159962D01*
X128521Y-160630D01*
X128609Y-161298D01*
X128867Y-161920D01*
X129277Y-162455D01*
X129812Y-162865D01*
X130434Y-163123D01*
X131102Y-163211D01*
X131770Y-163123D01*
X132393Y-162865D01*
X132928Y-162455D01*
X133338Y-161920D01*
X133596Y-161298D01*
X133684Y-160630D01*
X133596Y-159962D01*
X133338Y-159339D01*
X132928Y-158805D01*
X132393Y-158395D01*
X131770Y-158137D01*
X131102Y-158049D01*
D02*
G37*
G36*
X188678Y-158641D02*
X188010Y-158729D01*
X187388Y-158987D01*
X186853Y-159397D01*
X186443Y-159931D01*
X186185Y-160554D01*
X186097Y-161222D01*
X186185Y-161890D01*
X186443Y-162513D01*
X186853Y-163047D01*
X187388Y-163457D01*
X188010Y-163715D01*
X188678Y-163803D01*
X189346Y-163715D01*
X189969Y-163457D01*
X190503Y-163047D01*
X190914Y-162513D01*
X191172Y-161890D01*
X191259Y-161222D01*
X191172Y-160554D01*
X190914Y-159931D01*
X190503Y-159397D01*
X189969Y-158987D01*
X189346Y-158729D01*
X188678Y-158641D01*
D02*
G37*
G36*
X118551Y-160411D02*
X117883Y-160499D01*
X117261Y-160757D01*
X116726Y-161167D01*
X116316Y-161702D01*
X116058Y-162324D01*
X115970Y-162992D01*
X116058Y-163660D01*
X116316Y-164283D01*
X116726Y-164817D01*
X117261Y-165227D01*
X117883Y-165485D01*
X118551Y-165573D01*
X119219Y-165485D01*
X119842Y-165227D01*
X120376Y-164817D01*
X120786Y-164283D01*
X121044Y-163660D01*
X121132Y-162992D01*
X121044Y-162324D01*
X120786Y-161702D01*
X120376Y-161167D01*
X119842Y-160757D01*
X119219Y-160499D01*
X118551Y-160411D01*
D02*
G37*
G36*
X136024Y-162872D02*
X135356Y-162960D01*
X134733Y-163217D01*
X134198Y-163628D01*
X133788Y-164162D01*
X133530Y-164785D01*
X133442Y-165453D01*
X133530Y-166121D01*
X133788Y-166743D01*
X134198Y-167278D01*
X134733Y-167688D01*
X135356Y-167946D01*
X136024Y-168034D01*
X136692Y-167946D01*
X137314Y-167688D01*
X137849Y-167278D01*
X138259Y-166743D01*
X138517Y-166121D01*
X138605Y-165453D01*
X138517Y-164785D01*
X138259Y-164162D01*
X137849Y-163628D01*
X137314Y-163217D01*
X136692Y-162960D01*
X136024Y-162872D01*
D02*
G37*
G36*
X127461Y-162576D02*
X126793Y-162664D01*
X126170Y-162922D01*
X125636Y-163332D01*
X125225Y-163867D01*
X124968Y-164489D01*
X124880Y-165157D01*
X124968Y-165825D01*
X125225Y-166448D01*
X125636Y-166983D01*
X126170Y-167393D01*
X126793Y-167651D01*
X127193Y-167703D01*
X127539Y-168094D01*
X127537Y-168110D01*
X127625Y-168778D01*
X127883Y-169401D01*
X128293Y-169935D01*
X128828Y-170346D01*
X129450Y-170603D01*
X130118Y-170691D01*
X130786Y-170603D01*
X131409Y-170346D01*
X131943Y-169935D01*
X132353Y-169401D01*
X132611Y-168778D01*
X132699Y-168110D01*
X132611Y-167442D01*
X132353Y-166820D01*
X131943Y-166285D01*
X131409Y-165875D01*
X130786Y-165617D01*
X130385Y-165564D01*
X130040Y-165174D01*
X130042Y-165157D01*
X129954Y-164489D01*
X129696Y-163867D01*
X129286Y-163332D01*
X128751Y-162922D01*
X128129Y-162664D01*
X127461Y-162576D01*
D02*
G37*
G36*
X214272Y-171041D02*
X213604Y-171129D01*
X212981Y-171387D01*
X212446Y-171797D01*
X212036Y-172332D01*
X211778Y-172954D01*
X211690Y-173622D01*
X211778Y-174290D01*
X212036Y-174913D01*
X212446Y-175447D01*
X212981Y-175857D01*
X213604Y-176115D01*
X214272Y-176203D01*
X214940Y-176115D01*
X215562Y-175857D01*
X216097Y-175447D01*
X216507Y-174913D01*
X216765Y-174290D01*
X216853Y-173622D01*
X216765Y-172954D01*
X216507Y-172332D01*
X216097Y-171797D01*
X215562Y-171387D01*
X214940Y-171129D01*
X214272Y-171041D01*
D02*
G37*
G36*
X145472Y-173206D02*
X144804Y-173294D01*
X144182Y-173552D01*
X143647Y-173962D01*
X143237Y-174497D01*
X142979Y-175119D01*
X142891Y-175787D01*
X142979Y-176455D01*
X143237Y-177078D01*
X143647Y-177612D01*
X144182Y-178023D01*
X144804Y-178281D01*
X145472Y-178368D01*
X146141Y-178281D01*
X146763Y-178023D01*
X147298Y-177612D01*
X147708Y-177078D01*
X147966Y-176455D01*
X148054Y-175787D01*
X147966Y-175119D01*
X147708Y-174497D01*
X147298Y-173962D01*
X146763Y-173552D01*
X146141Y-173294D01*
X145472Y-173206D01*
D02*
G37*
G36*
X178839Y-171435D02*
X178171Y-171523D01*
X177548Y-171780D01*
X177013Y-172191D01*
X176603Y-172725D01*
X176345Y-173348D01*
X176257Y-174016D01*
X176345Y-174684D01*
X176603Y-175306D01*
X176972Y-175787D01*
X176603Y-176268D01*
X176345Y-176891D01*
X176257Y-177559D01*
X176345Y-178227D01*
X176603Y-178850D01*
X177013Y-179384D01*
X177548Y-179794D01*
X178171Y-180052D01*
X178839Y-180140D01*
X179507Y-180052D01*
X180129Y-179794D01*
X180664Y-179384D01*
X181074Y-178850D01*
X181332Y-178227D01*
X181420Y-177559D01*
X181332Y-176891D01*
X181074Y-176268D01*
X180705Y-175787D01*
X181074Y-175306D01*
X181332Y-174684D01*
X181420Y-174016D01*
X181332Y-173348D01*
X181074Y-172725D01*
X180664Y-172191D01*
X180129Y-171780D01*
X179507Y-171523D01*
X178839Y-171435D01*
D02*
G37*
G36*
X118551Y-179584D02*
X117883Y-179672D01*
X117261Y-179930D01*
X116726Y-180340D01*
X116316Y-180875D01*
X116058Y-181497D01*
X115970Y-182165D01*
X116058Y-182833D01*
X116316Y-183456D01*
X116726Y-183991D01*
X117261Y-184401D01*
X117883Y-184659D01*
X118551Y-184747D01*
X119219Y-184659D01*
X119842Y-184401D01*
X120376Y-183991D01*
X120786Y-183456D01*
X121044Y-182833D01*
X121132Y-182165D01*
X121044Y-181497D01*
X120786Y-180875D01*
X120376Y-180340D01*
X119842Y-179930D01*
X119219Y-179672D01*
X118551Y-179584D01*
D02*
G37*
G36*
X178937Y-180883D02*
X178269Y-180971D01*
X177647Y-181229D01*
X177112Y-181639D01*
X176702Y-182174D01*
X176444Y-182797D01*
X176356Y-183465D01*
X176444Y-184133D01*
X176702Y-184755D01*
X177112Y-185290D01*
X177647Y-185700D01*
X178269Y-185958D01*
X178937Y-186046D01*
X179605Y-185958D01*
X180228Y-185700D01*
X180762Y-185290D01*
X181172Y-184755D01*
X181430Y-184133D01*
X181518Y-183465D01*
X181430Y-182797D01*
X181172Y-182174D01*
X180762Y-181639D01*
X180228Y-181229D01*
X179605Y-180971D01*
X178937Y-180883D01*
D02*
G37*
G36*
X170669Y-185411D02*
X170001Y-185499D01*
X169379Y-185757D01*
X168844Y-186167D01*
X168546Y-186556D01*
X168477Y-186583D01*
X168137D01*
X168068Y-186556D01*
X167770Y-186167D01*
X167235Y-185757D01*
X166613Y-185499D01*
X165945Y-185411D01*
X165277Y-185499D01*
X164654Y-185757D01*
X164120Y-186167D01*
X163710Y-186702D01*
X163452Y-187324D01*
X163364Y-187992D01*
X163452Y-188660D01*
X163710Y-189283D01*
X164120Y-189817D01*
X164654Y-190227D01*
X165277Y-190485D01*
X165945Y-190573D01*
X166613Y-190485D01*
X167235Y-190227D01*
X167770Y-189817D01*
X168068Y-189429D01*
X168137Y-189401D01*
X168477D01*
X168546Y-189429D01*
X168844Y-189817D01*
X169379Y-190227D01*
X170001Y-190485D01*
X170669Y-190573D01*
X171337Y-190485D01*
X171960Y-190227D01*
X172494Y-189817D01*
X172905Y-189283D01*
X173162Y-188660D01*
X173250Y-187992D01*
X173162Y-187324D01*
X172905Y-186702D01*
X172494Y-186167D01*
X171960Y-185757D01*
X171337Y-185499D01*
X170669Y-185411D01*
D02*
G37*
G36*
X193799Y-184624D02*
X193131Y-184712D01*
X192509Y-184969D01*
X191974Y-185380D01*
X191564Y-185914D01*
X191306Y-186537D01*
X191218Y-187205D01*
X191306Y-187873D01*
X191564Y-188495D01*
X191974Y-189030D01*
X192509Y-189440D01*
X193131Y-189698D01*
X193799Y-189786D01*
X194467Y-189698D01*
X195090Y-189440D01*
X195624Y-189030D01*
X196035Y-188495D01*
X196292Y-187873D01*
X196380Y-187205D01*
X196292Y-186537D01*
X196035Y-185914D01*
X195624Y-185380D01*
X195090Y-184969D01*
X194467Y-184712D01*
X193799Y-184624D01*
D02*
G37*
G36*
X225197Y-181376D02*
X224529Y-181464D01*
X223906Y-181721D01*
X223372Y-182132D01*
X222961Y-182666D01*
X222704Y-183289D01*
X222616Y-183957D01*
X222704Y-184625D01*
X222961Y-185247D01*
X223372Y-185782D01*
X223906Y-186192D01*
X224173Y-186303D01*
Y-186729D01*
X223906Y-186839D01*
X223372Y-187250D01*
X222961Y-187784D01*
X222704Y-188407D01*
X222616Y-189075D01*
X222704Y-189743D01*
X222961Y-190365D01*
X223372Y-190900D01*
X223906Y-191310D01*
X224529Y-191568D01*
X225197Y-191656D01*
X225865Y-191568D01*
X226487Y-191310D01*
X227022Y-190900D01*
X227432Y-190365D01*
X227690Y-189743D01*
X227778Y-189075D01*
X227690Y-188407D01*
X227432Y-187784D01*
X227022Y-187250D01*
X226487Y-186839D01*
X226220Y-186729D01*
Y-186303D01*
X226487Y-186192D01*
X227022Y-185782D01*
X227432Y-185247D01*
X227690Y-184625D01*
X227778Y-183957D01*
X227690Y-183289D01*
X227432Y-182666D01*
X227022Y-182132D01*
X226487Y-181721D01*
X225865Y-181464D01*
X225197Y-181376D01*
D02*
G37*
G36*
X131791Y-192104D02*
X131123Y-192192D01*
X130501Y-192450D01*
X129966Y-192860D01*
X129556Y-193394D01*
X129298Y-194017D01*
X129210Y-194685D01*
X129298Y-195353D01*
X129556Y-195976D01*
X129966Y-196510D01*
X130501Y-196920D01*
X131123Y-197178D01*
X131791Y-197266D01*
X132459Y-197178D01*
X133082Y-196920D01*
X133616Y-196510D01*
X134027Y-195976D01*
X134284Y-195353D01*
X134372Y-194685D01*
X134284Y-194017D01*
X134027Y-193394D01*
X133616Y-192860D01*
X133082Y-192450D01*
X132459Y-192192D01*
X131791Y-192104D01*
D02*
G37*
G36*
X191732Y-193383D02*
X191064Y-193471D01*
X190442Y-193729D01*
X189907Y-194139D01*
X189497Y-194674D01*
X189239Y-195297D01*
X189151Y-195965D01*
X189239Y-196633D01*
X189497Y-197255D01*
X189907Y-197790D01*
X190442Y-198200D01*
X191064Y-198458D01*
X191732Y-198546D01*
X192400Y-198458D01*
X193023Y-198200D01*
X193557Y-197790D01*
X193968Y-197255D01*
X194226Y-196633D01*
X194313Y-195965D01*
X194226Y-195297D01*
X193968Y-194674D01*
X193557Y-194139D01*
X193023Y-193729D01*
X192400Y-193471D01*
X191732Y-193383D01*
D02*
G37*
G36*
X204921Y-196632D02*
X204253Y-196719D01*
X203631Y-196977D01*
X203096Y-197388D01*
X202686Y-197922D01*
X202428Y-198545D01*
X202340Y-199213D01*
X202428Y-199881D01*
X202686Y-200503D01*
X203096Y-201038D01*
X203631Y-201448D01*
X204253Y-201706D01*
X204921Y-201794D01*
X205589Y-201706D01*
X206212Y-201448D01*
X206746Y-201038D01*
X207157Y-200503D01*
X207414Y-199881D01*
X207502Y-199213D01*
X207414Y-198545D01*
X207157Y-197922D01*
X206746Y-197388D01*
X206212Y-196977D01*
X205589Y-196719D01*
X204921Y-196632D01*
D02*
G37*
G36*
X118551Y-198600D02*
X117883Y-198688D01*
X117261Y-198946D01*
X116726Y-199356D01*
X116316Y-199890D01*
X116058Y-200513D01*
X115970Y-201181D01*
X116058Y-201849D01*
X116316Y-202472D01*
X116726Y-203006D01*
X117261Y-203416D01*
X117883Y-203674D01*
X118551Y-203762D01*
X119219Y-203674D01*
X119842Y-203416D01*
X120376Y-203006D01*
X120786Y-202472D01*
X121044Y-201849D01*
X121132Y-201181D01*
X121044Y-200513D01*
X120786Y-199890D01*
X120376Y-199356D01*
X119842Y-198946D01*
X119219Y-198688D01*
X118551Y-198600D01*
D02*
G37*
G36*
X153544Y-205079D02*
X152876Y-205167D01*
X152254Y-205424D01*
X151719Y-205835D01*
X151309Y-206369D01*
X151257Y-206494D01*
X150831D01*
X150780Y-206369D01*
X150369Y-205835D01*
X149835Y-205424D01*
X149212Y-205167D01*
X148544Y-205079D01*
X147876Y-205167D01*
X147254Y-205424D01*
X146719Y-205835D01*
X146309Y-206369D01*
X146257Y-206494D01*
X145831D01*
X145780Y-206369D01*
X145369Y-205835D01*
X144835Y-205424D01*
X144212Y-205167D01*
X143544Y-205079D01*
X142876Y-205167D01*
X142254Y-205424D01*
X141719Y-205835D01*
X141309Y-206369D01*
X141257Y-206494D01*
X140831D01*
X140780Y-206369D01*
X140369Y-205835D01*
X139835Y-205424D01*
X139212Y-205167D01*
X138544Y-205079D01*
X137876Y-205167D01*
X137254Y-205424D01*
X136719Y-205835D01*
X136309Y-206369D01*
X136051Y-206992D01*
X135963Y-207660D01*
X136051Y-208328D01*
X136309Y-208950D01*
X136719Y-209485D01*
X137254Y-209895D01*
X137876Y-210153D01*
X138544Y-210241D01*
X139212Y-210153D01*
X139835Y-209895D01*
X140369Y-209485D01*
X140780Y-208950D01*
X140831Y-208826D01*
X141257D01*
X141309Y-208950D01*
X141719Y-209485D01*
X142254Y-209895D01*
X142876Y-210153D01*
X143544Y-210241D01*
X144212Y-210153D01*
X144835Y-209895D01*
X145369Y-209485D01*
X145780Y-208950D01*
X145831Y-208826D01*
X146257D01*
X146309Y-208950D01*
X146719Y-209485D01*
X147254Y-209895D01*
X147876Y-210153D01*
X148544Y-210241D01*
X149212Y-210153D01*
X149835Y-209895D01*
X150369Y-209485D01*
X150780Y-208950D01*
X150831Y-208826D01*
X151257D01*
X151309Y-208950D01*
X151719Y-209485D01*
X152254Y-209895D01*
X152876Y-210153D01*
X153544Y-210241D01*
X154212Y-210153D01*
X154835Y-209895D01*
X155369Y-209485D01*
X155780Y-208950D01*
X156037Y-208328D01*
X156125Y-207660D01*
X156037Y-206992D01*
X155780Y-206369D01*
X155369Y-205835D01*
X154835Y-205424D01*
X154212Y-205167D01*
X153544Y-205079D01*
D02*
G37*
G36*
X112795Y-214198D02*
X112127Y-214286D01*
X111505Y-214544D01*
X110970Y-214954D01*
X110560Y-215489D01*
X110302Y-216111D01*
X110214Y-216779D01*
X110302Y-217448D01*
X110560Y-218070D01*
X110970Y-218605D01*
X111505Y-219015D01*
X112127Y-219273D01*
X112795Y-219361D01*
X113463Y-219273D01*
X114086Y-219015D01*
X114620Y-218605D01*
X115031Y-218070D01*
X115288Y-217448D01*
X115376Y-216779D01*
X115288Y-216111D01*
X115031Y-215489D01*
X114620Y-214954D01*
X114086Y-214544D01*
X113463Y-214286D01*
X112795Y-214198D01*
D02*
G37*
G36*
X19685Y-112056D02*
X16648Y-115093D01*
X17203Y-115519D01*
X18400Y-116015D01*
X19685Y-116184D01*
X20970Y-116015D01*
X22167Y-115519D01*
X22722Y-115093D01*
X19685Y-112056D01*
D02*
G37*
G36*
X29528Y-133617D02*
X28192Y-133793D01*
X26946Y-134309D01*
X25877Y-135129D01*
X25057Y-136198D01*
X24803Y-136811D01*
X24409D01*
X24156Y-136198D01*
X23335Y-135129D01*
X22266Y-134309D01*
X21021Y-133793D01*
X19685Y-133617D01*
X18349Y-133793D01*
X17104Y-134309D01*
X16035Y-135129D01*
X15214Y-136198D01*
X14699Y-137443D01*
X14523Y-138779D01*
X14699Y-140116D01*
X15214Y-141361D01*
X16035Y-142430D01*
X17104Y-143250D01*
X18349Y-143766D01*
X19685Y-143942D01*
X21021Y-143766D01*
X22266Y-143250D01*
X23335Y-142430D01*
X24156Y-141361D01*
X24409Y-140748D01*
X24803D01*
X25057Y-141361D01*
X25877Y-142430D01*
X26946Y-143250D01*
X28192Y-143766D01*
X29528Y-143942D01*
X30864Y-143766D01*
X32109Y-143250D01*
X33178Y-142430D01*
X33998Y-141361D01*
X34514Y-140116D01*
X34690Y-138779D01*
X34514Y-137443D01*
X33998Y-136198D01*
X33178Y-135129D01*
X32109Y-134309D01*
X30864Y-133793D01*
X29528Y-133617D01*
D02*
G37*
G36*
X76279Y-134624D02*
X75612Y-134712D01*
X74989Y-134969D01*
X74454Y-135380D01*
X74044Y-135914D01*
X73786Y-136537D01*
X73698Y-137205D01*
X73786Y-137873D01*
X74044Y-138495D01*
X74454Y-139030D01*
X74989Y-139440D01*
X75612Y-139698D01*
X76279Y-139786D01*
X76948Y-139698D01*
X77570Y-139440D01*
X78105Y-139030D01*
X78515Y-138495D01*
X78773Y-137873D01*
X78861Y-137205D01*
X78773Y-136537D01*
X78515Y-135914D01*
X78105Y-135380D01*
X77570Y-134969D01*
X76948Y-134712D01*
X76279Y-134624D01*
D02*
G37*
G36*
X67716Y-138757D02*
X67049Y-138845D01*
X66426Y-139103D01*
X65891Y-139513D01*
X65481Y-140048D01*
X65223Y-140671D01*
X65135Y-141339D01*
X65223Y-142007D01*
X65481Y-142629D01*
X65891Y-143164D01*
X66426Y-143574D01*
X67049Y-143832D01*
X67716Y-143920D01*
X68385Y-143832D01*
X69007Y-143574D01*
X69542Y-143164D01*
X69952Y-142629D01*
X70210Y-142007D01*
X70298Y-141339D01*
X70210Y-140671D01*
X69952Y-140048D01*
X69542Y-139513D01*
X69007Y-139103D01*
X68385Y-138845D01*
X67716Y-138757D01*
D02*
G37*
G36*
X84153Y-144860D02*
X83486Y-144948D01*
X82863Y-145206D01*
X82328Y-145616D01*
X81918Y-146150D01*
X81660Y-146773D01*
X81572Y-147441D01*
X81660Y-148109D01*
X81918Y-148732D01*
X82328Y-149266D01*
X82863Y-149676D01*
X83486Y-149934D01*
X84153Y-150022D01*
X84822Y-149934D01*
X85444Y-149676D01*
X85979Y-149266D01*
X86389Y-148732D01*
X86647Y-148109D01*
X86735Y-147441D01*
X86647Y-146773D01*
X86389Y-146150D01*
X85979Y-145616D01*
X85444Y-145206D01*
X84822Y-144948D01*
X84153Y-144860D01*
D02*
G37*
G36*
X29528Y-147397D02*
X28192Y-147573D01*
X26946Y-148088D01*
X25877Y-148909D01*
X25057Y-149978D01*
X24803Y-150591D01*
X24409D01*
X24156Y-149978D01*
X23335Y-148909D01*
X22266Y-148088D01*
X21021Y-147573D01*
X19685Y-147397D01*
X18349Y-147573D01*
X17104Y-148088D01*
X16035Y-148909D01*
X15214Y-149978D01*
X14699Y-151223D01*
X14523Y-152559D01*
X14699Y-153895D01*
X15214Y-155140D01*
X16035Y-156209D01*
X17104Y-157030D01*
X18349Y-157545D01*
X19685Y-157721D01*
X21021Y-157545D01*
X22266Y-157030D01*
X23335Y-156209D01*
X24156Y-155140D01*
X24409Y-154528D01*
X24803D01*
X25057Y-155140D01*
X25877Y-156209D01*
X26946Y-157030D01*
X28192Y-157545D01*
X29528Y-157721D01*
X30864Y-157545D01*
X32109Y-157030D01*
X33178Y-156209D01*
X33998Y-155140D01*
X34514Y-153895D01*
X34690Y-152559D01*
X34514Y-151223D01*
X33998Y-149978D01*
X33178Y-148909D01*
X32109Y-148088D01*
X30864Y-147573D01*
X29528Y-147397D01*
D02*
G37*
G36*
X76181Y-152045D02*
X75513Y-152133D01*
X74891Y-152391D01*
X74356Y-152801D01*
X73946Y-153335D01*
X73688Y-153958D01*
X73600Y-154626D01*
X73688Y-155294D01*
X73946Y-155917D01*
X74356Y-156451D01*
X74891Y-156861D01*
X75513Y-157119D01*
X76181Y-157207D01*
X76849Y-157119D01*
X77472Y-156861D01*
X78006Y-156451D01*
X78416Y-155917D01*
X78674Y-155294D01*
X78762Y-154626D01*
X78674Y-153958D01*
X78416Y-153335D01*
X78006Y-152801D01*
X77472Y-152391D01*
X76849Y-152133D01*
X76181Y-152045D01*
D02*
G37*
G36*
X67716Y-155933D02*
X67049Y-156021D01*
X66426Y-156278D01*
X65891Y-156689D01*
X65481Y-157223D01*
X65223Y-157846D01*
X65135Y-158514D01*
X65223Y-159182D01*
X65481Y-159804D01*
X65891Y-160339D01*
X66426Y-160749D01*
X67049Y-161007D01*
X67716Y-161095D01*
X68385Y-161007D01*
X69007Y-160749D01*
X69542Y-160339D01*
X69952Y-159804D01*
X70210Y-159182D01*
X70298Y-158514D01*
X70210Y-157846D01*
X69952Y-157223D01*
X69542Y-156689D01*
X69007Y-156278D01*
X68385Y-156021D01*
X67716Y-155933D01*
D02*
G37*
G36*
X29528Y-161176D02*
X28192Y-161352D01*
X26946Y-161868D01*
X25877Y-162688D01*
X25057Y-163758D01*
X24803Y-164370D01*
X24409D01*
X24156Y-163758D01*
X23335Y-162688D01*
X22266Y-161868D01*
X21021Y-161352D01*
X19685Y-161176D01*
X18349Y-161352D01*
X17104Y-161868D01*
X16035Y-162688D01*
X15214Y-163758D01*
X14699Y-165003D01*
X14523Y-166339D01*
X14699Y-167675D01*
X15214Y-168920D01*
X16035Y-169989D01*
X17104Y-170809D01*
X18349Y-171325D01*
X19685Y-171501D01*
X21021Y-171325D01*
X22266Y-170809D01*
X23335Y-169989D01*
X24156Y-168920D01*
X24409Y-168307D01*
X24803D01*
X25057Y-168920D01*
X25877Y-169989D01*
X26946Y-170809D01*
X28192Y-171325D01*
X29528Y-171501D01*
X30864Y-171325D01*
X32109Y-170809D01*
X33178Y-169989D01*
X33998Y-168920D01*
X34514Y-167675D01*
X34690Y-166339D01*
X34514Y-165003D01*
X33998Y-163758D01*
X33178Y-162688D01*
X32109Y-161868D01*
X30864Y-161352D01*
X29528Y-161176D01*
D02*
G37*
G36*
X84153Y-163364D02*
X83486Y-163452D01*
X82863Y-163710D01*
X82328Y-164120D01*
X81918Y-164654D01*
X81660Y-165277D01*
X81572Y-165945D01*
X81660Y-166613D01*
X81918Y-167235D01*
X82328Y-167770D01*
X82863Y-168180D01*
X83486Y-168438D01*
X84153Y-168526D01*
X84822Y-168438D01*
X85444Y-168180D01*
X85979Y-167770D01*
X86389Y-167235D01*
X86647Y-166613D01*
X86735Y-165945D01*
X86647Y-165277D01*
X86389Y-164654D01*
X85979Y-164120D01*
X85444Y-163710D01*
X84822Y-163452D01*
X84153Y-163364D01*
D02*
G37*
G36*
X76181Y-169269D02*
X75513Y-169357D01*
X74891Y-169615D01*
X74356Y-170025D01*
X73946Y-170560D01*
X73688Y-171182D01*
X73600Y-171850D01*
X73688Y-172519D01*
X73946Y-173141D01*
X74356Y-173676D01*
X74891Y-174086D01*
X75513Y-174344D01*
X76181Y-174432D01*
X76849Y-174344D01*
X77472Y-174086D01*
X78006Y-173676D01*
X78416Y-173141D01*
X78674Y-172519D01*
X78762Y-171850D01*
X78674Y-171182D01*
X78416Y-170560D01*
X78006Y-170025D01*
X77472Y-169615D01*
X76849Y-169357D01*
X76181Y-169269D01*
D02*
G37*
G36*
X29528Y-174956D02*
X28192Y-175132D01*
X26946Y-175647D01*
X25877Y-176468D01*
X25057Y-177537D01*
X24803Y-178150D01*
X24409D01*
X24156Y-177537D01*
X23335Y-176468D01*
X22266Y-175647D01*
X21021Y-175132D01*
X19685Y-174956D01*
X18349Y-175132D01*
X17104Y-175647D01*
X16035Y-176468D01*
X15214Y-177537D01*
X14699Y-178782D01*
X14523Y-180118D01*
X14699Y-181454D01*
X15214Y-182699D01*
X16035Y-183768D01*
X17104Y-184589D01*
X18349Y-185105D01*
X19685Y-185280D01*
X21021Y-185105D01*
X22266Y-184589D01*
X23335Y-183768D01*
X24156Y-182699D01*
X24409Y-182087D01*
X24803D01*
X25057Y-182699D01*
X25877Y-183768D01*
X26946Y-184589D01*
X28192Y-185105D01*
X29528Y-185280D01*
X30864Y-185105D01*
X32109Y-184589D01*
X33178Y-183768D01*
X33998Y-182699D01*
X34514Y-181454D01*
X34690Y-180118D01*
X34514Y-178782D01*
X33998Y-177537D01*
X33178Y-176468D01*
X32109Y-175647D01*
X30864Y-175132D01*
X29528Y-174956D01*
D02*
G37*
G36*
X67716Y-173108D02*
X67049Y-173196D01*
X66426Y-173454D01*
X65891Y-173864D01*
X65481Y-174398D01*
X65223Y-175021D01*
X65135Y-175689D01*
X65223Y-176357D01*
X65481Y-176979D01*
X65891Y-177514D01*
X66426Y-177924D01*
X67049Y-178182D01*
X67716Y-178270D01*
X68385Y-178182D01*
X69007Y-177924D01*
X69542Y-177514D01*
X69952Y-176979D01*
X70210Y-176357D01*
X70298Y-175689D01*
X70210Y-175021D01*
X69952Y-174398D01*
X69542Y-173864D01*
X69007Y-173454D01*
X68385Y-173196D01*
X67716Y-173108D01*
D02*
G37*
G36*
X85925Y-181376D02*
X85257Y-181464D01*
X84635Y-181721D01*
X84100Y-182132D01*
X83690Y-182666D01*
X83432Y-183289D01*
X83344Y-183957D01*
X83355Y-184039D01*
X82984Y-184240D01*
X82459Y-184023D01*
X81791Y-183935D01*
X81123Y-184023D01*
X80501Y-184280D01*
X79966Y-184691D01*
X79556Y-185225D01*
X79298Y-185848D01*
X79210Y-186516D01*
X79298Y-187184D01*
X79556Y-187806D01*
X79966Y-188341D01*
X80501Y-188751D01*
X81123Y-189009D01*
X81791Y-189097D01*
X82459Y-189009D01*
X83082Y-188751D01*
X83617Y-188341D01*
X84027Y-187806D01*
X84285Y-187184D01*
X84373Y-186516D01*
X84362Y-186433D01*
X84732Y-186232D01*
X85257Y-186450D01*
X85925Y-186538D01*
X86593Y-186450D01*
X87216Y-186192D01*
X87750Y-185782D01*
X88161Y-185247D01*
X88418Y-184625D01*
X88506Y-183957D01*
X88418Y-183289D01*
X88161Y-182666D01*
X87750Y-182132D01*
X87216Y-181721D01*
X86593Y-181464D01*
X85925Y-181376D01*
D02*
G37*
G36*
X76181Y-186494D02*
X75513Y-186582D01*
X74891Y-186839D01*
X74356Y-187250D01*
X73946Y-187784D01*
X73688Y-188407D01*
X73600Y-189075D01*
X73688Y-189743D01*
X73946Y-190365D01*
X74356Y-190900D01*
X74891Y-191310D01*
X75513Y-191568D01*
X76181Y-191656D01*
X76849Y-191568D01*
X77472Y-191310D01*
X78006Y-190900D01*
X78416Y-190365D01*
X78674Y-189743D01*
X78762Y-189075D01*
X78674Y-188407D01*
X78416Y-187784D01*
X78006Y-187250D01*
X77472Y-186839D01*
X76849Y-186582D01*
X76181Y-186494D01*
D02*
G37*
G36*
X29528Y-188735D02*
X28192Y-188911D01*
X26946Y-189427D01*
X25877Y-190247D01*
X25057Y-191316D01*
X24803Y-191929D01*
X24409D01*
X24156Y-191316D01*
X23335Y-190247D01*
X22266Y-189427D01*
X21021Y-188911D01*
X19685Y-188735D01*
X18349Y-188911D01*
X17104Y-189427D01*
X16035Y-190247D01*
X15214Y-191316D01*
X14699Y-192562D01*
X14523Y-193898D01*
X14699Y-195234D01*
X15214Y-196479D01*
X16035Y-197548D01*
X17104Y-198368D01*
X18349Y-198884D01*
X19685Y-199060D01*
X21021Y-198884D01*
X22266Y-198368D01*
X23335Y-197548D01*
X24156Y-196479D01*
X24409Y-195866D01*
X24803D01*
X25057Y-196479D01*
X25877Y-197548D01*
X26946Y-198368D01*
X28192Y-198884D01*
X29528Y-199060D01*
X30864Y-198884D01*
X32109Y-198368D01*
X33178Y-197548D01*
X33998Y-196479D01*
X34514Y-195234D01*
X34690Y-193898D01*
X34514Y-192562D01*
X33998Y-191316D01*
X33178Y-190247D01*
X32109Y-189427D01*
X30864Y-188911D01*
X29528Y-188735D01*
D02*
G37*
G36*
X67716Y-190283D02*
X67049Y-190371D01*
X66426Y-190629D01*
X65891Y-191039D01*
X65481Y-191574D01*
X65223Y-192196D01*
X65135Y-192864D01*
X65223Y-193532D01*
X65481Y-194155D01*
X65891Y-194689D01*
X66426Y-195099D01*
X67049Y-195357D01*
X67716Y-195445D01*
X68385Y-195357D01*
X69007Y-195099D01*
X69542Y-194689D01*
X69952Y-194155D01*
X70210Y-193532D01*
X70298Y-192864D01*
X70210Y-192196D01*
X69952Y-191574D01*
X69542Y-191039D01*
X69007Y-190629D01*
X68385Y-190371D01*
X67716Y-190283D01*
D02*
G37*
G36*
X76279Y-200273D02*
X75612Y-200361D01*
X74989Y-200619D01*
X74454Y-201029D01*
X74044Y-201564D01*
X73786Y-202186D01*
X73698Y-202854D01*
X73786Y-203522D01*
X74044Y-204145D01*
X74454Y-204679D01*
X74989Y-205090D01*
X75612Y-205347D01*
X76279Y-205435D01*
X76948Y-205347D01*
X77570Y-205090D01*
X78105Y-204679D01*
X78515Y-204145D01*
X78773Y-203522D01*
X78861Y-202854D01*
X78773Y-202186D01*
X78515Y-201564D01*
X78105Y-201029D01*
X77570Y-200619D01*
X76948Y-200361D01*
X76279Y-200273D01*
D02*
G37*
G36*
X84055Y-203128D02*
X83387Y-203216D01*
X82765Y-203473D01*
X82230Y-203884D01*
X81820Y-204418D01*
X81562Y-205041D01*
X81474Y-205709D01*
X81562Y-206377D01*
X81820Y-206999D01*
X82230Y-207534D01*
X82765Y-207944D01*
X83387Y-208202D01*
X84055Y-208290D01*
X84723Y-208202D01*
X85346Y-207944D01*
X85880Y-207534D01*
X86290Y-206999D01*
X86548Y-206377D01*
X86636Y-205709D01*
X86548Y-205041D01*
X86290Y-204418D01*
X85880Y-203884D01*
X85346Y-203473D01*
X84723Y-203216D01*
X84055Y-203128D01*
D02*
G37*
G36*
X67716Y-207458D02*
X67049Y-207546D01*
X66426Y-207804D01*
X65891Y-208214D01*
X65481Y-208749D01*
X65223Y-209371D01*
X65135Y-210039D01*
X65223Y-210707D01*
X65481Y-211330D01*
X65891Y-211864D01*
X66426Y-212275D01*
X67049Y-212532D01*
X67716Y-212620D01*
X68385Y-212532D01*
X69007Y-212275D01*
X69542Y-211864D01*
X69952Y-211330D01*
X70210Y-210707D01*
X70298Y-210039D01*
X70210Y-209371D01*
X69952Y-208749D01*
X69542Y-208214D01*
X69007Y-207804D01*
X68385Y-207546D01*
X67716Y-207458D01*
D02*
G37*
G36*
X264707Y-157874D02*
X264033D01*
X263382Y-158048D01*
X262799Y-158385D01*
X262322Y-158862D01*
X261985Y-159445D01*
X261811Y-160096D01*
Y-160770D01*
X261985Y-161421D01*
X262322Y-162004D01*
X262799Y-162481D01*
X263382Y-162818D01*
X264033Y-162992D01*
X264707D01*
X265358Y-162818D01*
X265941Y-162481D01*
X266418Y-162004D01*
X266755Y-161421D01*
X266929Y-160770D01*
Y-160096D01*
X266755Y-159445D01*
X266418Y-158862D01*
X265941Y-158385D01*
X265358Y-158048D01*
X264707Y-157874D01*
D02*
G37*
G36*
X309192Y-166706D02*
X308091D01*
X307028Y-166990D01*
X306075Y-167541D01*
X305296Y-168319D01*
X304746Y-169273D01*
X304461Y-170336D01*
Y-171437D01*
X304746Y-172500D01*
X305296Y-173454D01*
X306075Y-174232D01*
X307028Y-174783D01*
X308091Y-175068D01*
X309192D01*
X310256Y-174783D01*
X311209Y-174232D01*
X311987Y-173454D01*
X312538Y-172500D01*
X312823Y-171437D01*
Y-170336D01*
X312538Y-169273D01*
X311987Y-168319D01*
X311209Y-167541D01*
X310256Y-166990D01*
X309192Y-166706D01*
D02*
G37*
G36*
X319192Y-171705D02*
X318091D01*
X317028Y-171990D01*
X316074Y-172541D01*
X315296Y-173319D01*
X314746Y-174273D01*
X314461Y-175336D01*
Y-176437D01*
X314746Y-177500D01*
X315296Y-178454D01*
X316074Y-179232D01*
X317028Y-179783D01*
X318091Y-180068D01*
X319192D01*
X320256Y-179783D01*
X321209Y-179232D01*
X321987Y-178454D01*
X322538Y-177500D01*
X322823Y-176437D01*
Y-175336D01*
X322538Y-174273D01*
X321987Y-173319D01*
X321209Y-172541D01*
X320256Y-171990D01*
X319192Y-171705D01*
D02*
G37*
G36*
X319166Y-181902D02*
X318117D01*
X317104Y-182174D01*
X316255Y-182664D01*
X318642Y-185051D01*
X321029Y-182664D01*
X320180Y-182174D01*
X319166Y-181902D01*
D02*
G37*
G36*
X309192Y-176706D02*
X308091D01*
X307028Y-176990D01*
X306075Y-177541D01*
X305296Y-178319D01*
X304746Y-179273D01*
X304461Y-180336D01*
Y-181437D01*
X304746Y-182500D01*
X305296Y-183454D01*
X306075Y-184232D01*
X307028Y-184783D01*
X308091Y-185068D01*
X309192D01*
X310256Y-184783D01*
X311209Y-184232D01*
X311987Y-183454D01*
X312538Y-182500D01*
X312823Y-181437D01*
Y-180336D01*
X312538Y-179273D01*
X311987Y-178319D01*
X311209Y-177541D01*
X310256Y-176990D01*
X309192Y-176706D01*
D02*
G37*
G36*
X293742Y-180512D02*
X293069D01*
X292418Y-180686D01*
X291834Y-181023D01*
X291358Y-181500D01*
X291021Y-182083D01*
X290846Y-182734D01*
Y-183408D01*
X291021Y-184059D01*
X291358Y-184642D01*
X291834Y-185119D01*
X292418Y-185456D01*
X293069Y-185630D01*
X293742D01*
X294393Y-185456D01*
X294977Y-185119D01*
X295453Y-184642D01*
X295790Y-184059D01*
X295965Y-183408D01*
Y-182734D01*
X295790Y-182083D01*
X295453Y-181500D01*
X294977Y-181023D01*
X294393Y-180686D01*
X293742Y-180512D01*
D02*
G37*
G36*
X321864Y-183499D02*
X319477Y-185887D01*
X321864Y-188274D01*
X322355Y-187425D01*
X322626Y-186411D01*
Y-185362D01*
X322355Y-184349D01*
X321864Y-183499D01*
D02*
G37*
G36*
X315419Y-183499D02*
X314929Y-184349D01*
X314657Y-185362D01*
Y-186411D01*
X314929Y-187425D01*
X315419Y-188274D01*
X317807Y-185887D01*
X315419Y-183499D01*
D02*
G37*
G36*
X318642Y-186722D02*
X316255Y-189109D01*
X317104Y-189599D01*
X318117Y-189871D01*
X319166D01*
X320180Y-189599D01*
X321029Y-189109D01*
X318642Y-186722D01*
D02*
G37*
G36*
X309166Y-186902D02*
X308117D01*
X307104Y-187174D01*
X306255Y-187664D01*
X308642Y-190051D01*
X311029Y-187664D01*
X310180Y-187174D01*
X309166Y-186902D01*
D02*
G37*
G36*
X311864Y-188499D02*
X309477Y-190887D01*
X311864Y-193274D01*
X312354Y-192424D01*
X312626Y-191411D01*
Y-190362D01*
X312354Y-189349D01*
X311864Y-188499D01*
D02*
G37*
G36*
X305419Y-188499D02*
X304929Y-189349D01*
X304658Y-190362D01*
Y-191411D01*
X304929Y-192424D01*
X305419Y-193274D01*
X307807Y-190887D01*
X305419Y-188499D01*
D02*
G37*
G36*
X308642Y-191722D02*
X306255Y-194109D01*
X307104Y-194599D01*
X308117Y-194871D01*
X309166D01*
X310180Y-194599D01*
X311029Y-194109D01*
X308642Y-191722D01*
D02*
G37*
G36*
X319192Y-191706D02*
X318091D01*
X317028Y-191990D01*
X316074Y-192541D01*
X315296Y-193319D01*
X314746Y-194273D01*
X314461Y-195336D01*
Y-196437D01*
X314746Y-197500D01*
X315296Y-198454D01*
X316074Y-199232D01*
X317028Y-199783D01*
X318091Y-200068D01*
X319192D01*
X320256Y-199783D01*
X321209Y-199232D01*
X321987Y-198454D01*
X322538Y-197500D01*
X322823Y-196437D01*
Y-195336D01*
X322538Y-194273D01*
X321987Y-193319D01*
X321209Y-192541D01*
X320256Y-191990D01*
X319192Y-191706D01*
D02*
G37*
G36*
X309192Y-196705D02*
X308091D01*
X307028Y-196990D01*
X306075Y-197541D01*
X305296Y-198319D01*
X304746Y-199273D01*
X304461Y-200336D01*
Y-201437D01*
X304746Y-202500D01*
X305296Y-203454D01*
X306075Y-204232D01*
X307028Y-204783D01*
X308091Y-205068D01*
X309192D01*
X310256Y-204783D01*
X311209Y-204232D01*
X311987Y-203454D01*
X312538Y-202500D01*
X312823Y-201437D01*
Y-200336D01*
X312538Y-199273D01*
X311987Y-198319D01*
X311209Y-197541D01*
X310256Y-196990D01*
X309192Y-196705D01*
D02*
G37*
G36*
X319192Y-201706D02*
X318091D01*
X317028Y-201990D01*
X316074Y-202541D01*
X315296Y-203319D01*
X314746Y-204273D01*
X314461Y-205336D01*
Y-206437D01*
X314746Y-207500D01*
X315296Y-208454D01*
X316074Y-209232D01*
X317028Y-209783D01*
X318091Y-210068D01*
X319192D01*
X320256Y-209783D01*
X321209Y-209232D01*
X321987Y-208454D01*
X322538Y-207500D01*
X322823Y-206437D01*
Y-205336D01*
X322538Y-204273D01*
X321987Y-203319D01*
X321209Y-202541D01*
X320256Y-201990D01*
X319192Y-201706D01*
D02*
G37*
%LPD*%
D14*
X336924Y-48193D02*
X348387Y-36730D01*
X326969Y-82185D02*
Y-58148D01*
X336924Y-48193D01*
X241142Y-143012D02*
X276378Y-107776D01*
X301378D01*
X190453Y-143012D02*
X241142D01*
X301378Y-107776D02*
X326969Y-82185D01*
X160138Y-173327D02*
X190453Y-143012D01*
X160138Y-182874D02*
Y-173327D01*
D15*
X348387Y-36730D02*
Y-26731D01*
X349902Y-25216D01*
X348387Y-36730D02*
X352175D01*
X359350Y-29555D01*
X349902Y-25216D02*
Y-25075D01*
X359350Y-29555D02*
Y-15523D01*
X357390Y-13563D02*
X359350Y-15523D01*
X345374Y-13563D02*
X357390D01*
X338287Y-20791D02*
X339075Y-20004D01*
X338287Y-21004D02*
Y-20791D01*
X339075Y-20004D02*
Y-19862D01*
X345374Y-13563D01*
X337598Y-21906D02*
X338287Y-21217D01*
Y-21004D01*
X336516Y-24075D02*
Y-23862D01*
X337303Y-23074D01*
Y-22933D01*
X337598Y-22638D01*
Y-21906D01*
X350689Y-24288D02*
Y-24075D01*
X349902Y-25075D02*
X350689Y-24288D01*
D20*
X353642Y-184941D02*
Y-161911D01*
X361634Y-214862D02*
Y-192933D01*
X353642Y-184941D02*
X361634Y-192933D01*
X353642Y-161911D02*
Y-161911D01*
X340944Y-149213D02*
X353642Y-161911D01*
X321850Y-149213D02*
X340944D01*
X361634Y-214862D02*
X361634Y-214862D01*
D124*
X336516Y-24075D02*
D03*
X338287Y-21004D02*
D03*
X350689Y-24075D02*
D03*
X352461Y-21004D02*
D03*
D128*
X319685Y-30955D02*
Y-17913D01*
Y-30955D02*
X336924Y-48193D01*
X350689Y-23968D02*
X351279Y-23378D01*
X350689Y-24075D02*
Y-23968D01*
X352461Y-21111D02*
Y-21004D01*
X351870Y-21701D02*
X352461Y-21111D01*
X351870Y-22261D02*
Y-21701D01*
X351279Y-22852D02*
X351870Y-22261D01*
X351279Y-23378D02*
Y-22852D01*
X220965Y-177854D02*
Y-174646D01*
X215945Y-182874D02*
X220965Y-177854D01*
X255354Y-140256D02*
X315945D01*
X220965Y-174646D02*
X255354Y-140256D01*
X315945D02*
Y-120374D01*
X331444Y-104875D01*
X333412D02*
X333563Y-104724D01*
X331444Y-104875D02*
X333412D01*
D132*
X29528Y-22638D02*
X47835D01*
X37421Y-32461D02*
X48228D01*
X40945Y-46063D02*
X46850D01*
X29528Y-56102D02*
X46850D01*
X19685Y-32480D02*
X29528Y-22638D01*
X19685Y-42323D02*
Y-32480D01*
X29528Y-40354D02*
X37421Y-32461D01*
X29528Y-42323D02*
Y-40354D01*
D133*
X37008Y-64567D02*
X47441D01*
X39764Y-72441D02*
X45177Y-77854D01*
D135*
X29331Y-71260D02*
X38583D01*
X46457Y-109646D02*
X46494Y-109835D01*
X46850Y-111663D01*
X46501Y-111751D02*
X47295Y-113538D01*
X47439Y-113862D01*
X47755Y-113763D02*
X47935Y-113708D01*
X47681Y-113787D02*
X47755Y-113763D01*
X47439Y-113862D02*
X47681Y-113787D01*
X40551Y-115551D02*
X46850Y-121850D01*
X46457Y-109646D02*
X46850Y-108268D01*
X46801Y-111614D02*
X46850Y-111663D01*
X29528Y-99803D02*
Y-97441D01*
Y-69882D02*
X30709Y-71063D01*
X38583Y-71260D02*
X39764Y-72441D01*
X37992Y-99410D02*
X46850Y-108268D01*
X29528Y-99803D02*
X40551Y-110827D01*
Y-115551D02*
Y-110827D01*
X46501Y-111751D02*
X46801Y-111614D01*
D136*
X44685Y-87795D02*
X49016D01*
X33661Y-76772D02*
X44685Y-87795D01*
X43701Y-94685D02*
X45669Y-96653D01*
X43701Y-94685D02*
Y-94291D01*
Y-96260D02*
Y-94685D01*
X33071Y-83661D02*
X43701Y-94291D01*
X29528Y-83661D02*
X33071D01*
X43701Y-96260D02*
X45079Y-97638D01*
X25000Y-90551D02*
X32874D01*
X37992Y-95669D01*
Y-99410D02*
Y-95669D01*
X24409Y-76772D02*
X33661D01*
X19685Y-81496D02*
X24409Y-76772D01*
X19685Y-83661D02*
Y-81496D01*
Y-97441D02*
Y-95866D01*
X25000Y-90551D01*
X45669Y-97638D02*
X46949Y-98917D01*
X45669Y-97638D02*
Y-97638D01*
Y-96653D01*
X45079Y-97638D02*
X45669D01*
X46654D01*
X45669Y-96653D02*
X46654Y-97638D01*
X45079D02*
X46358Y-98917D01*
X46949D01*
D139*
X19685Y-56102D02*
X26575Y-49213D01*
X19685Y-69882D02*
X26378Y-63189D01*
X26575Y-49213D02*
X37795D01*
X40945Y-46063D01*
X26378Y-63189D02*
X36417D01*
D140*
X308642Y-190887D02*
D03*
X318642Y-185887D02*
D03*
D141*
X353642Y-161911D02*
D03*
X361634Y-214863D02*
D03*
D143*
X209252Y-20768D02*
D03*
X198012D02*
D03*
D145*
X29528Y-42323D02*
D03*
X19685D02*
D03*
Y-111221D02*
D03*
X29528Y-97441D02*
D03*
X19685Y-97441D02*
D03*
Y-56102D02*
D03*
X29528D02*
D03*
X19685Y-69882D02*
D03*
X29528D02*
D03*
X19685Y-83661D02*
D03*
X29528D02*
D03*
D147*
X233455Y-27834D02*
D03*
X269980Y-123819D02*
D03*
X142323Y-121653D02*
D03*
X153740Y-111614D02*
D03*
X176476Y-137205D02*
D03*
X315945Y-140256D02*
D03*
X333563Y-104724D02*
D03*
X315945Y-120374D02*
D03*
X215945Y-182874D02*
D03*
X319685Y-17913D02*
D03*
X341831Y-49114D02*
D03*
X160138Y-182874D02*
D03*
X207874Y-132185D02*
D03*
X228182Y-153216D02*
D03*
X243307Y-177165D02*
D03*
X251389Y-161232D02*
D03*
X265551Y-171752D02*
D03*
X267913Y-180118D02*
D03*
X273917Y-185925D02*
D03*
X248228Y-191831D02*
D03*
X269094Y-211221D02*
D03*
X264961Y-207087D02*
D03*
X260630Y-202756D02*
D03*
X251476Y-211811D02*
D03*
X150000Y-165748D02*
D03*
X212795Y-162106D02*
D03*
X224114Y-177657D02*
D03*
X253248Y-93012D02*
D03*
X117717Y-104724D02*
D03*
X212205Y-151673D02*
D03*
X240256Y-132087D02*
D03*
X260630Y-77658D02*
D03*
X296063Y-71063D02*
D03*
X188779Y-164764D02*
D03*
X120177Y-60335D02*
D03*
X303346Y-92323D02*
D03*
X252658Y-67520D02*
D03*
X279873Y-45315D02*
D03*
X264764Y-62500D02*
D03*
X309842Y-14862D02*
D03*
X272047Y-18406D02*
D03*
X210138Y-29724D02*
D03*
X192520D02*
D03*
X185236Y-35236D02*
D03*
X164272Y-38287D02*
D03*
X188878Y-168307D02*
D03*
X153740Y-104134D02*
D03*
X221555Y-134055D02*
D03*
X127362Y-207087D02*
D03*
Y-182874D02*
D03*
Y-151132D02*
D03*
Y-145276D02*
D03*
X102756Y-144095D02*
D03*
X99410Y-141142D02*
D03*
X102756Y-125197D02*
D03*
X154134Y-82087D02*
D03*
X100787Y-211417D02*
D03*
X99410Y-160039D02*
D03*
X102756Y-163976D02*
D03*
X99410Y-179134D02*
D03*
X102362Y-182480D02*
D03*
X99606Y-198228D02*
D03*
X102559Y-201181D02*
D03*
D149*
X43898Y-20669D02*
D03*
X47835D02*
D03*
Y-30512D02*
D03*
X43898D02*
D03*
X47441Y-44094D02*
D03*
X43504D02*
D03*
X46850Y-54134D02*
D03*
X42913D02*
D03*
X47638Y-63779D02*
D03*
X43701D02*
D03*
X45276Y-76575D02*
D03*
X42323Y-73819D02*
D03*
X48819Y-87303D02*
D03*
X44882D02*
D03*
X46949Y-98917D02*
D03*
X43701Y-96260D02*
D03*
X46457Y-109843D02*
D03*
X47638Y-113386D02*
D03*
X43701Y-119095D02*
D03*
X46850Y-121850D02*
D03*
M02*
