G04*
G04 #@! TF.GenerationSoftware,Altium Limited,Altium Designer,22.10.1 (41)*
G04*
G04 Layer_Color=32896*
%FSLAX25Y25*%
%MOIN*%
G70*
G04*
G04 #@! TF.SameCoordinates,F94DDA68-A68B-42FE-BC48-FD12F86C1609*
G04*
G04*
G04 #@! TF.FilePolarity,Positive*
G04*
G01*
G75*
%ADD14C,0.01000*%
%ADD16C,0.00709*%
%ADD18C,0.00591*%
G36*
X374016Y-11811D02*
X0D01*
Y0D01*
X374016D01*
Y-11811D01*
D02*
G37*
G36*
X135154Y-22824D02*
X135320D01*
Y-22858D01*
X135420D01*
Y-22891D01*
X135486D01*
Y-22924D01*
X135553D01*
Y-22957D01*
X135619D01*
Y-22991D01*
X135686D01*
Y-23024D01*
X135719D01*
Y-23057D01*
X135786D01*
Y-23090D01*
X135819D01*
Y-23124D01*
X135852D01*
Y-23157D01*
X135885D01*
Y-23190D01*
X135919D01*
Y-23223D01*
X135952D01*
Y-23257D01*
X135985D01*
Y-23290D01*
X136018D01*
Y-23323D01*
X136052D01*
Y-23356D01*
X136085D01*
Y-23390D01*
X136118D01*
Y-23423D01*
X136151D01*
Y-23489D01*
X136185D01*
Y-23523D01*
X136218D01*
Y-23589D01*
X136251D01*
Y-23656D01*
X136284D01*
Y-23722D01*
X136318D01*
Y-23822D01*
X136351D01*
Y-23922D01*
X136384D01*
Y-24088D01*
X136417D01*
Y-37920D01*
X136384D01*
Y-38086D01*
X136351D01*
Y-38219D01*
X136318D01*
Y-38286D01*
X136284D01*
Y-38385D01*
X136251D01*
Y-38452D01*
X136218D01*
Y-38485D01*
X136185D01*
Y-38552D01*
X136151D01*
Y-38585D01*
X136118D01*
Y-38651D01*
X136085D01*
Y-38685D01*
X136052D01*
Y-38718D01*
X136018D01*
Y-38751D01*
X135985D01*
Y-38784D01*
X135952D01*
Y-38818D01*
X135919D01*
Y-38851D01*
X135885D01*
Y-38884D01*
X135852D01*
Y-38917D01*
X135819D01*
Y-38951D01*
X135786D01*
Y-38984D01*
X135719D01*
Y-39017D01*
X135686D01*
Y-39050D01*
X135619D01*
Y-39084D01*
X135553D01*
Y-39117D01*
X135486D01*
Y-39150D01*
X135387D01*
Y-39183D01*
X135287D01*
Y-39217D01*
X135154D01*
Y-39250D01*
X132161D01*
Y-39217D01*
X131995D01*
Y-39183D01*
X131895D01*
Y-39150D01*
X131829D01*
Y-39117D01*
X131729D01*
Y-39084D01*
X131696D01*
Y-39050D01*
X131629D01*
Y-39017D01*
X131563D01*
Y-38984D01*
X131530D01*
Y-38951D01*
X131496D01*
Y-38917D01*
X131430D01*
Y-38884D01*
X131397D01*
Y-38851D01*
X131363D01*
Y-38818D01*
X131330D01*
Y-38784D01*
X131297D01*
Y-38751D01*
X131264D01*
Y-38718D01*
X131230D01*
Y-38651D01*
X131197D01*
Y-38618D01*
X131164D01*
Y-38585D01*
X131131D01*
Y-38519D01*
X131097D01*
Y-38485D01*
X131064D01*
Y-38419D01*
X131031D01*
Y-38352D01*
X130998D01*
Y-38252D01*
X130964D01*
Y-38153D01*
X130931D01*
Y-38020D01*
X130898D01*
Y-35958D01*
Y-35925D01*
Y-35692D01*
X130865D01*
Y-35459D01*
X130831D01*
Y-35360D01*
X130798D01*
Y-35260D01*
X130765D01*
Y-35193D01*
X130732D01*
Y-35127D01*
X130698D01*
Y-35060D01*
X130665D01*
Y-34994D01*
X130632D01*
Y-34961D01*
X130599D01*
Y-34894D01*
X130565D01*
Y-34861D01*
X130532D01*
Y-34828D01*
X130499D01*
Y-34794D01*
X130466D01*
Y-34761D01*
X130432D01*
Y-34728D01*
X130399D01*
Y-34695D01*
X130366D01*
Y-34661D01*
X130333D01*
Y-34628D01*
X130266D01*
Y-34595D01*
X130233D01*
Y-34562D01*
X130166D01*
Y-34528D01*
X130133D01*
Y-34495D01*
X130067D01*
Y-34462D01*
X129967D01*
Y-34429D01*
X129900D01*
Y-34395D01*
X129767D01*
Y-34362D01*
X129601D01*
Y-34329D01*
X128903D01*
Y-34362D01*
X128737D01*
Y-34395D01*
X128604D01*
Y-34429D01*
X128537D01*
Y-34462D01*
X128437D01*
Y-34495D01*
X128371D01*
Y-34528D01*
X128338D01*
Y-34562D01*
X128271D01*
Y-34595D01*
X128205D01*
Y-34628D01*
X128171D01*
Y-34661D01*
X128138D01*
Y-34695D01*
X128105D01*
Y-34728D01*
X128072D01*
Y-34761D01*
X128038D01*
Y-34794D01*
X128005D01*
Y-34828D01*
X127972D01*
Y-34861D01*
X127939D01*
Y-34894D01*
X127905D01*
Y-34961D01*
X127872D01*
Y-34994D01*
X127839D01*
Y-35060D01*
X127805D01*
Y-35127D01*
X127772D01*
Y-35193D01*
X127739D01*
Y-35260D01*
X127706D01*
Y-35326D01*
X127673D01*
Y-35393D01*
X127639D01*
Y-35459D01*
X127606D01*
Y-35526D01*
X127573D01*
Y-35592D01*
X127540D01*
Y-35659D01*
X127506D01*
Y-35725D01*
X127473D01*
Y-35792D01*
X127440D01*
Y-35858D01*
X127407D01*
Y-35958D01*
X127373D01*
Y-36025D01*
X127340D01*
Y-36091D01*
X127307D01*
Y-36158D01*
X127274D01*
Y-36224D01*
X127240D01*
Y-36291D01*
X127207D01*
Y-36357D01*
X127174D01*
Y-36424D01*
X127141D01*
Y-36490D01*
X127107D01*
Y-36557D01*
X127074D01*
Y-36656D01*
X127041D01*
Y-36723D01*
X127007D01*
Y-36789D01*
X126974D01*
Y-36856D01*
X126941D01*
Y-36922D01*
X126908D01*
Y-36989D01*
X126874D01*
Y-37055D01*
X126841D01*
Y-37122D01*
X126808D01*
Y-37188D01*
X126775D01*
Y-37255D01*
X126742D01*
Y-37321D01*
X126708D01*
Y-37421D01*
X126675D01*
Y-37488D01*
X126642D01*
Y-37554D01*
X126609D01*
Y-37621D01*
X126575D01*
Y-37687D01*
X126542D01*
Y-37754D01*
X126509D01*
Y-37820D01*
X126476D01*
Y-37887D01*
X126442D01*
Y-37953D01*
X126409D01*
Y-38020D01*
X126376D01*
Y-38120D01*
X126343D01*
Y-38186D01*
X126309D01*
Y-38252D01*
X126276D01*
Y-38319D01*
X126243D01*
Y-38385D01*
X126209D01*
Y-38452D01*
X126176D01*
Y-38519D01*
X126143D01*
Y-38552D01*
X126110D01*
Y-38618D01*
X126076D01*
Y-38651D01*
X126043D01*
Y-38685D01*
X126010D01*
Y-38718D01*
X125977D01*
Y-38751D01*
X125944D01*
Y-38784D01*
X125910D01*
Y-38818D01*
X125877D01*
Y-38851D01*
X125844D01*
Y-38884D01*
X125811D01*
Y-38917D01*
X125777D01*
Y-38951D01*
X125744D01*
Y-38984D01*
X125678D01*
Y-39017D01*
X125644D01*
Y-39050D01*
X125578D01*
Y-39084D01*
X125511D01*
Y-39117D01*
X125445D01*
Y-39150D01*
X125345D01*
Y-39183D01*
X125245D01*
Y-39217D01*
X125112D01*
Y-39250D01*
X122220D01*
Y-39217D01*
X122053D01*
Y-39183D01*
X121953D01*
Y-39150D01*
X121854D01*
Y-39117D01*
X121787D01*
Y-39084D01*
X121721D01*
Y-39050D01*
X121688D01*
Y-39017D01*
X121621D01*
Y-38984D01*
X121588D01*
Y-38951D01*
X121521D01*
Y-38917D01*
X121488D01*
Y-38884D01*
X121455D01*
Y-38851D01*
X121422D01*
Y-38818D01*
X121388D01*
Y-38784D01*
X121355D01*
Y-38751D01*
X121322D01*
Y-38718D01*
X121289D01*
Y-38685D01*
X121255D01*
Y-38618D01*
X121222D01*
Y-38585D01*
X121189D01*
Y-38519D01*
X121156D01*
Y-38485D01*
X121122D01*
Y-38419D01*
X121089D01*
Y-38352D01*
X121056D01*
Y-38252D01*
X121023D01*
Y-38153D01*
X120989D01*
Y-38020D01*
X120956D01*
Y-37421D01*
X120989D01*
Y-37288D01*
X121023D01*
Y-37188D01*
X121056D01*
Y-37122D01*
X121089D01*
Y-37055D01*
X121122D01*
Y-36989D01*
X121156D01*
Y-36922D01*
X121189D01*
Y-36856D01*
X121222D01*
Y-36789D01*
X121255D01*
Y-36723D01*
X121289D01*
Y-36656D01*
X121322D01*
Y-36623D01*
X121355D01*
Y-36557D01*
X121388D01*
Y-36490D01*
X121422D01*
Y-36424D01*
X121455D01*
Y-36357D01*
X121488D01*
Y-36291D01*
X121521D01*
Y-36257D01*
X121555D01*
Y-36191D01*
X121588D01*
Y-36124D01*
X121621D01*
Y-36058D01*
X121654D01*
Y-35991D01*
X121688D01*
Y-35925D01*
X121721D01*
Y-35858D01*
X121754D01*
Y-35825D01*
X121787D01*
Y-35759D01*
X121821D01*
Y-35692D01*
X121854D01*
Y-35626D01*
X121887D01*
Y-35559D01*
X121920D01*
Y-35493D01*
X121953D01*
Y-35459D01*
X121987D01*
Y-35393D01*
X122020D01*
Y-35326D01*
X122053D01*
Y-35260D01*
X122087D01*
Y-35193D01*
X122120D01*
Y-35127D01*
X122153D01*
Y-35060D01*
X122186D01*
Y-35027D01*
X122220D01*
Y-34961D01*
X122253D01*
Y-34894D01*
X122286D01*
Y-34828D01*
X122319D01*
Y-34761D01*
X122353D01*
Y-34695D01*
X122386D01*
Y-34628D01*
X122419D01*
Y-34595D01*
X122452D01*
Y-34528D01*
X122485D01*
Y-34462D01*
X122519D01*
Y-34395D01*
X122552D01*
Y-34296D01*
X122585D01*
Y-34196D01*
X122619D01*
Y-34030D01*
X122652D01*
Y-33564D01*
X122619D01*
Y-33398D01*
X122585D01*
Y-33298D01*
X122552D01*
Y-33232D01*
X122519D01*
Y-33165D01*
X122485D01*
Y-33099D01*
X122452D01*
Y-33032D01*
X122419D01*
Y-32966D01*
X122386D01*
Y-32932D01*
X122353D01*
Y-32899D01*
X122319D01*
Y-32833D01*
X122286D01*
Y-32799D01*
X122253D01*
Y-32766D01*
X122220D01*
Y-32733D01*
X122186D01*
Y-32700D01*
X122153D01*
Y-32666D01*
X122120D01*
Y-32633D01*
X122087D01*
Y-32600D01*
X122053D01*
Y-32567D01*
X122020D01*
Y-32533D01*
X121987D01*
Y-32500D01*
X121953D01*
Y-32467D01*
X121920D01*
Y-32434D01*
X121887D01*
Y-32400D01*
X121854D01*
Y-32367D01*
X121821D01*
Y-32334D01*
X121787D01*
Y-32301D01*
X121754D01*
Y-32267D01*
X121721D01*
Y-32234D01*
X121688D01*
Y-32201D01*
X121654D01*
Y-32168D01*
X121621D01*
Y-32134D01*
X121588D01*
Y-32101D01*
X121555D01*
Y-32068D01*
X121521D01*
Y-32035D01*
X121488D01*
Y-32001D01*
X121455D01*
Y-31968D01*
X121422D01*
Y-31935D01*
X121388D01*
Y-31902D01*
X121355D01*
Y-31868D01*
X121322D01*
Y-31835D01*
X121289D01*
Y-31802D01*
X121255D01*
Y-31769D01*
X121222D01*
Y-31735D01*
X121189D01*
Y-31702D01*
X121156D01*
Y-31669D01*
X121122D01*
Y-31636D01*
X121089D01*
Y-31602D01*
X121056D01*
Y-31569D01*
X121023D01*
Y-31536D01*
X120989D01*
Y-31503D01*
X120956D01*
Y-31469D01*
X120923D01*
Y-31436D01*
X120890D01*
Y-31403D01*
X120856D01*
Y-31370D01*
X120823D01*
Y-31336D01*
X120790D01*
Y-31270D01*
X120756D01*
Y-31237D01*
X120723D01*
Y-31170D01*
X120690D01*
Y-31137D01*
X120657D01*
Y-31070D01*
X120624D01*
Y-31004D01*
X120590D01*
Y-30904D01*
X120557D01*
Y-30804D01*
X120524D01*
Y-30638D01*
X120491D01*
Y-26449D01*
X120524D01*
Y-26316D01*
X120557D01*
Y-26183D01*
X120590D01*
Y-26116D01*
X120624D01*
Y-26050D01*
X120657D01*
Y-25983D01*
X120690D01*
Y-25917D01*
X120723D01*
Y-25850D01*
X120756D01*
Y-25817D01*
X120790D01*
Y-25784D01*
X120823D01*
Y-25717D01*
X120856D01*
Y-25684D01*
X120890D01*
Y-25651D01*
X120923D01*
Y-25617D01*
X120956D01*
Y-25584D01*
X120989D01*
Y-25551D01*
X121023D01*
Y-25518D01*
X121056D01*
Y-25484D01*
X121089D01*
Y-25451D01*
X121122D01*
Y-25418D01*
X121156D01*
Y-25385D01*
X121189D01*
Y-25351D01*
X121222D01*
Y-25318D01*
X121255D01*
Y-25285D01*
X121289D01*
Y-25252D01*
X121322D01*
Y-25218D01*
X121355D01*
Y-25185D01*
X121388D01*
Y-25152D01*
X121422D01*
Y-25119D01*
X121455D01*
Y-25085D01*
X121488D01*
Y-25052D01*
X121521D01*
Y-25019D01*
X121555D01*
Y-24986D01*
X121588D01*
Y-24952D01*
X121621D01*
Y-24919D01*
X121654D01*
Y-24886D01*
X121688D01*
Y-24853D01*
X121721D01*
Y-24819D01*
X121754D01*
Y-24786D01*
X121787D01*
Y-24753D01*
X121821D01*
Y-24720D01*
X121854D01*
Y-24686D01*
X121887D01*
Y-24653D01*
X121920D01*
Y-24620D01*
X121953D01*
Y-24587D01*
X121987D01*
Y-24553D01*
X122020D01*
Y-24520D01*
X122053D01*
Y-24487D01*
X122087D01*
Y-24454D01*
X122120D01*
Y-24420D01*
X122153D01*
Y-24387D01*
X122186D01*
Y-24354D01*
X122220D01*
Y-24321D01*
X122253D01*
Y-24287D01*
X122286D01*
Y-24254D01*
X122319D01*
Y-24221D01*
X122353D01*
Y-24188D01*
X122386D01*
Y-24154D01*
X122419D01*
Y-24121D01*
X122452D01*
Y-24088D01*
X122485D01*
Y-24055D01*
X122519D01*
Y-24021D01*
X122552D01*
Y-23988D01*
X122585D01*
Y-23955D01*
X122619D01*
Y-23922D01*
X122652D01*
Y-23888D01*
X122685D01*
Y-23855D01*
X122718D01*
Y-23822D01*
X122751D01*
Y-23789D01*
X122785D01*
Y-23755D01*
X122818D01*
Y-23722D01*
X122851D01*
Y-23689D01*
X122885D01*
Y-23656D01*
X122918D01*
Y-23622D01*
X122951D01*
Y-23589D01*
X122984D01*
Y-23556D01*
X123018D01*
Y-23523D01*
X123051D01*
Y-23489D01*
X123084D01*
Y-23456D01*
X123117D01*
Y-23423D01*
X123151D01*
Y-23390D01*
X123217D01*
Y-23356D01*
X123250D01*
Y-23323D01*
X123284D01*
Y-23290D01*
X123317D01*
Y-23257D01*
X123350D01*
Y-23223D01*
X123383D01*
Y-23190D01*
X123417D01*
Y-23157D01*
X123450D01*
Y-23124D01*
X123483D01*
Y-23090D01*
X123516D01*
Y-23057D01*
X123583D01*
Y-23024D01*
X123616D01*
Y-22991D01*
X123682D01*
Y-22957D01*
X123749D01*
Y-22924D01*
X123816D01*
Y-22891D01*
X123882D01*
Y-22858D01*
X124015D01*
Y-22824D01*
X124148D01*
Y-22791D01*
X135154D01*
Y-22824D01*
D02*
G37*
G36*
X374016Y-236221D02*
X0D01*
Y-224410D01*
X374016D01*
Y-236221D01*
D02*
G37*
G36*
X106659Y-65039D02*
X107373Y-65142D01*
X108037Y-65269D01*
X108624Y-65397D01*
X108879Y-65473D01*
X109108Y-65550D01*
X109312Y-65626D01*
X109465Y-65677D01*
X109618Y-65728D01*
X109720Y-65779D01*
X109772Y-65805D01*
X109797D01*
X110460Y-66136D01*
X111073Y-66468D01*
X111608Y-66825D01*
X112093Y-67182D01*
X112476Y-67488D01*
X112629Y-67616D01*
X112756Y-67744D01*
X112884Y-67846D01*
X112960Y-67922D01*
X112986Y-67948D01*
X113011Y-67973D01*
X113496Y-68509D01*
X113930Y-69045D01*
X114312Y-69580D01*
X114618Y-70065D01*
X114848Y-70499D01*
X114950Y-70703D01*
X115026Y-70856D01*
X115103Y-70983D01*
X115154Y-71085D01*
X115180Y-71136D01*
Y-71162D01*
X115435Y-71851D01*
X115613Y-72540D01*
X115766Y-73203D01*
X115843Y-73790D01*
X115868Y-74070D01*
X115894Y-74300D01*
X115919Y-74529D01*
Y-74708D01*
X115945Y-74861D01*
Y-74963D01*
Y-75039D01*
Y-75065D01*
X115919Y-75805D01*
X115817Y-76519D01*
X115690Y-77182D01*
X115562Y-77769D01*
X115486Y-78024D01*
X115409Y-78254D01*
X115358Y-78458D01*
X115307Y-78611D01*
X115256Y-78764D01*
X115205Y-78866D01*
X115180Y-78917D01*
Y-78943D01*
X114848Y-79606D01*
X114516Y-80218D01*
X114134Y-80754D01*
X113802Y-81238D01*
X113496Y-81621D01*
X113343Y-81774D01*
X113241Y-81902D01*
X113139Y-82029D01*
X113062Y-82106D01*
X113037Y-82131D01*
X113011Y-82157D01*
X112476Y-82641D01*
X111940Y-83075D01*
X111404Y-83458D01*
X110894Y-83764D01*
X110460Y-83994D01*
X110282Y-84096D01*
X110129Y-84172D01*
X110001Y-84249D01*
X109899Y-84300D01*
X109848Y-84325D01*
X109822D01*
X109134Y-84580D01*
X108445Y-84759D01*
X107782Y-84912D01*
X107169Y-84988D01*
X106914Y-85014D01*
X106659Y-85039D01*
X106455Y-85065D01*
X106277D01*
X106123Y-85090D01*
X105920D01*
X105154Y-85065D01*
X104440Y-84963D01*
X103777Y-84835D01*
X103190Y-84708D01*
X102935Y-84631D01*
X102705Y-84555D01*
X102501Y-84504D01*
X102322Y-84453D01*
X102195Y-84402D01*
X102093Y-84351D01*
X102042Y-84325D01*
X102016D01*
X101353Y-83994D01*
X100715Y-83662D01*
X100180Y-83279D01*
X99721Y-82948D01*
X99338Y-82641D01*
X99159Y-82488D01*
X99032Y-82386D01*
X98930Y-82284D01*
X98853Y-82208D01*
X98828Y-82182D01*
X98802Y-82157D01*
X98317Y-81621D01*
X97884Y-81085D01*
X97527Y-80550D01*
X97220Y-80039D01*
X96991Y-79606D01*
X96889Y-79427D01*
X96812Y-79274D01*
X96736Y-79147D01*
X96685Y-79045D01*
X96659Y-78993D01*
Y-78968D01*
X96404Y-78279D01*
X96200Y-77590D01*
X96073Y-76927D01*
X95971Y-76315D01*
X95945Y-76060D01*
X95920Y-75805D01*
X95894Y-75601D01*
X95868Y-75422D01*
Y-75269D01*
Y-75167D01*
Y-75090D01*
Y-75065D01*
X95894Y-74300D01*
X95996Y-73560D01*
X96124Y-72922D01*
X96251Y-72335D01*
X96328Y-72080D01*
X96404Y-71851D01*
X96481Y-71647D01*
X96532Y-71468D01*
X96583Y-71341D01*
X96634Y-71238D01*
X96659Y-71187D01*
Y-71162D01*
X96965Y-70499D01*
X97323Y-69886D01*
X97680Y-69351D01*
X98037Y-68866D01*
X98343Y-68509D01*
X98470Y-68330D01*
X98573Y-68203D01*
X98675Y-68101D01*
X98751Y-68024D01*
X98777Y-67999D01*
X98802Y-67973D01*
X99338Y-67488D01*
X99874Y-67055D01*
X100409Y-66672D01*
X100894Y-66366D01*
X101328Y-66136D01*
X101532Y-66034D01*
X101685Y-65958D01*
X101812Y-65881D01*
X101914Y-65830D01*
X101965Y-65805D01*
X101991D01*
X102680Y-65550D01*
X103368Y-65346D01*
X104032Y-65218D01*
X104644Y-65116D01*
X104925Y-65091D01*
X105154Y-65065D01*
X105384Y-65039D01*
X105562Y-65014D01*
X105920D01*
X106659Y-65039D01*
D02*
G37*
G36*
X96555Y-65990D02*
X91853Y-71086D01*
X91372Y-77100D01*
X96402Y-82240D01*
X96118Y-82480D01*
X91328Y-77581D01*
X91241Y-78719D01*
X91219Y-79025D01*
X91197Y-79287D01*
Y-79397D01*
Y-79462D01*
Y-79506D01*
Y-79528D01*
Y-79659D01*
X91175Y-79747D01*
Y-79834D01*
Y-79878D01*
X91153Y-79943D01*
Y-79965D01*
X91131Y-80053D01*
X91110Y-80118D01*
X91088Y-80140D01*
X91066Y-80162D01*
X91000Y-80184D01*
X90978Y-80206D01*
X90956D01*
Y-80840D01*
X90125D01*
Y-80206D01*
X86757D01*
X86604Y-80424D01*
X86407Y-80578D01*
X86211Y-80709D01*
X86036Y-80774D01*
X85861Y-80818D01*
X85708Y-80840D01*
X85620Y-80862D01*
X85576D01*
X85379Y-80840D01*
X85183Y-80796D01*
X85030Y-80753D01*
X84877Y-80665D01*
X84767Y-80599D01*
X84680Y-80556D01*
X84636Y-80512D01*
X84614Y-80490D01*
X84483Y-80337D01*
X84395Y-80162D01*
X84308Y-80009D01*
X84264Y-79856D01*
X84242Y-79703D01*
X84220Y-79593D01*
Y-79528D01*
Y-79506D01*
Y-79353D01*
X81268Y-82546D01*
X80940Y-82284D01*
X85270Y-77581D01*
X84680Y-71392D01*
X83564D01*
Y-69730D01*
X83608D01*
X80000Y-66034D01*
Y-65444D01*
X84199Y-69730D01*
X84548D01*
X84483Y-68921D01*
X84373Y-68965D01*
X84264Y-68986D01*
X84199Y-69008D01*
X84177D01*
X83980Y-68986D01*
X83849Y-68921D01*
X83739Y-68855D01*
X83717Y-68833D01*
X83608Y-68680D01*
X83543Y-68527D01*
X83521Y-68418D01*
Y-68396D01*
Y-68374D01*
X83543Y-68199D01*
X83608Y-68068D01*
X83696Y-67980D01*
X83717Y-67937D01*
X83871Y-67827D01*
X84024Y-67762D01*
X84133Y-67740D01*
X84177D01*
X84395Y-67806D01*
X84548Y-67893D01*
X84636Y-67980D01*
X84680Y-68002D01*
Y-68024D01*
X84767Y-67937D01*
X84877Y-67849D01*
X85117Y-67674D01*
X85205Y-67609D01*
X85292Y-67565D01*
X85358Y-67543D01*
X85379Y-67521D01*
X85576Y-67412D01*
X85817Y-67346D01*
X86058Y-67281D01*
X86298Y-67215D01*
X86517Y-67171D01*
X86692Y-67150D01*
X86801Y-67128D01*
X86845D01*
Y-66909D01*
X89119D01*
Y-67040D01*
X89382Y-67062D01*
X89579Y-67084D01*
X89666Y-67106D01*
X89732D01*
X89775Y-67128D01*
X89797D01*
X90016Y-67150D01*
X90191Y-67193D01*
X90322Y-67215D01*
X90366D01*
Y-67150D01*
X91219D01*
Y-67478D01*
X91438Y-67587D01*
X91591Y-67696D01*
X91744Y-67806D01*
X91831Y-67893D01*
X91919Y-67980D01*
X91962Y-68046D01*
X92006Y-68068D01*
Y-68090D01*
X92094Y-68265D01*
X92159Y-68374D01*
X92181Y-68418D01*
Y-68440D01*
X92662D01*
Y-68943D01*
X92028D01*
X91897Y-70386D01*
X96555Y-65334D01*
Y-65990D01*
D02*
G37*
G36*
X95986Y-88320D02*
X81465D01*
Y-86155D01*
X95986D01*
Y-88320D01*
D02*
G37*
%LPC*%
G36*
X368104Y-1772D02*
X367329D01*
X366568Y-1923D01*
X365851Y-2220D01*
X365207Y-2651D01*
X364658Y-3199D01*
X364228Y-3844D01*
X363931Y-4560D01*
X363779Y-5321D01*
Y-5709D01*
Y-6096D01*
X363931Y-6857D01*
X364228Y-7574D01*
X364658Y-8218D01*
X365207Y-8767D01*
X365851Y-9198D01*
X366568Y-9494D01*
X367329Y-9646D01*
X368104D01*
X368865Y-9494D01*
X369581Y-9198D01*
X370226Y-8767D01*
X370775Y-8218D01*
X371205Y-7574D01*
X371502Y-6857D01*
X371653Y-6096D01*
Y-5709D01*
Y-5321D01*
X371502Y-4560D01*
X371205Y-3844D01*
X370775Y-3199D01*
X370226Y-2651D01*
X369581Y-2220D01*
X368865Y-1923D01*
X368104Y-1772D01*
D02*
G37*
G36*
X356420D02*
X355645D01*
X354884Y-1923D01*
X354168Y-2220D01*
X353523Y-2651D01*
X352974Y-3199D01*
X352543Y-3844D01*
X352247Y-4560D01*
X352095Y-5321D01*
Y-5709D01*
Y-6096D01*
X352247Y-6857D01*
X352543Y-7574D01*
X352974Y-8218D01*
X353523Y-8767D01*
X354168Y-9198D01*
X354884Y-9494D01*
X355645Y-9646D01*
X356420D01*
X357181Y-9494D01*
X357897Y-9198D01*
X358542Y-8767D01*
X359090Y-8218D01*
X359521Y-7574D01*
X359818Y-6857D01*
X359969Y-6096D01*
Y-5709D01*
Y-5321D01*
X359818Y-4560D01*
X359521Y-3844D01*
X359090Y-3199D01*
X358542Y-2651D01*
X357897Y-2220D01*
X357181Y-1923D01*
X356420Y-1772D01*
D02*
G37*
G36*
X344736D02*
X343961D01*
X343200Y-1923D01*
X342483Y-2220D01*
X341839Y-2651D01*
X341290Y-3199D01*
X340859Y-3844D01*
X340563Y-4560D01*
X340411Y-5321D01*
Y-5709D01*
Y-6096D01*
X340563Y-6857D01*
X340859Y-7574D01*
X341290Y-8218D01*
X341839Y-8767D01*
X342483Y-9198D01*
X343200Y-9494D01*
X343961Y-9646D01*
X344736D01*
X345497Y-9494D01*
X346213Y-9198D01*
X346858Y-8767D01*
X347406Y-8218D01*
X347837Y-7574D01*
X348134Y-6857D01*
X348285Y-6096D01*
Y-5709D01*
Y-5321D01*
X348134Y-4560D01*
X347837Y-3844D01*
X347406Y-3199D01*
X346858Y-2651D01*
X346213Y-2220D01*
X345497Y-1923D01*
X344736Y-1772D01*
D02*
G37*
G36*
X333052D02*
X332277D01*
X331516Y-1923D01*
X330800Y-2220D01*
X330155Y-2651D01*
X329606Y-3199D01*
X329175Y-3844D01*
X328879Y-4560D01*
X328727Y-5321D01*
Y-5709D01*
Y-6096D01*
X328879Y-6857D01*
X329175Y-7574D01*
X329606Y-8218D01*
X330155Y-8767D01*
X330800Y-9198D01*
X331516Y-9494D01*
X332277Y-9646D01*
X333052D01*
X333813Y-9494D01*
X334529Y-9198D01*
X335174Y-8767D01*
X335722Y-8218D01*
X336153Y-7574D01*
X336450Y-6857D01*
X336601Y-6096D01*
Y-5709D01*
Y-5321D01*
X336450Y-4560D01*
X336153Y-3844D01*
X335722Y-3199D01*
X335174Y-2651D01*
X334529Y-2220D01*
X333813Y-1923D01*
X333052Y-1772D01*
D02*
G37*
G36*
X321368D02*
X320593D01*
X319832Y-1923D01*
X319115Y-2220D01*
X318471Y-2651D01*
X317922Y-3199D01*
X317491Y-3844D01*
X317195Y-4560D01*
X317043Y-5321D01*
Y-5709D01*
Y-6096D01*
X317195Y-6857D01*
X317491Y-7574D01*
X317922Y-8218D01*
X318471Y-8767D01*
X319115Y-9198D01*
X319832Y-9494D01*
X320593Y-9646D01*
X321368D01*
X322129Y-9494D01*
X322845Y-9198D01*
X323490Y-8767D01*
X324038Y-8218D01*
X324469Y-7574D01*
X324766Y-6857D01*
X324917Y-6096D01*
Y-5709D01*
Y-5321D01*
X324766Y-4560D01*
X324469Y-3844D01*
X324038Y-3199D01*
X323490Y-2651D01*
X322845Y-2220D01*
X322129Y-1923D01*
X321368Y-1772D01*
D02*
G37*
G36*
X309684D02*
X308909D01*
X308148Y-1923D01*
X307431Y-2220D01*
X306787Y-2651D01*
X306238Y-3199D01*
X305807Y-3844D01*
X305511Y-4560D01*
X305359Y-5321D01*
Y-5709D01*
Y-6096D01*
X305511Y-6857D01*
X305807Y-7574D01*
X306238Y-8218D01*
X306787Y-8767D01*
X307431Y-9198D01*
X308148Y-9494D01*
X308909Y-9646D01*
X309684D01*
X310445Y-9494D01*
X311161Y-9198D01*
X311806Y-8767D01*
X312354Y-8218D01*
X312785Y-7574D01*
X313082Y-6857D01*
X313233Y-6096D01*
Y-5709D01*
Y-5321D01*
X313082Y-4560D01*
X312785Y-3844D01*
X312354Y-3199D01*
X311806Y-2651D01*
X311161Y-2220D01*
X310445Y-1923D01*
X309684Y-1772D01*
D02*
G37*
G36*
X298000D02*
X297224D01*
X296464Y-1923D01*
X295747Y-2220D01*
X295103Y-2651D01*
X294554Y-3199D01*
X294123Y-3844D01*
X293827Y-4560D01*
X293675Y-5321D01*
Y-5709D01*
Y-6096D01*
X293827Y-6857D01*
X294123Y-7574D01*
X294554Y-8218D01*
X295103Y-8767D01*
X295747Y-9198D01*
X296464Y-9494D01*
X297224Y-9646D01*
X298000D01*
X298761Y-9494D01*
X299477Y-9198D01*
X300122Y-8767D01*
X300670Y-8218D01*
X301101Y-7574D01*
X301398Y-6857D01*
X301549Y-6096D01*
Y-5709D01*
Y-5321D01*
X301398Y-4560D01*
X301101Y-3844D01*
X300670Y-3199D01*
X300122Y-2651D01*
X299477Y-2220D01*
X298761Y-1923D01*
X298000Y-1772D01*
D02*
G37*
G36*
X286316D02*
X285541D01*
X284780Y-1923D01*
X284063Y-2220D01*
X283419Y-2651D01*
X282870Y-3199D01*
X282439Y-3844D01*
X282143Y-4560D01*
X281991Y-5321D01*
Y-5709D01*
Y-6096D01*
X282143Y-6857D01*
X282439Y-7574D01*
X282870Y-8218D01*
X283419Y-8767D01*
X284063Y-9198D01*
X284780Y-9494D01*
X285541Y-9646D01*
X286316D01*
X287077Y-9494D01*
X287793Y-9198D01*
X288438Y-8767D01*
X288986Y-8218D01*
X289417Y-7574D01*
X289714Y-6857D01*
X289865Y-6096D01*
Y-5709D01*
Y-5321D01*
X289714Y-4560D01*
X289417Y-3844D01*
X288986Y-3199D01*
X288438Y-2651D01*
X287793Y-2220D01*
X287077Y-1923D01*
X286316Y-1772D01*
D02*
G37*
G36*
X274632D02*
X273856D01*
X273096Y-1923D01*
X272379Y-2220D01*
X271735Y-2651D01*
X271186Y-3199D01*
X270755Y-3844D01*
X270459Y-4560D01*
X270307Y-5321D01*
Y-5709D01*
Y-6096D01*
X270459Y-6857D01*
X270755Y-7574D01*
X271186Y-8218D01*
X271735Y-8767D01*
X272379Y-9198D01*
X273096Y-9494D01*
X273856Y-9646D01*
X274632D01*
X275393Y-9494D01*
X276109Y-9198D01*
X276754Y-8767D01*
X277302Y-8218D01*
X277733Y-7574D01*
X278030Y-6857D01*
X278181Y-6096D01*
Y-5709D01*
Y-5321D01*
X278030Y-4560D01*
X277733Y-3844D01*
X277302Y-3199D01*
X276754Y-2651D01*
X276109Y-2220D01*
X275393Y-1923D01*
X274632Y-1772D01*
D02*
G37*
G36*
X262948D02*
X262173D01*
X261412Y-1923D01*
X260695Y-2220D01*
X260051Y-2651D01*
X259502Y-3199D01*
X259071Y-3844D01*
X258774Y-4560D01*
X258623Y-5321D01*
Y-5709D01*
Y-6096D01*
X258774Y-6857D01*
X259071Y-7574D01*
X259502Y-8218D01*
X260051Y-8767D01*
X260695Y-9198D01*
X261412Y-9494D01*
X262173Y-9646D01*
X262948D01*
X263709Y-9494D01*
X264425Y-9198D01*
X265070Y-8767D01*
X265618Y-8218D01*
X266049Y-7574D01*
X266346Y-6857D01*
X266497Y-6096D01*
Y-5709D01*
Y-5321D01*
X266346Y-4560D01*
X266049Y-3844D01*
X265618Y-3199D01*
X265070Y-2651D01*
X264425Y-2220D01*
X263709Y-1923D01*
X262948Y-1772D01*
D02*
G37*
G36*
X251264D02*
X250488D01*
X249728Y-1923D01*
X249011Y-2220D01*
X248366Y-2651D01*
X247818Y-3199D01*
X247387Y-3844D01*
X247091Y-4560D01*
X246939Y-5321D01*
Y-5709D01*
Y-6096D01*
X247091Y-6857D01*
X247387Y-7574D01*
X247818Y-8218D01*
X248366Y-8767D01*
X249011Y-9198D01*
X249728Y-9494D01*
X250488Y-9646D01*
X251264D01*
X252025Y-9494D01*
X252741Y-9198D01*
X253386Y-8767D01*
X253934Y-8218D01*
X254365Y-7574D01*
X254662Y-6857D01*
X254813Y-6096D01*
Y-5709D01*
Y-5321D01*
X254662Y-4560D01*
X254365Y-3844D01*
X253934Y-3199D01*
X253386Y-2651D01*
X252741Y-2220D01*
X252025Y-1923D01*
X251264Y-1772D01*
D02*
G37*
G36*
X239580D02*
X238804D01*
X238044Y-1923D01*
X237327Y-2220D01*
X236683Y-2651D01*
X236134Y-3199D01*
X235703Y-3844D01*
X235406Y-4560D01*
X235255Y-5321D01*
Y-5709D01*
Y-6096D01*
X235406Y-6857D01*
X235703Y-7574D01*
X236134Y-8218D01*
X236683Y-8767D01*
X237327Y-9198D01*
X238044Y-9494D01*
X238804Y-9646D01*
X239580D01*
X240341Y-9494D01*
X241057Y-9198D01*
X241702Y-8767D01*
X242250Y-8218D01*
X242681Y-7574D01*
X242978Y-6857D01*
X243129Y-6096D01*
Y-5709D01*
Y-5321D01*
X242978Y-4560D01*
X242681Y-3844D01*
X242250Y-3199D01*
X241702Y-2651D01*
X241057Y-2220D01*
X240341Y-1923D01*
X239580Y-1772D01*
D02*
G37*
G36*
X227896D02*
X227120D01*
X226360Y-1923D01*
X225643Y-2220D01*
X224998Y-2651D01*
X224450Y-3199D01*
X224019Y-3844D01*
X223723Y-4560D01*
X223571Y-5321D01*
Y-5709D01*
Y-6096D01*
X223723Y-6857D01*
X224019Y-7574D01*
X224450Y-8218D01*
X224998Y-8767D01*
X225643Y-9198D01*
X226360Y-9494D01*
X227120Y-9646D01*
X227896D01*
X228657Y-9494D01*
X229373Y-9198D01*
X230018Y-8767D01*
X230566Y-8218D01*
X230997Y-7574D01*
X231294Y-6857D01*
X231445Y-6096D01*
Y-5709D01*
Y-5321D01*
X231294Y-4560D01*
X230997Y-3844D01*
X230566Y-3199D01*
X230018Y-2651D01*
X229373Y-2220D01*
X228657Y-1923D01*
X227896Y-1772D01*
D02*
G37*
G36*
X216212D02*
X215436D01*
X214676Y-1923D01*
X213959Y-2220D01*
X213315Y-2651D01*
X212766Y-3199D01*
X212335Y-3844D01*
X212038Y-4560D01*
X211887Y-5321D01*
Y-5709D01*
Y-6096D01*
X212038Y-6857D01*
X212335Y-7574D01*
X212766Y-8218D01*
X213315Y-8767D01*
X213959Y-9198D01*
X214676Y-9494D01*
X215436Y-9646D01*
X216212D01*
X216972Y-9494D01*
X217689Y-9198D01*
X218334Y-8767D01*
X218882Y-8218D01*
X219313Y-7574D01*
X219610Y-6857D01*
X219761Y-6096D01*
Y-5709D01*
Y-5321D01*
X219610Y-4560D01*
X219313Y-3844D01*
X218882Y-3199D01*
X218334Y-2651D01*
X217689Y-2220D01*
X216972Y-1923D01*
X216212Y-1772D01*
D02*
G37*
G36*
X204528D02*
X203752D01*
X202992Y-1923D01*
X202275Y-2220D01*
X201630Y-2651D01*
X201082Y-3199D01*
X200651Y-3844D01*
X200354Y-4560D01*
X200203Y-5321D01*
Y-5709D01*
Y-6096D01*
X200354Y-6857D01*
X200651Y-7574D01*
X201082Y-8218D01*
X201630Y-8767D01*
X202275Y-9198D01*
X202992Y-9494D01*
X203752Y-9646D01*
X204528D01*
X205289Y-9494D01*
X206005Y-9198D01*
X206650Y-8767D01*
X207198Y-8218D01*
X207629Y-7574D01*
X207926Y-6857D01*
X208077Y-6096D01*
Y-5709D01*
Y-5321D01*
X207926Y-4560D01*
X207629Y-3844D01*
X207198Y-3199D01*
X206650Y-2651D01*
X206005Y-2220D01*
X205289Y-1923D01*
X204528Y-1772D01*
D02*
G37*
G36*
X192844D02*
X192068D01*
X191308Y-1923D01*
X190591Y-2220D01*
X189946Y-2651D01*
X189398Y-3199D01*
X188967Y-3844D01*
X188670Y-4560D01*
X188519Y-5321D01*
Y-5709D01*
Y-6096D01*
X188670Y-6857D01*
X188967Y-7574D01*
X189398Y-8218D01*
X189946Y-8767D01*
X190591Y-9198D01*
X191308Y-9494D01*
X192068Y-9646D01*
X192844D01*
X193605Y-9494D01*
X194321Y-9198D01*
X194966Y-8767D01*
X195514Y-8218D01*
X195945Y-7574D01*
X196242Y-6857D01*
X196393Y-6096D01*
Y-5709D01*
Y-5321D01*
X196242Y-4560D01*
X195945Y-3844D01*
X195514Y-3199D01*
X194966Y-2651D01*
X194321Y-2220D01*
X193605Y-1923D01*
X192844Y-1772D01*
D02*
G37*
G36*
X181160D02*
X180384D01*
X179624Y-1923D01*
X178907Y-2220D01*
X178262Y-2651D01*
X177714Y-3199D01*
X177283Y-3844D01*
X176986Y-4560D01*
X176835Y-5321D01*
Y-5709D01*
Y-6096D01*
X176986Y-6857D01*
X177283Y-7574D01*
X177714Y-8218D01*
X178262Y-8767D01*
X178907Y-9198D01*
X179624Y-9494D01*
X180384Y-9646D01*
X181160D01*
X181921Y-9494D01*
X182637Y-9198D01*
X183282Y-8767D01*
X183830Y-8218D01*
X184261Y-7574D01*
X184558Y-6857D01*
X184709Y-6096D01*
Y-5709D01*
Y-5321D01*
X184558Y-4560D01*
X184261Y-3844D01*
X183830Y-3199D01*
X183282Y-2651D01*
X182637Y-2220D01*
X181921Y-1923D01*
X181160Y-1772D01*
D02*
G37*
G36*
X169476D02*
X168700D01*
X167940Y-1923D01*
X167223Y-2220D01*
X166578Y-2651D01*
X166030Y-3199D01*
X165599Y-3844D01*
X165302Y-4560D01*
X165151Y-5321D01*
Y-5709D01*
Y-6096D01*
X165302Y-6857D01*
X165599Y-7574D01*
X166030Y-8218D01*
X166578Y-8767D01*
X167223Y-9198D01*
X167940Y-9494D01*
X168700Y-9646D01*
X169476D01*
X170237Y-9494D01*
X170953Y-9198D01*
X171598Y-8767D01*
X172146Y-8218D01*
X172577Y-7574D01*
X172874Y-6857D01*
X173025Y-6096D01*
Y-5709D01*
Y-5321D01*
X172874Y-4560D01*
X172577Y-3844D01*
X172146Y-3199D01*
X171598Y-2651D01*
X170953Y-2220D01*
X170237Y-1923D01*
X169476Y-1772D01*
D02*
G37*
G36*
X157792D02*
X157016D01*
X156256Y-1923D01*
X155539Y-2220D01*
X154894Y-2651D01*
X154346Y-3199D01*
X153915Y-3844D01*
X153618Y-4560D01*
X153467Y-5321D01*
Y-5709D01*
Y-6096D01*
X153618Y-6857D01*
X153915Y-7574D01*
X154346Y-8218D01*
X154894Y-8767D01*
X155539Y-9198D01*
X156256Y-9494D01*
X157016Y-9646D01*
X157792D01*
X158552Y-9494D01*
X159269Y-9198D01*
X159914Y-8767D01*
X160462Y-8218D01*
X160893Y-7574D01*
X161190Y-6857D01*
X161341Y-6096D01*
Y-5709D01*
Y-5321D01*
X161190Y-4560D01*
X160893Y-3844D01*
X160462Y-3199D01*
X159914Y-2651D01*
X159269Y-2220D01*
X158552Y-1923D01*
X157792Y-1772D01*
D02*
G37*
G36*
X146108D02*
X145332D01*
X144572Y-1923D01*
X143855Y-2220D01*
X143210Y-2651D01*
X142662Y-3199D01*
X142231Y-3844D01*
X141934Y-4560D01*
X141783Y-5321D01*
Y-5709D01*
Y-6096D01*
X141934Y-6857D01*
X142231Y-7574D01*
X142662Y-8218D01*
X143210Y-8767D01*
X143855Y-9198D01*
X144572Y-9494D01*
X145332Y-9646D01*
X146108D01*
X146868Y-9494D01*
X147585Y-9198D01*
X148230Y-8767D01*
X148778Y-8218D01*
X149209Y-7574D01*
X149506Y-6857D01*
X149657Y-6096D01*
Y-5709D01*
Y-5321D01*
X149506Y-4560D01*
X149209Y-3844D01*
X148778Y-3199D01*
X148230Y-2651D01*
X147585Y-2220D01*
X146868Y-1923D01*
X146108Y-1772D01*
D02*
G37*
G36*
X134424D02*
X133648D01*
X132888Y-1923D01*
X132171Y-2220D01*
X131526Y-2651D01*
X130978Y-3199D01*
X130547Y-3844D01*
X130250Y-4560D01*
X130099Y-5321D01*
Y-5709D01*
Y-6096D01*
X130250Y-6857D01*
X130547Y-7574D01*
X130978Y-8218D01*
X131526Y-8767D01*
X132171Y-9198D01*
X132888Y-9494D01*
X133648Y-9646D01*
X134424D01*
X135184Y-9494D01*
X135901Y-9198D01*
X136546Y-8767D01*
X137094Y-8218D01*
X137525Y-7574D01*
X137822Y-6857D01*
X137973Y-6096D01*
Y-5709D01*
Y-5321D01*
X137822Y-4560D01*
X137525Y-3844D01*
X137094Y-3199D01*
X136546Y-2651D01*
X135901Y-2220D01*
X135184Y-1923D01*
X134424Y-1772D01*
D02*
G37*
G36*
X122740D02*
X121964D01*
X121204Y-1923D01*
X120487Y-2220D01*
X119842Y-2651D01*
X119294Y-3199D01*
X118863Y-3844D01*
X118566Y-4560D01*
X118415Y-5321D01*
Y-5709D01*
Y-6096D01*
X118566Y-6857D01*
X118863Y-7574D01*
X119294Y-8218D01*
X119842Y-8767D01*
X120487Y-9198D01*
X121204Y-9494D01*
X121964Y-9646D01*
X122740D01*
X123500Y-9494D01*
X124217Y-9198D01*
X124862Y-8767D01*
X125410Y-8218D01*
X125841Y-7574D01*
X126138Y-6857D01*
X126289Y-6096D01*
Y-5709D01*
Y-5321D01*
X126138Y-4560D01*
X125841Y-3844D01*
X125410Y-3199D01*
X124862Y-2651D01*
X124217Y-2220D01*
X123500Y-1923D01*
X122740Y-1772D01*
D02*
G37*
G36*
X111056D02*
X110280D01*
X109520Y-1923D01*
X108803Y-2220D01*
X108158Y-2651D01*
X107610Y-3199D01*
X107179Y-3844D01*
X106882Y-4560D01*
X106731Y-5321D01*
Y-5709D01*
Y-6096D01*
X106882Y-6857D01*
X107179Y-7574D01*
X107610Y-8218D01*
X108158Y-8767D01*
X108803Y-9198D01*
X109520Y-9494D01*
X110280Y-9646D01*
X111056D01*
X111816Y-9494D01*
X112533Y-9198D01*
X113178Y-8767D01*
X113726Y-8218D01*
X114157Y-7574D01*
X114454Y-6857D01*
X114605Y-6096D01*
Y-5709D01*
Y-5321D01*
X114454Y-4560D01*
X114157Y-3844D01*
X113726Y-3199D01*
X113178Y-2651D01*
X112533Y-2220D01*
X111816Y-1923D01*
X111056Y-1772D01*
D02*
G37*
G36*
X99372D02*
X98596D01*
X97836Y-1923D01*
X97119Y-2220D01*
X96474Y-2651D01*
X95926Y-3199D01*
X95495Y-3844D01*
X95198Y-4560D01*
X95047Y-5321D01*
Y-5709D01*
Y-6096D01*
X95198Y-6857D01*
X95495Y-7574D01*
X95926Y-8218D01*
X96474Y-8767D01*
X97119Y-9198D01*
X97836Y-9494D01*
X98596Y-9646D01*
X99372D01*
X100132Y-9494D01*
X100849Y-9198D01*
X101494Y-8767D01*
X102042Y-8218D01*
X102473Y-7574D01*
X102770Y-6857D01*
X102921Y-6096D01*
Y-5709D01*
Y-5321D01*
X102770Y-4560D01*
X102473Y-3844D01*
X102042Y-3199D01*
X101494Y-2651D01*
X100849Y-2220D01*
X100132Y-1923D01*
X99372Y-1772D01*
D02*
G37*
G36*
X87688D02*
X86912D01*
X86151Y-1923D01*
X85435Y-2220D01*
X84790Y-2651D01*
X84242Y-3199D01*
X83811Y-3844D01*
X83514Y-4560D01*
X83363Y-5321D01*
Y-5709D01*
Y-6096D01*
X83514Y-6857D01*
X83811Y-7574D01*
X84242Y-8218D01*
X84790Y-8767D01*
X85435Y-9198D01*
X86151Y-9494D01*
X86912Y-9646D01*
X87688D01*
X88448Y-9494D01*
X89165Y-9198D01*
X89810Y-8767D01*
X90358Y-8218D01*
X90789Y-7574D01*
X91086Y-6857D01*
X91237Y-6096D01*
Y-5709D01*
Y-5321D01*
X91086Y-4560D01*
X90789Y-3844D01*
X90358Y-3199D01*
X89810Y-2651D01*
X89165Y-2220D01*
X88448Y-1923D01*
X87688Y-1772D01*
D02*
G37*
G36*
X76004D02*
X75228D01*
X74467Y-1923D01*
X73751Y-2220D01*
X73106Y-2651D01*
X72558Y-3199D01*
X72127Y-3844D01*
X71830Y-4560D01*
X71679Y-5321D01*
Y-5709D01*
Y-6096D01*
X71830Y-6857D01*
X72127Y-7574D01*
X72558Y-8218D01*
X73106Y-8767D01*
X73751Y-9198D01*
X74467Y-9494D01*
X75228Y-9646D01*
X76004D01*
X76764Y-9494D01*
X77481Y-9198D01*
X78126Y-8767D01*
X78674Y-8218D01*
X79105Y-7574D01*
X79402Y-6857D01*
X79553Y-6096D01*
Y-5709D01*
Y-5321D01*
X79402Y-4560D01*
X79105Y-3844D01*
X78674Y-3199D01*
X78126Y-2651D01*
X77481Y-2220D01*
X76764Y-1923D01*
X76004Y-1772D01*
D02*
G37*
G36*
X64320D02*
X63544D01*
X62783Y-1923D01*
X62067Y-2220D01*
X61422Y-2651D01*
X60874Y-3199D01*
X60443Y-3844D01*
X60146Y-4560D01*
X59995Y-5321D01*
Y-5709D01*
Y-6096D01*
X60146Y-6857D01*
X60443Y-7574D01*
X60874Y-8218D01*
X61422Y-8767D01*
X62067Y-9198D01*
X62783Y-9494D01*
X63544Y-9646D01*
X64320D01*
X65080Y-9494D01*
X65797Y-9198D01*
X66442Y-8767D01*
X66990Y-8218D01*
X67421Y-7574D01*
X67718Y-6857D01*
X67869Y-6096D01*
Y-5709D01*
Y-5321D01*
X67718Y-4560D01*
X67421Y-3844D01*
X66990Y-3199D01*
X66442Y-2651D01*
X65797Y-2220D01*
X65080Y-1923D01*
X64320Y-1772D01*
D02*
G37*
G36*
X52636D02*
X51860D01*
X51099Y-1923D01*
X50383Y-2220D01*
X49738Y-2651D01*
X49190Y-3199D01*
X48759Y-3844D01*
X48462Y-4560D01*
X48311Y-5321D01*
Y-5709D01*
Y-6096D01*
X48462Y-6857D01*
X48759Y-7574D01*
X49190Y-8218D01*
X49738Y-8767D01*
X50383Y-9198D01*
X51099Y-9494D01*
X51860Y-9646D01*
X52636D01*
X53396Y-9494D01*
X54113Y-9198D01*
X54758Y-8767D01*
X55306Y-8218D01*
X55737Y-7574D01*
X56034Y-6857D01*
X56185Y-6096D01*
Y-5709D01*
Y-5321D01*
X56034Y-4560D01*
X55737Y-3844D01*
X55306Y-3199D01*
X54758Y-2651D01*
X54113Y-2220D01*
X53396Y-1923D01*
X52636Y-1772D01*
D02*
G37*
G36*
X40952D02*
X40176D01*
X39415Y-1923D01*
X38699Y-2220D01*
X38054Y-2651D01*
X37506Y-3199D01*
X37075Y-3844D01*
X36778Y-4560D01*
X36627Y-5321D01*
Y-5709D01*
Y-6096D01*
X36778Y-6857D01*
X37075Y-7574D01*
X37506Y-8218D01*
X38054Y-8767D01*
X38699Y-9198D01*
X39415Y-9494D01*
X40176Y-9646D01*
X40952D01*
X41712Y-9494D01*
X42429Y-9198D01*
X43074Y-8767D01*
X43622Y-8218D01*
X44053Y-7574D01*
X44350Y-6857D01*
X44501Y-6096D01*
Y-5709D01*
Y-5321D01*
X44350Y-4560D01*
X44053Y-3844D01*
X43622Y-3199D01*
X43074Y-2651D01*
X42429Y-2220D01*
X41712Y-1923D01*
X40952Y-1772D01*
D02*
G37*
G36*
X29268D02*
X28492D01*
X27731Y-1923D01*
X27015Y-2220D01*
X26370Y-2651D01*
X25822Y-3199D01*
X25391Y-3844D01*
X25094Y-4560D01*
X24943Y-5321D01*
Y-5709D01*
Y-6096D01*
X25094Y-6857D01*
X25391Y-7574D01*
X25822Y-8218D01*
X26370Y-8767D01*
X27015Y-9198D01*
X27731Y-9494D01*
X28492Y-9646D01*
X29268D01*
X30028Y-9494D01*
X30745Y-9198D01*
X31389Y-8767D01*
X31938Y-8218D01*
X32369Y-7574D01*
X32666Y-6857D01*
X32817Y-6096D01*
Y-5709D01*
Y-5321D01*
X32666Y-4560D01*
X32369Y-3844D01*
X31938Y-3199D01*
X31389Y-2651D01*
X30745Y-2220D01*
X30028Y-1923D01*
X29268Y-1772D01*
D02*
G37*
G36*
X17584D02*
X16808D01*
X16047Y-1923D01*
X15331Y-2220D01*
X14686Y-2651D01*
X14138Y-3199D01*
X13707Y-3844D01*
X13410Y-4560D01*
X13259Y-5321D01*
Y-5709D01*
Y-6096D01*
X13410Y-6857D01*
X13707Y-7574D01*
X14138Y-8218D01*
X14686Y-8767D01*
X15331Y-9198D01*
X16047Y-9494D01*
X16808Y-9646D01*
X17584D01*
X18344Y-9494D01*
X19061Y-9198D01*
X19705Y-8767D01*
X20254Y-8218D01*
X20685Y-7574D01*
X20981Y-6857D01*
X21133Y-6096D01*
Y-5709D01*
Y-5321D01*
X20981Y-4560D01*
X20685Y-3844D01*
X20254Y-3199D01*
X19705Y-2651D01*
X19061Y-2220D01*
X18344Y-1923D01*
X17584Y-1772D01*
D02*
G37*
G36*
X5900D02*
X5124D01*
X4363Y-1923D01*
X3647Y-2220D01*
X3002Y-2651D01*
X2454Y-3199D01*
X2023Y-3844D01*
X1726Y-4560D01*
X1575Y-5321D01*
Y-5709D01*
Y-6096D01*
X1726Y-6857D01*
X2023Y-7574D01*
X2454Y-8218D01*
X3002Y-8767D01*
X3647Y-9198D01*
X4363Y-9494D01*
X5124Y-9646D01*
X5900D01*
X6660Y-9494D01*
X7377Y-9198D01*
X8021Y-8767D01*
X8570Y-8218D01*
X9001Y-7574D01*
X9297Y-6857D01*
X9449Y-6096D01*
Y-5709D01*
Y-5321D01*
X9297Y-4560D01*
X9001Y-3844D01*
X8570Y-3199D01*
X8021Y-2651D01*
X7377Y-2220D01*
X6660Y-1923D01*
X5900Y-1772D01*
D02*
G37*
G36*
X129601Y-25318D02*
X129335D01*
Y-25351D01*
X129269D01*
Y-25385D01*
X129235D01*
Y-25418D01*
X129202D01*
Y-25451D01*
X129169D01*
Y-25484D01*
X129136D01*
Y-25584D01*
X129102D01*
Y-26083D01*
X129069D01*
Y-26116D01*
X128836D01*
Y-26083D01*
X128803D01*
Y-26050D01*
Y-26016D01*
Y-25584D01*
X128770D01*
Y-25484D01*
X128737D01*
Y-25451D01*
X128703D01*
Y-25418D01*
X128670D01*
Y-25385D01*
X128637D01*
Y-25351D01*
X128570D01*
Y-25318D01*
X128304D01*
Y-25351D01*
X128238D01*
Y-25385D01*
X128171D01*
Y-25418D01*
X128138D01*
Y-25484D01*
X128105D01*
Y-25551D01*
X128072D01*
Y-26083D01*
X128038D01*
Y-26116D01*
X127772D01*
Y-25651D01*
X127739D01*
Y-25518D01*
X127706D01*
Y-25484D01*
X127673D01*
Y-25418D01*
X127639D01*
Y-25385D01*
X127573D01*
Y-25351D01*
X127506D01*
Y-25318D01*
X127240D01*
Y-25351D01*
X127174D01*
Y-25385D01*
X127141D01*
Y-25418D01*
X127107D01*
Y-25451D01*
X127074D01*
Y-25518D01*
X127041D01*
Y-25617D01*
X127007D01*
Y-26083D01*
X126974D01*
Y-26116D01*
X125977D01*
Y-29907D01*
X126010D01*
Y-30073D01*
X126043D01*
Y-30173D01*
X126076D01*
Y-30272D01*
X126110D01*
Y-30339D01*
X126143D01*
Y-30405D01*
X126176D01*
Y-30472D01*
X126209D01*
Y-30505D01*
X126243D01*
Y-30572D01*
X126276D01*
Y-30605D01*
X126309D01*
Y-30638D01*
X126343D01*
Y-30671D01*
X126376D01*
Y-30705D01*
X126409D01*
Y-30738D01*
X126442D01*
Y-30771D01*
X126476D01*
Y-30804D01*
X126509D01*
Y-30838D01*
X126575D01*
Y-30871D01*
X126609D01*
Y-30904D01*
X126675D01*
Y-30937D01*
X126742D01*
Y-30971D01*
X126841D01*
Y-31004D01*
X126941D01*
Y-31037D01*
X127107D01*
Y-31070D01*
X130898D01*
Y-30040D01*
X130931D01*
Y-30006D01*
X131463D01*
Y-29973D01*
X131530D01*
Y-29940D01*
X131596D01*
Y-29873D01*
X131629D01*
Y-29840D01*
X131663D01*
Y-29740D01*
X131696D01*
Y-29541D01*
X131663D01*
Y-29474D01*
X131629D01*
Y-29408D01*
X131596D01*
Y-29375D01*
X131563D01*
Y-29341D01*
X131496D01*
Y-29308D01*
X131430D01*
Y-29275D01*
X130898D01*
Y-28976D01*
X131430D01*
Y-28942D01*
X131496D01*
Y-28909D01*
X131563D01*
Y-28876D01*
X131596D01*
Y-28843D01*
X131629D01*
Y-28776D01*
X131663D01*
Y-28710D01*
X131696D01*
Y-28510D01*
X131663D01*
Y-28410D01*
X131629D01*
Y-28377D01*
X131596D01*
Y-28344D01*
X131563D01*
Y-28311D01*
X131530D01*
Y-28277D01*
X131463D01*
Y-28244D01*
X130931D01*
Y-28211D01*
X130898D01*
Y-27945D01*
X131330D01*
Y-27912D01*
X131496D01*
Y-27878D01*
X131530D01*
Y-27845D01*
X131596D01*
Y-27812D01*
X131629D01*
Y-27745D01*
X131663D01*
Y-27679D01*
X131696D01*
Y-27446D01*
X131663D01*
Y-27380D01*
X131629D01*
Y-27313D01*
X131596D01*
Y-27280D01*
X131563D01*
Y-27247D01*
X131496D01*
Y-27213D01*
X131397D01*
Y-27180D01*
X130898D01*
Y-26116D01*
X129867D01*
Y-26083D01*
X129834D01*
Y-25551D01*
X129801D01*
Y-25484D01*
X129767D01*
Y-25418D01*
X129734D01*
Y-25385D01*
X129668D01*
Y-25351D01*
X129601D01*
Y-25318D01*
D02*
G37*
G36*
X368104Y-226575D02*
X367329D01*
X366568Y-226726D01*
X365851Y-227023D01*
X365207Y-227454D01*
X364658Y-228002D01*
X364228Y-228647D01*
X363931Y-229363D01*
X363779Y-230124D01*
Y-230512D01*
Y-230900D01*
X363931Y-231660D01*
X364228Y-232377D01*
X364658Y-233021D01*
X365207Y-233570D01*
X365851Y-234001D01*
X366568Y-234297D01*
X367329Y-234449D01*
X368104D01*
X368865Y-234297D01*
X369581Y-234001D01*
X370226Y-233570D01*
X370775Y-233021D01*
X371205Y-232377D01*
X371502Y-231660D01*
X371653Y-230900D01*
Y-230512D01*
Y-230124D01*
X371502Y-229363D01*
X371205Y-228647D01*
X370775Y-228002D01*
X370226Y-227454D01*
X369581Y-227023D01*
X368865Y-226726D01*
X368104Y-226575D01*
D02*
G37*
G36*
X356420D02*
X355645D01*
X354884Y-226726D01*
X354168Y-227023D01*
X353523Y-227454D01*
X352974Y-228002D01*
X352543Y-228647D01*
X352247Y-229363D01*
X352095Y-230124D01*
Y-230512D01*
Y-230900D01*
X352247Y-231660D01*
X352543Y-232377D01*
X352974Y-233021D01*
X353523Y-233570D01*
X354168Y-234001D01*
X354884Y-234297D01*
X355645Y-234449D01*
X356420D01*
X357181Y-234297D01*
X357897Y-234001D01*
X358542Y-233570D01*
X359090Y-233021D01*
X359521Y-232377D01*
X359818Y-231660D01*
X359969Y-230900D01*
Y-230512D01*
Y-230124D01*
X359818Y-229363D01*
X359521Y-228647D01*
X359090Y-228002D01*
X358542Y-227454D01*
X357897Y-227023D01*
X357181Y-226726D01*
X356420Y-226575D01*
D02*
G37*
G36*
X344736D02*
X343961D01*
X343200Y-226726D01*
X342483Y-227023D01*
X341839Y-227454D01*
X341290Y-228002D01*
X340859Y-228647D01*
X340563Y-229363D01*
X340411Y-230124D01*
Y-230512D01*
Y-230900D01*
X340563Y-231660D01*
X340859Y-232377D01*
X341290Y-233021D01*
X341839Y-233570D01*
X342483Y-234001D01*
X343200Y-234297D01*
X343961Y-234449D01*
X344736D01*
X345497Y-234297D01*
X346213Y-234001D01*
X346858Y-233570D01*
X347406Y-233021D01*
X347837Y-232377D01*
X348134Y-231660D01*
X348285Y-230900D01*
Y-230512D01*
Y-230124D01*
X348134Y-229363D01*
X347837Y-228647D01*
X347406Y-228002D01*
X346858Y-227454D01*
X346213Y-227023D01*
X345497Y-226726D01*
X344736Y-226575D01*
D02*
G37*
G36*
X333052D02*
X332277D01*
X331516Y-226726D01*
X330800Y-227023D01*
X330155Y-227454D01*
X329606Y-228002D01*
X329175Y-228647D01*
X328879Y-229363D01*
X328727Y-230124D01*
Y-230512D01*
Y-230900D01*
X328879Y-231660D01*
X329175Y-232377D01*
X329606Y-233021D01*
X330155Y-233570D01*
X330800Y-234001D01*
X331516Y-234297D01*
X332277Y-234449D01*
X333052D01*
X333813Y-234297D01*
X334529Y-234001D01*
X335174Y-233570D01*
X335722Y-233021D01*
X336153Y-232377D01*
X336450Y-231660D01*
X336601Y-230900D01*
Y-230512D01*
Y-230124D01*
X336450Y-229363D01*
X336153Y-228647D01*
X335722Y-228002D01*
X335174Y-227454D01*
X334529Y-227023D01*
X333813Y-226726D01*
X333052Y-226575D01*
D02*
G37*
G36*
X321368D02*
X320593D01*
X319832Y-226726D01*
X319115Y-227023D01*
X318471Y-227454D01*
X317922Y-228002D01*
X317491Y-228647D01*
X317195Y-229363D01*
X317043Y-230124D01*
Y-230512D01*
Y-230900D01*
X317195Y-231660D01*
X317491Y-232377D01*
X317922Y-233021D01*
X318471Y-233570D01*
X319115Y-234001D01*
X319832Y-234297D01*
X320593Y-234449D01*
X321368D01*
X322129Y-234297D01*
X322845Y-234001D01*
X323490Y-233570D01*
X324038Y-233021D01*
X324469Y-232377D01*
X324766Y-231660D01*
X324917Y-230900D01*
Y-230512D01*
Y-230124D01*
X324766Y-229363D01*
X324469Y-228647D01*
X324038Y-228002D01*
X323490Y-227454D01*
X322845Y-227023D01*
X322129Y-226726D01*
X321368Y-226575D01*
D02*
G37*
G36*
X309684D02*
X308909D01*
X308148Y-226726D01*
X307431Y-227023D01*
X306787Y-227454D01*
X306238Y-228002D01*
X305807Y-228647D01*
X305511Y-229363D01*
X305359Y-230124D01*
Y-230512D01*
Y-230900D01*
X305511Y-231660D01*
X305807Y-232377D01*
X306238Y-233021D01*
X306787Y-233570D01*
X307431Y-234001D01*
X308148Y-234297D01*
X308909Y-234449D01*
X309684D01*
X310445Y-234297D01*
X311161Y-234001D01*
X311806Y-233570D01*
X312354Y-233021D01*
X312785Y-232377D01*
X313082Y-231660D01*
X313233Y-230900D01*
Y-230512D01*
Y-230124D01*
X313082Y-229363D01*
X312785Y-228647D01*
X312354Y-228002D01*
X311806Y-227454D01*
X311161Y-227023D01*
X310445Y-226726D01*
X309684Y-226575D01*
D02*
G37*
G36*
X298000D02*
X297224D01*
X296464Y-226726D01*
X295747Y-227023D01*
X295103Y-227454D01*
X294554Y-228002D01*
X294123Y-228647D01*
X293827Y-229363D01*
X293675Y-230124D01*
Y-230512D01*
Y-230900D01*
X293827Y-231660D01*
X294123Y-232377D01*
X294554Y-233021D01*
X295103Y-233570D01*
X295747Y-234001D01*
X296464Y-234297D01*
X297224Y-234449D01*
X298000D01*
X298761Y-234297D01*
X299477Y-234001D01*
X300122Y-233570D01*
X300670Y-233021D01*
X301101Y-232377D01*
X301398Y-231660D01*
X301549Y-230900D01*
Y-230512D01*
Y-230124D01*
X301398Y-229363D01*
X301101Y-228647D01*
X300670Y-228002D01*
X300122Y-227454D01*
X299477Y-227023D01*
X298761Y-226726D01*
X298000Y-226575D01*
D02*
G37*
G36*
X286316D02*
X285541D01*
X284780Y-226726D01*
X284063Y-227023D01*
X283419Y-227454D01*
X282870Y-228002D01*
X282439Y-228647D01*
X282143Y-229363D01*
X281991Y-230124D01*
Y-230512D01*
Y-230900D01*
X282143Y-231660D01*
X282439Y-232377D01*
X282870Y-233021D01*
X283419Y-233570D01*
X284063Y-234001D01*
X284780Y-234297D01*
X285541Y-234449D01*
X286316D01*
X287077Y-234297D01*
X287793Y-234001D01*
X288438Y-233570D01*
X288986Y-233021D01*
X289417Y-232377D01*
X289714Y-231660D01*
X289865Y-230900D01*
Y-230512D01*
Y-230124D01*
X289714Y-229363D01*
X289417Y-228647D01*
X288986Y-228002D01*
X288438Y-227454D01*
X287793Y-227023D01*
X287077Y-226726D01*
X286316Y-226575D01*
D02*
G37*
G36*
X274632D02*
X273856D01*
X273096Y-226726D01*
X272379Y-227023D01*
X271735Y-227454D01*
X271186Y-228002D01*
X270755Y-228647D01*
X270459Y-229363D01*
X270307Y-230124D01*
Y-230512D01*
Y-230900D01*
X270459Y-231660D01*
X270755Y-232377D01*
X271186Y-233021D01*
X271735Y-233570D01*
X272379Y-234001D01*
X273096Y-234297D01*
X273856Y-234449D01*
X274632D01*
X275393Y-234297D01*
X276109Y-234001D01*
X276754Y-233570D01*
X277302Y-233021D01*
X277733Y-232377D01*
X278030Y-231660D01*
X278181Y-230900D01*
Y-230512D01*
Y-230124D01*
X278030Y-229363D01*
X277733Y-228647D01*
X277302Y-228002D01*
X276754Y-227454D01*
X276109Y-227023D01*
X275393Y-226726D01*
X274632Y-226575D01*
D02*
G37*
G36*
X262948D02*
X262173D01*
X261412Y-226726D01*
X260695Y-227023D01*
X260051Y-227454D01*
X259502Y-228002D01*
X259071Y-228647D01*
X258774Y-229363D01*
X258623Y-230124D01*
Y-230512D01*
Y-230900D01*
X258774Y-231660D01*
X259071Y-232377D01*
X259502Y-233021D01*
X260051Y-233570D01*
X260695Y-234001D01*
X261412Y-234297D01*
X262173Y-234449D01*
X262948D01*
X263709Y-234297D01*
X264425Y-234001D01*
X265070Y-233570D01*
X265618Y-233021D01*
X266049Y-232377D01*
X266346Y-231660D01*
X266497Y-230900D01*
Y-230512D01*
Y-230124D01*
X266346Y-229363D01*
X266049Y-228647D01*
X265618Y-228002D01*
X265070Y-227454D01*
X264425Y-227023D01*
X263709Y-226726D01*
X262948Y-226575D01*
D02*
G37*
G36*
X251264D02*
X250488D01*
X249728Y-226726D01*
X249011Y-227023D01*
X248366Y-227454D01*
X247818Y-228002D01*
X247387Y-228647D01*
X247091Y-229363D01*
X246939Y-230124D01*
Y-230512D01*
Y-230900D01*
X247091Y-231660D01*
X247387Y-232377D01*
X247818Y-233021D01*
X248366Y-233570D01*
X249011Y-234001D01*
X249728Y-234297D01*
X250488Y-234449D01*
X251264D01*
X252025Y-234297D01*
X252741Y-234001D01*
X253386Y-233570D01*
X253934Y-233021D01*
X254365Y-232377D01*
X254662Y-231660D01*
X254813Y-230900D01*
Y-230512D01*
Y-230124D01*
X254662Y-229363D01*
X254365Y-228647D01*
X253934Y-228002D01*
X253386Y-227454D01*
X252741Y-227023D01*
X252025Y-226726D01*
X251264Y-226575D01*
D02*
G37*
G36*
X239580D02*
X238804D01*
X238044Y-226726D01*
X237327Y-227023D01*
X236683Y-227454D01*
X236134Y-228002D01*
X235703Y-228647D01*
X235406Y-229363D01*
X235255Y-230124D01*
Y-230512D01*
Y-230900D01*
X235406Y-231660D01*
X235703Y-232377D01*
X236134Y-233021D01*
X236683Y-233570D01*
X237327Y-234001D01*
X238044Y-234297D01*
X238804Y-234449D01*
X239580D01*
X240341Y-234297D01*
X241057Y-234001D01*
X241702Y-233570D01*
X242250Y-233021D01*
X242681Y-232377D01*
X242978Y-231660D01*
X243129Y-230900D01*
Y-230512D01*
Y-230124D01*
X242978Y-229363D01*
X242681Y-228647D01*
X242250Y-228002D01*
X241702Y-227454D01*
X241057Y-227023D01*
X240341Y-226726D01*
X239580Y-226575D01*
D02*
G37*
G36*
X227896D02*
X227120D01*
X226360Y-226726D01*
X225643Y-227023D01*
X224998Y-227454D01*
X224450Y-228002D01*
X224019Y-228647D01*
X223723Y-229363D01*
X223571Y-230124D01*
Y-230512D01*
Y-230900D01*
X223723Y-231660D01*
X224019Y-232377D01*
X224450Y-233021D01*
X224998Y-233570D01*
X225643Y-234001D01*
X226360Y-234297D01*
X227120Y-234449D01*
X227896D01*
X228657Y-234297D01*
X229373Y-234001D01*
X230018Y-233570D01*
X230566Y-233021D01*
X230997Y-232377D01*
X231294Y-231660D01*
X231445Y-230900D01*
Y-230512D01*
Y-230124D01*
X231294Y-229363D01*
X230997Y-228647D01*
X230566Y-228002D01*
X230018Y-227454D01*
X229373Y-227023D01*
X228657Y-226726D01*
X227896Y-226575D01*
D02*
G37*
G36*
X216212D02*
X215436D01*
X214676Y-226726D01*
X213959Y-227023D01*
X213315Y-227454D01*
X212766Y-228002D01*
X212335Y-228647D01*
X212038Y-229363D01*
X211887Y-230124D01*
Y-230512D01*
Y-230900D01*
X212038Y-231660D01*
X212335Y-232377D01*
X212766Y-233021D01*
X213315Y-233570D01*
X213959Y-234001D01*
X214676Y-234297D01*
X215436Y-234449D01*
X216212D01*
X216972Y-234297D01*
X217689Y-234001D01*
X218334Y-233570D01*
X218882Y-233021D01*
X219313Y-232377D01*
X219610Y-231660D01*
X219761Y-230900D01*
Y-230512D01*
Y-230124D01*
X219610Y-229363D01*
X219313Y-228647D01*
X218882Y-228002D01*
X218334Y-227454D01*
X217689Y-227023D01*
X216972Y-226726D01*
X216212Y-226575D01*
D02*
G37*
G36*
X204528D02*
X203752D01*
X202992Y-226726D01*
X202275Y-227023D01*
X201630Y-227454D01*
X201082Y-228002D01*
X200651Y-228647D01*
X200354Y-229363D01*
X200203Y-230124D01*
Y-230512D01*
Y-230900D01*
X200354Y-231660D01*
X200651Y-232377D01*
X201082Y-233021D01*
X201630Y-233570D01*
X202275Y-234001D01*
X202992Y-234297D01*
X203752Y-234449D01*
X204528D01*
X205289Y-234297D01*
X206005Y-234001D01*
X206650Y-233570D01*
X207198Y-233021D01*
X207629Y-232377D01*
X207926Y-231660D01*
X208077Y-230900D01*
Y-230512D01*
Y-230124D01*
X207926Y-229363D01*
X207629Y-228647D01*
X207198Y-228002D01*
X206650Y-227454D01*
X206005Y-227023D01*
X205289Y-226726D01*
X204528Y-226575D01*
D02*
G37*
G36*
X192844D02*
X192068D01*
X191308Y-226726D01*
X190591Y-227023D01*
X189946Y-227454D01*
X189398Y-228002D01*
X188967Y-228647D01*
X188670Y-229363D01*
X188519Y-230124D01*
Y-230512D01*
Y-230900D01*
X188670Y-231660D01*
X188967Y-232377D01*
X189398Y-233021D01*
X189946Y-233570D01*
X190591Y-234001D01*
X191308Y-234297D01*
X192068Y-234449D01*
X192844D01*
X193605Y-234297D01*
X194321Y-234001D01*
X194966Y-233570D01*
X195514Y-233021D01*
X195945Y-232377D01*
X196242Y-231660D01*
X196393Y-230900D01*
Y-230512D01*
Y-230124D01*
X196242Y-229363D01*
X195945Y-228647D01*
X195514Y-228002D01*
X194966Y-227454D01*
X194321Y-227023D01*
X193605Y-226726D01*
X192844Y-226575D01*
D02*
G37*
G36*
X181160D02*
X180384D01*
X179624Y-226726D01*
X178907Y-227023D01*
X178262Y-227454D01*
X177714Y-228002D01*
X177283Y-228647D01*
X176986Y-229363D01*
X176835Y-230124D01*
Y-230512D01*
Y-230900D01*
X176986Y-231660D01*
X177283Y-232377D01*
X177714Y-233021D01*
X178262Y-233570D01*
X178907Y-234001D01*
X179624Y-234297D01*
X180384Y-234449D01*
X181160D01*
X181921Y-234297D01*
X182637Y-234001D01*
X183282Y-233570D01*
X183830Y-233021D01*
X184261Y-232377D01*
X184558Y-231660D01*
X184709Y-230900D01*
Y-230512D01*
Y-230124D01*
X184558Y-229363D01*
X184261Y-228647D01*
X183830Y-228002D01*
X183282Y-227454D01*
X182637Y-227023D01*
X181921Y-226726D01*
X181160Y-226575D01*
D02*
G37*
G36*
X169476D02*
X168700D01*
X167940Y-226726D01*
X167223Y-227023D01*
X166578Y-227454D01*
X166030Y-228002D01*
X165599Y-228647D01*
X165302Y-229363D01*
X165151Y-230124D01*
Y-230512D01*
Y-230900D01*
X165302Y-231660D01*
X165599Y-232377D01*
X166030Y-233021D01*
X166578Y-233570D01*
X167223Y-234001D01*
X167940Y-234297D01*
X168700Y-234449D01*
X169476D01*
X170237Y-234297D01*
X170953Y-234001D01*
X171598Y-233570D01*
X172146Y-233021D01*
X172577Y-232377D01*
X172874Y-231660D01*
X173025Y-230900D01*
Y-230512D01*
Y-230124D01*
X172874Y-229363D01*
X172577Y-228647D01*
X172146Y-228002D01*
X171598Y-227454D01*
X170953Y-227023D01*
X170237Y-226726D01*
X169476Y-226575D01*
D02*
G37*
G36*
X157792D02*
X157016D01*
X156256Y-226726D01*
X155539Y-227023D01*
X154894Y-227454D01*
X154346Y-228002D01*
X153915Y-228647D01*
X153618Y-229363D01*
X153467Y-230124D01*
Y-230512D01*
Y-230900D01*
X153618Y-231660D01*
X153915Y-232377D01*
X154346Y-233021D01*
X154894Y-233570D01*
X155539Y-234001D01*
X156256Y-234297D01*
X157016Y-234449D01*
X157792D01*
X158552Y-234297D01*
X159269Y-234001D01*
X159914Y-233570D01*
X160462Y-233021D01*
X160893Y-232377D01*
X161190Y-231660D01*
X161341Y-230900D01*
Y-230512D01*
Y-230124D01*
X161190Y-229363D01*
X160893Y-228647D01*
X160462Y-228002D01*
X159914Y-227454D01*
X159269Y-227023D01*
X158552Y-226726D01*
X157792Y-226575D01*
D02*
G37*
G36*
X146108D02*
X145332D01*
X144572Y-226726D01*
X143855Y-227023D01*
X143210Y-227454D01*
X142662Y-228002D01*
X142231Y-228647D01*
X141934Y-229363D01*
X141783Y-230124D01*
Y-230512D01*
Y-230900D01*
X141934Y-231660D01*
X142231Y-232377D01*
X142662Y-233021D01*
X143210Y-233570D01*
X143855Y-234001D01*
X144572Y-234297D01*
X145332Y-234449D01*
X146108D01*
X146868Y-234297D01*
X147585Y-234001D01*
X148230Y-233570D01*
X148778Y-233021D01*
X149209Y-232377D01*
X149506Y-231660D01*
X149657Y-230900D01*
Y-230512D01*
Y-230124D01*
X149506Y-229363D01*
X149209Y-228647D01*
X148778Y-228002D01*
X148230Y-227454D01*
X147585Y-227023D01*
X146868Y-226726D01*
X146108Y-226575D01*
D02*
G37*
G36*
X134424D02*
X133648D01*
X132888Y-226726D01*
X132171Y-227023D01*
X131526Y-227454D01*
X130978Y-228002D01*
X130547Y-228647D01*
X130250Y-229363D01*
X130099Y-230124D01*
Y-230512D01*
Y-230900D01*
X130250Y-231660D01*
X130547Y-232377D01*
X130978Y-233021D01*
X131526Y-233570D01*
X132171Y-234001D01*
X132888Y-234297D01*
X133648Y-234449D01*
X134424D01*
X135184Y-234297D01*
X135901Y-234001D01*
X136546Y-233570D01*
X137094Y-233021D01*
X137525Y-232377D01*
X137822Y-231660D01*
X137973Y-230900D01*
Y-230512D01*
Y-230124D01*
X137822Y-229363D01*
X137525Y-228647D01*
X137094Y-228002D01*
X136546Y-227454D01*
X135901Y-227023D01*
X135184Y-226726D01*
X134424Y-226575D01*
D02*
G37*
G36*
X122740D02*
X121964D01*
X121204Y-226726D01*
X120487Y-227023D01*
X119842Y-227454D01*
X119294Y-228002D01*
X118863Y-228647D01*
X118566Y-229363D01*
X118415Y-230124D01*
Y-230512D01*
Y-230900D01*
X118566Y-231660D01*
X118863Y-232377D01*
X119294Y-233021D01*
X119842Y-233570D01*
X120487Y-234001D01*
X121204Y-234297D01*
X121964Y-234449D01*
X122740D01*
X123500Y-234297D01*
X124217Y-234001D01*
X124862Y-233570D01*
X125410Y-233021D01*
X125841Y-232377D01*
X126138Y-231660D01*
X126289Y-230900D01*
Y-230512D01*
Y-230124D01*
X126138Y-229363D01*
X125841Y-228647D01*
X125410Y-228002D01*
X124862Y-227454D01*
X124217Y-227023D01*
X123500Y-226726D01*
X122740Y-226575D01*
D02*
G37*
G36*
X111056D02*
X110280D01*
X109520Y-226726D01*
X108803Y-227023D01*
X108158Y-227454D01*
X107610Y-228002D01*
X107179Y-228647D01*
X106882Y-229363D01*
X106731Y-230124D01*
Y-230512D01*
Y-230900D01*
X106882Y-231660D01*
X107179Y-232377D01*
X107610Y-233021D01*
X108158Y-233570D01*
X108803Y-234001D01*
X109520Y-234297D01*
X110280Y-234449D01*
X111056D01*
X111816Y-234297D01*
X112533Y-234001D01*
X113178Y-233570D01*
X113726Y-233021D01*
X114157Y-232377D01*
X114454Y-231660D01*
X114605Y-230900D01*
Y-230512D01*
Y-230124D01*
X114454Y-229363D01*
X114157Y-228647D01*
X113726Y-228002D01*
X113178Y-227454D01*
X112533Y-227023D01*
X111816Y-226726D01*
X111056Y-226575D01*
D02*
G37*
G36*
X99372D02*
X98596D01*
X97836Y-226726D01*
X97119Y-227023D01*
X96474Y-227454D01*
X95926Y-228002D01*
X95495Y-228647D01*
X95198Y-229363D01*
X95047Y-230124D01*
Y-230512D01*
Y-230900D01*
X95198Y-231660D01*
X95495Y-232377D01*
X95926Y-233021D01*
X96474Y-233570D01*
X97119Y-234001D01*
X97836Y-234297D01*
X98596Y-234449D01*
X99372D01*
X100132Y-234297D01*
X100849Y-234001D01*
X101494Y-233570D01*
X102042Y-233021D01*
X102473Y-232377D01*
X102770Y-231660D01*
X102921Y-230900D01*
Y-230512D01*
Y-230124D01*
X102770Y-229363D01*
X102473Y-228647D01*
X102042Y-228002D01*
X101494Y-227454D01*
X100849Y-227023D01*
X100132Y-226726D01*
X99372Y-226575D01*
D02*
G37*
G36*
X87688D02*
X86912D01*
X86151Y-226726D01*
X85435Y-227023D01*
X84790Y-227454D01*
X84242Y-228002D01*
X83811Y-228647D01*
X83514Y-229363D01*
X83363Y-230124D01*
Y-230512D01*
Y-230900D01*
X83514Y-231660D01*
X83811Y-232377D01*
X84242Y-233021D01*
X84790Y-233570D01*
X85435Y-234001D01*
X86151Y-234297D01*
X86912Y-234449D01*
X87688D01*
X88448Y-234297D01*
X89165Y-234001D01*
X89810Y-233570D01*
X90358Y-233021D01*
X90789Y-232377D01*
X91086Y-231660D01*
X91237Y-230900D01*
Y-230512D01*
Y-230124D01*
X91086Y-229363D01*
X90789Y-228647D01*
X90358Y-228002D01*
X89810Y-227454D01*
X89165Y-227023D01*
X88448Y-226726D01*
X87688Y-226575D01*
D02*
G37*
G36*
X76004D02*
X75228D01*
X74467Y-226726D01*
X73751Y-227023D01*
X73106Y-227454D01*
X72558Y-228002D01*
X72127Y-228647D01*
X71830Y-229363D01*
X71679Y-230124D01*
Y-230512D01*
Y-230900D01*
X71830Y-231660D01*
X72127Y-232377D01*
X72558Y-233021D01*
X73106Y-233570D01*
X73751Y-234001D01*
X74467Y-234297D01*
X75228Y-234449D01*
X76004D01*
X76764Y-234297D01*
X77481Y-234001D01*
X78126Y-233570D01*
X78674Y-233021D01*
X79105Y-232377D01*
X79402Y-231660D01*
X79553Y-230900D01*
Y-230512D01*
Y-230124D01*
X79402Y-229363D01*
X79105Y-228647D01*
X78674Y-228002D01*
X78126Y-227454D01*
X77481Y-227023D01*
X76764Y-226726D01*
X76004Y-226575D01*
D02*
G37*
G36*
X64320D02*
X63544D01*
X62783Y-226726D01*
X62067Y-227023D01*
X61422Y-227454D01*
X60874Y-228002D01*
X60443Y-228647D01*
X60146Y-229363D01*
X59995Y-230124D01*
Y-230512D01*
Y-230900D01*
X60146Y-231660D01*
X60443Y-232377D01*
X60874Y-233021D01*
X61422Y-233570D01*
X62067Y-234001D01*
X62783Y-234297D01*
X63544Y-234449D01*
X64320D01*
X65080Y-234297D01*
X65797Y-234001D01*
X66442Y-233570D01*
X66990Y-233021D01*
X67421Y-232377D01*
X67718Y-231660D01*
X67869Y-230900D01*
Y-230512D01*
Y-230124D01*
X67718Y-229363D01*
X67421Y-228647D01*
X66990Y-228002D01*
X66442Y-227454D01*
X65797Y-227023D01*
X65080Y-226726D01*
X64320Y-226575D01*
D02*
G37*
G36*
X52636D02*
X51860D01*
X51099Y-226726D01*
X50383Y-227023D01*
X49738Y-227454D01*
X49190Y-228002D01*
X48759Y-228647D01*
X48462Y-229363D01*
X48311Y-230124D01*
Y-230512D01*
Y-230900D01*
X48462Y-231660D01*
X48759Y-232377D01*
X49190Y-233021D01*
X49738Y-233570D01*
X50383Y-234001D01*
X51099Y-234297D01*
X51860Y-234449D01*
X52636D01*
X53396Y-234297D01*
X54113Y-234001D01*
X54758Y-233570D01*
X55306Y-233021D01*
X55737Y-232377D01*
X56034Y-231660D01*
X56185Y-230900D01*
Y-230512D01*
Y-230124D01*
X56034Y-229363D01*
X55737Y-228647D01*
X55306Y-228002D01*
X54758Y-227454D01*
X54113Y-227023D01*
X53396Y-226726D01*
X52636Y-226575D01*
D02*
G37*
G36*
X40952D02*
X40176D01*
X39415Y-226726D01*
X38699Y-227023D01*
X38054Y-227454D01*
X37506Y-228002D01*
X37075Y-228647D01*
X36778Y-229363D01*
X36627Y-230124D01*
Y-230512D01*
Y-230900D01*
X36778Y-231660D01*
X37075Y-232377D01*
X37506Y-233021D01*
X38054Y-233570D01*
X38699Y-234001D01*
X39415Y-234297D01*
X40176Y-234449D01*
X40952D01*
X41712Y-234297D01*
X42429Y-234001D01*
X43074Y-233570D01*
X43622Y-233021D01*
X44053Y-232377D01*
X44350Y-231660D01*
X44501Y-230900D01*
Y-230512D01*
Y-230124D01*
X44350Y-229363D01*
X44053Y-228647D01*
X43622Y-228002D01*
X43074Y-227454D01*
X42429Y-227023D01*
X41712Y-226726D01*
X40952Y-226575D01*
D02*
G37*
G36*
X29268D02*
X28492D01*
X27731Y-226726D01*
X27015Y-227023D01*
X26370Y-227454D01*
X25822Y-228002D01*
X25391Y-228647D01*
X25094Y-229363D01*
X24943Y-230124D01*
Y-230512D01*
Y-230900D01*
X25094Y-231660D01*
X25391Y-232377D01*
X25822Y-233021D01*
X26370Y-233570D01*
X27015Y-234001D01*
X27731Y-234297D01*
X28492Y-234449D01*
X29268D01*
X30028Y-234297D01*
X30745Y-234001D01*
X31389Y-233570D01*
X31938Y-233021D01*
X32369Y-232377D01*
X32666Y-231660D01*
X32817Y-230900D01*
Y-230512D01*
Y-230124D01*
X32666Y-229363D01*
X32369Y-228647D01*
X31938Y-228002D01*
X31389Y-227454D01*
X30745Y-227023D01*
X30028Y-226726D01*
X29268Y-226575D01*
D02*
G37*
G36*
X17584D02*
X16808D01*
X16047Y-226726D01*
X15331Y-227023D01*
X14686Y-227454D01*
X14138Y-228002D01*
X13707Y-228647D01*
X13410Y-229363D01*
X13259Y-230124D01*
Y-230512D01*
Y-230900D01*
X13410Y-231660D01*
X13707Y-232377D01*
X14138Y-233021D01*
X14686Y-233570D01*
X15331Y-234001D01*
X16047Y-234297D01*
X16808Y-234449D01*
X17584D01*
X18344Y-234297D01*
X19061Y-234001D01*
X19705Y-233570D01*
X20254Y-233021D01*
X20685Y-232377D01*
X20981Y-231660D01*
X21133Y-230900D01*
Y-230512D01*
Y-230124D01*
X20981Y-229363D01*
X20685Y-228647D01*
X20254Y-228002D01*
X19705Y-227454D01*
X19061Y-227023D01*
X18344Y-226726D01*
X17584Y-226575D01*
D02*
G37*
G36*
X5900D02*
X5124D01*
X4363Y-226726D01*
X3647Y-227023D01*
X3002Y-227454D01*
X2454Y-228002D01*
X2023Y-228647D01*
X1726Y-229363D01*
X1575Y-230124D01*
Y-230512D01*
Y-230900D01*
X1726Y-231660D01*
X2023Y-232377D01*
X2454Y-233021D01*
X3002Y-233570D01*
X3647Y-234001D01*
X4363Y-234297D01*
X5124Y-234449D01*
X5900D01*
X6660Y-234297D01*
X7377Y-234001D01*
X8021Y-233570D01*
X8570Y-233021D01*
X9001Y-232377D01*
X9297Y-231660D01*
X9449Y-230900D01*
Y-230512D01*
Y-230124D01*
X9297Y-229363D01*
X9001Y-228647D01*
X8570Y-228002D01*
X8021Y-227454D01*
X7377Y-227023D01*
X6660Y-226726D01*
X5900Y-226575D01*
D02*
G37*
G36*
X106226Y-66443D02*
X105920D01*
X105256Y-66468D01*
X104644Y-66545D01*
X104057Y-66672D01*
X103572Y-66774D01*
X103139Y-66902D01*
X102960Y-66978D01*
X102833Y-67029D01*
X102705Y-67055D01*
X102629Y-67106D01*
X102578Y-67131D01*
X102552D01*
X101965Y-67412D01*
X101455Y-67693D01*
X100970Y-67999D01*
X100562Y-68305D01*
X100256Y-68560D01*
X100001Y-68764D01*
X99848Y-68917D01*
X99797Y-68943D01*
Y-68968D01*
X99389Y-69427D01*
X99032Y-69886D01*
X98726Y-70346D01*
X98470Y-70779D01*
X98266Y-71162D01*
X98113Y-71468D01*
X98062Y-71570D01*
X98011Y-71647D01*
X97986Y-71698D01*
Y-71723D01*
X97756Y-72310D01*
X97578Y-72897D01*
X97476Y-73458D01*
X97374Y-73968D01*
X97323Y-74427D01*
Y-74606D01*
X97297Y-74759D01*
Y-74886D01*
Y-74988D01*
Y-75039D01*
Y-75065D01*
X97323Y-75728D01*
X97399Y-76341D01*
X97527Y-76902D01*
X97629Y-77412D01*
X97756Y-77846D01*
X97833Y-77999D01*
X97884Y-78152D01*
X97909Y-78279D01*
X97960Y-78356D01*
X97986Y-78407D01*
Y-78432D01*
X98241Y-78993D01*
X98547Y-79529D01*
X98853Y-79988D01*
X99134Y-80397D01*
X99389Y-80728D01*
X99510Y-80862D01*
X98904Y-81468D01*
X99491Y-82080D01*
X100107Y-81463D01*
X100256Y-81595D01*
X100715Y-81953D01*
X101175Y-82284D01*
X101608Y-82539D01*
X101991Y-82744D01*
X102144Y-82820D01*
X102271Y-82897D01*
X102399Y-82948D01*
X102476Y-82999D01*
X102527Y-83024D01*
X102552D01*
X103139Y-83254D01*
X103751Y-83407D01*
X104312Y-83534D01*
X104823Y-83611D01*
X105282Y-83662D01*
X105460D01*
X105613Y-83687D01*
X105920D01*
X106557Y-83662D01*
X107195Y-83585D01*
X107756Y-83483D01*
X108266Y-83356D01*
X108675Y-83228D01*
X108853Y-83177D01*
X109006Y-83126D01*
X109134Y-83075D01*
X109210Y-83050D01*
X109261Y-83024D01*
X109287D01*
X109848Y-82744D01*
X110384Y-82437D01*
X110843Y-82131D01*
X111251Y-81851D01*
X111583Y-81595D01*
X111838Y-81366D01*
X111991Y-81238D01*
X112016Y-81187D01*
X112042D01*
X112450Y-80728D01*
X112807Y-80269D01*
X113139Y-79810D01*
X113394Y-79376D01*
X113598Y-78993D01*
X113751Y-78687D01*
X113802Y-78585D01*
X113853Y-78509D01*
X113879Y-78458D01*
Y-78432D01*
X114108Y-77820D01*
X114261Y-77233D01*
X114389Y-76672D01*
X114465Y-76162D01*
X114516Y-75703D01*
Y-75524D01*
X114542Y-75371D01*
Y-75244D01*
Y-75142D01*
Y-75090D01*
Y-75065D01*
X114516Y-74402D01*
X114440Y-73790D01*
X114338Y-73228D01*
X114210Y-72718D01*
X114083Y-72310D01*
X114032Y-72131D01*
X113981Y-72004D01*
X113930Y-71876D01*
X113904Y-71800D01*
X113879Y-71749D01*
Y-71723D01*
X113598Y-71162D01*
X113292Y-70626D01*
X112986Y-70167D01*
X112705Y-69759D01*
X112450Y-69427D01*
X112294Y-69253D01*
X112884Y-68662D01*
X112322Y-68050D01*
X111704Y-68668D01*
X112042Y-68968D01*
Y-68994D01*
X112093Y-69019D01*
X112220Y-69172D01*
X112294Y-69253D01*
X111280Y-70269D01*
X110103D01*
X108241Y-72131D01*
X108113Y-72233D01*
X108062Y-72259D01*
Y-72284D01*
X108044Y-72328D01*
X106318Y-74054D01*
X106277Y-73866D01*
X106251Y-73636D01*
X106226Y-73432D01*
Y-73279D01*
Y-73152D01*
Y-73126D01*
X106251Y-72744D01*
X106302Y-72386D01*
X106379Y-72080D01*
X106455Y-71825D01*
X106532Y-71596D01*
X106608Y-71443D01*
X106659Y-71341D01*
X106685Y-71315D01*
X106838Y-71085D01*
X107042Y-70881D01*
X107220Y-70728D01*
X107399Y-70601D01*
X107552Y-70499D01*
X107680Y-70448D01*
X107782Y-70397D01*
X107807D01*
X108011Y-70346D01*
X108266Y-70320D01*
X108572Y-70295D01*
X108904D01*
X109210Y-70269D01*
X110103D01*
X111704Y-68668D01*
X111583Y-68560D01*
X111124Y-68177D01*
X110664Y-67871D01*
X110231Y-67616D01*
X109848Y-67412D01*
X109542Y-67259D01*
X109440Y-67208D01*
X109363Y-67157D01*
X109312Y-67131D01*
X109287D01*
X108675Y-66902D01*
X108088Y-66723D01*
X107527Y-66621D01*
X106991Y-66519D01*
X106557Y-66468D01*
X106379D01*
X106226Y-66443D01*
D02*
G37*
%LPD*%
G36*
X112246Y-79555D02*
X110639D01*
Y-76009D01*
X109210D01*
X108853Y-75983D01*
X108572D01*
X108343Y-75958D01*
X108164Y-75932D01*
X108062D01*
X107986Y-75907D01*
X107960D01*
X107629Y-75779D01*
X107373Y-75652D01*
X107272Y-75575D01*
X107195Y-75524D01*
X107169Y-75473D01*
X107144D01*
X106863Y-75167D01*
X106664Y-74893D01*
X105180Y-76381D01*
Y-79555D01*
X103777D01*
Y-78560D01*
X103624Y-78764D01*
X103496Y-78943D01*
X103343Y-79096D01*
X103215Y-79198D01*
X103113Y-79300D01*
X103037Y-79351D01*
X102986Y-79376D01*
X102960Y-79402D01*
X102782Y-79504D01*
X102578Y-79580D01*
X102271Y-79657D01*
X102144Y-79682D01*
X102042Y-79708D01*
X101965D01*
X101866Y-79700D01*
X100107Y-81463D01*
X99797Y-81187D01*
X99771Y-81162D01*
X99746Y-81136D01*
X99619Y-80983D01*
X99510Y-80862D01*
X100987Y-79385D01*
X100792Y-79249D01*
X100613Y-79096D01*
X100460Y-78943D01*
X100358Y-78840D01*
X100333Y-78789D01*
X100103Y-78407D01*
X99925Y-77973D01*
X99797Y-77539D01*
X99695Y-77106D01*
X99644Y-76723D01*
Y-76570D01*
X99619Y-76417D01*
Y-76289D01*
Y-76213D01*
Y-76162D01*
Y-76136D01*
X99644Y-75524D01*
X99721Y-75014D01*
X99848Y-74580D01*
X99950Y-74198D01*
X100078Y-73917D01*
X100205Y-73713D01*
X100282Y-73611D01*
X100307Y-73560D01*
X100562Y-73254D01*
X100843Y-73050D01*
X101124Y-72897D01*
X101379Y-72769D01*
X101634Y-72718D01*
X101812Y-72693D01*
X101940Y-72667D01*
X101991D01*
X102348Y-72693D01*
X102654Y-72795D01*
X102960Y-72948D01*
X103190Y-73126D01*
X103394Y-73305D01*
X103547Y-73458D01*
X103649Y-73560D01*
X103675Y-73611D01*
Y-70269D01*
X105180D01*
Y-75192D01*
X103663Y-76709D01*
X103675Y-76596D01*
X103700Y-76366D01*
X103726Y-76187D01*
Y-76060D01*
Y-76009D01*
X103700Y-75677D01*
X103649Y-75371D01*
X103598Y-75116D01*
X103522Y-74912D01*
X103445Y-74733D01*
X103368Y-74631D01*
X103343Y-74555D01*
X103317Y-74529D01*
X103190Y-74376D01*
X103062Y-74274D01*
X102909Y-74172D01*
X102756Y-74121D01*
X102603Y-74096D01*
X102501Y-74070D01*
X102399D01*
X102195Y-74096D01*
X102016Y-74147D01*
X101889Y-74223D01*
X101761Y-74300D01*
X101659Y-74376D01*
X101583Y-74453D01*
X101557Y-74504D01*
X101532Y-74529D01*
X101404Y-74759D01*
X101302Y-75014D01*
X101251Y-75295D01*
X101200Y-75550D01*
X101175Y-75805D01*
X101149Y-76009D01*
Y-76162D01*
Y-76187D01*
Y-76213D01*
X101175Y-76621D01*
X101226Y-76953D01*
X101277Y-77208D01*
X101353Y-77437D01*
X101404Y-77590D01*
X101481Y-77718D01*
X101506Y-77769D01*
X101532Y-77794D01*
X101659Y-77948D01*
X101812Y-78075D01*
X101940Y-78152D01*
X102067Y-78228D01*
X102131Y-78241D01*
X103663Y-76709D01*
X103649Y-76851D01*
X103598Y-77131D01*
X103522Y-77386D01*
X103419Y-77616D01*
X103394Y-77641D01*
X103343Y-77718D01*
X103266Y-77846D01*
X103139Y-77973D01*
X103011Y-78101D01*
X102807Y-78203D01*
X102603Y-78279D01*
X102271D01*
X102195Y-78254D01*
X102131Y-78241D01*
X100987Y-79385D01*
X101047Y-79427D01*
X101328Y-79580D01*
X101634Y-79682D01*
X101866Y-79700D01*
X105180Y-76381D01*
Y-75192D01*
X106318Y-74054D01*
X106328Y-74096D01*
X106404Y-74325D01*
X106481Y-74555D01*
Y-74580D01*
X106532Y-74657D01*
X106583Y-74759D01*
X106659Y-74886D01*
X106664Y-74893D01*
X107926Y-73629D01*
X107884Y-73458D01*
X107858Y-73152D01*
Y-73126D01*
Y-73075D01*
Y-72973D01*
X107884Y-72871D01*
X107935Y-72591D01*
X108044Y-72328D01*
X108241Y-72131D01*
X108470Y-72004D01*
X108751Y-71902D01*
X108777D01*
X108853Y-71876D01*
X109006Y-71851D01*
X109701D01*
X111280Y-70269D01*
X112246D01*
Y-79555D01*
D02*
G37*
%LPC*%
G36*
X110639Y-71851D02*
X109701D01*
X107926Y-73629D01*
X107935Y-73662D01*
X107986Y-73815D01*
X108011Y-73840D01*
Y-73866D01*
X108190Y-74070D01*
X108368Y-74198D01*
X108496Y-74300D01*
X108521Y-74325D01*
X108547D01*
X108675Y-74376D01*
X108828Y-74402D01*
X109032Y-74427D01*
X109261D01*
X109465Y-74453D01*
X110639D01*
Y-71851D01*
D02*
G37*
G36*
X88704Y-67281D02*
X87239D01*
Y-67631D01*
X88704D01*
Y-67281D01*
D02*
G37*
G36*
X89250Y-67521D02*
X89119D01*
Y-67980D01*
X86845D01*
Y-67565D01*
X86626Y-67609D01*
X86429Y-67631D01*
X86254Y-67674D01*
X86123Y-67696D01*
X86014Y-67740D01*
X85926Y-67762D01*
X85883Y-67784D01*
X85861D01*
X85620Y-67871D01*
X85445Y-67959D01*
X85336Y-68024D01*
X85292Y-68046D01*
X85161Y-68134D01*
X85095Y-68221D01*
X85052Y-68265D01*
X85030Y-68287D01*
X84964Y-68352D01*
X84942Y-68396D01*
X84920Y-68418D01*
Y-68440D01*
X90366D01*
Y-67674D01*
X90169Y-67631D01*
X89972Y-67587D01*
X89754Y-67565D01*
X89557Y-67543D01*
X89382D01*
X89250Y-67521D01*
D02*
G37*
G36*
X91219Y-67980D02*
Y-68440D01*
X91656D01*
X91634Y-68374D01*
X91612Y-68330D01*
X91591Y-68287D01*
X91569Y-68265D01*
X91481Y-68155D01*
X91350Y-68068D01*
X91263Y-68002D01*
X91219Y-67980D01*
D02*
G37*
G36*
X83980Y-70102D02*
Y-71020D01*
X84636D01*
Y-70780D01*
X83980Y-70102D01*
D02*
G37*
G36*
X91591Y-68943D02*
X84898D01*
X84942Y-69730D01*
X85183D01*
Y-70758D01*
X86342Y-71895D01*
Y-71370D01*
X89163D01*
Y-72311D01*
X86692D01*
X88463Y-74126D01*
X91416Y-70911D01*
X91591Y-68943D01*
D02*
G37*
G36*
X91372Y-71611D02*
X88748Y-74410D01*
X90956Y-76641D01*
X91372Y-71611D01*
D02*
G37*
G36*
X85183Y-71327D02*
Y-71392D01*
X85139D01*
X85620Y-77188D01*
X88201Y-74410D01*
X85183Y-71327D01*
D02*
G37*
G36*
X88485Y-74695D02*
X85686Y-77756D01*
X85729Y-78172D01*
X85926Y-78194D01*
X86079Y-78259D01*
X86233Y-78325D01*
X86364Y-78391D01*
X86473Y-78456D01*
X86560Y-78522D01*
X86604Y-78566D01*
X86626Y-78588D01*
X86735Y-78719D01*
X86823Y-78872D01*
X86889Y-79025D01*
X86932Y-79178D01*
X86954Y-79309D01*
X86976Y-79418D01*
Y-79484D01*
Y-79506D01*
X86954Y-79572D01*
Y-79593D01*
Y-79615D01*
X86932Y-79703D01*
Y-79725D01*
X90694D01*
X90891Y-77188D01*
X88485Y-74695D01*
D02*
G37*
G36*
X85620Y-78762D02*
X85576D01*
X85358Y-78806D01*
X85205Y-78872D01*
X85117Y-78937D01*
X85073Y-78981D01*
X84942Y-79156D01*
X84877Y-79331D01*
X84855Y-79462D01*
Y-79484D01*
Y-79506D01*
X84898Y-79725D01*
X84964Y-79900D01*
X85030Y-80009D01*
X85073Y-80031D01*
Y-80053D01*
X85227Y-80184D01*
X85401Y-80250D01*
X85533Y-80272D01*
X85576D01*
X85795Y-80228D01*
X85970Y-80162D01*
X86079Y-80097D01*
X86101Y-80053D01*
X86123D01*
X86254Y-79856D01*
X86320Y-79681D01*
X86342Y-79550D01*
Y-79528D01*
Y-79506D01*
X86320Y-79397D01*
X86298Y-79287D01*
X86211Y-79134D01*
X86145Y-79025D01*
X86101Y-78981D01*
X85926Y-78850D01*
X85751Y-78784D01*
X85620Y-78762D01*
D02*
G37*
%LPD*%
G36*
X85708Y-79090D02*
X85817Y-79134D01*
X85904Y-79178D01*
X85926Y-79200D01*
X86014Y-79309D01*
X86058Y-79397D01*
X86079Y-79484D01*
Y-79506D01*
X86058Y-79637D01*
X85992Y-79747D01*
X85948Y-79834D01*
X85926Y-79856D01*
X85817Y-79943D01*
X85686Y-79987D01*
X85598Y-80009D01*
X85576D01*
X85423Y-79965D01*
X85314Y-79922D01*
X85248Y-79834D01*
X85183Y-79747D01*
X85161Y-79659D01*
X85139Y-79572D01*
Y-79528D01*
Y-79506D01*
X85161Y-79375D01*
X85205Y-79287D01*
X85248Y-79222D01*
X85270Y-79200D01*
X85379Y-79112D01*
X85467Y-79090D01*
X85554Y-79069D01*
X85576D01*
X85708Y-79090D01*
D02*
G37*
D14*
X338179Y-120137D02*
G03*
X338179Y-120137I-3828J0D01*
G01*
Y-133979D02*
G03*
X338179Y-133979I-3828J0D01*
G01*
X328336D02*
G03*
X328336Y-133979I-3828J0D01*
G01*
Y-120137D02*
G03*
X328336Y-120137I-3828J0D01*
G01*
Y-106295D02*
G03*
X328336Y-106295I-3828J0D01*
G01*
X338179D02*
G03*
X338179Y-106295I-3828J0D01*
G01*
X328336Y-92795D02*
G03*
X328336Y-92795I-3828J0D01*
G01*
X338179D02*
G03*
X338179Y-92795I-3828J0D01*
G01*
X328435Y-78559D02*
G03*
X328435Y-78559I-3828J0D01*
G01*
X338277D02*
G03*
X338277Y-78559I-3828J0D01*
G01*
X338179Y-65256D02*
G03*
X338179Y-65256I-3828J0D01*
G01*
X328336D02*
G03*
X328336Y-65256I-3828J0D01*
G01*
X59242Y-41929D02*
G03*
X59242Y-41929I-3828J0D01*
G01*
X69084D02*
G03*
X69084Y-41929I-3828J0D01*
G01*
X59242Y-55709D02*
G03*
X59242Y-55709I-3828J0D01*
G01*
X69084D02*
G03*
X69084Y-55709I-3828J0D01*
G01*
X59242Y-69488D02*
G03*
X59242Y-69488I-3828J0D01*
G01*
X69084D02*
G03*
X69084Y-69488I-3828J0D01*
G01*
X59242Y-83268D02*
G03*
X59242Y-83268I-3828J0D01*
G01*
X69084D02*
G03*
X69084Y-83268I-3828J0D01*
G01*
X59242Y-97047D02*
G03*
X59242Y-97047I-3828J0D01*
G01*
X69084D02*
G03*
X69084Y-97047I-3828J0D01*
G01*
X59242Y-110827D02*
G03*
X59242Y-110827I-3828J0D01*
G01*
X69084D02*
G03*
X69084Y-110827I-3828J0D01*
G01*
Y-124327D02*
G03*
X69084Y-124327I-3828J0D01*
G01*
X59242D02*
G03*
X59242Y-124327I-3828J0D01*
G01*
X69084Y-138327D02*
G03*
X69084Y-138327I-3828J0D01*
G01*
X59242D02*
G03*
X59242Y-138327I-3828J0D01*
G01*
X69084Y-151827D02*
G03*
X69084Y-151827I-3828J0D01*
G01*
X59242D02*
G03*
X59242Y-151827I-3828J0D01*
G01*
X69084Y-165827D02*
G03*
X69084Y-165827I-3828J0D01*
G01*
X59242D02*
G03*
X59242Y-165827I-3828J0D01*
G01*
X69084Y-179327D02*
G03*
X69084Y-179327I-3828J0D01*
G01*
X59242D02*
G03*
X59242Y-179327I-3828J0D01*
G01*
X69084Y-193327D02*
G03*
X69084Y-193327I-3828J0D01*
G01*
X59242D02*
G03*
X59242Y-193327I-3828J0D01*
G01*
X152953Y-45866D02*
X202953D01*
X152953D02*
Y-12992D01*
X202953D01*
Y-45866D02*
Y-12992D01*
X204429Y-45866D02*
Y-12992D01*
X254429D01*
Y-45866D02*
Y-12992D01*
X204429Y-45866D02*
X254429D01*
X135748Y-53291D02*
Y-49356D01*
X133781D01*
X133125Y-50012D01*
Y-51323D01*
X133781Y-51979D01*
X135748D01*
X131813Y-53291D02*
X129189Y-50668D01*
X127877Y-53291D02*
Y-49356D01*
X125253Y-53291D01*
Y-49356D01*
X123941Y-50668D02*
X123285D01*
Y-51323D01*
X123941D01*
Y-50668D01*
Y-52635D02*
X123285D01*
Y-53291D01*
X123941D01*
Y-52635D01*
X116726Y-53291D02*
Y-49356D01*
X114758D01*
X114102Y-50012D01*
Y-51323D01*
X114758Y-51979D01*
X116726D01*
X115414D02*
X114102Y-53291D01*
X112790Y-49356D02*
Y-53291D01*
Y-51323D01*
X110166D01*
Y-49356D01*
Y-53291D01*
X108854Y-49356D02*
Y-53291D01*
X106886D01*
X106230Y-52635D01*
Y-51979D01*
X106886Y-51323D01*
X108854D01*
X106886D01*
X106230Y-50668D01*
Y-50012D01*
X106886Y-49356D01*
X108854D01*
X104918Y-53291D02*
Y-52635D01*
X104262D01*
Y-53291D01*
X104918D01*
X101639Y-49356D02*
Y-53291D01*
X99671D01*
X99015Y-52635D01*
Y-51979D01*
X99671Y-51323D01*
X101639D01*
X99671D01*
X99015Y-50668D01*
Y-50012D01*
X99671Y-49356D01*
X101639D01*
X97703Y-53291D02*
Y-49356D01*
X95735D01*
X95079Y-50012D01*
Y-51323D01*
X95735Y-51979D01*
X97703D01*
X93767Y-53291D02*
Y-52635D01*
X93111D01*
Y-53291D01*
X93767D01*
X90487Y-50012D02*
X89831Y-49356D01*
X88520D01*
X87864Y-50012D01*
Y-52635D01*
X88520Y-53291D01*
X89831D01*
X90487Y-52635D01*
Y-50012D01*
X86552D02*
X85896Y-49356D01*
X84584D01*
X83928Y-50012D01*
Y-52635D01*
X84584Y-53291D01*
X85896D01*
X86552Y-52635D01*
Y-50012D01*
X82616D02*
X81960Y-49356D01*
X80648D01*
X79992Y-50012D01*
Y-52635D01*
X80648Y-53291D01*
X81960D01*
X82616Y-52635D01*
Y-50012D01*
X78680D02*
X78024Y-49356D01*
X76712D01*
X76056Y-50012D01*
Y-52635D01*
X76712Y-53291D01*
X78024D01*
X78680Y-52635D01*
Y-50012D01*
X74744Y-53291D02*
X73432D01*
X74089D01*
Y-49356D01*
X74744Y-50012D01*
X362293Y-16059D02*
X367292D01*
X368291Y-17059D01*
Y-19058D01*
X367292Y-20058D01*
X362293D01*
X363293Y-26056D02*
X362293Y-25056D01*
Y-23057D01*
X363293Y-22057D01*
X364293D01*
X365292Y-23057D01*
Y-25056D01*
X366292Y-26056D01*
X367292D01*
X368291Y-25056D01*
Y-23057D01*
X367292Y-22057D01*
X362293Y-28055D02*
X368291D01*
Y-31054D01*
X367292Y-32054D01*
X366292D01*
X365292Y-31054D01*
Y-28055D01*
Y-31054D01*
X364293Y-32054D01*
X363293D01*
X362293Y-31054D01*
Y-28055D01*
X365292Y-34053D02*
Y-38052D01*
X363293Y-44050D02*
X362293Y-43050D01*
Y-41051D01*
X363293Y-40051D01*
X367292D01*
X368291Y-41051D01*
Y-43050D01*
X367292Y-44050D01*
X362884Y-171141D02*
Y-167142D01*
X368882D01*
Y-171141D01*
X365883Y-167142D02*
Y-169141D01*
X363883Y-174139D02*
X364883D01*
Y-173140D01*
Y-175139D01*
Y-174139D01*
X367882D01*
X368882Y-175139D01*
X362884Y-178138D02*
X368882D01*
X365883D01*
X364883Y-179138D01*
Y-181137D01*
X365883Y-182137D01*
X368882D01*
Y-187135D02*
Y-185136D01*
X367882Y-184136D01*
X365883D01*
X364883Y-185136D01*
Y-187135D01*
X365883Y-188135D01*
X366882D01*
Y-184136D01*
X364883Y-190134D02*
X368882D01*
X366882D01*
X365883Y-191134D01*
X364883Y-192134D01*
Y-193133D01*
X368882Y-196132D02*
X364883D01*
Y-199131D01*
X365883Y-200131D01*
X368882D01*
Y-205129D02*
Y-203130D01*
X367882Y-202130D01*
X365883D01*
X364883Y-203130D01*
Y-205129D01*
X365883Y-206129D01*
X366882D01*
Y-202130D01*
X363883Y-209128D02*
X364883D01*
Y-208128D01*
Y-210128D01*
Y-209128D01*
X367882D01*
X368882Y-210128D01*
X135623Y-57230D02*
Y-61165D01*
Y-59197D01*
X132999D01*
Y-57230D01*
Y-61165D01*
X131687Y-57230D02*
Y-61165D01*
X130375Y-59853D01*
X129063Y-61165D01*
Y-57230D01*
X117256Y-61165D02*
X119880D01*
X117256Y-58542D01*
Y-57886D01*
X117912Y-57230D01*
X119224D01*
X119880Y-57886D01*
X115944Y-61165D02*
Y-60509D01*
X115288D01*
Y-61165D01*
X115944D01*
X112664D02*
X111353D01*
X112008D01*
Y-57230D01*
X112664Y-57886D01*
X109385Y-61165D02*
Y-60509D01*
X108729D01*
Y-61165D01*
X109385D01*
X106105Y-57886D02*
X105449Y-57230D01*
X104137D01*
X103481Y-57886D01*
Y-60509D01*
X104137Y-61165D01*
X105449D01*
X106105Y-60509D01*
Y-57886D01*
X135623Y-42663D02*
Y-46599D01*
X133655D01*
X132999Y-45943D01*
Y-45287D01*
X133655Y-44631D01*
X135623D01*
X133655D01*
X132999Y-43975D01*
Y-43319D01*
X133655Y-42663D01*
X135623D01*
X131031Y-43975D02*
X129719D01*
X129063Y-44631D01*
Y-46599D01*
X131031D01*
X131687Y-45943D01*
X131031Y-45287D01*
X129063D01*
X127751Y-43975D02*
Y-46599D01*
Y-45287D01*
X127095Y-44631D01*
X126439Y-43975D01*
X125784D01*
X121848Y-46599D02*
X123160D01*
X123816Y-45943D01*
Y-44631D01*
X123160Y-43975D01*
X121848D01*
X121192Y-44631D01*
Y-45287D01*
X123816D01*
X119880Y-46599D02*
Y-42663D01*
X118568Y-43975D01*
X117256Y-42663D01*
Y-46599D01*
X113976D02*
X115288D01*
X115944Y-45943D01*
Y-44631D01*
X115288Y-43975D01*
X113976D01*
X113320Y-44631D01*
Y-45287D01*
X115944D01*
X111353Y-43319D02*
Y-43975D01*
X112008D01*
X110696D01*
X111353D01*
Y-45943D01*
X110696Y-46599D01*
X108073Y-43975D02*
X106761D01*
X106105Y-44631D01*
Y-46599D01*
X108073D01*
X108729Y-45943D01*
X108073Y-45287D01*
X106105D01*
X104793Y-46599D02*
X103481D01*
X104137D01*
Y-42663D01*
X104793D01*
X97577Y-46599D02*
Y-42663D01*
X95609D01*
X94954Y-43319D01*
Y-44631D01*
X95609Y-45287D01*
X97577D01*
X93642Y-42663D02*
Y-46599D01*
X91018D01*
X87082Y-43319D02*
X87738Y-42663D01*
X89050D01*
X89706Y-43319D01*
Y-45943D01*
X89050Y-46599D01*
X87738D01*
X87082Y-45943D01*
X81834Y-42663D02*
X79211Y-46599D01*
Y-42663D02*
X81834Y-46599D01*
X77899Y-42663D02*
Y-46599D01*
X75275D01*
D16*
X320549Y-140026D02*
X339249D01*
X320276Y-113091D02*
X338976D01*
X320374Y-85236D02*
X339075D01*
X320276Y-58563D02*
X338976D01*
X60236Y-104331D02*
X70079D01*
X50394D02*
X60236D01*
Y-198031D02*
Y-104331D01*
X50394Y-90551D02*
X60236D01*
X70079D01*
X50394Y-76378D02*
X60236D01*
X70079D01*
X50394Y-62992D02*
X60236D01*
X70079D01*
X50394Y-48819D02*
X60236D01*
X70079D01*
X50394Y-35039D02*
X60236D01*
X70079D01*
X57623Y-177970D02*
X56704D01*
X57164D01*
Y-180725D01*
X57623D01*
X56704D01*
X55327Y-178429D02*
X54868Y-177970D01*
X53949D01*
X53490Y-178429D01*
Y-180266D01*
X53949Y-180725D01*
X54868D01*
X55327Y-180266D01*
Y-178429D01*
X66245Y-177870D02*
X67164D01*
X67623Y-178329D01*
Y-180166D01*
X67164Y-180625D01*
X66245D01*
X65786Y-180166D01*
Y-178329D01*
X66245Y-177870D01*
X64868Y-178329D02*
X64409Y-177870D01*
X63490D01*
X63031Y-178329D01*
Y-180166D01*
X63490Y-180625D01*
X64409D01*
X64868Y-180166D01*
Y-178329D01*
X57100Y-164445D02*
X56182D01*
X56641D01*
Y-167200D01*
X57100D01*
X56182D01*
X54804D02*
X53886D01*
X54345D01*
Y-164445D01*
X54804Y-164904D01*
X65623Y-164245D02*
X66541D01*
X67000Y-164704D01*
Y-166541D01*
X66541Y-167000D01*
X65623D01*
X65163Y-166541D01*
Y-164704D01*
X65623Y-164245D01*
X64245Y-167000D02*
X63327D01*
X63786D01*
Y-164245D01*
X64245Y-164704D01*
X57523Y-150370D02*
X56604D01*
X57064D01*
Y-153125D01*
X57523D01*
X56604D01*
X53390D02*
X55227D01*
X53390Y-151288D01*
Y-150829D01*
X53850Y-150370D01*
X54768D01*
X55227Y-150829D01*
X66145Y-150270D02*
X67064D01*
X67523Y-150729D01*
Y-152566D01*
X67064Y-153025D01*
X66145D01*
X65686Y-152566D01*
Y-150729D01*
X66145Y-150270D01*
X62931Y-153025D02*
X64768D01*
X62931Y-151189D01*
Y-150729D01*
X63390Y-150270D01*
X64309D01*
X64768Y-150729D01*
X66145Y-136970D02*
X67064D01*
X67523Y-137429D01*
Y-139266D01*
X67064Y-139725D01*
X66145D01*
X65686Y-139266D01*
Y-137429D01*
X66145Y-136970D01*
X64768Y-137429D02*
X64309Y-136970D01*
X63390D01*
X62931Y-137429D01*
Y-137889D01*
X63390Y-138348D01*
X63850D01*
X63390D01*
X62931Y-138807D01*
Y-139266D01*
X63390Y-139725D01*
X64309D01*
X64768Y-139266D01*
X57623Y-136970D02*
X56704D01*
X57164D01*
Y-139725D01*
X57623D01*
X56704D01*
X55327Y-137429D02*
X54868Y-136970D01*
X53949D01*
X53490Y-137429D01*
Y-137889D01*
X53949Y-138348D01*
X54409D01*
X53949D01*
X53490Y-138807D01*
Y-139266D01*
X53949Y-139725D01*
X54868D01*
X55327Y-139266D01*
X57723Y-122870D02*
X56805D01*
X57264D01*
Y-125625D01*
X57723D01*
X56805D01*
X54049D02*
Y-122870D01*
X55427Y-124248D01*
X53590D01*
X66245Y-122770D02*
X67164D01*
X67623Y-123229D01*
Y-125066D01*
X67164Y-125525D01*
X66245D01*
X65786Y-125066D01*
Y-123229D01*
X66245Y-122770D01*
X63490Y-125525D02*
Y-122770D01*
X64868Y-124148D01*
X63031D01*
X57623Y-109470D02*
X56704D01*
X57164D01*
Y-112225D01*
X57623D01*
X56704D01*
X53490Y-109929D02*
X53949Y-109470D01*
X54868D01*
X55327Y-109929D01*
Y-111766D01*
X54868Y-112225D01*
X53949D01*
X53490Y-111766D01*
X66245Y-109370D02*
X67164D01*
X67623Y-109829D01*
Y-111666D01*
X67164Y-112125D01*
X66245D01*
X65786Y-111666D01*
Y-109829D01*
X66245Y-109370D01*
X63031Y-109829D02*
X63490Y-109370D01*
X64409D01*
X64868Y-109829D01*
Y-111666D01*
X64409Y-112125D01*
X63490D01*
X63031Y-111666D01*
X68110Y-204331D02*
X67192D01*
X67651D01*
Y-201576D01*
X68110Y-202035D01*
X63978Y-204331D02*
X65814D01*
X63978Y-202494D01*
Y-202035D01*
X64437Y-201576D01*
X65355D01*
X65814Y-202035D01*
X63059Y-202953D02*
X61223D01*
X58468Y-204331D02*
X60304D01*
X58468Y-202494D01*
Y-202035D01*
X58927Y-201576D01*
X59845D01*
X60304Y-202035D01*
X56172Y-204331D02*
Y-201576D01*
X57549Y-202953D01*
X55713D01*
X54794Y-201576D02*
Y-203412D01*
X53876Y-204331D01*
X52958Y-203412D01*
Y-201576D01*
X207940Y-27087D02*
X207284Y-27743D01*
Y-29054D01*
X207940Y-29710D01*
X208596D01*
X209252Y-29054D01*
Y-28398D01*
Y-29054D01*
X209908Y-29710D01*
X210564D01*
X211220Y-29054D01*
Y-27743D01*
X210564Y-27087D01*
X211220Y-31022D02*
X210564D01*
Y-31678D01*
X211220D01*
Y-31022D01*
X207940Y-34302D02*
X207284Y-34958D01*
Y-36270D01*
X207940Y-36926D01*
X208596D01*
X209252Y-36270D01*
Y-35614D01*
Y-36270D01*
X209908Y-36926D01*
X210564D01*
X211220Y-36270D01*
Y-34958D01*
X210564Y-34302D01*
X207284Y-38238D02*
X209908D01*
X211220Y-39550D01*
X209908Y-40862D01*
X207284D01*
X221161Y-26988D02*
Y-28956D01*
X220505Y-29612D01*
X219849Y-28956D01*
Y-27644D01*
X219193Y-26988D01*
X218537Y-27644D01*
Y-29612D01*
X217225Y-33548D02*
X221161D01*
Y-31580D01*
X220505Y-30924D01*
X219193D01*
X218537Y-31580D01*
Y-33548D01*
X221161Y-34860D02*
Y-36172D01*
Y-35516D01*
X218537D01*
Y-34860D01*
X221161Y-38795D02*
Y-40107D01*
X220505Y-40763D01*
X219193D01*
X218537Y-40107D01*
Y-38795D01*
X219193Y-38140D01*
X220505D01*
X221161Y-38795D01*
X196621Y-27087D02*
X195965Y-27743D01*
Y-29054D01*
X196621Y-29710D01*
X197277D01*
X197933Y-29054D01*
Y-28398D01*
Y-29054D01*
X198589Y-29710D01*
X199245D01*
X199901Y-29054D01*
Y-27743D01*
X199245Y-27087D01*
X199901Y-31022D02*
X199245D01*
Y-31678D01*
X199901D01*
Y-31022D01*
X196621Y-34302D02*
X195965Y-34958D01*
Y-36270D01*
X196621Y-36926D01*
X197277D01*
X197933Y-36270D01*
Y-35614D01*
Y-36270D01*
X198589Y-36926D01*
X199245D01*
X199901Y-36270D01*
Y-34958D01*
X199245Y-34302D01*
X195965Y-38238D02*
X198589D01*
X199901Y-39550D01*
X198589Y-40862D01*
X195965D01*
X169422Y-27283D02*
Y-29251D01*
X168766Y-29907D01*
X168110Y-29251D01*
Y-27939D01*
X167454Y-27283D01*
X166798Y-27939D01*
Y-29907D01*
Y-31219D02*
X168766D01*
X169422Y-31875D01*
X168766Y-32531D01*
X169422Y-33187D01*
X168766Y-33843D01*
X166798D01*
X169422Y-35811D02*
Y-37123D01*
X168766Y-37779D01*
X167454D01*
X166798Y-37123D01*
Y-35811D01*
X167454Y-35155D01*
X168766D01*
X169422Y-35811D01*
X179724Y-26988D02*
Y-28956D01*
X179068Y-29612D01*
X178412Y-28956D01*
Y-27644D01*
X177756Y-26988D01*
X177100Y-27644D01*
Y-29612D01*
Y-30924D02*
X179068D01*
X179724Y-31580D01*
X179068Y-32236D01*
X179724Y-32892D01*
X179068Y-33548D01*
X177100D01*
Y-37484D02*
Y-35516D01*
X177756Y-34860D01*
X179068D01*
X179724Y-35516D01*
Y-37484D01*
Y-38795D02*
Y-40107D01*
Y-39451D01*
X175788D01*
Y-38795D01*
X179724Y-42075D02*
X175788D01*
X178412D02*
X177100Y-44043D01*
X178412Y-42075D02*
X179724Y-44043D01*
X231200Y-27283D02*
Y-29251D01*
X230544Y-29907D01*
X229888Y-29251D01*
Y-27939D01*
X229232Y-27283D01*
X228576Y-27939D01*
Y-29907D01*
Y-31219D02*
X230544D01*
X231200Y-31875D01*
X230544Y-32531D01*
X231200Y-33187D01*
X230544Y-33843D01*
X228576D01*
Y-37779D02*
Y-35811D01*
X229232Y-35155D01*
X230544D01*
X231200Y-35811D01*
Y-37779D01*
Y-39091D02*
Y-40403D01*
Y-39747D01*
X227264D01*
Y-39091D01*
X231200Y-42371D02*
X227264D01*
X229888D02*
X228576Y-44338D01*
X229888Y-42371D02*
X231200Y-44338D01*
X240584Y-27087D02*
Y-29054D01*
X239928Y-29710D01*
X239272Y-29054D01*
Y-27743D01*
X238616Y-27087D01*
X237960Y-27743D01*
Y-29710D01*
Y-31022D02*
X239928D01*
X240584Y-31678D01*
X239928Y-32334D01*
X240584Y-32990D01*
X239928Y-33646D01*
X237960D01*
X240584Y-35614D02*
Y-36926D01*
X239928Y-37582D01*
X238616D01*
X237960Y-36926D01*
Y-35614D01*
X238616Y-34958D01*
X239928D01*
X240584Y-35614D01*
X251836Y-28103D02*
Y-28759D01*
X251181Y-29415D01*
X247901D01*
Y-27447D01*
X248557Y-26791D01*
X249868D01*
X250524Y-27447D01*
Y-29415D01*
Y-30727D02*
X247901D01*
Y-32695D01*
X248557Y-33351D01*
X250524D01*
X246589Y-37287D02*
X250524D01*
Y-35319D01*
X249868Y-34663D01*
X248557D01*
X247901Y-35319D01*
Y-37287D01*
X189665Y-26791D02*
Y-28759D01*
X189009Y-29415D01*
X188353Y-28759D01*
Y-27447D01*
X187697Y-26791D01*
X187041Y-27447D01*
Y-29415D01*
X185729Y-33351D02*
X189665D01*
Y-31383D01*
X189009Y-30727D01*
X187697D01*
X187041Y-31383D01*
Y-33351D01*
X189665Y-34663D02*
Y-35975D01*
Y-35319D01*
X187041D01*
Y-34663D01*
X189665Y-38599D02*
Y-39911D01*
X189009Y-40566D01*
X187697D01*
X187041Y-39911D01*
Y-38599D01*
X187697Y-37943D01*
X189009D01*
X189665Y-38599D01*
X160498Y-28300D02*
Y-28956D01*
X159842Y-29612D01*
X156562D01*
Y-27644D01*
X157218Y-26988D01*
X158530D01*
X159186Y-27644D01*
Y-29612D01*
Y-30924D02*
X156562D01*
Y-32892D01*
X157218Y-33548D01*
X159186D01*
X155250Y-37484D02*
X159186D01*
Y-35516D01*
X158530Y-34860D01*
X157218D01*
X156562Y-35516D01*
Y-37484D01*
X326817Y-121637D02*
Y-118882D01*
X325440D01*
X324981Y-119341D01*
Y-120259D01*
X325440Y-120718D01*
X326817D01*
X325899D02*
X324981Y-121637D01*
X324062Y-118882D02*
X322226Y-121637D01*
Y-118882D02*
X324062Y-121637D01*
X326817Y-107896D02*
Y-105141D01*
X325440D01*
X324981Y-105600D01*
Y-106519D01*
X325440Y-106978D01*
X326817D01*
X325899D02*
X324981Y-107896D01*
X324062D02*
Y-106059D01*
X323144Y-105141D01*
X322226Y-106059D01*
Y-107896D01*
Y-106519D01*
X324062D01*
X326817Y-94156D02*
Y-91401D01*
X325440D01*
X324981Y-91860D01*
Y-92778D01*
X325440Y-93237D01*
X326817D01*
X325899D02*
X324981Y-94156D01*
X324062Y-91401D02*
Y-94156D01*
X322685D01*
X322226Y-93696D01*
Y-93237D01*
X322685Y-92778D01*
X324062D01*
X322685D01*
X322226Y-92319D01*
Y-91860D01*
X322685Y-91401D01*
X324062D01*
X325079Y-77902D02*
X325538Y-77443D01*
X326457D01*
X326916Y-77902D01*
Y-79739D01*
X326457Y-80198D01*
X325538D01*
X325079Y-79739D01*
X324161Y-77443D02*
Y-80198D01*
X322324D01*
X324981Y-64359D02*
X325440Y-63899D01*
X326358D01*
X326817Y-64359D01*
Y-66195D01*
X326358Y-66654D01*
X325440D01*
X324981Y-66195D01*
X324062Y-63899D02*
Y-66654D01*
Y-65277D01*
X322226D01*
Y-63899D01*
Y-66654D01*
X336717Y-118782D02*
X334881D01*
X335799D01*
Y-121537D01*
X333962Y-118782D02*
X332126Y-121537D01*
Y-118782D02*
X333962Y-121537D01*
X336717Y-107796D02*
Y-105041D01*
X335340D01*
X334881Y-105500D01*
Y-106419D01*
X335340Y-106878D01*
X336717D01*
X335799D02*
X334881Y-107796D01*
X333962D02*
Y-105959D01*
X333044Y-105041D01*
X332126Y-105959D01*
Y-107796D01*
Y-106419D01*
X333962D01*
X336717Y-94056D02*
Y-91301D01*
X335340D01*
X334881Y-91760D01*
Y-92678D01*
X335340Y-93137D01*
X336717D01*
X335799D02*
X334881Y-94056D01*
X333962Y-91301D02*
Y-94056D01*
X332585D01*
X332126Y-93597D01*
Y-93137D01*
X332585Y-92678D01*
X333962D01*
X332585D01*
X332126Y-92219D01*
Y-91760D01*
X332585Y-91301D01*
X333962D01*
X334979Y-77802D02*
X335438Y-77343D01*
X336357D01*
X336816Y-77802D01*
Y-79639D01*
X336357Y-80098D01*
X335438D01*
X334979Y-79639D01*
X334061Y-77343D02*
Y-80098D01*
X332224D01*
X334881Y-64258D02*
X335340Y-63799D01*
X336258D01*
X336717Y-64258D01*
Y-66095D01*
X336258Y-66554D01*
X335340D01*
X334881Y-66095D01*
X333962Y-63799D02*
Y-66554D01*
Y-65177D01*
X332126D01*
Y-63799D01*
Y-66554D01*
X56103Y-43307D02*
Y-40552D01*
X57480Y-41930D01*
X55644D01*
X54725Y-43307D02*
X53807D01*
X54266D01*
Y-40552D01*
X54725Y-41011D01*
X66339Y-43307D02*
Y-40552D01*
X67716Y-41930D01*
X65880D01*
X64961Y-41011D02*
X64502Y-40552D01*
X63584D01*
X63125Y-41011D01*
Y-42848D01*
X63584Y-43307D01*
X64502D01*
X64961Y-42848D01*
Y-41011D01*
X57480Y-54791D02*
X57021Y-54332D01*
X56103D01*
X55644Y-54791D01*
Y-55250D01*
X56103Y-55709D01*
X56562D01*
X56103D01*
X55644Y-56168D01*
Y-56627D01*
X56103Y-57087D01*
X57021D01*
X57480Y-56627D01*
X54725Y-57087D02*
X53807D01*
X54266D01*
Y-54332D01*
X54725Y-54791D01*
X67716D02*
X67257Y-54332D01*
X66339D01*
X65880Y-54791D01*
Y-55250D01*
X66339Y-55709D01*
X66798D01*
X66339D01*
X65880Y-56168D01*
Y-56627D01*
X66339Y-57087D01*
X67257D01*
X67716Y-56627D01*
X64961Y-54791D02*
X64502Y-54332D01*
X63584D01*
X63125Y-54791D01*
Y-56627D01*
X63584Y-57087D01*
X64502D01*
X64961Y-56627D01*
Y-54791D01*
X55644Y-70866D02*
X57480D01*
X55644Y-69029D01*
Y-68570D01*
X56103Y-68111D01*
X57021D01*
X57480Y-68570D01*
X54725Y-70866D02*
X53807D01*
X54266D01*
Y-68111D01*
X54725Y-68570D01*
X65486Y-70866D02*
X67323D01*
X65486Y-69029D01*
Y-68570D01*
X65945Y-68111D01*
X66864D01*
X67323Y-68570D01*
X64568D02*
X64109Y-68111D01*
X63190D01*
X62731Y-68570D01*
Y-70407D01*
X63190Y-70866D01*
X64109D01*
X64568Y-70407D01*
Y-68570D01*
X57087Y-84646D02*
X56168D01*
X56627D01*
Y-81891D01*
X57087Y-82350D01*
X54791Y-84646D02*
X53872D01*
X54332D01*
Y-81891D01*
X54791Y-82350D01*
X67323Y-84646D02*
X66404D01*
X66864D01*
Y-81891D01*
X67323Y-82350D01*
X65027D02*
X64568Y-81891D01*
X63649D01*
X63190Y-82350D01*
Y-84187D01*
X63649Y-84646D01*
X64568D01*
X65027Y-84187D01*
Y-82350D01*
X57480Y-96129D02*
X57021Y-95670D01*
X56103D01*
X55644Y-96129D01*
Y-97966D01*
X56103Y-98425D01*
X57021D01*
X57480Y-97966D01*
Y-96129D01*
X54725Y-98425D02*
X53807D01*
X54266D01*
Y-95670D01*
X54725Y-96129D01*
X67323D02*
X66864Y-95670D01*
X65945D01*
X65486Y-96129D01*
Y-97966D01*
X65945Y-98425D01*
X66864D01*
X67323Y-97966D01*
Y-96129D01*
X64568D02*
X64109Y-95670D01*
X63190D01*
X62731Y-96129D01*
Y-97966D01*
X63190Y-98425D01*
X64109D01*
X64568Y-97966D01*
Y-96129D01*
D18*
X66675Y-192701D02*
X67002Y-192373D01*
X67658D01*
X67986Y-192701D01*
Y-194013D01*
X67658Y-194341D01*
X67002D01*
X66675Y-194013D01*
Y-193357D01*
X67330D01*
X66019Y-194341D02*
Y-192373D01*
X64707Y-194341D01*
Y-192373D01*
X64051D02*
Y-194341D01*
X63067D01*
X62739Y-194013D01*
Y-192701D01*
X63067Y-192373D01*
X64051D01*
X57986Y-192408D02*
Y-193720D01*
X57330Y-194376D01*
X56674Y-193720D01*
Y-192408D01*
X54707Y-192736D02*
X55035Y-192408D01*
X55690D01*
X56019Y-192736D01*
Y-194048D01*
X55690Y-194376D01*
X55035D01*
X54707Y-194048D01*
X52739Y-192736D02*
X53067Y-192408D01*
X53723D01*
X54051Y-192736D01*
Y-194048D01*
X53723Y-194376D01*
X53067D01*
X52739Y-194048D01*
X325897Y-133337D02*
X326225Y-133009D01*
X326881D01*
X327209Y-133337D01*
Y-134649D01*
X326881Y-134977D01*
X326225D01*
X325897Y-134649D01*
Y-133993D01*
X326553D01*
X325241Y-134977D02*
Y-133009D01*
X323929Y-134977D01*
Y-133009D01*
X323273D02*
Y-134977D01*
X322290D01*
X321962Y-134649D01*
Y-133337D01*
X322290Y-133009D01*
X323273D01*
X335736Y-133286D02*
X336063Y-132958D01*
X336719D01*
X337047Y-133286D01*
Y-134598D01*
X336719Y-134926D01*
X336063D01*
X335736Y-134598D01*
Y-133942D01*
X336391D01*
X335080Y-134926D02*
Y-132958D01*
X333768Y-134926D01*
Y-132958D01*
X333112D02*
Y-134926D01*
X332128D01*
X331800Y-134598D01*
Y-133286D01*
X332128Y-132958D01*
X333112D01*
M02*
