G04*
G04 #@! TF.GenerationSoftware,Altium Limited,Altium Designer,22.10.1 (41)*
G04*
G04 Layer_Physical_Order=4*
G04 Layer_Color=16711680*
%FSLAX25Y25*%
%MOIN*%
G70*
G04*
G04 #@! TF.SameCoordinates,228258D3-266C-4D4F-9196-BF2F79CCE343*
G04*
G04*
G04 #@! TF.FilePolarity,Positive*
G04*
G01*
G75*
%ADD10C,0.01000*%
%ADD11C,0.00787*%
%ADD20C,0.01181*%
%ADD124C,0.02362*%
%ADD125C,0.00660*%
%ADD130C,0.01100*%
%ADD132C,0.07874*%
%ADD133C,0.05906*%
%ADD135C,0.04724*%
%ADD136C,0.03543*%
%ADD139C,0.03150*%
%ADD140C,0.06000*%
%ADD141C,0.06693*%
%ADD142C,0.09055*%
%ADD143C,0.05906*%
%ADD144R,0.05906X0.05906*%
%ADD145C,0.07874*%
%ADD146O,0.07480X0.03543*%
%ADD147C,0.02756*%
%ADD148C,0.01968*%
%ADD149C,0.03937*%
%ADD150C,0.00100*%
G36*
X54331Y-209842D02*
X64963D01*
X65135Y-210039D01*
X65223Y-210707D01*
X65481Y-211330D01*
X65891Y-211864D01*
X66426Y-212275D01*
X67049Y-212532D01*
X67716Y-212620D01*
X68385Y-212532D01*
X69007Y-212275D01*
X69542Y-211864D01*
X69952Y-211330D01*
X70210Y-210707D01*
X70298Y-210039D01*
X70470Y-209842D01*
X98322D01*
X98507Y-210236D01*
X98294Y-210749D01*
X98206Y-211417D01*
X98294Y-212085D01*
X98552Y-212708D01*
X98962Y-213243D01*
X99497Y-213653D01*
X100119Y-213911D01*
X100787Y-213999D01*
X101455Y-213911D01*
X102078Y-213653D01*
X102612Y-213243D01*
X103023Y-212708D01*
X103281Y-212085D01*
X103368Y-211417D01*
X103281Y-210749D01*
X103068Y-210236D01*
X103253Y-209842D01*
X129331D01*
X136614Y-202559D01*
X154921D01*
X157480Y-205118D01*
Y-217913D01*
X152559Y-222835D01*
X10827D01*
X4528Y-216535D01*
Y-196260D01*
X12205Y-188583D01*
X27956D01*
X28034Y-188976D01*
X26946Y-189427D01*
X25877Y-190247D01*
X25057Y-191316D01*
X24541Y-192562D01*
X24365Y-193898D01*
X24541Y-195234D01*
X25057Y-196479D01*
X25877Y-197548D01*
X26946Y-198368D01*
X28192Y-198884D01*
X29528Y-199060D01*
X30864Y-198884D01*
X32109Y-198368D01*
X33178Y-197548D01*
X33998Y-196479D01*
X34514Y-195234D01*
X34690Y-193898D01*
X34514Y-192562D01*
X33998Y-191316D01*
X33178Y-190247D01*
X32109Y-189427D01*
X31021Y-188976D01*
X31099Y-188583D01*
X33071D01*
X54331Y-209842D01*
D02*
G37*
%LPC*%
G36*
X112795Y-214198D02*
X112127Y-214286D01*
X111505Y-214544D01*
X110970Y-214954D01*
X110560Y-215489D01*
X110302Y-216111D01*
X110214Y-216779D01*
X110302Y-217448D01*
X110560Y-218070D01*
X110970Y-218605D01*
X111505Y-219015D01*
X112127Y-219273D01*
X112795Y-219361D01*
X113463Y-219273D01*
X114086Y-219015D01*
X114620Y-218605D01*
X115031Y-218070D01*
X115288Y-217448D01*
X115376Y-216779D01*
X115288Y-216111D01*
X115031Y-215489D01*
X114620Y-214954D01*
X114086Y-214544D01*
X113463Y-214286D01*
X112795Y-214198D01*
D02*
G37*
%LPD*%
D10*
X46091Y-186516D02*
X65284Y-205709D01*
X26083Y-186516D02*
X46091D01*
X19685Y-180118D02*
X26083Y-186516D01*
X65284Y-205709D02*
X84055D01*
X58366Y-173228D02*
X71547Y-186409D01*
X81685D01*
X26575Y-173228D02*
X58366D01*
X81685Y-186409D02*
X81791Y-186516D01*
X19685Y-166339D02*
X26575Y-173228D01*
X125689Y-39862D02*
X125915D01*
X151604Y-65551D01*
X167421D01*
X293568Y-128972D02*
X293634Y-129038D01*
Y-147670D02*
Y-129038D01*
Y-147670D02*
X293701Y-147736D01*
X298819D02*
Y-133071D01*
D11*
X154442Y-96070D02*
G03*
X156390Y-96070I974J974D01*
G01*
X152208Y-93836D02*
G03*
X150259Y-93836I-974J-974D01*
G01*
X150259Y-93836D02*
G03*
X150259Y-95785I974J-974D01*
G01*
X152493Y-99968D02*
G03*
X152493Y-98019I-974J974D01*
G01*
X179134Y-91043D02*
G03*
X180118Y-92027I984J0D01*
G01*
X180159Y-93996D02*
G03*
X180159Y-92027I0J984D01*
G01*
X180118Y-93996D02*
G03*
X179134Y-94980I0J-984D01*
G01*
X169525Y-103704D02*
G03*
X169525Y-105653I974J-974D01*
G01*
X170289Y-108365D02*
G03*
X170289Y-106417I-974J974D01*
G01*
X168340Y-108365D02*
G03*
X170289Y-108365I974J974D01*
G01*
X163329Y-103355D02*
G03*
X161380Y-103355I-974J-974D01*
G01*
X161380Y-103355D02*
G03*
X161380Y-105303I974J-974D01*
G01*
X166265Y-112137D02*
G03*
X166265Y-110188I-974J974D01*
G01*
X164317Y-112137D02*
G03*
X166265Y-112137I974J974D01*
G01*
X159432Y-107252D02*
G03*
X157483Y-107252I-974J-974D01*
G01*
X157483Y-107252D02*
G03*
X157483Y-109201I974J-974D01*
G01*
X159781Y-113447D02*
G03*
X159781Y-111499I-974J974D01*
G01*
X171441Y-116537D02*
G03*
X172834Y-116537I696J696D01*
G01*
X171388Y-116483D02*
G03*
X169996Y-116483I-696J-696D01*
G01*
X169996Y-116483D02*
G03*
X169996Y-117875I696J-696D01*
G01*
X170050Y-119320D02*
G03*
X170050Y-117929I-696J696D01*
G01*
X166619Y-115684D02*
G03*
X168568Y-115684I974J974D01*
G01*
X166025Y-115090D02*
G03*
X164076Y-115090I-974J-974D01*
G01*
X164076Y-115090D02*
G03*
X164076Y-117039I974J-974D01*
G01*
X166116Y-121027D02*
G03*
X166116Y-119078I-974J974D01*
G01*
X164167Y-121027D02*
G03*
X166116Y-121027I974J974D01*
G01*
X161401Y-118260D02*
G03*
X159452Y-118260I-974J-974D01*
G01*
D02*
G03*
X159452Y-120209I974J-974D01*
G01*
X162219Y-124924D02*
G03*
X162219Y-122976I-974J974D01*
G01*
X160270Y-124924D02*
G03*
X162219Y-124924I974J974D01*
G01*
X157503Y-122158D02*
G03*
X155555Y-122158I-974J-974D01*
G01*
X155555Y-122158D02*
G03*
X155555Y-124107I974J-974D01*
G01*
X158321Y-128822D02*
G03*
X158321Y-126873I-974J974D01*
G01*
X156372Y-128822D02*
G03*
X158321Y-128822I974J974D01*
G01*
X153606Y-126055D02*
G03*
X151657Y-126055I-974J-974D01*
G01*
X151657Y-126055D02*
G03*
X151657Y-128004I974J-974D01*
G01*
X152978Y-131274D02*
G03*
X152978Y-129325I-974J974D01*
G01*
X219252Y-20768D02*
X228898Y-30413D01*
X289688D02*
X296379Y-37104D01*
X228898Y-30413D02*
X289688D01*
X85532Y-202854D02*
X96850Y-191535D01*
X76279Y-202854D02*
X85532D01*
X96850Y-191535D02*
X142618D01*
X76181Y-189075D02*
X141634D01*
X172933Y-157776D01*
X201870Y-130217D02*
Y-117224D01*
X200492Y-131595D02*
X201870Y-130217D01*
X200492Y-140453D02*
Y-131595D01*
X180984Y-159960D02*
X200492Y-140453D01*
X174193Y-159960D02*
X180984D01*
X142618Y-191535D02*
X174193Y-159960D01*
X199144Y-129694D02*
Y-114961D01*
X198425Y-130413D02*
X199144Y-129694D01*
X198425Y-138878D02*
Y-130413D01*
X179528Y-157776D02*
X198425Y-138878D01*
X172933Y-157776D02*
X179528D01*
X77796Y-172933D02*
X154232D01*
X76714Y-171850D02*
X77796Y-172933D01*
X76181Y-171850D02*
X76714D01*
X196260Y-117421D02*
X196436Y-117245D01*
X196260Y-137795D02*
Y-117421D01*
X178347Y-155709D02*
X196260Y-137795D01*
X171457Y-155709D02*
X178347D01*
X154232Y-172933D02*
X171457Y-155709D01*
X76181Y-154626D02*
X81595D01*
X193701Y-130118D02*
Y-114961D01*
Y-130118D02*
X194193Y-130610D01*
Y-136614D02*
Y-130610D01*
X177362Y-153445D02*
X194193Y-136614D01*
X170571Y-153445D02*
X177362D01*
X153150Y-170866D02*
X170571Y-153445D01*
X97835Y-170866D02*
X153150D01*
X81595Y-154626D02*
X97835Y-170866D01*
X76279Y-137205D02*
X76575Y-136909D01*
Y-134646D02*
X136122Y-75098D01*
X76575Y-136909D02*
Y-134646D01*
X150303Y-117329D02*
Y-102158D01*
X152215Y-100246D01*
X190630Y-128268D02*
Y-117205D01*
X187992Y-139370D02*
Y-130905D01*
X190630Y-128268D01*
X187598Y-127756D02*
Y-114961D01*
X186122Y-138189D02*
Y-129232D01*
X187598Y-127756D01*
X269094Y-73032D02*
X297756Y-101693D01*
X245276Y-73032D02*
X269094D01*
X297756Y-106713D02*
Y-101693D01*
X262008Y-75098D02*
X316732Y-129823D01*
X240945Y-75098D02*
X262008D01*
X316732Y-135335D02*
Y-129823D01*
X319980Y-134252D02*
Y-128937D01*
X297756Y-106713D02*
X319980Y-128937D01*
X334842Y-134350D02*
Y-132185D01*
X274016Y-71358D02*
X334842Y-132185D01*
X245830Y-71358D02*
X274016D01*
X241535Y-86910D02*
X259547D01*
X237303Y-82677D02*
X241535Y-86910D01*
X156390Y-96070D02*
X161113Y-91348D01*
X152208Y-93836D02*
X154442Y-96070D01*
X152207Y-93836D02*
X152208Y-93836D01*
X150259D02*
X150259Y-93836D01*
X150259Y-95785D02*
X150259Y-95785D01*
X152493Y-98019D01*
X152493Y-98019D02*
X152493Y-98019D01*
X152215Y-100246D02*
X152493Y-99968D01*
X179134Y-91043D02*
Y-89272D01*
X180118Y-92027D02*
X180159D01*
X180118Y-93996D02*
X180159D01*
X179134Y-97342D02*
Y-94980D01*
X171260Y-101969D02*
Y-99311D01*
X169525Y-103704D02*
X171260Y-101969D01*
X169525Y-105653D02*
X170289Y-106417D01*
X170289Y-106417D02*
X170289Y-106417D01*
X168340Y-108365D02*
X168340Y-108365D01*
X163329Y-103355D02*
X168340Y-108365D01*
X163329Y-103355D02*
X163329Y-103355D01*
X161380D02*
X161380Y-103355D01*
X161380Y-105303D02*
X161380Y-105303D01*
X166265Y-110188D01*
X166265Y-110188D02*
X166265Y-110188D01*
X164317Y-112137D02*
X164317Y-112137D01*
X159432Y-107252D02*
X164317Y-112137D01*
X159432Y-107252D02*
X159432Y-107252D01*
X157483D02*
X157483Y-107252D01*
X157483Y-109201D02*
X157483Y-109201D01*
X159781Y-111499D01*
X159781Y-111499D02*
X159781Y-111499D01*
X159502Y-113726D02*
X159781Y-113447D01*
X179134Y-113779D02*
Y-97342D01*
X172834Y-116537D02*
X175640Y-113730D01*
X171388Y-116483D02*
X171441Y-116537D01*
X171388Y-116483D02*
X171388Y-116483D01*
X169996D02*
X169996Y-116483D01*
X169996Y-117875D02*
X169996Y-117875D01*
X170050Y-117929D01*
X170050Y-117929D02*
X170050Y-117929D01*
X166987Y-122383D02*
X170050Y-119320D01*
X175640Y-113730D02*
X176382Y-112988D01*
Y-111024D01*
X168568Y-115684D02*
X170478Y-113774D01*
X166025Y-115090D02*
X166619Y-115684D01*
X166025Y-115090D02*
X166025Y-115090D01*
X164076D02*
X164076Y-115090D01*
X164076Y-117039D02*
X164076Y-117039D01*
X166116Y-119078D01*
Y-121027D02*
X166116Y-121027D01*
X161401Y-118260D02*
X164167Y-121027D01*
X159452Y-120209D02*
X162219Y-122976D01*
X157503Y-122158D02*
X160270Y-124924D01*
X155555Y-122158D02*
X155555Y-122158D01*
Y-124107D02*
X158321Y-126873D01*
X153606Y-126055D02*
X156372Y-128822D01*
X151657Y-126055D02*
X151657Y-126055D01*
Y-128004D02*
X152978Y-129325D01*
X152978Y-129325D02*
X152978Y-129325D01*
X152700Y-131552D02*
X152978Y-131274D01*
X161113Y-91348D02*
X183563Y-68898D01*
X153524Y-156706D02*
X159449Y-150781D01*
Y-137205D02*
X182067Y-114587D01*
X159449Y-150781D02*
Y-137205D01*
X182067Y-107973D02*
Y-102146D01*
X181988Y-102067D02*
X182067Y-102146D01*
Y-113779D02*
Y-107973D01*
Y-114587D02*
Y-113779D01*
X141700Y-154134D02*
X144272Y-156706D01*
X153524D01*
X170478Y-113774D02*
X173819Y-110433D01*
X167421Y-147146D02*
X174016D01*
X155315Y-159252D02*
X167421Y-147146D01*
X132548Y-159252D02*
X155315D01*
X174016Y-147146D02*
X183858Y-137303D01*
X169587Y-151476D02*
X175886D01*
X130315Y-168307D02*
X152756D01*
X169587Y-151476D01*
X175886D02*
X187992Y-139370D01*
X174902Y-149409D02*
X186122Y-138189D01*
X184744Y-117757D02*
Y-117224D01*
X183858Y-118643D02*
X184744Y-117757D01*
X183858Y-137303D02*
Y-118643D01*
X205118Y-130535D02*
Y-115256D01*
X204823Y-114961D02*
X205118Y-115256D01*
X202362Y-133290D02*
X205118Y-130535D01*
X202362Y-141929D02*
Y-133290D01*
X181988Y-162303D02*
X202362Y-141929D01*
X175098Y-162303D02*
X181988D01*
X142717Y-194685D02*
X175098Y-162303D01*
X131791Y-194685D02*
X142717D01*
X168307Y-149409D02*
X174902D01*
X156102Y-161614D02*
X168307Y-149409D01*
X134646Y-161614D02*
X156102D01*
X130118Y-168110D02*
X130315Y-168307D01*
X131102Y-165157D02*
X134646Y-161614D01*
X131170Y-160630D02*
X132548Y-159252D01*
X131102Y-160630D02*
X131170D01*
X127461Y-165157D02*
X131102D01*
X127362Y-131299D02*
Y-108832D01*
X142117Y-97526D02*
X153422Y-86220D01*
X138668Y-97526D02*
X142117D01*
X127362Y-108832D02*
X138668Y-97526D01*
X233661Y-69784D02*
Y-69708D01*
X236145Y-67224D01*
X241696D01*
X245830Y-71358D01*
X237205Y-69784D02*
X242028D01*
X245276Y-73032D01*
X173819Y-110433D02*
Y-94390D01*
X156988Y-135925D02*
X179134Y-113779D01*
X152333Y-154163D02*
X156988Y-149508D01*
Y-135925D01*
X173917Y-83210D02*
X179134Y-88427D01*
Y-89272D02*
Y-88427D01*
X154335Y-135035D02*
X166987Y-122383D01*
X152657Y-131595D02*
X152700Y-131552D01*
X141634Y-131595D02*
X159502Y-113726D01*
X176382Y-111024D02*
Y-93100D01*
X139571Y-151368D02*
X151874D01*
X154335Y-148907D02*
Y-135035D01*
X151874Y-151368D02*
X154335Y-148907D01*
X136811Y-154128D02*
X139571Y-151368D01*
X173969Y-90688D02*
X176382Y-93100D01*
X146880Y-154163D02*
X152333D01*
X146653Y-131595D02*
X152657D01*
X171260Y-99311D02*
Y-89764D01*
X173917Y-87106D01*
X183563Y-68898D02*
Y-56988D01*
X162441Y-86220D02*
X175984Y-72677D01*
Y-63189D01*
X153422Y-86220D02*
X162441D01*
X172835Y-73599D02*
Y-55905D01*
X161788Y-84646D02*
X172835Y-73599D01*
X123031Y-107972D02*
X146358Y-84646D01*
X161788D01*
X123031Y-110827D02*
Y-107972D01*
X169193Y-52264D02*
X172835Y-55905D01*
X151378Y-69095D02*
X167421D01*
X125689Y-43406D02*
X151378Y-69095D01*
X318898Y-137500D02*
X321850D01*
X316732Y-135335D02*
X318898Y-137500D01*
X321850D02*
X325000Y-134350D01*
X327461D01*
X237205Y-78839D02*
X240945Y-75098D01*
X268307Y-48228D02*
X281890D01*
X263091Y-43012D02*
X268307Y-48228D01*
X193898Y-43012D02*
X263091D01*
X187402Y-49508D02*
X193898Y-43012D01*
X291159Y-59663D02*
X305709Y-74213D01*
X234235Y-59663D02*
X291159D01*
X305709Y-74213D02*
X309842D01*
X233858Y-60039D02*
X234235Y-59663D01*
X309842Y-74213D02*
X312402Y-71653D01*
X173878Y-42050D02*
X187143Y-55315D01*
X173878Y-19055D02*
X176300Y-16634D01*
X173878Y-42050D02*
Y-19055D01*
X176300Y-16634D02*
X183878D01*
X188012Y-20768D01*
X229134Y-55315D02*
X233858Y-60039D01*
X187143Y-55315D02*
X229134D01*
X178012Y-43957D02*
Y-20768D01*
Y-43957D02*
X187213Y-53158D01*
X236803D01*
X234154Y-56693D02*
X272794D01*
X233858Y-56398D02*
X234154Y-56693D01*
X272794D02*
X273089Y-56988D01*
X273622D01*
X296379Y-37104D02*
X296583D01*
X288591Y-53158D02*
X307087Y-71653D01*
X236803Y-53158D02*
X288591D01*
X289862Y-50787D02*
X293209Y-54134D01*
X248721Y-50787D02*
X289862D01*
X247342Y-49409D02*
X248721Y-50787D01*
X197902Y-49409D02*
X247342D01*
X229252Y-20768D02*
X233780Y-25295D01*
X288189D01*
X296457Y-33563D01*
X293209Y-54134D02*
X315846D01*
X136122Y-75098D02*
X167717D01*
D20*
X84446Y-182496D02*
X85906Y-183957D01*
X79937Y-182496D02*
X84446D01*
X56299Y-158858D02*
X79937Y-182496D01*
X85906Y-183957D02*
X85925D01*
X25984Y-158858D02*
X56299D01*
X83852Y-165644D02*
X84153Y-165945D01*
X81293Y-165644D02*
X83852D01*
X60332Y-144683D02*
X81293Y-165644D01*
X64173Y-131299D02*
X80413Y-147539D01*
X84055D02*
X84153Y-147441D01*
X80413Y-147539D02*
X84055D01*
X25588Y-144683D02*
X60332D01*
X25984Y-131299D02*
X64173D01*
X19685Y-138779D02*
X25588Y-144683D01*
X19685Y-152559D02*
X25984Y-158858D01*
X19685Y-125000D02*
X25984Y-131299D01*
D124*
X332972Y-24075D02*
D03*
X334744Y-21004D02*
D03*
X336516Y-24075D02*
D03*
X338287Y-21004D02*
D03*
X340059Y-24075D02*
D03*
X341831Y-21004D02*
D03*
X343602Y-24075D02*
D03*
X345374Y-21004D02*
D03*
X347146Y-24075D02*
D03*
X348917Y-21004D02*
D03*
X350689Y-24075D02*
D03*
X352461Y-21004D02*
D03*
X354232Y-24075D02*
D03*
X356004Y-21004D02*
D03*
D125*
X241535Y-145177D02*
G03*
X241535Y-146479I651J-651D01*
G01*
X242540Y-148786D02*
G03*
X242540Y-147484I-651J651D01*
G01*
X241238Y-148786D02*
G03*
X242540Y-148786I651J651D01*
G01*
X239436Y-146983D02*
G03*
X238134Y-146983I-651J-651D01*
G01*
X238134Y-146983D02*
G03*
X238134Y-148285I651J-651D01*
G01*
X239937Y-151389D02*
G03*
X239937Y-150087I-651J651D01*
G01*
X238635Y-151389D02*
G03*
X239937Y-151389I651J651D01*
G01*
X237630Y-150384D02*
G03*
X236328Y-150384I-651J-651D01*
G01*
X229788Y-157031D02*
G03*
X230709Y-156111I0J920D01*
G01*
X229378Y-157031D02*
G03*
X228458Y-157952I0J-920D01*
G01*
Y-157952D02*
G03*
X229378Y-158872I920J0D01*
G01*
X231230Y-159793D02*
G03*
X230310Y-158872I-920J0D01*
G01*
Y-160713D02*
G03*
X231230Y-159793I0J920D01*
G01*
X229378Y-160713D02*
G03*
X228458Y-161634I0J-920D01*
G01*
Y-161634D02*
G03*
X229378Y-162554I920J0D01*
G01*
X231230Y-163475D02*
G03*
X230310Y-162554I-920J0D01*
G01*
Y-164395D02*
G03*
X231230Y-163475I0J920D01*
G01*
X229378Y-164395D02*
G03*
X228458Y-165315I0J-920D01*
G01*
Y-165315D02*
G03*
X229378Y-166236I920J0D01*
G01*
X231230Y-167156D02*
G03*
X230310Y-166236I-920J0D01*
G01*
Y-168077D02*
G03*
X231230Y-167156I0J920D01*
G01*
X229378Y-168077D02*
G03*
X228458Y-168997I0J-920D01*
G01*
Y-168997D02*
G03*
X229378Y-169918I920J0D01*
G01*
X230709Y-170838D02*
G03*
X229788Y-169918I-920J0D01*
G01*
X224080Y-158384D02*
G03*
X225000Y-157464I0J920D01*
G01*
X220432Y-158384D02*
G03*
X219511Y-159305I0J-920D01*
G01*
Y-159305D02*
G03*
X220432Y-160225I920J0D01*
G01*
X226372Y-161146D02*
G03*
X225452Y-160225I-920J0D01*
G01*
Y-162066D02*
G03*
X226372Y-161146I0J920D01*
G01*
X220432Y-162066D02*
G03*
X219511Y-162987I0J-920D01*
G01*
Y-162987D02*
G03*
X220432Y-163907I920J0D01*
G01*
X225000Y-164828D02*
G03*
X224080Y-163907I-920J0D01*
G01*
X168885Y-138399D02*
X168890Y-138393D01*
X166381Y-143265D02*
X168885Y-140761D01*
Y-138399D01*
X241535Y-145177D02*
X242471Y-144242D01*
X241535Y-146479D02*
X242540Y-147484D01*
X239436Y-146983D02*
X241238Y-148786D01*
X238134Y-146983D02*
X238134Y-146983D01*
X238134Y-148285D02*
X239937Y-150088D01*
X237630Y-150384D02*
X238635Y-151389D01*
X237630Y-150384D02*
X237630Y-150384D01*
X234793Y-151919D02*
X236328Y-150384D01*
X242471Y-144242D02*
X253051Y-133661D01*
X232677Y-154035D02*
X234793Y-151919D01*
X230709Y-156111D02*
Y-154187D01*
X229378Y-157031D02*
X229788D01*
X228458Y-157952D02*
Y-157952D01*
X229378Y-158872D02*
X230310D01*
X231230Y-159793D02*
Y-159793D01*
X229378Y-160713D02*
X230310D01*
X228458Y-161634D02*
Y-161634D01*
X229378Y-162554D02*
X230310D01*
X231230Y-163475D02*
Y-163475D01*
X229378Y-164395D02*
X230310D01*
X228458Y-165315D02*
Y-165315D01*
X229378Y-166236D02*
X230310D01*
X231230Y-167156D02*
Y-167156D01*
X229378Y-168077D02*
X230310D01*
X228458Y-168997D02*
Y-168997D01*
X229378Y-169918D02*
X229788D01*
X230709Y-171168D02*
Y-170838D01*
Y-172259D02*
Y-171168D01*
Y-154187D02*
Y-152362D01*
X249902Y-133169D01*
X225000Y-157464D02*
Y-156090D01*
X220432Y-158384D02*
X224080D01*
X219511Y-159305D02*
Y-159305D01*
X220432Y-160225D02*
X225452D01*
X226372Y-161146D02*
Y-161146D01*
X220432Y-162066D02*
X225452D01*
X219511Y-162987D02*
Y-162987D01*
X220432Y-163907D02*
X224080D01*
X225000Y-165157D02*
Y-164828D01*
Y-156090D02*
Y-151083D01*
Y-170079D02*
Y-165157D01*
X232760Y-143323D02*
Y-119110D01*
X225000Y-151083D02*
X232760Y-143323D01*
X230709Y-172259D02*
X232087Y-173636D01*
X232677Y-171260D02*
X234449Y-173031D01*
X232677Y-171260D02*
Y-154035D01*
X253051Y-133661D02*
Y-118701D01*
X225000Y-170079D02*
X228937Y-174016D01*
X249902Y-133169D02*
Y-120177D01*
X234449Y-177165D02*
Y-173031D01*
X230912Y-176958D02*
Y-176698D01*
X232087Y-175523D01*
Y-173636D01*
X250492Y-116142D02*
X253051Y-118701D01*
X250492Y-116142D02*
Y-116142D01*
D130*
X325975Y-18575D02*
Y-17038D01*
X321273Y-22366D02*
X322185D01*
X321457Y-15015D02*
Y-14567D01*
X342611Y-11913D02*
X348089Y-17391D01*
Y-19835D02*
Y-17391D01*
X318741Y-22503D02*
X320491Y-24253D01*
X318741Y-22503D02*
Y-20810D01*
X320491Y-24253D02*
X322966D01*
X348917Y-21004D02*
Y-20662D01*
X320629Y-21721D02*
Y-20810D01*
X322400Y-19038D02*
Y-15959D01*
X327862Y-19357D02*
Y-17819D01*
X321457Y-15015D02*
X322400Y-15959D01*
X331881Y-13800D02*
X341830D01*
X317913Y-15015D02*
Y-14567D01*
X346202Y-19835D02*
Y-18173D01*
X316970Y-19038D02*
X318741Y-20810D01*
X331100Y-11913D02*
X342611D01*
X327862Y-17819D02*
X331881Y-13800D01*
X322966Y-24253D02*
X327862Y-19357D01*
X345374Y-20662D02*
X346202Y-19835D01*
X325975Y-17038D02*
X331100Y-11913D01*
X316970Y-15959D02*
X317913Y-15015D01*
X348089Y-19835D02*
X348917Y-20662D01*
X316970Y-19038D02*
Y-15959D01*
X320629Y-21721D02*
X321273Y-22366D01*
X341830Y-13800D02*
X346202Y-18173D01*
X320629Y-20810D02*
X322400Y-19038D01*
X345374Y-21004D02*
Y-20662D01*
X322185Y-22366D02*
X325975Y-18575D01*
D132*
X29528Y-22638D02*
X47835D01*
X37421Y-32461D02*
X48228D01*
X40945Y-46063D02*
X46850D01*
X29528Y-56102D02*
X46850D01*
X29528Y-42323D02*
Y-40354D01*
X37421Y-32461D01*
X19685Y-42323D02*
Y-32480D01*
X29528Y-22638D01*
D133*
X47638Y-64567D02*
X47835D01*
X37008D02*
X47638D01*
X39764Y-72441D02*
X45177Y-77854D01*
D135*
X29331Y-71260D02*
X38583D01*
X46457Y-109646D02*
X46494Y-109835D01*
X46850Y-111663D01*
X46457Y-109646D02*
X46490Y-109837D01*
X46801Y-111614D01*
X47591Y-113474D02*
X48590Y-114000D01*
X46738Y-113025D02*
X47591Y-113474D01*
X46376Y-109800D02*
X46457Y-109646D01*
X46063Y-110394D02*
X46376Y-109800D01*
X39723Y-114976D02*
X46597Y-121850D01*
X46457Y-109646D02*
X46850Y-108268D01*
X37992Y-99410D02*
X46850Y-108268D01*
X38583Y-71260D02*
X39764Y-72441D01*
X29528Y-69882D02*
X30709Y-71063D01*
X29528Y-99803D02*
Y-97441D01*
X46801Y-111614D02*
X46850Y-111663D01*
X46063Y-110394D02*
X46063Y-110394D01*
Y-110849D02*
X46738Y-113025D01*
X29528Y-99803D02*
X39723Y-109999D01*
X46597Y-121850D02*
X46850D01*
X39723Y-114976D02*
Y-109999D01*
X46063Y-110849D02*
Y-110394D01*
Y-110849D02*
X46063Y-110849D01*
D136*
X44685Y-87795D02*
X49016D01*
X33661Y-76772D02*
X44685Y-87795D01*
X43701Y-94685D02*
X46654Y-97638D01*
X43701Y-94291D02*
X46949Y-97539D01*
X19685Y-95866D02*
X25000Y-90551D01*
X19685Y-97441D02*
Y-95866D01*
Y-83661D02*
Y-81496D01*
X24409Y-76772D01*
X33661D01*
X29528Y-83661D02*
X33071D01*
X43701Y-96260D02*
Y-94685D01*
Y-94291D01*
X25000Y-90551D02*
X32874D01*
X37992Y-95669D01*
Y-99410D02*
Y-95669D01*
X46949Y-98917D02*
Y-97539D01*
X33071Y-83661D02*
X43701Y-94291D01*
Y-96260D02*
X45079Y-97638D01*
X46654D01*
X46358Y-98917D02*
X46949D01*
X45079Y-97638D02*
X46358Y-98917D01*
D139*
X26378Y-63189D02*
X36417D01*
X37795Y-49213D02*
X40945Y-46063D01*
X26575Y-49213D02*
X37795D01*
X19685Y-69882D02*
X26378Y-63189D01*
X19685Y-56102D02*
X26575Y-49213D01*
D140*
X318642Y-205887D02*
D03*
X308642Y-200887D02*
D03*
X318642Y-195887D02*
D03*
X308642Y-190887D02*
D03*
X318642Y-185887D02*
D03*
X308642Y-180887D02*
D03*
X318642Y-175887D02*
D03*
X308642Y-170887D02*
D03*
D141*
X353642Y-161911D02*
D03*
X361634D02*
D03*
X353642Y-214863D02*
D03*
X361634D02*
D03*
D142*
X331634Y-157383D02*
D03*
Y-219391D02*
D03*
D143*
X209252Y-20768D02*
D03*
X219252D02*
D03*
X229252D02*
D03*
X239252D02*
D03*
X198012D02*
D03*
X188012D02*
D03*
X178012D02*
D03*
X168012D02*
D03*
D144*
X249252D02*
D03*
X158012D02*
D03*
D145*
X344980Y-106693D02*
D03*
X354823D02*
D03*
X344980Y-120472D02*
D03*
X354823D02*
D03*
X344980Y-134252D02*
D03*
X354823D02*
D03*
Y-92913D02*
D03*
X344980D02*
D03*
Y-79134D02*
D03*
Y-65354D02*
D03*
X354823Y-79134D02*
D03*
Y-65354D02*
D03*
X29528Y-42323D02*
D03*
X19685D02*
D03*
Y-111221D02*
D03*
X29528D02*
D03*
Y-97441D02*
D03*
X19685Y-97441D02*
D03*
Y-56102D02*
D03*
X29528D02*
D03*
X19685Y-69882D02*
D03*
X29528D02*
D03*
X19685Y-83661D02*
D03*
X29528D02*
D03*
Y-152559D02*
D03*
X19685D02*
D03*
X29528Y-138779D02*
D03*
X19685D02*
D03*
X29528Y-125000D02*
D03*
X19685D02*
D03*
Y-166339D02*
D03*
X29528D02*
D03*
Y-180118D02*
D03*
Y-193898D02*
D03*
X19685Y-180118D02*
D03*
Y-193898D02*
D03*
D146*
X354035Y-28169D02*
D03*
Y-16909D02*
D03*
X335138Y-28169D02*
D03*
Y-16909D02*
D03*
D147*
X233455Y-27834D02*
D03*
X246555Y-32972D02*
D03*
X235255Y-138287D02*
D03*
X244882Y-133858D02*
D03*
X85925Y-183957D02*
D03*
X81791Y-186516D02*
D03*
X84153Y-165945D02*
D03*
Y-147441D02*
D03*
X76279Y-202854D02*
D03*
X84055Y-205709D02*
D03*
X76279Y-137205D02*
D03*
X67716Y-210039D02*
D03*
Y-175689D02*
D03*
X354626Y-41043D02*
D03*
X335630D02*
D03*
X321457Y-14567D02*
D03*
X317913D02*
D03*
X115748Y-40551D02*
D03*
X269980Y-123819D02*
D03*
X168890Y-138393D02*
D03*
X166381Y-143265D02*
D03*
X142323Y-121653D02*
D03*
X150303Y-117329D02*
D03*
X143110Y-108071D02*
D03*
X153740Y-111614D02*
D03*
X176476Y-137205D02*
D03*
X208627Y-135647D02*
D03*
X191339Y-131883D02*
D03*
X315945Y-140256D02*
D03*
X333563Y-104724D02*
D03*
X315945Y-120374D02*
D03*
X215945Y-182874D02*
D03*
X319685Y-17913D02*
D03*
X341831Y-49114D02*
D03*
X160138Y-182874D02*
D03*
X237303Y-82677D02*
D03*
X299410Y-151575D02*
D03*
X207874Y-132185D02*
D03*
X228182Y-153216D02*
D03*
X243307Y-177165D02*
D03*
X251389Y-161232D02*
D03*
X265551Y-171752D02*
D03*
X267913Y-180118D02*
D03*
X273917Y-185925D02*
D03*
X248228Y-191831D02*
D03*
X269094Y-211221D02*
D03*
X264961Y-207087D02*
D03*
X259842Y-220374D02*
D03*
X255709Y-215945D02*
D03*
X260630Y-202756D02*
D03*
X251476Y-211811D02*
D03*
X187598Y-114961D02*
D03*
X193701D02*
D03*
X204823D02*
D03*
X184744Y-117224D02*
D03*
X190630Y-117205D02*
D03*
X196436Y-117245D02*
D03*
X199144Y-114961D02*
D03*
X201870Y-117224D02*
D03*
X188678Y-161222D02*
D03*
X131791Y-194685D02*
D03*
X130118Y-168110D02*
D03*
X150000Y-165748D02*
D03*
X127461Y-165157D02*
D03*
X131102Y-160630D02*
D03*
X266634Y-135138D02*
D03*
X264370Y-160433D02*
D03*
X212795Y-162106D02*
D03*
X214272Y-173622D02*
D03*
X224114Y-177657D02*
D03*
X293406Y-183071D02*
D03*
X253248Y-93012D02*
D03*
X193799Y-187205D02*
D03*
X225197Y-183957D02*
D03*
Y-189075D02*
D03*
X228937Y-174016D02*
D03*
X230912Y-176958D02*
D03*
X234449Y-177165D02*
D03*
X136024Y-165453D02*
D03*
X131496Y-108317D02*
D03*
X117717Y-104724D02*
D03*
X212205Y-151673D02*
D03*
X240256Y-132087D02*
D03*
X249902Y-120177D02*
D03*
X250492Y-116142D02*
D03*
X232760Y-119110D02*
D03*
X282185Y-90256D02*
D03*
X260630Y-77658D02*
D03*
X233661Y-69784D02*
D03*
X237205D02*
D03*
X292028Y-70866D02*
D03*
X296063Y-71063D02*
D03*
X257087Y-80610D02*
D03*
X188779Y-164764D02*
D03*
X178937Y-183465D02*
D03*
X172539Y-137205D02*
D03*
X181988Y-102067D02*
D03*
X173917Y-83169D02*
D03*
X146850Y-154134D02*
D03*
X173955Y-90688D02*
D03*
X173917Y-87106D02*
D03*
X173819Y-94390D02*
D03*
X183563Y-56988D02*
D03*
X175984Y-63189D02*
D03*
X145472Y-175787D02*
D03*
X120177Y-60335D02*
D03*
X167421Y-65551D02*
D03*
X125689Y-39862D02*
D03*
X167421Y-69095D02*
D03*
X125689Y-43406D02*
D03*
X293568Y-128972D02*
D03*
X298819Y-147736D02*
D03*
Y-133071D02*
D03*
X293701Y-147736D02*
D03*
X327461Y-134350D02*
D03*
X319980Y-134252D02*
D03*
X237205Y-78839D02*
D03*
X334842Y-134350D02*
D03*
X303346Y-92323D02*
D03*
Y-87205D02*
D03*
X337894Y-113976D02*
D03*
X336417Y-100689D02*
D03*
X336122Y-87106D02*
D03*
X258858Y-62598D02*
D03*
X257185Y-46161D02*
D03*
X252658Y-67520D02*
D03*
X279873Y-45315D02*
D03*
X277678Y-42170D02*
D03*
X233858Y-56398D02*
D03*
Y-60039D02*
D03*
X319193Y-36516D02*
D03*
X310138Y-34744D02*
D03*
X296583Y-37104D02*
D03*
X236803Y-53158D02*
D03*
X273622Y-56988D02*
D03*
X264764Y-62500D02*
D03*
X187402Y-49508D02*
D03*
X281890Y-48228D02*
D03*
X296457Y-33563D02*
D03*
X309842Y-14862D02*
D03*
X298524D02*
D03*
X282087D02*
D03*
X197835Y-49409D02*
D03*
X312402Y-71653D02*
D03*
X307087D02*
D03*
X264862Y-14764D02*
D03*
X258366Y-14469D02*
D03*
X293012Y-14862D02*
D03*
X272047Y-18406D02*
D03*
X339469Y-57776D02*
D03*
X164665Y-31890D02*
D03*
X127657Y-66535D02*
D03*
X134547Y-37008D02*
D03*
X167717Y-75098D02*
D03*
X128051Y-72736D02*
D03*
X332664Y-5709D02*
D03*
X344348D02*
D03*
X214469Y-32776D02*
D03*
X210138Y-29724D02*
D03*
X192520D02*
D03*
X198130Y-29823D02*
D03*
X204232Y-29626D02*
D03*
X185236Y-35236D02*
D03*
X164272Y-38287D02*
D03*
X259547Y-86910D02*
D03*
X311024Y-103839D02*
D03*
X295197Y-103031D02*
D03*
X242421Y-196063D02*
D03*
X315846Y-54134D02*
D03*
X178839Y-174016D02*
D03*
Y-177559D02*
D03*
X188878Y-168307D02*
D03*
X133760Y-127362D02*
D03*
X153740Y-104134D02*
D03*
Y-107874D02*
D03*
X141634Y-131595D02*
D03*
X136811Y-154134D02*
D03*
X146653Y-131595D02*
D03*
X141634Y-154134D02*
D03*
X225295Y-134055D02*
D03*
X221555D02*
D03*
X169193Y-52264D02*
D03*
X123031Y-110827D02*
D03*
X138878Y-80905D02*
D03*
X204921Y-199213D02*
D03*
X170669Y-187992D02*
D03*
X165945D02*
D03*
X318307Y-102559D02*
D03*
X127362Y-131299D02*
D03*
X154134Y-77756D02*
D03*
X149409Y-42618D02*
D03*
X150591Y-38287D02*
D03*
X127362Y-207087D02*
D03*
Y-182874D02*
D03*
Y-151132D02*
D03*
Y-145276D02*
D03*
X5512Y-5709D02*
D03*
X118898Y-88585D02*
D03*
Y-110780D02*
D03*
X112795Y-216779D02*
D03*
X118551Y-201181D02*
D03*
Y-182165D02*
D03*
Y-162992D02*
D03*
Y-144095D02*
D03*
X102756Y-144095D02*
D03*
X99410Y-141142D02*
D03*
X102756Y-125197D02*
D03*
X67716Y-192864D02*
D03*
Y-158514D02*
D03*
Y-141339D02*
D03*
X154134Y-82087D02*
D03*
X138544Y-207660D02*
D03*
X143544D02*
D03*
X148544D02*
D03*
X153544D02*
D03*
X191732Y-195965D02*
D03*
X5512Y-230512D02*
D03*
X17196D02*
D03*
X28880D02*
D03*
X40564D02*
D03*
X52248D02*
D03*
X63932D02*
D03*
X75616D02*
D03*
X87300D02*
D03*
X98984D02*
D03*
X110668D02*
D03*
X122352D02*
D03*
X134036D02*
D03*
X145720D02*
D03*
X157404D02*
D03*
X169088D02*
D03*
X180772D02*
D03*
X192456D02*
D03*
X204140D02*
D03*
X215824D02*
D03*
X227508D02*
D03*
X239192D02*
D03*
X250876D02*
D03*
X262560D02*
D03*
X274244D02*
D03*
X285928D02*
D03*
X297612D02*
D03*
X309296D02*
D03*
X320980D02*
D03*
X332664D02*
D03*
X344348D02*
D03*
X356032D02*
D03*
X367716D02*
D03*
Y-5709D02*
D03*
X356032D02*
D03*
X320980D02*
D03*
X309296D02*
D03*
X297612D02*
D03*
X285928D02*
D03*
X274244D02*
D03*
X262560D02*
D03*
X250876D02*
D03*
X239192D02*
D03*
X227508D02*
D03*
X215824D02*
D03*
X204140D02*
D03*
X192456D02*
D03*
X180772D02*
D03*
X169088D02*
D03*
X157404D02*
D03*
X145720D02*
D03*
X134036D02*
D03*
X122352D02*
D03*
X110668D02*
D03*
X98984D02*
D03*
X87300D02*
D03*
X75616D02*
D03*
X63932D02*
D03*
X52248D02*
D03*
X40564D02*
D03*
X28880D02*
D03*
X17196D02*
D03*
X143110Y-92913D02*
D03*
X100787Y-211417D02*
D03*
X76181Y-189075D02*
D03*
Y-171850D02*
D03*
Y-154626D02*
D03*
X99410Y-160039D02*
D03*
X102756Y-163976D02*
D03*
X99410Y-179134D02*
D03*
X102362Y-182480D02*
D03*
X99606Y-198228D02*
D03*
X102559Y-201181D02*
D03*
X118898Y-22000D02*
D03*
Y-66390D02*
D03*
D148*
X238976Y-168504D02*
D03*
Y-160630D02*
D03*
X243012Y-164665D02*
D03*
X234941Y-164567D02*
D03*
X238976D02*
D03*
X146260Y-146752D02*
D03*
Y-142815D02*
D03*
Y-138878D02*
D03*
X150197Y-146752D02*
D03*
Y-138878D02*
D03*
Y-142815D02*
D03*
X142323Y-138878D02*
D03*
Y-142815D02*
D03*
Y-146752D02*
D03*
X138386Y-138878D02*
D03*
Y-142815D02*
D03*
Y-146752D02*
D03*
D149*
X43898Y-20669D02*
D03*
X47835D02*
D03*
Y-30512D02*
D03*
X43898D02*
D03*
X47441Y-44094D02*
D03*
X43504D02*
D03*
X46850Y-54134D02*
D03*
X42913D02*
D03*
X47638Y-63779D02*
D03*
X43701D02*
D03*
X45276Y-76575D02*
D03*
X42323Y-73819D02*
D03*
X48819Y-87303D02*
D03*
X44882D02*
D03*
X46949Y-98917D02*
D03*
X43701Y-96260D02*
D03*
X46457Y-109843D02*
D03*
X47638Y-113386D02*
D03*
X43701Y-119095D02*
D03*
X46850Y-121850D02*
D03*
D150*
X76398Y-40728D02*
X77298D01*
X75898Y-40628D02*
X77698D01*
X75698Y-40528D02*
X77998D01*
X75498Y-40428D02*
X78098D01*
X75398Y-40328D02*
X78298D01*
X75298Y-40228D02*
X78398D01*
X75198Y-40128D02*
X76398D01*
X77298D02*
X78498D01*
X75098Y-40028D02*
X76098D01*
X74998Y-39928D02*
X75898D01*
X74998Y-39828D02*
X75798D01*
X74998Y-39728D02*
X75698D01*
X74898Y-39628D02*
X75598D01*
X74898Y-39528D02*
X75598D01*
X74898Y-39428D02*
X75598D01*
X74898Y-39328D02*
X75598D01*
X79898Y-40628D02*
X80598D01*
X83198D02*
X83798D01*
X79898Y-40528D02*
X80598D01*
X83198D02*
X83798D01*
X79898Y-40428D02*
X80598D01*
X79898Y-40328D02*
X80598D01*
X83198D02*
X83798D01*
X79898Y-40228D02*
X80598D01*
X83198D02*
X83798D01*
X79898Y-40128D02*
X80598D01*
X83198D02*
X83798D01*
X77598Y-40028D02*
X78598D01*
X79898D02*
X80598D01*
X77698Y-39928D02*
X78598D01*
X79898D02*
X80598D01*
X83198D02*
X83798D01*
X77898Y-39828D02*
X78698D01*
X79898D02*
X80598D01*
X77998Y-39728D02*
X78698D01*
X79898D02*
X80598D01*
X77998Y-39628D02*
X78798D01*
X79898D02*
X80598D01*
X78098Y-39528D02*
X78798D01*
X79898D02*
X80598D01*
X83198D02*
X83798D01*
X78098Y-39428D02*
X78798D01*
X79898D02*
X80598D01*
X83198D02*
X83798D01*
X78098Y-39328D02*
X78798D01*
X78198Y-39228D02*
X78798D01*
X74898D02*
X75598D01*
X74898Y-39128D02*
X75598D01*
X74898Y-39028D02*
X75598D01*
X74898Y-38928D02*
X75698D01*
X74998Y-38828D02*
X75798D01*
X79898D02*
X80598D01*
X74998Y-38728D02*
X75898D01*
X75098Y-38628D02*
X75998D01*
X79898D02*
X80598D01*
X75098Y-38528D02*
X76198D01*
X75198Y-38428D02*
X76498D01*
X75298Y-38328D02*
X76898D01*
X79898D02*
X80598D01*
X75398Y-38228D02*
X77298D01*
X79898D02*
X80598D01*
X75598Y-38128D02*
X77598D01*
X79898D02*
X80598D01*
X75798Y-38028D02*
X77898D01*
X79898D02*
X80598D01*
X76098Y-37928D02*
X78098D01*
X76398Y-37828D02*
X78198D01*
X76798Y-37728D02*
X78298D01*
X77198Y-37628D02*
X78398D01*
X77398Y-37528D02*
X78498D01*
X77598Y-37428D02*
X78598D01*
X77798Y-37328D02*
X78598D01*
X77898Y-37228D02*
X78598D01*
X77898Y-37128D02*
X78598D01*
X77998Y-37028D02*
X78698D01*
X74898D02*
X75598D01*
X77998Y-36928D02*
X78698D01*
X79898Y-39328D02*
X80598D01*
X79898Y-39228D02*
X80598D01*
X79898Y-39128D02*
X80598D01*
X79898Y-39028D02*
X80598D01*
X83198D02*
X83798D01*
X79898Y-38928D02*
X80598D01*
X83198D02*
X83798D01*
X83198Y-38828D02*
X83798D01*
X79898Y-38728D02*
X80598D01*
X83198D02*
X83798D01*
X83198Y-38628D02*
X83798D01*
X79898Y-38528D02*
X80598D01*
X83198D02*
X83798D01*
X79898Y-38428D02*
X80598D01*
X83198D02*
X83798D01*
X83198Y-38328D02*
X83798D01*
X83198Y-38128D02*
X83798D01*
X79898Y-37928D02*
X80598D01*
X79898Y-37828D02*
X80598D01*
X83198D02*
X83798D01*
X79898Y-37728D02*
X80598D01*
X83198D02*
X83798D01*
X79898Y-37628D02*
X80598D01*
X79898Y-37528D02*
X80598D01*
X79898Y-37428D02*
X80598D01*
X79898Y-37328D02*
X80598D01*
X79898Y-37228D02*
X80598D01*
X79898Y-37128D02*
X80598D01*
X83098D02*
X83798D01*
X79898Y-37028D02*
X80598D01*
X83098D02*
X83798D01*
X79898Y-36928D02*
X80598D01*
X86798Y-40728D02*
X87598D01*
X86298Y-40628D02*
X87998D01*
X86098Y-40528D02*
X88198D01*
X83198Y-40428D02*
X83798D01*
X85898D02*
X88398D01*
X85798Y-40328D02*
X88498D01*
X85698Y-40228D02*
X88598D01*
X85598Y-40128D02*
X86798D01*
X87498D02*
X88798D01*
X83198Y-40028D02*
X83798D01*
X85498D02*
X86498D01*
X87798D02*
X88798D01*
X85398Y-39928D02*
X86298D01*
X83198Y-39828D02*
X83798D01*
X85298D02*
X86198D01*
X83198Y-39728D02*
X83798D01*
X85198D02*
X86098D01*
X83198Y-39628D02*
X83798D01*
X85198D02*
X85998D01*
X85098Y-39528D02*
X85898D01*
X85098Y-39428D02*
X85898D01*
X83198Y-39328D02*
X83798D01*
X85098D02*
X85798D01*
X83198Y-39228D02*
X83798D01*
X84998D02*
X85698D01*
X83198Y-39128D02*
X83798D01*
X84998D02*
X85698D01*
X84998Y-39028D02*
X85698D01*
X84898Y-38928D02*
X85598D01*
X84898Y-38828D02*
X85598D01*
X90598Y-40628D02*
X91198D01*
X90598Y-40528D02*
X91198D01*
X90598Y-40428D02*
X91198D01*
X90598Y-40328D02*
X91198D01*
X90598Y-40228D02*
X91198D01*
X90598Y-40128D02*
X91198D01*
X90598Y-40028D02*
X91198D01*
X87998Y-39928D02*
X88898D01*
X90598D02*
X91198D01*
X88098Y-39828D02*
X88998D01*
X90598D02*
X91198D01*
X88198Y-39728D02*
X89098D01*
X90598D02*
X91198D01*
X88298Y-39628D02*
X89098D01*
X90598D02*
X91198D01*
X88398Y-39528D02*
X89198D01*
X90598D02*
X91198D01*
X88498Y-39428D02*
X89198D01*
X90598D02*
X91198D01*
X88498Y-39328D02*
X89298D01*
X90598D02*
X91198D01*
X88598Y-39228D02*
X89298D01*
X90598D02*
X91198D01*
X88598Y-39128D02*
X89298D01*
X90598D02*
X91198D01*
X90598Y-39028D02*
X91198D01*
X88598D02*
X89398D01*
X88698Y-38928D02*
X89398D01*
X90598D02*
X91198D01*
X88698Y-38828D02*
X89398D01*
X84898Y-38728D02*
X85598D01*
X88698D02*
X89398D01*
X84898Y-38628D02*
X85598D01*
X84898Y-38528D02*
X85498D01*
X84898Y-38428D02*
X85498D01*
X84898Y-38328D02*
X85498D01*
X83198Y-38228D02*
X83798D01*
X84898D02*
X85498D01*
X84898Y-38128D02*
X85498D01*
X83198Y-38028D02*
X83798D01*
X84898D02*
X85498D01*
X83198Y-37928D02*
X83798D01*
X84898D02*
X85498D01*
X84898Y-37828D02*
X85498D01*
X84898Y-37728D02*
X85498D01*
X83198Y-37628D02*
X83798D01*
X84898D02*
X85498D01*
X83198Y-37528D02*
X83798D01*
X84898D02*
X85598D01*
X83198Y-37428D02*
X83798D01*
X84898D02*
X85598D01*
X88698D02*
X89398D01*
X83198Y-37328D02*
X83798D01*
X84898D02*
X85598D01*
X88698D02*
X89398D01*
X83198Y-37228D02*
X83798D01*
X84898D02*
X85598D01*
X84998Y-37128D02*
X85698D01*
X88598D02*
X89298D01*
X84998Y-37028D02*
X85698D01*
X88598D02*
X89298D01*
X88498Y-36928D02*
X89298D01*
X90598Y-38828D02*
X91198D01*
X90598Y-38728D02*
X91198D01*
X88798Y-38628D02*
X89398D01*
X90598D02*
X91198D01*
X88798Y-38528D02*
X89398D01*
X90598D02*
X91198D01*
X88798Y-38428D02*
X89398D01*
X90598D02*
X91198D01*
X88798Y-38328D02*
X89498D01*
X90598D02*
X91198D01*
X88798Y-38228D02*
X89498D01*
X90598D02*
X91198D01*
X88798Y-38128D02*
X89498D01*
X90598D02*
X91198D01*
X88798Y-38028D02*
X89498D01*
X90598D02*
X91198D01*
X88798Y-37928D02*
X89498D01*
X90598D02*
X91198D01*
X88798Y-37828D02*
X89498D01*
X90598D02*
X91198D01*
X88798Y-37728D02*
X89398D01*
X90598D02*
X91198D01*
X88798Y-37628D02*
X89398D01*
X90598D02*
X91198D01*
X88698Y-37528D02*
X89398D01*
X90598D02*
X91198D01*
X90598Y-37428D02*
X91198D01*
X90598Y-37328D02*
X91198D01*
X88698Y-37228D02*
X89398D01*
X90598D02*
X91198D01*
X90598Y-37128D02*
X91198D01*
X90598Y-37028D02*
X91198D01*
X74998Y-36428D02*
X75798D01*
X73998Y-31928D02*
X74898D01*
X74098Y-32028D02*
X75098D01*
X74198Y-32128D02*
X75598D01*
X74898Y-36928D02*
X75598D01*
X74898Y-36728D02*
X75598D01*
X74898Y-36828D02*
X75598D01*
X74998Y-36628D02*
X75698D01*
X74998Y-36528D02*
X75698D01*
X75098Y-36328D02*
X75898D01*
X75098Y-36228D02*
X76098D01*
X75198Y-36128D02*
X76198D01*
X74998Y-32628D02*
X76398D01*
X74698Y-32528D02*
X76698D01*
X74498Y-32428D02*
X76898D01*
X74398Y-32328D02*
X76998D01*
X74298Y-32228D02*
X77198D01*
X75298Y-36028D02*
X76598D01*
X75798Y-32128D02*
X77298D01*
X75298Y-35928D02*
X78298D01*
X75598Y-35728D02*
X77998D01*
X75498Y-35828D02*
X78198D01*
X75798Y-35628D02*
X77898D01*
X76098Y-35528D02*
X77598D01*
X76298Y-32028D02*
X77398D01*
X73798Y-29528D02*
X74398D01*
X73798Y-29328D02*
X74498D01*
X73798Y-29428D02*
X74498D01*
X73798Y-29228D02*
X74498D01*
X73798Y-29128D02*
X74498D01*
X73898Y-29028D02*
X74498D01*
X74098Y-31528D02*
X74398D01*
X73898Y-31728D02*
X74598D01*
X73998Y-31628D02*
X74498D01*
X73898Y-31828D02*
X74698D01*
X73798Y-29628D02*
X77998D01*
X73798Y-30028D02*
X77998D01*
X73798Y-29828D02*
X77998D01*
X73798Y-29728D02*
X77998D01*
X73798Y-30128D02*
X77998D01*
X73798Y-29928D02*
X77998D01*
X76498Y-31928D02*
X77498D01*
X76598Y-31828D02*
X77498D01*
X76698Y-31728D02*
X77598D01*
X76798Y-31628D02*
X77698D01*
X76898Y-31528D02*
X77698D01*
X76998Y-31428D02*
X77798D01*
X77098Y-31328D02*
X77798D01*
X77098Y-31228D02*
X77898D01*
X77198Y-31028D02*
X77898D01*
X77198Y-31128D02*
X77898D01*
X77198Y-29028D02*
X77898D01*
X77198Y-29128D02*
X77898D01*
X77298Y-30628D02*
X77998D01*
X77298Y-30928D02*
X77998D01*
X77098Y-36028D02*
X78398D01*
X77498Y-36128D02*
X78498D01*
X77598Y-36228D02*
X78498D01*
X77798Y-36328D02*
X78598D01*
X77898Y-36428D02*
X78598D01*
X77898Y-36528D02*
X78598D01*
X77998Y-36628D02*
X78698D01*
X77998Y-36728D02*
X78698D01*
X77998Y-36828D02*
X78698D01*
X79898D02*
X80598D01*
X79998Y-36628D02*
X80698D01*
X79998Y-36728D02*
X80698D01*
X79998Y-36528D02*
X80698D01*
X79998Y-36428D02*
X80798D01*
X80098Y-36328D02*
X80898D01*
X80198Y-32528D02*
X80798D01*
X80198Y-32428D02*
X80798D01*
X80198Y-32328D02*
X80798D01*
X80198Y-32228D02*
X80798D01*
X80198Y-32128D02*
X80798D01*
X80198Y-32028D02*
X80798D01*
X80198Y-31928D02*
X80798D01*
X80198Y-31828D02*
X80798D01*
X80198Y-31728D02*
X80798D01*
X80198Y-31628D02*
X80798D01*
X80198Y-31528D02*
X80798D01*
X80198Y-31428D02*
X80798D01*
X80198Y-31328D02*
X80798D01*
X80198Y-31228D02*
X80798D01*
X80098Y-36228D02*
X80998D01*
X80098Y-36128D02*
X81098D01*
X80198Y-36028D02*
X81498D01*
X77298Y-30828D02*
X77998D01*
X77298Y-30728D02*
X77998D01*
X77298Y-29428D02*
X77998D01*
X77298Y-29528D02*
X77998D01*
X77298Y-29328D02*
X77998D01*
X77298Y-29228D02*
X77998D01*
X77398Y-30328D02*
X77998D01*
X77398Y-30428D02*
X77998D01*
X77398Y-30228D02*
X77998D01*
X77398Y-30528D02*
X77998D01*
X80098Y-29028D02*
X80798D01*
X80198Y-31128D02*
X80798D01*
X80198Y-31028D02*
X80798D01*
X80198Y-30928D02*
X80798D01*
X80198Y-30828D02*
X80798D01*
X80198Y-29728D02*
X80798D01*
X80198Y-30328D02*
X80798D01*
X80198Y-29828D02*
X80798D01*
X80198Y-30128D02*
X80798D01*
X80198Y-30628D02*
X80798D01*
X80198Y-30528D02*
X80798D01*
X80198Y-30428D02*
X80798D01*
X80198Y-30228D02*
X80798D01*
X80198Y-29528D02*
X80798D01*
X80198Y-29328D02*
X80798D01*
X80198Y-29428D02*
X80798D01*
X80198Y-29928D02*
X80798D01*
X80198Y-29628D02*
X80798D01*
X80198Y-29128D02*
X80798D01*
X80198Y-30028D02*
X80798D01*
X80198Y-30728D02*
X80798D01*
X80198Y-29228D02*
X80798D01*
X73898Y-28928D02*
X74598D01*
X73898Y-28828D02*
X74598D01*
X73898Y-28728D02*
X74598D01*
X73998Y-28628D02*
X74698D01*
X73998Y-28428D02*
X74798D01*
X73998Y-28528D02*
X74798D01*
X74098Y-28328D02*
X74898D01*
X74198Y-28228D02*
X74998D01*
X74198Y-28128D02*
X75198D01*
X74298Y-28028D02*
X75398D01*
X74598Y-27728D02*
X76998D01*
X74798Y-27628D02*
X76798D01*
X74398Y-27928D02*
X77198D01*
X74498Y-27828D02*
X77098D01*
X74998Y-27528D02*
X76598D01*
X75298Y-27428D02*
X76298D01*
X76198Y-28028D02*
X77298D01*
X76498Y-28128D02*
X77398D01*
X76598Y-28228D02*
X77498D01*
X76698Y-28328D02*
X77598D01*
X76798Y-28428D02*
X77598D01*
X76898Y-28528D02*
X77698D01*
X76998Y-28628D02*
X77698D01*
X77098Y-28828D02*
X77798D01*
X77098Y-28728D02*
X77798D01*
X77198Y-28928D02*
X77898D01*
X78398Y-28028D02*
X78698D01*
X78398Y-27428D02*
X79298D01*
X78398Y-27528D02*
X79598D01*
X78398Y-27628D02*
X79698D01*
X78398Y-27728D02*
X79898D01*
X78398Y-27828D02*
X79998D01*
X78398Y-27928D02*
X80098D01*
X79098Y-22728D02*
X79798D01*
X79098Y-22828D02*
X79798D01*
X79098Y-22928D02*
X79898D01*
X78998Y-28028D02*
X80098D01*
X79198Y-23028D02*
X80098D01*
X79198Y-23128D02*
X80198D01*
X79298Y-23228D02*
X80498D01*
X79398Y-28128D02*
X80798D01*
X79598Y-28228D02*
X80798D01*
X79698Y-28328D02*
X80798D01*
X79798Y-28428D02*
X80798D01*
X79898Y-28528D02*
X80798D01*
X79998Y-28728D02*
X80798D01*
X79998Y-28628D02*
X80798D01*
X80098Y-28828D02*
X80798D01*
X80098Y-28928D02*
X80798D01*
X80198Y-27628D02*
X80798D01*
X80198Y-27728D02*
X80798D01*
X80198Y-28028D02*
X80798D01*
X80198Y-27928D02*
X80798D01*
X80198Y-27528D02*
X80798D01*
X80198Y-27828D02*
X80798D01*
X80598Y-23828D02*
X81298D01*
X79498Y-23428D02*
X82398D01*
X79598Y-23528D02*
X82298D01*
X79398Y-23328D02*
X82498D01*
X79798Y-23628D02*
X82098D01*
X80098Y-23728D02*
X81798D01*
X78998Y-22628D02*
X79698D01*
X78998Y-22228D02*
X79698D01*
X78998Y-22328D02*
X79698D01*
X78998Y-22528D02*
X79698D01*
X78998Y-22428D02*
X79698D01*
X79098Y-19928D02*
X79698D01*
X78998Y-22128D02*
X79798D01*
X79098Y-20028D02*
X79698D01*
X79098Y-19728D02*
X79798D01*
X79098Y-19828D02*
X79798D01*
X79098Y-22028D02*
X79798D01*
X79098Y-19528D02*
X79898D01*
X79098Y-21928D02*
X79898D01*
X79098Y-19628D02*
X79898D01*
X79098Y-21828D02*
X79998D01*
X79198Y-19428D02*
X79998D01*
X79198Y-21728D02*
X80098D01*
X79198Y-19328D02*
X80198D01*
X79198Y-21628D02*
X80298D01*
X79298Y-19228D02*
X80398D01*
X79298Y-21528D02*
X80598D01*
X79398Y-19128D02*
X80698D01*
X79398Y-21428D02*
X80898D01*
X79598Y-21328D02*
X81398D01*
X79698Y-21228D02*
X81698D01*
X79898Y-21128D02*
X81998D01*
X79898Y-18728D02*
X81998D01*
X79698Y-18828D02*
X82198D01*
X79598Y-18928D02*
X82298D01*
X80698Y-18528D02*
X81198D01*
X79498Y-19028D02*
X82398D01*
X82998Y-36928D02*
X83798D01*
X82998Y-36828D02*
X83798D01*
X82898Y-36728D02*
X83798D01*
X82798Y-36628D02*
X83798D01*
X82798Y-36528D02*
X83798D01*
X82698Y-36428D02*
X83798D01*
X82598Y-36328D02*
X83798D01*
X82398Y-36228D02*
X83798D01*
X82198Y-36128D02*
X83098D01*
X83198D02*
X83798D01*
X81898Y-36028D02*
X82998D01*
X80298Y-35928D02*
X82898D01*
X80398Y-35828D02*
X82798D01*
X83198D02*
X83798D01*
X80498Y-35728D02*
X82598D01*
X80598Y-35628D02*
X82498D01*
X83198D02*
X83798D01*
X80898Y-35528D02*
X82198D01*
X83198D02*
X83798D01*
X82098Y-32528D02*
X82798D01*
X82098Y-32428D02*
X82798D01*
X82098Y-32328D02*
X82798D01*
X82098Y-32228D02*
X82798D01*
X82198Y-32128D02*
X82898D01*
X82198Y-32028D02*
X83898D01*
X82198Y-31928D02*
X83698D01*
X82198Y-31828D02*
X83498D01*
X82198Y-31728D02*
X83398D01*
X82198Y-31628D02*
X83198D01*
X82198Y-31528D02*
X83098D01*
X82198Y-31428D02*
X83098D01*
X82198Y-31328D02*
X82998D01*
X84998Y-36928D02*
X85798D01*
X85098Y-36828D02*
X85798D01*
X85098Y-36728D02*
X85898D01*
X85198Y-36628D02*
X85998D01*
X85198Y-36528D02*
X85998D01*
X85298Y-36428D02*
X86098D01*
X85298Y-36328D02*
X86198D01*
X85398Y-36228D02*
X86398D01*
X85498Y-36128D02*
X86598D01*
X83198Y-36028D02*
X83798D01*
X85598D02*
X86898D01*
X83198Y-35928D02*
X83798D01*
X85698D02*
X88598D01*
X85798Y-35828D02*
X88498D01*
X83198Y-35728D02*
X83798D01*
X85998D02*
X88298D01*
X86198Y-35628D02*
X88098D01*
X86398Y-35528D02*
X87898D01*
X83898Y-32628D02*
X85198D01*
X83598Y-32528D02*
X85398D01*
X83398Y-32428D02*
X85598D01*
X83198Y-32328D02*
X85698D01*
X83098Y-32228D02*
X85798D01*
X82998Y-32128D02*
X85898D01*
X84898Y-32028D02*
X85998D01*
X85098Y-31928D02*
X86098D01*
X85198Y-31828D02*
X86098D01*
X85298Y-31728D02*
X86098D01*
X85398Y-31628D02*
X86198D01*
X85498Y-31528D02*
X86198D01*
X85498Y-31428D02*
X86198D01*
X85498Y-31328D02*
X86198D01*
X82198Y-31228D02*
X82898D01*
X82198Y-31128D02*
X82898D01*
X82198Y-31028D02*
X82898D01*
X82198Y-30928D02*
X82898D01*
X82198Y-30828D02*
X82898D01*
X82198Y-30728D02*
X82898D01*
X82198Y-30628D02*
X82898D01*
X82198Y-30528D02*
X82898D01*
X82198Y-30428D02*
X82898D01*
X85098D02*
X85998D01*
X82198Y-30328D02*
X82898D01*
X84898D02*
X85898D01*
X82198Y-30228D02*
X82898D01*
X84598D02*
X85798D01*
X82198Y-30128D02*
X82898D01*
X84098D02*
X85698D01*
X82198Y-30028D02*
X85598D01*
X82198Y-29928D02*
X85498D01*
X82198Y-29828D02*
X85298D01*
X82198Y-29728D02*
X84998D01*
X82198Y-29628D02*
X84498D01*
X82198Y-29528D02*
X82898D01*
X82198Y-29428D02*
X82898D01*
X82198Y-29328D02*
X82898D01*
X82198Y-29228D02*
X82898D01*
X82198Y-29128D02*
X82898D01*
X82198Y-29028D02*
X82898D01*
X82198Y-28928D02*
X82898D01*
X82198Y-28828D02*
X82898D01*
X82198Y-28728D02*
X82898D01*
X82298Y-28628D02*
X82998D01*
X82298Y-28528D02*
X82998D01*
X85498Y-31228D02*
X86198D01*
X85498Y-31128D02*
X86198D01*
X85498Y-31028D02*
X86198D01*
X85498Y-30928D02*
X86198D01*
X85498Y-30828D02*
X86198D01*
X85398Y-30728D02*
X86098D01*
X85298Y-30628D02*
X86098D01*
X85198Y-30528D02*
X86098D01*
X87698Y-30328D02*
X88298D01*
X87598Y-30128D02*
X88298D01*
X87598Y-30028D02*
X88298D01*
X87598Y-29928D02*
X88198D01*
X87598Y-29828D02*
X88198D01*
X87498Y-29728D02*
X88198D01*
X87498Y-29628D02*
X88198D01*
X87498Y-29528D02*
X88098D01*
X87398Y-29428D02*
X88098D01*
X87398Y-29328D02*
X88098D01*
X87398Y-29228D02*
X87998D01*
X87398Y-29128D02*
X87998D01*
X87298Y-29028D02*
X87998D01*
X85398Y-28928D02*
X86098D01*
X87298D02*
X87998D01*
X85398Y-28828D02*
X86098D01*
X87298D02*
X87898D01*
X85398Y-28728D02*
X86098D01*
X87198D02*
X87898D01*
X85398Y-28628D02*
X86098D01*
X87198D02*
X87898D01*
X85298Y-28528D02*
X85998D01*
X87198D02*
X87898D01*
X85198Y-28428D02*
X85998D01*
X90598Y-36928D02*
X91198D01*
X88498Y-36828D02*
X89198D01*
X88398Y-36728D02*
X89198D01*
X88398Y-36628D02*
X89198D01*
X88298Y-36528D02*
X89098D01*
X88198Y-36428D02*
X88998D01*
X88098Y-36328D02*
X88998D01*
X87898Y-36228D02*
X88898D01*
X87698Y-36128D02*
X88798D01*
X87398Y-36028D02*
X88698D01*
X90698Y-34528D02*
X90998D01*
X90498Y-34428D02*
X91198D01*
X90398Y-34128D02*
X91298D01*
X90398Y-34028D02*
X91298D01*
X90498Y-33828D02*
X91198D01*
X88298Y-32528D02*
X88998D01*
X88298Y-32428D02*
X88998D01*
X88298Y-32328D02*
X88998D01*
X88298Y-32228D02*
X89098D01*
X88198Y-32128D02*
X89098D01*
X88198Y-32028D02*
X89098D01*
X88198Y-31928D02*
X89198D01*
X88098Y-31828D02*
X89198D01*
X88098Y-31728D02*
X89198D01*
X88098Y-31628D02*
X89298D01*
X88098Y-31528D02*
X89298D01*
X88698Y-31428D02*
X89298D01*
X87998D02*
X88598D01*
X87998Y-31328D02*
X88598D01*
X88698D02*
X89398D01*
X87998Y-31228D02*
X88598D01*
X88798D02*
X89398D01*
X90598Y-36828D02*
X91198D01*
X90598Y-36728D02*
X91198D01*
X90598Y-36628D02*
X91198D01*
X90598Y-36528D02*
X91198D01*
X90598Y-36428D02*
X91198D01*
X90598Y-36328D02*
X91198D01*
X90598Y-36228D02*
X91198D01*
X90598Y-36128D02*
X91198D01*
X90598Y-36028D02*
X91198D01*
X90598Y-35928D02*
X91198D01*
X90598Y-35828D02*
X91198D01*
X90598Y-35728D02*
X91198D01*
X90598Y-35628D02*
X91198D01*
X90598Y-35528D02*
X91198D01*
X90498Y-34328D02*
X91298D01*
X90498Y-34228D02*
X91298D01*
X90498Y-33928D02*
X91298D01*
X90698Y-33728D02*
X91098D01*
X91498Y-32528D02*
X92098D01*
X91498Y-32428D02*
X92198D01*
X91398Y-32328D02*
X92198D01*
X91398Y-32228D02*
X92198D01*
X91398Y-32128D02*
X92198D01*
X91298Y-32028D02*
X92298D01*
X91298Y-31928D02*
X92298D01*
X91298Y-31828D02*
X92298D01*
X91198Y-31728D02*
X92398D01*
X91198Y-31628D02*
X92398D01*
X91198Y-31528D02*
X92398D01*
X91098Y-31428D02*
X92398D01*
X91098Y-31328D02*
X91698D01*
X91798D02*
X92498D01*
X87898Y-31128D02*
X88598D01*
X88798D02*
X89398D01*
X87898Y-31028D02*
X88498D01*
X88798D02*
X89498D01*
X87898Y-30928D02*
X88498D01*
X88898D02*
X89498D01*
X87798Y-30828D02*
X88498D01*
X88898D02*
X89498D01*
X87798Y-30728D02*
X88398D01*
X88898D02*
X89598D01*
X87798Y-30628D02*
X88398D01*
X88998D02*
X89598D01*
X87798Y-30528D02*
X88398D01*
X88998D02*
X89598D01*
X87698Y-30428D02*
X88398D01*
X88998D02*
X89698D01*
X89098Y-30328D02*
X89698D01*
X87698Y-30228D02*
X88298D01*
X89098D02*
X89698D01*
X89098Y-30128D02*
X89698D01*
X89098Y-30028D02*
X89798D01*
X89198Y-29928D02*
X89798D01*
X89198Y-29828D02*
X89798D01*
X89198Y-29728D02*
X89898D01*
X89298Y-29628D02*
X89898D01*
X89298Y-29528D02*
X89898D01*
X89298Y-29428D02*
X89998D01*
X89398Y-29328D02*
X89998D01*
X89398Y-29228D02*
X89998D01*
X89398Y-29128D02*
X90098D01*
X89498Y-29028D02*
X90098D01*
X89498Y-28928D02*
X90098D01*
X91098Y-31228D02*
X91698D01*
X91098Y-31128D02*
X91698D01*
X90998Y-31028D02*
X91598D01*
X90998Y-30928D02*
X91598D01*
X90998Y-30828D02*
X91598D01*
X90898Y-30728D02*
X91498D01*
X90898Y-30628D02*
X91498D01*
X90898Y-30528D02*
X91498D01*
X90798Y-30428D02*
X91398D01*
X90798Y-30328D02*
X91398D01*
X90798Y-30228D02*
X91398D01*
X90698Y-30128D02*
X91398D01*
X90698Y-30028D02*
X91298D01*
X90698Y-29928D02*
X91298D01*
X90598Y-29828D02*
X91298D01*
X90598Y-29728D02*
X91198D01*
X90598Y-29628D02*
X91198D01*
X90498Y-29528D02*
X91198D01*
X90498Y-29428D02*
X91098D01*
X90498Y-29328D02*
X91098D01*
X90398Y-29228D02*
X91098D01*
X90398Y-29128D02*
X90998D01*
X90398Y-29028D02*
X90998D01*
X90398Y-28928D02*
X90998D01*
X89498Y-28828D02*
X90198D01*
X90298D02*
X90898D01*
X89598Y-28728D02*
X90198D01*
X90298D02*
X90898D01*
X89598Y-28628D02*
X90198D01*
X90298D02*
X90898D01*
X89598Y-28528D02*
X90798D01*
X89598Y-28428D02*
X90798D01*
X82298D02*
X83098D01*
X82398Y-28328D02*
X83098D01*
X82398Y-28228D02*
X83298D01*
X82498Y-28128D02*
X83398D01*
X82498Y-28028D02*
X83598D01*
X82598Y-27928D02*
X85598D01*
X82698Y-27828D02*
X85498D01*
X82798Y-27728D02*
X85398D01*
X82998Y-27628D02*
X85198D01*
X83198Y-27528D02*
X84998D01*
X83598Y-27428D02*
X84598D01*
X81298Y-23228D02*
X82598D01*
X81698Y-23128D02*
X82698D01*
X84098D02*
X85098D01*
X81798Y-23028D02*
X82798D01*
X83998D02*
X84898D01*
X81998Y-22928D02*
X82798D01*
X83898D02*
X84798D01*
X82098Y-22828D02*
X82898D01*
X83898D02*
X84698D01*
X82098Y-22728D02*
X82898D01*
X83798D02*
X84598D01*
X82198Y-22628D02*
X82898D01*
X83798D02*
X84498D01*
X82198Y-22528D02*
X82898D01*
X83798D02*
X84498D01*
X82298Y-22428D02*
X82998D01*
X83698D02*
X84398D01*
X82298Y-22328D02*
X82998D01*
X83698D02*
X84398D01*
X83698Y-22228D02*
X84398D01*
X83698Y-22128D02*
X84398D01*
X87098Y-28428D02*
X87798D01*
X85098Y-28328D02*
X85998D01*
X87098D02*
X87798D01*
X84998Y-28228D02*
X85898D01*
X87098D02*
X87798D01*
X84898Y-28128D02*
X85798D01*
X87098D02*
X87798D01*
X84598Y-28028D02*
X85698D01*
X86998D02*
X87698D01*
X86998Y-27928D02*
X87698D01*
X86998Y-27828D02*
X87698D01*
X86898Y-27728D02*
X87598D01*
X86898Y-27628D02*
X87598D01*
X86898Y-27528D02*
X87598D01*
X85398Y-23828D02*
X85998D01*
X84998Y-23728D02*
X86498D01*
X84698Y-23628D02*
X86698D01*
X84498Y-23528D02*
X86898D01*
X84398Y-23428D02*
X86998D01*
X84298Y-23328D02*
X87198D01*
X84198Y-23228D02*
X85298D01*
X86098D02*
X87298D01*
X86298Y-23128D02*
X87298D01*
X86498Y-23028D02*
X87398D01*
X86598Y-22928D02*
X87498D01*
X86698Y-22828D02*
X87498D01*
X86798Y-22728D02*
X87598D01*
X86898Y-22628D02*
X87598D01*
X86998Y-22528D02*
X87698D01*
X86998Y-22428D02*
X87698D01*
X87098Y-22328D02*
X87798D01*
X87098Y-22228D02*
X87798D01*
X80198Y-21028D02*
X82198D01*
X80498Y-20928D02*
X82298D01*
X80898Y-20828D02*
X82398D01*
X81298Y-20728D02*
X82498D01*
X81498Y-20628D02*
X82598D01*
X81798Y-20528D02*
X82698D01*
X81898Y-20428D02*
X82698D01*
X83698Y-20328D02*
X84398D01*
X81998D02*
X82798D01*
X82098Y-20228D02*
X82798D01*
X83698D02*
X84398D01*
X82098Y-20128D02*
X82798D01*
X83698D02*
X84398D01*
X83698Y-20028D02*
X84398D01*
X82098D02*
X82798D01*
X83798Y-19928D02*
X84498D01*
X82098D02*
X82798D01*
X83798Y-19828D02*
X84498D01*
X82098D02*
X82798D01*
X82098Y-19728D02*
X82798D01*
X83798D02*
X84598D01*
X82098Y-19628D02*
X82798D01*
X83898D02*
X84598D01*
X81998Y-19528D02*
X82698D01*
X83898D02*
X84698D01*
X81898Y-19428D02*
X82698D01*
X83998D02*
X84798D01*
X81798Y-19328D02*
X82698D01*
X83998D02*
X84898D01*
X81598Y-19228D02*
X82598D01*
X81298Y-19128D02*
X82498D01*
X80198Y-18628D02*
X81798D01*
X87098Y-22128D02*
X87798D01*
X87198Y-22028D02*
X87798D01*
X87198Y-21928D02*
X87898D01*
X87198Y-21828D02*
X87898D01*
X87198Y-21728D02*
X87898D01*
X87198Y-21628D02*
X87898D01*
X87198Y-21528D02*
X87898D01*
X87198Y-21128D02*
X87898D01*
X87198Y-20628D02*
X87898D01*
X87198Y-20528D02*
X87898D01*
X87198Y-20428D02*
X87898D01*
X87098Y-20328D02*
X87798D01*
X87098Y-20228D02*
X87798D01*
X87098Y-20128D02*
X87798D01*
X86998Y-20028D02*
X87798D01*
X86998Y-19928D02*
X87698D01*
X86898Y-19828D02*
X87698D01*
X86898Y-19728D02*
X87598D01*
X86798Y-19628D02*
X87598D01*
X86698Y-19528D02*
X87498D01*
X86598Y-19428D02*
X87498D01*
X86498Y-19328D02*
X87398D01*
X84098Y-19228D02*
X85098D01*
X86298D02*
X87298D01*
X84198Y-19128D02*
X85398D01*
X85998D02*
X87198D01*
X84298Y-19028D02*
X87098D01*
X84398Y-18928D02*
X86998D01*
X84498Y-18828D02*
X86898D01*
X84698Y-18728D02*
X86698D01*
X84898Y-18628D02*
X86498D01*
X85498Y-18528D02*
X85898D01*
X88998Y-23728D02*
X89698D01*
X88998Y-23628D02*
X89698D01*
X88998Y-23528D02*
X89698D01*
X88998Y-23428D02*
X89698D01*
X88998Y-23328D02*
X89698D01*
X88998Y-23228D02*
X89698D01*
X88998Y-23128D02*
X89698D01*
X88998Y-23028D02*
X89698D01*
X88998Y-22928D02*
X89698D01*
X88998Y-22828D02*
X89698D01*
X88998Y-22728D02*
X89698D01*
X88998Y-22628D02*
X89698D01*
X88998Y-22528D02*
X89698D01*
X88998Y-22428D02*
X89698D01*
X88998Y-22228D02*
X89698D01*
X88998Y-22128D02*
X89698D01*
X88998Y-22028D02*
X89698D01*
X88998Y-21928D02*
X89698D01*
X88998Y-21828D02*
X89698D01*
X88998Y-21728D02*
X89698D01*
X88998Y-21628D02*
X89698D01*
X88998Y-21528D02*
X89698D01*
X87198Y-21428D02*
X87898D01*
X88998D02*
X89698D01*
X87198Y-21328D02*
X87898D01*
X88998D02*
X89698D01*
X87198Y-21228D02*
X87898D01*
X88998D02*
X89698D01*
X88998Y-21128D02*
X89698D01*
X87198Y-21028D02*
X87898D01*
X88998D02*
X89698D01*
X87198Y-20928D02*
X87898D01*
X89698Y-28328D02*
X90798D01*
X89698Y-28228D02*
X90798D01*
X89698Y-28128D02*
X90698D01*
X89798Y-28028D02*
X90698D01*
X89798Y-27928D02*
X90698D01*
X89798Y-27828D02*
X90598D01*
X89898Y-27728D02*
X90598D01*
X89898Y-27628D02*
X90598D01*
X89898Y-27528D02*
X90498D01*
X90998Y-23828D02*
X91598D01*
X90698Y-23728D02*
X91998D01*
X90698Y-23628D02*
X92098D01*
X90698Y-23528D02*
X92198D01*
X90698Y-23428D02*
X92298D01*
X90698Y-23328D02*
X92398D01*
X91398Y-23228D02*
X92398D01*
X90698D02*
X90998D01*
X91598Y-23128D02*
X92398D01*
X91698Y-23028D02*
X92498D01*
X91798Y-22628D02*
X92498D01*
X91798Y-22528D02*
X92498D01*
X91798Y-22428D02*
X92498D01*
X88998Y-22328D02*
X89698D01*
X91798D02*
X92498D01*
X91798Y-22128D02*
X92498D01*
X91798Y-21728D02*
X92498D01*
X91798Y-21428D02*
X92498D01*
X91798Y-21328D02*
X92498D01*
X91798Y-21228D02*
X92498D01*
X91798Y-21128D02*
X92498D01*
X91798Y-21028D02*
X92498D01*
X88998Y-20928D02*
X89698D01*
X87198Y-20828D02*
X87898D01*
X88998D02*
X89698D01*
X87198Y-20728D02*
X87898D01*
X88998D02*
X89698D01*
X88998Y-20628D02*
X89698D01*
X88998Y-20528D02*
X89698D01*
X88998Y-20428D02*
X89698D01*
X88998Y-20328D02*
X89698D01*
X88998Y-20228D02*
X89698D01*
X88998Y-20128D02*
X89698D01*
X88998Y-20028D02*
X89698D01*
X88998Y-19928D02*
X89698D01*
X88998Y-19828D02*
X89698D01*
X88998Y-19728D02*
X89698D01*
X88998Y-19628D02*
X89698D01*
X88998Y-19428D02*
X89698D01*
X88998Y-19328D02*
X89698D01*
X88998Y-19228D02*
X89698D01*
X88998Y-19128D02*
X89698D01*
X88998Y-19028D02*
X89698D01*
X88998Y-18928D02*
X89698D01*
X88998Y-18828D02*
X89698D01*
X88998Y-18728D02*
X89698D01*
X88998Y-18628D02*
X89698D01*
X89198Y-17628D02*
X89498D01*
X88998Y-17528D02*
X89698D01*
X88898Y-17428D02*
X89698D01*
X88898Y-17328D02*
X89798D01*
X88898Y-17128D02*
X89798D01*
X88898Y-17028D02*
X89798D01*
X88998Y-16928D02*
X89698D01*
X89098Y-16828D02*
X89598D01*
X91798Y-20828D02*
X92498D01*
X91798Y-20728D02*
X92498D01*
X91798Y-20628D02*
X92498D01*
X91798Y-20528D02*
X92498D01*
X91798Y-20428D02*
X92498D01*
X91798Y-20228D02*
X92498D01*
X91798Y-20128D02*
X92498D01*
X91798Y-20028D02*
X92498D01*
X91798Y-19928D02*
X92498D01*
X91798Y-19828D02*
X92498D01*
X91798Y-19628D02*
X92498D01*
X88998Y-19528D02*
X89698D01*
X91798Y-19428D02*
X92498D01*
X91798Y-19328D02*
X92498D01*
X90798Y-19128D02*
X93398D01*
X90798Y-19028D02*
X93398D01*
X90798Y-18928D02*
X93398D01*
X90798Y-18828D02*
X93398D01*
X90798Y-18728D02*
X93398D01*
X90798Y-18628D02*
X93398D01*
X91798Y-18528D02*
X92498D01*
X91798Y-18428D02*
X92498D01*
X91798Y-18328D02*
X92498D01*
X91798Y-18228D02*
X92498D01*
X91798Y-18028D02*
X92498D01*
X91798Y-17928D02*
X92498D01*
X91798Y-17828D02*
X92498D01*
X91798Y-17728D02*
X92498D01*
X91798Y-17628D02*
X92498D01*
X91798Y-17528D02*
X92498D01*
X88898Y-17228D02*
X89798D01*
X92298Y-40128D02*
X92398D01*
X92498Y-40728D02*
X93198D01*
X92198Y-40628D02*
X93498D01*
X92198Y-40528D02*
X93698D01*
X92298Y-40328D02*
X93798D01*
X92298Y-40428D02*
X93798D01*
X92298Y-40228D02*
X93898D01*
X92998Y-40128D02*
X93898D01*
X93198Y-40028D02*
X93998D01*
X93298Y-39828D02*
X93998D01*
X93298Y-39728D02*
X93998D01*
X93298Y-39928D02*
X93998D01*
X93398Y-39528D02*
X93998D01*
X93398Y-39328D02*
X93998D01*
X93398Y-39428D02*
X93998D01*
X93398Y-39028D02*
X93998D01*
X93398Y-39128D02*
X93998D01*
X93398Y-39228D02*
X93998D01*
X93398Y-39628D02*
X93998D01*
X93398Y-38928D02*
X93998D01*
X93398Y-38828D02*
X93998D01*
X93398Y-38728D02*
X93998D01*
X93398Y-38628D02*
X93998D01*
X93398Y-38528D02*
X93998D01*
X93398Y-38428D02*
X93998D01*
X95698Y-40528D02*
X96298D01*
X95698Y-40628D02*
X96298D01*
X95698Y-38928D02*
X96298D01*
X95698Y-38828D02*
X96298D01*
X95698Y-38528D02*
X96298D01*
X93398Y-38328D02*
X93998D01*
X93398Y-38228D02*
X93998D01*
X93398Y-38128D02*
X93998D01*
X93398Y-38028D02*
X93998D01*
X93398Y-37928D02*
X93998D01*
X93398Y-37828D02*
X93998D01*
X93398Y-37728D02*
X93998D01*
X93398Y-37628D02*
X93998D01*
X93398Y-37528D02*
X93998D01*
X93398Y-37428D02*
X93998D01*
X93398Y-37128D02*
X93998D01*
X93398Y-36928D02*
X93998D01*
X93398Y-36828D02*
X93998D01*
X93398Y-37028D02*
X93998D01*
X93398Y-37228D02*
X93998D01*
X93398Y-36228D02*
X93998D01*
X93398Y-36328D02*
X93998D01*
X93398Y-36428D02*
X93998D01*
X93398Y-36528D02*
X93998D01*
X93398Y-36628D02*
X93998D01*
X93398Y-36728D02*
X93998D01*
X93398Y-37328D02*
X93998D01*
X95698Y-38128D02*
X96298D01*
X95698Y-37628D02*
X96298D01*
X95698Y-37028D02*
X96298D01*
X95698Y-36928D02*
X96298D01*
X95698Y-36828D02*
X96298D01*
X95698Y-36728D02*
X96298D01*
X95698Y-36628D02*
X96298D01*
X95698Y-36528D02*
X96298D01*
X95698Y-36428D02*
X96298D01*
X95698Y-36328D02*
X96298D01*
X95698Y-40328D02*
X96298D01*
X95698Y-40428D02*
X96298D01*
X95698Y-40228D02*
X96298D01*
X95698Y-39328D02*
X96398D01*
X95698Y-39228D02*
X96398D01*
X95698Y-39528D02*
X96498D01*
X95698Y-39428D02*
X96498D01*
X95698Y-39628D02*
X96598D01*
X95698Y-39728D02*
X96698D01*
X95698Y-39828D02*
X96798D01*
X95698Y-39928D02*
X96898D01*
X95698Y-40028D02*
X97098D01*
X95698Y-40128D02*
X97398D01*
X96398Y-40228D02*
X99198D01*
X96598Y-40428D02*
X98998D01*
X96498Y-40328D02*
X99098D01*
X96798Y-40528D02*
X98898D01*
X96998Y-40628D02*
X98698D01*
X97498Y-40728D02*
X98298D01*
X98098Y-40128D02*
X99298D01*
X98398Y-40028D02*
X99298D01*
X98498Y-39928D02*
X99398D01*
X98598Y-39828D02*
X99398D01*
X98698Y-39728D02*
X99498D01*
X98798Y-39628D02*
X99498D01*
X98798Y-39528D02*
X99498D01*
X98798Y-39428D02*
X99598D01*
X98898Y-39328D02*
X99598D01*
X95698Y-39128D02*
X96298D01*
X95698Y-39028D02*
X96298D01*
X95698Y-38728D02*
X96298D01*
X95698Y-38628D02*
X96298D01*
X95698Y-38428D02*
X96298D01*
X95698Y-38328D02*
X96298D01*
X95698Y-38228D02*
X96298D01*
X95698Y-38028D02*
X96298D01*
X95698Y-37928D02*
X96298D01*
X95698Y-37828D02*
X96298D01*
X95698Y-37728D02*
X96298D01*
X95698Y-37128D02*
X96298D01*
X95698Y-37228D02*
X96298D01*
X95698Y-37428D02*
X96298D01*
X95698Y-37328D02*
X96298D01*
X95698Y-36228D02*
X96298D01*
X95698Y-37528D02*
X96298D01*
X98898Y-39128D02*
X99598D01*
X98898Y-38728D02*
X99598D01*
X98898Y-38528D02*
X99598D01*
X98898Y-38428D02*
X99598D01*
X98898Y-38028D02*
X99598D01*
X98898Y-37828D02*
X99598D01*
X98898Y-37728D02*
X99598D01*
X98898Y-37628D02*
X99598D01*
X98898Y-37128D02*
X99598D01*
X98898Y-36428D02*
X99598D01*
X98898Y-37528D02*
X99598D01*
X98898Y-37328D02*
X99598D01*
X98898Y-36328D02*
X99598D01*
X98898Y-37228D02*
X99598D01*
X98898Y-36228D02*
X99598D01*
X91898Y-31228D02*
X92498D01*
X91898Y-31128D02*
X92498D01*
X91898Y-31028D02*
X92598D01*
X91898Y-30928D02*
X92598D01*
X91998Y-30828D02*
X92598D01*
X92298Y-36028D02*
X94998D01*
X92298Y-35928D02*
X94998D01*
X92298Y-35828D02*
X94998D01*
X92298Y-35528D02*
X94998D01*
X92298Y-35628D02*
X94998D01*
X92298Y-35728D02*
X94998D01*
X93398Y-35428D02*
X93998D01*
X93398Y-34428D02*
X93998D01*
X93398Y-36128D02*
X93998D01*
X93398Y-35028D02*
X93998D01*
X93398Y-34928D02*
X93998D01*
X93398Y-35328D02*
X93998D01*
X93398Y-34328D02*
X93998D01*
X93398Y-34628D02*
X93998D01*
X93398Y-34828D02*
X93998D01*
X93398Y-34528D02*
X93998D01*
X93398Y-35228D02*
X93998D01*
X93398Y-34728D02*
X93998D01*
X93398Y-35128D02*
X93998D01*
X94498Y-32428D02*
X95098D01*
X94498Y-32528D02*
X95098D01*
X94498Y-32228D02*
X95098D01*
X94498Y-32328D02*
X95098D01*
X94498Y-32128D02*
X95098D01*
X94498Y-31128D02*
X95098D01*
X94498Y-31028D02*
X95098D01*
X94498Y-30928D02*
X95098D01*
X91998Y-30728D02*
X92598D01*
X91998Y-30628D02*
X92698D01*
X92098Y-30528D02*
X92698D01*
X92098Y-30428D02*
X92698D01*
X92098Y-30328D02*
X92798D01*
X92098Y-30228D02*
X92798D01*
X92198Y-30128D02*
X92798D01*
X92198Y-29828D02*
X92898D01*
X92198Y-29928D02*
X92898D01*
X92198Y-30028D02*
X92898D01*
X92298Y-29728D02*
X92898D01*
X92298Y-29528D02*
X92998D01*
X92298Y-29628D02*
X92998D01*
X92398Y-29428D02*
X92998D01*
X92398Y-29228D02*
X93098D01*
X92398Y-29128D02*
X93098D01*
X92398Y-29328D02*
X93098D01*
X92498Y-29028D02*
X93098D01*
X94498Y-30828D02*
X95098D01*
X94498Y-30728D02*
X95098D01*
X94498Y-30628D02*
X95098D01*
X94498Y-30528D02*
X95098D01*
X94498Y-30428D02*
X95098D01*
X94498Y-30328D02*
X95098D01*
X94498Y-29828D02*
X95098D01*
X94498Y-30228D02*
X95098D01*
X94498Y-29928D02*
X95098D01*
X94498Y-30028D02*
X95098D01*
X94498Y-29628D02*
X95098D01*
X94498Y-30128D02*
X95098D01*
X94498Y-29428D02*
X95098D01*
X94498Y-29728D02*
X95098D01*
X94498Y-31528D02*
X95298D01*
X94498Y-31428D02*
X95298D01*
X94498Y-31628D02*
X95398D01*
X94498Y-31728D02*
X95498D01*
X94498Y-31828D02*
X95598D01*
X94498Y-31928D02*
X95798D01*
X94498Y-32028D02*
X95998D01*
X95698Y-36028D02*
X96298D01*
X95698Y-35728D02*
X96298D01*
X95698Y-35628D02*
X96298D01*
X95698Y-35528D02*
X96298D01*
X95698Y-35828D02*
X96298D01*
X95698Y-35928D02*
X96298D01*
X95698Y-36128D02*
X96298D01*
X95398Y-32328D02*
X97798D01*
X95498Y-32428D02*
X97698D01*
X95698Y-32528D02*
X97498D01*
X95198Y-32128D02*
X97998D01*
X95298Y-32228D02*
X97898D01*
X95998Y-32628D02*
X97298D01*
X96998Y-32028D02*
X98098D01*
X97198Y-31928D02*
X98198D01*
X97398Y-31828D02*
X98198D01*
X97498Y-31728D02*
X98298D01*
X97598Y-31628D02*
X98298D01*
X97598Y-31528D02*
X98398D01*
X98898Y-35628D02*
X99598D01*
X98898Y-36128D02*
X99598D01*
X98898Y-36028D02*
X99598D01*
X98898Y-35528D02*
X99598D01*
X98898Y-35928D02*
X99598D01*
X98898Y-35828D02*
X99598D01*
X94498Y-29328D02*
X95098D01*
X94498Y-29528D02*
X95098D01*
X94498Y-29228D02*
X95098D01*
X94498Y-29028D02*
X95098D01*
X94498Y-29128D02*
X95098D01*
X94498Y-31328D02*
X95198D01*
X94498Y-31228D02*
X95198D01*
X97698Y-31428D02*
X98398D01*
X97698Y-31328D02*
X98498D01*
X97798Y-31228D02*
X98498D01*
X97798Y-31128D02*
X98498D01*
X97798Y-29028D02*
X98598D01*
X97898Y-30628D02*
X98598D01*
X97898Y-31028D02*
X98598D01*
X97898Y-29328D02*
X98598D01*
X97898Y-29428D02*
X98598D01*
X97898Y-29528D02*
X98598D01*
X97898Y-30928D02*
X98598D01*
X97898Y-30828D02*
X98598D01*
X97898Y-30728D02*
X98598D01*
X97898Y-29228D02*
X98598D01*
X97898Y-29128D02*
X98598D01*
X97998Y-30128D02*
X98598D01*
X97998Y-29828D02*
X98598D01*
X97998Y-29928D02*
X98598D01*
X97998Y-30528D02*
X98598D01*
X97998Y-30228D02*
X98598D01*
X97998Y-30428D02*
X98598D01*
X97998Y-29728D02*
X98598D01*
X97998Y-29628D02*
X98598D01*
X97998Y-30328D02*
X98598D01*
X97998Y-30028D02*
X98598D01*
X102798Y-37628D02*
X103398D01*
X106698D02*
X107298D01*
X102798Y-37528D02*
X103498D01*
X106598D02*
X107298D01*
X102798Y-37428D02*
X103498D01*
X106598D02*
X107298D01*
X102798Y-37328D02*
X103498D01*
X106598D02*
X107298D01*
X102798Y-37228D02*
X103498D01*
X106598D02*
X107298D01*
X106498Y-37128D02*
X107298D01*
X102898D02*
X103598D01*
X102898Y-37028D02*
X103598D01*
X106498D02*
X107198D01*
X102898Y-36928D02*
X103698D01*
X106398D02*
X107198D01*
X100998Y-40628D02*
X101598D01*
X100998Y-40528D02*
X101598D01*
X100998Y-40428D02*
X101598D01*
X100998Y-40328D02*
X101598D01*
X100998Y-40228D02*
X101598D01*
X100998Y-40128D02*
X101598D01*
X100998Y-40028D02*
X101598D01*
X100998Y-39928D02*
X101598D01*
X100998Y-39828D02*
X101598D01*
X100998Y-39728D02*
X101598D01*
X100998Y-39628D02*
X101598D01*
X100998Y-39528D02*
X101598D01*
X100998Y-39428D02*
X101598D01*
X102998D02*
X103798D01*
X100998Y-39328D02*
X101598D01*
X102998D02*
X103698D01*
X98898Y-39228D02*
X99598D01*
X100998D02*
X101598D01*
X102898D02*
X103598D01*
X100998Y-39128D02*
X101598D01*
X102898D02*
X103598D01*
X98898Y-39028D02*
X99598D01*
X100998D02*
X101598D01*
X102898D02*
X103598D01*
X100998Y-38928D02*
X101598D01*
X102798D02*
X103498D01*
X98898D02*
X99598D01*
X100998Y-38828D02*
X101598D01*
X102798D02*
X103498D01*
X98898D02*
X99598D01*
X104698Y-40728D02*
X105498D01*
X104198Y-40628D02*
X105898D01*
X103998Y-40528D02*
X106098D01*
X103798Y-40428D02*
X106298D01*
X103698Y-40328D02*
X106398D01*
X103598Y-40228D02*
X106598D01*
X103498Y-40128D02*
X104698D01*
X105398D02*
X106698D01*
X103398Y-40028D02*
X104398D01*
X105698D02*
X106698D01*
X103298Y-39928D02*
X104198D01*
X105898D02*
X106798D01*
X103198Y-39828D02*
X104098D01*
X105998D02*
X106898D01*
X103098Y-39728D02*
X103998D01*
X106098D02*
X106998D01*
X103098Y-39628D02*
X103898D01*
X106198D02*
X106998D01*
X102998Y-39528D02*
X103798D01*
X106298D02*
X107098D01*
X106398Y-39428D02*
X107098D01*
X106398Y-39328D02*
X107198D01*
X106498Y-39228D02*
X107198D01*
X106498Y-39128D02*
X107198D01*
X106598Y-39028D02*
X107298D01*
X106598Y-38928D02*
X107298D01*
X106598Y-38828D02*
X107298D01*
X100998Y-38728D02*
X101598D01*
X98898Y-38628D02*
X99598D01*
X100998D02*
X101598D01*
X100998Y-38528D02*
X101598D01*
X100998Y-38428D02*
X101598D01*
X102798D02*
X103398D01*
X98898Y-38328D02*
X99598D01*
X100998D02*
X101598D01*
X102798D02*
X103398D01*
X98898Y-38228D02*
X99598D01*
X100998D02*
X101598D01*
X102798D02*
X103398D01*
X98898Y-38128D02*
X99598D01*
X100998D02*
X101598D01*
X102798D02*
X103398D01*
X100998Y-38028D02*
X101598D01*
X98898Y-37928D02*
X99598D01*
X100998D02*
X101598D01*
X102798D02*
X103398D01*
X100998Y-37828D02*
X101598D01*
X100998Y-37728D02*
X101598D01*
X100998Y-37628D02*
X101598D01*
X100998Y-37528D02*
X101598D01*
X98898Y-37428D02*
X99598D01*
X100998D02*
X101598D01*
X100998Y-37328D02*
X101598D01*
X100998Y-37228D02*
X101598D01*
X100998Y-37128D02*
X101598D01*
X98898Y-37028D02*
X99598D01*
X100998D02*
X101598D01*
X98898Y-36928D02*
X99598D01*
X100998D02*
X101598D01*
X102798Y-38728D02*
X103498D01*
X106598D02*
X107298D01*
X102798Y-38628D02*
X103498D01*
X106698D02*
X107298D01*
X102798Y-38528D02*
X103398D01*
X106698D02*
X107298D01*
X106698Y-38428D02*
X107298D01*
X106698Y-38328D02*
X107398D01*
X106698Y-38228D02*
X107398D01*
X106698Y-38128D02*
X107398D01*
X102798Y-38028D02*
X103398D01*
X106698D02*
X107398D01*
X106698Y-37928D02*
X107398D01*
X102798Y-37828D02*
X103398D01*
X102798Y-37728D02*
X103398D01*
X106698D02*
X107298D01*
X109698Y-40728D02*
X110598D01*
X109198Y-40628D02*
X110998D01*
X108998Y-40528D02*
X111298D01*
X108798Y-40428D02*
X111398D01*
X108698Y-40328D02*
X111598D01*
X108598Y-40228D02*
X111698D01*
X108498Y-40128D02*
X109698D01*
X108398Y-40028D02*
X109398D01*
X108298Y-39928D02*
X109198D01*
X108298Y-39828D02*
X109098D01*
X108298Y-39728D02*
X108998D01*
X108198Y-39628D02*
X108898D01*
X108198Y-39528D02*
X108898D01*
X108198Y-39428D02*
X108898D01*
X108198Y-39328D02*
X108898D01*
X108198Y-39228D02*
X108898D01*
X108198Y-39128D02*
X108898D01*
X108198Y-39028D02*
X108898D01*
X108198Y-38928D02*
X108998D01*
X108298Y-38828D02*
X109098D01*
X108298Y-38728D02*
X109198D01*
X108398Y-38628D02*
X109298D01*
X108398Y-38528D02*
X109498D01*
X108498Y-38428D02*
X109798D01*
X108598Y-38328D02*
X110198D01*
X108698Y-38228D02*
X110598D01*
X108898Y-38128D02*
X110898D01*
X109098Y-38028D02*
X111198D01*
X106698Y-37828D02*
X107398D01*
X108198Y-37028D02*
X108898D01*
X108198Y-36928D02*
X108898D01*
X98898Y-36828D02*
X99598D01*
X98898Y-36728D02*
X99598D01*
X100998D02*
X101598D01*
X98898Y-36628D02*
X99598D01*
X100998D02*
X101598D01*
X98898Y-36528D02*
X99598D01*
X100998D02*
X101598D01*
X100998Y-36428D02*
X101598D01*
X100998Y-36328D02*
X101598D01*
X100998Y-36228D02*
X101598D01*
X100998Y-35928D02*
X101598D01*
X100998Y-35828D02*
X101598D01*
X98898Y-35728D02*
X99598D01*
X100998Y-35628D02*
X101598D01*
X100998Y-35528D02*
X101598D01*
X100998Y-35428D02*
X101598D01*
X100998Y-35328D02*
X101598D01*
X100998Y-35128D02*
X101598D01*
X100998Y-35028D02*
X101598D01*
X100998Y-34728D02*
X101598D01*
X100998Y-34628D02*
X101598D01*
X100998Y-34528D02*
X101598D01*
X100998Y-34428D02*
X101598D01*
X100998Y-34328D02*
X101598D01*
X100998Y-34228D02*
X101598D01*
X100998Y-33728D02*
X101598D01*
X100998Y-33528D02*
X101598D01*
X100998Y-33428D02*
X101598D01*
X100898Y-32528D02*
X101498D01*
X100898Y-32428D02*
X101498D01*
X100898Y-32328D02*
X101498D01*
X100898Y-32228D02*
X101498D01*
X100998Y-36828D02*
X101598D01*
X102998D02*
X103698D01*
X102998Y-36728D02*
X103798D01*
X103098Y-36628D02*
X103898D01*
X103098Y-36528D02*
X103898D01*
X103198Y-36428D02*
X103998D01*
X103198Y-36328D02*
X104098D01*
X103298Y-36228D02*
X104298D01*
X100998Y-36128D02*
X101598D01*
X103398D02*
X104498D01*
X100998Y-36028D02*
X101598D01*
X103498D02*
X104798D01*
X103598Y-35928D02*
X106498D01*
X103698Y-35828D02*
X106398D01*
X100998Y-35728D02*
X101598D01*
X103898D02*
X106198D01*
X104098Y-35628D02*
X105998D01*
X104298Y-35528D02*
X105798D01*
X100998Y-35228D02*
X101598D01*
X100998Y-34928D02*
X101598D01*
X100998Y-34828D02*
X101598D01*
X100998Y-34128D02*
X101598D01*
X100998Y-34028D02*
X101598D01*
X100998Y-33928D02*
X101598D01*
X100998Y-33828D02*
X101598D01*
X100998Y-33628D02*
X101598D01*
X102798Y-32528D02*
X103498D01*
X102798Y-32428D02*
X103498D01*
X103898Y-32328D02*
X106398D01*
X102798D02*
X103498D01*
X103798Y-32228D02*
X106498D01*
X102798D02*
X103498D01*
X100898Y-32128D02*
X101498D01*
X100898Y-32028D02*
X101498D01*
X100898Y-31928D02*
X101498D01*
X100898Y-31828D02*
X101498D01*
X100898Y-31728D02*
X101498D01*
X100898Y-31628D02*
X101498D01*
X100898Y-31528D02*
X101498D01*
X100898Y-31428D02*
X101498D01*
X100898Y-31328D02*
X101498D01*
X100898Y-31228D02*
X101498D01*
X100898Y-31128D02*
X101498D01*
X100898Y-31028D02*
X101498D01*
X100898Y-30928D02*
X101498D01*
X100898Y-30828D02*
X101498D01*
X100898Y-30728D02*
X101498D01*
X100898Y-30628D02*
X101498D01*
X100898Y-30528D02*
X101498D01*
X100898Y-30428D02*
X101498D01*
X100898Y-30328D02*
X101498D01*
X100898Y-30228D02*
X101498D01*
X100898Y-30128D02*
X101498D01*
X100898Y-30028D02*
X101498D01*
X100898Y-29928D02*
X101498D01*
X100898Y-29828D02*
X101498D01*
X100898Y-29728D02*
X101498D01*
X100898Y-29628D02*
X101498D01*
X100898Y-29528D02*
X101498D01*
X100898Y-29428D02*
X101498D01*
X100898Y-29328D02*
X101498D01*
X100898Y-29228D02*
X101498D01*
X100898Y-29128D02*
X101498D01*
X100798Y-29028D02*
X101498D01*
X102898Y-32128D02*
X103598D01*
X102898Y-32028D02*
X104598D01*
X102898Y-31928D02*
X104398D01*
X102898Y-31828D02*
X104198D01*
X102898Y-31728D02*
X104098D01*
X102898Y-31628D02*
X103898D01*
X102898Y-31528D02*
X103798D01*
X102898Y-31428D02*
X103798D01*
X102898Y-31328D02*
X103698D01*
X102898Y-31228D02*
X103598D01*
X102898Y-31128D02*
X103598D01*
X102898Y-31028D02*
X103598D01*
X102898Y-30928D02*
X103598D01*
X102898Y-30828D02*
X103598D01*
X102898Y-30728D02*
X103598D01*
X102898Y-30628D02*
X103598D01*
X102898Y-30528D02*
X103598D01*
X102898Y-30428D02*
X103598D01*
X102898Y-30328D02*
X103598D01*
X102898Y-30228D02*
X103598D01*
X102898Y-30128D02*
X103598D01*
X102898Y-30028D02*
X106298D01*
X102898Y-29928D02*
X106198D01*
X102898Y-29828D02*
X105998D01*
X102898Y-29728D02*
X105698D01*
X102898Y-29628D02*
X105198D01*
X102898Y-29528D02*
X103598D01*
X102898Y-29428D02*
X103598D01*
X102898Y-29328D02*
X103598D01*
X102898Y-29228D02*
X103598D01*
X102898Y-29128D02*
X103598D01*
X102898Y-29028D02*
X103598D01*
X106398Y-36828D02*
X107098D01*
X108198D02*
X108898D01*
X106298Y-36728D02*
X107098D01*
X108198D02*
X108898D01*
X106298Y-36628D02*
X107098D01*
X106198Y-36528D02*
X106998D01*
X106098Y-36428D02*
X106898D01*
X105998Y-36328D02*
X106898D01*
X105798Y-36228D02*
X106798D01*
X105598Y-36128D02*
X106698D01*
X105298Y-36028D02*
X106598D01*
X104598Y-32628D02*
X105898D01*
X104298Y-32528D02*
X106098D01*
X107998D02*
X108598D01*
X104098Y-32428D02*
X106298D01*
X107998D02*
X108598D01*
X107998Y-32328D02*
X108598D01*
X107998Y-32228D02*
X108598D01*
X103698Y-32128D02*
X106598D01*
X107998D02*
X108598D01*
X105598Y-32028D02*
X106698D01*
X107998D02*
X108598D01*
X105798Y-31928D02*
X106798D01*
X107998D02*
X108598D01*
X105898Y-31828D02*
X106798D01*
X107998D02*
X108598D01*
X105998Y-31728D02*
X106798D01*
X107998D02*
X108598D01*
X106098Y-31628D02*
X106898D01*
X107998D02*
X108598D01*
X106198Y-31528D02*
X106898D01*
X107998D02*
X108598D01*
X111298Y-36828D02*
X111998D01*
X111298Y-36728D02*
X111998D01*
X108298Y-36628D02*
X108998D01*
X111298D02*
X111998D01*
X108298Y-36528D02*
X108998D01*
X111198D02*
X111898D01*
X108298Y-36428D02*
X109098D01*
X111198D02*
X111898D01*
X108398Y-36328D02*
X109198D01*
X111098D02*
X111898D01*
X108398Y-36228D02*
X109398D01*
X110898D02*
X111798D01*
X108498Y-36128D02*
X109498D01*
X110798D02*
X111798D01*
X108598Y-36028D02*
X109898D01*
X110398D02*
X111698D01*
X108598Y-35928D02*
X111598D01*
X108798Y-35828D02*
X111498D01*
X108898Y-35728D02*
X111298D01*
X109098Y-35628D02*
X111198D01*
X109398Y-35528D02*
X110898D01*
X111198Y-32528D02*
X111898D01*
X111198Y-32428D02*
X111898D01*
X111198Y-32328D02*
X111898D01*
X111198Y-32228D02*
X111898D01*
X111198Y-32128D02*
X111898D01*
X111198Y-32028D02*
X111898D01*
X111198Y-31928D02*
X111898D01*
X111198Y-31828D02*
X111898D01*
X111198Y-31728D02*
X111898D01*
X111198Y-31628D02*
X111898D01*
X111198Y-31528D02*
X111898D01*
X106198Y-31428D02*
X106898D01*
X107998D02*
X108598D01*
X106198Y-31328D02*
X106898D01*
X107998D02*
X108598D01*
X106198Y-31228D02*
X106898D01*
X107998D02*
X108598D01*
X106198Y-31128D02*
X106898D01*
X107998D02*
X108598D01*
X106198Y-31028D02*
X106898D01*
X107998D02*
X108598D01*
X106198Y-30928D02*
X106898D01*
X107998D02*
X108598D01*
X106198Y-30828D02*
X106898D01*
X107998D02*
X108598D01*
X106098Y-30728D02*
X106798D01*
X107998D02*
X108598D01*
X105998Y-30628D02*
X106798D01*
X105898Y-30528D02*
X106798D01*
X107998D02*
X108598D01*
X105798Y-30428D02*
X106698D01*
X105598Y-30328D02*
X106598D01*
X107998D02*
X108598D01*
X105298Y-30228D02*
X106498D01*
X104798Y-30128D02*
X106398D01*
X107998Y-30028D02*
X108598D01*
X107998Y-29928D02*
X108598D01*
X107998Y-29628D02*
X108598D01*
X107998Y-29528D02*
X108598D01*
X107998Y-29428D02*
X108598D01*
X107998Y-29228D02*
X108598D01*
X107998Y-29128D02*
X108598D01*
X107998Y-29028D02*
X108598D01*
X111198Y-31428D02*
X111898D01*
X111198Y-31328D02*
X111898D01*
X111198Y-31228D02*
X111898D01*
X111198Y-31128D02*
X111898D01*
X111198Y-31028D02*
X111898D01*
X111198Y-30928D02*
X111898D01*
X111198Y-30828D02*
X111898D01*
X111198Y-30728D02*
X111898D01*
X107998Y-30628D02*
X108598D01*
X111198D02*
X111898D01*
X111198Y-30528D02*
X111898D01*
X107998Y-30428D02*
X108598D01*
X111198D02*
X111898D01*
X111198Y-30328D02*
X111898D01*
X107998Y-30228D02*
X108598D01*
X111198D02*
X111898D01*
X107998Y-30128D02*
X108598D01*
X111198D02*
X111898D01*
X111198Y-30028D02*
X111898D01*
X111198Y-29928D02*
X111898D01*
X107998Y-29828D02*
X108598D01*
X111198D02*
X111898D01*
X107998Y-29728D02*
X108598D01*
X111198D02*
X111898D01*
X111198Y-29628D02*
X111898D01*
X111198Y-29528D02*
X111898D01*
X111198Y-29428D02*
X111898D01*
X107998Y-29328D02*
X108598D01*
X111198D02*
X111898D01*
X111198Y-29228D02*
X111898D01*
X111198Y-29128D02*
X111898D01*
X111198Y-29028D02*
X111898D01*
X92498Y-28828D02*
X93198D01*
X92498Y-28928D02*
X93198D01*
X92498Y-28728D02*
X93198D01*
X92598Y-28628D02*
X93298D01*
X92598Y-28428D02*
X93298D01*
X92598Y-28528D02*
X93298D01*
X92698Y-28328D02*
X93298D01*
X92698Y-28228D02*
X93398D01*
X92698Y-28128D02*
X93398D01*
X92698Y-28028D02*
X93398D01*
X92798Y-27928D02*
X93498D01*
X92798Y-27828D02*
X93498D01*
X92798Y-27728D02*
X93498D01*
X92798Y-27628D02*
X93498D01*
X92898Y-27528D02*
X93598D01*
X94498Y-28028D02*
X95098D01*
X94498Y-27928D02*
X95098D01*
X94498Y-27828D02*
X95098D01*
X94498Y-27728D02*
X95098D01*
X94498Y-27628D02*
X95098D01*
X94498Y-27528D02*
X95098D01*
X94498Y-27428D02*
X95098D01*
X94498Y-28828D02*
X95198D01*
X94498Y-28928D02*
X95198D01*
X94498Y-28728D02*
X95298D01*
X94498Y-28628D02*
X95298D01*
X94498Y-28528D02*
X95398D01*
X94498Y-28428D02*
X95498D01*
X94498Y-28328D02*
X95598D01*
X94498Y-28228D02*
X95698D01*
X94498Y-28128D02*
X95898D01*
X95198Y-28028D02*
X96098D01*
X91798Y-22828D02*
X92498D01*
X91798Y-22728D02*
X92498D01*
X91798Y-22928D02*
X92498D01*
X94098Y-22628D02*
X94898D01*
X94198Y-22728D02*
X94998D01*
X94198Y-22828D02*
X95098D01*
X94298Y-22928D02*
X95198D01*
X94498Y-27328D02*
X95098D01*
X94498Y-27228D02*
X95098D01*
X94498Y-27128D02*
X95098D01*
X94498Y-27028D02*
X95098D01*
X94498Y-26928D02*
X95098D01*
X94498Y-26828D02*
X95098D01*
X94498Y-26728D02*
X95098D01*
X94498Y-26628D02*
X95098D01*
X94498Y-26528D02*
X95098D01*
X94498Y-26428D02*
X95098D01*
X94498Y-26328D02*
X95098D01*
X94498Y-26228D02*
X95098D01*
X94498Y-26128D02*
X95098D01*
X94498Y-26028D02*
X95098D01*
X94498Y-25928D02*
X95098D01*
X94498Y-25828D02*
X95098D01*
X94498Y-25728D02*
X95098D01*
X94498Y-25528D02*
X95098D01*
X94498Y-25428D02*
X95098D01*
X94498Y-25628D02*
X95098D01*
X94398Y-23028D02*
X95298D01*
X94498Y-23128D02*
X95498D01*
X94598Y-23228D02*
X95798D01*
X94898Y-23528D02*
X97398D01*
X94798Y-23428D02*
X97498D01*
X95298Y-27928D02*
X97998D01*
X95398Y-27828D02*
X97898D01*
X95498Y-27728D02*
X97798D01*
X96898Y-28028D02*
X98098D01*
X97198Y-28128D02*
X98198D01*
X97298Y-28228D02*
X98198D01*
X97398Y-28328D02*
X98298D01*
X97498Y-28428D02*
X98298D01*
X97598Y-28528D02*
X98398D01*
X97698Y-28628D02*
X98398D01*
X97698Y-28728D02*
X98498D01*
X97798Y-28928D02*
X98498D01*
X97798Y-28828D02*
X98498D01*
X99098Y-28028D02*
X99398D01*
X99098Y-27728D02*
X100598D01*
X99098Y-27828D02*
X100698D01*
X99098Y-27928D02*
X100798D01*
X99698Y-28028D02*
X100798D01*
X100098Y-28128D02*
X101498D01*
X100298Y-28228D02*
X101498D01*
X100398Y-28328D02*
X101498D01*
X100498Y-28428D02*
X101498D01*
X100598Y-28528D02*
X101498D01*
X100698Y-28728D02*
X101498D01*
X100698Y-28628D02*
X101498D01*
X100798Y-28928D02*
X101498D01*
X100798Y-28828D02*
X101498D01*
X100898Y-28028D02*
X101498D01*
X100898Y-27928D02*
X101498D01*
X100898Y-27828D02*
X101498D01*
X100898Y-27728D02*
X101498D01*
X100898Y-27628D02*
X101498D01*
X95398Y-23728D02*
X96898D01*
X95098Y-23628D02*
X97198D01*
X95798Y-23828D02*
X96498D01*
X94698Y-23328D02*
X97598D01*
X95598Y-27628D02*
X97598D01*
X95798Y-27528D02*
X97398D01*
X96198Y-27428D02*
X97098D01*
X96498Y-23228D02*
X97698D01*
X96798Y-23128D02*
X97798D01*
X96998Y-23028D02*
X97898D01*
X97098Y-22928D02*
X97998D01*
X97198Y-22828D02*
X98098D01*
X97298Y-22728D02*
X98098D01*
X97398Y-22628D02*
X98198D01*
X97398Y-22528D02*
X98198D01*
X99098Y-27428D02*
X99998D01*
X99098Y-27528D02*
X100298D01*
X99098Y-27628D02*
X100398D01*
X99498Y-22728D02*
X100298D01*
X99498Y-22628D02*
X100298D01*
X99598Y-22828D02*
X100398D01*
X99598Y-22928D02*
X100498D01*
X99698Y-23028D02*
X100598D01*
X99798Y-23128D02*
X100798D01*
X99898Y-23228D02*
X101098D01*
X100898Y-27528D02*
X101498D01*
X100498Y-23728D02*
X101998D01*
X100298Y-23628D02*
X102298D01*
X100998Y-23828D02*
X101598D01*
X100198Y-23528D02*
X102398D01*
X99998Y-23428D02*
X102598D01*
X99898Y-23328D02*
X102698D01*
X91798Y-21928D02*
X92498D01*
X91798Y-22028D02*
X92498D01*
X91798Y-21528D02*
X92498D01*
X91798Y-22228D02*
X92498D01*
X91798Y-21828D02*
X92498D01*
X91798Y-21628D02*
X92498D01*
X91798Y-20928D02*
X92498D01*
X91798Y-20328D02*
X92498D01*
X93898Y-21128D02*
X94498D01*
X93898Y-21228D02*
X94498D01*
X93898Y-21528D02*
X94498D01*
X93898Y-21428D02*
X94498D01*
X93898Y-21628D02*
X94498D01*
X93898Y-21328D02*
X94498D01*
X93898Y-21028D02*
X94498D01*
X93898Y-20928D02*
X94498D01*
X93898Y-20828D02*
X94498D01*
X93898Y-20728D02*
X94498D01*
X93898Y-21928D02*
X94598D01*
X93898Y-21728D02*
X94598D01*
X93898Y-21828D02*
X94598D01*
X93898Y-22028D02*
X94598D01*
X93898Y-20628D02*
X94598D01*
X93898Y-20528D02*
X94598D01*
X93898Y-20428D02*
X94598D01*
X93898Y-20328D02*
X94598D01*
X93998Y-22228D02*
X94698D01*
X93998Y-22328D02*
X94698D01*
X93998Y-22128D02*
X94698D01*
X93998Y-20228D02*
X94698D01*
X94098Y-22428D02*
X94798D01*
X94098Y-22528D02*
X94898D01*
X91798Y-19728D02*
X92498D01*
X91798Y-17428D02*
X92498D01*
X91798Y-18128D02*
X92498D01*
X91798Y-19228D02*
X92498D01*
X91798Y-19528D02*
X92498D01*
X91798Y-17328D02*
X92498D01*
X93998Y-20128D02*
X94698D01*
X93998Y-20028D02*
X94798D01*
X94098Y-19928D02*
X94798D01*
X94098Y-19828D02*
X94898D01*
X94098Y-19728D02*
X94898D01*
X94198Y-19628D02*
X94998D01*
X94298Y-19528D02*
X95098D01*
X94298Y-19428D02*
X95198D01*
X94398Y-19328D02*
X95398D01*
X94498Y-19228D02*
X95598D01*
X94598Y-19128D02*
X95898D01*
X94798Y-18928D02*
X97498D01*
X95898Y-18528D02*
X96398D01*
X95398Y-18628D02*
X96898D01*
X94998Y-18828D02*
X97298D01*
X94698Y-19028D02*
X97598D01*
X95098Y-18728D02*
X97198D01*
X96398Y-19128D02*
X97698D01*
X96798Y-19228D02*
X97798D01*
X96898Y-19328D02*
X97898D01*
X97098Y-19428D02*
X97998D01*
X97198Y-19528D02*
X97998D01*
X97298Y-19628D02*
X98098D01*
X97398Y-19828D02*
X98198D01*
X97398Y-19728D02*
X98198D01*
X97498Y-19928D02*
X98198D01*
X97498Y-22428D02*
X98298D01*
X97598Y-22328D02*
X98298D01*
X97598Y-22228D02*
X98298D01*
X97598Y-22128D02*
X98398D01*
X97698Y-21828D02*
X98398D01*
X97698Y-21928D02*
X98398D01*
X97698Y-22028D02*
X98398D01*
X97798Y-21728D02*
X98398D01*
X97798Y-21528D02*
X98398D01*
X97798Y-21628D02*
X98398D01*
X97798Y-21428D02*
X98398D01*
X97798Y-20928D02*
X98398D01*
X97798Y-21028D02*
X98498D01*
X97798Y-21128D02*
X98498D01*
X97798Y-21228D02*
X98498D01*
X97798Y-21328D02*
X98498D01*
X99298Y-21128D02*
X99898D01*
X99298Y-21028D02*
X99898D01*
X99298Y-21528D02*
X99898D01*
X99298Y-21428D02*
X99898D01*
X99298Y-21228D02*
X99898D01*
X99298Y-21328D02*
X99898D01*
X99298Y-21728D02*
X99998D01*
X99298Y-21928D02*
X99998D01*
X99298Y-21828D02*
X99998D01*
X99298Y-21628D02*
X99998D01*
X99298Y-22028D02*
X99998D01*
X99398Y-22328D02*
X100098D01*
X99398Y-22228D02*
X100098D01*
X99398Y-22128D02*
X100098D01*
X99398Y-22428D02*
X100198D01*
X99498Y-22528D02*
X100198D01*
X97498Y-20028D02*
X98298D01*
X97598Y-20228D02*
X98298D01*
X97598Y-20128D02*
X98298D01*
X97698Y-20328D02*
X98398D01*
X97698Y-20628D02*
X98398D01*
X97698Y-20528D02*
X98398D01*
X97698Y-20428D02*
X98398D01*
X97798Y-20728D02*
X98398D01*
X97798Y-20828D02*
X98398D01*
X99298Y-20928D02*
X99898D01*
X99298Y-20828D02*
X99898D01*
X99298Y-20328D02*
X99998D01*
X99298Y-20428D02*
X99998D01*
X99298Y-20528D02*
X99998D01*
X99298Y-20628D02*
X99998D01*
X99298Y-20728D02*
X99998D01*
X99398Y-20228D02*
X99998D01*
X99398Y-20028D02*
X100098D01*
X99398Y-20128D02*
X100098D01*
X99398Y-19928D02*
X100198D01*
X99498Y-19828D02*
X100198D01*
X99498Y-19728D02*
X100298D01*
X99498Y-19628D02*
X100298D01*
X99598Y-19528D02*
X100398D01*
X99598Y-19428D02*
X100498D01*
X99698Y-19328D02*
X100598D01*
X99798Y-19228D02*
X100798D01*
X99898Y-19128D02*
X101098D01*
X100298Y-18728D02*
X102198D01*
X100998Y-18528D02*
X101498D01*
X99898Y-19028D02*
X102598D01*
X99998Y-18928D02*
X102498D01*
X102898Y-28928D02*
X103598D01*
X102898Y-28828D02*
X103598D01*
X102898Y-28728D02*
X103598D01*
X102998Y-28628D02*
X103698D01*
X102998Y-28528D02*
X103698D01*
X102998Y-28428D02*
X103798D01*
X103098Y-28328D02*
X103798D01*
X103098Y-28228D02*
X103998D01*
X103198Y-28128D02*
X104098D01*
X103198Y-28028D02*
X104298D01*
X103298Y-27928D02*
X106298D01*
X103398Y-27828D02*
X106198D01*
X103498Y-27728D02*
X106098D01*
X103698Y-27628D02*
X105898D01*
X103898Y-27528D02*
X105698D01*
X104298Y-27428D02*
X105298D01*
X102798Y-23728D02*
X103398D01*
X102798Y-23628D02*
X103398D01*
X102798Y-23528D02*
X103398D01*
X102798Y-23428D02*
X103398D01*
X102798Y-23328D02*
X103398D01*
X101698Y-23228D02*
X103398D01*
X101998Y-23128D02*
X103398D01*
X102198Y-23028D02*
X103398D01*
X102298Y-22928D02*
X103398D01*
X102398Y-22828D02*
X103398D01*
X102498Y-22728D02*
X103398D01*
X102598Y-22628D02*
X103398D01*
X102698Y-22528D02*
X103398D01*
X102698Y-22428D02*
X103398D01*
X102798Y-22328D02*
X103398D01*
X104598D02*
X105398D01*
X106098Y-28928D02*
X106798D01*
X106098Y-28828D02*
X106798D01*
X107998D02*
X108698D01*
X106098Y-28728D02*
X106798D01*
X106098Y-28628D02*
X106798D01*
X105998Y-28528D02*
X106698D01*
X105898Y-28428D02*
X106698D01*
X105798Y-28328D02*
X106698D01*
X105698Y-28228D02*
X106598D01*
X105598Y-28128D02*
X106498D01*
X105298Y-28028D02*
X106398D01*
Y-23828D02*
X107098D01*
X105998Y-23728D02*
X107598D01*
X105698Y-23628D02*
X107798D01*
X105598Y-23528D02*
X107998D01*
X105398Y-23428D02*
X108098D01*
X105298Y-23328D02*
X108298D01*
X105198Y-23228D02*
X106398D01*
X107098D02*
X108398D01*
X105098Y-23128D02*
X106098D01*
X107398D02*
X108498D01*
X104998Y-23028D02*
X105998D01*
X107598D02*
X108498D01*
X104898Y-22928D02*
X105798D01*
X107698D02*
X108598D01*
X104898Y-22828D02*
X105698D01*
X107798D02*
X108698D01*
X104798Y-22728D02*
X105598D01*
X107898D02*
X108698D01*
X104798Y-22628D02*
X105498D01*
X104698Y-22528D02*
X105498D01*
X104698Y-22428D02*
X105398D01*
X102798Y-22228D02*
X103398D01*
X102798Y-22128D02*
X103398D01*
X102798Y-22028D02*
X103398D01*
X102798Y-21928D02*
X103398D01*
X102798Y-21828D02*
X103398D01*
X102798Y-21728D02*
X103398D01*
X102798Y-21628D02*
X103398D01*
X102798Y-21528D02*
X103398D01*
X104498D02*
X105098D01*
X102798Y-21428D02*
X103398D01*
X102798Y-21328D02*
X103398D01*
X102798Y-21228D02*
X103398D01*
X102798Y-21128D02*
X103398D01*
X102798Y-21028D02*
X103398D01*
X102798Y-20928D02*
X103398D01*
X104498D02*
X105098D01*
X102798Y-20828D02*
X103398D01*
X102798Y-20728D02*
X103398D01*
X102798Y-20628D02*
X103398D01*
X102798Y-20528D02*
X103398D01*
X102798Y-20428D02*
X103398D01*
X102798Y-20328D02*
X103398D01*
X102798Y-20228D02*
X103398D01*
X102798Y-20128D02*
X103398D01*
X102698Y-20028D02*
X103398D01*
X102698Y-19928D02*
X103398D01*
X102598Y-19828D02*
X103398D01*
X102598Y-19728D02*
X103398D01*
X102498Y-19628D02*
X103398D01*
X102398Y-19528D02*
X103398D01*
X102298Y-19428D02*
X103398D01*
X102198Y-19328D02*
X103398D01*
X104598Y-22228D02*
X105298D01*
X104598Y-22128D02*
X105298D01*
X104598Y-22028D02*
X105198D01*
X104498Y-21928D02*
X105198D01*
X104498Y-21828D02*
X105198D01*
X104498Y-21728D02*
X105198D01*
X104498Y-21628D02*
X105198D01*
X104498Y-21428D02*
X105098D01*
X104498Y-21328D02*
X105098D01*
X104498Y-21228D02*
X105098D01*
X104498Y-21128D02*
X105098D01*
X104498Y-21028D02*
X105098D01*
X104498Y-20828D02*
X105098D01*
X104498Y-20728D02*
X105198D01*
X104498Y-20628D02*
X105198D01*
X104498Y-20528D02*
X105198D01*
X104498Y-20428D02*
X105198D01*
X104598Y-20328D02*
X105298D01*
X104598Y-20228D02*
X105298D01*
X104598Y-20128D02*
X105298D01*
X104598Y-20028D02*
X105398D01*
X104698Y-19928D02*
X105398D01*
X104698Y-19828D02*
X105498D01*
X104798Y-19728D02*
X105598D01*
X104798Y-19628D02*
X105598D01*
X107898D02*
X108698D01*
X104898Y-19528D02*
X105698D01*
X107798D02*
X108698D01*
X107698Y-19428D02*
X108598D01*
X104898D02*
X105798D01*
X104998Y-19328D02*
X105998D01*
X107598D02*
X108498D01*
X107998Y-28928D02*
X108698D01*
X111098D02*
X111898D01*
X111098Y-28828D02*
X111898D01*
X107998Y-28728D02*
X108698D01*
X110998D02*
X111898D01*
X107998Y-28628D02*
X108698D01*
X110898D02*
X111898D01*
X108098Y-28528D02*
X108798D01*
X110898D02*
X111898D01*
X108098Y-28428D02*
X108798D01*
X110798D02*
X111898D01*
X108098Y-28328D02*
X108898D01*
X110698D02*
X111898D01*
X108098Y-28228D02*
X108998D01*
X110498D02*
X111898D01*
X108198Y-28128D02*
X109098D01*
X110398D02*
X111898D01*
X108198Y-28028D02*
X109398D01*
X110098D02*
X111098D01*
X111198D02*
X111898D01*
X108298Y-27928D02*
X110998D01*
X111198D02*
X111898D01*
X108398Y-27828D02*
X110898D01*
X111198D02*
X111898D01*
X108498Y-27728D02*
X110798D01*
X111198D02*
X111898D01*
X108598Y-27628D02*
X110598D01*
X111198D02*
X111898D01*
X108798Y-27528D02*
X110398D01*
X109098Y-27428D02*
X110098D01*
X111198Y-27128D02*
X111898D01*
X111198Y-27028D02*
X111898D01*
X111198Y-27528D02*
X111898D01*
X111198Y-27428D02*
X111898D01*
X111198Y-27328D02*
X111898D01*
X111198Y-27228D02*
X111898D01*
X111198Y-26928D02*
X111898D01*
X111198Y-26828D02*
X111898D01*
X111198Y-26728D02*
X111898D01*
X111198Y-26628D02*
X111898D01*
X111198Y-26528D02*
X111898D01*
X111198Y-26428D02*
X111898D01*
X111198Y-26328D02*
X111898D01*
X111198Y-26228D02*
X111898D01*
X111198Y-26128D02*
X111898D01*
X111198Y-26028D02*
X111898D01*
X111198Y-25928D02*
X111898D01*
X111198Y-25828D02*
X111898D01*
X111198Y-25728D02*
X111898D01*
X111198Y-25628D02*
X111898D01*
X111198Y-25528D02*
X111898D01*
X111198Y-25428D02*
X111898D01*
X111198Y-23728D02*
X111898D01*
X111198Y-23628D02*
X111898D01*
X111198Y-23528D02*
X111898D01*
X111198Y-23428D02*
X111898D01*
X111198Y-23328D02*
X111898D01*
X111198Y-23228D02*
X111898D01*
X111198Y-23128D02*
X111898D01*
X111198Y-23028D02*
X111898D01*
X111198Y-22928D02*
X111898D01*
X111198Y-22828D02*
X111898D01*
X111198Y-22728D02*
X111898D01*
X111198Y-22628D02*
X111898D01*
X107998D02*
X108798D01*
X108098Y-22528D02*
X108798D01*
X108098Y-22428D02*
X108898D01*
X108198Y-22328D02*
X108898D01*
X108198Y-22228D02*
X108898D01*
X108298Y-22128D02*
X108998D01*
X108298Y-22028D02*
X108998D01*
X108298Y-21928D02*
X108998D01*
X108298Y-21828D02*
X108998D01*
X108398Y-21728D02*
X108998D01*
X108398Y-21628D02*
X109098D01*
X108398Y-21528D02*
X109098D01*
X108398Y-21428D02*
X109098D01*
X108398Y-21328D02*
X109098D01*
X108398Y-21228D02*
X109098D01*
X108398Y-21128D02*
X109098D01*
X108398Y-21028D02*
X109098D01*
X108398Y-20928D02*
X109098D01*
X108398Y-20828D02*
X109098D01*
X108398Y-20728D02*
X109098D01*
X108398Y-20628D02*
X108998D01*
X108298Y-20528D02*
X108998D01*
X108298Y-20428D02*
X108998D01*
X108298Y-20328D02*
X108998D01*
X108298Y-20228D02*
X108998D01*
X108198Y-20128D02*
X108898D01*
X108198Y-20028D02*
X108898D01*
X108098Y-19928D02*
X108898D01*
X107998Y-19828D02*
X108798D01*
X107998Y-19728D02*
X108798D01*
X110498Y-19328D02*
X111898D01*
X110298Y-19228D02*
X111898D01*
X111198Y-22528D02*
X111898D01*
X111198Y-22428D02*
X111898D01*
X111198Y-22328D02*
X111898D01*
X111198Y-22228D02*
X111898D01*
X111198Y-22128D02*
X111898D01*
X111198Y-22028D02*
X111898D01*
X111198Y-21928D02*
X111898D01*
X111198Y-21828D02*
X111898D01*
X111198Y-21728D02*
X111898D01*
X111198Y-21628D02*
X111898D01*
X111198Y-21528D02*
X111898D01*
X111198Y-21428D02*
X111898D01*
X111198Y-21328D02*
X111898D01*
X111198Y-21228D02*
X111898D01*
X111198Y-21128D02*
X111898D01*
X111198Y-21028D02*
X111898D01*
X111198Y-20928D02*
X111898D01*
X111198Y-20828D02*
X111898D01*
X111198Y-20728D02*
X111898D01*
X111198Y-20628D02*
X111898D01*
X111198Y-20528D02*
X111898D01*
X111198Y-20428D02*
X111898D01*
X111198Y-20328D02*
X111898D01*
X111198Y-20228D02*
X111898D01*
X111198Y-20128D02*
X111898D01*
X111098Y-20028D02*
X111898D01*
X111098Y-19928D02*
X111898D01*
X110998Y-19828D02*
X111898D01*
X110998Y-19728D02*
X111898D01*
X110898Y-19628D02*
X111898D01*
X110798Y-19528D02*
X111898D01*
X110698Y-19428D02*
X111898D01*
X101998Y-19228D02*
X103398D01*
X101598Y-19128D02*
X102698D01*
X102798D02*
X103398D01*
X102798Y-19028D02*
X103398D01*
X102798Y-18928D02*
X103398D01*
X100198Y-18828D02*
X102398D01*
X102798D02*
X103398D01*
X102798Y-18728D02*
X103398D01*
X100598Y-18628D02*
X101998D01*
X102798D02*
X103398D01*
X102798Y-18528D02*
X103398D01*
X102798Y-18428D02*
X103398D01*
X102798Y-18328D02*
X103398D01*
X102798Y-18228D02*
X103398D01*
X102798Y-18128D02*
X103398D01*
X102798Y-18028D02*
X103398D01*
X102798Y-17928D02*
X103398D01*
X102798Y-17828D02*
X103398D01*
X102798Y-17728D02*
X103398D01*
X102798Y-17628D02*
X103398D01*
X102798Y-17528D02*
X103398D01*
X102798Y-17428D02*
X103398D01*
X102798Y-17328D02*
X103398D01*
X102798Y-17228D02*
X103398D01*
X102798Y-17128D02*
X103398D01*
X102798Y-17028D02*
X103398D01*
X102798Y-16928D02*
X103398D01*
X102798Y-16828D02*
X103398D01*
X102801Y-16728D02*
X103401D01*
X102801Y-16628D02*
X103401D01*
X102801Y-16528D02*
X103401D01*
X105098Y-19228D02*
X106198D01*
X107398D02*
X108398D01*
X105198Y-19128D02*
X106498D01*
X109398D02*
X111098D01*
X111198D02*
X111898D01*
X107098D02*
X108298D01*
X105298Y-19028D02*
X108198D01*
X109398D02*
X111098D01*
X111198D02*
X111898D01*
X105398Y-18928D02*
X108098D01*
X109398D02*
X110998D01*
X111198D02*
X111898D01*
X105598Y-18828D02*
X107998D01*
X109398D02*
X110898D01*
X111198D02*
X111898D01*
X105798Y-18728D02*
X107798D01*
X111198D02*
X111898D01*
X109398D02*
X110698D01*
X105998Y-18628D02*
X107498D01*
X109398D02*
X110498D01*
X111198D02*
X111898D01*
X106498Y-18528D02*
X106998D01*
X109698D02*
X110098D01*
X110998Y-39928D02*
X111898D01*
X110898Y-40028D02*
X111898D01*
X111198Y-39828D02*
X111998D01*
X111298Y-39728D02*
X111998D01*
X111298Y-39628D02*
X112098D01*
X111398Y-39528D02*
X112098D01*
X110598Y-40128D02*
X111798D01*
X111398Y-39428D02*
X112098D01*
X111398Y-39328D02*
X112098D01*
X111498Y-39228D02*
X112098D01*
X111298Y-36928D02*
X111998D01*
X111298Y-37028D02*
X111998D01*
X109398Y-37928D02*
X111398D01*
X109698Y-37828D02*
X111498D01*
X110098Y-37728D02*
X111598D01*
X110498Y-37628D02*
X111698D01*
X110698Y-37528D02*
X111798D01*
X110898Y-37428D02*
X111898D01*
X111098Y-37328D02*
X111898D01*
X111198Y-37228D02*
X111898D01*
X111198Y-37128D02*
X111898D01*
M02*
